# Created by Kenney (www.kenney.nl)

mtllib bump.mtl

g bump

v 0.49995 0 -0.4999501
v 0.4999501 0 0.49995
v 0.49995 0.063327 -0.4999501
v 0.4999501 0.063327 0.49995
v -0.4999501 0 -0.49995
v -0.49995 0 0.4999501
v -0.4999501 0.063327 -0.49995
v -0.07763799 0.063327 -0.2897488
v -0.149985 0.063327 -0.2597817
v -0.2121109 0.063327 -0.2121108
v -0.2597817 0.063327 -0.149985
v -0.2897488 0.063327 -0.07763791
v -0.49995 0.063327 0.4999501
v -2.980232E-08 0.063327 -0.29997
v -0.29997 0.063327 2.980232E-08
v -0.2897488 0.063327 0.07763799
v -0.2597817 0.063327 0.149985
v -0.2121108 0.063327 0.2121109
v -0.149985 0.063327 0.2597817
v -0.07763793 0.063327 0.2897488
v 2.980232E-08 0.063327 0.29997
v 0.07763793 0.063327 -0.2897488
v 0.07763799 0.063327 0.2897488
v 0.149985 0.063327 0.2597817
v 0.2121109 0.063327 0.2121108
v 0.2597817 0.063327 0.149985
v 0.2897488 0.063327 0.07763791
v 0.29997 0.063327 -2.980232E-08
v 0.2897488 0.063327 -0.07763799
v 0.2597817 0.063327 -0.149985
v 0.2121108 0.063327 -0.2121109
v 0.149985 0.063327 -0.2597817
v -1.490116E-08 0.096657 -0.149985
v 0.03881896 0.096657 -0.1448744
v -0.03881899 0.096657 -0.1448744
v -0.07499252 0.096657 -0.1298908
v 0.07499249 0.096657 -0.1298909
v -0.1060554 0.096657 -0.1060554
v 0.1060554 0.096657 -0.1060554
v -0.1298909 0.096657 -0.07499249
v 0.1298908 0.096657 -0.07499252
v -0.1448744 0.096657 -0.03881896
v 0.1448744 0.096657 -0.03881899
v -0.149985 0.096657 1.490116E-08
v 0.149985 0.096657 -1.490116E-08
v -0.1448744 0.096657 0.03881899
v 0.1448744 0.096657 0.03881896
v -0.1298908 0.096657 0.07499252
v 0.1298909 0.096657 0.07499249
v -0.1060554 0.096657 0.1060554
v 0.1060554 0.096657 0.1060554
v -0.07499249 0.096657 0.1298909
v 0.07499252 0.096657 0.1298908
v -0.03881896 0.096657 0.1448744
v 0.03881899 0.096657 0.1448744
v 1.490116E-08 0.096657 0.149985

vn 1 0 -1.192093E-07
vn 0 -1 0
vn -1.192093E-07 0 -1
vn 0 1 0
vn 1.192093E-07 0 1
vn -1 0 1.192093E-07
vn -1.490116E-08 0.9930038 -0.1180831
vn 0.03056213 0.9930038 -0.1140595
vn -0.03056216 0.9930038 -0.1140595
vn -0.05904155 0.9930038 -0.1022629
vn 0.05904152 0.9930038 -0.102263
vn -0.08349734 0.9930038 -0.08349733
vn 0.08349732 0.9930038 -0.08349734
vn -0.102263 0.9930038 -0.05904151
vn 0.1022629 0.9930038 -0.05904155
vn -0.1140595 0.9930038 -0.03056213
vn 0.1140595 0.9930038 -0.03056216
vn -0.1180831 0.9930038 1.490116E-08
vn 0.1180831 0.9930038 -1.490116E-08
vn -0.1140595 0.9930038 0.03056216
vn 0.1140595 0.9930038 0.03056213
vn -0.1022629 0.9930038 0.05904155
vn 0.102263 0.9930038 0.05904151
vn -0.08349732 0.9930038 0.08349734
vn 0.08349734 0.9930038 0.08349733
vn -0.05904152 0.9930038 0.102263
vn 0.05904155 0.9930038 0.1022629
vn -0.03056213 0.9930038 0.1140595
vn 0.03056216 0.9930038 0.1140595
vn 1.490116E-08 0.9930038 0.1180831
vn 0.1084652 0.9761871 -0.1878673
vn 0.153393 0.9761871 -0.153393
vn 0.05614572 0.9761871 -0.2095388
vn -2.980232E-08 0.9761871 -0.2169305
vn -0.05614578 0.9761871 -0.2095388
vn -0.1084653 0.9761871 -0.1878673
vn -0.153393 0.9761871 -0.153393
vn -0.1878673 0.9761871 -0.1084652
vn -0.2095388 0.9761871 -0.05614573
vn -0.2169305 0.9761871 2.980232E-08
vn -0.2095388 0.9761871 0.05614579
vn -0.1878673 0.9761871 0.1084653
vn -0.153393 0.9761871 0.153393
vn -0.1084652 0.9761871 0.1878673
vn -0.05614572 0.9761871 0.2095388
vn 2.980232E-08 0.9761871 0.2169305
vn 0.05614578 0.9761871 0.2095388
vn 0.1084653 0.9761871 0.1878673
vn 0.153393 0.9761871 0.153393
vn 0.2095388 0.9761871 -0.05614579
vn 0.2169305 0.9761871 -2.980232E-08
vn 0.2095388 0.9761871 0.05614573
vn 0.1878673 0.9761871 -0.1084653
vn 0.1878673 0.9761871 0.1084652

vt 19.68307 1.994306E-13
vt -19.68307 1.994306E-13
vt 19.68307 2.493189
vt -19.68307 2.493189
vt 19.68307 -19.68307
vt -19.68307 -19.68307
vt 19.68307 19.68307
vt -19.68307 19.68307
vt 19.68307 0
vt -19.68307 0
vt -11.40743 -3.056612
vt -10.22762 -5.904921
vt -8.35082 -8.35082
vt -5.904921 -10.22762
vt -3.056612 -11.40743
vt -11.80984 -1.401761E-18
vt -1.219255E-11 -11.80984
vt 3.056612 -11.40743
vt 5.904921 -10.22762
vt 8.35082 -8.35082
vt 10.22762 -5.904921
vt 11.40743 -3.056612
vt 11.80984 -1.401761E-18
vt -11.40743 3.056612
vt 11.40743 3.056612
vt 10.22762 5.904921
vt 8.35082 8.35082
vt 5.904921 10.22762
vt 3.056612 11.40743
vt -1.219255E-11 11.80984
vt -3.056612 11.40743
vt -5.904921 10.22762
vt -8.35082 8.35082
vt -10.22762 5.904921
vt 19.68307 -2.297323E-28
vt -19.68307 -2.297323E-28
vt -5.904921 0
vt -5.703716 1.528306
vt -5.703716 -1.528306
vt -5.113812 -2.952461
vt -5.113812 2.952461
vt -4.17541 -4.17541
vt -4.17541 4.17541
vt -2.952461 -5.113812
vt -2.952461 5.113812
vt -1.528306 -5.703716
vt -1.528306 5.703716
vt -1.202238E-11 -5.904921
vt -1.202238E-11 5.904921
vt 1.528306 -5.703716
vt 1.528306 5.703716
vt 2.952461 -5.113812
vt 2.952461 5.113812
vt 4.17541 -4.17541
vt 4.17541 4.17541
vt 5.113812 -2.952461
vt 5.113812 2.952461
vt 5.703716 -1.528306
vt 5.703716 1.528306
vt 5.904921 0
vt 1.541494 -10.88003
vt -1.541494 -10.88003
vt 0.7707469 -4.880374
vt -0.7707469 -4.880374

usemtl green

f 3/3/1 2/2/1 1/1/1
f 2/2/1 3/3/1 4/4/1
f 1/7/2 6/6/2 5/5/2
f 6/6/2 1/7/2 2/8/2
f 3/4/3 5/9/3 7/3/3
f 5/9/3 3/4/3 1/10/3
f 7/6/4 8/11/4 3/8/4
f 8/11/4 7/6/4 9/12/4
f 9/12/4 7/6/4 10/13/4
f 10/13/4 7/6/4 11/14/4
f 11/14/4 7/6/4 12/15/4
f 12/15/4 7/6/4 13/5/4
f 3/8/4 8/11/4 14/16/4
f 12/15/4 13/5/4 15/17/4
f 15/17/4 13/5/4 16/18/4
f 16/18/4 13/5/4 17/19/4
f 17/19/4 13/5/4 18/20/4
f 18/20/4 13/5/4 19/21/4
f 19/21/4 13/5/4 20/22/4
f 20/22/4 13/5/4 21/23/4
f 22/24/4 3/8/4 14/16/4
f 8/11/4 22/24/4 14/16/4
f 22/24/4 8/11/4 9/12/4
f 4/7/4 21/23/4 13/5/4
f 4/7/4 23/25/4 21/23/4
f 23/25/4 20/22/4 21/23/4
f 4/7/4 24/26/4 23/25/4
f 24/26/4 19/21/4 20/22/4
f 24/26/4 20/22/4 23/25/4
f 4/7/4 25/27/4 24/26/4
f 25/27/4 18/20/4 19/21/4
f 25/27/4 19/21/4 24/26/4
f 4/7/4 26/28/4 25/27/4
f 26/28/4 17/19/4 18/20/4
f 26/28/4 18/20/4 25/27/4
f 4/7/4 27/29/4 26/28/4
f 27/29/4 16/18/4 17/19/4
f 27/29/4 17/19/4 26/28/4
f 4/7/4 28/30/4 27/29/4
f 28/30/4 15/17/4 16/18/4
f 28/30/4 16/18/4 27/29/4
f 4/7/4 29/31/4 28/30/4
f 29/31/4 15/17/4 28/30/4
f 3/8/4 29/31/4 4/7/4
f 29/31/4 3/8/4 30/32/4
f 30/32/4 3/8/4 31/33/4
f 31/33/4 3/8/4 32/34/4
f 32/34/4 3/8/4 22/24/4
f 22/24/4 9/12/4 32/34/4
f 32/34/4 9/12/4 10/13/4
f 32/34/4 10/13/4 31/33/4
f 31/33/4 10/13/4 11/14/4
f 31/33/4 11/14/4 30/32/4
f 30/32/4 11/14/4 12/15/4
f 30/32/4 12/15/4 29/31/4
f 29/31/4 12/15/4 15/17/4
f 2/9/5 13/4/5 6/10/5
f 13/4/5 2/9/5 4/3/5
f 13/3/6 5/36/6 6/35/6
f 5/36/6 13/3/6 7/4/6
f 35/39/9 34/38/8 33/37/7
f 34/38/8 35/39/9 36/40/10
f 34/38/8 36/40/10 37/41/11
f 37/41/11 36/40/10 38/42/12
f 37/41/11 38/42/12 39/43/13
f 39/43/13 38/42/12 40/44/14
f 39/43/13 40/44/14 41/45/15
f 41/45/15 40/44/14 42/46/16
f 41/45/15 42/46/16 43/47/17
f 43/47/17 42/46/16 44/48/18
f 43/47/17 44/48/18 45/49/19
f 45/49/19 44/48/18 46/50/20
f 45/49/19 46/50/20 47/51/21
f 47/51/21 46/50/20 48/52/22
f 47/51/21 48/52/22 49/53/23
f 49/53/23 48/52/22 50/54/24
f 49/53/23 50/54/24 51/55/25
f 51/55/25 50/54/24 52/56/26
f 51/55/25 52/56/26 53/57/27
f 53/57/27 52/56/26 54/58/28
f 53/57/27 54/58/28 55/59/29
f 55/59/29 54/58/28 56/60/30
f 37/63/11 31/62/32 32/61/31
f 31/62/32 37/63/11 39/64/13
f 34/63/8 32/62/31 22/61/33
f 32/62/31 34/63/8 37/64/11
f 33/63/7 22/62/33 14/61/34
f 22/62/33 33/63/7 34/64/8
f 8/61/35 33/64/7 14/62/34
f 33/64/7 8/61/35 35/63/9
f 9/61/36 35/64/9 8/62/35
f 35/64/9 9/61/36 36/63/10
f 10/61/37 36/64/10 9/62/36
f 36/64/10 10/61/37 38/63/12
f 11/61/38 38/64/12 10/62/37
f 38/64/12 11/61/38 40/63/14
f 15/61/40 42/64/16 12/62/39
f 42/64/16 15/61/40 44/63/18
f 16/61/41 44/64/18 15/62/40
f 44/64/18 16/61/41 46/63/20
f 16/62/41 48/63/22 46/64/20
f 48/63/22 16/62/41 17/61/42
f 17/62/42 50/63/24 48/64/22
f 50/63/24 17/62/42 18/61/43
f 18/62/43 52/63/26 50/64/24
f 52/63/26 18/62/43 19/61/44
f 12/61/39 40/64/14 11/62/38
f 40/64/14 12/61/39 42/63/16
f 19/62/44 54/63/28 52/64/26
f 54/63/28 19/62/44 20/61/45
f 20/62/45 56/63/30 54/64/28
f 56/63/30 20/62/45 21/61/46
f 56/64/30 23/61/47 55/63/29
f 23/61/47 56/64/30 21/62/46
f 55/64/29 24/61/48 53/63/27
f 24/61/48 55/64/29 23/62/47
f 53/64/27 25/61/49 51/63/25
f 25/61/49 53/64/27 24/62/48
f 43/63/17 28/62/51 29/61/50
f 28/62/51 43/63/17 45/64/19
f 45/63/19 27/62/52 28/61/51
f 27/62/52 45/63/19 47/64/21
f 41/63/15 29/62/50 30/61/53
f 29/62/50 41/63/15 43/64/17
f 49/64/23 27/61/52 47/63/21
f 27/61/52 49/64/23 26/62/54
f 39/63/13 30/62/53 31/61/32
f 30/62/53 39/63/13 41/64/15
f 51/64/25 26/61/54 49/63/23
f 26/61/54 51/64/25 25/62/49

