# Created by Kenney (www.kenney.nl)

mtllib club_red.mtl

g club_red

v 0.05032214 -0.691199 -0.01288314
v 0.05395932 -0.6903833 -0.01288314
v 0.05032214 -0.691199 0.01288313
v 0.05395932 -0.6903833 0.01288313
v 0.057679 -0.6901419 -0.01288314
v 0.05767901 -0.6901419 0.01288312
v 0.08016646 -0.7067505 0.01288313
v 0.07875125 -0.7033021 0.01288313
v 0.08016646 -0.7067505 -0.01288314
v 0.07875125 -0.7033021 -0.01288314
v 0.08131957 -0.7140929 0.01288313
v 0.08102954 -0.7103767 0.01288313
v 0.08131957 -0.7140929 -0.01288314
v 0.08102954 -0.7103767 -0.01288314
v -0.1030651 -0.7700917 0.01288315
v -0.1030651 -0.7700917 -0.01288312
v -0.1028241 -0.7655501 0.01288315
v -0.1028241 -0.7655501 -0.01288312
v 0.06139113 -0.6904804 -0.01288314
v 0.06500579 -0.6913906 -0.01288314
v 0.06139113 -0.6904804 0.01288313
v 0.06500579 -0.6913906 0.01288313
v -0.1021038 -0.7610595 0.01288315
v -0.1021038 -0.7610595 -0.01288312
v 0.0193247 -0.7007367 0.01288313
v 0.0193247 -0.6482131 0.01288313
v 0.0193247 -0.7007367 -0.01288314
v 0.0193247 -0.6482131 -0.01288314
v -0.1009124 -0.7566702 0.01288315
v -0.1009124 -0.7566702 -0.01288312
v 0.06843544 -0.6928507 -0.01288314
v 0.07159703 -0.6948253 -0.01288314
v 0.06843544 -0.6928507 0.01288313
v 0.07159703 -0.6948253 0.01288313
v 0.07441401 -0.6972664 -0.01288314
v 0.07441401 -0.6972664 0.01288313
v 0.07681816 -0.700115 0.01288313
v 0.07681816 -0.700115 -0.01288314
v -0.09926313 -0.7524318 0.01288315
v -0.09926313 -0.7524318 -0.01288312
v -0.09717461 -0.7483917 0.01288315
v -0.09717461 -0.7483917 -0.01288312
v -0.09467027 -0.7445952 0.01288315
v -0.09467027 -0.7445952 -0.01288312
v -0.09177822 -0.7410852 0.01288314
v -0.09177822 -0.7410852 -0.01288313
v -0.08853097 -0.7379009 -0.01288313
v -0.08853097 -0.7379009 0.01288314
v -0.08496496 -0.7350781 -0.01288313
v -0.08496496 -0.7350781 0.01288314
v -0.08112025 -0.7326486 -0.01288313
v -0.08112025 -0.7326486 0.01288314
v -0.07704002 -0.7306395 -0.01288313
v -0.07704002 -0.7306395 0.01288314
v -0.006441568 -0.6482131 -0.006441566
v -0.0193247 -0.6482131 -0.01288313
v -0.0193247 -0.6482131 0.01288314
v -0.006441566 -0.6482131 0.006441568
v 0.006441568 -0.6482131 0.006441566
v 0.006441566 -0.6482131 -0.006441568
v -0.1030651 -0.7899276 0.01288315
v 0.08131957 -0.7448366 0.01288313
v -0.07277009 -0.7290736 0.01288314
v -0.0193247 -0.7126288 0.01288314
v -0.07277009 -0.7290736 -0.01288313
v -0.0193247 -0.7126288 -0.01288313
v 0.08131957 -0.7448366 -0.01288314
v -0.1030651 -0.7899276 -0.01288312
v -0.0172634 0.2 -0.0172634
v -0.01288314 -0.2004992 -0.01288313
v 0.0172634 0.2 -0.0172634
v 0.01288313 -0.2004992 -0.01288314
v 0.006441566 -0.2004992 -0.006441568
v -0.006441568 -0.2004992 -0.006441566
v 0.006441568 -0.2004992 0.006441566
v -0.006441566 -0.2004992 0.006441568
v 0.01288314 -0.2004992 0.01288313
v -0.01288313 -0.2004992 0.01288314
v -0.0172634 0.2 0.0172634
v 0.0172634 0.2 0.0172634

vn -0.2188265 0.9757638 2.980232E-08
vn -0.1422403 0.9898322 1.490116E-08
vn 0.01304991 0.9999149 -1.862645E-09
vn 0.9518599 0.3065336 -1.192093E-07
vn 0.8927773 0.4504987 -1.192093E-07
vn 0.9969684 0.07780857 -1.192093E-07
vn 0.9878918 0.1551454 -1.192093E-07
vn -0.9985953 0.05298757 1.192093E-07
vn -0.9943848 0.1058263 1.192093E-07
vn 0.168024 0.9857829 -1.490116E-08
vn 0.3189293 0.9477785 -2.980232E-08
vn -0.9776018 0.210464 1.192093E-07
vn 1 0 -1.192093E-07
vn -0.9498395 0.3127381 1.192093E-07
vn -0.2940858 0.955779 2.980232E-08
vn 0.4621111 0.8868221 -5.960464E-08
vn 0.594102 0.8043897 -5.960464E-08
vn 0.7117057 0.7024778 -5.960464E-08
vn 0.8120744 0.5835541 -1.192093E-07
vn -0.91141 0.4114999 1.192093E-07
vn -0.8627445 0.5056402 1.192093E-07
vn -0.8043898 0.5941019 1.192093E-07
vn -0.7370013 0.6758914 5.960464E-08
vn -0.6613358 0.7500901 5.960464E-08
vn -0.5782429 0.8158647 5.960464E-08
vn -0.4886559 0.8724766 5.960464E-08
vn -0.393581 0.9192899 5.960464E-08
vn 0 1 0
vn 1.192093E-07 0 1
vn -0.3443171 0.9388534 2.980232E-08
vn -1 0 1.192093E-07
vn -1.192093E-07 0 -1
vn 0.2375484 -0.9713757 -2.980232E-08
vn -1.192093E-07 -0.01093636 -0.9999404
vn 0 -1 0
vn -0.9999404 -0.01093636 1.192093E-07
vn 0.9999404 -0.01093636 -1.192093E-07
vn 1.192093E-07 -0.01093636 0.9999404

vt -0.5072099 -4.021658
vt -0.5072099 -3.874906
vt 0.5072099 -4.021658
vt 0.5072099 -3.874906
vt -0.5072099 0.3588539
vt -0.5072099 0.5056067
vt 0.5072099 0.3588539
vt 0.5072099 0.5056067
vt -0.5072099 -26.93968
vt -0.5072099 -26.79292
vt 0.5072099 -26.93968
vt 0.5072099 -26.79292
vt -0.5072099 -28.27777
vt -0.5072099 -28.13102
vt 0.5072099 -28.27777
vt 0.5072099 -28.13102
vt 0.5072099 -30.49098
vt -0.5072099 -30.49098
vt 0.5072099 -30.31193
vt -0.5072099 -30.31193
vt 0.5072099 -8.982649
vt 0.5072099 -9.129402
vt -0.5072099 -8.982649
vt -0.5072099 -9.129402
vt 0.5072099 -30.40051
vt -0.5072099 -30.40051
vt 0.5072099 -30.22145
vt -0.5072099 -30.22145
vt -0.5072099 -27.58806
vt -0.5072099 -25.5202
vt 0.5072099 -27.58806
vt 0.5072099 -25.5202
vt 0.5072099 -29.96962
vt -0.5072099 -29.96962
vt 0.5072099 -29.79057
vt -0.5072099 -29.79057
vt -0.5072099 -7.386087
vt -0.5072099 -6.109252
vt 0.5072099 -7.386087
vt 0.5072099 -6.109252
vt 0.5072099 -16.73453
vt 0.5072099 -16.88128
vt -0.5072099 -16.73453
vt -0.5072099 -16.88128
vt 0.5072099 -20.04493
vt 0.5072099 -20.19168
vt -0.5072099 -20.04493
vt -0.5072099 -20.19168
vt -0.5072099 -23.01489
vt -0.5072099 -22.86813
vt 0.5072099 -23.01489
vt 0.5072099 -22.86813
vt 0.5072099 -13.16385
vt -0.5072099 -13.16385
vt 0.5072099 -13.01709
vt -0.5072099 -13.01709
vt -0.5072099 -25.28252
vt -0.5072099 -25.13577
vt 0.5072099 -25.28252
vt 0.5072099 -25.13577
vt 0.5072099 -4.728899
vt 0.5072099 -4.875652
vt -0.5072099 -4.728899
vt -0.5072099 -4.875652
vt -0.5072099 -27.94622
vt -0.5072099 -27.79947
vt 0.5072099 -27.94622
vt 0.5072099 -27.79947
vt 0.5072099 -29.20316
vt -0.5072099 -29.20316
vt 0.5072099 -29.02411
vt -0.5072099 -29.02411
vt 0.5072099 -28.10973
vt -0.5072099 -28.10973
vt 0.5072099 -27.93067
vt -0.5072099 -27.93067
vt 0.5072099 -24.99462
vt -0.5072099 -24.99462
vt 0.5072099 -24.81557
vt -0.5072099 -24.81557
vt -0.5072099 -23.00793
vt -0.5072099 -22.82887
vt 0.5072099 -23.00793
vt 0.5072099 -22.82887
vt -0.5072099 -20.76385
vt -0.5072099 -20.58479
vt 0.5072099 -20.76385
vt 0.5072099 -20.58479
vt -0.5072099 -18.28757
vt -0.5072099 -18.10852
vt 0.5072099 -18.28757
vt 0.5072099 -18.10852
vt 0.5072099 -26.70161
vt -0.5072099 -26.70161
vt 0.5072099 -26.52256
vt -0.5072099 -26.52256
vt -0.5072099 -15.60693
vt -0.5072099 -15.42787
vt 0.5072099 -15.60693
vt 0.5072099 -15.42787
vt -0.5072099 0.7608148
vt -0.2536049 -0.2536049
vt -0.5072099 -0.7608148
vt 0.5072099 -0.7608148
vt 0.2536049 -0.2536049
vt 0.2536049 0.2536049
vt -0.2536049 0.2536049
vt 0.5072099 0.7608148
vt -4.057679 -31.09951
vt -4.057679 -30.31857
vt 3.201558 -29.32428
vt -4.048192 -30.13977
vt -4.019835 -29.96297
vt -3.972928 -29.79017
vt -3.907997 -29.6233
vt -3.825772 -29.46424
vt -3.727175 -29.31477
vt -3.613316 -29.17658
vt -3.485471 -29.05122
vt -3.345077 -28.94008
vt -3.19371 -28.84443
vt -3.033071 -28.76534
vt -2.864964 -28.70368
vt -0.7608148 -28.05625
vt 0.7608148 -27.58806
vt -0.7608148 -25.5202
vt 1.981186 -27.21256
vt 2.124382 -27.18045
vt 2.270827 -27.17094
vt 2.416973 -27.18427
vt 2.559283 -27.2201
vt 2.694308 -27.27759
vt 2.818781 -27.35533
vt 2.929685 -27.45143
vt 3.024337 -27.56358
vt 3.100443 -27.68906
vt 3.15616 -27.82482
vt 3.190139 -27.96759
vt 3.201558 -28.1139
vt 0.7608148 -25.5202
vt -0.5072099 -12.75201
vt -0.5072099 -12.57295
vt 0.5072099 -12.75201
vt 0.5072099 -12.57295
vt 0.5072099 -28.05625
vt -0.5072099 -28.05625
vt 0.7608148 -28.05625
vt -0.7608148 -27.58806
vt -3.201558 -29.32428
vt 2.864964 -28.70368
vt 3.033071 -28.76534
vt 3.19371 -28.84443
vt 3.345077 -28.94008
vt 3.485471 -29.05122
vt 3.613316 -29.17658
vt 3.727175 -29.31477
vt 3.825772 -29.46424
vt 3.907997 -29.6233
vt 3.972928 -29.79017
vt 4.019835 -29.96297
vt 4.048192 -30.13977
vt 4.057679 -31.09951
vt 4.057679 -30.31857
vt -1.981186 -27.21256
vt -2.124382 -27.18045
vt -2.270827 -27.17094
vt -2.416973 -27.18427
vt -2.559283 -27.2201
vt -2.694308 -27.27759
vt -2.818781 -27.35533
vt -2.929685 -27.45143
vt -3.024337 -27.56358
vt -3.100443 -27.68906
vt -3.15616 -27.82482
vt -3.190139 -27.96759
vt -3.201558 -28.1139
vt 0.5072099 -11.32917
vt -0.5072099 -11.32917
vt 0.5072099 -3.856019
vt -0.5072099 -3.856019
vt -0.5072099 -11.17962
vt -0.5072099 -8.978118
vt 0.5072099 -11.17962
vt 0.5072099 -8.978118
vt 0.5072099 -31.09951
vt -0.5072099 -31.09951
vt 0.5072099 -30.31857
vt -0.5072099 -30.31857
vt -0.5072099 -29.32428
vt -0.5072099 -28.1139
vt 0.5072099 -29.32428
vt 0.5072099 -28.1139
vt 0.6796613 7.880978
vt 0.5072099 -7.887652
vt -0.6796613 7.880978
vt -0.5072099 -7.887652
vt -0.5072099 0.5072099
vt 0.5072099 0.5072099
vt 0.5072099 -0.5072099
vt -0.5072099 -0.5072099
vt -0.6796613 -0.6796613
vt -0.6796613 0.6796613
vt 0.6796613 -0.6796613
vt 0.6796613 0.6796613
vt 0.2536049 -25.5202
vt -0.2536049 -25.5202
vt 0.2536049 -7.893671
vt -0.2536049 -7.893671

usemtl dark

f 3/3/1 2/2/2 1/1/1
f 2/2/2 3/3/1 4/4/2
f 4/7/2 5/6/3 2/5/2
f 5/6/3 4/7/2 6/8/3
f 9/11/4 8/10/5 7/9/4
f 8/10/5 9/11/4 10/12/5
f 13/15/6 12/14/7 11/13/6
f 12/14/7 13/15/6 14/16/7
f 17/19/9 16/18/8 15/17/8
f 16/18/8 17/19/9 18/20/9
f 21/23/10 20/22/11 19/21/10
f 20/22/11 21/23/10 22/24/11
f 23/27/12 18/26/9 17/25/9
f 18/26/9 23/27/12 24/28/12
f 27/31/13 26/30/13 25/29/13
f 26/30/13 27/31/13 28/32/13
f 29/35/14 24/34/12 23/33/12
f 24/34/12 29/35/14 30/36/14
f 25/39/15 1/38/15 27/37/15
f 1/38/15 25/39/15 3/40/15
f 33/43/16 32/42/17 31/41/16
f 32/42/17 33/43/16 34/44/17
f 34/47/17 35/46/18 32/45/17
f 35/46/18 34/47/17 36/48/18
f 38/51/19 36/50/18 37/49/19
f 36/50/18 38/51/19 35/52/18
f 20/55/11 33/54/16 31/53/16
f 33/54/16 20/55/11 22/56/11
f 10/59/5 37/58/19 8/57/5
f 37/58/19 10/59/5 38/60/19
f 6/63/3 19/62/10 5/61/3
f 19/62/10 6/63/3 21/64/10
f 14/67/7 7/66/4 12/65/7
f 7/66/4 14/67/7 9/68/4
f 39/71/20 30/70/14 29/69/14
f 30/70/14 39/71/20 40/72/20
f 41/75/21 40/74/20 39/73/20
f 40/74/20 41/75/21 42/76/21
f 45/79/23 44/78/22 43/77/22
f 44/78/22 45/79/23 46/80/23
f 45/83/23 47/82/24 46/81/23
f 47/82/24 45/83/23 48/84/24
f 48/87/24 49/86/25 47/85/24
f 49/86/25 48/87/24 50/88/25
f 50/91/25 51/90/26 49/89/25
f 51/90/26 50/91/25 52/92/26
f 43/95/22 42/94/21 41/93/21
f 42/94/21 43/95/22 44/96/22
f 52/99/26 53/98/27 51/97/26
f 53/98/27 52/99/26 54/100/27
f 56/103/28 55/102/28 28/101/28
f 55/102/28 56/103/28 57/104/28
f 55/102/28 57/104/28 58/105/28
f 58/105/28 57/104/28 59/106/28
f 60/107/28 28/101/28 55/102/28
f 28/101/28 60/107/28 26/108/28
f 26/108/28 60/107/28 59/106/28
f 26/108/28 59/106/28 57/104/28
f 62/111/29 15/110/29 61/109/29
f 15/110/29 62/111/29 17/112/29
f 17/112/29 62/111/29 23/113/29
f 23/113/29 62/111/29 29/114/29
f 29/114/29 62/111/29 39/115/29
f 39/115/29 62/111/29 41/116/29
f 41/116/29 62/111/29 43/117/29
f 43/117/29 62/111/29 45/118/29
f 45/118/29 62/111/29 48/119/29
f 48/119/29 62/111/29 50/120/29
f 50/120/29 62/111/29 52/121/29
f 52/121/29 62/111/29 54/122/29
f 54/122/29 62/111/29 63/123/29
f 63/123/29 62/111/29 64/124/29
f 64/124/29 62/111/29 25/125/29
f 64/124/29 25/125/29 57/126/29
f 25/125/29 62/111/29 3/127/29
f 3/127/29 62/111/29 4/128/29
f 4/128/29 62/111/29 6/129/29
f 6/129/29 62/111/29 21/130/29
f 21/130/29 62/111/29 22/131/29
f 22/131/29 62/111/29 33/132/29
f 33/132/29 62/111/29 34/133/29
f 34/133/29 62/111/29 36/134/29
f 36/134/29 62/111/29 37/135/29
f 37/135/29 62/111/29 8/136/29
f 8/136/29 62/111/29 7/137/29
f 7/137/29 62/111/29 12/138/29
f 12/138/29 62/111/29 11/139/29
f 26/140/29 57/126/29 25/125/29
f 54/143/27 65/142/30 53/141/27
f 65/142/30 54/143/27 63/144/30
f 57/32/31 66/146/31 64/145/31
f 66/146/31 57/32/31 56/30/31
f 28/126/32 66/147/32 56/140/32
f 66/147/32 28/126/32 27/148/32
f 67/149/32 66/147/32 27/148/32
f 67/149/32 65/150/32 66/147/32
f 67/149/32 53/151/32 65/150/32
f 67/149/32 51/152/32 53/151/32
f 67/149/32 49/153/32 51/152/32
f 67/149/32 47/154/32 49/153/32
f 67/149/32 46/155/32 47/154/32
f 67/149/32 44/156/32 46/155/32
f 67/149/32 42/157/32 44/156/32
f 67/149/32 40/158/32 42/157/32
f 67/149/32 30/159/32 40/158/32
f 67/149/32 24/160/32 30/159/32
f 67/149/32 18/161/32 24/160/32
f 68/162/32 18/161/32 67/149/32
f 18/161/32 68/162/32 16/163/32
f 67/149/32 27/148/32 1/164/32
f 67/149/32 1/164/32 2/165/32
f 67/149/32 2/165/32 5/166/32
f 67/149/32 5/166/32 19/167/32
f 67/149/32 19/167/32 20/168/32
f 67/149/32 20/168/32 31/169/32
f 67/149/32 31/169/32 32/170/32
f 67/149/32 32/170/32 35/171/32
f 67/149/32 35/171/32 38/172/32
f 67/149/32 38/172/32 10/173/32
f 67/149/32 10/173/32 9/174/32
f 67/149/32 9/174/32 14/175/32
f 67/149/32 14/175/32 13/176/32
f 67/179/33 61/178/33 68/177/33
f 61/178/33 67/179/33 62/180/33
f 63/183/15 66/182/15 65/181/15
f 66/182/15 63/183/15 64/184/15
f 15/187/31 68/186/31 61/185/31
f 68/186/31 15/187/31 16/188/31
f 67/191/13 11/190/13 62/189/13
f 11/190/13 67/191/13 13/192/13

usemtl border

f 71/195/34 70/194/34 69/193/34
f 70/194/34 71/195/34 72/196/34
f 75/107/35 74/105/35 73/106/35
f 74/105/35 75/107/35 76/102/35
f 73/106/35 77/197/35 75/107/35
f 75/107/35 77/197/35 76/102/35
f 73/106/35 72/198/35 77/197/35
f 72/198/35 73/106/35 70/199/35
f 74/105/35 70/199/35 73/106/35
f 70/199/35 74/105/35 78/200/35
f 78/200/35 74/105/35 76/102/35
f 78/200/35 76/102/35 77/197/35
f 79/193/36 70/196/36 78/194/36
f 70/196/36 79/193/36 69/195/36
f 72/194/37 80/195/37 77/196/37
f 80/195/37 72/194/37 71/193/37
f 78/196/38 80/193/38 79/195/38
f 80/193/38 78/196/38 77/194/38
f 79/203/28 71/202/28 69/201/28
f 71/202/28 79/203/28 80/204/28

usemtl metal

f 76/207/31 55/206/31 58/205/31
f 55/206/31 76/207/31 74/208/31
f 60/205/13 75/208/13 59/206/13
f 75/208/13 60/205/13 73/207/13
f 73/208/32 55/205/32 74/207/32
f 55/205/32 73/208/32 60/206/32
f 59/205/29 76/208/29 58/206/29
f 76/208/29 59/205/29 75/207/29

