# Created by Kenney (www.kenney.nl)

mtllib holeSquare.mtl

g holeSquare

v -0.4999501 0 -0.49995
v -0.4999501 0 -0.39996
v 0.49995 0 -0.4999501
v 0.4999501 0 0.49995
v -0.49995 0 0.3999601
v -0.49995 0 0.4999501
v -0.4999501 0.146652 -0.49995
v 0.49995 0.146652 -0.4999501
v -0.49995 0.146652 0.3999601
v 0.3999601 0.146652 0.39996
v -0.49995 0.146652 0.4999501
v 0.4999501 0.146652 0.49995
v 0.39996 0.146652 -0.3999601
v -0.4999501 0.146652 -0.39996
v -0.49995 0.063327 0.3999601
v 0.3999601 0.063327 0.39996
v -0.4999501 0.063327 -0.39996
v 0.39996 0.063327 -0.3999601
v 0.03333001 0.063327 0.05772926
v 0.03333001 0.0316635 0.05772926
v 0.04713575 0.063327 0.04713574
v 0.04713575 0.0316635 0.04713574
v 0.05772926 0.0316635 0.03332999
v 0.05772926 0.063327 0.03332999
v 0.06438862 0.0316635 0.01725287
v 0.06438862 0.063327 0.01725287
v 0.06666001 0.0316635 -7.450581E-09
v 0.06666001 0.063327 -7.450581E-09
v 0.06438862 0.0316635 -0.01725288
v 0.06438862 0.063327 -0.01725288
v 0.05772926 0.0316635 -0.03333001
v 0.05772926 0.063327 -0.03333001
v 0.04713574 0.0316635 -0.04713575
v 0.04713574 0.063327 -0.04713575
v 0.03333 0.0316635 -0.05772926
v 0.03333 0.063327 -0.05772926
v 0.01725287 0.0316635 -0.06438862
v 0.01725287 0.063327 -0.06438862
v -7.450577E-09 0.0316635 -0.06666001
v -7.450577E-09 0.063327 -0.06666001
v -0.01725289 0.0316635 -0.06438862
v -0.01725289 0.063327 -0.06438862
v -0.03333001 0.0316635 -0.05772926
v -0.03333001 0.063327 -0.05772926
v -0.04713575 0.0316635 -0.04713574
v -0.04713575 0.063327 -0.04713574
v -0.05772926 0.0316635 -0.03332999
v -0.05772926 0.063327 -0.03332999
v -0.06438862 0.0316635 -0.01725287
v -0.06438862 0.063327 -0.01725287
v -0.06666001 0.0316635 7.450581E-09
v -0.06666001 0.063327 7.450581E-09
v -0.06438862 0.0316635 0.01725288
v -0.06438862 0.063327 0.01725288
v -0.05772926 0.0316635 0.03333001
v -0.05772926 0.063327 0.03333001
v -0.04713574 0.0316635 0.04713575
v -0.04713574 0.063327 0.04713575
v -0.03333 0.063327 0.05772926
v -0.03333 0.0316635 0.05772926
v -0.01725287 0.063327 0.06438862
v -0.01725287 0.0316635 0.06438862
v 7.450583E-09 0.063327 0.06666001
v 7.450583E-09 0.0316635 0.06666001
v 0.01725289 0.063327 0.06438862
v 0.01725289 0.0316635 0.06438862

vn 0 -1 0
vn -1.192093E-07 0 -1
vn 0 1 0
vn 1.192093E-07 0 1
vn -1 0 1.192093E-07
vn 1 0 -1.192093E-07
vn -0.5000002 0 -0.8660255
vn -0.7071069 0 -0.7071068
vn -0.8660256 0 -0.4999999
vn -0.9659259 0 -0.258819
vn -0.9659259 0 0.2588192
vn -0.8660255 0 0.5000002
vn -0.7071068 0 0.7071069
vn -0.4999999 0 0.8660256
vn -0.258819 0 0.9659259
vn 0.2588192 0 0.9659259
vn 0.5000002 0 0.8660255
vn 0.7071069 0 0.7071068
vn 0.8660256 0 0.4999999
vn 0.9659259 0 0.258819
vn 0.9659259 0 -0.2588192
vn 0.8660255 0 -0.5000002
vn 0.7071068 0 -0.7071069
vn 0.4999999 0 -0.8660256
vn 0.258819 0 -0.9659259
vn -0.2588192 0 -0.9659259

vt 19.68307 -19.68307
vt 15.74646 -19.68307
vt 19.68307 19.68307
vt -19.68307 19.68307
vt -15.74646 -19.68307
vt -19.68307 -19.68307
vt 19.68307 5.773701
vt 19.68307 -2.334518E-14
vt -19.68307 5.773701
vt -19.68307 -2.334518E-14
vt 15.74646 15.74646
vt -15.74646 15.74646
vt -19.68307 0
vt 19.68307 0
vt 19.68307 -4.102027E-30
vt 15.74646 -4.102027E-30
vt 15.74646 2.493189
vt 15.74646 5.773701
vt 19.68307 2.493189
vt -15.74646 5.773701
vt -15.74646 2.493189
vt 19.68307 8.872024E-15
vt -19.68307 8.872024E-15
vt -15.74646 1.53655E-14
vt -19.68307 1.53655E-14
vt -19.68307 2.493189
vt 0.3425542 2.493189
vt 0.3425542 1.246594
vt -0.3425542 2.493189
vt -0.3425542 1.246594
vt -1.855738 -1.855738
vt -2.272805 -1.312205
vt -2.534985 -0.6792471
vt -2.624409 1.136868E-13
vt -1.312205 -2.272805
vt -0.6792471 -2.534985
vt -1.20508E-11 -2.624409
vt 0.6792471 -2.534985
vt 1.312205 -2.272805
vt 1.855738 -1.855738
vt 2.272805 -1.312205
vt 2.534985 -0.6792471
vt 2.624409 1.136868E-13
vt -2.534985 0.6792471
vt 2.534985 0.6792471
vt 2.272805 1.312205
vt 1.855738 1.855738
vt 1.312205 2.272805
vt 0.6792471 2.534985
vt -1.20508E-11 2.624409
vt -0.6792471 2.534985
vt -1.312205 2.272805
vt -1.855738 1.855738
vt -2.272805 1.312205

usemtl border

f 3/3/1 2/2/1 1/1/1
f 2/2/1 3/3/1 4/4/1
f 2/2/1 4/4/1 5/5/1
f 5/5/1 4/4/1 6/6/1
f 8/9/2 1/8/2 7/7/2
f 1/8/2 8/9/2 3/10/2
f 11/1/3 10/11/3 9/2/3
f 12/3/3 10/11/3 11/1/3
f 12/3/3 13/12/3 10/11/3
f 8/4/3 13/12/3 12/3/3
f 8/4/3 14/5/3 13/12/3
f 14/5/3 8/4/3 7/6/3
f 4/14/4 11/9/4 6/13/4
f 11/9/4 4/14/4 12/7/4
f 11/7/5 5/16/5 6/15/5
f 5/16/5 11/7/5 15/17/5
f 15/17/5 11/7/5 9/18/5
f 10/20/2 15/19/2 9/7/2
f 15/19/2 10/20/2 16/21/2
f 8/7/6 4/23/6 3/22/6
f 4/23/6 8/7/6 12/9/6
f 17/21/5 1/25/5 2/24/5
f 1/25/5 17/21/5 7/9/5
f 7/9/5 17/21/5 14/20/5
f 18/17/4 14/9/4 17/26/4
f 14/9/4 18/17/4 13/18/4
f 10/18/5 18/21/5 16/17/5
f 18/21/5 10/18/5 13/20/5
f 21/29/8 20/28/7 19/27/7
f 20/28/7 21/29/8 22/30/8
f 21/27/8 23/30/9 22/28/8
f 23/30/9 21/27/8 24/29/9
f 24/27/9 25/30/10 23/28/9
f 25/30/10 24/27/9 26/29/10
f 26/27/10 27/30/5 25/28/10
f 27/30/5 26/27/10 28/29/5
f 28/27/5 29/30/11 27/28/5
f 29/30/11 28/27/5 30/29/11
f 30/27/11 31/30/12 29/28/11
f 31/30/12 30/27/11 32/29/12
f 32/27/12 33/30/13 31/28/12
f 33/30/13 32/27/12 34/29/13
f 33/28/13 36/29/14 35/30/14
f 36/29/14 33/28/13 34/27/13
f 35/28/14 38/29/15 37/30/15
f 38/29/15 35/28/14 36/27/14
f 37/28/15 40/29/4 39/30/4
f 40/29/4 37/28/15 38/27/15
f 39/28/4 42/29/16 41/30/16
f 42/29/16 39/28/4 40/27/4
f 41/28/16 44/29/17 43/30/17
f 44/29/17 41/28/16 42/27/16
f 43/28/17 46/29/18 45/30/18
f 46/29/18 43/28/17 44/27/17
f 46/27/18 47/30/19 45/28/18
f 47/30/19 46/27/18 48/29/19
f 48/27/19 49/30/20 47/28/19
f 49/30/20 48/27/19 50/29/20
f 50/27/20 51/30/6 49/28/20
f 51/30/6 50/27/20 52/29/6
f 52/27/6 53/30/21 51/28/6
f 53/30/21 52/27/6 54/29/21
f 54/27/21 55/30/22 53/28/21
f 55/30/22 54/27/21 56/29/22
f 56/27/22 57/30/23 55/28/22
f 57/30/23 56/27/22 58/29/23
f 59/29/24 57/28/23 58/27/23
f 57/28/23 59/29/24 60/30/24
f 61/29/25 60/28/24 59/27/24
f 60/28/24 61/29/25 62/30/25
f 63/29/2 62/28/25 61/27/25
f 62/28/25 63/29/2 64/30/2
f 65/29/26 64/28/2 63/27/2
f 64/28/2 65/29/26 66/30/26
f 19/29/7 66/28/26 65/27/26
f 66/28/26 19/29/7 20/30/7

usemtl green

f 17/5/3 46/31/3 18/12/3
f 46/31/3 17/5/3 15/2/3
f 18/12/3 46/31/3 44/32/3
f 18/12/3 44/32/3 42/33/3
f 18/12/3 42/33/3 40/34/3
f 46/31/3 15/2/3 48/35/3
f 48/35/3 15/2/3 50/36/3
f 50/36/3 15/2/3 52/37/3
f 52/37/3 15/2/3 54/38/3
f 54/38/3 15/2/3 56/39/3
f 56/39/3 15/2/3 58/40/3
f 58/40/3 15/2/3 59/41/3
f 59/41/3 15/2/3 61/42/3
f 61/42/3 15/2/3 63/43/3
f 38/44/3 18/12/3 40/34/3
f 16/11/3 63/43/3 15/2/3
f 16/11/3 65/45/3 63/43/3
f 16/11/3 19/46/3 65/45/3
f 16/11/3 21/47/3 19/46/3
f 16/11/3 24/48/3 21/47/3
f 16/11/3 26/49/3 24/48/3
f 16/11/3 28/50/3 26/49/3
f 16/11/3 30/51/3 28/50/3
f 16/11/3 32/52/3 30/51/3
f 16/11/3 34/53/3 32/52/3
f 18/12/3 34/53/3 16/11/3
f 34/53/3 18/12/3 36/54/3
f 36/54/3 18/12/3 38/44/3
f 15/17/5 2/24/5 5/16/5
f 2/24/5 15/17/5 17/21/5

usemtl dark

f 41/33/3 37/44/3 39/34/3
f 37/44/3 41/33/3 43/32/3
f 37/44/3 43/32/3 35/54/3
f 35/54/3 43/32/3 45/31/3
f 35/54/3 45/31/3 33/53/3
f 33/53/3 45/31/3 47/35/3
f 33/53/3 47/35/3 31/52/3
f 31/52/3 47/35/3 49/36/3
f 31/52/3 49/36/3 29/51/3
f 29/51/3 49/36/3 51/37/3
f 29/51/3 51/37/3 27/50/3
f 27/50/3 51/37/3 53/38/3
f 27/50/3 53/38/3 25/49/3
f 25/49/3 53/38/3 55/39/3
f 25/49/3 55/39/3 23/48/3
f 23/48/3 55/39/3 57/40/3
f 23/48/3 57/40/3 22/47/3
f 22/47/3 57/40/3 60/41/3
f 22/47/3 60/41/3 20/46/3
f 20/46/3 60/41/3 62/42/3
f 20/46/3 62/42/3 66/45/3
f 66/45/3 62/42/3 64/43/3

