# Created by Kenney (www.kenney.nl)

mtllib narrowBlock.mtl

g narrowBlock

v 0.49995 0 -0.4999501
v 0.49995 0 -0.3999601
v 0.49995 0.146652 -0.4999501
v 0.49995 0.063327 -0.3999601
v 0.49995 0.146652 -0.3999601
v -0.4999501 0 -0.49995
v -0.4999501 0 -0.39996
v -0.49995 0 0.3999601
v 0.4999501 0 0.39996
v -0.49995 0 0.4999501
v 0.4999501 0 0.49995
v -0.4999501 0.146652 -0.49995
v -0.49995 0.146652 0.3999601
v -0.249975 0.146652 0.3999601
v -0.49995 0.146652 0.4999501
v 0.2499751 0.146652 0.39996
v 0.4999501 0.146652 0.39996
v 0.4999501 0.146652 0.49995
v 0.2499751 0.146652 0.19998
v -0.249975 0.146652 0.1999801
v -0.49995 0.063327 0.3999601
v -0.2499751 0.146652 -0.39996
v 0.249975 0.146652 -0.3999601
v -0.2499751 0.146652 -0.19998
v 0.249975 0.146652 -0.1999801
v -0.4999501 0.146652 -0.39996
v 0.249975 0.063327 -0.3999601
v -0.249975 0.063327 0.3999601
v 0.4999501 0.063327 0.39996
v -0.4999501 0.063327 -0.39996
v 0.249975 0.063327 -0.1999801
v -0.2499751 0.063327 -0.19998
v -0.2499751 0.063327 -0.39996
v -0.249975 0.063327 0.1999801
v 0.2499751 0.063327 0.19998
v 0.2499751 0.063327 0.39996

vn 1 0 -1.192093E-07
vn 0 -1 0
vn -1.192093E-07 0 -1
vn 0 1 0
vn 1.192093E-07 0 1
vn -1 0 1.192093E-07

vt 19.68307 1.152413E-14
vt 15.74646 1.152413E-14
vt 19.68307 5.773701
vt 15.74646 2.493189
vt 15.74646 5.773701
vt 19.68307 -19.68307
vt 15.74646 -19.68307
vt 19.68307 19.68307
vt 15.74646 19.68307
vt -15.74646 -19.68307
vt -15.74646 19.68307
vt -19.68307 -19.68307
vt -19.68307 19.68307
vt 19.68307 0
vt -19.68307 5.773701
vt -19.68307 0
vt 15.74646 -9.841536
vt 15.74646 9.841536
vt 7.873229 9.841536
vt 7.873229 -9.841536
vt 19.68307 -3.155405E-31
vt 15.74646 -3.155405E-31
vt -15.74646 -9.841536
vt -15.74646 9.841536
vt -7.873229 -9.841536
vt -7.873229 9.841536
vt 9.841536 2.493189
vt 9.841536 5.773701
vt 19.68307 2.493189
vt -15.74646 5.608987E-14
vt -19.68307 1.152413E-14
vt -15.74646 2.493189
vt -15.74646 5.773701
vt -15.74646 1.53655E-14
vt -19.68307 1.53655E-14
vt 7.873229 2.493189
vt 7.873229 5.773701
vt -7.873229 2.493189
vt -7.873229 5.773701
vt -9.841536 2.493189
vt -9.841536 5.773701
vt -19.68307 2.493189

usemtl border

f 3/3/1 2/2/1 1/1/1
f 2/2/1 3/3/1 4/4/1
f 4/4/1 3/3/1 5/5/1
f 1/8/2 7/7/2 6/6/2
f 7/7/2 1/8/2 2/9/2
f 7/7/2 2/9/2 8/10/2
f 8/10/2 2/9/2 9/11/2
f 8/10/2 9/11/2 10/12/2
f 10/12/2 9/11/2 11/13/2
f 3/15/3 6/14/3 12/3/3
f 6/14/3 3/15/3 1/16/3
f 15/6/4 14/17/4 13/7/4
f 14/17/4 15/6/4 16/18/4
f 16/18/4 15/6/4 17/9/4
f 17/9/4 15/6/4 18/8/4
f 19/19/4 14/17/4 16/18/4
f 14/17/4 19/19/4 20/20/4
f 11/14/5 15/15/5 10/16/5
f 15/15/5 11/14/5 18/3/5
f 15/3/6 8/22/6 10/21/6
f 8/22/6 15/3/6 21/4/6
f 21/4/6 15/3/6 13/5/6
f 24/25/4 23/24/4 22/23/4
f 23/24/4 24/25/4 25/26/4
f 5/11/4 22/23/4 23/24/4
f 3/13/4 22/23/4 5/11/4
f 3/13/4 26/10/4 22/23/4
f 26/10/4 3/13/4 12/12/4
f 4/29/5 23/28/5 27/27/5
f 23/28/5 4/29/5 5/3/5
f 14/28/3 21/29/3 13/3/3
f 21/29/3 14/28/3 28/27/3
f 29/32/1 11/31/1 9/30/1
f 11/31/1 29/32/1 18/15/1
f 18/15/1 29/32/1 17/33/1
f 30/32/6 6/35/6 7/34/6
f 6/35/6 30/32/6 12/15/6
f 12/15/6 30/32/6 26/33/6
f 23/5/1 31/36/1 27/4/1
f 31/36/1 23/5/1 25/37/1
f 24/39/6 33/32/6 32/38/6
f 33/32/6 24/39/6 22/33/6
f 31/27/5 24/41/5 32/40/5
f 24/41/5 31/27/5 25/28/5
f 33/40/5 26/15/5 30/42/5
f 26/15/5 33/40/5 22/41/5
f 19/41/3 34/27/3 20/28/3
f 34/27/3 19/41/3 35/40/3
f 14/5/6 34/36/6 28/4/6
f 34/36/6 14/5/6 20/37/6
f 19/39/1 36/32/1 35/38/1
f 36/32/1 19/39/1 16/33/1
f 17/15/3 36/40/3 16/41/3
f 36/40/3 17/15/3 29/42/3

usemtl green

f 4/4/1 9/30/1 2/2/1
f 9/30/1 4/4/1 29/32/1
f 21/4/6 7/34/6 8/22/6
f 7/34/6 21/4/6 30/32/6
f 21/7/4 33/23/4 30/10/4
f 33/23/4 21/7/4 32/25/4
f 32/25/4 21/7/4 31/26/4
f 31/26/4 21/7/4 34/20/4
f 34/20/4 21/7/4 28/17/4
f 35/19/4 31/26/4 34/20/4
f 29/9/4 31/26/4 35/19/4
f 4/11/4 31/26/4 29/9/4
f 31/26/4 4/11/4 27/24/4
f 29/9/4 35/19/4 36/18/4

