# Created by Kenney (www.kenney.nl)

mtllib obstacleBlock.mtl

g obstacleBlock

v 0.49995 0 -0.4999501
v 0.49995 0 -0.3999601
v 0.49995 0.146652 -0.4999501
v 0.49995 0.063327 -0.3999601
v 0.49995 0.146652 -0.3999601
v -0.4999501 0 -0.49995
v -0.4999501 0 -0.39996
v -0.49995 0 0.3999601
v 0.4999501 0 0.39996
v -0.49995 0 0.4999501
v 0.4999501 0 0.49995
v -0.4999501 0.146652 -0.49995
v -0.49995 0.146652 0.3999601
v 0.4999501 0.146652 0.39996
v -0.49995 0.146652 0.4999501
v 0.4999501 0.146652 0.49995
v -0.49995 0.063327 0.3999601
v -0.4999501 0.146652 -0.39996
v -0.4999501 0.063327 -0.39996
v 0.4999501 0.063327 0.39996
v -0.3137417 0.146652 -0.08043164
v 0.3137417 0.146652 -0.08043168
v -0.3137417 0.146652 0.08043168
v 0.3137417 0.146652 0.08043164
v 0.3137417 0.063327 -0.08043168
v 0.3137417 0.063327 0.08043164
v -0.3137417 0.063327 -0.08043164
v -0.3137417 0.063327 0.08043168

vn 1 0 -1.192093E-07
vn 0 -1 0
vn -1.192093E-07 0 -1
vn 0 1 0
vn 1.192093E-07 0 1
vn -1 0 1.192093E-07

vt 19.68307 1.152413E-14
vt 15.74646 1.152413E-14
vt 19.68307 5.773701
vt 15.74646 2.493189
vt 15.74646 5.773701
vt 19.68307 -19.68307
vt 15.74646 -19.68307
vt 19.68307 19.68307
vt 15.74646 19.68307
vt -15.74646 -19.68307
vt -15.74646 19.68307
vt -19.68307 -19.68307
vt -19.68307 19.68307
vt 19.68307 0
vt -19.68307 5.773701
vt -19.68307 0
vt 19.68307 -3.155405E-31
vt 15.74646 -3.155405E-31
vt -19.68307 2.493189
vt 19.68307 2.493189
vt -15.74646 5.608987E-14
vt -19.68307 1.152413E-14
vt -15.74646 2.493189
vt -15.74646 5.773701
vt -15.74646 1.53655E-14
vt -19.68307 1.53655E-14
vt -3.1666 -12.35203
vt -3.1666 12.35203
vt 3.1666 -12.35203
vt 3.1666 12.35203
vt 3.1666 2.493189
vt -3.1666 2.493189
vt 3.1666 5.773701
vt -3.1666 5.773701
vt 12.35203 5.773701
vt 12.35203 2.493189
vt -12.35203 5.773701
vt -12.35203 2.493189

usemtl border

f 3/3/1 2/2/1 1/1/1
f 2/2/1 3/3/1 4/4/1
f 4/4/1 3/3/1 5/5/1
f 1/8/2 7/7/2 6/6/2
f 7/7/2 1/8/2 2/9/2
f 7/7/2 2/9/2 8/10/2
f 8/10/2 2/9/2 9/11/2
f 8/10/2 9/11/2 10/12/2
f 10/12/2 9/11/2 11/13/2
f 3/15/3 6/14/3 12/3/3
f 6/14/3 3/15/3 1/16/3
f 15/6/4 14/9/4 13/7/4
f 14/9/4 15/6/4 16/8/4
f 11/14/5 15/15/5 10/16/5
f 15/15/5 11/14/5 16/3/5
f 15/3/6 8/18/6 10/17/6
f 8/18/6 15/3/6 17/4/6
f 17/4/6 15/3/6 13/5/6
f 18/10/4 3/13/4 12/12/4
f 3/13/4 18/10/4 5/11/4
f 4/20/5 18/15/5 19/19/5
f 18/15/5 4/20/5 5/3/5
f 14/15/3 17/20/3 13/3/3
f 17/20/3 14/15/3 20/19/3
f 20/23/1 11/22/1 9/21/1
f 11/22/1 20/23/1 16/15/1
f 16/15/1 20/23/1 14/24/1
f 19/23/6 6/26/6 7/25/6
f 6/26/6 19/23/6 12/15/6
f 12/15/6 19/23/6 18/24/6
f 23/29/4 22/28/4 21/27/4
f 22/28/4 23/29/4 24/30/4
f 22/33/1 26/32/1 25/31/1
f 26/32/1 22/33/1 24/34/1
f 22/37/3 27/36/3 21/35/3
f 27/36/3 22/37/3 25/38/3
f 23/33/6 27/32/6 28/31/6
f 27/32/6 23/33/6 21/34/6
f 26/36/5 23/37/5 28/38/5
f 23/37/5 26/36/5 24/35/5

usemtl green

f 19/10/4 27/27/4 4/11/4
f 27/27/4 19/10/4 17/7/4
f 27/27/4 17/7/4 28/29/4
f 28/29/4 17/7/4 26/30/4
f 25/28/4 4/11/4 27/27/4
f 4/11/4 25/28/4 20/9/4
f 20/9/4 25/28/4 26/30/4
f 20/9/4 26/30/4 17/7/4
f 4/4/1 9/21/1 2/2/1
f 9/21/1 4/4/1 20/23/1
f 17/4/6 7/25/6 8/18/6
f 7/25/6 17/4/6 19/23/6

