# Created by Kenney (www.kenney.nl)

mtllib rampSharp.mtl

g rampSharp

v 0.49995 0 -0.4999501
v 0.49995 0 -0.3999601
v 0.49995 0.146652 -0.4999501
v 0.49995 0.063327 -0.3999601
v 0.49995 0.146652 -0.3999601
v -0.4999501 0 -0.49995
v -0.4999501 0 -0.39996
v -0.49995 0 0.3999601
v 0.4999501 0 0.39996
v -0.49995 0 0.4999501
v 0.4999501 0 0.49995
v -0.4999501 0.146652 -0.49995
v -0.49995 0.146652 0.3999601
v 0.2499751 0.146652 0.39996
v -0.49995 0.146652 0.4999501
v 0.4999501 0.146652 0.39996
v 0.4999501 0.146652 0.49995
v -0.49995 0.063327 0.3999601
v -0.4999501 0.146652 -0.39996
v 0.249975 0.146652 -0.3999601
v 0.2499751 0.063327 0.39996
v 0.4999501 0.063327 0.39996
v -0.249975 0.063327 0.3999601
v -0.4999501 0.063327 -0.39996
v -0.2499751 0.063327 -0.39996
v 0.249975 0.063327 -0.3999601

vn 1 0 -1.192093E-07
vn 0 -1 0
vn -1.192093E-07 0 -1
vn 0 1 0
vn 1.192093E-07 0 1
vn -1 0 1.192093E-07
vn -0.08248053 0.9965927 7.450581E-09
vn -0.164399 0.986394 1.490116E-08

vt 19.68307 1.152413E-14
vt 15.74646 1.152413E-14
vt 19.68307 5.773701
vt 15.74646 2.493189
vt 15.74646 5.773701
vt 19.68307 -19.68307
vt 15.74646 -19.68307
vt 19.68307 19.68307
vt 15.74646 19.68307
vt -15.74646 -19.68307
vt -15.74646 19.68307
vt -19.68307 -19.68307
vt -19.68307 19.68307
vt 19.68307 0
vt -19.68307 5.773701
vt -19.68307 0
vt 15.74646 9.841536
vt 19.68307 -3.155405E-31
vt 15.74646 -3.155405E-31
vt -15.74646 9.841536
vt -9.841536 5.773701
vt -9.841536 2.493189
vt -19.68307 2.493189
vt 19.68307 2.493189
vt 9.841536 2.493189
vt -15.74646 5.608987E-14
vt -19.68307 1.152413E-14
vt -15.74646 2.493189
vt -15.74646 5.773701
vt -15.74646 1.53655E-14
vt -19.68307 1.53655E-14
vt 9.841536 5.773701
vt -15.74646 -9.297753
vt -15.74646 10.65682
vt 15.74646 -9.297753
vt 15.74646 10.65682
vt -15.74646 -9.841536
vt 15.74646 -9.841536

usemtl border

f 3/3/1 2/2/1 1/1/1
f 2/2/1 3/3/1 4/4/1
f 4/4/1 3/3/1 5/5/1
f 1/8/2 7/7/2 6/6/2
f 7/7/2 1/8/2 2/9/2
f 7/7/2 2/9/2 8/10/2
f 8/10/2 2/9/2 9/11/2
f 8/10/2 9/11/2 10/12/2
f 10/12/2 9/11/2 11/13/2
f 3/15/3 6/14/3 12/3/3
f 6/14/3 3/15/3 1/16/3
f 15/6/4 14/17/4 13/7/4
f 14/17/4 15/6/4 16/9/4
f 16/9/4 15/6/4 17/8/4
f 11/14/5 15/15/5 10/16/5
f 15/15/5 11/14/5 17/3/5
f 15/3/6 8/19/6 10/18/6
f 8/19/6 15/3/6 18/4/6
f 18/4/6 15/3/6 13/5/6
f 19/10/4 3/13/4 12/12/4
f 3/13/4 19/10/4 20/20/4
f 3/13/4 20/20/4 5/11/4
f 16/15/3 21/22/3 14/21/3
f 21/22/3 16/15/3 22/23/3
f 14/21/3 18/24/3 13/3/3
f 18/24/3 14/21/3 23/25/3
f 22/28/1 11/27/1 9/26/1
f 11/27/1 22/28/1 17/15/1
f 17/15/1 22/28/1 16/29/1
f 24/28/6 6/31/6 7/30/6
f 6/31/6 24/28/6 12/15/6
f 12/15/6 24/28/6 19/29/6
f 26/22/3 25/25/3 20/21/3
f 26/4/1 14/29/1 21/28/1
f 14/29/1 26/4/1 20/5/1
f 25/22/5 19/15/5 24/23/5
f 19/15/5 25/22/5 20/32/5
f 4/24/5 20/32/5 26/25/5
f 20/32/5 4/24/5 5/3/5

usemtl green

f 4/4/1 9/26/1 2/2/1
f 9/26/1 4/4/1 22/28/1
f 18/4/6 7/30/6 8/19/6
f 7/30/6 18/4/6 24/28/6
f 21/17/4 4/11/4 26/20/4
f 4/11/4 21/17/4 22/9/4
f 23/35/7 20/34/8 25/33/7
f 20/34/8 23/35/7 14/36/8
f 18/7/4 25/37/7 24/10/4
f 25/37/7 18/7/4 23/38/7

