# Created by Kenney (www.kenney.nl)

mtllib splitWallsToOpen.mtl

g splitWallsToOpen

v -0.3999601 0 -0.49995
v -0.4999501 0 -0.49995
v 0.49995 0 -0.4999501
v -0.4999501 0 -0.39996
v 0.4999501 0 0.49995
v -0.4999501 0 -0.04999495
v -0.4999501 0 0.04999506
v -0.49995 0 0.3999601
v -0.39996 0 0.4999501
v -0.49995 0 0.4999501
v -0.4999501 0.146652 -0.49995
v -0.3999601 0.146652 -0.49995
v -0.3999601 0.063327 -0.49995
v -0.49995 0.146652 0.4999501
v -0.49995 0.063327 0.3999601
v -0.49995 0.146652 0.3999601
v -0.4999501 0.146652 -0.39996
v -0.4008155 0.146652 -0.4868987
v -0.4033672 0.146652 -0.4740707
v -0.4075714 0.146652 -0.4616855
v -0.4133562 0.146652 -0.449955
v -0.4206227 0.146652 -0.4390799
v -0.4292465 0.146652 -0.4292464
v -0.4390801 0.146652 -0.4206226
v -0.4499551 0.146652 -0.4133561
v -0.4616856 0.146652 -0.4075713
v -0.4740708 0.146652 -0.4033671
v -0.4868988 0.146652 -0.4008154
v -0.4999501 0.063327 -0.39996
v -0.4999501 0.146652 -0.04999495
v -0.4999501 0.063327 -0.04999495
v -0.3999601 0.146652 -0.04999495
v -0.3999601 0.063327 -0.04999495
v -0.4999501 0.063327 0.04999506
v -0.4999501 0.146652 0.04999506
v -0.3999601 0.063327 0.04999506
v -0.3999601 0.146652 0.04999506
v -0.4868987 0.146652 0.4008155
v -0.4740707 0.146652 0.4033672
v -0.4616855 0.146652 0.4075714
v -0.449955 0.146652 0.4133562
v -0.4390799 0.146652 0.4206227
v -0.4292464 0.146652 0.4292465
v -0.4206226 0.146652 0.4390801
v -0.4133561 0.146652 0.4499551
v -0.4075713 0.146652 0.4616856
v -0.4033671 0.146652 0.4740708
v -0.4008154 0.146652 0.4868988
v -0.39996 0.146652 0.4999501
v -0.4008155 0.063327 -0.4868987
v -0.4033672 0.063327 -0.4740707
v -0.4075714 0.063327 -0.4616855
v -0.4133562 0.063327 -0.449955
v -0.4206227 0.063327 -0.4390799
v -0.4292465 0.063327 -0.4292464
v -0.4390801 0.063327 -0.4206226
v -0.4499551 0.063327 -0.4133561
v -0.4616856 0.063327 -0.4075713
v -0.4740708 0.063327 -0.4033671
v -0.4868988 0.063327 -0.4008154
v -0.4868987 0.063327 0.4008155
v -0.4740707 0.063327 0.4033672
v -0.4616855 0.063327 0.4075714
v -0.449955 0.063327 0.4133562
v -0.4390799 0.063327 0.4206227
v -0.4292464 0.063327 0.4292465
v -0.4206226 0.063327 0.4390801
v -0.4133561 0.063327 0.4499551
v -0.4075713 0.063327 0.4616856
v -0.4033671 0.063327 0.4740708
v -0.4008154 0.063327 0.4868988
v -0.39996 0.063327 0.4999501
v 0.4999501 0.063327 0.49995
v 0.49995 0.063327 -0.4999501

vn 0 -1 0
vn -1.192093E-07 0 -1
vn -1 0 1.192093E-07
vn 0 1 0
vn 1.192093E-07 0 1
vn 0.9978591 0 0.06540304
vn 0.991445 0 0.1305261
vn 0.9659259 0 0.258819
vn 0.9238797 0 0.3826834
vn 0.8660256 0 0.4999999
vn 0.7933535 0 0.6087614
vn 0.7071069 0 0.7071068
vn 0.6087616 0 0.7933534
vn 0.5000002 0 0.8660255
vn 0.3826836 0 0.9238795
vn 0.2588192 0 0.9659259
vn 0.1305263 0 0.9914449
vn 0.06540325 0 0.9978591
vn 0.06540301 0 -0.9978591
vn 0.1305261 0 -0.991445
vn 0.258819 0 -0.9659259
vn 0.3826834 0 -0.9238797
vn 0.4999999 0 -0.8660256
vn 0.6087614 0 -0.7933535
vn 0.7071068 0 -0.7071069
vn 0.7933534 0 -0.6087616
vn 0.8660255 0 -0.5000002
vn 0.9238796 0 -0.3826836
vn 0.9659259 0 -0.2588192
vn 0.991445 0 -0.1305263
vn 0.9978591 0 -0.06540328
vn 1 0 -1.192093E-07

vt 19.68307 -15.74646
vt 19.68307 -19.68307
vt 19.68307 19.68307
vt 15.74646 -19.68307
vt -19.68307 19.68307
vt 1.968307 -19.68307
vt -1.968307 -19.68307
vt -15.74646 -19.68307
vt -19.68307 -15.74646
vt -19.68307 -19.68307
vt 19.68307 5.773701
vt 19.68307 0
vt 15.74646 5.773701
vt 15.74646 0
vt 15.74646 2.493189
vt -19.16924 -15.78014
vt -18.6642 -15.88059
vt -18.17659 -16.04611
vt -17.71476 -16.27386
vt -17.28661 -16.55994
vt -16.89946 -16.89946
vt -16.55994 -17.28661
vt -16.27386 -17.71476
vt -16.04611 -18.17659
vt -15.88059 -18.6642
vt -15.78014 -19.16924
vt -15.74646 -2.271892E-29
vt -19.68307 -2.271892E-29
vt -15.74646 2.493189
vt -19.68307 5.773701
vt -15.74646 5.773701
vt 19.68307 2.493189
vt -19.68307 2.493189
vt -1.968307 -15.74646
vt 1.968307 -15.74646
vt 1.968307 0
vt -1.968307 0
vt 1.968307 2.493189
vt -1.968307 2.493189
vt 1.968307 5.773701
vt -1.968307 5.773701
vt 15.78014 -19.16924
vt 15.88059 -18.6642
vt 16.04611 -18.17659
vt 16.27386 -17.71476
vt 16.55994 -17.28661
vt 16.89946 -16.89946
vt 17.28661 -16.55994
vt 17.71476 -16.27386
vt 18.17659 -16.04611
vt 18.6642 -15.88059
vt 19.16924 -15.78014
vt 18.61106 2.493189
vt 18.09613 2.493189
vt 18.61106 5.773701
vt 18.09613 5.773701
vt 15.72236 2.493189
vt 15.20742 2.493189
vt 15.72236 5.773701
vt 15.20742 5.773701
vt 12.56904 2.493189
vt 12.05411 2.493189
vt 12.56904 5.773701
vt 12.05411 5.773701
vt 9.205077 2.493189
vt 8.690144 2.493189
vt 9.205077 5.773701
vt 8.690144 5.773701
vt 5.688014 2.493189
vt 5.17308 2.493189
vt 5.688014 5.773701
vt 5.17308 5.773701
vt 2.078033 2.493189
vt 1.563099 2.493189
vt 2.078033 5.773701
vt 1.563099 5.773701
vt -2.078033 2.493189
vt -2.078033 5.773701
vt -1.563099 2.493189
vt -1.563099 5.773701
vt -5.688014 2.493189
vt -5.688014 5.773701
vt -5.17308 2.493189
vt -5.17308 5.773701
vt -9.205077 2.493189
vt -9.205077 5.773701
vt -8.690144 2.493189
vt -8.690144 5.773701
vt -12.56904 2.493189
vt -12.56904 5.773701
vt -12.05411 2.493189
vt -12.05411 5.773701
vt -15.72236 2.493189
vt -15.72236 5.773701
vt -15.20742 2.493189
vt -15.20742 5.773701
vt -18.61106 2.493189
vt -18.61106 5.773701
vt -18.09613 2.493189
vt -18.09613 5.773701
vt -19.68307 0
vt -15.74646 0
vt 19.68307 1.994306E-13
vt -19.68307 1.994306E-13

usemtl border

f 3/3/1 2/2/1 1/1/1
f 2/2/1 3/3/1 4/4/1
f 4/4/1 3/3/1 5/5/1
f 4/4/1 5/5/1 6/6/1
f 6/6/1 5/5/1 7/7/1
f 7/7/1 5/5/1 8/8/1
f 8/8/1 5/5/1 9/9/1
f 10/10/1 8/8/1 9/9/1
f 12/13/2 2/12/2 11/11/2
f 2/12/2 12/13/2 1/14/2
f 1/14/2 12/13/2 13/15/2
f 14/11/3 8/14/3 10/12/3
f 8/14/3 14/11/3 15/15/3
f 15/15/3 14/11/3 16/13/3
f 17/8/4 12/9/4 11/10/4
f 12/9/4 17/8/4 18/16/4
f 18/16/4 17/8/4 19/17/4
f 19/17/4 17/8/4 20/18/4
f 20/18/4 17/8/4 21/19/4
f 21/19/4 17/8/4 22/20/4
f 22/20/4 17/8/4 23/21/4
f 23/21/4 17/8/4 24/22/4
f 24/22/4 17/8/4 25/23/4
f 25/23/4 17/8/4 26/24/4
f 26/24/4 17/8/4 27/25/4
f 27/25/4 17/8/4 28/26/4
f 29/29/3 2/28/3 4/27/3
f 2/28/3 29/29/3 11/30/3
f 11/30/3 29/29/3 17/31/3
f 32/13/2 31/32/2 30/11/2
f 31/32/2 32/13/2 33/15/2
f 30/11/5 31/32/5 32/13/5
f 33/15/5 32/13/5 31/32/5
f 36/29/5 35/30/5 34/33/5
f 35/30/5 36/29/5 37/31/5
f 34/33/2 35/30/2 36/29/2
f 37/31/2 36/29/2 35/30/2
f 35/6/4 32/34/4 30/7/4
f 32/34/4 35/6/4 37/35/4
f 30/7/1 32/34/1 35/6/1
f 37/35/1 35/6/1 32/34/1
f 34/38/3 6/37/3 7/36/3
f 6/37/3 34/38/3 31/39/3
f 31/39/3 34/38/3 35/40/3
f 31/39/3 35/40/3 30/41/3
f 14/2/4 38/42/4 16/4/4
f 38/42/4 14/2/4 39/43/4
f 39/43/4 14/2/4 40/44/4
f 40/44/4 14/2/4 41/45/4
f 41/45/4 14/2/4 42/46/4
f 42/46/4 14/2/4 43/47/4
f 43/47/4 14/2/4 44/48/4
f 44/48/4 14/2/4 45/49/4
f 45/49/4 14/2/4 46/50/4
f 46/50/4 14/2/4 47/51/4
f 47/51/4 14/2/4 48/52/4
f 48/52/4 14/2/4 49/1/4
f 12/55/6 50/54/7 13/53/6
f 50/54/7 12/55/6 18/56/7
f 18/59/7 51/58/8 50/57/7
f 51/58/8 18/59/7 19/60/8
f 19/63/8 52/62/9 51/61/8
f 52/62/9 19/63/8 20/64/9
f 20/67/9 53/66/10 52/65/9
f 53/66/10 20/67/9 21/68/10
f 21/71/10 54/70/11 53/69/10
f 54/70/11 21/71/10 22/72/11
f 22/75/11 55/74/12 54/73/11
f 55/74/12 22/75/11 23/76/12
f 55/79/12 24/78/13 56/77/13
f 24/78/13 55/79/12 23/80/12
f 56/83/13 25/82/14 57/81/14
f 25/82/14 56/83/13 24/84/13
f 57/87/14 26/86/15 58/85/15
f 26/86/15 57/87/14 25/88/14
f 58/91/15 27/90/16 59/89/16
f 27/90/16 58/91/15 26/92/15
f 59/95/16 28/94/17 60/93/17
f 28/94/17 59/95/16 27/96/16
f 60/99/17 17/98/18 29/97/18
f 17/98/18 60/99/17 28/100/17
f 38/56/20 15/53/19 16/55/19
f 15/53/19 38/56/20 61/54/20
f 39/60/21 61/57/20 38/59/20
f 61/57/20 39/60/21 62/58/21
f 40/64/22 62/61/21 39/63/21
f 62/61/21 40/64/22 63/62/22
f 41/68/23 63/65/22 40/67/22
f 63/65/22 41/68/23 64/66/23
f 42/72/24 64/69/23 41/71/23
f 64/69/23 42/72/24 65/70/24
f 43/76/25 65/73/24 42/75/24
f 65/73/24 43/76/25 66/74/25
f 43/80/25 67/77/26 66/79/25
f 67/77/26 43/80/25 44/78/26
f 44/84/26 68/81/27 67/83/26
f 68/81/27 44/84/26 45/82/27
f 45/88/27 69/85/28 68/87/27
f 69/85/28 45/88/27 46/86/28
f 46/92/28 70/89/29 69/91/28
f 70/89/29 46/92/28 47/90/29
f 47/96/29 71/93/30 70/95/29
f 71/93/30 47/96/29 48/94/30
f 71/99/30 49/98/31 72/97/31
f 49/98/31 71/99/30 48/100/30
f 9/102/5 14/30/5 10/101/5
f 14/30/5 9/102/5 49/31/5
f 49/31/5 9/102/5 72/29/5
f 32/40/32 36/39/32 33/38/32
f 36/39/32 32/40/32 37/41/32

usemtl green

f 5/12/5 72/29/5 9/102/5
f 72/29/5 5/12/5 73/32/5
f 74/32/32 5/104/32 3/103/32
f 5/104/32 74/32/32 73/33/32
f 15/15/3 7/36/3 8/14/3
f 7/36/3 15/15/3 34/38/3
f 31/39/3 4/27/3 6/37/3
f 4/27/3 31/39/3 29/29/3
f 15/4/4 36/35/4 34/6/4
f 61/42/4 36/35/4 15/4/4
f 73/3/4 36/35/4 61/42/4
f 73/3/4 33/34/4 36/35/4
f 73/3/4 29/8/4 33/34/4
f 73/3/4 60/26/4 29/8/4
f 73/3/4 59/25/4 60/26/4
f 73/3/4 58/24/4 59/25/4
f 73/3/4 57/23/4 58/24/4
f 73/3/4 56/22/4 57/23/4
f 73/3/4 55/21/4 56/22/4
f 73/3/4 54/20/4 55/21/4
f 73/3/4 53/19/4 54/20/4
f 73/3/4 52/18/4 53/19/4
f 73/3/4 51/17/4 52/18/4
f 73/3/4 50/16/4 51/17/4
f 74/5/4 50/16/4 73/3/4
f 50/16/4 74/5/4 13/9/4
f 33/34/4 29/8/4 31/7/4
f 73/3/4 61/42/4 62/43/4
f 73/3/4 62/43/4 63/44/4
f 73/3/4 63/44/4 64/45/4
f 73/3/4 64/45/4 65/46/4
f 73/3/4 65/46/4 66/47/4
f 73/3/4 66/47/4 67/48/4
f 73/3/4 67/48/4 68/49/4
f 73/3/4 68/49/4 69/50/4
f 73/3/4 69/50/4 70/51/4
f 73/3/4 70/51/4 71/52/4
f 73/3/4 71/52/4 72/1/4
f 74/33/2 1/14/2 13/15/2
f 1/14/2 74/33/2 3/101/2

