# Created by Kenney (www.kenney.nl)

mtllib tunnelDouble.mtl

g tunnelDouble

v 0.49995 0 -0.4999501
v 0.49995 0 -0.3999601
v 0.49995 0.146652 -0.4999501
v 0.49995 0.063327 -0.3999601
v 0.49995 0.146652 -0.3999601
v -0.4999501 0 -0.49995
v -0.4999501 0 -0.39996
v -0.49995 0 0.3999601
v 0.4999501 0 0.39996
v -0.49995 0 0.4999501
v 0.4999501 0 0.49995
v -0.39996 0.063327 0.2999701
v 0.3999601 0.063327 0.2999699
v -0.39996 0.063327 0.3999601
v 0.3999601 0.063327 0.39996
v -0.4999501 0.146652 -0.49995
v -0.49995 0.146652 0.3999601
v -0.39996 0.146652 0.3999601
v -0.49995 0.146652 0.4999501
v 0.3999601 0.146652 0.39996
v 0.4999501 0.146652 0.39996
v 0.4999501 0.146652 0.49995
v -0.49995 0.063327 0.3999601
v -0.4999501 0.146652 -0.39996
v -0.3999601 0.146652 -0.39996
v 0.39996 0.146652 -0.3999601
v -0.3999601 0.063327 -0.39996
v 0.39996 0.063327 -0.3999601
v 0.4999501 0.063327 0.39996
v -0.4999501 0.063327 -0.39996
v -0.3999601 0.063327 -0.2999699
v 0.39996 0.063327 -0.2999701
v -0.3999601 0.063327 -0.09998995
v 0.39996 0.063327 -0.09999007
v -0.39996 0.063327 0.09999007
v 0.3999601 0.063327 0.09998995
v -0.3999601 0.296637 -0.39996
v 0.39996 0.296637 -0.3999601
v -0.39996 0.296637 0.3999601
v 0.3999601 0.296637 0.39996
v -0.39996 0.129987 0.2999701
v -0.39996 0.1558663 0.296563
v -0.39996 0.179982 0.286574
v -0.39996 0.2006906 0.2706837
v -0.39996 0.2165809 0.2499751
v -0.39996 0.2265699 0.2258594
v -0.39996 0.229977 0.1999801
v -0.3999601 0.229977 -0.19998
v -0.3999601 0.2265699 -0.2258593
v -0.3999601 0.2165809 -0.2499749
v -0.3999601 0.2006906 -0.2706836
v -0.3999601 0.179982 -0.2865739
v -0.3999601 0.1558663 -0.2965629
v -0.3999601 0.129987 -0.2999699
v -0.3999601 0.2265699 -0.1741006
v -0.39996 0.2265699 0.1741008
v -0.3999601 0.2165809 -0.1499849
v -0.39996 0.2165809 0.1499851
v -0.3999601 0.2006906 -0.1292764
v -0.39996 0.2006906 0.1292765
v -0.3999601 0.179982 -0.1133861
v -0.39996 0.179982 0.1133862
v -0.3999601 0.1558663 -0.103397
v -0.39996 0.1558663 0.1033972
v -0.3999601 0.129987 -0.09998995
v -0.39996 0.129987 0.09999007
v 0.39996 0.129987 -0.2999701
v 0.39996 0.1558663 -0.296563
v 0.39996 0.179982 -0.286574
v 0.39996 0.2006906 -0.2706837
v 0.39996 0.2165809 -0.2499751
v 0.39996 0.2265699 -0.2258594
v 0.39996 0.229977 -0.1999801
v 0.3999601 0.229977 0.19998
v 0.3999601 0.2265699 0.2258593
v 0.3999601 0.2165809 0.2499749
v 0.3999601 0.2006906 0.2706836
v 0.3999601 0.179982 0.2865739
v 0.3999601 0.1558663 0.2965629
v 0.3999601 0.129987 0.2999699
v 0.39996 0.2265699 -0.1741008
v 0.3999601 0.2265699 0.1741006
v 0.39996 0.2165809 -0.1499851
v 0.3999601 0.2165809 0.1499849
v 0.39996 0.2006906 -0.1292765
v 0.3999601 0.2006906 0.1292764
v 0.39996 0.179982 -0.1133862
v 0.3999601 0.179982 0.1133861
v 0.39996 0.1558663 -0.1033972
v 0.3999601 0.1558663 0.103397
v 0.3999601 0.129987 0.09998995
v 0.39996 0.129987 -0.09999007

vn 1 0 -1.192093E-07
vn 0 -1 0
vn 0 1 0
vn -1.192093E-07 0 -1
vn 1.192093E-07 0 1
vn -1 0 1.192093E-07
vn 1.192093E-07 -0.06540313 0.9978591
vn 1.192093E-07 -0.258819 0.9659259
vn -1.192093E-07 -0.06540313 -0.9978591
vn -1.192093E-07 -0.258819 -0.9659259
vn -1.192093E-07 -0.5 -0.8660256
vn -5.960464E-08 -0.7071068 -0.7071068
vn -5.960464E-08 -0.8660254 -0.5000001
vn -2.980232E-08 -0.9659258 -0.2588191
vn 2.980232E-08 -0.9659258 0.2588191
vn 5.960464E-08 -0.8660254 0.5000001
vn 5.960464E-08 -0.7071068 0.7071068
vn 1.192093E-07 -0.5 0.8660256

vt 19.68307 6.146202E-14
vt 15.74646 6.146202E-14
vt 19.68307 5.773701
vt 15.74646 2.493189
vt 15.74646 5.773701
vt 19.68307 -19.68307
vt 15.74646 -19.68307
vt 19.68307 19.68307
vt 15.74646 19.68307
vt -15.74646 -19.68307
vt -15.74646 19.68307
vt -19.68307 -19.68307
vt -19.68307 19.68307
vt 11.80984 -15.74646
vt 11.80984 15.74646
vt 15.74646 -15.74646
vt 15.74646 15.74646
vt 19.68307 0
vt -19.68307 5.773701
vt -19.68307 0
vt 19.68307 -1.893243E-30
vt 15.74646 -1.893243E-30
vt -15.74646 -15.74646
vt -15.74646 15.74646
vt -15.74646 5.773701
vt -15.74646 2.493189
vt -15.74646 5.608987E-14
vt -19.68307 6.146202E-14
vt -15.74646 -6.941891E-30
vt -19.68307 -6.941891E-30
vt 19.68307 2.493189
vt -19.68307 2.493189
vt -11.80984 -15.74646
vt -11.80984 15.74646
vt -3.936614 -15.74646
vt -3.936614 15.74646
vt 3.936614 -15.74646
vt 3.936614 15.74646
vt 15.74646 11.67862
vt -15.74646 11.67862
vt 11.80984 2.493189
vt 11.80984 5.117599
vt 11.67571 6.136469
vt 11.28244 7.085906
vt 10.65683 7.901205
vt 9.841536 8.526806
vt 8.892099 8.920075
vt 7.873229 9.054213
vt -7.873229 9.054213
vt -8.892099 8.920075
vt -9.841536 8.526806
vt -10.65683 7.901205
vt -11.28244 7.085906
vt -11.67571 6.136469
vt -11.80984 5.117599
vt -11.80984 2.493189
vt -6.854358 8.920075
vt 6.854358 8.920075
vt -5.904922 8.526806
vt 5.904921 8.526806
vt -5.089622 7.901205
vt 5.089622 7.901205
vt -4.464021 7.085906
vt 4.46402 7.085906
vt -4.070751 6.136469
vt 4.070751 6.136469
vt -3.936614 5.117599
vt 3.936614 5.117599
vt -3.936614 2.493189
vt 3.936614 2.493189
vt 5.904922 8.526806
vt -5.904921 8.526806
vt 5.089622 7.901205
vt -5.089622 7.901205
vt 4.464021 7.085906
vt -4.46402 7.085906
vt -15.74646 3.532323
vt -15.74646 4.559986
vt 15.74646 3.532323
vt 15.74646 4.559986
vt -15.74646 5.117599
vt 15.74646 5.117599
vt 15.74646 6.615311
vt 15.74646 5.587648
vt -15.74646 6.615311
vt -15.74646 5.587648
vt 15.74646 8.254829
vt 15.74646 7.227167
vt -15.74646 8.254829
vt -15.74646 7.227167
vt 15.74646 9.366813
vt 15.74646 8.33915
vt -15.74646 9.366813
vt -15.74646 8.33915
vt -15.74646 9.87548
vt 15.74646 9.87548
vt -15.74646 8.847817
vt 15.74646 8.847817
vt -15.74646 9.746166
vt 15.74646 9.746166
vt -15.74646 8.718503
vt 15.74646 8.718503
vt -15.74646 8.987683
vt 15.74646 8.987683
vt -15.74646 7.960021
vt 15.74646 7.960021
vt 15.74646 -7.651722
vt -15.74646 -7.651722
vt 15.74646 -6.62406
vt -15.74646 -6.62406
vt 15.74646 -5.829326
vt -15.74646 -5.829326
vt 15.74646 -4.801663
vt -15.74646 -4.801663
vt 15.74646 -3.644687
vt -15.74646 -3.644687
vt 15.74646 -2.617024
vt -15.74646 -2.617024
vt -15.74646 -1.246685
vt -15.74646 -0.2190226
vt 15.74646 -1.246685
vt 15.74646 -0.2190226
vt -15.74646 1.201259
vt -15.74646 2.228922
vt 15.74646 1.201259
vt 15.74646 2.228922
vt -15.74646 6.61531
vt 15.74646 6.61531
vt 15.74646 4.559985
vt -15.74646 4.559985
vt 15.74646 2.228921
vt 15.74646 1.201259
vt -15.74646 2.228921
vt -15.74646 1.201259
vt 15.74646 -0.2190228
vt 15.74646 -1.246685
vt -15.74646 -0.2190228
vt -15.74646 -1.246685
vt -15.74646 -2.617024
vt 15.74646 -2.617024
vt -15.74646 -3.644687
vt 15.74646 -3.644687
vt -15.74646 -4.801663
vt 15.74646 -4.801663
vt -15.74646 -6.62406
vt 15.74646 -6.62406

usemtl border

f 3/3/1 2/2/1 1/1/1
f 2/2/1 3/3/1 4/4/1
f 4/4/1 3/3/1 5/5/1
f 1/8/2 7/7/2 6/6/2
f 7/7/2 1/8/2 2/9/2
f 7/7/2 2/9/2 8/10/2
f 8/10/2 2/9/2 9/11/2
f 8/10/2 9/11/2 10/12/2
f 10/12/2 9/11/2 11/13/2
f 14/16/3 13/15/3 12/14/3
f 13/15/3 14/16/3 15/17/3
f 3/19/4 6/18/4 16/3/4
f 6/18/4 3/19/4 1/20/4
f 19/6/3 18/16/3 17/7/3
f 18/16/3 19/6/3 20/17/3
f 20/17/3 19/6/3 21/9/3
f 21/9/3 19/6/3 22/8/3
f 11/18/5 19/19/5 10/20/5
f 19/19/5 11/18/5 22/3/5
f 19/3/6 8/22/6 10/21/6
f 8/22/6 19/3/6 23/4/6
f 23/4/6 19/3/6 17/5/6
f 24/10/3 3/13/3 16/12/3
f 3/13/3 24/10/3 25/23/3
f 3/13/3 25/23/3 26/24/3
f 3/13/3 26/24/3 5/11/3
f 26/25/4 27/4/4 25/5/4
f 27/4/4 26/25/4 28/26/4
f 15/4/5 18/25/5 14/26/5
f 18/25/5 15/4/5 20/5/5
f 29/26/1 11/28/1 9/27/1
f 11/28/1 29/26/1 22/19/1
f 22/19/1 29/26/1 21/25/1
f 30/26/6 6/30/6 7/29/6
f 6/30/6 30/26/6 16/19/6
f 16/19/6 30/26/6 24/25/6
f 18/5/4 23/31/4 17/3/4
f 23/31/4 18/5/4 14/4/4
f 27/26/5 24/19/5 30/32/5
f 24/19/5 27/26/5 25/25/5
f 4/31/5 26/5/5 28/4/5
f 26/5/5 4/31/5 5/3/5
f 21/19/4 15/26/4 20/25/4
f 15/26/4 21/19/4 29/32/4
f 31/33/3 28/24/3 27/23/3
f 28/24/3 31/33/3 32/34/3
f 35/37/3 34/36/3 33/35/3
f 34/36/3 35/37/3 36/38/3

usemtl green

f 4/4/1 9/27/1 2/2/1
f 9/27/1 4/4/1 29/26/1
f 23/4/6 7/29/6 8/22/6
f 7/29/6 23/4/6 30/26/6
f 23/7/3 27/23/3 30/10/3
f 27/23/3 23/7/3 31/33/3
f 31/33/3 23/7/3 33/35/3
f 31/33/3 33/35/3 32/34/3
f 33/35/3 23/7/3 35/37/3
f 35/37/3 23/7/3 12/14/3
f 35/37/3 12/14/3 36/38/3
f 12/14/3 23/7/3 14/16/3
f 34/36/3 32/34/3 33/35/3
f 29/9/3 32/34/3 34/36/3
f 29/9/3 34/36/3 36/38/3
f 4/11/3 32/34/3 29/9/3
f 32/34/3 4/11/3 28/24/3
f 29/9/3 36/38/3 13/15/3
f 13/15/3 36/38/3 12/14/3
f 29/9/3 13/15/3 15/17/3

usemtl wood

f 39/16/3 38/24/3 37/23/3
f 38/24/3 39/16/3 40/17/3
f 38/40/4 25/5/4 37/39/4
f 25/5/4 38/40/4 26/25/4
f 20/5/5 39/40/5 18/25/5
f 39/40/5 20/5/5 40/39/5
f 18/5/6 12/41/6 14/4/6
f 12/41/6 18/5/6 41/42/6
f 41/42/6 18/5/6 42/43/6
f 42/43/6 18/5/6 39/39/6
f 42/43/6 39/39/6 43/44/6
f 43/44/6 39/39/6 44/45/6
f 44/45/6 39/39/6 45/46/6
f 45/46/6 39/39/6 46/47/6
f 46/47/6 39/39/6 47/48/6
f 47/48/6 39/39/6 48/49/6
f 37/40/6 48/49/6 39/39/6
f 37/40/6 49/50/6 48/49/6
f 37/40/6 50/51/6 49/50/6
f 37/40/6 51/52/6 50/51/6
f 37/40/6 52/53/6 51/52/6
f 37/40/6 53/54/6 52/53/6
f 25/25/6 53/54/6 37/40/6
f 25/25/6 54/55/6 53/54/6
f 27/26/6 54/55/6 25/25/6
f 54/55/6 27/26/6 31/56/6
f 55/57/6 47/48/6 48/49/6
f 55/57/6 56/58/6 47/48/6
f 57/59/6 56/58/6 55/57/6
f 57/59/6 58/60/6 56/58/6
f 59/61/6 58/60/6 57/59/6
f 59/61/6 60/62/6 58/60/6
f 61/63/6 60/62/6 59/61/6
f 61/63/6 62/64/6 60/62/6
f 63/65/6 62/64/6 61/63/6
f 63/65/6 64/66/6 62/64/6
f 65/67/6 64/66/6 63/65/6
f 65/67/6 66/68/6 64/66/6
f 33/69/6 66/68/6 65/67/6
f 66/68/6 33/69/6 35/70/6
f 28/4/1 67/42/1 32/41/1
f 67/42/1 28/4/1 26/5/1
f 67/42/1 26/5/1 68/43/1
f 68/43/1 26/5/1 38/39/1
f 68/43/1 38/39/1 69/44/1
f 69/44/1 38/39/1 70/45/1
f 70/45/1 38/39/1 71/46/1
f 71/46/1 38/39/1 72/47/1
f 72/47/1 38/39/1 73/48/1
f 73/48/1 38/39/1 74/49/1
f 40/40/1 74/49/1 38/39/1
f 40/40/1 75/50/1 74/49/1
f 40/40/1 76/51/1 75/50/1
f 40/40/1 77/52/1 76/51/1
f 40/40/1 78/53/1 77/52/1
f 40/40/1 79/54/1 78/53/1
f 20/25/1 79/54/1 40/40/1
f 20/25/1 80/55/1 79/54/1
f 15/26/1 80/55/1 20/25/1
f 80/55/1 15/26/1 13/56/1
f 74/49/1 81/58/1 73/48/1
f 82/57/1 81/58/1 74/49/1
f 82/57/1 83/71/1 81/58/1
f 84/72/1 83/71/1 82/57/1
f 84/72/1 85/73/1 83/71/1
f 86/74/1 85/73/1 84/72/1
f 86/74/1 87/75/1 85/73/1
f 88/76/1 87/75/1 86/74/1
f 88/76/1 89/66/1 87/75/1
f 90/65/1 89/66/1 88/76/1
f 91/67/1 89/66/1 90/65/1
f 91/67/1 92/68/1 89/66/1
f 36/69/1 92/68/1 91/67/1
f 92/68/1 36/69/1 34/70/1
f 67/79/7 53/78/8 54/77/7
f 53/78/8 67/79/7 68/80/8
f 32/4/5 54/81/7 31/26/5
f 54/81/7 32/4/5 67/82/7
f 65/82/9 34/26/4 33/4/4
f 34/26/4 65/82/9 92/81/9
f 89/85/10 65/84/9 63/83/10
f 65/84/9 89/85/10 92/86/9
f 87/89/11 63/88/10 61/87/11
f 63/88/10 87/89/11 89/90/10
f 85/93/12 61/92/11 59/91/12
f 61/92/11 85/93/12 87/94/11
f 85/97/12 57/96/13 83/95/13
f 57/96/13 85/97/12 59/98/12
f 83/101/13 55/100/14 81/99/14
f 55/100/14 83/101/13 57/102/13
f 81/105/14 48/104/2 73/103/2
f 48/104/2 81/105/14 55/106/14
f 73/109/2 49/108/15 72/107/15
f 49/108/15 73/109/2 48/110/2
f 72/113/15 50/112/16 71/111/16
f 50/112/16 72/113/15 49/114/15
f 71/117/16 51/116/17 70/115/17
f 51/116/17 71/117/16 50/118/16
f 69/121/18 51/120/17 52/119/18
f 51/120/17 69/121/18 70/122/17
f 68/125/8 52/124/18 53/123/8
f 52/124/18 68/125/8 69/126/18
f 91/84/7 64/127/8 66/86/7
f 64/127/8 91/84/7 90/128/8
f 36/4/5 66/81/7 35/26/5
f 66/81/7 36/4/5 91/82/7
f 80/81/9 12/4/4 41/82/9
f 12/4/4 80/81/9 13/26/4
f 79/130/10 41/79/9 42/129/10
f 41/79/9 79/130/10 80/77/9
f 78/133/11 42/132/10 43/131/11
f 42/132/10 78/133/11 79/134/10
f 77/137/12 43/136/11 44/135/12
f 43/136/11 77/137/12 78/138/11
f 77/141/12 45/140/13 76/139/13
f 45/140/13 77/141/12 44/142/12
f 76/112/13 46/144/14 75/143/14
f 46/144/14 76/112/13 45/111/13
f 75/108/14 47/146/2 74/145/2
f 47/146/2 75/108/14 46/107/14
f 74/104/2 56/105/15 82/106/15
f 56/105/15 74/104/2 47/103/2
f 82/100/15 58/101/16 84/102/16
f 58/101/16 82/100/15 56/99/15
f 84/96/16 60/97/17 86/98/17
f 60/97/17 84/96/16 58/95/16
f 88/92/18 60/93/17 62/94/18
f 60/93/17 88/92/18 86/91/17
f 90/88/8 62/89/18 64/90/8
f 62/89/18 90/88/8 88/87/18

