# Created by Kenney (www.kenney.nl)

mtllib wallRight.mtl

g wallRight

v 0.49995 0 -0.4999501
v 0.49995 0 -0.3999601
v 0.49995 0.146652 -0.4999501
v 0.49995 0.063327 -0.3999601
v 0.49995 0.146652 -0.3999601
v -0.4999501 0 -0.49995
v -0.4999501 0 -0.39996
v -0.4999501 0 5.960464E-08
v 0.4999501 0 0.39996
v -0.49995 0 0.4999501
v 0.4999501 0 0.49995
v -0.4999501 0.146652 -0.49995
v -0.4999501 0.146652 5.960464E-08
v -0.4166251 0.146652 5.960464E-08
v -0.49995 0.146652 0.4999501
v -0.416625 0.146652 0.3999601
v 0.4999501 0.146652 0.39996
v 0.4999501 0.146652 0.49995
v -0.4999501 0.063327 5.960464E-08
v -0.4999501 0.146652 -0.39996
v -0.4999501 0.063327 -0.39996
v 0.4999501 0.063327 0.39996
v -0.416625 0.063327 0.3999601
v -0.4166251 0.063327 5.960464E-08

vn 1 0 -1.192093E-07
vn 0 -1 0
vn -1.192093E-07 0 -1
vn 0 1 0
vn 1.192093E-07 0 1
vn -1 0 1.192093E-07

vt 19.68307 1.152413E-14
vt 15.74646 1.152413E-14
vt 19.68307 5.773701
vt 15.74646 2.493189
vt 15.74646 5.773701
vt 19.68307 -19.68307
vt 15.74646 -19.68307
vt 19.68307 19.68307
vt 15.74646 19.68307
vt 1.215028E-11 -19.68307
vt -15.74646 19.68307
vt -19.68307 -19.68307
vt -19.68307 19.68307
vt 19.68307 0
vt -19.68307 5.773701
vt -19.68307 0
vt -1.215383E-11 -19.68307
vt -1.213607E-11 -16.40256
vt 15.74646 -16.40256
vt 19.68307 1.969413E-13
vt -1.209139E-11 1.969413E-13
vt -1.209494E-11 2.493189
vt -1.209494E-11 5.773701
vt -15.74646 -19.68307
vt -19.68307 2.493189
vt 19.68307 2.493189
vt -15.74646 5.608987E-14
vt -19.68307 1.152413E-14
vt -15.74646 2.493189
vt -15.74646 5.773701
vt -15.74646 1.53655E-14
vt -19.68307 1.53655E-14
vt 16.40256 5.773701
vt 16.40256 2.493189
vt 1.204134E-11 2.493189
vt 1.204134E-11 5.773701

usemtl border

f 3/3/1 2/2/1 1/1/1
f 2/2/1 3/3/1 4/4/1
f 4/4/1 3/3/1 5/5/1
f 1/8/2 7/7/2 6/6/2
f 7/7/2 1/8/2 2/9/2
f 7/7/2 2/9/2 8/10/2
f 8/10/2 2/9/2 9/11/2
f 8/10/2 9/11/2 10/12/2
f 10/12/2 9/11/2 11/13/2
f 3/15/3 6/14/3 12/3/3
f 6/14/3 3/15/3 1/16/3
f 15/6/4 14/18/4 13/17/4
f 14/18/4 15/6/4 16/19/4
f 16/19/4 15/6/4 17/9/4
f 17/9/4 15/6/4 18/8/4
f 11/14/5 15/15/5 10/16/5
f 15/15/5 11/14/5 18/3/5
f 15/3/6 8/21/6 10/20/6
f 8/21/6 15/3/6 19/22/6
f 19/22/6 15/3/6 13/23/6
f 20/24/4 3/13/4 12/12/4
f 3/13/4 20/24/4 5/11/4
f 4/26/5 20/15/5 21/25/5
f 20/15/5 4/26/5 5/3/5
f 22/29/1 11/28/1 9/27/1
f 11/28/1 22/29/1 18/15/1
f 18/15/1 22/29/1 17/30/1
f 21/29/6 6/32/6 7/31/6
f 6/32/6 21/29/6 12/15/6
f 12/15/6 21/29/6 20/30/6
f 17/15/3 23/34/3 16/33/3
f 23/34/3 17/15/3 22/25/3
f 14/33/3 19/26/3 13/3/3
f 19/26/3 14/33/3 24/34/3
f 14/36/1 23/29/1 24/35/1
f 23/29/1 14/36/1 16/30/1

usemtl green

f 19/17/4 4/11/4 21/24/4
f 4/11/4 19/17/4 24/18/4
f 4/11/4 24/18/4 22/9/4
f 22/9/4 24/18/4 23/19/4
f 4/4/1 9/27/1 2/2/1
f 9/27/1 4/4/1 22/29/1
f 19/22/6 7/31/6 8/21/6
f 7/31/6 19/22/6 21/29/6

