# Created by Kenney (www.kenney.nl)

mtllib tile112.mtl

g tile112

v 0.5 1.804779E-16 -0.5
v 0.5 0.1833333 -0.5
v -0.5 8.3471E-16 -0.5
v -0.5 0.1833333 -0.5
v 0.5 0.1833333 0.5
v 0.5 0 0.5
v 0.25 1.804779E-16 0.5
v -0.125 4.963141E-16 0.5
v -0.5 8.121503E-16 0.5
v -0.5 8.121503E-16 0.125
v -0.5 8.3471E-16 -0.25
v 0.25 0.1833333 0.5
v 0.2435836 0.1833333 0.4021053
v 0.2244444 0.1833333 0.3058857
v 0.1929097 0.1833333 0.2129874
v 0.1495191 0.1833333 0.125
v 0.09501501 0.1833333 0.04342893
v 0.0303301 0.1833333 -0.03033009
v -0.04342892 0.1833333 -0.095015
v -0.125 0.1833333 -0.149519
v -0.2129874 0.1833333 -0.1929096
v -0.3058857 0.1833333 -0.2244444
v -0.4021053 0.1833333 -0.2435836
v -0.5 0.1833333 -0.25
v 0.25 0.1516667 0.5
v 0.0303301 0.1516667 -0.03033009
v 0.09501501 0.1516667 0.04342893
v -0.125 0.1516667 -0.149519
v -0.2129874 0.1516667 -0.1929096
v 0.1495191 0.1516667 0.125
v 0.1929097 0.1516667 0.2129874
v 0.2244444 0.1516667 0.3058857
v 0.2435836 0.1516667 0.4021053
v -0.04342892 0.1516667 -0.095015
v -0.5 0.1516667 -0.25
v -0.4021053 0.1516667 -0.2435836
v -0.3058857 0.1516667 -0.2244444
v -0.125 0.1516667 0.5
v -0.5 0.1516667 0.5
v -0.1282082 0.1516667 0.4510527
v -0.1377778 0.1516667 0.4029429
v -0.1535452 0.1516667 0.3564937
v -0.1752405 0.1516667 0.3125
v -0.2024925 0.1516667 0.2717145
v -0.234835 0.1516667 0.234835
v -0.2717145 0.1516667 0.2024925
v -0.3125 0.1516667 0.1752405
v -0.3564937 0.1516667 0.1535452
v -0.4029428 0.1516667 0.1377778
v -0.4510526 0.1516667 0.1282082
v -0.5 0.1516667 0.125

vn 0 0 -1
vn 1 0 0
vn 0 -1 0
vn 0 1 0
vn 0 0 1
vn -0.7071068 0 0.7071068
vn -0.7933533 0 0.6087614
vn -0.5 0 0.8660254
vn -0.3826834 0 0.9238795
vn -0.8660254 0 0.5
vn -0.9238795 0 0.3826834
vn -0.9659258 0 0.258819
vn -0.9914449 0 0.1305262
vn -0.6087614 0 0.7933533
vn -0.06540313 0 0.9978589
vn -0.1305262 0 0.9914449
vn -1 0 0
vn -0.258819 0 0.9659258
vn -0.9978589 0 0.06540313

vt -19.68504 7.105427E-15
vt -19.68504 7.217848
vt 19.68504 3.28626E-14
vt 19.68504 7.217848
vt 19.68504 5.221925E-14
vt -19.68504 4.511382E-14
vt 19.68504 19.68504
vt 19.68504 -19.68504
vt 9.84252 19.68504
vt -19.68504 -19.68504
vt -4.921259 19.68504
vt -19.68504 19.68504
vt -19.68504 4.92126
vt -19.68504 -9.84252
vt -9.84252 19.68504
vt -9.589908 15.83092
vt -8.836393 12.04274
vt -7.594869 8.385332
vt -5.886577 4.92126
vt -3.740749 1.7098
vt -1.194098 -1.194098
vt 1.7098 -3.740748
vt 4.921259 -5.886577
vt 8.385331 -7.594868
vt 12.04274 -8.836392
vt 15.83092 -9.589908
vt 19.68504 -9.84252
vt 19.68504 2.478442E-28
vt 9.84252 7.105427E-15
vt 9.84252 5.971128
vt 9.84252 7.217848
vt -0.1104466 5.971128
vt -0.1104466 7.217848
vt 3.751943 5.971128
vt 3.751943 7.217848
vt -7.01731 5.971128
vt -10.8797 5.971128
vt -7.01731 7.217848
vt -10.8797 7.217848
vt 7.017311 5.971128
vt 7.017311 7.217848
vt 10.8797 5.971128
vt 10.8797 7.217848
vt 13.53524 5.971128
vt 13.53524 7.217848
vt 17.39763 5.971128
vt 17.39763 7.217848
vt -3.499895 5.971128
vt -7.362285 5.971128
vt -3.499895 7.217848
vt -7.362285 7.217848
vt 0.1104472 5.971128
vt -3.751942 5.971128
vt 0.1104472 7.217848
vt -3.751942 7.217848
vt -20.28662 5.971128
vt -20.28662 7.217848
vt -16.42423 5.971128
vt -16.42423 7.217848
vt 3.499896 5.971128
vt 3.499896 7.217848
vt 7.362285 5.971128
vt 7.362285 7.217848
vt 10.38161 5.971128
vt 10.38161 7.217848
vt 14.244 5.971128
vt 14.244 7.217848
vt -19.68504 1.237495E-11
vt -9.84252 1.237495E-11
vt -9.84252 7.217848
vt -9.84252 5.971128
vt -13.53524 5.971128
vt -17.39763 5.971128
vt -13.53524 7.217848
vt -17.39763 7.217848
vt -10.38161 5.971128
vt -14.244 5.971128
vt -10.38161 7.217848
vt -14.244 7.217848
vt 16.42423 5.971128
vt 16.42423 7.217848
vt 20.28662 5.971128
vt 20.28662 7.217848
vt 4.92126 19.68504
vt 5.047567 17.75798
vt 5.424324 15.86389
vt 6.045086 14.03519
vt 6.899232 12.30315
vt 7.972146 10.69742
vt 9.245471 9.245472
vt 10.69742 7.972147
vt 12.30315 6.899232
vt 14.03519 6.045087
vt 15.86389 5.424325
vt 17.75798 5.047567
vt 19.68504 4.921261
vt 4.92126 1.323335E-10
vt 4.921261 5.971128
vt 19.68504 1.323335E-10
vt 19.68504 5.971128
vt -4.921259 -1.352178E-10
vt -19.68504 -1.352054E-10
vt -4.92126 5.971128
vt -19.68504 5.971128

usemtl grass

f 3/3/1 2/2/1 1/1/1
f 2/2/1 3/3/1 4/4/1
f 5/2/2 1/5/2 2/4/2
f 1/5/2 5/2/2 6/6/2
f 7/9/3 1/8/3 6/7/3
f 1/8/3 7/9/3 3/10/3
f 3/10/3 7/9/3 8/11/3
f 3/10/3 8/11/3 9/12/3
f 3/10/3 9/12/3 10/13/3
f 3/10/3 10/13/3 11/14/3
f 2/10/4 12/15/4 5/12/4
f 12/15/4 2/10/4 13/16/4
f 13/16/4 2/10/4 14/17/4
f 14/17/4 2/10/4 15/18/4
f 15/18/4 2/10/4 16/19/4
f 16/19/4 2/10/4 17/20/4
f 17/20/4 2/10/4 18/21/4
f 18/21/4 2/10/4 4/8/4
f 18/21/4 4/8/4 19/22/4
f 19/22/4 4/8/4 20/23/4
f 20/23/4 4/8/4 21/24/4
f 21/24/4 4/8/4 22/25/4
f 22/25/4 4/8/4 23/26/4
f 23/26/4 4/8/4 24/27/4
f 5/4/5 7/29/5 6/28/5
f 7/29/5 5/4/5 25/30/5
f 25/30/5 5/4/5 12/31/5
f 27/34/7 18/33/6 26/32/6
f 18/33/6 27/34/7 17/35/7
f 20/38/8 29/37/9 28/36/8
f 29/37/9 20/38/8 21/39/9
f 31/42/11 16/41/10 30/40/10
f 16/41/10 31/42/11 15/43/11
f 33/46/13 14/45/12 32/44/12
f 14/45/12 33/46/13 13/47/13
f 19/50/14 28/49/8 34/48/14
f 28/49/8 19/50/14 20/51/8
f 18/54/6 34/53/14 26/52/6
f 34/53/14 18/54/6 19/55/14
f 36/58/16 24/57/15 35/56/15
f 24/57/15 36/58/16 23/59/16
f 30/62/10 17/61/7 27/60/7
f 17/61/7 30/62/10 16/63/10
f 32/66/12 15/65/11 31/64/11
f 15/65/11 32/66/12 14/67/12
f 11/69/17 4/2/17 3/68/17
f 4/2/17 11/69/17 24/70/17
f 24/70/17 11/69/17 35/71/17
f 22/74/18 36/73/16 37/72/18
f 36/73/16 22/74/18 23/75/16
f 21/78/9 37/77/18 29/76/9
f 37/77/18 21/78/9 22/79/18
f 25/82/19 13/81/13 33/80/13
f 13/81/13 25/82/19 12/83/19

usemtl water

f 40/85/4 39/7/4 38/84/4
f 39/7/4 40/85/4 41/86/4
f 39/7/4 41/86/4 42/87/4
f 39/7/4 42/87/4 43/88/4
f 39/7/4 43/88/4 44/89/4
f 39/7/4 44/89/4 45/90/4
f 39/7/4 45/90/4 46/91/4
f 39/7/4 46/91/4 47/92/4
f 39/7/4 47/92/4 48/93/4
f 39/7/4 48/93/4 49/94/4
f 39/7/4 49/94/4 50/95/4
f 39/7/4 50/95/4 51/96/4
f 9/99/17 51/98/17 10/97/17
f 51/98/17 9/99/17 39/100/17
f 38/103/5 9/102/5 8/101/5
f 9/102/5 38/103/5 39/104/5

usemtl sand

f 25/30/5 8/101/5 7/29/5
f 8/101/5 25/30/5 38/103/5
f 33/16/4 38/84/4 25/15/4
f 38/84/4 33/16/4 32/17/4
f 38/84/4 32/17/4 31/18/4
f 38/84/4 31/18/4 30/19/4
f 38/84/4 30/19/4 27/20/4
f 38/84/4 27/20/4 26/21/4
f 38/84/4 26/21/4 34/22/4
f 38/84/4 34/22/4 28/23/4
f 38/84/4 28/23/4 40/85/4
f 40/85/4 28/23/4 29/24/4
f 40/85/4 29/24/4 41/86/4
f 41/86/4 29/24/4 42/87/4
f 42/87/4 29/24/4 43/88/4
f 43/88/4 29/24/4 44/89/4
f 44/89/4 29/24/4 45/90/4
f 45/90/4 29/24/4 37/25/4
f 45/90/4 37/25/4 46/91/4
f 46/91/4 37/25/4 47/92/4
f 47/92/4 37/25/4 36/26/4
f 47/92/4 36/26/4 48/93/4
f 48/93/4 36/26/4 49/94/4
f 49/94/4 36/26/4 35/27/4
f 49/94/4 35/27/4 50/95/4
f 50/95/4 35/27/4 51/96/4
f 10/97/17 35/71/17 11/69/17
f 35/71/17 10/97/17 51/98/17

