# Created by Kenney (www.kenney.nl)

mtllib tile150.mtl

g tile150

v -0.5 0.1 -0.25
v -0.5 0.2 -0.25
v -0.5 0.1 0.25
v -0.5 0.2 0.25
v 0.5 0.3833333 0.25
v 0.5 0.3833333 -0.25
v 0.5 0.2833333 -0.25
v 0.5 0.2833333 0.25
v -0.5 0.21 0.25
v 0.5 0.3933333 0.25
v 0.5 0.3933333 -0.375
v 0.5 0.3933333 -0.25
v -0.5 0.21 -0.375
v -0.5 0.21 -0.25
v 0.5 0.3933333 0.375
v -0.5 0.21 0.375
v -0.5 4.21115E-16 -0.375
v 0.5 4.21115E-16 -0.375
v 0.5 0 0.375
v -0.5 3.007964E-16 0.375

vn -0.3333333 0 0
vn -0.06010929 0.3278689 0
vn 0.3333333 0 0
vn 0 0 -0.3333333
vn 0 0 0.3333333
vn 0 -0.3333333 0

vt -29.52756 11.81102
vt -29.52756 23.62205
vt 29.52756 11.81102
vt 29.52756 23.62205
vt 29.52756 66.25145
vt 29.52756 -53.82729
vt -29.52756 66.25145
vt -29.52756 -53.82729
vt 29.52756 45.27559
vt 29.52756 33.46457
vt -29.52756 45.27559
vt -29.52756 33.46457
vt 59.05512 23.62205
vt -59.05512 45.27559
vt 59.05512 24.80315
vt -59.05512 46.45669
vt -44.29134 66.46444
vt -29.52756 66.46444
vt -44.29134 -53.6143
vt -29.52756 -53.6143
vt -59.05512 23.62205
vt -59.05512 24.80315
vt 59.05512 45.27559
vt 59.05512 46.45669
vt 44.29134 66.46444
vt 44.29134 -53.6143
vt 29.52756 66.46444
vt 29.52756 -53.6143
vt 59.05512 -4.132959E-13
vt -59.05512 -4.132959E-13
vt -29.52756 46.45669
vt -44.29134 46.45669
vt -44.29134 -6.343942E-13
vt 44.29134 -5.846562E-13
vt 44.29134 46.45669
vt 29.52756 46.45669
vt -44.29134 24.80315
vt -44.29134 7.548057E-13
vt 44.29134 7.405948E-13
vt 29.52756 24.80315
vt 44.29134 24.80315
vt -29.52756 24.80315
vt 59.05512 5.124243E-13
vt -59.05512 5.479514E-13
vt 59.05512 -44.29134
vt -59.05512 -44.29134
vt 59.05512 44.29134
vt -59.05512 44.29134

usemtl asphalt

f 3/3/1 2/2/1 1/1/1
f 2/2/1 3/3/1 4/4/1
f 6/7/2 4/6/2 5/5/2
f 4/6/2 6/7/2 2/8/2
f 5/11/3 7/10/3 6/9/3
f 7/10/3 5/11/3 8/12/3

usemtl pavement

f 9/15/4 5/14/4 4/13/4
f 5/14/4 9/15/4 10/16/4
f 13/19/2 12/18/2 11/17/2
f 12/18/2 13/19/2 14/20/2
f 6/23/5 14/22/5 2/21/5
f 14/22/5 6/23/5 12/24/5
f 10/27/2 16/26/2 15/25/2
f 16/26/2 10/27/2 9/28/2
f 13/15/4 18/30/4 17/29/4
f 18/30/4 13/15/4 11/16/4
f 15/32/3 5/11/3 10/31/3
f 5/11/3 15/32/3 8/12/3
f 8/12/3 15/32/3 19/33/3
f 19/33/3 7/10/3 8/12/3
f 18/34/3 7/10/3 19/33/3
f 7/10/3 18/34/3 11/35/3
f 7/10/3 11/35/3 12/36/3
f 7/10/3 12/36/3 6/9/3
f 17/38/1 1/1/1 13/37/1
f 1/1/1 17/38/1 20/39/1
f 1/1/1 20/39/1 3/3/1
f 3/3/1 20/39/1 4/4/1
f 4/4/1 20/39/1 9/40/1
f 9/40/1 20/39/1 16/41/1
f 1/1/1 14/42/1 13/37/1
f 14/42/1 1/1/1 2/2/1
f 15/24/5 20/44/5 19/43/5
f 20/44/5 15/24/5 16/22/5
f 19/47/6 17/46/6 18/45/6
f 17/46/6 19/47/6 20/48/6

