# Created by Kenney (www.kenney.nl)

mtllib tile128.mtl

g tile128

v -0.5 3.136104E-13 0.375
v -0.5 0.21 0.375
v 0.5 0.3666667 0.375
v 0.5 0.5766667 0.375
v -0.5 0 -0.375
v -0.5 0.1 -0.25
v -0.5 0.1 0.25
v -0.5 0.2 0.25
v -0.5 0.21 0.25
v -0.5 0.21 -0.25
v -0.5 0.21 -0.375
v -0.5 0.2 -0.25
v 0.5 0.3666667 -0.375
v 0.5 0.5766667 -0.375
v 0.5 0.5766667 0.25
v 0.5 0.5666667 0.25
v 0.5 0.4666667 0.25
v 0.5 0.4666667 -0.25
v 0.5 0.5766667 -0.25
v 0.5 0.5666667 -0.25

vn 0 0 0.3333333
vn -0.3333333 0 0
vn 0 0 -0.3333333
vn 0.3333333 0 0
vn 0.1147515 -0.3129588 0
vn -0.1147515 0.3129588 0

vt -59.05512 2.867908E-10
vt -59.05512 24.80315
vt 59.05512 43.30709
vt 59.05512 68.11024
vt -44.29134 -9.129282E-12
vt -29.52756 11.81102
vt 44.29134 2.791131E-11
vt 29.52756 11.81102
vt 29.52756 23.62205
vt 29.52756 24.80315
vt 44.29134 24.80315
vt -29.52756 24.80315
vt -44.29134 24.80315
vt -29.52756 23.62205
vt 59.05512 6.637333E-26
vt -59.05512 43.30709
vt 59.05512 24.80315
vt -59.05512 68.11024
vt -29.52756 68.11024
vt -29.52756 66.92913
vt -44.29134 68.11024
vt -29.52756 55.11811
vt -44.29134 43.30709
vt 29.52756 55.11811
vt 44.29134 43.30709
vt 44.29134 68.11024
vt 29.52756 68.11024
vt 29.52756 66.92913
vt 44.29134 70.35412
vt 44.29134 -55.44545
vt -44.29134 70.35412
vt -44.29134 -55.44545
vt -44.29134 78.89272
vt -29.52756 78.89272
vt -44.29134 -46.90685
vt -29.52756 -46.90685
vt -59.05512 23.62205
vt 59.05512 66.92913
vt 29.52756 78.89272
vt 44.29134 78.89272
vt 29.52756 -46.90685
vt 44.29134 -46.90685
vt 59.05512 23.62205
vt -59.05512 66.92913
vt 29.52756 78.48611
vt 29.52756 -47.31345
vt -29.52756 78.48611
vt -29.52756 -47.31345

usemtl pavement

f 3/3/1 2/2/1 1/1/1
f 2/2/1 3/3/1 4/4/1
f 1/7/2 6/6/2 5/5/2
f 6/6/2 1/7/2 7/8/2
f 7/8/2 1/7/2 8/9/2
f 8/9/2 1/7/2 9/10/2
f 9/10/2 1/7/2 2/11/2
f 10/12/2 5/5/2 6/6/2
f 5/5/2 10/12/2 11/13/2
f 10/12/2 6/6/2 12/14/2
f 11/17/3 13/16/3 5/15/3
f 13/16/3 11/17/3 14/18/3
f 4/21/4 16/20/4 15/19/4
f 16/20/4 4/21/4 17/22/4
f 17/22/4 4/21/4 3/23/4
f 3/23/4 18/24/4 17/22/4
f 13/25/4 18/24/4 3/23/4
f 18/24/4 13/25/4 14/26/4
f 18/24/4 14/26/4 19/27/4
f 18/24/4 19/27/4 20/28/4
f 3/31/5 5/30/5 13/29/5
f 5/30/5 3/31/5 1/32/5
f 11/35/6 19/34/6 14/33/6
f 19/34/6 11/35/6 10/36/6
f 20/38/1 10/2/1 12/37/1
f 10/2/1 20/38/1 19/4/1
f 9/41/6 4/40/6 15/39/6
f 4/40/6 9/41/6 2/42/6
f 9/17/3 16/44/3 8/43/3
f 16/44/3 9/17/3 15/18/3

usemtl asphalt

f 7/8/2 12/14/2 6/6/2
f 12/14/2 7/8/2 8/9/2
f 20/47/6 8/46/6 16/45/6
f 8/46/6 20/47/6 12/48/6
f 16/20/4 18/24/4 20/28/4
f 18/24/4 16/20/4 17/22/4

