# Created by Kenney (www.kenney.nl)

mtllib tile021.mtl

g tile021

v -0.5 0.1 0.2500001
v -0.5000001 0.1 -0.2499999
v -0.5 0.2 0.2500001
v -0.5000001 0.2 -0.2499999
v 0.5 0.1 -0.2500001
v 0.5000001 0.1 0.2499999
v 0.5 0.2 -0.2500001
v 0.5000001 0.2 0.2499999
v -0.25 0.2 0.2500001
v 0.2500001 0.2 0.25
v -0.25 0.2 0.5000001
v 0.2500001 0.2 0.5
v 0.25 0.2 -0.2500001
v -0.2500001 0.2 -0.25
v -0.2500001 0.2 -0.5
v 0.25 0.2 -0.5000001
v -0.2500001 0.1 -0.5
v 0.25 0.1 -0.5000001
v -0.25 0.1 0.5000001
v 0.2500001 0.1 0.5
v 0.5 4.286349E-16 -0.5000001
v 0.5 0.21 -0.5000001
v 0.5 0.21 -0.2500001
v 0.5000001 0 0.4999999
v 0.5000001 0.21 0.4999999
v 0.5000001 0.21 0.2499999
v -0.2500001 0.21 -0.5
v -0.2500001 0.21 -0.25
v -0.5000001 0.21 -0.4999999
v -0.5000001 0.21 -0.2499999
v -0.5000001 5.188738E-16 -0.4999999
v -0.5 6.76792E-17 0.5000001
v -0.5 0.21 0.5000001
v -0.5 0.21 0.2500001
v -0.25 0.21 0.2500001
v -0.25 0.21 0.5000001
v 0.25 0.21 -0.5000001
v 0.25 0.21 -0.2500001
v 0.2500001 0.21 0.25
v 0.2500001 0.21 0.5

vn -1 0 1.192093E-07
vn 1 0 -1.192093E-07
vn 0 1 0
vn -1.192093E-07 0 -1
vn 1.192093E-07 0 1
vn 0 -1 0

vt 9.84252 3.937008
vt -9.84252 3.937008
vt 9.84252 7.874016
vt -9.84252 7.874016
vt 9.84252 -9.84252
vt 9.84252 9.84252
vt 19.68504 -9.84252
vt 19.68504 9.84252
vt 9.84252 19.68504
vt 9.84252 -19.68504
vt -9.84252 19.68504
vt -9.84252 9.84252
vt -9.84252 -9.84252
vt -9.84252 -19.68504
vt -19.68504 -9.84252
vt -19.68504 9.84252
vt 19.68504 3.384536E-13
vt 19.68504 8.267716
vt 9.84252 8.267716
vt -19.68504 3.215782E-13
vt -19.68504 8.267716
vt -9.84252 8.267716
vt -19.68504 -19.68504
vt -19.68504 -3.891886E-13
vt 19.68504 -4.069522E-13
vt -19.68504 7.874016
vt 19.68504 7.874016
vt 19.68504 -19.68504
vt -19.68504 19.68504
vt 19.68504 19.68504
vt -19.68504 1.376917E-12
vt 19.68504 1.374253E-12
vt -19.68504 -2.851873E-12
vt 19.68504 -2.848321E-12

usemtl asphalt

f 3/3/1 2/2/1 1/1/1
f 2/2/1 3/3/1 4/4/1
f 7/3/2 6/2/2 5/1/2
f 6/2/2 7/3/2 8/4/2
f 11/7/3 10/6/3 9/5/3
f 10/6/3 11/7/3 12/8/3
f 8/9/3 9/5/3 10/6/3
f 8/9/3 3/10/3 9/5/3
f 7/11/3 3/10/3 8/9/3
f 13/12/3 3/10/3 7/11/3
f 14/13/3 3/10/3 13/12/3
f 3/10/3 14/13/3 4/14/3
f 13/12/3 15/15/3 14/13/3
f 15/15/3 13/12/3 16/16/3
f 16/4/4 17/1/4 15/3/4
f 17/1/4 16/4/4 18/2/4
f 20/1/5 11/4/5 19/2/5
f 11/4/5 20/1/5 12/3/5

usemtl pavement

f 22/18/2 5/1/2 21/17/2
f 5/1/2 22/18/2 7/3/2
f 7/3/2 22/18/2 23/19/2
f 6/2/2 21/17/2 5/1/2
f 6/2/2 24/20/2 21/17/2
f 24/20/2 6/2/2 25/21/2
f 25/21/2 6/2/2 8/4/2
f 25/21/2 8/4/2 26/22/2
f 29/23/3 28/13/3 27/15/3
f 28/13/3 29/23/3 30/14/3
f 32/25/1 1/1/1 31/24/1
f 1/1/1 32/25/1 33/18/1
f 1/1/1 33/18/1 3/3/1
f 3/3/1 33/18/1 34/19/1
f 2/2/1 31/24/1 1/1/1
f 31/24/1 2/2/1 29/21/1
f 29/21/1 2/2/1 4/4/1
f 29/21/1 4/4/1 30/22/1
f 14/4/5 30/21/5 4/26/5
f 30/21/5 14/4/5 28/22/5
f 27/18/2 14/3/2 15/27/2
f 14/3/2 27/18/2 28/19/2
f 33/28/3 35/5/3 34/10/3
f 35/5/3 33/28/3 36/7/3
f 35/22/2 11/26/2 9/4/2
f 11/26/2 35/22/2 36/21/2
f 35/19/4 3/27/4 34/18/4
f 3/27/4 35/19/4 9/3/4
f 37/16/3 23/11/3 22/29/3
f 23/11/3 37/16/3 38/12/3
f 38/22/1 16/26/1 13/4/1
f 16/26/1 38/22/1 37/21/1
f 7/27/5 38/19/5 13/3/5
f 38/19/5 7/27/5 23/18/5
f 40/8/3 26/9/3 39/6/3
f 26/9/3 40/8/3 25/30/3
f 32/31/5 19/2/5 33/21/5
f 19/2/5 32/31/5 24/32/5
f 19/2/5 24/32/5 20/1/5
f 20/1/5 24/32/5 12/3/5
f 12/3/5 24/32/5 40/19/5
f 40/19/5 24/32/5 25/18/5
f 19/2/5 36/22/5 33/21/5
f 36/22/5 19/2/5 11/4/5
f 26/21/4 10/4/4 39/22/4
f 10/4/4 26/21/4 8/26/4
f 40/18/1 10/3/1 12/27/1
f 10/3/1 40/18/1 39/19/1
f 24/29/6 31/28/6 21/30/6
f 31/28/6 24/29/6 32/23/6
f 22/21/4 16/4/4 37/22/4
f 16/4/4 22/21/4 18/2/4
f 21/33/4 18/2/4 22/21/4
f 21/33/4 17/1/4 18/2/4
f 31/34/4 17/1/4 21/33/4
f 17/1/4 31/34/4 29/18/4
f 17/1/4 29/18/4 27/19/4
f 17/1/4 27/19/4 15/3/4

