# Created by Kenney (www.kenney.nl)

mtllib tile026.mtl

g tile026

v 0.5000001 0 -0.4999999
v 0.5000001 0.21 -0.4999999
v -0.5 0 -0.5000001
v -0.5 0.21 -0.5000001
v 0.5 0.21 0.5000001
v 0.5 0 0.5000001
v -0.5000001 0.21 0.4999999
v -0.5000001 0 0.4999999
v -0.5000001 0.1 0.2499999
v -0.5000001 0.2 0.2499999
v -0.5000001 0.21 0.2499999
v -0.5 0.1 -0.2500001
v -0.5 0.2 -0.2500001
v -0.5 0.21 -0.2500001
v 0.5 0.21 0.2500001
v 0.5000001 0.1 -0.2499999
v 0.5000001 0.2 -0.2499999
v 0.5000001 0.21 -0.2499999
v 0.5 0.1 0.2500001
v 0.5 0.2 0.2500001
v 0.125 0.2 -0.25
v -0.125 0.2 -0.2500001
v -0.125 0.2 0.1875
v 0.125 0.2 0.1875
v 0.125 0.2 0.125
v 0.125 0.2 0.06250002
v -0.125 0.2 0.125
v -0.125 0.2 0.06249999
v 0.125 0.2 1.490116E-08
v 0.125 0.2 -0.06249999
v -0.125 0.2 -0.06250002
v 0.125 0.2 -0.125
v 0.125 0.2 -0.1875
v -0.125 0.2 -1.490116E-08
v -0.125 0.2 -0.125
v -0.125 0.2 -0.1875

vn 1.192093E-07 0 -1
vn -1.192093E-07 0 1
vn -1 0 -1.192093E-07
vn 0 1 0
vn 1 0 1.192093E-07
vn 0 -1 0

vt -19.68504 0
vt -19.68504 8.267716
vt 19.68504 0
vt 19.68504 8.267716
vt -19.68504 -3.881523E-15
vt 9.84252 3.937008
vt 19.68504 -3.881523E-15
vt 9.84252 7.874016
vt 9.84252 8.267716
vt -9.84252 3.937008
vt -9.84252 7.874016
vt -9.84252 8.267716
vt -19.68504 -19.68504
vt -19.68504 19.68504
vt -9.84252 -19.68504
vt -9.84252 19.68504
vt -19.68504 9.55452E-15
vt 19.68504 9.55452E-15
vt -19.68504 7.874016
vt 19.68504 7.874016
vt 9.84252 -19.68504
vt 9.84252 19.68504
vt 19.68504 -19.68504
vt 19.68504 19.68504
vt 4.92126 7.874016
vt -4.92126 7.874016
vt -7.38189 4.92126
vt -7.38189 -4.92126
vt -4.92126 -4.92126
vt -2.46063 -4.92126
vt -4.92126 4.92126
vt -2.46063 4.92126
vt 5.684342E-14 -4.92126
vt 2.46063 -4.92126
vt 2.46063 4.92126
vt 4.92126 -4.92126
vt 7.38189 -4.92126
vt 9.84252 -4.92126
vt 5.329071E-14 4.92126
vt 4.92126 4.92126
vt 7.38189 4.92126
vt 9.84252 4.92126

usemtl pavement

f 3/3/1 2/2/1 1/1/1
f 2/2/1 3/3/1 4/4/1
f 7/2/2 6/3/2 5/4/2
f 6/3/2 7/2/2 8/1/2
f 8/7/3 9/6/3 3/5/3
f 9/6/3 8/7/3 7/4/3
f 9/6/3 7/4/3 10/8/3
f 10/8/3 7/4/3 11/9/3
f 12/10/3 3/5/3 9/6/3
f 3/5/3 12/10/3 4/2/3
f 4/2/3 12/10/3 13/11/3
f 4/2/3 13/11/3 14/12/3
f 15/15/4 7/14/4 5/13/4
f 7/14/4 15/15/4 11/16/4
f 1/18/5 16/6/5 6/17/5
f 16/6/5 1/18/5 2/4/5
f 16/6/5 2/4/5 17/8/5
f 17/8/5 2/4/5 18/9/5
f 19/10/5 6/17/5 16/6/5
f 6/17/5 19/10/5 5/2/5
f 5/2/5 19/10/5 20/11/5
f 5/2/5 20/11/5 15/12/5
f 10/20/1 15/2/1 20/19/1
f 15/2/1 10/20/1 11/4/1
f 2/23/4 14/22/4 18/21/4
f 14/22/4 2/23/4 4/24/4
f 14/2/2 17/20/2 18/4/2
f 17/20/2 14/2/2 21/25/2
f 21/25/2 14/2/2 22/26/2
f 22/26/2 14/2/2 13/19/2
f 3/14/6 6/23/6 8/24/6
f 6/23/6 3/14/6 1/13/6

usemtl asphalt

f 17/8/5 19/10/5 16/6/5
f 19/10/5 17/8/5 20/11/5
f 10/8/3 12/10/3 9/6/3
f 12/10/3 10/8/3 13/11/3
f 20/15/4 24/28/4 23/27/4
f 24/28/4 20/15/4 17/21/4
f 24/28/4 17/21/4 25/29/4
f 25/29/4 17/21/4 26/30/4
f 25/29/4 26/30/4 27/31/4
f 27/31/4 26/30/4 28/32/4
f 26/30/4 17/21/4 29/33/4
f 29/33/4 17/21/4 30/34/4
f 29/33/4 30/34/4 31/35/4
f 30/34/4 17/21/4 32/36/4
f 32/36/4 17/21/4 33/37/4
f 33/37/4 17/21/4 21/38/4
f 23/27/4 10/16/4 20/15/4
f 10/16/4 23/27/4 13/22/4
f 13/22/4 23/27/4 27/31/4
f 13/22/4 27/31/4 28/32/4
f 13/22/4 28/32/4 34/39/4
f 13/22/4 34/39/4 31/35/4
f 31/35/4 34/39/4 29/33/4
f 13/22/4 31/35/4 35/40/4
f 13/22/4 35/40/4 32/36/4
f 13/22/4 32/36/4 36/41/4
f 36/41/4 32/36/4 33/37/4
f 13/22/4 36/41/4 22/42/4

usemtl striping

f 21/38/4 36/41/4 33/37/4
f 36/41/4 21/38/4 22/42/4
f 26/30/4 34/39/4 28/32/4
f 34/39/4 26/30/4 29/33/4
f 30/34/4 35/40/4 31/35/4
f 35/40/4 30/34/4 32/36/4
f 24/28/4 27/31/4 23/27/4
f 27/31/4 24/28/4 25/29/4

