# Created by Kenney (www.kenney.nl)

mtllib tile089.mtl

g tile089

v 0.5 0.1833333 0.5000001
v 0.5 0 0.5000001
v -0.5000001 0.1833333 0.4999999
v -0.5000001 0 0.4999999
v -0.5 0 -0.5000001
v -0.5 0.1833333 -0.5000001
v 0.5000001 0 -0.4999999
v 0.5000001 0.55 -0.4999999

vn -1.192093E-07 0 1
vn -1 0 -1.192093E-07
vn 0 -1 0
vn 1.192093E-07 0 -1
vn -0.3442546 0.9388763 -2.980232E-08
vn -2.980232E-08 0.9388763 0.3442546
vn 1 0 1.192093E-07

vt 19.68504 7.217848
vt 19.68504 0
vt -19.68504 7.217848
vt -19.68504 0
vt 19.68504 -4.111697E-29
vt -19.68504 -4.111697E-29
vt 19.68504 -19.68504
vt -19.68504 -19.68504
vt 19.68504 19.68504
vt -19.68504 19.68504
vt -19.68504 -1.274599E-28
vt -19.68504 21.65354
vt 19.68504 -1.274599E-28
vt 19.68504 -15.99704
vt -19.68504 -15.99704
vt -19.68504 25.93615
vt 19.68504 25.93615
vt 19.68504 21.65354

usemtl pavement

f 3/3/1 2/2/1 1/1/1
f 2/2/1 3/3/1 4/4/1
f 3/1/2 5/6/2 4/5/2
f 5/6/2 3/1/2 6/3/2
f 4/9/3 7/8/3 2/7/3
f 7/8/3 4/9/3 5/10/3
f 5/13/4 8/12/4 7/11/4
f 8/12/4 5/13/4 6/1/4
f 8/16/5 6/15/5 3/14/5
f 8/17/6 3/15/6 1/14/6
f 8/18/7 2/4/7 7/2/7
f 2/4/7 8/18/7 1/3/7

