# Created by Kenney (www.kenney.nl)

mtllib tile226.mtl

g tile226

v -0.5000001 0.1 -0.4999999
v -0.5000001 0 -0.4999999
v 0.5 0.1 -0.5000001
v 0.5 3.235065E-14 -0.5000001
v -0.5 0 0.5000001
v -0.5 0.1 0.5000001
v 0.5000001 3.217018E-14 0.4999999
v 0.2500001 0.1 0.5
v 0.2500001 0.2 0.5
v 0.2500001 0.21 0.5
v 0.5000001 0.21 0.4999999
v 0.2500001 0.21 0.25
v 0.5000001 0.21 0.2499999
v 0.2500001 0.2 0.25
v 0.5000001 0.2 0.2499999
v 0.5000001 0.1 0.2499999
v -0.5 0.2 0.5000001
v -0.5000001 0.2 -0.4999999
v 0.5 0.2 -0.5000001

vn -1.192093E-07 0 -1
vn 1.192093E-07 0 1
vn 0 -1 0
vn -1 0 1.192093E-07
vn 0 1 0
vn 1 0 -1.192093E-07

vt 19.68504 3.937008
vt 19.68504 -7.761023E-12
vt -19.68504 3.937008
vt -19.68504 -6.487375E-12
vt -19.68504 8.571208E-13
vt 19.68504 2.123663E-12
vt 9.84252 3.937008
vt 9.84252 7.874016
vt 9.84252 8.267716
vt 19.68504 8.267716
vt 19.68504 19.68504
vt 19.68504 -19.68504
vt -19.68504 19.68504
vt -19.68504 -19.68504
vt 19.68504 3.789561E-13
vt -19.68504 3.789561E-13
vt 9.84252 9.84252
vt 9.84252 19.68504
vt 19.68504 9.84252
vt -9.84252 8.267716
vt -9.84252 7.874016
vt -19.68504 8.267716
vt -19.68504 7.874016
vt 19.68504 7.874016
vt 19.68504 -1.141854E-12
vt -9.84252 3.937008
vt -19.68504 -1.148959E-12

usemtl pavement

f 3/3/1 2/2/1 1/1/1
f 2/2/1 3/3/1 4/4/1
f 7/6/2 6/3/2 5/5/2
f 6/3/2 7/6/2 8/7/2
f 8/7/2 7/6/2 9/8/2
f 9/8/2 7/6/2 10/9/2
f 10/9/2 7/6/2 11/10/2
f 7/13/3 2/12/3 4/11/3
f 2/12/3 7/13/3 5/14/3
f 6/1/4 2/16/4 5/15/4
f 2/16/4 6/1/4 1/3/4
f 10/19/5 13/18/5 12/17/5
f 13/18/5 10/19/5 11/11/5
f 13/22/1 14/21/1 12/20/1
f 14/21/1 13/22/1 15/23/1
f 10/10/4 14/8/4 9/24/4
f 14/8/4 10/10/4 12/9/4
f 3/1/6 16/26/6 4/25/6
f 16/26/6 7/27/6 4/25/6
f 7/27/6 16/26/6 11/22/6
f 11/22/6 16/26/6 15/21/6
f 11/22/6 15/21/6 13/20/6

usemtl asphalt

f 17/24/4 1/3/4 6/1/4
f 1/3/4 17/24/4 18/23/4
f 3/1/6 15/21/6 16/26/6
f 15/21/6 3/1/6 19/24/6
f 19/23/1 1/1/1 18/24/1
f 1/1/1 19/23/1 3/3/1
f 17/12/5 19/13/5 18/14/5
f 19/13/5 17/12/5 14/17/5
f 14/17/5 17/12/5 9/19/5
f 15/18/5 19/13/5 14/17/5
f 8/7/2 17/23/2 6/3/2
f 17/23/2 8/7/2 9/8/2

