# Created by Kenney (www.kenney.nl)

mtllib tile118.mtl

g tile118

v -0.5 0.1 -0.5
v -0.5 0.2 -0.5
v -0.5 0.1 0.5
v -0.5 0.2 0.5
v 0.5 0.1 0.5
v 0.5 0.2 0.5
v 0.5 0.2 -0.5
v 0.5 0.1 -0.5
v 0.5 1.804779E-16 -0.5
v -0.5 5.414336E-16 -0.5
v 0.5 0 0.5
v -0.5 5.414336E-16 0.5

vn -0.3333333 0 0
vn 0 0 0.3333333
vn 0 0.3333333 0
vn 0 0 -0.3333333
vn 0.3333333 0 0
vn 0 -0.3333333 0

vt -59.05512 11.81102
vt -59.05512 23.62205
vt 59.05512 11.81102
vt 59.05512 23.62205
vt -59.05512 -59.05512
vt -59.05512 59.05512
vt 59.05512 -59.05512
vt 59.05512 59.05512
vt -59.05512 2.131628E-14
vt 59.05512 6.394885E-14
vt 59.05512 -7.494269E-13
vt -59.05512 -6.85478E-13
vt -59.05512 3.326376E-11
vt 59.05512 3.326376E-11
vt 59.05512 -1.410935E-13
vt -59.05512 -1.624098E-13

usemtl asphalt

f 3/3/1 2/2/1 1/1/1
f 2/2/1 3/3/1 4/4/1
f 6/4/2 3/1/2 5/3/2
f 3/1/2 6/4/2 4/2/2
f 2/7/3 6/6/3 7/5/3
f 6/6/3 2/7/3 4/8/3
f 2/4/4 8/1/4 1/3/4
f 8/1/4 2/4/4 7/2/4
f 6/2/5 8/3/5 7/4/5
f 8/3/5 6/2/5 5/1/5

usemtl pavement

f 10/10/4 8/1/4 9/9/4
f 8/1/4 10/10/4 1/3/4
f 5/3/2 12/12/2 11/11/2
f 12/12/2 5/3/2 3/1/2
f 12/14/1 1/1/1 10/13/1
f 1/1/1 12/14/1 3/3/1
f 11/8/6 10/5/6 9/7/6
f 10/5/6 11/8/6 12/6/6
f 5/1/5 9/15/5 8/3/5
f 9/15/5 5/1/5 11/16/5

usemtl _defaultMat

f 5/3/6 1/2/6 8/1/6
f 1/3/6 5/2/6 3/1/6

