# Created by Kenney (www.kenney.nl)

mtllib tile093.mtl

g tile093

v 0.5 0 0.5
v 0.5 0.55 0.5
v 0.5 0 -0.5
v 0.5 0.55 -0.5
v -0.5 0.1833333 0.5
v -0.5 0 0.5
v -0.5 0.1833333 -0.5
v -0.5 0 -0.5

vn 1 0 -1.490123E-08
vn -1 0 1.490123E-08
vn 1.490123E-08 0 1
vn -1.490123E-08 0 -1
vn -0.3442546 0.9388763 5.129818E-09
vn 0 -1 0

vt -19.68504 -3.445056E-14
vt -19.68504 21.65354
vt 19.68504 -3.445056E-14
vt 19.68504 21.65354
vt 19.68504 7.217848
vt 19.68504 0
vt -19.68504 7.217848
vt -19.68504 0
vt 19.68504 -5.425963E-13
vt -19.68504 -5.425963E-13
vt 19.68504 5.425963E-13
vt -19.68504 5.425963E-13
vt 19.68504 -15.99704
vt -19.68504 -15.99704
vt 19.68504 25.93615
vt -19.68504 25.93615
vt 19.68504 19.68504
vt 19.68504 -19.68504
vt -19.68504 19.68504
vt -19.68504 -19.68504

usemtl grass

f 3/3/1 2/2/1 1/1/1
f 2/2/1 3/3/1 4/4/1
f 7/7/2 6/6/2 5/5/2
f 6/6/2 7/7/2 8/8/2
f 2/4/3 6/10/3 1/9/3
f 6/10/3 2/4/3 5/7/3
f 7/5/4 3/12/4 8/11/4
f 3/12/4 7/5/4 4/2/4
f 2/15/5 7/14/5 5/13/5
f 7/14/5 2/15/5 4/16/5
f 3/19/6 6/18/6 8/17/6
f 6/18/6 3/19/6 1/20/6

