# Created by Kenney (www.kenney.nl)

mtllib tile238.mtl

g tile238

v -0.5000001 0.1 -0.4999999
v -0.5000001 0 -0.4999999
v 0.5 0.1 -0.5000001
v 0.5 3.235065E-14 -0.5000001
v 0.5000001 3.217018E-14 0.4999999
v -0.5 0 0.5000001
v -0.5 0.1 0.5000001
v 0.5000001 0.1 0.4999999
v -0.5 0.2 0.5000001
v -0.5000001 0.2 -0.4999999
v 0.5000001 0.2 0.4999999
v 0.5 0.2 -0.5000001

vn -1.192093E-07 0 -1
vn 0 -1 0
vn -1 0 1.192093E-07
vn 1.192093E-07 0 1
vn 1 0 -1.192093E-07
vn 0 1 0

vt 19.68504 3.937008
vt 19.68504 -7.761023E-12
vt -19.68504 3.937008
vt -19.68504 -6.487375E-12
vt 19.68504 19.68504
vt 19.68504 -19.68504
vt -19.68504 19.68504
vt -19.68504 -19.68504
vt 19.68504 3.789561E-13
vt -19.68504 3.789561E-13
vt -19.68504 2.971017E-12
vt 19.68504 4.23756E-12
vt -19.68504 -4.038843E-12
vt 19.68504 -4.031738E-12
vt 19.68504 7.874016
vt -19.68504 7.874016

usemtl pavement

f 3/3/1 2/2/1 1/1/1
f 2/2/1 3/3/1 4/4/1
f 5/7/2 2/6/2 4/5/2
f 2/6/2 5/7/2 6/8/2
f 7/1/3 2/10/3 6/9/3
f 2/10/3 7/1/3 1/3/3
f 6/11/4 8/1/4 7/3/4
f 8/1/4 6/11/4 5/12/4
f 4/14/5 8/3/5 5/13/5
f 8/3/5 4/14/5 3/1/5

usemtl asphalt

f 9/15/3 1/3/3 7/1/3
f 1/3/3 9/15/3 10/16/3
f 8/1/4 9/16/4 7/3/4
f 9/16/4 8/1/4 11/15/4
f 9/6/6 12/7/6 10/8/6
f 12/7/6 9/6/6 11/5/6
f 3/1/5 11/16/5 8/3/5
f 11/16/5 3/1/5 12/15/5
f 10/15/1 3/3/1 1/1/1
f 3/3/1 10/15/1 12/16/1

usemtl _defaultMat

f 1/3/6 8/15/6 3/16/6
f 8/3/6 1/15/6 7/16/6

