# Created by Kenney (www.kenney.nl)

mtllib tile227.mtl

g tile227

v 0.25 0.5766667 -0.5000001
v 0.25 0.2 -0.5000001
v 0.375 0.5766667 -0.5000001
v 0.25 0.1 -0.5000001
v 0.375 2.82899E-14 -0.5000001
v -0.5000001 0 -0.4999999
v -0.5000001 0.1 -0.4999999
v 0.375 0.55 -0.5000001
v 0.2500001 0.2 0.5
v 0.2500001 0.5766667 0.5
v -0.5 0 0.5000001
v -0.5 0.1 0.5000001
v 0.3750001 0.5766667 0.5
v 0.3750001 0.55 0.5
v 0.2500001 0.1 0.5
v 0.3750001 2.810943E-14 0.5
v -0.5 0.2 0.5000001
v -0.5000001 0.2 -0.4999999
v 0.5000001 0.55 0.4999999
v 0.5000001 3.212506E-14 0.4999999
v 0.5 3.230554E-14 -0.5000001
v 0.5 0.55 -0.5000001

vn -1.192093E-07 0 -1
vn -1 0 1.192093E-07
vn 0 1 0
vn 1 0 -1.192093E-07
vn 1.192093E-07 0 1
vn 0 -1 0

vt -9.84252 22.70341
vt -9.84252 7.874016
vt -14.76378 22.70341
vt -9.84252 3.937008
vt -14.76378 -4.071403E-12
vt 19.68504 -5.185178E-12
vt 19.68504 3.937008
vt -14.76378 21.65354
vt 19.68504 7.874016
vt -19.68504 7.874016
vt 19.68504 22.70341
vt -19.68504 22.70341
vt 19.68504 3.789561E-13
vt -19.68504 3.789561E-13
vt -19.68504 3.937008
vt -19.68504 14.76378
vt 19.68504 14.76378
vt -19.68504 9.84252
vt 19.68504 9.84252
vt -19.68504 21.65354
vt 19.68504 21.65354
vt 9.84252 3.937008
vt -19.68504 2.138611E-12
vt 14.76378 1.933484E-12
vt 9.84252 7.874016
vt 14.76378 22.70341
vt 14.76378 21.65354
vt 9.84252 22.70341
vt -19.68504 -19.68504
vt 19.68504 -19.68504
vt 19.68504 2.09158E-12
vt -19.68504 -3.833096E-12
vt 19.68504 -3.825991E-12
vt 19.68504 19.68504
vt -19.68504 19.68504
vt -19.68504 -5.756042E-12

usemtl pavement

f 3/3/1 2/2/1 1/1/1
f 2/2/1 3/3/1 4/4/1
f 5/5/1 4/4/1 3/3/1
f 6/6/1 4/4/1 5/5/1
f 4/4/1 6/6/1 7/7/1
f 5/5/1 3/3/1 8/8/1
f 10/11/2 2/10/2 9/9/2
f 2/10/2 10/11/2 1/12/2
f 12/7/2 6/14/2 11/13/2
f 6/14/2 12/7/2 7/15/2
f 1/18/3 13/17/3 3/16/3
f 13/17/3 1/18/3 10/19/3
f 8/21/4 13/12/4 14/20/4
f 13/12/4 8/21/4 3/11/4
f 11/23/5 15/22/5 12/15/5
f 15/22/5 11/23/5 16/24/5
f 15/22/5 16/24/5 9/25/5
f 9/25/5 16/24/5 13/26/5
f 13/26/5 16/24/5 14/27/5
f 13/26/5 10/28/5 9/25/5

usemtl asphalt

f 17/9/2 7/15/2 12/7/2
f 7/15/2 17/9/2 18/10/2
f 15/22/5 17/10/5 12/15/5
f 17/10/5 15/22/5 9/25/5
f 17/30/3 2/18/3 18/29/3
f 2/18/3 17/30/3 9/19/3
f 18/9/1 4/4/1 7/7/1
f 4/4/1 18/9/1 2/2/1

usemtl grass

f 16/24/5 19/21/5 14/27/5
f 19/21/5 16/24/5 20/31/5
f 21/33/4 19/20/4 20/32/4
f 19/20/4 21/33/4 22/21/4
f 20/35/6 5/17/6 21/34/6
f 5/17/6 20/35/6 6/30/6
f 6/30/6 20/35/6 11/29/6
f 11/29/6 20/35/6 16/16/6
f 8/16/3 19/34/3 22/35/3
f 19/34/3 8/16/3 14/17/3
f 22/20/1 5/5/1 8/8/1
f 5/5/1 22/20/1 21/36/1

