# Created by Kenney (www.kenney.nl)

mtllib tile249.mtl

g tile249

v -0.5000001 0.5666667 0.2499999
v -0.5 0.5666667 -0.2500001
v 0.5 0.5666667 0.2500001
v 0.5000001 0.5666667 -0.2499999
v -0.5000001 0.4666667 0.2499999
v -0.5 0.4666667 -0.2500001
v 0.5000001 0.4666667 -0.2499999
v 0.5 0.4666667 0.2500001
v 0.5000001 0.3666667 -0.375
v 0.5000001 0.5766667 -0.375
v 0.5000001 0.5766667 -0.2499999
v 0.5 0.3666667 0.3750001
v 0.5 0.5766667 0.3750001
v 0.5 0.5766667 0.2500001
v -0.5 6.452083E-15 -0.3750001
v -0.5000001 5.504574E-15 0.375
v -0.5000001 0.5766667 0.375
v -0.5000001 0.5766667 0.2499999
v -0.5 0.5766667 -0.3750001
v -0.5 0.5766667 -0.2500001
v 0.4521405 0.3635298 -0.375
v 0.4050998 0.3541728 -0.375
v 0.3596828 0.3387558 -0.375
v 0.3166668 0.3175426 -0.375
v 0.2767875 0.2908962 -0.375
v 0.2407276 0.2592725 -0.375
v 0.2091039 0.2232125 -0.375
v 0.1824574 0.1833333 -0.375
v 0.1612442 0.1403173 -0.375
v 0.1458273 0.09490032 -0.375
v 0.1364703 0.0478596 -0.375
v 0.1333334 0 -0.3750001
v 0.1333333 1.849898E-14 0.3750001
v 0.4521404 0.3635298 0.3750001
v 0.4050997 0.3541728 0.3750001
v 0.3596827 0.3387558 0.3750001
v 0.3166666 0.3175426 0.3750001
v 0.2767874 0.2908962 0.3750001
v 0.2407275 0.2592725 0.3750001
v 0.2091037 0.2232125 0.3750001
v 0.1824573 0.1833333 0.3750001
v 0.1612441 0.1403173 0.3750001
v 0.1458271 0.09490032 0.3750001
v 0.1364702 0.0478596 0.3750001

vn 0 1 0
vn -1 0 -1.192093E-07
vn 1 0 1.192093E-07
vn 1.192093E-07 0 -1
vn -1.192093E-07 0 1
vn 0 -1 0
vn 0.1305262 -0.9914449 1.490116E-08
vn 0.06540313 -0.9978589 7.450581E-09
vn 0.2588191 -0.9659258 2.980232E-08
vn 0.3826835 -0.9238795 5.960464E-08
vn 0.5000001 -0.8660254 5.960464E-08
vn 0.6087615 -0.7933533 5.960464E-08
vn 0.7071068 -0.7071068 5.960464E-08
vn 0.7933534 -0.6087614 1.192093E-07
vn 0.8660256 -0.5 1.192093E-07
vn 0.9238796 -0.3826834 1.192093E-07
vn 0.9659259 -0.258819 1.192093E-07
vn 0.991445 -0.1305262 1.192093E-07
vn 0.9978591 -0.06540313 1.192093E-07

vt -9.84252 19.68504
vt 9.84252 19.68504
vt -9.84252 -19.68504
vt 9.84252 -19.68504
vt 9.84252 18.3727
vt -9.84252 18.3727
vt 9.84252 22.30971
vt -9.84252 22.30971
vt 14.76378 14.4357
vt 14.76378 22.70341
vt 9.84252 22.70341
vt -14.76378 14.4357
vt -14.76378 22.70341
vt -9.84252 22.70341
vt -14.76378 2.599352E-13
vt 14.76378 2.226317E-13
vt -14.76378 -19.68504
vt -14.76378 19.68504
vt -19.68504 22.30971
vt -19.68504 22.70341
vt 19.68504 22.30971
vt 19.68504 22.70341
vt -19.68504 14.4357
vt -17.8008 14.3122
vt -15.94881 13.94381
vt -14.16074 13.33684
vt -12.46719 12.50168
vt -10.89714 11.45261
vt -9.477461 10.20758
vt -8.232432 8.787894
vt -7.18336 7.217848
vt -6.348196 5.524302
vt -5.741228 3.736233
vt -5.372843 1.884236
vt -5.249344 1.222748E-13
vt 19.68504 3.762939E-13
vt 14.76378 19.68504
vt 14.76378 -5.249344
vt -14.76378 -5.249344
vt 19.68504 14.4357
vt 17.8008 14.3122
vt 15.94881 13.94381
vt 14.16074 13.33684
vt 12.46719 12.50168
vt 10.89714 11.45261
vt 9.477461 10.20758
vt 8.232432 8.787894
vt 7.18336 7.217848
vt 6.348196 5.524302
vt 5.741228 3.736233
vt 5.372843 1.884236
vt 5.249344 3.477808E-13
vt -19.68504 -1.6381E-13
vt -14.76378 18.69875
vt -14.76378 20.58703
vt 14.76378 18.69875
vt 14.76378 20.58703
vt -14.76378 20.25094
vt 14.76378 20.25094
vt -14.76378 18.36266
vt 14.76378 18.36266
vt -14.76378 17.69622
vt -14.76378 19.5845
vt 14.76378 17.69622
vt 14.76378 19.5845
vt -14.76378 18.59912
vt 14.76378 18.59912
vt -14.76378 16.71084
vt 14.76378 16.71084
vt -14.76378 15.42337
vt -14.76378 17.31165
vt 14.76378 15.42337
vt 14.76378 17.31165
vt -14.76378 13.85586
vt -14.76378 15.74414
vt 14.76378 13.85586
vt 14.76378 15.74414
vt 14.76378 12.03511
vt -14.76378 12.03511
vt 14.76378 13.92339
vt -14.76378 13.92339
vt 14.76378 9.992282
vt -14.76378 9.992282
vt 14.76378 11.88056
vt -14.76378 11.88056
vt 14.76378 7.762331
vt -14.76378 7.762331
vt 14.76378 9.65061
vt -14.76378 9.65061
vt 14.76378 5.383409
vt -14.76378 5.383409
vt 14.76378 7.271688
vt -14.76378 7.271688
vt 14.76378 2.896221
vt -14.76378 2.896221
vt 14.76378 4.7845
vt -14.76378 4.7845
vt 14.76378 0.3433235
vt -14.76378 0.3433235
vt 14.76378 2.231603
vt -14.76378 2.231603
vt 14.76378 -19.68504

usemtl asphalt

f 3/3/1 2/2/1 1/1/1
f 2/2/1 3/3/1 4/4/1
f 1/7/2 6/6/2 5/5/2
f 6/6/2 1/7/2 2/8/2
f 4/7/3 8/6/3 7/5/3
f 8/6/3 4/7/3 3/8/3

usemtl pavement

f 10/10/3 7/5/3 9/9/3
f 7/5/3 10/10/3 4/7/3
f 4/7/3 10/10/3 11/11/3
f 8/6/3 9/9/3 7/5/3
f 8/6/3 12/12/3 9/9/3
f 12/12/3 8/6/3 13/13/3
f 13/13/3 8/6/3 3/8/3
f 13/13/3 3/8/3 14/14/3
f 16/16/2 5/5/2 15/15/2
f 5/5/2 16/16/2 17/10/2
f 5/5/2 17/10/2 1/7/2
f 1/7/2 17/10/2 18/11/2
f 6/6/2 15/15/2 5/5/2
f 15/15/2 6/6/2 19/13/2
f 19/13/2 6/6/2 2/8/2
f 19/13/2 2/8/2 20/14/2
f 14/3/1 17/18/1 13/17/1
f 17/18/1 14/3/1 18/1/1
f 1/21/4 14/20/4 3/19/4
f 14/20/4 1/21/4 18/22/4
f 21/24/4 10/20/4 9/23/4
f 10/20/4 21/24/4 19/22/4
f 19/22/4 21/24/4 22/25/4
f 19/22/4 22/25/4 23/26/4
f 19/22/4 23/26/4 24/27/4
f 19/22/4 24/27/4 25/28/4
f 19/22/4 25/28/4 26/29/4
f 19/22/4 26/29/4 27/30/4
f 19/22/4 27/30/4 28/31/4
f 19/22/4 28/31/4 29/32/4
f 19/22/4 29/32/4 30/33/4
f 19/22/4 30/33/4 31/34/4
f 19/22/4 31/34/4 32/35/4
f 19/22/4 32/35/4 15/36/4
f 20/20/5 4/21/5 11/22/5
f 4/21/5 20/20/5 2/19/5
f 15/18/6 33/38/6 16/37/6
f 33/38/6 15/18/6 32/39/6
f 17/20/5 12/40/5 13/22/5
f 12/40/5 17/20/5 34/41/5
f 34/41/5 17/20/5 35/42/5
f 35/42/5 17/20/5 36/43/5
f 36/43/5 17/20/5 37/44/5
f 37/44/5 17/20/5 38/45/5
f 38/45/5 17/20/5 39/46/5
f 39/46/5 17/20/5 40/47/5
f 40/47/5 17/20/5 41/48/5
f 41/48/5 17/20/5 42/49/5
f 42/49/5 17/20/5 43/50/5
f 43/50/5 17/20/5 44/51/5
f 44/51/5 17/20/5 33/52/5
f 33/52/5 17/20/5 16/53/5
f 21/56/7 12/55/8 34/54/7
f 12/55/8 21/56/7 9/57/8
f 35/60/9 21/59/7 34/58/7
f 21/59/7 35/60/9 22/61/9
f 23/64/10 35/63/9 36/62/10
f 35/63/9 23/64/10 22/65/9
f 37/68/11 23/67/10 36/66/10
f 23/67/10 37/68/11 24/69/11
f 25/72/12 37/71/11 38/70/12
f 37/71/11 25/72/12 24/73/11
f 26/76/13 38/75/12 39/74/13
f 38/75/12 26/76/13 25/77/12
f 26/80/13 40/79/14 27/78/14
f 40/79/14 26/80/13 39/81/13
f 27/84/14 41/83/15 28/82/15
f 41/83/15 27/84/14 40/85/14
f 28/88/15 42/87/16 29/86/16
f 42/87/16 28/88/15 41/89/15
f 29/92/16 43/91/17 30/90/17
f 43/91/17 29/92/16 42/93/16
f 30/96/17 44/95/18 31/94/18
f 44/95/18 30/96/17 43/97/17
f 31/100/18 33/99/19 32/98/19
f 33/99/19 31/100/18 44/101/18
f 11/4/1 19/37/1 20/2/1
f 19/37/1 11/4/1 10/102/1

