# Created by Kenney (www.kenney.nl)

mtllib tile219.mtl

g tile219

v -0.5 0.1 -0.25
v -0.5 0.2 -0.25
v -0.5 0.1 0.5
v -0.5 0.2 0.5
v 0.25 0.1 0.5
v 0.25 0.2 0.5
v 0.25 0.2 -0.25
v 0.25 0.5766667 -0.25
v -0.5 0.5766667 -0.25
v 0.5 0.5766667 0.5
v 0.25 0.5766667 0.5
v 0.5 0.5766667 -0.5
v -0.5 0.5766667 -0.5
v 0.5 2.255973E-16 -0.5
v -0.5 8.572698E-16 -0.5
v 0.5 0 0.5
v -0.5 8.121503E-16 0.5

vn -1 0 0
vn 0 0 1
vn 0 1 0
vn 0 0 -1
vn 1 0 0
vn 0 -1 0

vt -9.84252 3.937008
vt -9.84252 7.874016
vt 19.68504 3.937008
vt 19.68504 7.874016
vt 9.84252 3.937008
vt -19.68504 3.937008
vt 9.84252 7.874016
vt -19.68504 7.874016
vt -9.84252 19.68504
vt 19.68504 19.68504
vt -9.84252 -9.84252
vt 19.68504 -9.84252
vt 9.84252 22.70341
vt -19.68504 22.70341
vt -19.68504 19.68504
vt -19.68504 -19.68504
vt 19.68504 -19.68504
vt -9.84252 22.70341
vt 19.68504 22.70341
vt -19.68504 8.881784E-15
vt 19.68504 3.375078E-14
vt 19.68504 5.399561E-14
vt -19.68504 4.511382E-14
vt -19.68504 9.808347E-12
vt 19.68504 9.80657E-12
vt -19.68504 2.512711E-14
vt 19.68504 -6.847316E-15

usemtl asphalt

f 3/3/1 2/2/1 1/1/1
f 2/2/1 3/3/1 4/4/1
f 6/7/2 3/6/2 5/5/2
f 3/6/2 6/7/2 4/8/2
f 7/11/3 4/10/3 6/9/3
f 4/10/3 7/11/3 2/12/3

usemtl pavement

f 8/13/2 2/8/2 7/7/2
f 2/8/2 8/13/2 9/14/2
f 12/16/3 11/9/3 10/15/3
f 11/9/3 12/16/3 8/11/3
f 8/11/3 12/16/3 13/17/3
f 8/11/3 13/17/3 9/12/3
f 6/4/1 8/18/1 7/2/1
f 8/18/1 6/4/1 11/19/1
f 15/21/4 12/14/4 14/20/4
f 12/14/4 15/21/4 13/19/4
f 10/14/5 14/22/5 12/19/5
f 14/22/5 10/14/5 16/23/5
f 17/15/6 14/17/6 16/10/6
f 14/17/6 17/15/6 15/16/6
f 15/24/1 1/1/1 13/14/1
f 1/1/1 15/24/1 17/25/1
f 1/1/1 17/25/1 3/3/1
f 1/1/1 9/18/1 13/14/1
f 9/18/1 1/1/1 2/2/1
f 16/27/2 5/5/2 17/26/2
f 5/5/2 16/27/2 10/19/2
f 5/5/2 10/19/2 6/7/2
f 6/7/2 10/19/2 11/13/2
f 3/6/2 17/26/2 5/5/2

