# Created by Kenney (www.kenney.nl)

mtllib tile018.mtl

g tile018

v 0.5 0.2 -0.25
v 0.5 0.105 -0.25
v 0.5 0.2 0.25
v 0.5 0.105 0.25
v -0.4463968 0.105 -0.5
v 0.1343085 0.105 -0.5
v -0.4463968 0.2 -0.5
v 0.1343085 0.2 -0.5
v 0.1343085 0.105 0.5
v -0.4463968 0.105 0.5
v 0.1343085 0.2 0.5
v -0.4463968 0.2 0.5
v 0.2170869 0.2 -0.25
v 0.2170869 0.2 0.25
v 0.2074073 0.2 0.3235238
v 0.2074073 0.2 -0.3235238
v -0.3504809 0.2 -0.375
v -0.2755556 0.2 -0.1941143
v -0.25 0.2 -2.935129E-14
v -0.2755556 0.2 0.1941143
v -0.3504809 0.2 0.375
v 0.5 0.21 0.25
v 0.5 0.21 0.5
v 0.2170869 0.21 0.25
v 0.2074073 0.21 0.3235238
v 0.1343085 0.21 0.5
v -0.25 0.21 -2.935129E-14
v -0.2755556 0.21 0.1941143
v -0.2755556 0.21 -0.1941143
v -0.3504809 0.21 0.375
v -0.3504809 0.21 -0.375
v -0.4463968 0.21 -0.5
v -0.4463968 0.21 0.5
v -0.5 0.21 -0.5
v -0.5 0.21 0.5
v 0.5 0.21 -0.5
v 0.5 0.21 -0.25
v 0.1343085 0.21 -0.5
v 0.2074073 0.21 -0.3235238
v 0.2170869 0.21 -0.25
v -0.5 9.497647E-15 -0.5
v -0.5 2.0394E-14 0.5
v 0.5 0 -0.5
v 0.5 7.873347E-15 0.5

vn 3 0 2.092771E-13
vn 2.092771E-13 0 -3
vn -2.092771E-13 0 3
vn 0 1 0
vn -3 0 -2.092771E-13
vn 0 -1 0
vn -2.771638 0 1.14805
vn -2.897778 0 0.7764571
vn 2.38006 0 -1.826284
vn 2.598076 0 -1.5
vn 2.897778 0 -0.7764571
vn 2.897778 0 0.7764571
vn 2.598076 0 1.5
vn 2.38006 0 1.826284
vn -2.897778 0 -0.7764571
vn -2.771638 0 -1.14805
vn -2.974335 0 -0.3915786
vn -2.974335 0 0.3915786

vt 3.28084 7.874016
vt 3.28084 4.133858
vt -3.28084 7.874016
vt -3.28084 4.133858
vt 5.858226 4.133858
vt -1.762578 4.133858
vt 5.858226 7.874016
vt -1.762578 7.874016
vt 1.762578 4.133858
vt -5.858226 4.133858
vt 1.762578 7.874016
vt -5.858226 7.874016
vt -6.56168 -3.28084
vt -6.56168 3.28084
vt -2.848909 -3.28084
vt -2.848909 3.28084
vt -2.72188 4.245719
vt -2.72188 -4.245719
vt -1.762578 -6.56168
vt -1.762578 6.56168
vt 4.599487 -4.92126
vt 5.858226 -6.56168
vt 3.616216 -2.547431
vt 3.28084 1.712795E-13
vt 3.616216 2.547431
vt 4.599487 4.92126
vt 5.858226 6.56168
vt -6.56168 6.56168
vt 3.28084 1.486286E-13
vt 6.56168 -6.56168
vt 6.56168 6.56168
vt -6.56168 -6.56168
vt -6.56168 3.739231E-13
vt -6.56168 8.267716
vt 6.56168 8.029133E-13
vt 6.56168 8.267716
vt -6.56168 4.356673E-12
vt 6.56168 3.863734E-12
vt 1.762578 8.267716
vt -5.858226 8.267716
vt -3.28084 8.267716
vt -6.56168 -3.295486E-12
vt 6.56168 -3.60546E-12
vt 3.28084 8.267716
vt 6.56168 1.990587E-13
vt 5.858226 8.267716
vt -6.56168 -1.748644E-13
vt -1.762578 8.267716
vt -5.387692 7.874016
vt -5.387692 8.267716
vt -2.880915 7.874016
vt -2.880915 8.267716
vt 8.771993 8.267716
vt 8.771993 7.874016
vt 6.704288 8.267716
vt 6.704288 7.874016
vt 6.306799 8.267716
vt 6.306799 7.874016
vt 3.737386 8.267716
vt 3.737386 7.874016
vt 2.997649 8.267716
vt 2.997649 7.874016
vt 0.4282355 8.267716
vt 0.4282355 7.874016
vt -0.4282355 8.267716
vt -0.4282355 7.874016
vt -2.997649 8.267716
vt -2.997649 7.874016
vt -3.737386 8.267716
vt -3.737386 7.874016
vt -6.306799 8.267716
vt -6.306799 7.874016
vt -6.704288 8.267716
vt -6.704288 7.874016
vt -8.771993 8.267716
vt -8.771993 7.874016
vt 2.880915 7.874016
vt 2.880915 8.267716
vt 5.387692 7.874016
vt 5.387692 8.267716
vt 3.85412 7.874016
vt 3.85412 8.267716
vt -6.56168 7.874016
vt -2.848909 7.874016
vt -2.848909 8.267716
vt 6.56168 7.874016
vt 2.848909 7.874016
vt 2.848909 8.267716
vt -3.85412 7.874016
vt -3.85412 8.267716

usemtl asphalt

f 3/3/1 2/2/1 1/1/1
f 2/2/1 3/3/1 4/4/1
f 7/7/2 6/6/2 5/5/2
f 6/6/2 7/7/2 8/8/2
f 11/11/3 10/10/3 9/9/3
f 10/10/3 11/11/3 12/12/3
f 13/15/4 3/14/4 1/13/4
f 3/14/4 13/15/4 14/16/4
f 14/16/4 13/15/4 15/17/4
f 15/17/4 13/15/4 16/18/4
f 15/17/4 16/18/4 8/19/4
f 15/17/4 8/19/4 11/20/4
f 11/20/4 8/19/4 17/21/4
f 17/21/4 8/19/4 7/22/4
f 11/20/4 17/21/4 18/23/4
f 11/20/4 18/23/4 19/24/4
f 20/25/4 11/20/4 19/24/4
f 21/26/4 11/20/4 20/25/4
f 11/20/4 21/26/4 12/27/4

usemtl pavement

f 24/16/4 23/28/4 22/14/4
f 23/28/4 24/16/4 25/17/4
f 23/28/4 25/17/4 26/20/4
f 29/23/4 28/25/4 27/29/4
f 28/25/4 29/23/4 30/26/4
f 30/26/4 29/23/4 31/21/4
f 30/26/4 31/21/4 32/22/4
f 30/26/4 32/22/4 33/27/4
f 33/27/4 32/22/4 34/30/4
f 33/27/4 34/30/4 35/31/4
f 38/19/4 37/13/4 36/32/4
f 37/13/4 38/19/4 39/18/4
f 37/13/4 39/18/4 40/15/4
f 42/35/5 34/34/5 41/33/5
f 34/34/5 42/35/5 35/36/5
f 44/31/6 41/32/6 43/30/6
f 41/32/6 44/31/6 42/28/6
f 44/38/3 9/9/3 42/37/3
f 9/9/3 44/38/3 23/36/3
f 9/9/3 23/36/3 11/11/3
f 11/11/3 23/36/3 26/39/3
f 10/10/3 42/37/3 9/9/3
f 42/37/3 10/10/3 35/34/3
f 35/34/3 10/10/3 12/12/3
f 35/34/3 12/12/3 33/40/3
f 23/34/1 3/3/1 22/41/1
f 3/3/1 23/34/1 4/4/1
f 4/4/1 23/34/1 44/42/1
f 44/42/1 2/2/1 4/4/1
f 43/43/1 2/2/1 44/42/1
f 2/2/1 43/43/1 36/36/1
f 2/2/1 36/36/1 37/44/1
f 2/2/1 37/44/1 1/1/1
f 34/36/2 5/5/2 41/45/2
f 5/5/2 34/36/2 7/7/2
f 7/7/2 34/36/2 32/46/2
f 6/6/2 41/45/2 5/5/2
f 6/6/2 43/47/2 41/45/2
f 43/47/2 6/6/2 36/34/2
f 36/34/2 6/6/2 8/8/2
f 36/34/2 8/8/2 38/48/2
f 16/51/8 38/50/7 8/49/7
f 38/50/7 16/51/8 39/52/8
f 31/55/10 7/54/9 32/53/9
f 7/54/9 31/55/10 17/56/10
f 29/59/11 17/58/10 31/57/10
f 17/58/10 29/59/11 18/60/11
f 27/63/1 18/62/11 29/61/11
f 18/62/11 27/63/1 19/64/1
f 28/67/12 19/66/1 27/65/1
f 19/66/1 28/67/12 20/68/12
f 30/71/13 20/70/12 28/69/12
f 20/70/12 30/71/13 21/72/13
f 33/75/14 21/74/13 30/73/13
f 21/74/13 33/75/14 12/76/14
f 11/79/16 25/78/15 15/77/15
f 25/78/15 11/79/16 26/80/16
f 15/81/15 24/78/17 14/77/17
f 24/78/17 15/81/15 25/82/15
f 14/84/2 22/34/2 3/83/2
f 22/34/2 14/84/2 24/85/2
f 37/36/3 13/87/3 1/86/3
f 13/87/3 37/36/3 40/88/3
f 13/51/18 39/90/8 16/89/8
f 39/90/8 13/51/18 40/52/18

