# Created by Kenney (www.kenney.nl)

mtllib tile117.mtl

g tile117

v 0.5 0.2 0.25
v 0.5 0.21 0.25
v 0.2170869 0.2 0.25
v 0.2170869 0.21 0.25
v 0.3025666 0.21 0.375
v 0.3025666 1.920284E-13 0.375
v 0.2507899 0.21 0.5
v 0.2507899 1.898627E-13 0.5
v -0.25 0.21 -1.501576E-12
v -0.25 0.2 -1.501576E-12
v -0.2755556 0.21 0.1941143
v -0.2755556 0.2 0.1941143
v 0.5 0.2 -0.25
v 0.2170869 0.2 -0.25
v 0.5 0.21 -0.25
v 0.2170869 0.21 -0.25
v 0.5 0.21 0.375
v 0.5 0.09166667 0.25
v 0.5 1.825233E-13 0.375
v 0.5 0.09166667 -0.25
v 0.5 1.214616E-13 -0.375
v 0.5 0.21 -0.375
v 0.3025666 0 -0.375
v 0.3025666 0.21 -0.375
v -0.2755556 0.21 -0.1941143
v -0.2755556 0.2 -0.1941143
v -0.3504809 0.21 0.375
v -0.3504809 0.2 0.375
v -0.5 3.492848E-13 0.3662787
v -0.5 0.21 0.3662787
v -0.5 1.670022E-13 0.5
v -0.5 0.21 0.5
v 0.2074073 0.2 0.3235238
v 0.2074073 0.21 0.3235238
v -0.4463968 0.21 0.5
v -0.4463968 0.2 0.5
v 0.1343084 0.21 0.5
v -0.3504809 0.21 -0.375
v -0.375 0.21 -5.775291E-13
v -0.3962964 0.21 -0.1617619
v -0.4463968 0.21 -0.5
v -0.4587341 0.21 -0.3125
v -0.5 0.21 -0.5
v -0.5 0.21 -0.3662787
v -0.3962964 0.21 0.1617619
v -0.4587341 0.21 0.3125
v 0.2074073 0.2 -0.3235238
v 0.2074073 0.21 -0.3235238
v 0.2507899 3.466378E-13 -0.5
v -0.3962964 1.067827E-13 0.1617619
v -0.375 1.069031E-13 -5.775291E-13
v -0.4587341 1.069031E-13 0.3125
v -0.3962964 1.075046E-13 -0.1617619
v -0.5 1.766277E-13 -0.5
v -0.4587341 1.083469E-13 -0.3125
v -0.5 1.085875E-13 -0.3662787
v -0.4463968 0.105 -0.5
v -0.4463968 0.2 -0.5
v 0.1343085 0.105 -0.5
v 0.2507899 0.21 -0.5
v 0.1343085 0.2 -0.5
v 0.1343085 0.21 -0.5
v 0.1343084 0.105 0.5
v 0.1343084 0.2 0.5
v -0.4463968 0.105 0.5
v -0.3504809 0.2 -0.375

vn 0 0 -0.3333333
vn 0.3079599 0 0.1275612
vn 0.3333333 0 0
vn 0.3219753 0 0.08627301
vn 0 0 0.3333333
vn 0.3219753 0 -0.08627301
vn 0.2886752 0 0.1666667
vn -0.3333333 0 0
vn -0.3304816 0 -0.04350873
vn -0.3219753 0 -0.08627304
vn 0.2644511 0 0.2029205
vn 0 0.3333333 0
vn -0.3219753 0 0.08627301
vn -0.3304816 0 0.04350873
vn 0 -0.3333333 0
vn -0.3219753 0 -0.08627301
vn -0.2886752 0 -0.1666667
vn -0.2886752 0 0.1666667
vn -0.2644511 0 -0.2029205
vn 0.3079599 0 -0.1275612
vn 0.2644511 0 -0.2029205
vn 0.2886752 0 -0.1666667
vn -0.3079599 0 0.1275612
vn -0.2644511 0 0.2029205
vn -0.3079599 0 -0.1275612

vt -59.05512 23.62205
vt -59.05512 24.80315
vt -25.64018 23.62205
vt -25.64018 24.80315
vt -27.2442 24.80315
vt -27.2442 2.500821E-11
vt -43.2244 24.80315
vt -43.2244 2.475241E-11
vt -3.85412 24.80315
vt -3.85412 23.62205
vt -26.97884 24.80315
vt -26.97884 23.62205
vt 59.05512 23.62205
vt 25.64019 23.62205
vt 59.05512 24.80315
vt 25.64019 24.80315
vt -29.52756 24.80315
vt -29.52756 23.62205
vt -44.29134 24.80315
vt -29.52756 10.82677
vt -44.29134 -3.70098E-07
vt 29.52756 10.82677
vt 44.29134 -3.701052E-07
vt 29.52756 24.80315
vt 44.29134 24.80315
vt 29.52756 23.62205
vt -35.73621 -1.624098E-12
vt -59.05512 1.272176E-11
vt -35.73621 24.80315
vt 59.05512 2.155787E-11
vt 35.73621 2.268052E-11
vt 35.73621 24.80315
vt 26.97884 24.80315
vt 26.97884 23.62205
vt 3.85412 24.80315
vt 3.85412 23.62205
vt -33.63647 24.80315
vt -33.63647 23.62205
vt -56.76119 24.80315
vt -56.76119 23.62205
vt 43.26127 4.125411E-11
vt 43.26127 24.80315
vt 59.05512 1.972467E-11
vt 25.92823 23.62205
vt 25.92823 24.80315
vt 34.68708 23.62205
vt 34.68708 24.80315
vt -60.3386 24.80315
vt -60.3386 23.62205
vt -78.94794 24.80315
vt -78.94794 23.62205
vt -59.05512 29.52756
vt -59.05512 44.29134
vt -25.64018 29.52756
vt -35.73621 44.29134
vt -29.62086 59.05512
vt -24.49692 38.21147
vt -15.8632 59.05512
vt 29.52756 -1.777243E-10
vt 32.54594 22.92688
vt 32.54594 -22.92688
vt 41.39539 -44.29134
vt 41.39539 44.29134
vt 44.29134 -6.858497E-11
vt 46.80666 -19.10574
vt 52.72403 -59.05512
vt 54.18119 -36.90945
vt 59.05512 -59.05512
vt 59.05512 -43.26127
vt 46.80666 19.10574
vt 52.72404 59.05512
vt 54.18119 36.90945
vt 59.05512 59.05512
vt 59.05512 43.26127
vt -34.68708 23.62205
vt -34.68708 24.80315
vt -25.92823 23.62205
vt -25.92823 24.80315
vt 59.05512 -44.29134
vt 35.73621 -44.29134
vt 59.05512 44.29134
vt 35.73621 44.29134
vt 29.62086 59.05512
vt 29.62086 -59.05512
vt -59.05512 59.05512
vt -46.80666 19.10574
vt -44.29134 -6.82121E-11
vt -54.18119 36.90945
vt -59.05512 43.26127
vt -46.80666 -19.10574
vt -59.05512 -59.05512
vt -54.18119 -36.90945
vt -59.05512 -43.26127
vt 5.78118 1.056692E-11
vt 5.78118 24.80315
vt 25.05178 1.055271E-11
vt 25.05178 24.80315
vt 35.56353 1.102547E-11
vt 35.56353 24.80315
vt 54.83413 1.103968E-11
vt 54.83413 24.80315
vt -25.05178 1.065794E-11
vt -25.05178 24.80315
vt -5.78118 1.058688E-11
vt -5.78118 24.80315
vt -54.83413 1.12581E-11
vt -54.83413 24.80315
vt -35.56353 1.115863E-11
vt -35.56353 24.80315
vt 62.26566 1.209371E-11
vt 62.26566 24.80315
vt 70.27195 4.072148E-11
vt 70.27195 24.80315
vt -29.62086 3.476538E-11
vt 52.72403 12.40158
vt 59.05512 1.468544E-11
vt 52.72403 23.62205
vt 52.72403 24.80315
vt -15.8632 12.40158
vt -29.62086 24.80315
vt -15.8632 23.62205
vt -15.8632 24.80315
vt 29.62086 9.961319E-11
vt 15.8632 12.40158
vt 29.62086 24.80315
vt 15.8632 23.62205
vt 15.8632 24.80315
vt -52.72404 12.40158
vt -59.05512 9.691313E-11
vt -52.72404 23.62205
vt -52.72404 24.80315
vt -59.05512 -44.29134
vt -59.05512 -29.52756
vt -35.73621 -44.29134
vt -25.64018 -29.52756
vt -29.62086 -59.05512
vt -24.49692 -38.21147
vt -15.8632 -59.05512
vt -59.05512 2.059085E-11
vt -43.26127 1.255461E-11
vt -43.26127 24.80315
vt 43.2244 24.80315
vt 43.2244 3.960591E-11
vt 27.24421 24.80315
vt 27.24421 -1.335563E-12
vt 78.94794 24.80315
vt 78.94794 23.62205
vt 60.3386 24.80315
vt 60.3386 23.62205
vt -48.48923 23.62205
vt -48.48923 24.80315
vt -25.92823 23.62205
vt -25.92823 24.80315
vt 56.76119 24.80315
vt 56.76119 23.62205
vt 33.63647 24.80315
vt 33.63647 23.62205
vt -70.27195 1.267608E-11
vt -70.27195 24.80315
vt -62.26566 1.264766E-11
vt -62.26566 24.80315
vt 25.92823 23.62205
vt 25.92823 24.80315
vt 48.48923 23.62205
vt 48.48923 24.80315
vt 29.52756 -1.779704E-10

usemtl pavement

f 3/3/1 2/2/1 1/1/1
f 2/2/1 3/3/1 4/4/1
f 7/7/2 6/6/2 5/5/2
f 6/6/2 7/7/2 8/8/2
f 11/11/4 10/10/3 9/9/3
f 10/10/3 11/11/4 12/12/4
f 15/15/5 14/14/5 13/13/5
f 14/14/5 15/15/5 16/16/5
f 17/19/3 1/18/3 2/17/3
f 1/18/3 17/19/3 18/20/3
f 19/21/3 18/20/3 17/19/3
f 19/21/3 20/22/3 18/20/3
f 21/23/3 20/22/3 19/21/3
f 21/23/3 15/24/3 20/22/3
f 15/24/3 21/23/3 22/25/3
f 20/22/3 15/24/3 13/26/3
f 24/29/1 21/28/1 23/27/1
f 21/28/1 24/29/1 22/2/1
f 17/15/5 6/31/5 19/30/5
f 6/31/5 17/15/5 5/32/5
f 9/35/3 26/34/6 25/33/6
f 26/34/6 9/35/3 10/36/3
f 27/39/7 12/38/4 11/37/4
f 12/38/4 27/39/7 28/40/7
f 31/43/8 30/42/8 29/41/8
f 30/42/8 31/43/8 32/15/8
f 33/46/10 4/45/9 3/44/9
f 4/45/9 33/46/10 34/47/10
f 35/50/11 28/49/7 27/48/7
f 28/49/7 35/50/11 36/51/11
f 4/54/12 17/53/12 2/52/12
f 17/53/12 4/54/12 5/55/12
f 5/55/12 4/54/12 7/56/12
f 7/56/12 4/54/12 34/57/12
f 7/56/12 34/57/12 37/58/12
f 25/61/12 11/60/12 9/59/12
f 11/60/12 25/61/12 38/62/12
f 11/60/12 38/62/12 27/63/12
f 27/63/12 38/62/12 39/64/12
f 39/64/12 38/62/12 40/65/12
f 40/65/12 38/62/12 41/66/12
f 40/65/12 41/66/12 42/67/12
f 42/67/12 41/66/12 43/68/12
f 42/67/12 43/68/12 44/69/12
f 45/70/12 27/63/12 39/64/12
f 27/63/12 45/70/12 35/71/12
f 35/71/12 45/70/12 46/72/12
f 35/71/12 46/72/12 32/73/12
f 32/73/12 46/72/12 30/74/12
f 14/77/14 48/76/13 47/75/13
f 48/76/13 14/77/14 16/78/14
f 19/81/15 23/80/15 21/79/15
f 23/80/15 19/81/15 6/82/15
f 23/80/15 6/82/15 8/83/15
f 23/80/15 8/83/15 49/84/15
f 49/84/15 8/83/15 31/85/15
f 49/84/15 31/85/15 50/86/15
f 49/84/15 50/86/15 51/87/15
f 50/86/15 31/85/15 52/88/15
f 52/88/15 31/85/15 29/89/15
f 53/90/15 49/84/15 51/87/15
f 49/84/15 53/90/15 54/91/15
f 54/91/15 53/90/15 55/92/15
f 54/91/15 55/92/15 56/93/15
f 50/96/16 39/95/8 51/94/8
f 39/95/8 50/96/16 45/97/16
f 52/100/17 45/99/16 50/98/16
f 45/99/16 52/100/17 46/101/17
f 51/104/8 40/103/13 53/102/13
f 40/103/13 51/104/8 39/105/8
f 53/108/13 42/107/18 55/106/18
f 42/107/18 53/108/13 40/109/13
f 29/112/19 46/111/17 52/110/17
f 46/111/17 29/112/19 30/113/19
f 54/116/1 57/115/1 49/114/1
f 57/115/1 54/116/1 43/15/1
f 57/115/1 43/15/1 58/117/1
f 58/117/1 43/15/1 41/118/1
f 59/119/1 49/114/1 57/115/1
f 49/114/1 59/119/1 60/120/1
f 60/120/1 59/119/1 61/121/1
f 60/120/1 61/121/1 62/122/1
f 7/125/5 63/124/5 8/123/5
f 63/124/5 7/125/5 64/126/5
f 64/126/5 7/125/5 37/127/5
f 65/128/5 8/123/5 63/124/5
f 65/128/5 31/129/5 8/123/5
f 31/129/5 65/128/5 32/2/5
f 32/2/5 65/128/5 36/130/5
f 32/2/5 36/130/5 35/131/5
f 24/134/12 15/133/12 22/132/12
f 15/133/12 24/134/12 16/135/12
f 16/135/12 24/134/12 60/136/12
f 16/135/12 60/136/12 48/137/12
f 48/137/12 60/136/12 62/138/12
f 56/140/8 43/2/8 54/139/8
f 43/2/8 56/140/8 44/141/8
f 24/144/20 49/143/20 60/142/20
f 49/143/20 24/144/20 23/145/20
f 38/148/22 58/147/21 41/146/21
f 58/147/21 38/148/22 66/149/22
f 47/152/13 62/151/23 61/150/23
f 62/151/23 47/152/13 48/153/13
f 25/156/6 66/155/22 38/154/22
f 66/155/22 25/156/6 26/157/6
f 55/160/18 44/159/24 56/158/24
f 44/159/24 55/160/18 42/161/18
f 64/164/25 34/163/10 33/162/10
f 34/163/10 64/164/25 37/165/25

usemtl asphalt

f 64/126/5 65/128/5 63/124/5
f 65/128/5 64/126/5 36/130/5
f 14/135/12 1/52/12 13/133/12
f 1/52/12 14/135/12 3/54/12
f 3/54/12 14/135/12 47/137/12
f 3/54/12 47/137/12 33/57/12
f 33/57/12 47/137/12 61/138/12
f 33/57/12 61/138/12 64/58/12
f 64/58/12 61/138/12 66/62/12
f 66/62/12 61/138/12 58/66/12
f 64/58/12 66/62/12 26/61/12
f 64/58/12 26/61/12 10/166/12
f 12/60/12 64/58/12 10/166/12
f 28/63/12 64/58/12 12/60/12
f 64/58/12 28/63/12 36/71/12
f 1/18/3 20/22/3 13/26/3
f 20/22/3 1/18/3 18/20/3
f 58/117/1 59/119/1 57/115/1
f 59/119/1 58/117/1 61/121/1

