# Created by Kenney (www.kenney.nl)

mtllib tile292.mtl

g tile292

v 0.5000001 0.5766667 -0.4999999
v -0.5 0.21 -0.5000001
v 0.5000001 0 -0.4999999
v -0.5 0 -0.5000001
v 0.5 0.5766667 0.5000001
v 0.5 0 0.5000001
v -0.5000001 0.21 0.4999999
v -0.5000001 0 0.4999999
v 0.5000001 0.5566667 -0.1874999
v 0.5000001 0.5766667 -0.1874999
v 0.5000001 0.5566667 -0.1249999
v 0.5 0.5566667 0.1875001
v 0.5000001 0.5566667 0.1250001
v 0.5000001 0.5766667 -0.1249999
v 0.5000001 0.5766667 0.1250001
v 0.5 0.5766667 0.1875001
v -0.5000001 0.19 0.1874999
v -0.5000001 0.19 -0.1250001
v -0.5000001 0.21 0.1874999
v -0.5000001 0.19 0.1249999
v -0.5000001 0.21 -0.1250001
v -0.5000001 0.21 0.1249999
v -0.5 0.19 -0.1875001
v -0.5 0.21 -0.1875001

vn 1.192093E-07 0 -1
vn -1.192093E-07 0 1
vn 1 0 1.192093E-07
vn -1 0 -1.192093E-07
vn -0.3442546 0.9388763 -2.980232E-08
vn 0 -1 0

vt -19.68504 22.70341
vt 19.68504 8.267716
vt -19.68504 1.305463E-13
vt 19.68504 1.305463E-13
vt 19.68504 22.70341
vt 19.68504 -1.305463E-13
vt -19.68504 8.267716
vt -19.68504 -1.305463E-13
vt 19.68504 -3.275356E-14
vt -19.68504 -3.275356E-14
vt 7.38189 21.91601
vt 7.38189 22.70341
vt 4.92126 21.91601
vt -7.38189 21.91601
vt -4.92126 21.91601
vt 4.92126 22.70341
vt -4.92126 22.70341
vt -7.38189 22.70341
vt 19.68504 -6.245724E-13
vt -19.68504 -6.245724E-13
vt 7.38189 7.480315
vt -4.921261 7.480315
vt 7.38189 8.267716
vt 4.921259 7.480315
vt -4.921261 8.267716
vt 4.921259 8.267716
vt -7.38189 7.480315
vt -7.38189 8.267716
vt -7.38189 -15.63562
vt -19.68504 -15.63562
vt -7.38189 26.29757
vt -19.68504 26.29757
vt 19.68504 19.68504
vt 19.68504 -19.68504
vt -19.68504 19.68504
vt -19.68504 -19.68504
vt 4.92126 26.29757
vt 4.921259 -15.63562
vt -4.92126 26.29757
vt -4.921261 -15.63562
vt 19.68504 26.29757
vt 19.68504 -15.63562
vt 7.38189 26.29757
vt 7.38189 -15.63562
vt -19.68504 21.91601
vt 19.68504 7.480315
vt 19.68504 21.91601
vt -19.68504 7.480315
vt 7.38189 -15.90668
vt 4.921259 -15.90668
vt 7.38189 26.02651
vt 4.92126 26.02651
vt -4.92126 26.02651
vt -4.921261 -15.90668
vt -7.38189 26.02651
vt -7.38189 -15.90668

usemtl pavement

f 3/3/1 2/2/1 1/1/1
f 2/2/1 3/3/1 4/4/1
f 7/7/2 6/6/2 5/5/2
f 6/6/2 7/7/2 8/8/2
f 1/5/3 6/10/3 3/9/3
f 6/10/3 1/5/3 9/11/3
f 9/11/3 1/5/3 10/12/3
f 11/13/3 6/10/3 9/11/3
f 12/14/3 6/10/3 11/13/3
f 6/10/3 12/14/3 5/1/3
f 12/14/3 11/13/3 13/15/3
f 14/16/3 13/15/3 11/13/3
f 13/15/3 14/16/3 15/17/3
f 5/1/3 12/14/3 16/18/3
f 7/2/4 4/20/4 8/19/4
f 4/20/4 7/2/4 17/21/4
f 4/20/4 17/21/4 18/22/4
f 17/21/4 7/2/4 19/23/4
f 20/24/4 18/22/4 17/21/4
f 18/22/4 20/24/4 21/25/4
f 21/25/4 20/24/4 22/26/4
f 23/27/4 4/20/4 18/22/4
f 4/20/4 23/27/4 2/7/4
f 2/7/4 23/27/4 24/28/4
f 10/31/5 2/30/5 24/29/5
f 2/30/5 10/31/5 1/32/5
f 4/35/6 6/34/6 8/33/6
f 6/34/6 4/35/6 3/36/6
f 14/39/5 22/38/5 15/37/5
f 22/38/5 14/39/5 21/40/5
f 16/43/5 7/42/5 5/41/5
f 7/42/5 16/43/5 19/44/5

usemtl metal

f 17/46/1 16/1/1 12/45/1
f 16/1/1 17/46/1 19/2/1
f 22/7/2 13/47/2 15/5/2
f 13/47/2 22/7/2 20/48/2
f 12/51/5 20/50/5 17/49/5
f 20/50/5 12/51/5 13/52/5
f 18/46/1 14/1/1 11/45/1
f 14/1/1 18/46/1 21/2/1
f 24/7/2 9/47/2 10/5/2
f 9/47/2 24/7/2 23/48/2
f 9/55/5 18/54/5 11/53/5
f 18/54/5 9/55/5 23/56/5

