# Created by Kenney (www.kenney.nl)

mtllib tile071.mtl

g tile071

v -0.5000001 0.2 0.2499999
v -0.5 0.2 -0.2500001
v 0.5 0.5666667 0.2500001
v 0.5000001 0.5666667 -0.2499999
v 0.5000001 0.4666667 -0.2499999
v 0.5 0.4666667 0.2500001
v -0.5000001 0.1 0.2499999
v -0.5 0.1 -0.2500001
v -0.5000001 1.191154E-14 0.375
v -0.5000001 0.1833333 0.375
v -0.5000001 1.434799E-14 0.4999999
v -0.5000001 0.1833333 0.4999999
v 0.5000001 0.55 -0.4999999
v -0.5 0.1833333 -0.5000001
v 0.5000001 0 -0.4999999
v -0.5 1.150546E-14 -0.5000001
v 0.5 1.434799E-14 0.5000001
v 0.5 1.254321E-14 0.3750001
v -0.5 1.191154E-14 -0.3750001
v 0.5000001 1.804779E-15 -0.375
v 0.5000001 0.55 -0.375
v 0.5 0.55 0.5000001
v 0.5 0.55 0.3750001
v -0.5 0.1833333 -0.3750001
v 0.5 0.5766667 0.2500001
v -0.5000001 0.21 0.2499999
v -0.5 0.21 -0.2500001
v -0.5 0.21 -0.3750001
v 0.5000001 0.5766667 -0.2499999
v 0.5000001 0.5766667 -0.375
v 0.5 0.5766667 0.3750001
v -0.5000001 0.21 0.375

vn -0.3442546 0.9388763 -2.980232E-08
vn 1 0 1.192093E-07
vn -1 0 -1.192093E-07
vn 1.192093E-07 0 -1
vn 0 -1 0
vn -1.192093E-07 0 1

vt 9.84252 -15.77115
vt -9.84252 -15.77115
vt 9.84252 26.16204
vt -9.84252 26.16204
vt 9.84252 18.3727
vt -9.84252 18.3727
vt 9.84252 22.30971
vt -9.84252 22.30971
vt 9.84252 3.937008
vt -9.84252 3.937008
vt 9.84252 7.874016
vt -9.84252 7.874016
vt 14.76378 1.631665E-12
vt 14.76378 7.217848
vt 19.68504 1.727588E-12
vt 19.68504 7.217848
vt -19.68504 21.65354
vt -19.68504 2.48044E-13
vt 19.68504 7.01015E-13
vt 19.68504 19.68504
vt 19.68504 -19.68504
vt 14.76378 19.68504
vt 14.76378 -19.68504
vt -14.76378 19.68504
vt -14.76378 -19.68504
vt -19.68504 19.68504
vt -19.68504 -19.68504
vt 19.68504 2.411539E-13
vt 14.76378 3.122082E-13
vt 19.68504 21.65354
vt 14.76378 21.65354
vt 19.68504 5.546529E-11
vt -19.68504 5.546529E-11
vt -19.68504 7.217848
vt 19.68504 -15.99704
vt 14.76378 -15.99704
vt 19.68504 25.93615
vt 14.76378 25.93615
vt -14.76378 25.93615
vt -14.76378 -15.99704
vt -19.68504 25.93615
vt -19.68504 -15.99704
vt -19.68504 7.63026E-13
vt -14.76378 7.790132E-13
vt -14.76378 7.217848
vt -14.76378 2.871239E-13
vt -19.68504 3.581781E-13
vt -14.76378 21.65354
vt -19.68504 22.30971
vt -19.68504 22.70341
vt 19.68504 7.874016
vt 19.68504 8.267716
vt -9.84252 -15.63562
vt -14.76378 -15.63562
vt -9.84252 26.29757
vt -14.76378 26.29757
vt 19.68504 22.70341
vt 19.68504 22.30971
vt -19.68504 8.267716
vt -19.68504 7.874016
vt 14.76378 26.29757
vt 14.76378 -15.63562
vt 9.84252 26.29757
vt 9.84252 -15.63562
vt 14.76378 8.267716
vt 9.84252 8.267716
vt -14.76378 8.267716
vt -9.84252 8.267716
vt 14.76378 22.70341
vt 9.84252 22.70341
vt -14.76378 22.70341
vt -9.84252 22.70341

usemtl asphalt

f 3/3/1 2/2/1 1/1/1
f 2/2/1 3/3/1 4/4/1
f 4/7/2 6/6/2 5/5/2
f 6/6/2 4/7/2 3/8/2
f 1/11/3 8/10/3 7/9/3
f 8/10/3 1/11/3 2/12/3

usemtl grass

f 11/15/3 10/14/3 9/13/3
f 10/14/3 11/15/3 12/16/3
f 15/18/4 14/16/4 13/17/4
f 14/16/4 15/18/4 16/19/4
f 9/22/5 17/21/5 11/20/5
f 17/21/5 9/22/5 18/23/5
f 18/23/5 9/22/5 19/24/5
f 18/23/5 19/24/5 20/25/5
f 20/25/5 19/24/5 16/26/5
f 20/25/5 16/26/5 15/27/5
f 13/30/2 20/29/2 15/28/2
f 20/29/2 13/30/2 21/31/2
f 22/30/6 11/33/6 17/32/6
f 11/33/6 22/30/6 12/34/6
f 22/37/1 10/36/1 12/35/1
f 10/36/1 22/37/1 23/38/1
f 13/41/1 24/40/1 21/39/1
f 24/40/1 13/41/1 14/42/1
f 19/44/3 14/34/3 16/43/3
f 14/34/3 19/44/3 24/45/3
f 23/48/2 17/47/2 18/46/2
f 17/47/2 23/48/2 22/17/2

usemtl pavement

f 1/51/4 25/50/4 3/49/4
f 25/50/4 1/51/4 26/52/4
f 29/55/1 28/54/1 27/53/1
f 28/54/1 29/55/1 30/56/1
f 27/59/6 4/58/6 29/57/6
f 4/58/6 27/59/6 2/60/6
f 25/63/1 32/62/1 31/61/1
f 32/62/1 25/63/1 26/64/1
f 32/59/6 23/30/6 31/57/6
f 23/30/6 32/59/6 10/34/6
f 24/16/4 30/50/4 21/17/4
f 30/50/4 24/16/4 28/52/4
f 9/13/3 7/9/3 19/44/3
f 7/9/3 9/13/3 10/14/3
f 7/9/3 10/14/3 1/11/3
f 1/11/3 10/14/3 32/65/3
f 1/11/3 32/65/3 26/66/3
f 8/10/3 19/44/3 7/9/3
f 19/44/3 8/10/3 24/45/3
f 24/45/3 8/10/3 2/12/3
f 24/45/3 2/12/3 28/67/3
f 28/67/3 2/12/3 27/68/3
f 21/31/2 18/46/2 20/29/2
f 18/46/2 21/31/2 5/5/2
f 5/5/2 21/31/2 4/7/2
f 4/7/2 21/31/2 30/69/2
f 4/7/2 30/69/2 29/70/2
f 6/6/2 18/46/2 5/5/2
f 18/46/2 6/6/2 23/48/2
f 23/48/2 6/6/2 3/8/2
f 23/48/2 3/8/2 31/71/2
f 31/71/2 3/8/2 25/72/2

