# Created by Kenney (www.kenney.nl)

mtllib tile006.mtl

g tile006

v -0.5 0.1 -0.25
v -0.5 0.2 -0.25
v -0.5 0.1 0.5
v -0.5 0.2 0.5
v 0.25 0.1 0.5
v 0.25 0.2 0.5
v 0.25 0.2 -0.25
v 0.25 0.21 -0.25
v -0.5 0.21 -0.25
v 0.5 0.21 -0.5
v -0.5 0.21 -0.5
v 0.25 0.21 0.5
v 0.5 0.21 0.5
v 0.5 2.030376E-16 -0.5
v -0.5 8.3471E-16 -0.5
v 0.5 0 0.5
v -0.5 7.895906E-16 0.5

vn -1 0 0
vn 0 0 1
vn 0 1 0
vn 0 0 -1
vn 1 0 0
vn 0 -1 0

vt -9.84252 3.937008
vt -9.84252 7.874016
vt 19.68504 3.937008
vt 19.68504 7.874016
vt 9.84252 3.937008
vt -19.68504 3.937008
vt 9.84252 7.874016
vt -19.68504 7.874016
vt -9.84252 -9.84252
vt -9.84252 19.68504
vt 19.68504 -9.84252
vt 19.68504 19.68504
vt 9.84252 8.267716
vt -19.68504 8.267716
vt -19.68504 -19.68504
vt 19.68504 -19.68504
vt -19.68504 19.68504
vt -9.84252 8.267716
vt 19.68504 8.267716
vt -19.68504 7.993606E-15
vt 19.68504 3.28626E-14
vt 19.68504 5.310743E-14
vt -19.68504 4.511382E-14
vt -19.68504 9.807459E-12
vt 19.68504 9.805682E-12
vt -19.68504 2.423893E-14
vt 19.68504 -6.847316E-15

usemtl asphalt

f 3/3/1 2/2/1 1/1/1
f 2/2/1 3/3/1 4/4/1
f 6/7/2 3/6/2 5/5/2
f 3/6/2 6/7/2 4/8/2
f 2/11/3 6/10/3 7/9/3
f 6/10/3 2/11/3 4/12/3

usemtl pavement

f 8/13/2 2/8/2 7/7/2
f 2/8/2 8/13/2 9/14/2
f 11/16/3 8/9/3 10/15/3
f 8/9/3 11/16/3 9/11/3
f 12/10/3 10/15/3 8/9/3
f 10/15/3 12/10/3 13/17/3
f 6/4/1 8/18/1 7/2/1
f 8/18/1 6/4/1 12/19/1
f 15/21/4 10/14/4 14/20/4
f 10/14/4 15/21/4 11/19/4
f 13/14/5 14/22/5 10/19/5
f 14/22/5 13/14/5 16/23/5
f 17/17/6 14/16/6 16/12/6
f 14/16/6 17/17/6 15/15/6
f 15/24/1 1/1/1 11/14/1
f 1/1/1 15/24/1 17/25/1
f 1/1/1 17/25/1 3/3/1
f 1/1/1 9/18/1 11/14/1
f 9/18/1 1/1/1 2/2/1
f 16/27/2 5/5/2 17/26/2
f 5/5/2 16/27/2 13/19/2
f 5/5/2 13/19/2 6/7/2
f 6/7/2 13/19/2 12/13/2
f 3/6/2 17/26/2 5/5/2

