# Created by Kenney (www.kenney.nl)

mtllib tile212.mtl

g tile212

v 0.2500001 0.4666667 -0.5
v 0.2500001 0.5666666 -0.5
v -0.25 0.4666667 -0.5000001
v -0.25 0.5666666 -0.5000001
v -0.5000001 0.2 0.2499999
v -0.5 0.2 -0.2500001
v 0.5 0.2 0.2500001
v 0.5000001 0.2 -0.2499999
v 0.5000001 0.1 -0.2499999
v 0.5 0.1 0.2500001
v -0.5000001 0.1 0.2499999
v -0.5 0.1 -0.2500001
v 0.25 0.5666667 0.5000001
v -0.2500001 0.5666667 0.5
v 0.25 0.4666667 0.5000001
v -0.2500001 0.4666667 0.5
v -0.3750001 0.55 0.5
v -0.3750001 0.3666666 0.5
v -0.5000001 0.55 0.4999999
v -0.5000001 0 0.4999999
v 0.375 0.3666666 0.5000001
v 0.5 0 0.5000001
v 0.375 0.55 0.5000001
v 0.5 0.55 0.5000001
v 0.5000001 0 -0.4999999
v 0.5000001 0 -0.375
v 0.5000001 0.55 -0.4999999
v 0.5000001 0.55 -0.375
v -0.5000001 0 0.375
v -0.5000001 0.55 0.375
v -0.375 0.55 -0.3750001
v -0.5 0.55 -0.3750001
v -0.375 0.55 -0.5000001
v -0.5 0.55 -0.5000001
v 0.5 0 0.3750001
v -0.5 0 -0.3750001
v -0.5 0 -0.5000001
v 0.5 0.55 0.3750001
v 0.375 0.55 0.3750001
v 0.3750001 0.3666666 -0.5
v -0.375 0.3666666 -0.5000001
v 0.3750001 0.55 -0.5
v -0.3750001 0.55 0.375
v 0.3750001 0.55 -0.375
v 0.5000001 0.5766667 -0.2499999
v 0.375 0.4666667 -0.25
v 0.375 0.5766667 -0.25
v -0.375 0.4666667 -0.2500001
v -0.5 0.5766667 -0.2500001
v -0.375 0.5766667 -0.2500001
v 0.5000001 0.5766667 -0.375
v 0.5 0.5766667 0.2500001
v 0.5 0.5766667 0.3750001
v -0.5000001 0.5766667 0.2499999
v -0.5000001 0.5766667 0.375
v -0.5 0.5766667 -0.3750001
v -0.25 0.5766666 -0.5000001
v -0.2500001 0.5766667 0.5
v -0.3750001 0.5766667 0.5
v -0.3750001 0.5766667 0.375
v -0.3750001 0.5766667 0.2499999
v -0.375 0.5766666 -0.3750001
v -0.375 0.5766666 -0.5000001
v 0.375 0.5766667 0.3750001
v 0.375 0.5766667 0.2500001
v 0.2500001 0.5766666 -0.5
v 0.25 0.5766667 0.5000001
v 0.375 0.5766667 0.5000001
v 0.3750001 0.5766666 -0.375
v 0.3750001 0.5766666 -0.5
v 0.375 0.4666667 0.2500001
v -0.3750001 0.4666667 0.2499999

vn 1.192093E-07 0 -1
vn 0 1 0
vn 1 0 1.192093E-07
vn -1 0 -1.192093E-07
vn -1.192093E-07 0 1
vn 3.990577E-07 1 5.684342E-14
vn 0 -1 0
vn -3.990576E-07 1 -5.684342E-14

vt -9.842519 18.3727
vt -9.842519 22.30971
vt 9.84252 18.3727
vt 9.84252 22.30971
vt -9.84252 19.68504
vt 9.84252 19.68504
vt -9.84252 -19.68504
vt 9.84252 -19.68504
vt 9.84252 3.937008
vt -9.84252 3.937008
vt 9.84252 7.874016
vt -9.84252 7.874016
vt -19.68504 -9.84252
vt -19.68504 9.84252
vt 19.68504 -9.842519
vt 19.68504 9.84252
vt 9.84252 22.30971
vt -9.84252 22.30971
vt -9.84252 18.3727
vt -14.76378 21.65354
vt -14.76378 14.43569
vt -19.68504 21.65354
vt -19.68504 -1.333312E-07
vt 14.76378 14.43569
vt 19.68504 -1.333312E-07
vt 14.76378 21.65354
vt 19.68504 21.65354
vt 19.68504 0
vt 14.76378 0
vt 19.68504 6.890112E-14
vt 14.76378 6.890112E-14
vt 14.76378 14.76379
vt 14.76378 19.68505
vt 19.68504 14.76379
vt 19.68504 19.68505
vt 19.68504 19.68504
vt 19.68504 -19.68504
vt 14.76378 19.68504
vt 14.76378 -19.68504
vt -14.76378 19.68504
vt -14.76378 -19.68504
vt -19.68504 19.68504
vt -19.68504 -19.68504
vt -19.68504 -14.76378
vt -14.76378 -14.76378
vt -14.76378 14.43569
vt -19.68504 8.826462E-08
vt 19.68504 8.826462E-08
vt 14.76378 21.65354
vt -14.76378 21.65354
vt -19.68504 14.76378
vt -14.76378 14.76378
vt 14.76378 -19.68505
vt 14.76378 -14.76379
vt 19.68504 -19.68505
vt 19.68504 -14.76379
vt -14.76378 -9.910861E-08
vt -19.68504 0
vt -14.76378 -9.910869E-08
vt 19.68504 22.70341
vt 14.76378 18.3727
vt 14.76378 22.70341
vt 19.68504 7.874016
vt -19.68504 7.874016
vt -14.76378 18.3727
vt -19.68504 22.70341
vt -14.76378 22.70341
vt 9.84252 22.70341
vt 14.76378 22.70341
vt -9.84252 22.70341
vt 19.68504 22.30971
vt -19.68504 22.30971
vt 19.68504 22.70341
vt -19.68504 22.70341
vt -19.68504 14.76378
vt -14.76378 14.76378
vt -19.68504 9.842521
vt 19.68504 9.842522
vt -9.842521 14.76378
vt -9.842521 19.68504
vt 9.842519 14.76378
vt 14.76378 14.76378
vt 19.68504 14.76378
vt 14.76378 19.68504
vt 9.842519 19.68504
vt -14.76378 19.68504
vt -14.76378 -19.68504
vt -14.76378 -14.76378
vt -9.842521 -19.68504
vt -9.842521 -14.76378
vt 19.68504 -9.842521
vt -19.68504 -9.842522
vt -19.68504 -14.76378
vt 9.842519 -14.76378
vt 14.76378 -14.76378
vt 9.842519 -19.68504
vt 14.76378 -19.68504
vt 19.68504 -14.76378
vt -19.68504 22.30971
vt -19.68504 22.70341
vt 19.68504 22.30971
vt 19.68504 22.70341
vt -14.76378 22.70341
vt 9.84252 22.70341
vt 14.76378 22.70341
vt 14.76378 21.65354
vt -9.84252 22.70341
vt -9.84252 22.30971
vt -9.84252 22.70341
vt -14.76378 22.70341
vt 9.84252 22.70341
vt 14.76378 22.70341
vt 19.68504 21.65354
vt 19.68504 22.70341
vt 14.76378 22.70341
vt 9.842521 -14.76378
vt -9.842519 -14.76378
vt 9.842521 14.76378
vt -9.842519 14.76378
vt 14.76378 18.3727
vt -19.68504 21.65354
vt -19.68504 22.70341
vt -14.76378 21.65354
vt -14.76378 22.70341
vt 14.76378 21.65354
vt 14.76378 22.70341
vt -19.68504 22.70341
vt -14.76378 21.65354
vt -14.76378 22.70341
vt 9.842519 18.3727
vt -9.842521 18.3727

usemtl asphalt

f 3/3/1 2/2/1 1/1/1
f 2/2/1 3/3/1 4/4/1
f 7/7/2 6/6/2 5/5/2
f 6/6/2 7/7/2 8/8/2
f 8/11/3 10/10/3 9/9/3
f 10/10/3 8/11/3 7/12/3
f 5/11/4 12/10/4 11/9/4
f 12/10/4 5/11/4 6/12/4
f 2/15/2 14/14/2 13/13/2
f 14/14/2 2/15/2 4/16/2
f 14/18/5 15/3/5 13/17/5
f 15/3/5 14/18/5 16/19/5

usemtl grass

f 19/22/5 18/21/5 17/20/5
f 20/23/5 18/21/5 19/22/5
f 20/23/5 21/24/5 18/21/5
f 22/25/5 21/24/5 20/23/5
f 22/25/5 23/26/5 21/24/5
f 23/26/5 22/25/5 24/27/5
f 27/27/3 26/29/3 25/28/3
f 26/29/3 27/27/3 28/26/3
f 19/27/4 29/31/4 20/30/4
f 29/31/4 19/27/4 30/26/4
f 33/34/6 32/33/6 31/32/6
f 32/33/6 33/34/6 34/35/6
f 29/38/7 22/37/7 20/36/7
f 22/37/7 29/38/7 35/39/7
f 35/39/7 29/38/7 36/40/7
f 35/39/7 36/40/7 26/41/7
f 26/41/7 36/40/7 37/42/7
f 26/41/7 37/42/7 25/43/7
f 38/41/2 23/44/2 24/43/2
f 23/44/2 38/41/2 39/45/2
f 25/47/1 40/46/1 27/22/1
f 40/46/1 25/47/1 37/48/1
f 40/46/1 37/48/1 41/24/1
f 41/24/1 37/48/1 33/49/1
f 33/49/1 37/48/1 34/27/1
f 42/50/1 27/22/1 40/46/1
f 17/51/2 30/40/2 19/42/2
f 30/40/2 17/51/2 43/52/2
f 27/55/8 44/54/8 28/53/8
f 44/54/8 27/55/8 42/56/8
f 38/20/3 22/58/3 35/57/3
f 22/58/3 38/20/3 24/22/3
f 32/20/4 37/58/4 36/59/4
f 37/58/4 32/20/4 34/22/4

usemtl pavement

f 47/62/5 46/61/5 45/60/5
f 46/61/5 8/63/5 45/60/5
f 8/63/5 46/61/5 6/64/5
f 6/64/5 46/61/5 48/65/5
f 6/64/5 48/65/5 49/66/5
f 49/66/5 48/65/5 50/67/5
f 26/29/3 9/9/3 35/57/3
f 9/9/3 26/29/3 28/26/3
f 9/9/3 28/26/3 8/11/3
f 8/11/3 28/26/3 45/68/3
f 45/68/3 28/26/3 51/69/3
f 10/10/3 35/57/3 9/9/3
f 35/57/3 10/10/3 38/20/3
f 38/20/3 10/10/3 7/12/3
f 38/20/3 7/12/3 52/70/3
f 38/20/3 52/70/3 53/67/3
f 29/31/4 11/9/4 36/59/4
f 11/9/4 29/31/4 30/26/4
f 11/9/4 30/26/4 5/11/4
f 5/11/4 30/26/4 54/68/4
f 54/68/4 30/26/4 55/69/4
f 12/10/4 36/59/4 11/9/4
f 36/59/4 12/10/4 32/20/4
f 32/20/4 12/10/4 6/12/4
f 32/20/4 6/12/4 49/70/4
f 32/20/4 49/70/4 56/67/4
f 57/73/3 14/72/3 4/71/3
f 14/72/3 57/73/3 58/74/3
f 58/77/2 60/76/2 59/75/2
f 60/76/2 58/77/2 57/78/2
f 60/76/2 57/78/2 61/79/2
f 60/76/2 61/79/2 54/80/2
f 61/79/2 57/78/2 50/81/2
f 50/81/2 57/78/2 62/82/2
f 62/82/2 57/78/2 63/83/2
f 56/84/2 50/81/2 62/82/2
f 50/81/2 56/84/2 49/85/2
f 54/80/2 55/86/2 60/76/2
f 17/27/4 60/69/4 43/26/4
f 60/69/4 17/27/4 59/60/4
f 52/89/2 64/88/2 53/87/2
f 64/88/2 52/89/2 65/90/2
f 66/91/2 64/88/2 65/90/2
f 67/92/2 64/88/2 66/91/2
f 64/88/2 67/92/2 68/93/2
f 66/91/2 65/90/2 47/94/2
f 66/91/2 47/94/2 69/95/2
f 69/95/2 47/94/2 45/96/2
f 69/95/2 45/96/2 51/97/2
f 66/91/2 69/95/2 70/98/2
f 13/101/4 66/100/4 2/99/4
f 66/100/4 13/101/4 67/102/4
f 40/46/1 1/1/1 42/50/1
f 1/1/1 40/46/1 41/24/1
f 42/50/1 1/1/1 70/103/1
f 1/1/1 41/24/1 3/3/1
f 3/3/1 41/24/1 4/4/1
f 4/4/1 41/24/1 57/104/1
f 57/104/1 41/24/1 63/105/1
f 63/105/1 41/24/1 33/106/1
f 1/1/1 66/107/1 70/103/1
f 66/107/1 1/1/1 2/108/1
f 59/110/5 14/18/5 58/109/5
f 14/18/5 59/110/5 16/19/5
f 18/21/5 16/19/5 59/110/5
f 18/21/5 15/3/5 16/19/5
f 21/24/5 15/3/5 18/21/5
f 21/24/5 67/111/5 15/3/5
f 23/26/5 67/111/5 21/24/5
f 67/111/5 23/26/5 68/112/5
f 15/3/5 67/111/5 13/17/5
f 18/21/5 59/110/5 17/20/5
f 70/114/3 44/106/3 42/113/3
f 44/106/3 70/114/3 69/115/3
f 72/118/7 46/117/7 71/116/7
f 46/117/7 72/118/7 48/119/7
f 7/64/1 71/65/1 52/66/1
f 71/65/1 7/64/1 5/63/1
f 71/65/1 5/63/1 72/120/1
f 72/120/1 5/63/1 54/60/1
f 54/60/1 61/69/1 72/120/1
f 65/67/1 52/66/1 71/65/1
f 31/26/1 56/102/1 62/69/1
f 56/102/1 31/26/1 32/27/1
f 31/123/4 63/122/4 33/121/4
f 63/122/4 31/123/4 62/124/4
f 55/66/5 43/20/5 60/67/5
f 43/20/5 55/66/5 30/22/5
f 72/3/4 50/70/4 48/19/4
f 50/70/4 72/3/4 61/68/4
f 53/60/5 39/125/5 38/27/5
f 39/125/5 53/60/5 64/126/5
f 64/67/3 23/22/3 39/20/3
f 23/22/3 64/67/3 68/66/3
f 44/128/1 51/127/1 28/22/1
f 51/127/1 44/128/1 69/129/1
f 47/68/3 71/131/3 46/130/3
f 71/131/3 47/68/3 65/70/3

