# Created by Kenney (www.kenney.nl)

mtllib tile080.mtl

g tile080

v -0.5 8.121504E-16 0.5
v -0.5 0.2 0.5
v -0.06797788 8.362141E-15 0.5
v -0.06797788 0.2 0.5
v -0.1116317 0.2 0.4346675
v -0.2625631 0.2 0.2625631
v -0.4346675 0.2 0.1116317
v -0.5 0.2 0.06797788
v -0.5 1.16709E-14 0.06797788
v -0.01246249 0.21 0.3585723
v -0.01246249 0.1833333 0.3585723
v 0.08203647 0.21 0.5
v 0.08203647 0.1833333 0.5
v -0.3585723 0.1833333 0.01246249
v -0.1741748 0.1833333 0.1741748
v -0.3585723 0.21 0.01246249
v -0.1741748 0.21 0.1741748
v -0.5 0.1833333 -0.08203647
v -0.5 0.21 -0.08203647
v -0.5 6.888238E-15 -0.08203647
v -0.5 0.21 0.06797788
v -0.4346675 0.21 0.1116317
v -0.1116317 0.21 0.4346675
v -0.06797788 0.21 0.5
v -0.2625631 0.21 0.2625631
v 0.08203647 1.0197E-14 0.5
v 0.5 0.1833333 0.5
v 0.5 0.1833333 -0.5
v -0.5 0.1833333 -0.5
v 0.5 0 -0.5
v 0.5 9.445008E-15 0.5
v -0.5 1.473902E-15 -0.5

vn 0 0 0.3333333
vn 0 0.3333333 0
vn -0.3333333 0 0
vn 0.2644511 0 -0.2029205
vn 0.2771565 0 -0.1851901
vn 0.2029205 0 -0.2644511
vn 0.2357023 0 -0.2357023
vn 0.1851901 0 -0.2771565
vn -0.1851901 0 0.2771565
vn -0.2029205 0 0.2644511
vn -0.2644511 0 0.2029205
vn -0.2771565 0 0.1851901
vn -0.2357023 0 0.2357023
vn 0.3333333 0 0
vn 0 0 -0.3333333
vn 0 -0.3333333 0

vt -59.05512 9.592327E-14
vt -59.05512 23.62205
vt -8.028883 9.876544E-13
vt -8.028883 23.62205
vt 8.028883 59.05512
vt 59.05512 59.05512
vt 13.18484 51.33868
vt 31.01139 31.01139
vt 51.33868 13.18484
vt 59.05512 8.028883
vt 8.028883 1.415737E-12
vt 8.028883 23.62205
vt 59.05512 2.025047E-13
vt 59.05512 23.62205
vt -34.39585 24.80315
vt -34.39585 21.65354
vt -54.48565 24.80315
vt -54.48565 21.65354
vt 30.87069 21.65354
vt 1.90277 21.65354
vt 30.87069 24.80315
vt 1.90277 24.80315
vt 54.48565 21.65354
vt 34.39585 21.65354
vt 54.48565 24.80315
vt 34.39585 24.80315
vt -1.90277 24.80315
vt -1.90277 21.65354
vt -30.87069 24.80315
vt -30.87069 21.65354
vt -9.689346 21.65354
vt -9.689346 24.80315
vt -9.689346 8.50856E-13
vt 8.028883 24.80315
vt -44.64193 23.62205
vt -44.64193 24.80315
vt -35.36145 23.62205
vt -35.36145 24.80315
vt 35.36145 23.62205
vt 35.36145 24.80315
vt 44.64193 23.62205
vt 44.64193 24.80315
vt -2.868368 23.62205
vt -29.90509 23.62205
vt -2.868368 24.80315
vt -29.90509 24.80315
vt 2.868368 23.62205
vt 2.868368 24.80315
vt 29.90509 23.62205
vt 29.90509 24.80315
vt -9.689346 59.05512
vt 1.471947 42.35106
vt 20.57183 20.57183
vt 42.35106 1.471947
vt 59.05512 -9.689346
vt 9.689346 1.20437E-12
vt 9.689346 21.65354
vt 9.689346 24.80315
vt -8.028883 24.80315
vt -59.05512 59.05512
vt -59.05512 -59.05512
vt 59.05512 -59.05512
vt 59.05512 21.65354
vt 59.05512 -9.517619E-29
vt -59.05512 21.65354
vt -59.05512 1.115552E-12
vt 59.05512 1.115552E-12
vt -59.05512 1.280592E-28
vt 59.05512 1.74083E-13
vt -8.028883 59.05512
vt -59.05512 8.028883
vt 9.689346 59.05512
vt -59.05512 -9.689346
vt -59.05512 1.353261E-13

usemtl asphalt

f 3/3/1 2/2/1 1/1/1
f 2/2/1 3/3/1 4/4/1
f 5/7/2 2/6/2 4/5/2
f 2/6/2 5/7/2 6/8/2
f 2/6/2 6/8/2 7/9/2
f 2/6/2 7/9/2 8/10/2
f 1/13/3 8/12/3 9/11/3
f 8/12/3 1/13/3 2/14/3

usemtl pavement

f 12/17/5 11/16/4 10/15/4
f 11/16/4 12/17/5 13/18/5
f 16/21/6 15/20/7 14/19/6
f 15/20/7 16/21/6 17/22/7
f 19/25/8 14/24/6 18/23/8
f 14/24/6 19/25/8 16/26/6
f 10/29/4 15/28/7 17/27/7
f 15/28/7 10/29/4 11/30/4
f 20/33/3 19/32/3 18/31/3
f 19/32/3 20/33/3 21/34/3
f 21/34/3 20/33/3 9/11/3
f 21/34/3 9/11/3 8/12/3
f 7/37/10 21/36/9 8/35/9
f 21/36/9 7/37/10 22/38/10
f 4/41/12 23/40/11 5/39/11
f 23/40/11 4/41/12 24/42/12
f 25/45/13 7/44/10 6/43/13
f 7/44/10 25/45/13 22/46/10
f 5/49/11 25/48/13 6/47/13
f 25/48/13 5/49/11 23/50/11
f 10/52/2 24/5/2 12/51/2
f 24/5/2 10/52/2 17/53/2
f 24/5/2 17/53/2 23/7/2
f 23/7/2 17/53/2 25/8/2
f 25/8/2 17/53/2 16/54/2
f 25/8/2 16/54/2 22/9/2
f 22/9/2 16/54/2 19/55/2
f 22/9/2 19/55/2 21/10/2
f 26/56/1 4/4/1 3/3/1
f 4/4/1 26/56/1 13/57/1
f 4/4/1 13/57/1 12/58/1
f 4/4/1 12/58/1 24/59/1

usemtl grass

f 28/61/2 13/51/2 27/60/2
f 13/51/2 28/61/2 29/62/2
f 13/51/2 29/62/2 11/52/2
f 11/52/2 29/62/2 15/53/2
f 15/53/2 29/62/2 14/54/2
f 14/54/2 29/62/2 18/55/2
f 27/65/14 30/64/14 28/63/14
f 30/64/14 27/65/14 31/66/14
f 27/63/1 26/56/1 31/67/1
f 26/56/1 27/63/1 13/57/1
f 32/69/15 28/65/15 30/68/15
f 28/65/15 32/69/15 29/63/15
f 1/60/16 9/71/16 3/70/16
f 32/61/16 3/70/16 9/71/16
f 32/61/16 26/72/16 3/70/16
f 30/62/16 26/72/16 32/61/16
f 26/72/16 30/62/16 31/6/16
f 32/61/16 9/71/16 20/73/16
f 20/33/3 29/65/3 32/74/3
f 29/65/3 20/33/3 18/31/3

