# Created by Kenney (www.kenney.nl)

mtllib tile191.mtl

g tile191

v -0.5 0.2 -0.25
v -0.5 0.21 -0.25
v 0.5 0.3833333 -0.25
v 0.5 0.3933333 -0.25
v -0.5 0 -0.375
v 0.5 0.1833333 -0.375
v -0.5 0.21 -0.375
v 0.5 0.3933333 -0.375
v 0.5 0.1833333 0.375
v -0.5 1.624301E-15 0.375
v 0.5 0.3933333 0.25
v 0.5 0.3933333 0.375
v -0.5 0.21 0.25
v -0.5 0.21 0.375
v -0.5 0.2 0.25
v 0.5 0.3833333 0.25
v 0.5 0.2833333 0.25
v 0.5 0.2833333 -0.25
v -0.5 0.1 -0.25
v -0.5 0.1 0.25

vn 0 0 0.3333333
vn 0 0 -0.3333333
vn -0.06010929 0.3278689 0
vn 0.06010929 -0.3278689 0
vn 0.3333333 0 0
vn -0.3333333 0 0

vt -59.05512 23.62205
vt -59.05512 24.80315
vt 59.05512 45.27559
vt 59.05512 46.45669
vt 59.05512 -2.565927E-12
vt -59.05512 21.65354
vt 59.05512 24.80315
vt -59.05512 46.45669
vt -44.29134 66.46444
vt -29.52756 66.46444
vt -44.29134 -53.6143
vt -29.52756 -53.6143
vt 44.29134 61.99174
vt 44.29134 -58.087
vt -44.29134 61.99174
vt -44.29134 -58.087
vt 29.52756 66.46444
vt 44.29134 66.46444
vt 29.52756 -53.6143
vt 44.29134 -53.6143
vt 59.05512 23.62205
vt -59.05512 45.27559
vt -29.52756 46.45669
vt -29.52756 45.27559
vt -44.29134 46.45669
vt -29.52756 33.46457
vt -44.29134 21.65354
vt 29.52756 33.46457
vt 44.29134 21.65354
vt 44.29134 46.45669
vt 29.52756 46.45669
vt 29.52756 45.27559
vt -44.29134 24.80315
vt -29.52756 11.81102
vt -44.29134 5.533833E-13
vt 44.29134 7.452299E-13
vt 29.52756 11.81102
vt 29.52756 23.62205
vt 29.52756 24.80315
vt 44.29134 24.80315
vt -29.52756 24.80315
vt -29.52756 23.62205
vt -59.05512 2.250387E-12
vt 59.05512 21.65354
vt 29.52756 66.25145
vt 29.52756 -53.82729
vt -29.52756 66.25145
vt -29.52756 -53.82729

usemtl pavement

f 3/3/1 2/2/1 1/1/1
f 2/2/1 3/3/1 4/4/1
f 7/7/2 6/6/2 5/5/2
f 6/6/2 7/7/2 8/8/2
f 7/11/3 4/10/3 8/9/3
f 4/10/3 7/11/3 2/12/3
f 9/15/4 5/14/4 6/13/4
f 5/14/4 9/15/4 10/16/4
f 13/19/3 12/18/3 11/17/3
f 12/18/3 13/19/3 14/20/3
f 13/7/2 16/22/2 15/21/2
f 16/22/2 13/7/2 11/8/2
f 12/25/5 16/24/5 11/23/5
f 16/24/5 12/25/5 17/26/5
f 17/26/5 12/25/5 9/27/5
f 9/27/5 18/28/5 17/26/5
f 6/29/5 18/28/5 9/27/5
f 18/28/5 6/29/5 8/30/5
f 18/28/5 8/30/5 4/31/5
f 18/28/5 4/31/5 3/32/5
f 5/35/6 19/34/6 7/33/6
f 19/34/6 5/35/6 10/36/6
f 19/34/6 10/36/6 20/37/6
f 20/37/6 10/36/6 15/38/6
f 15/38/6 10/36/6 13/39/6
f 13/39/6 10/36/6 14/40/6
f 19/34/6 2/41/6 7/33/6
f 2/41/6 19/34/6 1/42/6
f 9/44/1 14/2/1 10/43/1
f 14/2/1 9/44/1 12/4/1

usemtl asphalt

f 16/24/5 18/28/5 3/32/5
f 18/28/5 16/24/5 17/26/5
f 3/47/3 15/46/3 16/45/3
f 15/46/3 3/47/3 1/48/3
f 20/37/6 1/42/6 19/34/6
f 1/42/6 20/37/6 15/38/6

