# Created by Kenney (www.kenney.nl)

mtllib tile107.mtl

g tile107

v 0.3125 0.2 0.4375
v -0.1875 0.2 0.4375
v 0.3102242 0.2 0.338137
v 0.294239 0.2 0.2400419
v 0.2648512 0.2 0.145097
v 0.2226247 0.2 0.05512416
v 0.1683698 0.2 -0.02815
v 0.1031276 0.2 -0.1031276
v 0.02815 0.2 -0.1683698
v -0.05512416 0.2 -0.2226247
v -0.145097 0.2 -0.2648512
v -0.2400419 0.2 -0.294239
v -0.1905494 0.2 0.4052131
v -0.1976218 0.2 0.3735629
v -0.2086056 0.2 0.343049
v -0.2233278 0.2 0.3141525
v -0.2415559 0.2 0.2873293
v -0.338137 0.2 -0.3102242
v -0.2630025 0.2 0.2630025
v -0.2873293 0.2 0.2415559
v -0.3141525 0.2 0.2233278
v -0.343049 0.2 0.2086056
v -0.4375 0.2 -0.3125
v -0.3735629 0.2 0.1976218
v -0.4052131 0.2 0.1905494
v -0.4375 0.2 0.1875
v -0.4375 0.1 -0.3125
v -0.4375 0.1 0.1875
v 0.3125 0.1 0.4375
v -0.1875 0.1 0.4375
v -0.338137 0.21 -0.3102242
v -0.4375 0.21 -0.3125
v -0.2400419 0.21 -0.294239
v -0.145097 0.21 -0.2648512
v -0.05512416 0.21 -0.2226247
v 0.02815 0.21 -0.1683698
v 0.4375 1.203186E-15 0.4375
v 0.4300143 9.625485E-16 0.3232896
v -0.3125 1.203186E-15 0.4375
v 0.4076851 9.625485E-16 0.2110333
v 0.3708946 9.625485E-16 0.102652
v 0.3202722 4.812743E-16 -9.240467E-14
v 0.2566842 4.812743E-16 -0.09516625
v 0.1812184 4.812743E-16 -0.1812184
v 0.09516625 4.812743E-16 -0.2566842
v -2.839518E-14 0 -0.3202722
v -0.102652 0 -0.3708946
v -0.2110333 0 -0.4076851
v -0.3232896 0 -0.4300143
v -0.3135694 6.376884E-15 0.4211842
v -0.3167593 6.376884E-15 0.4051476
v -0.3220151 6.376884E-15 0.3896645
v -0.3292468 6.376884E-15 0.375
v -0.4375 1.443823E-15 -0.4375
v -0.3383308 6.376884E-15 0.3614048
v -0.3491116 6.858159E-15 0.3491116
v -0.3614048 6.858159E-15 0.3383308
v -0.375 6.858159E-15 0.3292468
v -0.3896645 6.858159E-15 0.3220151
v -0.4051476 6.858159E-15 0.3167593
v -0.4211842 6.858159E-15 0.3135694
v -0.4375 1.203186E-15 0.3125
v -0.1905494 0.21 0.4052131
v -0.1875 0.21 0.4375
v -0.2415559 0.21 0.2873293
v -0.2233278 0.21 0.3141525
v 0.1683698 0.21 -0.02815
v 0.2226247 0.21 0.05512416
v 0.2648512 0.21 0.145097
v 0.294239 0.21 0.2400419
v -0.2086056 0.21 0.343049
v -0.1976218 0.21 0.3735629
v -0.343049 0.21 0.2086056
v -0.3141525 0.21 0.2233278
v -0.2873293 0.21 0.2415559
v -0.4375 0.21 0.1875
v -0.4052131 0.21 0.1905494
v 0.1031276 0.21 -0.1031276
v -0.3735629 0.21 0.1976218
v 0.4375 0.21 0.4375
v 0.3125 0.21 0.4375
v 0.4300143 0.21 0.3232896
v 0.4076851 0.21 0.2110333
v 0.3708946 0.21 0.102652
v 0.3202722 0.21 -9.240467E-14
v 0.3102242 0.21 0.338137
v 0.2566842 0.21 -0.09516625
v 0.1812184 0.21 -0.1812184
v 0.09516625 0.21 -0.2566842
v -2.935773E-14 0.21 -0.3202722
v -0.102652 0.21 -0.3708946
v -0.2110333 0.21 -0.4076851
v -0.3232896 0.21 -0.4300143
v -0.4375 0.21 -0.4375
v -0.2630025 0.21 0.2630025
v -0.3167593 0.21 0.4051476
v -0.3135694 0.21 0.4211842
v -0.3491116 0.21 0.3491116
v -0.3383308 0.21 0.3614048
v -0.3896645 0.21 0.3220151
v -0.4051476 0.21 0.3167593
v -0.3220151 0.21 0.3896645
v -0.375 0.21 0.3292468
v -0.3614048 0.21 0.3383308
v -0.3125 0.21 0.4375
v -0.3292468 0.21 0.375
v -0.4211842 0.21 0.3135694
v -0.4375 0.21 0.3125

vn 0 0.3333333 0
vn -0.3333333 0 0
vn 0 0 0.3333333
vn -0.0306958 0 0.331917
vn -0.007632678 0 0.3332459
vn -0.07626967 0 0.3244905
vn -0.12038 0 0.3108372
vn -0.1621803 0 0.2912193
vn -0.2008685 0 0.266013
vn 0 -0.3333333 0
vn 0.3292333 0 -0.05212025
vn 0.3318566 0 -0.0313422
vn 0.2633881 0 -0.2042984
vn 0.2869191 0 -0.1696719
vn -0.266013 0 0.2008685
vn -0.2912193 0 0.1621803
vn -0.3108372 0 0.12038
vn -0.3244905 0 0.07626967
vn 0.3059241 0 -0.1323689
vn 0.3201035 0 -0.09297794
vn 0.1323689 0 -0.3059241
vn 0.1696719 0 -0.2869191
vn 0.2042984 0 -0.2633881
vn 0.0313422 0 -0.3318566
vn 0.05212025 0 -0.3292333
vn -0.2357023 0 0.2357023
vn 0.09297794 0 -0.3201035
vn 0.2357023 0 -0.2357023
vn -0.331917 0 0.0306958
vn -0.3332459 0 0.007632678
vn -0.3219753 0 0.08627301
vn -0.3304816 0 0.04350873
vn -0.2644511 0 0.2029205
vn -0.1275612 0 0.3079599
vn -0.08627301 0 0.3219753
vn -0.3079599 0 0.1275612
vn -0.1666667 0 0.2886752
vn -0.2029205 0 0.2644511
vn -0.3326197 0 0.02180104
vn -0.2886752 0 0.1666667
vn -0.04350873 0 0.3304816
vn -0.02180104 0 0.3326197
vn 0.1666667 0 -0.2886752
vn 0.2029205 0 -0.2644511
vn 0.3304816 0 -0.04350873
vn 0.3326197 0 -0.02180104
vn 0.08627301 0 -0.3219753
vn 0.1275612 0 -0.3079599
vn 0.3219753 0 -0.08627301
vn 0.2644511 0 -0.2029205
vn 0.2886752 0 -0.1666667
vn 0.04350873 0 -0.3304816
vn 0.02180104 0 -0.3326197
vn 0.3079599 0 -0.1275612

vt -36.90945 51.67323
vt 22.14567 51.67323
vt -36.64065 39.93744
vt -34.75264 28.3514
vt -31.28164 17.13744
vt -26.29425 6.510728
vt -19.88619 -3.324803
vt -12.18042 -12.18042
vt -3.324803 -19.88619
vt 6.510728 -26.29425
vt 17.13744 -31.28164
vt 28.3514 -34.75264
vt 22.50583 47.85981
vt 23.34115 44.1216
vt 24.63846 40.51759
vt 26.3773 37.10462
vt 28.53023 33.93653
vt 39.93744 -36.64065
vt 31.06329 31.06329
vt 33.93653 28.53023
vt 37.10462 26.3773
vt 40.51759 24.63846
vt 51.67323 -36.90945
vt 44.1216 23.34115
vt 47.85981 22.50583
vt 51.67323 22.14567
vt -36.90945 11.81102
vt -36.90945 23.62205
vt 22.14567 11.81102
vt 22.14567 23.62205
vt 36.90945 11.81102
vt -22.14567 11.81102
vt 36.90945 23.62205
vt -22.14567 23.62205
vt -40.76597 23.62205
vt -52.50483 23.62205
vt -40.76597 24.80315
vt -52.50483 24.80315
vt -33.57173 23.62205
vt -45.31059 23.62205
vt -33.57173 24.80315
vt -45.31059 24.80315
vt -25.62065 23.62205
vt -37.35951 23.62205
vt -25.62065 24.80315
vt -37.35951 24.80315
vt -17.06529 23.62205
vt -28.80415 23.62205
vt -17.06529 24.80315
vt -28.80415 24.80315
vt -8.069839 23.62205
vt -19.8087 23.62205
vt -8.069839 24.80315
vt -19.8087 24.80315
vt 51.67323 51.67323
vt 50.78909 38.18381
vt 48.15178 24.9252
vt 43.80645 12.12425
vt 37.82743 -1.091394E-11
vt 30.31703 -11.24011
vt 21.40375 -21.40375
vt 11.24011 -30.31703
vt -3.353762E-12 -37.82743
vt -12.12425 -43.80645
vt -24.9252 -48.15178
vt -38.18381 -50.78909
vt -37.03576 49.74617
vt -37.41251 47.85208
vt -38.03328 46.02337
vt -38.88742 44.29134
vt -51.67323 -51.67323
vt -39.96033 42.68561
vt -41.23366 41.23366
vt -42.68561 39.96033
vt -44.29134 38.88742
vt -46.02337 38.03328
vt -47.85208 37.41251
vt -49.74617 37.03576
vt -51.67323 36.90945
vt -45.53162 24.80315
vt -45.53162 23.62205
vt -49.36202 24.80315
vt -49.36202 23.62205
vt -12.03283 24.80315
vt -12.03283 23.62205
vt -15.86323 24.80315
vt -15.86323 23.62205
vt 8.069839 23.62205
vt 8.069839 24.80315
vt 19.8087 23.62205
vt 19.8087 24.80315
vt 25.62065 23.62205
vt 25.62065 24.80315
vt 37.35951 23.62205
vt 37.35951 24.80315
vt -29.77817 24.80315
vt -29.77817 23.62205
vt -33.60856 24.80315
vt -33.60856 23.62205
vt 24.91732 23.62205
vt 21.08692 23.62205
vt 24.91732 24.80315
vt 21.08692 24.80315
vt 15.86323 23.62205
vt 12.03283 23.62205
vt 15.86323 24.80315
vt 12.03283 24.80315
vt 49.36202 23.62205
vt 45.53162 23.62205
vt 49.36202 24.80315
vt 45.53162 24.80315
vt -1.193096 23.62205
vt -1.193096 24.80315
vt 10.54577 23.62205
vt 10.54577 24.80315
vt 33.60856 23.62205
vt 29.77817 23.62205
vt 33.60856 24.80315
vt 29.77817 24.80315
vt -51.67323 51.67323
vt -50.78909 38.18381
vt -48.15178 24.9252
vt -43.80645 12.12425
vt -37.82743 -1.086795E-11
vt -30.31703 -11.24011
vt -21.40375 -21.40375
vt -11.24011 -30.31703
vt 3.49374E-12 -37.82743
vt 12.12425 -43.80645
vt 24.9252 -48.15178
vt 38.18381 -50.78909
vt 51.67323 -51.67323
vt 6.589116 23.62205
vt 2.758723 23.62205
vt 6.589116 24.80315
vt 2.758723 24.80315
vt 1.193096 23.62205
vt -10.54577 23.62205
vt 1.193096 24.80315
vt -10.54577 24.80315
vt 17.06529 23.62205
vt 17.06529 24.80315
vt 28.80415 23.62205
vt 28.80415 24.80315
vt 40.76597 23.62205
vt 40.76597 24.80315
vt 52.50483 23.62205
vt 52.50483 24.80315
vt -37.96947 24.80315
vt -37.96947 23.62205
vt -41.79987 24.80315
vt -41.79987 23.62205
vt -2.758723 24.80315
vt -2.758723 23.62205
vt -6.589116 24.80315
vt -6.589116 23.62205
vt 33.57173 23.62205
vt 33.57173 24.80315
vt 45.31059 23.62205
vt 45.31059 24.80315
vt -21.08692 24.80315
vt -21.08692 23.62205
vt -24.91732 24.80315
vt -24.91732 23.62205
vt 41.79987 23.62205
vt 37.96947 23.62205
vt 41.79987 24.80315
vt 37.96947 24.80315
vt 39.6338 5.723356E-13
vt 39.6338 24.80315
vt 41.56499 5.723356E-13
vt 41.56499 24.80315
vt 3.813866 6.11722E-13
vt 3.813866 24.80315
vt 5.74506 5.548786E-13
vt 5.74506 24.80315
vt -31.35552 7.097355E-13
vt -33.28672 7.097355E-13
vt -31.35552 24.80315
vt -33.28672 24.80315
vt 31.35552 5.551942E-13
vt 31.35552 24.80315
vt 33.28672 5.551942E-13
vt 33.28672 24.80315
vt -22.52423 6.792845E-13
vt -24.45542 6.792845E-13
vt -22.52423 24.80315
vt -24.45542 24.80315
vt -3.813866 6.282675E-13
vt -5.74506 6.282675E-13
vt -3.813866 24.80315
vt -5.74506 24.80315
vt 47.2174 7.621227E-13
vt 47.2174 24.80315
vt 49.1486 1.510559E-13
vt 49.1486 24.80315
vt -13.29101 6.513984E-13
vt -15.22221 6.513984E-13
vt -13.29101 24.80315
vt -15.22221 24.80315
vt 36.90945 51.67323
vt 37.03576 49.74617
vt 37.41251 47.85208
vt 38.03328 46.02337
vt 38.88742 44.29134
vt 39.96033 42.68561
vt 41.23366 41.23366
vt 42.68561 39.96033
vt 44.29134 38.88742
vt 46.02337 38.03328
vt 47.85208 37.41251
vt 49.74617 37.03576
vt 51.67323 36.90945
vt 13.29101 5.462601E-13
vt 13.29101 24.80315
vt 15.22221 5.462601E-13
vt 15.22221 24.80315
vt -39.6338 7.403558E-13
vt -41.56499 7.403558E-13
vt -39.6338 24.80315
vt -41.56499 24.80315
vt -49.1486 8.981874E-12
vt -49.1486 24.80315
vt -47.2174 9.649784E-12
vt -47.2174 24.80315
vt 22.52423 5.463257E-13
vt 22.52423 24.80315
vt 24.45542 5.463257E-13
vt 24.45542 24.80315
vt 21.01579 -6.222509E-15
vt 7.49743 5.062091E-14
vt 21.01579 24.80315
vt 7.49743 24.80315
vt -36.90945 3.022697E-11
vt 51.67323 3.022697E-11
vt 51.67323 24.80315
vt 36.90945 24.80315
vt -36.90945 24.80315
vt -22.14567 24.80315
vt -41.42382 24.80315
vt -41.42382 -7.999974E-13
vt -54.94218 24.80315
vt -54.94218 -7.715757E-13
vt 39.0803 -7.683792E-16
vt 25.56194 -7.683792E-16
vt 39.0803 24.80315
vt 25.56194 24.80315
vt -33.84021 24.80315
vt -33.84021 8.800887E-14
vt -47.35858 24.80315
vt -47.35858 8.800887E-14
vt -7.49743 24.80315
vt -7.49743 4.315836E-14
vt -21.01579 24.80315
vt -21.01579 4.315836E-14
vt 11.53864 4.831936E-14
vt -1.979718 4.831936E-14
vt 11.53864 24.80315
vt -1.979718 24.80315
vt 41.42382 -1.062869E-11
vt 41.42382 24.80315
vt 54.94218 -1.045816E-11
vt 54.94218 24.80315
vt 1.979718 24.80315
vt 1.979718 4.591682E-14
vt -11.53864 24.80315
vt -11.53864 4.591682E-14
vt -51.67323 24.80315
vt -51.67323 1.674773E-12
vt 36.90945 1.646351E-12
vt 22.14567 24.80315
vt 47.35858 2.946199E-15
vt 33.84021 2.946199E-15
vt 47.35858 24.80315
vt 33.84021 24.80315
vt -25.56194 24.80315
vt -25.56194 9.270168E-14
vt -39.0803 24.80315
vt -39.0803 9.270168E-14
vt -16.73064 24.80315
vt -16.73064 3.98459E-14
vt -30.24901 24.80315
vt -30.24901 9.668932E-14
vt 30.24901 -3.734733E-15
vt 16.73064 -3.734733E-15
vt 30.24901 24.80315
vt 16.73064 24.80315

usemtl asphalt

f 3/3/1 2/2/1 1/1/1
f 2/2/1 3/3/1 4/4/1
f 2/2/1 4/4/1 5/5/1
f 2/2/1 5/5/1 6/6/1
f 2/2/1 6/6/1 7/7/1
f 2/2/1 7/7/1 8/8/1
f 2/2/1 8/8/1 9/9/1
f 2/2/1 9/9/1 10/10/1
f 2/2/1 10/10/1 11/11/1
f 2/2/1 11/11/1 12/12/1
f 2/2/1 12/12/1 13/13/1
f 13/13/1 12/12/1 14/14/1
f 14/14/1 12/12/1 15/15/1
f 15/15/1 12/12/1 16/16/1
f 16/16/1 12/12/1 17/17/1
f 17/17/1 12/12/1 18/18/1
f 17/17/1 18/18/1 19/19/1
f 19/19/1 18/18/1 20/20/1
f 20/20/1 18/18/1 21/21/1
f 21/21/1 18/18/1 22/22/1
f 22/22/1 18/18/1 23/23/1
f 22/22/1 23/23/1 24/24/1
f 24/24/1 23/23/1 25/25/1
f 25/25/1 23/23/1 26/26/1
f 28/29/2 23/28/2 27/27/2
f 23/28/2 28/29/2 26/30/2
f 1/33/3 30/32/3 29/31/3
f 30/32/3 1/33/3 2/34/3

usemtl pavement

f 31/37/4 23/36/5 18/35/4
f 23/36/5 31/37/4 32/38/5
f 33/41/6 18/40/4 12/39/6
f 18/40/4 33/41/6 31/42/4
f 34/45/7 12/44/6 11/43/7
f 12/44/6 34/45/7 33/46/6
f 35/49/8 11/48/7 10/47/8
f 11/48/7 35/49/8 34/50/7
f 36/53/9 10/52/8 9/51/9
f 10/52/8 36/53/9 35/54/8
f 39/1/10 38/56/10 37/55/10
f 38/56/10 39/1/10 40/57/10
f 40/57/10 39/1/10 41/58/10
f 41/58/10 39/1/10 42/59/10
f 42/59/10 39/1/10 43/60/10
f 43/60/10 39/1/10 44/61/10
f 44/61/10 39/1/10 45/62/10
f 45/62/10 39/1/10 46/63/10
f 46/63/10 39/1/10 47/64/10
f 47/64/10 39/1/10 48/65/10
f 48/65/10 39/1/10 49/66/10
f 49/66/10 39/1/10 50/67/10
f 49/66/10 50/67/10 51/68/10
f 49/66/10 51/68/10 52/69/10
f 49/66/10 52/69/10 53/70/10
f 49/66/10 53/70/10 54/71/10
f 54/71/10 53/70/10 55/72/10
f 54/71/10 55/72/10 56/73/10
f 54/71/10 56/73/10 57/74/10
f 54/71/10 57/74/10 58/75/10
f 54/71/10 58/75/10 59/76/10
f 54/71/10 59/76/10 60/77/10
f 54/71/10 60/77/10 61/78/10
f 54/71/10 61/78/10 62/79/10
f 64/82/12 13/81/11 63/80/11
f 13/81/11 64/82/12 2/83/12
f 66/86/14 17/85/13 65/84/13
f 17/85/13 66/86/14 16/87/14
f 6/90/16 67/89/15 7/88/15
f 67/89/15 6/90/16 68/91/16
f 4/94/18 69/93/17 5/92/17
f 69/93/17 4/94/18 70/95/18
f 72/98/20 15/97/19 71/96/19
f 15/97/19 72/98/20 14/99/20
f 73/102/21 21/101/22 22/100/21
f 21/101/22 73/102/21 74/103/22
f 74/106/22 20/105/23 21/104/22
f 20/105/23 74/106/22 75/107/23
f 76/110/24 25/109/25 26/108/24
f 25/109/25 76/110/24 77/111/25
f 7/114/15 78/113/26 8/112/26
f 78/113/26 7/114/15 67/115/15
f 79/118/27 22/117/21 24/116/27
f 22/117/21 79/118/27 73/119/21
f 82/121/1 81/1/1 80/120/1
f 81/1/1 82/121/1 83/122/1
f 81/1/1 83/122/1 84/123/1
f 81/1/1 84/123/1 85/124/1
f 81/1/1 85/124/1 86/3/1
f 86/3/1 85/124/1 87/125/1
f 86/3/1 87/125/1 70/4/1
f 70/4/1 87/125/1 69/5/1
f 69/5/1 87/125/1 68/6/1
f 68/6/1 87/125/1 88/126/1
f 68/6/1 88/126/1 67/7/1
f 67/7/1 88/126/1 89/127/1
f 67/7/1 89/127/1 78/8/1
f 78/8/1 89/127/1 36/9/1
f 36/9/1 89/127/1 90/128/1
f 36/9/1 90/128/1 35/10/1
f 35/10/1 90/128/1 91/129/1
f 35/10/1 91/129/1 34/11/1
f 34/11/1 91/129/1 92/130/1
f 34/11/1 92/130/1 33/12/1
f 33/12/1 92/130/1 93/131/1
f 33/12/1 93/131/1 31/18/1
f 31/18/1 93/131/1 94/132/1
f 31/18/1 94/132/1 32/23/1
f 75/135/23 19/134/28 20/133/23
f 19/134/28 75/135/23 95/136/28
f 78/139/26 9/138/9 8/137/26
f 9/138/9 78/139/26 36/140/9
f 5/143/17 68/142/16 6/141/16
f 68/142/16 5/143/17 69/144/17
f 1/147/30 86/146/29 3/145/29
f 86/146/29 1/147/30 81/148/30
f 63/151/11 14/150/20 72/149/20
f 14/150/20 63/151/11 13/152/11
f 65/155/13 19/154/28 95/153/28
f 19/154/28 65/155/13 17/156/13
f 3/159/29 70/158/18 4/157/18
f 70/158/18 3/159/29 86/160/29
f 71/163/19 16/162/14 66/161/14
f 16/162/14 71/163/19 15/164/19
f 77/167/25 24/166/27 25/165/25
f 24/166/27 77/167/25 79/168/27
f 50/171/32 96/170/31 51/169/31
f 96/170/31 50/171/32 97/172/32
f 55/175/33 98/174/26 56/173/26
f 98/174/26 55/175/33 99/176/33
f 100/179/34 60/178/35 59/177/34
f 60/178/35 100/179/34 101/180/35
f 51/183/31 102/182/36 52/181/36
f 102/182/36 51/183/31 96/184/31
f 103/187/37 59/186/34 58/185/37
f 59/186/34 103/187/37 100/188/34
f 98/191/26 57/190/38 56/189/26
f 57/190/38 98/191/26 104/192/38
f 39/195/39 97/194/32 50/193/32
f 97/194/32 39/195/39 105/196/39
f 104/199/38 58/198/37 57/197/38
f 58/198/37 104/199/38 103/200/37
f 63/13/1 105/201/1 64/2/1
f 105/201/1 63/13/1 72/14/1
f 105/201/1 72/14/1 71/15/1
f 105/201/1 71/15/1 66/16/1
f 105/201/1 66/16/1 65/17/1
f 105/201/1 65/17/1 95/19/1
f 105/201/1 95/19/1 75/20/1
f 105/201/1 75/20/1 74/21/1
f 105/201/1 74/21/1 97/202/1
f 97/202/1 74/21/1 96/203/1
f 96/203/1 74/21/1 73/22/1
f 96/203/1 73/22/1 102/204/1
f 102/204/1 73/22/1 106/205/1
f 106/205/1 73/22/1 99/206/1
f 99/206/1 73/22/1 98/207/1
f 98/207/1 73/22/1 79/24/1
f 98/207/1 79/24/1 104/208/1
f 104/208/1 79/24/1 103/209/1
f 103/209/1 79/24/1 77/25/1
f 103/209/1 77/25/1 100/210/1
f 100/210/1 77/25/1 101/211/1
f 101/211/1 77/25/1 107/212/1
f 107/212/1 77/25/1 76/26/1
f 107/212/1 76/26/1 108/213/1
f 53/216/40 99/215/33 55/214/33
f 99/215/33 53/216/40 106/217/40
f 101/220/35 61/219/41 60/218/35
f 61/219/41 101/220/35 107/221/41
f 61/224/41 108/223/42 62/222/42
f 108/223/42 61/224/41 107/225/41
f 52/228/36 106/227/40 53/226/40
f 106/227/40 52/228/36 102/229/36
f 90/232/43 45/231/44 46/230/43
f 45/231/44 90/232/43 89/233/44
f 37/235/3 29/31/3 39/234/3
f 29/31/3 37/235/3 80/236/3
f 29/31/3 80/236/3 1/33/3
f 1/33/3 80/236/3 81/237/3
f 30/32/3 39/234/3 29/31/3
f 39/234/3 30/32/3 105/238/3
f 105/238/3 30/32/3 2/34/3
f 105/238/3 2/34/3 64/239/3
f 80/242/46 38/241/45 82/240/45
f 38/241/45 80/242/46 37/243/46
f 92/246/47 47/245/48 48/244/47
f 47/245/48 92/246/47 91/247/48
f 82/250/45 40/249/49 83/248/49
f 40/249/49 82/250/45 38/251/45
f 85/254/51 43/253/50 87/252/50
f 43/253/50 85/254/51 42/255/51
f 89/258/44 44/257/28 45/256/44
f 44/257/28 89/258/44 88/259/28
f 54/262/53 93/261/52 49/260/52
f 93/261/52 54/262/53 94/263/53
f 87/266/50 44/265/28 88/264/28
f 44/265/28 87/266/50 43/267/50
f 54/269/2 27/27/2 94/268/2
f 27/27/2 54/269/2 62/270/2
f 27/27/2 62/270/2 28/29/2
f 28/29/2 62/270/2 26/30/2
f 26/30/2 62/270/2 76/271/2
f 76/271/2 62/270/2 108/237/2
f 27/27/2 32/238/2 94/268/2
f 32/238/2 27/27/2 23/28/2
f 93/274/52 48/273/47 49/272/52
f 48/273/47 93/274/52 92/275/47
f 83/278/49 41/277/54 84/276/54
f 41/277/54 83/278/49 40/279/49
f 84/282/54 42/281/51 85/280/51
f 42/281/51 84/282/54 41/283/54
f 91/286/48 46/285/43 47/284/48
f 46/285/43 91/286/48 90/287/43

