# Created by Kenney (www.kenney.nl)

mtllib tile230.mtl

g tile230

v 0.2910182 0.2 -0.1410039
v 0.2910182 0.1 -0.1410039
v 0.2910182 0.2 0.2910182
v 0.2910182 0.1 0.2910182
v -0.1410039 0.1 0.2910182
v -0.1410039 0.2 0.2910182
v 0.2256857 0.2 -0.09735011
v 0.05358136 0.2 0.05358136
v -0.09735011 0.2 0.2256857
v 0.2910182 0.21 -0.2910182
v 0.2910182 1.143026E-15 -0.2910182
v 0.2910182 0.21 -0.1410039
v 0.2910182 0 0.2910182
v -0.2910182 1.206194E-13 0.2910182
v -0.2910182 0.21 0.2910182
v -0.1410039 0.21 0.2910182
v 0.1495906 1.196568E-13 -0.1965193
v -0.03480698 1.186943E-13 -0.03480698
v -0.1965193 1.186943E-13 0.1495906
v 0.2256857 0.21 -0.09735011
v 0.1495906 0.21 -0.1965193
v 0.05358136 0.21 0.05358136
v -0.03480698 0.21 -0.03480698
v -0.09735011 0.21 0.2256857
v -0.1965193 0.21 0.1495906

vn 0.3333333 0 0
vn 0 0 0.3333333
vn 0 0.3333333 0
vn 0 -0.3333333 0
vn 0.2644511 0 0.2029205
vn 0.2771565 0 0.1851901
vn 0.2029205 0 0.2644511
vn 0.2357023 0 0.2357023
vn 0.1851901 0 0.2771565
vn -0.2644511 0 -0.2029205
vn -0.2771565 0 -0.1851901
vn -0.1851901 0 -0.2771565
vn -0.2029205 0 -0.2644511
vn -0.2357023 0 -0.2357023

vt 16.654 23.62205
vt 16.654 11.81102
vt -34.37223 23.62205
vt -34.37223 11.81102
vt 34.37223 11.81102
vt -16.654 11.81102
vt 34.37223 23.62205
vt -16.654 23.62205
vt -34.37223 -16.654
vt -34.37223 34.37223
vt -26.65579 -11.49804
vt 16.654 34.37223
vt -6.328507 6.328507
vt 11.49804 26.65579
vt 34.37223 24.80315
vt 34.37223 8.631847E-11
vt 16.654 24.80315
vt -34.37223 8.618346E-11
vt 34.37223 -1.674183E-13
vt -34.37223 1.407896E-11
vt -34.37223 24.80315
vt -16.654 24.80315
vt 34.37223 -34.37223
vt 17.66817 -23.21094
vt 34.37223 34.37223
vt -4.111061 -4.111061
vt -23.21094 17.66817
vt -34.37223 -34.37223
vt -17.66817 -23.21094
vt 4.111061 -4.111061
vt 23.21094 17.66817
vt -28.55145 24.80315
vt -28.55145 23.62205
vt -37.83194 24.80315
vt -37.83194 23.62205
vt 27.62208 23.62205
vt 0.5853489 23.62205
vt 27.62208 24.80315
vt 0.5853489 24.80315
vt 37.83194 23.62205
vt 28.55145 23.62205
vt 37.83194 24.80315
vt 28.55145 24.80315
vt -0.5853489 24.80315
vt -0.5853489 23.62205
vt -27.62208 24.80315
vt -27.62208 23.62205
vt 27.58586 1.401881E-11
vt 27.58586 24.80315
vt 47.67566 1.424619E-11
vt 47.67566 24.80315
vt -47.67566 1.350646E-13
vt -47.67566 24.80315
vt -27.58586 1.413276E-11
vt -27.58586 24.80315
vt 0.3802484 1.400547E-11
vt -28.58767 1.411915E-11
vt 0.3802484 24.80315
vt -28.58767 24.80315
vt -0.3802484 1.400426E-11
vt -0.3802484 24.80315
vt 28.58767 1.400426E-11
vt 28.58767 24.80315

usemtl asphalt

f 3/3/1 2/2/1 1/1/1
f 2/2/1 3/3/1 4/4/1
f 3/7/2 5/6/2 4/5/2
f 5/6/2 3/7/2 6/8/2
f 7/11/3 3/10/3 1/9/3
f 3/10/3 7/11/3 6/12/3
f 6/12/3 7/11/3 8/13/3
f 6/12/3 8/13/3 9/14/3

usemtl pavement

f 12/17/1 11/16/1 10/15/1
f 11/16/1 12/17/1 2/2/1
f 11/16/1 2/2/1 13/18/1
f 2/2/1 12/17/1 1/1/1
f 13/18/1 2/2/1 4/4/1
f 4/5/2 14/20/2 13/19/2
f 14/20/2 4/5/2 5/6/2
f 14/20/2 5/6/2 15/21/2
f 15/21/2 5/6/2 6/8/2
f 15/21/2 6/8/2 16/22/2
f 13/25/4 17/24/4 11/23/4
f 17/24/4 13/25/4 14/10/4
f 17/24/4 14/10/4 18/26/4
f 18/26/4 14/10/4 19/27/4
f 10/28/3 20/11/3 12/9/3
f 20/11/3 10/28/3 21/29/3
f 20/11/3 21/29/3 22/13/3
f 22/13/3 21/29/3 23/30/3
f 22/13/3 23/30/3 24/14/3
f 24/14/3 23/30/3 25/31/3
f 24/14/3 25/31/3 16/12/3
f 16/12/3 25/31/3 15/25/3
f 16/34/6 9/33/5 24/32/5
f 9/33/5 16/34/6 6/35/6
f 20/38/7 8/37/8 7/36/7
f 8/37/8 20/38/7 22/39/8
f 12/42/9 7/41/7 1/40/9
f 7/41/7 12/42/9 20/43/7
f 24/46/5 8/45/8 22/44/8
f 8/45/8 24/46/5 9/47/5
f 14/50/11 25/49/10 19/48/10
f 25/49/10 14/50/11 15/51/11
f 17/54/13 10/53/12 11/52/12
f 10/53/12 17/54/13 21/55/13
f 23/58/14 17/57/13 18/56/14
f 17/57/13 23/58/14 21/59/13
f 19/62/10 23/61/14 18/60/14
f 23/61/14 19/62/10 25/63/10

