# Created by Kenney (www.kenney.nl)

mtllib tile137.mtl

g tile137

v -0.5 0 0.5000001
v -0.5 0 0.3750002
v -0.5 0.1833333 0.5000001
v -0.5 0.1833333 0.3750002
v -0.5000001 0.1833333 -0.4999999
v -0.5000001 0 -0.4999999
v 0.5 0.1833333 -0.5000001
v 0.5 1.804779E-16 -0.5000001
v 0.5000001 1.804779E-16 0.4999999
v 0.5000001 0.1833333 0.4999999
v -0.5000001 0 -0.3749999
v -0.5000001 0 -0.2499998
v -0.5 0 0.2500003
v 0.375 0.1833333 -0.375
v -0.5000001 0.1833333 -0.3749999
v 0.3750001 0.1833333 0.3750001
v -0.5 0.21 0.2500003
v -0.5 0.1516667 0.2500003
v 0.2500001 0.21 0.2500002
v 0.2500001 0.1516667 0.2500002
v 0.25 0.1516667 -0.2499999
v 0.25 0.21 -0.2499999
v -0.5000001 0.1516667 -0.2499998
v -0.5000001 0.21 -0.2499998
v -0.5000001 0.21 -0.3749999
v -0.5 0.21 0.3750002
v 0.3750001 0.21 0.3750001
v 0.375 0.21 -0.375

vn -1 0 1.192093E-07
vn -1.192093E-07 0 -1
vn 1.192093E-07 0 1
vn 1 0 -1.192093E-07
vn 0 -1 0
vn 0 1 0

vt 19.68504 7.645678E-22
vt 14.76378 7.645678E-22
vt 19.68504 7.217848
vt 14.76378 7.217848
vt 19.68504 5.420564E-23
vt -19.68504 7.217848
vt -19.68504 7.105427E-15
vt -19.68504 5.420759E-23
vt 19.68504 7.105427E-15
vt 19.68504 19.68504
vt 19.68504 -19.68504
vt -19.68504 19.68504
vt 14.76378 -19.68504
vt 9.842513 -19.68504
vt -9.842526 -19.68504
vt -14.76378 -19.68504
vt -19.68504 -19.68504
vt -14.76378 14.76378
vt -14.76378 -19.68504
vt 14.76378 14.76378
vt 14.76378 -19.68504
vt -14.76378 -2.13974E-13
vt -19.68504 -1.033517E-13
vt -14.76378 7.217848
vt 19.68504 8.267716
vt 19.68504 5.971128
vt -9.84252 8.267716
vt -9.84252 5.971128
vt 9.842526 5.971128
vt -9.842513 5.971128
vt 9.842526 8.267716
vt -9.842513 8.267716
vt -19.68504 5.971128
vt -19.68504 8.267716
vt 9.84252 5.971128
vt 9.84252 8.267716
vt -9.842513 -2.13974E-13
vt -14.76378 8.267716
vt 9.842526 -1.336763E-13
vt 14.76378 8.267716
vt 9.842526 -19.68504
vt 9.842526 9.84252
vt -9.842513 9.84252
vt -9.842513 -19.68504
vt 14.76378 7.217848
vt 14.76378 8.267716
vt 14.76378 7.217848
vt -14.76378 7.217848
vt 14.76378 8.267716
vt -14.76378 8.267716
vt -14.76378 8.267716
vt -14.76378 7.217848

usemtl grass

f 3/3/1 2/2/1 1/1/1
f 2/2/1 3/3/1 4/4/1
f 7/6/2 6/5/2 5/3/2
f 6/5/2 7/6/2 8/7/2
f 9/9/3 3/6/3 1/8/3
f 3/6/3 9/9/3 10/3/3
f 7/3/4 9/7/4 8/9/4
f 9/7/4 7/3/4 10/6/4
f 9/12/5 6/11/5 8/10/5
f 6/11/5 9/12/5 11/13/5
f 11/13/5 9/12/5 12/14/5
f 12/14/5 9/12/5 13/15/5
f 13/15/5 9/12/5 2/16/5
f 2/16/5 9/12/5 1/17/5
f 7/12/6 14/18/6 10/10/6
f 14/18/6 7/12/6 5/17/6
f 14/18/6 5/17/6 15/19/6
f 10/10/6 14/18/6 16/20/6
f 10/10/6 16/20/6 4/21/6
f 10/10/6 4/21/6 3/11/6
f 15/24/1 6/23/1 11/22/1
f 6/23/1 15/24/1 5/6/1

usemtl pavement

f 19/27/2 18/26/2 17/25/2
f 18/26/2 19/27/2 20/28/2
f 19/31/1 21/30/1 20/29/1
f 21/30/1 19/31/1 22/32/1
f 21/35/3 24/34/3 23/33/3
f 24/34/3 21/35/3 22/36/3
f 23/30/1 11/22/1 12/37/1
f 11/22/1 23/30/1 15/24/1
f 15/24/1 23/30/1 24/32/1
f 15/24/1 24/32/1 25/38/1
f 4/4/1 13/39/1 2/2/1
f 13/39/1 4/4/1 18/29/1
f 18/29/1 4/4/1 17/31/1
f 17/31/1 4/4/1 26/40/1
f 26/21/6 19/42/6 17/41/6
f 19/42/6 26/21/6 27/20/6
f 27/20/6 22/43/6 19/42/6
f 22/43/6 27/20/6 28/18/6
f 28/18/6 24/44/6 22/43/6
f 24/44/6 28/18/6 25/19/6
f 16/45/3 26/34/3 4/6/3
f 26/34/3 16/45/3 27/46/3
f 28/49/4 16/48/4 14/47/4
f 16/48/4 28/49/4 27/50/4
f 28/51/2 15/3/2 25/25/2
f 15/3/2 28/51/2 14/52/2

usemtl water

f 23/44/6 20/42/6 21/43/6
f 20/42/6 23/44/6 18/41/6
f 18/29/1 12/37/1 13/39/1
f 12/37/1 18/29/1 23/30/1

