# Created by Kenney (www.kenney.nl)

mtllib tile235.mtl

g tile235

v -0.2910182 0 -0.2910182
v -0.1495906 1.68446E-15 -0.1965193
v -0.2910182 0.21 -0.2910182
v -0.1495906 0.21 -0.1965193
v 0.03480698 0.21 -0.03480698
v 0.03480698 1.925097E-15 -0.03480698
v 0.1965193 0.21 0.1495906
v 0.1965193 2.165734E-15 0.1495906
v 0.09735011 0.2 0.2256857
v 0.09735011 0.21 0.2256857
v 0.1410039 0.2 0.2910182
v 0.1410039 0.21 0.2910182
v -0.05358137 0.2 0.05358137
v -0.2256857 0.2 -0.09735011
v -0.05358137 0.21 0.05358137
v -0.2256857 0.21 -0.09735011
v 0.2910182 0.21 0.2910182
v -0.2910182 0.21 -0.1410039
v -0.2910182 0.2 -0.1410039
v -0.2910182 4.379596E-14 -0.1410039
v -0.2910182 3.296729E-14 0.2910182
v 0.1410039 4.04872E-14 0.2910182
v 0.2910182 0 0.2910182
v -0.2910182 0.2 0.2910182

vn 0.1851901 0 -0.2771565
vn 0.2029205 0 -0.2644511
vn 0.2357023 0 -0.2357023
vn 0.2644511 0 -0.2029205
vn -0.2644511 0 0.2029205
vn -0.2771565 0 0.1851901
vn -0.2357023 0 0.2357023
vn -0.2029205 0 0.2644511
vn 0 0.3333333 0
vn -0.1851901 0 0.2771565
vn 0 -0.3333333 0
vn -0.3333333 0 0
vn 0 0 0.3333333
vn 0.2771565 0 -0.1851901

vt 47.67566 4.795776E-14
vt 27.58586 2.469097E-13
vt 47.67566 24.80315
vt 27.58586 24.80315
vt 0.3802484 24.80315
vt 0.3802484 2.704902E-13
vt -28.58767 24.80315
vt -28.58767 2.989119E-13
vt 28.55145 23.62205
vt 28.55145 24.80315
vt 37.83194 23.62205
vt 37.83194 24.80315
vt 28.58767 2.422203E-13
vt -0.3802484 2.70642E-13
vt 28.58767 24.80315
vt -0.3802484 24.80315
vt -0.585349 23.62205
vt -27.62208 23.62205
vt -0.585349 24.80315
vt -27.62208 24.80315
vt 0.585349 23.62205
vt 0.585349 24.80315
vt 27.62208 23.62205
vt 27.62208 24.80315
vt -34.37223 34.37223
vt -16.654 34.37223
vt -23.21094 17.66817
vt -4.111061 -4.111061
vt -11.49804 26.6558
vt 6.328508 6.328508
vt 17.66817 -23.21094
vt 26.6558 -11.49804
vt 34.37223 -34.37223
vt 34.37223 -16.654
vt -37.83194 23.62205
vt -37.83194 24.80315
vt -28.55145 23.62205
vt -28.55145 24.80315
vt -34.37223 -16.654
vt -17.66817 -23.21094
vt -34.37223 -34.37223
vt 4.111061 -4.111061
vt 16.654 34.37223
vt 23.21094 17.66817
vt 34.37223 34.37223
vt -34.37223 -1.386333E-13
vt -34.37223 24.80315
vt -16.654 5.234785E-12
vt -16.654 24.80315
vt -16.654 23.62205
vt 34.37223 0
vt 16.654 4.781953E-12
vt 34.37223 24.80315
vt 16.654 23.62205
vt 16.654 24.80315
vt -27.58586 24.80315
vt -27.58586 3.281911E-13
vt -47.67566 24.80315
vt -47.67566 7.239568E-14
vt -34.37223 3.893774E-12
vt -34.37223 23.62205
vt 34.37223 3.955808E-12
vt 34.37223 23.62205

usemtl pavement

f 3/3/1 2/2/2 1/1/1
f 2/2/2 3/3/1 4/4/2
f 7/7/4 6/6/3 5/5/3
f 6/6/3 7/7/4 8/8/4
f 11/11/6 10/10/5 9/9/5
f 10/10/5 11/11/6 12/12/6
f 4/15/2 6/14/3 2/13/2
f 6/14/3 4/15/2 5/16/3
f 15/19/7 14/18/8 13/17/7
f 14/18/8 15/19/7 16/20/8
f 9/23/5 15/22/7 13/21/7
f 15/22/7 9/23/5 10/24/5
f 7/27/9 12/26/9 17/25/9
f 12/26/9 7/27/9 5/28/9
f 12/26/9 5/28/9 10/29/9
f 10/29/9 5/28/9 15/30/9
f 15/30/9 5/28/9 4/31/9
f 15/30/9 4/31/9 16/32/9
f 16/32/9 4/31/9 3/33/9
f 16/32/9 3/33/9 18/34/9
f 14/37/8 18/36/10 19/35/10
f 18/36/10 14/37/8 16/38/8
f 1/41/11 2/40/11 20/39/11
f 2/40/11 21/25/11 20/39/11
f 6/42/11 21/25/11 2/40/11
f 6/42/11 22/43/11 21/25/11
f 8/44/11 22/43/11 6/42/11
f 22/43/11 8/44/11 23/45/11
f 20/48/12 3/47/12 1/46/12
f 3/47/12 20/48/12 18/49/12
f 18/49/12 20/48/12 19/50/12
f 17/53/13 22/52/13 23/51/13
f 22/52/13 17/53/13 11/54/13
f 11/54/13 17/53/13 12/55/13
f 17/58/14 8/57/4 7/56/4
f 8/57/4 17/58/14 23/59/14

usemtl asphalt

f 22/52/13 24/61/13 21/60/13
f 24/61/13 22/52/13 11/54/13
f 9/29/9 24/45/9 11/26/9
f 24/45/9 9/29/9 13/30/9
f 24/45/9 13/30/9 14/32/9
f 24/45/9 14/32/9 19/34/9
f 21/62/12 19/50/12 20/48/12
f 19/50/12 21/62/12 24/63/12

