# Created by Kenney (www.kenney.nl)

mtllib tile204.mtl

g tile204

v 0.3125 0.41 0.4375
v -0.1875 0.41 0.4375
v 0.3102242 0.41 0.338137
v 0.294239 0.41 0.2400419
v 0.2648512 0.41 0.145097
v 0.2226247 0.41 0.05512416
v 0.1683698 0.41 -0.02815
v 0.1031276 0.41 -0.1031276
v 0.02815 0.41 -0.1683698
v -0.05512416 0.41 -0.2226247
v -0.145097 0.41 -0.2648512
v -0.2400419 0.41 -0.294239
v -0.1905494 0.41 0.4052131
v -0.1976218 0.41 0.3735629
v -0.2086056 0.41 0.343049
v -0.2233278 0.41 0.3141525
v -0.2415559 0.41 0.2873293
v -0.338137 0.41 -0.3102242
v -0.2630025 0.41 0.2630025
v -0.2873293 0.41 0.2415559
v -0.3141525 0.41 0.2233278
v -0.343049 0.41 0.2086056
v -0.4375 0.41 -0.3125
v -0.3735629 0.41 0.1976218
v -0.4052131 0.41 0.1905494
v -0.4375 0.41 0.1875
v -0.4375 0.31 -0.3125
v -0.4375 0.31 0.1875
v 0.3125 0.31 0.4375
v -0.1875 0.31 0.4375
v -0.338137 0.42 -0.3102242
v -0.4375 0.42 -0.3125
v -0.2400419 0.42 -0.294239
v -0.145097 0.42 -0.2648512
v -0.05512416 0.42 -0.2226247
v 0.02815 0.42 -0.1683698
v 0.4375 0.21 0.4375
v 0.4300143 0.21 0.3232896
v -0.3125 0.21 0.4375
v 0.4076851 0.21 0.2110333
v 0.3708946 0.21 0.102652
v 0.3202722 0.21 -9.240467E-14
v 0.01830582 0.21 0.1584709
v 0.1508884 0.21 0.02588835
v 0.2566842 0.21 -0.09516625
v 0.1812184 0.21 -0.1812184
v -0.1584709 0.21 -0.01830583
v -0.2110333 0.21 -0.4076851
v -0.3232896 0.21 -0.4300143
v -0.3135694 0.21 0.4211842
v -0.3167593 0.21 0.4051476
v -0.3220151 0.21 0.3896645
v -0.3292468 0.21 0.375
v -0.4375 0.21 -0.4375
v -0.3383308 0.21 0.3614048
v -0.3491116 0.21 0.3491116
v -0.3614048 0.21 0.3383308
v -0.375 0.21 0.3292468
v -0.3896645 0.21 0.3220151
v -0.4051476 0.21 0.3167593
v -0.4211842 0.21 0.3135694
v -0.4375 0.21 0.3125
v -0.102652 0.21 -0.3708946
v -0.02588835 0.21 -0.1508884
v -2.887646E-14 0.21 -0.3202722
v 0.09516625 0.21 -0.2566842
v -0.1905494 0.42 0.4052131
v -0.1875 0.42 0.4375
v -0.2415559 0.42 0.2873293
v -0.2233278 0.42 0.3141525
v 0.1683698 0.42 -0.02815
v 0.2226247 0.42 0.05512416
v 0.2648512 0.42 0.145097
v 0.294239 0.42 0.2400419
v -0.2086056 0.42 0.343049
v -0.1976218 0.42 0.3735629
v -0.343049 0.42 0.2086056
v -0.3141525 0.42 0.2233278
v -0.2873293 0.42 0.2415559
v -0.4375 0.42 0.1875
v -0.4052131 0.42 0.1905494
v 0.1031276 0.42 -0.1031276
v -0.3735629 0.42 0.1976218
v 0.4375 0.42 0.4375
v 0.3125 0.42 0.4375
v 0.4300143 0.42 0.3232896
v 0.4076851 0.42 0.2110333
v 0.3708946 0.42 0.102652
v 0.3202722 0.42 -9.240467E-14
v 0.3102242 0.42 0.338137
v 0.2566842 0.42 -0.09516625
v 0.1812184 0.42 -0.1812184
v 0.09516625 0.42 -0.2566842
v -2.887646E-14 0.42 -0.3202722
v -0.102652 0.42 -0.3708946
v -0.2110333 0.42 -0.4076851
v -0.3232896 0.42 -0.4300143
v -0.4375 0.42 -0.4375
v -0.2630025 0.42 0.2630025
v -0.3167593 0.42 0.4051476
v -0.3135694 0.42 0.4211842
v -0.3491116 0.42 0.3491116
v -0.3383308 0.42 0.3614048
v -0.3896645 0.42 0.3220151
v -0.4051476 0.42 0.3167593
v -0.3220151 0.42 0.3896645
v -0.375 0.42 0.3292468
v -0.3614048 0.42 0.3383308
v -0.3125 0.42 0.4375
v -0.3292468 0.42 0.375
v -0.4211842 0.42 0.3135694
v -0.4375 0.42 0.3125
v 0.1508884 0 0.02588835
v -0.02588835 4.812743E-16 -0.1508884
v 0.01830582 0 0.1584709
v -0.1584709 2.406371E-16 -0.01830583

vn 0 0.3333333 0
vn -0.3333333 0 0
vn 0 0 0.3333333
vn -0.0306958 0 0.331917
vn -0.007632678 0 0.3332459
vn -0.07626967 0 0.3244905
vn -0.12038 0 0.3108372
vn -0.1621803 0 0.2912193
vn -0.2008685 0 0.266013
vn 0 -0.3333333 0
vn 0.3292333 0 -0.05212025
vn 0.3318566 0 -0.0313422
vn 0.2633881 0 -0.2042984
vn 0.2869191 0 -0.1696719
vn -0.266013 0 0.2008685
vn -0.2912193 0 0.1621803
vn -0.3108372 0 0.12038
vn -0.3244905 0 0.07626967
vn 0.3059241 0 -0.1323689
vn 0.3201035 0 -0.09297794
vn 0.1323689 0 -0.3059241
vn 0.1696719 0 -0.2869191
vn 0.2042984 0 -0.2633881
vn 0.0313422 0 -0.3318566
vn 0.05212025 0 -0.3292333
vn -0.2357023 0 0.2357023
vn 0.09297794 0 -0.3201035
vn 0.2357023 0 -0.2357023
vn -0.331917 0 0.0306958
vn -0.3332459 0 0.007632678
vn -0.3219753 0 0.08627301
vn -0.3304816 0 0.04350873
vn -0.2644511 0 0.2029205
vn -0.1275612 0 0.3079599
vn -0.08627301 0 0.3219753
vn -0.3079599 0 0.1275612
vn -0.1666667 0 0.2886752
vn -0.2029205 0 0.2644511
vn -0.3326197 0 0.02180104
vn -0.2886752 0 0.1666667
vn -0.04350873 0 0.3304816
vn -0.02180104 0 0.3326197
vn 0.1666667 0 -0.2886752
vn 0.2029205 0 -0.2644511
vn 0.3304816 0 -0.04350873
vn 0.3326197 0 -0.02180104
vn 0.08627301 0 -0.3219753
vn 0.1275612 0 -0.3079599
vn 0.3219753 0 -0.08627301
vn 0.2644511 0 -0.2029205
vn 0.2886752 0 -0.1666667
vn 0.04350873 0 -0.3304816
vn 0.02180104 0 -0.3326197
vn 0.3079599 0 -0.1275612
vn -0.2357023 0 -0.2357023
vn 0.2357023 0 0.2357023

vt -36.90945 51.67323
vt 22.14567 51.67323
vt -36.64065 39.93744
vt -34.75264 28.3514
vt -31.28164 17.13744
vt -26.29425 6.510728
vt -19.88619 -3.324803
vt -12.18042 -12.18042
vt -3.324803 -19.88619
vt 6.510728 -26.29425
vt 17.13744 -31.28164
vt 28.3514 -34.75264
vt 22.50583 47.85981
vt 23.34115 44.1216
vt 24.63846 40.51759
vt 26.3773 37.10462
vt 28.53023 33.93653
vt 39.93744 -36.64065
vt 31.06329 31.06329
vt 33.93653 28.53023
vt 37.10462 26.3773
vt 40.51759 24.63846
vt 51.67323 -36.90945
vt 44.1216 23.34115
vt 47.85981 22.50583
vt 51.67323 22.14567
vt -36.90945 36.61417
vt -36.90945 48.4252
vt 22.14567 36.61417
vt 22.14567 48.4252
vt 36.90945 36.61417
vt -22.14567 36.61417
vt 36.90945 48.4252
vt -22.14567 48.4252
vt -40.76597 48.4252
vt -52.50483 48.4252
vt -40.76597 49.6063
vt -52.50483 49.6063
vt -33.57173 48.4252
vt -45.31059 48.4252
vt -33.57173 49.6063
vt -45.31059 49.6063
vt -25.62065 48.4252
vt -37.35951 48.4252
vt -25.62065 49.6063
vt -37.35951 49.6063
vt -17.06529 48.4252
vt -28.80415 48.4252
vt -17.06529 49.6063
vt -28.80415 49.6063
vt -8.069839 48.4252
vt -19.8087 48.4252
vt -8.069839 49.6063
vt -19.8087 49.6063
vt 51.67323 51.67323
vt 50.78909 38.18381
vt 48.15178 24.9252
vt 43.80645 12.12425
vt 37.82743 -1.077102E-11
vt 2.162105 18.71703
vt 17.82146 3.057679
vt 30.31703 -11.24011
vt 21.40375 -21.40375
vt -18.71703 -2.162106
vt -24.9252 -48.15178
vt -38.18381 -50.78909
vt -37.03576 49.74617
vt -37.41251 47.85208
vt -38.03328 46.02337
vt -38.88742 44.29134
vt -51.67323 -51.67323
vt -39.96033 42.68561
vt -41.23366 41.23366
vt -42.68561 39.96033
vt -44.29134 38.88742
vt -46.02337 38.03328
vt -47.85208 37.41251
vt -49.74617 37.03576
vt -51.67323 36.90945
vt -12.12425 -43.80645
vt -3.057679 -17.82146
vt -3.535195E-12 -37.82743
vt 11.24011 -30.31703
vt -45.53162 49.6063
vt -45.53162 48.4252
vt -49.36202 49.6063
vt -49.36202 48.4252
vt -12.03283 49.6063
vt -12.03283 48.4252
vt -15.86323 49.6063
vt -15.86323 48.4252
vt 8.069839 48.4252
vt 8.069839 49.6063
vt 19.8087 48.4252
vt 19.8087 49.6063
vt 25.62065 48.4252
vt 25.62065 49.6063
vt 37.35951 48.4252
vt 37.35951 49.6063
vt -29.77817 49.6063
vt -29.77817 48.4252
vt -33.60856 49.6063
vt -33.60856 48.4252
vt 24.91732 48.4252
vt 21.08692 48.4252
vt 24.91732 49.6063
vt 21.08692 49.6063
vt 15.86323 48.4252
vt 12.03283 48.4252
vt 15.86323 49.6063
vt 12.03283 49.6063
vt 49.36202 48.4252
vt 45.53162 48.4252
vt 49.36202 49.6063
vt 45.53162 49.6063
vt -1.193096 48.4252
vt -1.193096 49.6063
vt 10.54577 48.4252
vt 10.54577 49.6063
vt 33.60856 48.4252
vt 29.77817 48.4252
vt 33.60856 49.6063
vt 29.77817 49.6063
vt -51.67323 51.67323
vt -50.78909 38.18381
vt -48.15178 24.9252
vt -43.80645 12.12425
vt -37.82743 -1.082197E-11
vt -30.31703 -11.24011
vt -21.40375 -21.40375
vt -11.24011 -30.31703
vt 3.463187E-12 -37.82743
vt 12.12425 -43.80645
vt 24.9252 -48.15178
vt 38.18381 -50.78909
vt 51.67323 -51.67323
vt 6.589116 48.4252
vt 2.758723 48.4252
vt 6.589116 49.6063
vt 2.758723 49.6063
vt 1.193096 48.4252
vt -10.54577 48.4252
vt 1.193096 49.6063
vt -10.54577 49.6063
vt 17.06529 48.4252
vt 17.06529 49.6063
vt 28.80415 48.4252
vt 28.80415 49.6063
vt 40.76597 48.4252
vt 40.76597 49.6063
vt 52.50483 48.4252
vt 52.50483 49.6063
vt -37.96947 49.6063
vt -37.96947 48.4252
vt -41.79987 49.6063
vt -41.79987 48.4252
vt -2.758723 49.6063
vt -2.758723 48.4252
vt -6.589116 49.6063
vt -6.589116 48.4252
vt 33.57173 48.4252
vt 33.57173 49.6063
vt 45.31059 48.4252
vt 45.31059 49.6063
vt -21.08692 49.6063
vt -21.08692 48.4252
vt -24.91732 49.6063
vt -24.91732 48.4252
vt 41.79987 48.4252
vt 37.96947 48.4252
vt 41.79987 49.6063
vt 37.96947 49.6063
vt 39.6338 24.80315
vt 39.6338 49.6063
vt 41.56499 24.80315
vt 41.56499 49.6063
vt 3.813866 24.80315
vt 3.813866 49.6063
vt 5.74506 24.80315
vt 5.74506 49.6063
vt -31.35552 24.80315
vt -33.28672 24.80315
vt -31.35552 49.6063
vt -33.28672 49.6063
vt 31.35552 24.80315
vt 31.35552 49.6063
vt 33.28672 24.80315
vt 33.28672 49.6063
vt -22.52423 24.80315
vt -24.45542 24.80315
vt -22.52423 49.6063
vt -24.45542 49.6063
vt -3.813866 24.80315
vt -5.74506 24.80315
vt -3.813866 49.6063
vt -5.74506 49.6063
vt 47.2174 24.80315
vt 47.2174 49.6063
vt 49.1486 24.80315
vt 49.1486 49.6063
vt -13.29101 24.80315
vt -15.22221 24.80315
vt -13.29101 49.6063
vt -15.22221 49.6063
vt 36.90945 51.67323
vt 37.03576 49.74617
vt 37.41251 47.85208
vt 38.03328 46.02337
vt 38.88742 44.29134
vt 39.96033 42.68561
vt 41.23366 41.23366
vt 42.68561 39.96033
vt 44.29134 38.88742
vt 46.02337 38.03328
vt 47.85208 37.41251
vt 49.74617 37.03576
vt 51.67323 36.90945
vt 13.29101 24.80315
vt 13.29101 49.6063
vt 15.22221 24.80315
vt 15.22221 49.6063
vt -39.6338 24.80315
vt -41.56499 24.80315
vt -39.6338 49.6063
vt -41.56499 49.6063
vt -49.1486 24.80315
vt -49.1486 49.6063
vt -47.2174 24.80315
vt -47.2174 49.6063
vt 22.52423 24.80315
vt 22.52423 49.6063
vt 24.45542 24.80315
vt 24.45542 49.6063
vt 21.01579 24.80315
vt 7.49743 24.80315
vt 21.01579 49.6063
vt 7.49743 49.6063
vt -36.90945 24.80315
vt 51.67323 24.80315
vt 51.67323 49.6063
vt 36.90945 49.6063
vt -36.90945 49.6063
vt -22.14567 49.6063
vt -41.42382 49.6063
vt -41.42382 24.80315
vt -54.94218 49.6063
vt -54.94218 24.80315
vt 39.0803 24.80315
vt 25.56194 24.80315
vt 39.0803 49.6063
vt 25.56194 49.6063
vt -33.84021 49.6063
vt -33.84021 24.80315
vt -47.35858 49.6063
vt -47.35858 24.80315
vt -7.49743 49.6063
vt -7.49743 24.80315
vt -21.01579 49.6063
vt -21.01579 24.80315
vt 11.53864 24.80315
vt -1.979718 24.80315
vt 11.53864 49.6063
vt -1.979718 49.6063
vt 41.42382 24.80315
vt 41.42382 49.6063
vt 54.94218 24.80315
vt 54.94218 49.6063
vt 1.979718 49.6063
vt 1.979718 24.80315
vt -11.53864 49.6063
vt -11.53864 24.80315
vt -51.67323 49.6063
vt -51.67323 24.80315
vt 36.90945 24.80315
vt 22.14567 49.6063
vt 47.35858 24.80315
vt 33.84021 24.80315
vt 47.35858 49.6063
vt 33.84021 49.6063
vt -25.56194 49.6063
vt -25.56194 24.80315
vt -39.0803 49.6063
vt -39.0803 24.80315
vt -16.73064 49.6063
vt -16.73064 24.80315
vt -30.24901 49.6063
vt -30.24901 24.80315
vt 30.24901 24.80315
vt 16.73064 24.80315
vt 30.24901 49.6063
vt 16.73064 49.6063
vt 11.7061 9.629042E-14
vt -10.43957 1.247121E-13
vt 11.7061 24.80315
vt -10.43957 24.80315
vt 14.76378 24.80315
vt 14.76378 4.731931E-14
vt -14.76378 24.80315
vt -14.76378 -9.524105E-15
vt 10.43957 -6.786871E-14
vt -11.7061 -6.786871E-14
vt 10.43957 24.80315
vt -11.7061 24.80315
vt -14.76378 3.910128E-14
vt 14.76378 1.067957E-14

usemtl asphalt

f 3/3/1 2/2/1 1/1/1
f 2/2/1 3/3/1 4/4/1
f 2/2/1 4/4/1 5/5/1
f 2/2/1 5/5/1 6/6/1
f 2/2/1 6/6/1 7/7/1
f 2/2/1 7/7/1 8/8/1
f 2/2/1 8/8/1 9/9/1
f 2/2/1 9/9/1 10/10/1
f 2/2/1 10/10/1 11/11/1
f 2/2/1 11/11/1 12/12/1
f 2/2/1 12/12/1 13/13/1
f 13/13/1 12/12/1 14/14/1
f 14/14/1 12/12/1 15/15/1
f 15/15/1 12/12/1 16/16/1
f 16/16/1 12/12/1 17/17/1
f 17/17/1 12/12/1 18/18/1
f 17/17/1 18/18/1 19/19/1
f 19/19/1 18/18/1 20/20/1
f 20/20/1 18/18/1 21/21/1
f 21/21/1 18/18/1 22/22/1
f 22/22/1 18/18/1 23/23/1
f 22/22/1 23/23/1 24/24/1
f 24/24/1 23/23/1 25/25/1
f 25/25/1 23/23/1 26/26/1
f 28/29/2 23/28/2 27/27/2
f 23/28/2 28/29/2 26/30/2
f 1/33/3 30/32/3 29/31/3
f 30/32/3 1/33/3 2/34/3

usemtl pavement

f 31/37/4 23/36/5 18/35/4
f 23/36/5 31/37/4 32/38/5
f 33/41/6 18/40/4 12/39/6
f 18/40/4 33/41/6 31/42/4
f 34/45/7 12/44/6 11/43/7
f 12/44/6 34/45/7 33/46/6
f 35/49/8 11/48/7 10/47/8
f 11/48/7 35/49/8 34/50/7
f 36/53/9 10/52/8 9/51/9
f 10/52/8 36/53/9 35/54/8
f 39/1/10 38/56/10 37/55/10
f 38/56/10 39/1/10 40/57/10
f 40/57/10 39/1/10 41/58/10
f 41/58/10 39/1/10 42/59/10
f 42/59/10 39/1/10 43/60/10
f 42/59/10 43/60/10 44/61/10
f 42/59/10 44/61/10 45/62/10
f 45/62/10 44/61/10 46/63/10
f 43/60/10 39/1/10 47/64/10
f 47/64/10 39/1/10 48/65/10
f 48/65/10 39/1/10 49/66/10
f 49/66/10 39/1/10 50/67/10
f 49/66/10 50/67/10 51/68/10
f 49/66/10 51/68/10 52/69/10
f 49/66/10 52/69/10 53/70/10
f 49/66/10 53/70/10 54/71/10
f 54/71/10 53/70/10 55/72/10
f 54/71/10 55/72/10 56/73/10
f 54/71/10 56/73/10 57/74/10
f 54/71/10 57/74/10 58/75/10
f 54/71/10 58/75/10 59/76/10
f 54/71/10 59/76/10 60/77/10
f 54/71/10 60/77/10 61/78/10
f 54/71/10 61/78/10 62/79/10
f 63/80/10 47/64/10 48/65/10
f 65/82/10 64/81/10 63/80/10
f 66/83/10 64/81/10 65/82/10
f 66/83/10 44/61/10 64/81/10
f 44/61/10 66/83/10 46/63/10
f 63/80/10 64/81/10 47/64/10
f 68/86/12 13/85/11 67/84/11
f 13/85/11 68/86/12 2/87/12
f 70/90/14 17/89/13 69/88/13
f 17/89/13 70/90/14 16/91/14
f 6/94/16 71/93/15 7/92/15
f 71/93/15 6/94/16 72/95/16
f 4/98/18 73/97/17 5/96/17
f 73/97/17 4/98/18 74/99/18
f 76/102/20 15/101/19 75/100/19
f 15/101/19 76/102/20 14/103/20
f 77/106/21 21/105/22 22/104/21
f 21/105/22 77/106/21 78/107/22
f 78/110/22 20/109/23 21/108/22
f 20/109/23 78/110/22 79/111/23
f 80/114/24 25/113/25 26/112/24
f 25/113/25 80/114/24 81/115/25
f 7/118/15 82/117/26 8/116/26
f 82/117/26 7/118/15 71/119/15
f 83/122/27 22/121/21 24/120/27
f 22/121/21 83/122/27 77/123/21
f 86/125/1 85/1/1 84/124/1
f 85/1/1 86/125/1 87/126/1
f 85/1/1 87/126/1 88/127/1
f 85/1/1 88/127/1 89/128/1
f 85/1/1 89/128/1 90/3/1
f 90/3/1 89/128/1 91/129/1
f 90/3/1 91/129/1 74/4/1
f 74/4/1 91/129/1 73/5/1
f 73/5/1 91/129/1 72/6/1
f 72/6/1 91/129/1 92/130/1
f 72/6/1 92/130/1 71/7/1
f 71/7/1 92/130/1 93/131/1
f 71/7/1 93/131/1 82/8/1
f 82/8/1 93/131/1 36/9/1
f 36/9/1 93/131/1 94/132/1
f 36/9/1 94/132/1 35/10/1
f 35/10/1 94/132/1 95/133/1
f 35/10/1 95/133/1 34/11/1
f 34/11/1 95/133/1 96/134/1
f 34/11/1 96/134/1 33/12/1
f 33/12/1 96/134/1 97/135/1
f 33/12/1 97/135/1 31/18/1
f 31/18/1 97/135/1 98/136/1
f 31/18/1 98/136/1 32/23/1
f 79/139/23 19/138/28 20/137/23
f 19/138/28 79/139/23 99/140/28
f 82/143/26 9/142/9 8/141/26
f 9/142/9 82/143/26 36/144/9
f 5/147/17 72/146/16 6/145/16
f 72/146/16 5/147/17 73/148/17
f 1/151/30 90/150/29 3/149/29
f 90/150/29 1/151/30 85/152/30
f 67/155/11 14/154/20 76/153/20
f 14/154/20 67/155/11 13/156/11
f 69/159/13 19/158/28 99/157/28
f 19/158/28 69/159/13 17/160/13
f 3/163/29 74/162/18 4/161/18
f 74/162/18 3/163/29 90/164/29
f 75/167/19 16/166/14 70/165/14
f 16/166/14 75/167/19 15/168/19
f 81/171/25 24/170/27 25/169/25
f 24/170/27 81/171/25 83/172/27
f 50/175/32 100/174/31 51/173/31
f 100/174/31 50/175/32 101/176/32
f 55/179/33 102/178/26 56/177/26
f 102/178/26 55/179/33 103/180/33
f 104/183/34 60/182/35 59/181/34
f 60/182/35 104/183/34 105/184/35
f 51/187/31 106/186/36 52/185/36
f 106/186/36 51/187/31 100/188/31
f 107/191/37 59/190/34 58/189/37
f 59/190/34 107/191/37 104/192/34
f 102/195/26 57/194/38 56/193/26
f 57/194/38 102/195/26 108/196/38
f 39/199/39 101/198/32 50/197/32
f 101/198/32 39/199/39 109/200/39
f 108/203/38 58/202/37 57/201/38
f 58/202/37 108/203/38 107/204/37
f 67/13/1 109/205/1 68/2/1
f 109/205/1 67/13/1 76/14/1
f 109/205/1 76/14/1 75/15/1
f 109/205/1 75/15/1 70/16/1
f 109/205/1 70/16/1 69/17/1
f 109/205/1 69/17/1 99/19/1
f 109/205/1 99/19/1 79/20/1
f 109/205/1 79/20/1 78/21/1
f 109/205/1 78/21/1 101/206/1
f 101/206/1 78/21/1 100/207/1
f 100/207/1 78/21/1 77/22/1
f 100/207/1 77/22/1 106/208/1
f 106/208/1 77/22/1 110/209/1
f 110/209/1 77/22/1 103/210/1
f 103/210/1 77/22/1 102/211/1
f 102/211/1 77/22/1 83/24/1
f 102/211/1 83/24/1 108/212/1
f 108/212/1 83/24/1 107/213/1
f 107/213/1 83/24/1 81/25/1
f 107/213/1 81/25/1 104/214/1
f 104/214/1 81/25/1 105/215/1
f 105/215/1 81/25/1 111/216/1
f 111/216/1 81/25/1 80/26/1
f 111/216/1 80/26/1 112/217/1
f 53/220/40 103/219/33 55/218/33
f 103/219/33 53/220/40 110/221/40
f 105/224/35 61/223/41 60/222/35
f 61/223/41 105/224/35 111/225/41
f 61/228/41 112/227/42 62/226/42
f 112/227/42 61/228/41 111/229/41
f 52/232/36 110/231/40 53/230/40
f 110/231/40 52/232/36 106/233/36
f 94/236/43 66/235/44 65/234/43
f 66/235/44 94/236/43 93/237/44
f 37/239/3 29/31/3 39/238/3
f 29/31/3 37/239/3 84/240/3
f 29/31/3 84/240/3 1/33/3
f 1/33/3 84/240/3 85/241/3
f 30/32/3 39/238/3 29/31/3
f 39/238/3 30/32/3 109/242/3
f 109/242/3 30/32/3 2/34/3
f 109/242/3 2/34/3 68/243/3
f 84/246/46 38/245/45 86/244/45
f 38/245/45 84/246/46 37/247/46
f 96/250/47 63/249/48 48/248/47
f 63/249/48 96/250/47 95/251/48
f 86/254/45 40/253/49 87/252/49
f 40/253/49 86/254/45 38/255/45
f 89/258/51 45/257/50 91/256/50
f 45/257/50 89/258/51 42/259/51
f 93/262/44 46/261/28 66/260/44
f 46/261/28 93/262/44 92/263/28
f 54/266/53 97/265/52 49/264/52
f 97/265/52 54/266/53 98/267/53
f 91/270/50 46/269/28 92/268/28
f 46/269/28 91/270/50 45/271/50
f 54/273/2 27/27/2 98/272/2
f 27/27/2 54/273/2 62/274/2
f 27/27/2 62/274/2 28/29/2
f 28/29/2 62/274/2 26/30/2
f 26/30/2 62/274/2 80/275/2
f 80/275/2 62/274/2 112/241/2
f 27/27/2 32/242/2 98/272/2
f 32/242/2 27/27/2 23/28/2
f 97/278/52 48/277/47 49/276/52
f 48/277/47 97/278/52 96/279/47
f 87/282/49 41/281/54 88/280/54
f 41/281/54 87/282/49 40/283/49
f 88/286/54 42/285/51 89/284/51
f 42/285/51 88/286/54 41/287/54
f 95/290/48 65/289/43 63/288/48
f 65/289/43 95/290/48 94/291/43
f 115/60/10 114/81/10 113/61/10
f 114/81/10 115/60/10 116/64/10
f 47/294/55 114/293/55 116/292/55
f 114/293/55 47/294/55 64/295/55
f 44/298/28 114/297/28 64/296/28
f 114/297/28 44/298/28 113/299/28
f 44/302/56 115/301/56 113/300/56
f 115/301/56 44/302/56 43/303/56
f 115/305/26 47/298/26 116/304/26
f 47/298/26 115/305/26 43/296/26

