# Created by Kenney (www.kenney.nl)

mtllib tile106.mtl

g tile106

v 0.5 0.3833333 0.2500001
v -0.5000001 0.2 0.2499999
v 0.5000001 0.3833333 -0.2499999
v -0.5 0.2 -0.2500001
v -0.5000001 0.1 0.2499999
v -0.5 0.1 -0.2500001
v 0.5000001 0.2833333 -0.2499999
v 0.5 0.2833333 0.2500001
v 0.5000001 0 -0.375
v 0.5000001 0.3666667 -0.375
v 0.5000001 4.511946E-17 -0.4999999
v 0.5000001 0.3666667 -0.4999999
v 0.5 4.511946E-17 0.5000001
v 0.5 4.511946E-17 0.3750001
v -0.5000001 3.609557E-16 0.4999999
v -0.5000001 3.609557E-16 0.375
v -0.5 1.353584E-16 -0.3750001
v -0.5 4.511946E-17 -0.5000001
v -0.5000001 0.1833333 0.4999999
v -0.5000001 0.1833333 0.375
v 0.5 0.3666667 0.5000001
v -0.5 0.1833333 -0.5000001
v -0.5 0.1833333 -0.3750001
v 0.5 0.3666667 0.3750001
v 0.5 0.3933333 0.2500001
v -0.5000001 0.21 0.2499999
v -0.5 0.21 -0.2500001
v -0.5 0.21 -0.3750001
v 0.5000001 0.3933333 -0.2499999
v 0.5000001 0.3933333 -0.375
v 0.5 0.3933333 0.3750001
v -0.5000001 0.21 0.375

vn -0.1803279 0.9836066 -1.490116E-08
vn -1 0 -1.192093E-07
vn 1 0 1.192093E-07
vn 0 -1 0
vn -1.192093E-07 0 1
vn 1.192093E-07 0 -1

vt 9.84252 22.08382
vt 9.84252 -17.94243
vt -9.84252 22.08382
vt -9.84252 -17.94243
vt 9.84252 3.937008
vt -9.84252 3.937008
vt 9.84252 7.874016
vt -9.84252 7.874016
vt 9.84252 11.15486
vt -9.84252 11.15486
vt 9.84252 15.09186
vt -9.84252 15.09186
vt 14.76378 1.033517E-13
vt 14.76378 14.4357
vt 19.68504 1.05128E-13
vt 19.68504 14.4357
vt 19.68504 -19.68504
vt 14.76378 -19.68504
vt 19.68504 19.68504
vt 14.76378 19.68504
vt -14.76378 19.68504
vt -14.76378 -19.68504
vt -19.68504 19.68504
vt -19.68504 -19.68504
vt 19.68504 1.421085E-14
vt 14.76378 1.421085E-14
vt 19.68504 7.217848
vt 14.76378 7.217848
vt 19.68504 -1.635863E-13
vt -19.68504 7.217848
vt -19.68504 -1.511518E-13
vt -19.68504 14.4357
vt -19.68504 -8.090498E-14
vt 19.68504 -8.090498E-14
vt -14.76378 -18.06075
vt -19.68504 -18.06075
vt -14.76378 21.96549
vt -19.68504 21.96549
vt 19.68504 21.96549
vt 19.68504 -18.06075
vt 14.76378 21.96549
vt 14.76378 -18.06075
vt -14.76378 1.776357E-15
vt -19.68504 1.776357E-15
vt -14.76378 14.4357
vt -14.76378 1.68037E-13
vt -14.76378 7.217848
vt -19.68504 15.09186
vt -19.68504 15.48556
vt 19.68504 7.874016
vt 19.68504 8.267716
vt -9.84252 -17.87143
vt -14.76378 -17.87143
vt -9.84252 22.15481
vt -14.76378 22.15481
vt 19.68504 15.48556
vt 19.68504 15.09186
vt -19.68504 8.267716
vt -19.68504 7.874016
vt 14.76378 22.15481
vt 14.76378 -17.87143
vt 9.84252 22.15481
vt 9.84252 -17.87143
vt 14.76378 15.48556
vt 9.84252 15.48556
vt -14.76378 15.48556
vt -9.84252 15.48556
vt 14.76378 8.267716
vt 9.84252 8.267716
vt -14.76378 8.267716
vt -9.84252 8.267716

usemtl asphalt

f 3/3/1 2/2/1 1/1/1
f 2/2/1 3/3/1 4/4/1
f 2/7/2 6/6/2 5/5/2
f 6/6/2 2/7/2 4/8/2
f 3/11/3 8/10/3 7/9/3
f 8/10/3 3/11/3 1/12/3

usemtl grass

f 11/15/3 10/14/3 9/13/3
f 10/14/3 11/15/3 12/16/3
f 15/19/4 14/18/4 13/17/4
f 14/18/4 15/19/4 16/20/4
f 14/18/4 16/20/4 17/21/4
f 14/18/4 17/21/4 9/22/4
f 9/22/4 17/21/4 18/23/4
f 9/22/4 18/23/4 11/24/4
f 19/27/2 16/26/2 15/25/2
f 16/26/2 19/27/2 20/28/2
f 19/30/5 13/29/5 21/16/5
f 13/29/5 19/30/5 15/31/5
f 11/33/6 22/27/6 12/32/6
f 22/27/6 11/33/6 18/34/6
f 10/37/1 22/36/1 23/35/1
f 22/36/1 10/37/1 12/38/1
f 24/41/1 19/40/1 21/39/1
f 19/40/1 24/41/1 20/42/1
f 24/45/3 13/44/3 14/43/3
f 13/44/3 24/45/3 21/32/3
f 17/46/2 22/30/2 18/44/2
f 22/30/2 17/46/2 23/47/2

usemtl pavement

f 2/50/6 25/49/6 1/48/6
f 25/49/6 2/50/6 26/51/6
f 29/54/1 28/53/1 27/52/1
f 28/53/1 29/54/1 30/55/1
f 27/58/5 3/57/5 29/56/5
f 3/57/5 27/58/5 4/59/5
f 25/62/1 32/61/1 31/60/1
f 32/61/1 25/62/1 26/63/1
f 23/27/6 30/49/6 10/32/6
f 30/49/6 23/27/6 28/51/6
f 32/58/5 24/16/5 31/56/5
f 24/16/5 32/58/5 20/30/5
f 9/13/3 7/9/3 14/43/3
f 7/9/3 9/13/3 10/14/3
f 7/9/3 10/14/3 3/11/3
f 3/11/3 10/14/3 30/64/3
f 3/11/3 30/64/3 29/65/3
f 8/10/3 14/43/3 7/9/3
f 14/43/3 8/10/3 24/45/3
f 24/45/3 8/10/3 1/12/3
f 24/45/3 1/12/3 31/66/3
f 31/66/3 1/12/3 25/67/3
f 20/28/2 5/5/2 16/26/2
f 5/5/2 20/28/2 2/7/2
f 2/7/2 20/28/2 32/68/2
f 2/7/2 32/68/2 26/69/2
f 6/6/2 16/26/2 5/5/2
f 6/6/2 17/46/2 16/26/2
f 17/46/2 6/6/2 23/47/2
f 23/47/2 6/6/2 4/8/2
f 23/47/2 4/8/2 28/70/2
f 28/70/2 4/8/2 27/71/2

