# Created by Kenney (www.kenney.nl)

mtllib tile162.mtl

g tile162

v -0.5 5.263938E-15 -0.5
v 0.08203647 1.137011E-14 -0.5
v -0.5 0.1 -0.5
v -0.06797788 0.1 -0.5
v 0.08203647 0.1833333 -0.5
v -0.06797788 0.2 -0.5
v 0.08203647 0.21 -0.5
v -0.06797788 0.21 -0.5
v 0.375 0.21 0.5
v 0.25 0.21 0.5
v 0.3589591 0.21 0.2552634
v 0.3111109 0.21 0.01471429
v 0.2322741 0.21 -0.2175314
v 0.2350285 0.21 0.2715791
v 0.1903702 0.21 0.04706667
v 0.1237976 0.21 -0.4375
v 0.1167892 0.21 -0.169696
v 0.01554446 0.21 -0.375
v -0.5 1.109939E-14 -0.01034212
v -0.5 0.1 -0.2485175
v -0.5 0.2 -0.2485175
v -0.5 0.21 -0.2485175
v -0.5 0.21 -0.01034212
v -0.5 0.1833333 -0.01034212
v 0.2350285 0.2 0.2715791
v 0.25 0.2 0.5
v -0.4174682 0.21 -0.125
v -0.4174682 0.2 -0.125
v -0.3451506 0.21 0.02164571
v -0.3451506 0.2 0.02164571
v -0.2925927 0.21 0.1764762
v -0.2925927 0.2 0.1764762
v -0.25 0.21 0.5
v -0.375 0.21 0.5
v -0.2606939 0.21 0.3368423
v -0.3846245 0.21 0.3531581
v -0.4133335 0.21 0.2088286
v -0.4606355 0.21 0.06948113
v -0.4133335 0.1833333 0.2088286
v -0.3846245 0.1833333 0.3531581
v -0.2606939 0.2 0.3368423
v -0.25 0.2 0.5
v 0.1903702 0.2 0.04706667
v -0.4606355 0.1833333 0.06948113
v 0.01554446 0.2 -0.375
v -0.375 0.1833333 0.5
v 0.1167892 0.2 -0.169696
v 0.1237976 0.1833333 -0.4375
v 0.2322741 0.1833333 -0.2175314
v 0.3111109 0.1833333 0.01471429
v 0.3589591 0.1833333 0.2552634
v -0.375 7.58007E-15 0.5
v 0.25 0.09166667 0.5
v 0.375 3.489239E-15 0.5
v 0.375 0.1833333 0.5
v -0.25 0.09166667 0.5
v -0.5 0.2 -0.5
v -0.5 8.662937E-15 0.5
v -0.5 0.1833333 0.5
v 0.5 9.445008E-15 -0.5
v 0.5 0.1833333 -0.5
v 0.5 0 0.5
v 0.5 0.1833333 0.5

vn 0 0 -0.3333333
vn 0 0.3333333 0
vn -0.3333333 0 0
vn -0.3304816 0 0.04350873
vn -0.3326197 0 0.02180104
vn 0.2886752 0 -0.1666667
vn 0.3079599 0 -0.1275612
vn 0.3219753 0 -0.08627301
vn -0.3219753 0 0.08627301
vn 0.3304816 0 -0.04350873
vn 0.3326197 0 -0.02180104
vn -0.3079599 0 0.1275612
vn -0.2771565 0 0.1851901
vn -0.2886752 0 0.1666667
vn 0.2771565 0 -0.1851901
vn -0.2989576 0 0.1474296
vn 0 0 0.3333333
vn 0 -0.3333333 0
vn 0.3333333 0 0

vt 59.05512 5.589504E-13
vt -9.689346 1.280151E-12
vt 59.05512 11.81102
vt 8.028883 11.81102
vt -9.689346 21.65354
vt 8.028883 23.62205
vt -9.689346 24.80315
vt 8.028883 24.80315
vt -44.29134 59.05512
vt -29.52756 59.05512
vt -42.39675 30.14922
vt -36.74538 1.737908
vt -27.43395 -25.69269
vt -27.75927 32.07628
vt -22.48467 5.559056
vt -14.62177 -51.67323
vt -13.794 -20.04284
vt -9.689346 -59.05512
vt -1.835959 -44.29134
vt 8.028883 -59.05512
vt -59.05512 6.667837E-13
vt -59.05512 11.81102
vt -1.22151 1.35601E-12
vt -29.35246 11.81102
vt -29.35246 23.62205
vt -29.35246 24.80315
vt -1.22151 24.80315
vt -1.22151 21.65354
vt 33.82314 23.62205
vt 33.82314 24.80315
vt 60.85987 23.62205
vt 60.85987 24.80315
vt 35.04928 24.80315
vt 35.04928 23.62205
vt 15.73733 24.80315
vt 15.73733 23.62205
vt 10.68284 24.80315
vt 10.68284 23.62205
vt -8.629107 24.80315
vt -8.629107 23.62205
vt 29.52756 59.05512
vt 44.29134 59.05512
vt 30.79062 39.78452
vt 34.55819 20.84365
vt 40.76582 2.55658
vt 45.42809 41.71158
vt 49.30727 -14.76378
vt 48.81891 24.66479
vt 54.40577 8.206433
vt 59.05512 -29.35246
vt 59.05512 -1.22151
vt 14.66677 21.65354
vt 14.66677 24.80315
vt 32.04752 21.65354
vt 32.04752 24.80315
vt -37.68554 24.80315
vt -37.68554 23.62205
vt -56.99748 24.80315
vt -56.99748 23.62205
vt 9.838781 23.62205
vt 9.838781 24.80315
vt 36.87551 23.62205
vt 36.87551 24.80315
vt -9.717242 21.65354
vt -9.717242 24.80315
vt 7.66351 21.65354
vt 7.66351 24.80315
vt -53.56314 23.62205
vt -53.56314 24.80315
vt -35.8069 23.62205
vt -35.8069 24.80315
vt 38.65113 21.65354
vt 38.65113 24.80315
vt 56.03188 21.65354
vt 56.03188 24.80315
vt -14.54523 23.62205
vt -14.54523 24.80315
vt 12.4915 23.62205
vt 12.4915 24.80315
vt -38.91167 23.62205
vt -38.91167 24.80315
vt -11.87494 23.62205
vt -11.87494 24.80315
vt 57.21494 24.80315
vt 57.21494 23.62205
vt 39.66929 24.80315
vt 39.66929 23.62205
vt -27.21495 21.65354
vt -27.21495 24.80315
vt -16.70293 21.65354
vt -16.70293 24.80315
vt -13.70117 24.80315
vt -13.70117 23.62205
vt -33.01312 24.80315
vt -33.01312 23.62205
vt 43.71943 24.80315
vt 43.71943 21.65354
vt 34.8413 24.80315
vt 34.8413 21.65354
vt 39.87727 24.80315
vt 39.87727 21.65354
vt 10.90935 24.80315
vt 10.90935 21.65354
vt -8.873184 24.80315
vt -8.873184 21.65354
vt -37.84111 24.80315
vt -37.84111 21.65354
vt -44.29134 -2.825376E-12
vt 29.52756 10.82677
vt 44.29134 4.121148E-13
vt 44.29134 21.65354
vt 29.52756 23.62205
vt 44.29134 24.80315
vt 29.52756 24.80315
vt -29.52756 10.82677
vt -44.29134 21.65354
vt -29.52756 23.62205
vt -44.29134 24.80315
vt -29.52756 24.80315
vt 15.51083 24.80315
vt 15.51083 21.65354
vt -13.45709 24.80315
vt -13.45709 21.65354
vt -32.85755 24.80315
vt -32.85755 21.65354
vt -61.82547 24.80315
vt -61.82547 21.65354
vt 59.05512 23.62205
vt -59.05512 23.62205
vt 59.05512 -59.05512
vt -59.05512 -2.697479E-12
vt -59.05512 21.65354
vt -59.05512 1.115552E-12
vt 59.05512 59.05512
vt 9.689346 -59.05512
vt -59.05512 -59.05512
vt -59.05512 -1.22151
vt -59.05512 59.05512
vt 59.05512 -1.422217E-26
vt 59.05512 21.65354
vt 59.05512 9.992815E-13
vt -59.05512 -1.162706E-13
vt 59.05512 1.023182E-12

usemtl pavement

f 3/3/1 2/2/1 1/1/1
f 2/2/1 3/3/1 4/4/1
f 2/2/1 4/4/1 5/5/1
f 5/5/1 4/4/1 6/6/1
f 5/5/1 6/6/1 7/7/1
f 7/7/1 6/6/1 8/8/1
f 11/11/2 10/10/2 9/9/2
f 10/10/2 11/11/2 12/12/2
f 10/10/2 12/12/2 13/13/2
f 10/10/2 13/13/2 14/14/2
f 14/14/2 13/13/2 15/15/2
f 15/15/2 13/13/2 16/16/2
f 15/15/2 16/16/2 17/17/2
f 17/17/2 16/16/2 7/18/2
f 17/17/2 7/18/2 18/19/2
f 18/19/2 7/18/2 8/20/2
f 19/23/3 3/22/3 1/21/3
f 3/22/3 19/23/3 20/24/3
f 20/24/3 19/23/3 21/25/3
f 21/25/3 19/23/3 22/26/3
f 22/26/3 19/23/3 23/27/3
f 23/27/3 19/23/3 24/28/3
f 26/31/5 14/30/4 25/29/4
f 14/30/4 26/31/5 10/32/5
f 29/35/7 28/34/6 27/33/6
f 28/34/6 29/35/7 30/36/7
f 31/39/8 30/38/7 29/37/7
f 30/38/7 31/39/8 32/40/8
f 35/43/2 34/42/2 33/41/2
f 34/42/2 35/43/2 31/44/2
f 34/42/2 31/44/2 29/45/2
f 34/42/2 29/45/2 36/46/2
f 36/46/2 29/45/2 27/47/2
f 36/46/2 27/47/2 37/48/2
f 37/48/2 27/47/2 38/49/2
f 38/49/2 27/47/2 22/50/2
f 38/49/2 22/50/2 23/51/2
f 40/54/4 37/53/9 39/52/9
f 37/53/9 40/54/4 36/55/4
f 33/58/11 41/57/10 35/56/10
f 41/57/10 33/58/11 42/59/11
f 25/62/4 15/61/9 43/60/9
f 15/61/9 25/62/4 14/63/4
f 39/66/9 38/65/12 44/64/12
f 38/65/12 39/66/9 37/67/9
f 45/70/14 8/69/13 6/68/13
f 8/69/13 45/70/14 18/71/14
f 46/74/5 36/73/4 40/72/4
f 36/73/4 46/74/5 34/75/5
f 43/78/9 17/77/12 47/76/12
f 17/77/12 43/78/9 15/79/9
f 47/82/12 18/81/14 45/80/14
f 18/81/14 47/82/12 17/83/12
f 27/86/6 21/85/15 22/84/15
f 21/85/15 27/86/6 28/87/6
f 44/90/12 23/89/16 24/88/16
f 23/89/16 44/90/12 38/91/12
f 35/94/10 32/93/8 31/92/8
f 32/93/8 35/94/10 41/95/10
f 16/98/6 5/97/15 7/96/15
f 5/97/15 16/98/6 48/99/6
f 13/102/7 48/101/6 16/100/6
f 48/101/6 13/102/7 49/103/7
f 11/106/10 50/105/8 12/104/8
f 50/105/8 11/106/10 51/107/10
f 54/110/17 53/109/17 52/108/17
f 53/109/17 54/110/17 55/111/17
f 53/109/17 55/111/17 26/112/17
f 26/112/17 55/111/17 9/113/17
f 26/112/17 9/113/17 10/114/17
f 56/115/17 52/108/17 53/109/17
f 52/108/17 56/115/17 46/116/17
f 46/116/17 56/115/17 42/117/17
f 46/116/17 42/117/17 34/118/17
f 34/118/17 42/117/17 33/119/17
f 12/122/8 49/121/7 13/120/7
f 49/121/7 12/122/8 50/123/8
f 9/126/11 51/125/10 11/124/10
f 51/125/10 9/126/11 55/127/11

usemtl asphalt

f 57/128/1 4/4/1 3/3/1
f 57/128/1 4/4/1 3/3/1
f 4/4/1 57/128/1 6/6/1
f 4/4/1 57/128/1 6/6/1
f 26/112/17 56/115/17 53/109/17
f 56/115/17 26/112/17 42/117/17
f 20/24/3 57/129/3 3/22/3
f 57/129/3 20/24/3 21/25/3
f 25/14/2 42/41/2 26/10/2
f 42/41/2 25/14/2 43/15/2
f 42/41/2 43/15/2 47/17/2
f 42/41/2 47/17/2 45/19/2
f 42/41/2 45/19/2 6/20/2
f 42/41/2 6/20/2 41/43/2
f 41/43/2 6/20/2 32/44/2
f 32/44/2 6/20/2 57/130/2
f 32/44/2 57/130/2 30/45/2
f 30/45/2 57/130/2 28/47/2
f 28/47/2 57/130/2 21/50/2

usemtl grass

f 46/116/17 58/131/17 52/108/17
f 58/131/17 46/116/17 59/132/17
f 2/2/1 61/132/1 60/133/1
f 61/132/1 2/2/1 5/5/1
f 54/42/18 60/130/18 62/134/18
f 60/130/18 54/42/18 2/135/18
f 2/135/18 54/42/18 52/9/18
f 2/135/18 52/9/18 1/136/18
f 1/136/18 52/9/18 19/137/18
f 19/137/18 52/9/18 58/138/18
f 63/140/17 54/110/17 62/139/17
f 54/110/17 63/140/17 55/111/17
f 40/46/2 59/134/2 46/42/2
f 59/134/2 40/46/2 39/48/2
f 59/134/2 39/48/2 44/49/2
f 59/134/2 44/49/2 24/51/2
f 63/132/19 60/141/19 61/140/19
f 60/141/19 63/132/19 62/142/19
f 61/136/2 55/9/2 63/138/2
f 55/9/2 61/136/2 51/11/2
f 51/11/2 61/136/2 50/12/2
f 50/12/2 61/136/2 49/13/2
f 49/13/2 61/136/2 48/16/2
f 48/16/2 61/136/2 5/18/2
f 58/143/3 24/28/3 19/23/3
f 24/28/3 58/143/3 59/140/3

