# Created by Kenney (www.kenney.nl)

mtllib tile203.mtl

g tile203

v 0.5 0.1833333 0.5000001
v 0.5 4.511946E-17 0.5000001
v 0.375 0.1833333 0.5000001
v 0.375 4.511946E-17 0.5000001
v 0.5000001 0 -0.2499999
v 0.5000001 0.1516667 -0.2499999
v 0.5000001 4.511946E-17 -0.4999999
v 0.5000001 0.1833333 -0.4999999
v 0.5000001 0.1833333 -0.2499999
v -0.5000001 0 0.2499999
v -0.5000001 0.1516667 0.2499999
v -0.5000001 4.511946E-17 0.4999999
v -0.5000001 0.1833333 0.4999999
v -0.5000001 0.1833333 0.2499999
v -0.3750001 4.511946E-17 0.5
v -0.2500001 4.511946E-17 0.5
v 0.25 4.511946E-17 0.5000001
v 0.5 0 0.2500001
v -0.5 0 -0.2500001
v -0.5 4.511946E-17 -0.5000001
v -0.375 4.511946E-17 -0.5000001
v 0.3750001 4.511946E-17 -0.5
v 0.3750001 0.1833333 -0.2499999
v -0.5 0.1516667 -0.2500001
v 0.2500001 0.1833333 -0.25
v -0.25 0.1833333 -0.2500001
v -0.375 0.1833333 -0.2500001
v -0.5 0.1833333 -0.2500001
v 0.5 0.1516667 0.2500001
v 0.5 0.1833333 0.2500001
v 0.375 0.1833333 0.2500001
v 0.25 0.1833333 0.2500001
v -0.2500001 0.1833333 0.25
v -0.3750001 0.1833333 0.2499999
v -0.5 0.1833333 -0.5000001
v -0.375 0.1833333 -0.5000001
v -0.3750001 0.1833333 0.5
v 0.3750001 0.1833333 -0.5
v 0.25 0.1833333 0.5000001
v 0.25 0.315 0.2500001
v 0.25 0.2 0.5000001
v -0.25 0.1833333 -0.5000001
v -0.25 0.315 -0.2500001
v -0.25 0.2 -0.5000001
v -0.2500001 0.2 0.5
v -0.2500001 0.21 0.5
v -0.2500001 0.315 0.25
v -0.2500001 0.325 0.25
v -0.25 0.325 -0.2500001
v -0.25 0.21 -0.5000001
v -0.3750001 0.21 0.5
v -0.3750001 0.325 0.2499999
v -0.375 0.325 -0.2500001
v -0.375 0.21 -0.5000001
v 0.2500001 0.315 -0.25
v 0.2500001 0.1833333 -0.5
v 0.2500001 0.2 -0.5
v 0.2500001 0.21 -0.5
v 0.2500001 0.325 -0.25
v 0.25 0.325 0.2500001
v 0.25 0.21 0.5000001
v 0.3750001 0.325 -0.2499999
v 0.3750001 0.21 -0.5
v 0.375 0.21 0.5000001
v 0.375 0.325 0.2500001
v -0.2500001 0.1833333 0.5
v 0.2500001 0.1 -0.5
v -0.25 0.1 -0.5000001

vn -1.192093E-07 0 1
vn 1 0 1.192093E-07
vn -1 0 -1.192093E-07
vn 0 -1 0
vn 1.192093E-07 0 -1
vn 0 1 0
vn -5.960464E-08 0.9084905 0.4179057
vn 5.960464E-08 0.9084905 -0.4179057

vt 19.68504 7.217848
vt 19.68504 1.035293E-12
vt 14.76378 7.217848
vt 14.76378 1.035293E-12
vt 9.84252 0
vt 9.84252 5.971128
vt 19.68504 1.776357E-15
vt 9.84252 7.217848
vt 9.84252 6.196104E-29
vt 19.68504 19.68504
vt 19.68504 14.76378
vt 9.84252 19.68504
vt 19.68504 9.84252
vt 19.68504 -9.84252
vt 9.84252 -19.68504
vt 19.68504 -14.76378
vt 19.68504 -19.68504
vt -9.84252 19.68504
vt -9.84252 -19.68504
vt -19.68504 19.68504
vt -19.68504 -19.68504
vt -19.68504 14.76378
vt -19.68504 -14.76378
vt 19.68504 5.971128
vt -19.68504 5.971128
vt -9.84252 7.217848
vt -14.76378 7.217848
vt -19.68504 7.217848
vt -9.84252 -3.098052E-29
vt -19.68504 1.776357E-15
vt -9.84252 5.971128
vt -9.84252 7.050618E-13
vt -19.68504 7.068382E-13
vt 14.76378 -2.04927E-13
vt 19.68504 -2.04927E-13
vt 9.84252 14.76378
vt -9.84252 14.76378
vt -9.84252 -14.76378
vt 9.84252 -14.76378
vt -14.76378 1.776357E-15
vt -14.76378 -1.559844E-12
vt -19.68504 2.084797E-13
vt -9.84252 12.40158
vt -19.68504 7.874016
vt -19.68504 8.267716
vt -9.84252 12.79528
vt 9.84252 12.40158
vt 9.84252 12.79528
vt 19.68504 8.267716
vt 19.68504 7.874016
vt -14.76378 -14.42854
vt -14.76378 -3.594618
vt -9.84252 -14.42854
vt -9.84252 -3.594618
vt -9.84252 9.84252
vt 9.84252 9.84252
vt 9.84252 -9.84252
vt -9.84252 -9.84252
vt 14.76378 -3.594618
vt 14.76378 -14.42854
vt 9.84252 -3.594618
vt 9.84252 -14.42854
vt -9.84252 7.874016
vt -9.84252 8.267716
vt -14.76378 8.267716
vt -9.84252 -4.238174E-12
vt -9.84252 3.937008
vt 9.84252 3.937008
vt 9.84252 7.874016
vt 14.76378 8.267716
vt 9.84252 8.267716
vt 9.84252 -4.238174E-12
vt -9.84252 -14.59307
vt -9.84252 -3.759147
vt 9.84252 -14.59307
vt 9.84252 -3.759147

usemtl grass

f 3/3/1 2/2/1 1/1/1
f 2/2/1 3/3/1 4/4/1
f 7/7/2 6/6/2 5/5/2
f 6/6/2 7/7/2 8/1/2
f 6/6/2 8/1/2 9/8/2
f 12/7/3 11/6/3 10/9/3
f 11/6/3 12/7/3 13/1/3
f 11/6/3 13/1/3 14/8/3
f 10/12/4 15/11/4 12/10/4
f 15/11/4 10/12/4 16/13/4
f 16/13/4 10/12/4 17/14/4
f 18/15/4 17/14/4 10/12/4
f 18/15/4 4/16/4 17/14/4
f 4/16/4 18/15/4 2/17/4
f 18/15/4 10/12/4 19/18/4
f 18/15/4 19/18/4 5/19/4
f 5/19/4 19/18/4 20/20/4
f 5/19/4 20/20/4 7/21/4
f 7/21/4 20/20/4 21/22/4
f 7/21/4 21/22/4 22/23/4
f 23/3/1 6/24/1 9/1/1
f 6/24/1 23/3/1 24/25/1
f 24/25/1 23/3/1 25/8/1
f 24/25/1 25/8/1 26/26/1
f 24/25/1 26/26/1 27/27/1
f 24/25/1 27/27/1 28/28/1
f 11/24/5 30/28/5 29/25/5
f 30/28/5 11/24/5 31/27/5
f 31/27/5 11/24/5 32/26/5
f 32/26/5 11/24/5 33/8/5
f 33/8/5 11/24/5 34/3/5
f 34/3/5 11/24/5 14/1/5
f 29/31/2 2/30/2 18/29/2
f 2/30/2 29/31/2 1/28/2
f 1/28/2 29/31/2 30/26/2
f 24/31/3 20/33/3 19/32/3
f 20/33/3 24/31/3 35/28/3
f 35/28/3 24/31/3 28/26/3
f 20/35/5 36/3/5 21/34/5
f 36/3/5 20/35/5 35/1/5
f 36/11/6 28/12/6 27/36/6
f 28/12/6 36/11/6 35/10/6
f 34/37/6 13/20/6 37/22/6
f 13/20/6 34/37/6 14/18/6
f 30/19/6 3/23/6 1/21/6
f 3/23/6 30/19/6 31/38/6
f 8/17/6 23/39/6 9/15/6
f 23/39/6 8/17/6 38/16/6
f 22/40/5 8/28/5 7/30/5
f 8/28/5 22/40/5 38/27/5
f 13/28/1 15/41/1 37/27/1
f 15/41/1 13/28/1 12/42/1

usemtl water

f 6/15/6 11/18/6 29/19/6
f 11/18/6 6/15/6 24/12/6
f 6/6/2 18/29/2 5/5/2
f 18/29/2 6/6/2 29/31/2
f 11/6/3 19/32/3 10/9/3
f 19/32/3 11/6/3 24/31/3

usemtl pavement

f 40/43/2 39/28/2 32/26/2
f 39/28/2 40/43/2 41/44/2
f 43/43/3 42/28/3 26/26/3
f 42/28/3 43/43/3 44/44/3
f 47/43/2 46/45/2 45/44/2
f 46/45/2 47/43/2 48/46/2
f 48/46/2 47/43/2 43/47/2
f 48/46/2 43/47/2 49/48/2
f 43/47/2 50/49/2 49/48/2
f 50/49/2 43/47/2 44/50/2
f 46/53/7 52/52/7 51/51/7
f 52/52/7 46/53/7 48/54/7
f 49/56/6 52/37/6 48/55/6
f 52/37/6 49/56/6 53/36/6
f 27/37/4 33/56/4 34/36/4
f 33/56/4 27/37/4 32/57/4
f 32/57/4 27/37/4 31/39/4
f 31/39/4 27/37/4 23/38/4
f 23/38/4 27/37/4 26/55/4
f 23/38/4 26/55/4 25/58/4
f 49/61/8 54/60/8 53/59/8
f 54/60/8 49/61/8 50/62/8
f 56/1/2 55/47/2 25/8/2
f 55/47/2 56/1/2 57/50/2
f 43/43/1 25/8/1 55/47/1
f 25/8/1 43/43/1 26/26/1
f 55/43/3 58/45/3 57/44/3
f 58/45/3 55/43/3 59/46/3
f 55/43/3 60/48/3 59/46/3
f 60/48/3 55/43/3 40/47/3
f 40/47/3 61/49/3 60/48/3
f 61/49/3 40/47/3 41/50/3
f 63/51/8 59/54/8 62/52/8
f 59/54/8 63/51/8 58/53/8
f 65/59/7 61/62/7 64/60/7
f 61/62/7 65/59/7 60/61/7
f 62/39/6 60/58/6 65/38/6
f 60/58/6 62/39/6 59/57/6
f 46/64/1 66/26/1 45/63/1
f 66/26/1 46/64/1 51/65/1
f 66/26/1 51/65/1 16/66/1
f 16/66/1 51/65/1 37/27/1
f 16/66/1 37/27/1 15/41/1
f 37/1/3 27/26/3 34/8/3
f 27/26/3 37/1/3 36/28/3
f 36/28/3 37/1/3 51/49/3
f 36/28/3 51/49/3 54/45/3
f 54/45/3 51/49/3 52/48/3
f 54/45/3 52/48/3 53/46/3
f 38/1/2 31/26/2 23/8/2
f 31/26/2 38/1/2 3/28/2
f 3/28/2 38/1/2 63/49/2
f 3/28/2 63/49/2 64/45/2
f 64/45/2 63/49/2 65/46/2
f 65/46/2 63/49/2 62/48/2
f 22/40/5 67/67/5 38/27/5
f 67/67/5 22/40/5 21/34/5
f 38/27/5 67/67/5 63/65/5
f 67/67/5 21/34/5 68/68/5
f 68/68/5 21/34/5 42/8/5
f 42/8/5 21/34/5 44/69/5
f 54/70/5 44/69/5 21/34/5
f 44/69/5 54/70/5 50/71/5
f 54/70/5 21/34/5 36/3/5
f 67/67/5 58/64/5 63/65/5
f 58/64/5 67/67/5 56/26/5
f 58/64/5 56/26/5 57/63/5
f 41/69/1 39/8/1 61/71/1
f 17/72/1 61/71/1 39/8/1
f 4/4/1 61/71/1 17/72/1
f 3/3/1 61/71/1 4/4/1
f 61/71/1 3/3/1 64/70/1

usemtl asphalt

f 41/69/1 17/72/1 39/8/1
f 17/72/1 41/69/1 16/66/1
f 16/66/1 41/69/1 45/63/1
f 16/66/1 45/63/1 66/26/1
f 41/75/7 47/74/7 45/73/7
f 47/74/7 41/75/7 40/76/7
f 40/58/6 43/56/6 47/55/6
f 43/56/6 40/58/6 55/57/6
f 57/73/8 43/76/8 55/74/8
f 43/76/8 57/73/8 44/75/8
f 68/68/5 56/26/5 67/67/5
f 56/26/5 68/68/5 57/63/5
f 57/63/5 68/68/5 44/69/5
f 44/69/5 68/68/5 42/8/5

