# Created by Kenney (www.kenney.nl)

mtllib tile049.mtl

g tile049

v 0.5 0.2 0.2500001
v -0.5000001 0.2 0.2499999
v 0.5000001 0.2 -0.2499999
v -0.5 0.2 -0.2500001
v -0.5000001 0.1 0.2499999
v -0.5 0.1 -0.2500001
v 0.5000001 0.1 -0.2499999
v 0.5 0.1 0.2500001
v 0.5000001 3.609557E-16 -0.4999999
v 0.5000001 3.609557E-16 -0.375
v 0.5000001 0.55 -0.4999999
v 0.5000001 0.55 -0.375
v -0.5000001 3.609557E-16 0.4999999
v -0.5000001 3.609557E-16 0.375
v -0.5000001 0.55 0.4999999
v -0.5000001 0.55 0.375
v 0.5 0.55 0.5000001
v 0.5 3.609557E-16 0.5000001
v -0.5 0 -0.5000001
v -0.5 0.55 -0.5000001
v 0.5 3.609557E-16 0.3750001
v -0.5 0 -0.3750001
v 0.5 0.55 0.3750001
v -0.5 0.55 -0.3750001
v 0.5 0.5766667 0.2500001
v -0.5000001 0.5766667 0.2499999
v 0.5000001 0.5766667 -0.2499999
v -0.5 0.5766667 -0.2500001
v 0.5000001 0.5766667 -0.375
v -0.5 0.5766667 -0.3750001
v 0.5 0.5766667 0.3750001
v -0.5000001 0.5766667 0.375

vn 0 1 0
vn -1 0 -1.192093E-07
vn 1 0 1.192093E-07
vn -1.192093E-07 0 1
vn 1.192093E-07 0 -1
vn 0 -1 0

vt -9.84252 -19.68504
vt -9.84252 19.68504
vt 9.84252 -19.68504
vt 9.84252 19.68504
vt 9.84252 3.937008
vt -9.84252 3.937008
vt 9.84252 7.874016
vt -9.84252 7.874016
vt 19.68504 1.421085E-14
vt 14.76378 1.421085E-14
vt 19.68504 21.65354
vt 14.76378 21.65354
vt 19.68504 -1.494293E-13
vt 14.76378 -1.494293E-13
vt -19.68504 21.65354
vt -19.68504 1.421085E-14
vt 19.68504 2.20223E-29
vt 19.68504 19.68504
vt 19.68504 -19.68504
vt 14.76378 19.68504
vt 14.76378 -19.68504
vt -14.76378 -19.68504
vt -14.76378 19.68504
vt -19.68504 19.68504
vt -19.68504 -19.68504
vt -14.76378 7.751375E-14
vt -19.68504 7.751375E-14
vt -14.76378 21.65354
vt -14.76378 4.147832E-14
vt -19.68504 2.282349E-14
vt -19.68504 7.874016
vt -19.68504 22.70341
vt 19.68504 7.874016
vt 19.68504 22.70341
vt 9.84252 22.70341
vt 14.76378 22.70341
vt -9.84252 22.70341
vt -14.76378 22.70341

usemtl asphalt

f 3/3/1 2/2/1 1/1/1
f 2/2/1 3/3/1 4/4/1
f 2/7/2 6/6/2 5/5/2
f 6/6/2 2/7/2 4/8/2
f 3/7/3 8/6/3 7/5/3
f 8/6/3 3/7/3 1/8/3

usemtl grass

f 11/11/3 10/10/3 9/9/3
f 10/10/3 11/11/3 12/12/3
f 15/11/2 14/14/2 13/13/2
f 14/14/2 15/11/2 16/12/2
f 15/15/4 18/9/4 17/11/4
f 18/9/4 15/15/4 13/16/4
f 19/17/5 11/15/5 9/16/5
f 11/15/5 19/17/5 20/11/5
f 14/20/6 18/19/6 13/18/6
f 18/19/6 14/20/6 21/21/6
f 21/21/6 14/20/6 10/22/6
f 10/22/6 14/20/6 22/23/6
f 10/22/6 22/23/6 19/24/6
f 10/22/6 19/24/6 9/25/6
f 23/22/1 15/24/1 17/25/1
f 15/24/1 23/22/1 16/23/1
f 12/21/1 20/18/1 24/20/1
f 20/18/1 12/21/1 11/19/1
f 24/28/2 19/27/2 22/26/2
f 19/27/2 24/28/2 20/15/2
f 23/28/3 18/30/3 21/29/3
f 18/30/3 23/28/3 17/15/3

usemtl pavement

f 2/33/5 25/32/5 1/31/5
f 25/32/5 2/33/5 26/34/5
f 29/21/1 28/4/1 27/3/1
f 28/4/1 29/21/1 30/20/1
f 28/32/4 3/33/4 27/34/4
f 3/33/4 28/32/4 4/31/4
f 25/1/1 32/23/1 31/22/1
f 32/23/1 25/1/1 26/2/1
f 32/32/4 23/11/4 31/34/4
f 23/11/4 32/32/4 16/15/4
f 24/11/5 29/32/5 12/15/5
f 29/32/5 24/11/5 30/34/5
f 16/12/2 5/5/2 14/14/2
f 5/5/2 16/12/2 2/7/2
f 2/7/2 16/12/2 26/35/2
f 26/35/2 16/12/2 32/36/2
f 6/6/2 14/14/2 5/5/2
f 6/6/2 22/26/2 14/14/2
f 22/26/2 6/6/2 24/28/2
f 24/28/2 6/6/2 4/8/2
f 24/28/2 4/8/2 28/37/2
f 24/28/2 28/37/2 30/38/2
f 10/10/3 7/5/3 21/29/3
f 7/5/3 10/10/3 12/12/3
f 7/5/3 12/12/3 3/7/3
f 3/7/3 12/12/3 27/35/3
f 27/35/3 12/12/3 29/36/3
f 8/6/3 21/29/3 7/5/3
f 21/29/3 8/6/3 23/28/3
f 23/28/3 8/6/3 1/8/3
f 23/28/3 1/8/3 25/37/3
f 23/28/3 25/37/3 31/38/3

