# Created by Kenney (www.kenney.nl)

mtllib tile149.mtl

g tile149

v -0.5 5.805371E-15 0.5
v -0.5 0.1833333 0.5
v 0.01034212 1.364112E-14 0.5
v 0.01034212 0.1833333 0.5
v -0.06948113 0.1833333 0.4606355
v -0.2088286 0.1833333 0.4133335
v -0.3531581 0.1833333 0.3846245
v -0.5 0.1833333 0.375
v -0.5 0 -0.5
v 0.5 2.195814E-15 -0.5
v -0.5 0.1833333 -0.5
v 0.5 0.1833333 -0.5
v 0.5 0.1833333 -0.08203647
v 0.4375 0.1833333 -0.1237976
v 0.2175314 0.1833333 -0.2322741
v -0.01471429 0.1833333 -0.3111109
v -0.2552634 0.1833333 -0.3589591
v -0.5 0.1833333 -0.375
v -0.5 7.239257E-16 -0.375
v 0.5 1.773195E-14 -0.08203647
v -0.5 5.081579E-15 0.375
v 0.5 5.985849E-15 0.5
v -0.5 0.1 -0.25
v -0.5 0.21 -0.375
v -0.5 0.1 0.25
v -0.5 0.2 0.25
v -0.5 0.21 0.25
v -0.5 0.21 0.375
v -0.5 0.21 -0.25
v -0.5 0.2 -0.25
v -0.2552634 0.21 -0.3589591
v 0.5 0.21 0.06797788
v 0.375 0.21 -0.01554446
v 0.5 0.21 -0.08203647
v 0.4375 0.21 -0.1237976
v 0.2175314 0.21 -0.2322741
v 0.169696 0.21 -0.1167892
v -0.01471429 0.21 -0.3111109
v -0.04706667 0.21 -0.1903702
v -0.2715791 0.21 -0.2350285
v -0.3531581 0.21 0.3846245
v -0.2088286 0.21 0.4133335
v -0.06948113 0.21 0.4606355
v 0.01034212 0.21 0.5
v 0.375 0.2 -0.01554446
v 0.5 0.2 0.06797788
v -0.02164571 0.2 0.3451506
v -0.02164571 0.21 0.3451506
v -0.1764762 0.2 0.2925927
v -0.1764762 0.21 0.2925927
v 0.125 0.2 0.4174682
v 0.2485175 0.2 0.5
v 0.125 0.21 0.4174682
v 0.2485175 0.21 0.5
v -0.04706667 0.2 -0.1903702
v -0.2715791 0.2 -0.2350285
v -0.3368423 0.2 0.2606939
v -0.3368423 0.21 0.2606939
v 0.169696 0.2 -0.1167892
v 0.5 0.1 0.06797788
v 0.5 0.1 0.5
v 0.2485175 0.1 0.5
v 0.5 0.2 0.5

vn 0 0 0.3333333
vn 0 0.3333333 0
vn 0 0 -0.3333333
vn -0.3333333 0 0
vn 0.3333333 0 0
vn 0 -0.3333333 0
vn 0.02180104 0 -0.3326197
vn 0.04350873 0 -0.3304816
vn -0.04350873 0 0.3304816
vn -0.08627301 0 0.3219753
vn -0.02180104 0 0.3326197
vn 0.08627301 0 -0.3219753
vn 0.1275612 0 -0.3079599
vn -0.1275612 0 0.3079599
vn -0.1474296 0 0.2989576
vn 0.1851901 0 -0.2771565
vn 0.1666667 0 -0.2886752
vn -0.1666667 0 0.2886752
vn -0.1851901 0 0.2771565

vt -59.05512 6.856737E-13
vt -59.05512 21.65354
vt 1.22151 1.611156E-12
vt 1.22151 21.65354
vt -1.22151 59.05512
vt 59.05512 59.05512
vt 8.206433 54.40577
vt 24.66479 48.81891
vt 41.71158 45.42809
vt 59.05512 44.29134
vt 59.05512 -6.576599E-29
vt -59.05512 2.593481E-13
vt 59.05512 21.65354
vt -59.05512 -9.689346
vt -51.67323 -14.62177
vt -59.05512 -59.05512
vt -25.69269 -27.43395
vt 59.05512 -59.05512
vt 1.737908 -36.74538
vt 30.14922 -42.39675
vt 59.05512 -44.29134
vt -59.05512 4.650825E-13
vt -44.29134 1.280679E-12
vt -44.29134 21.65354
vt 59.05512 2.593481E-13
vt 9.689346 21.65354
vt 9.689346 2.094325E-12
vt 44.29134 1.795362E-12
vt 44.29134 21.65354
vt 59.05512 9.18215E-13
vt 59.05512 -9.689346
vt 1.22151 59.05512
vt -59.05512 59.05512
vt -59.05512 -44.29134
vt -59.05512 44.29134
vt -29.52756 11.81102
vt -44.29134 24.80315
vt 29.52756 11.81102
vt 29.52756 23.62205
vt 29.52756 24.80315
vt 44.29134 24.80315
vt -29.52756 24.80315
vt -29.52756 23.62205
vt 61.82547 21.65354
vt 32.85755 21.65354
vt 61.82547 24.80315
vt 32.85755 24.80315
vt -59.05512 8.028883
vt -44.29134 -1.835959
vt -20.04284 -13.794
vt 5.559056 -22.48467
vt 32.07628 -27.75927
vt 59.05512 -29.52756
vt -32.04752 21.65354
vt -32.04752 24.80315
vt -14.66677 21.65354
vt -14.66677 24.80315
vt -56.03188 21.65354
vt -56.03188 24.80315
vt -38.65113 21.65354
vt -38.65113 24.80315
vt 13.45709 21.65354
vt -15.51083 21.65354
vt 13.45709 24.80315
vt -15.51083 24.80315
vt 16.70293 21.65354
vt 16.70293 24.80315
vt 27.21495 21.65354
vt 27.21495 24.80315
vt -43.71943 21.65354
vt -43.71943 24.80315
vt -34.8413 21.65354
vt -34.8413 24.80315
vt -7.66351 21.65354
vt -7.66351 24.80315
vt 9.717242 21.65354
vt 9.717242 24.80315
vt 35.8069 23.62205
vt 35.8069 24.80315
vt 53.56314 23.62205
vt 53.56314 24.80315
vt -10.90935 21.65354
vt -39.87727 21.65354
vt -10.90935 24.80315
vt -39.87727 24.80315
vt 37.84111 21.65354
vt 8.873184 21.65354
vt 37.84111 24.80315
vt 8.873184 24.80315
vt -10.68284 23.62205
vt -10.68284 24.80315
vt 8.629107 23.62205
vt 8.629107 24.80315
vt -39.66929 23.62205
vt -57.21494 23.62205
vt -39.66929 24.80315
vt -57.21494 24.80315
vt -35.04928 23.62205
vt -35.04928 24.80315
vt -15.73733 23.62205
vt -15.73733 24.80315
vt -9.838781 23.62205
vt -36.87551 23.62205
vt -9.838781 24.80315
vt -36.87551 24.80315
vt -33.82314 23.62205
vt -60.85987 23.62205
vt -33.82314 24.80315
vt -60.85987 24.80315
vt 13.70117 23.62205
vt 13.70117 24.80315
vt 33.01312 23.62205
vt 33.01312 24.80315
vt 38.91167 23.62205
vt 11.87494 23.62205
vt 38.91167 24.80315
vt 11.87494 24.80315
vt -29.35246 59.05512
vt -14.76378 49.30727
vt 2.55658 40.76582
vt 20.84365 34.55819
vt 39.78452 30.79062
vt 59.05512 29.52756
vt 37.68554 23.62205
vt 37.68554 24.80315
vt 56.99748 23.62205
vt 56.99748 24.80315
vt 14.54523 23.62205
vt -12.4915 23.62205
vt 14.54523 24.80315
vt -12.4915 24.80315
vt 9.689346 24.80315
vt -8.028883 24.80315
vt -8.028883 11.81102
vt -59.05512 3.487521E-13
vt -8.028883 23.62205
vt -59.05512 11.81102
vt 59.05512 4.158876E-13
vt 59.05512 11.81102
vt 29.35246 11.81102
vt 29.35246 23.62205
vt 1.22151 24.80315
vt 29.35246 24.80315
vt 59.05512 23.62205
vt -59.05512 23.62205

usemtl grass

f 3/3/1 2/2/1 1/1/1
f 2/2/1 3/3/1 4/4/1
f 5/7/2 2/6/2 4/5/2
f 2/6/2 5/7/2 6/8/2
f 2/6/2 6/8/2 7/9/2
f 2/6/2 7/9/2 8/10/2
f 11/13/3 10/12/3 9/11/3
f 10/12/3 11/13/3 12/2/3
f 12/16/2 14/15/2 13/14/2
f 14/15/2 12/16/2 15/17/2
f 15/17/2 12/16/2 11/18/2
f 15/17/2 11/18/2 16/19/2
f 16/19/2 11/18/2 17/20/2
f 17/20/2 11/18/2 18/21/2
f 19/23/4 11/2/4 9/22/4
f 11/2/4 19/23/4 18/24/4
f 13/26/5 10/25/5 12/13/5
f 10/25/5 13/26/5 20/27/5
f 1/30/4 8/29/4 21/28/4
f 8/29/4 1/30/4 2/13/4
f 22/6/6 10/18/6 20/31/6
f 10/18/6 22/6/6 3/32/6
f 10/18/6 3/32/6 9/16/6
f 9/16/6 3/32/6 1/33/6
f 9/16/6 1/33/6 19/34/6
f 19/34/6 1/33/6 21/35/6

usemtl pavement

f 19/23/4 23/36/4 18/24/4
f 23/36/4 19/23/4 21/28/4
f 18/24/4 23/36/4 24/37/4
f 23/36/4 21/28/4 25/38/4
f 25/38/4 21/28/4 26/39/4
f 26/39/4 21/28/4 27/40/4
f 27/40/4 21/28/4 28/41/4
f 28/41/4 21/28/4 8/29/4
f 23/36/4 29/42/4 24/37/4
f 29/42/4 23/36/4 30/43/4
f 24/46/7 17/45/8 18/44/7
f 17/45/8 24/46/7 31/47/8
f 34/14/2 33/49/2 32/48/2
f 33/49/2 34/14/2 35/15/2
f 33/49/2 35/15/2 36/17/2
f 33/49/2 36/17/2 37/50/2
f 37/50/2 36/17/2 38/19/2
f 37/50/2 38/19/2 39/51/2
f 39/51/2 38/19/2 31/20/2
f 39/51/2 31/20/2 40/52/2
f 40/52/2 31/20/2 24/21/2
f 40/52/2 24/21/2 29/53/2
f 6/56/10 41/55/9 7/54/9
f 41/55/9 6/56/10 42/57/10
f 7/60/9 28/59/11 8/58/11
f 28/59/11 7/60/9 41/61/9
f 38/64/12 15/63/13 16/62/12
f 15/63/13 38/64/12 36/65/13
f 4/68/15 43/67/14 5/66/14
f 43/67/14 4/68/15 44/69/15
f 14/72/17 34/71/16 13/70/16
f 34/71/16 14/72/17 35/73/17
f 5/76/14 42/75/10 6/74/10
f 42/75/10 5/76/14 43/77/14
f 46/80/19 33/79/18 45/78/18
f 33/79/18 46/80/19 32/81/19
f 36/84/13 14/83/17 15/82/13
f 14/83/17 36/84/13 35/85/17
f 31/88/8 16/87/12 17/86/8
f 16/87/12 31/88/8 38/89/12
f 49/92/12 48/91/13 47/90/13
f 48/91/13 49/92/12 50/93/12
f 53/96/17 52/95/16 51/94/17
f 52/95/16 53/96/17 54/97/16
f 47/100/13 53/99/17 51/98/17
f 53/99/17 47/100/13 48/101/13
f 39/104/10 56/103/9 55/102/10
f 56/103/9 39/104/10 40/105/9
f 40/108/9 30/107/11 56/106/9
f 30/107/11 40/108/9 29/109/11
f 57/112/8 50/111/12 49/110/12
f 50/111/12 57/112/8 58/113/8
f 33/116/18 59/115/14 45/114/18
f 59/115/14 33/116/18 37/117/14
f 53/119/2 44/5/2 54/118/2
f 44/5/2 53/119/2 48/120/2
f 44/5/2 48/120/2 43/7/2
f 43/7/2 48/120/2 50/121/2
f 43/7/2 50/121/2 42/8/2
f 42/8/2 50/121/2 58/122/2
f 42/8/2 58/122/2 41/9/2
f 41/9/2 58/122/2 27/123/2
f 41/9/2 27/123/2 28/10/2
f 26/126/7 58/125/8 57/124/8
f 58/125/8 26/126/7 27/127/7
f 37/130/14 55/129/10 59/128/14
f 55/129/10 37/130/14 39/131/10
f 32/133/5 13/26/5 34/132/5
f 13/26/5 32/133/5 20/27/5
f 20/27/5 32/133/5 60/134/5
f 20/27/5 60/134/5 22/135/5
f 60/134/5 32/133/5 46/136/5
f 22/135/5 60/134/5 61/137/5
f 61/139/1 3/3/1 22/138/1
f 3/3/1 61/139/1 62/140/1
f 3/3/1 62/140/1 4/4/1
f 4/4/1 62/140/1 52/141/1
f 4/4/1 52/141/1 44/142/1
f 44/142/1 52/141/1 54/143/1

usemtl asphalt

f 25/38/4 30/43/4 23/36/4
f 30/43/4 25/38/4 26/39/4
f 63/144/1 62/140/1 61/139/1
f 62/140/1 63/144/1 52/141/1
f 45/49/2 63/33/2 46/48/2
f 63/33/2 45/49/2 52/118/2
f 52/118/2 45/49/2 59/50/2
f 52/118/2 59/50/2 51/119/2
f 51/119/2 59/50/2 55/51/2
f 51/119/2 55/51/2 47/120/2
f 47/120/2 55/51/2 49/121/2
f 49/121/2 55/51/2 56/52/2
f 49/121/2 56/52/2 57/122/2
f 57/122/2 56/52/2 30/53/2
f 57/122/2 30/53/2 26/123/2
f 63/145/5 60/134/5 46/136/5
f 60/134/5 63/145/5 61/137/5

