# Created by Kenney (www.kenney.nl)

mtllib tile088.mtl

g tile088

v 0.5 0.21 0.5000001
v 0.5 0 0.5000001
v -0.5000001 0.21 0.4999999
v -0.5000001 0 0.4999999
v 0.5000001 0.1 -0.125
v 0.5000001 0 -0.4999999
v 0.5000001 0.21 -0.4999999
v 0.5000001 0.2 -0.125
v 0.5000001 0.21 -0.125
v 0.5000001 0.1 0.1250001
v 0.5000001 0.2 0.1250001
v 0.5000001 0.21 0.1250001
v -0.5000001 0.21 0.1249999
v -0.5000001 0.2 0.1249999
v -0.5 0 -0.5000001
v -0.5 0.21 -0.5000001
v -0.5000001 0.1 0.1249999
v -0.5000001 0.1 -0.1250001
v -0.5000001 0.2 -0.1250001
v -0.5000001 0.21 -0.1250001

vn -1.192093E-07 0 1
vn 1 0 1.192093E-07
vn 0 1 0
vn 1.192093E-07 0 -1
vn -1 0 -1.192093E-07
vn 0 -1 0

vt 19.68504 8.267716
vt 19.68504 -1.401298E-45
vt -19.68504 8.267716
vt -19.68504 -1.401298E-45
vt -19.68504 -7.17531E-15
vt 4.921261 3.937008
vt 19.68504 -7.17531E-15
vt 4.921261 7.874016
vt 4.921261 8.267716
vt -4.921259 3.937008
vt -4.921259 7.874016
vt -4.921259 8.267716
vt -19.68504 -19.68504
vt -19.68504 19.68504
vt -4.921259 -19.68504
vt -4.921259 19.68504
vt -19.68504 7.874016
vt 19.68504 7.874016
vt -19.68504 0
vt 19.68504 0
vt 4.921259 3.937008
vt 4.921259 7.874016
vt 4.921259 8.267716
vt -4.921261 3.937008
vt -4.921261 7.874016
vt -4.921261 8.267716
vt 4.921261 -19.68504
vt 4.921261 19.68504
vt 19.68504 -19.68504
vt 19.68504 19.68504

usemtl pavement

f 3/3/1 2/2/1 1/1/1
f 2/2/1 3/3/1 4/4/1
f 6/7/2 5/6/2 2/5/2
f 5/6/2 6/7/2 7/1/2
f 5/6/2 7/1/2 8/8/2
f 8/8/2 7/1/2 9/9/2
f 10/10/2 2/5/2 5/6/2
f 2/5/2 10/10/2 1/3/2
f 1/3/2 10/10/2 11/11/2
f 1/3/2 11/11/2 12/12/2
f 12/15/3 3/14/3 1/13/3
f 3/14/3 12/15/3 13/16/3
f 14/18/4 12/3/4 11/17/4
f 12/3/4 14/18/4 13/1/4
f 15/20/4 7/3/4 6/19/4
f 7/3/4 15/20/4 16/1/4
f 4/20/5 17/21/5 15/19/5
f 17/21/5 4/20/5 3/1/5
f 17/21/5 3/1/5 14/22/5
f 14/22/5 3/1/5 13/23/5
f 18/24/5 15/19/5 17/21/5
f 15/19/5 18/24/5 16/3/5
f 16/3/5 18/24/5 19/25/5
f 16/3/5 19/25/5 20/26/5
f 7/29/3 20/28/3 9/27/3
f 20/28/3 7/29/3 16/30/3
f 20/3/1 8/18/1 9/1/1
f 8/18/1 20/3/1 19/17/1
f 15/14/6 2/29/6 4/30/6
f 2/29/6 15/14/6 6/13/6

usemtl asphalt

f 8/27/3 14/16/3 11/15/3
f 14/16/3 8/27/3 19/28/3
f 14/22/5 18/24/5 17/21/5
f 18/24/5 14/22/5 19/25/5
f 8/8/2 10/10/2 5/6/2
f 10/10/2 8/8/2 11/11/2

