# Created by Kenney (www.kenney.nl)

mtllib tile036.mtl

g tile036

v -0.5000001 0.2 0.2499999
v -0.5 0.2 -0.2500001
v 0.5 0.5666667 0.2500001
v 0.5000001 0.5666667 -0.2499999
v -0.5000001 0.1 0.2499999
v -0.5 0.1 -0.2500001
v 0.5000001 0.4666667 -0.2499999
v 0.5 0.4666667 0.2500001
v -0.5000001 0.21 0.4999999
v -0.5000001 0.21 0.2499999
v 0.5 0.5766667 0.5000001
v 0.5 0.5766667 0.2500001
v 0.5 1.279137E-14 0.5000001
v 0.3028359 0.2943732 0.5000001
v -0.5000001 1.306208E-14 0.4999999
v 0.3028359 1.279137E-14 0.5000001
v -0.5 0.21 -0.2500001
v -0.5 0.21 -0.5000001
v 0.5000001 0.5766667 -0.2499999
v 0.5000001 0.5766667 -0.4999999
v 0.3028361 0.2943732 -0.5000001
v 0.5000001 0 -0.4999999
v 0.3028361 0 -0.5000001
v -0.5 1.279137E-14 -0.5000001
v 0.302836 3.135803E-15 -0.25
v 0.5000001 3.158362E-15 -0.2499999
v 0.5000001 0.3666667 -0.2499999
v 0.5 0.3666667 0.2500001
v 0.5 9.542766E-15 0.2500001
v 0.302836 0.2943732 0.2500001
v 0.302836 0.2943732 -0.25
v 0.302836 9.542766E-15 0.2500001

vn -0.3442546 0.9388763 -2.980232E-08
vn -1 0 -1.192093E-07
vn 1 0 1.192093E-07
vn -1.192093E-07 0 1
vn 1.192093E-07 0 -1
vn 0 -1 0
vn 0.3442546 -0.9388763 2.980232E-08

vt 9.84252 -15.77115
vt -9.84252 -15.77115
vt 9.84252 26.16204
vt -9.84252 26.16204
vt 9.84252 3.937008
vt -9.84252 3.937008
vt 9.84252 7.874016
vt -9.84252 7.874016
vt 9.84252 18.3727
vt -9.84252 18.3727
vt 9.84252 22.30971
vt -9.84252 22.30971
vt 19.68504 -15.63562
vt 9.84252 -15.63562
vt 19.68504 26.29757
vt 9.84252 26.29757
vt 19.68504 2.584283E-13
vt 11.92268 11.5895
vt 19.68504 22.70341
vt -19.68504 8.267716
vt -19.68504 2.690865E-13
vt 11.92268 2.584283E-13
vt -19.68504 22.30971
vt -19.68504 22.70341
vt 19.68504 7.874016
vt 19.68504 8.267716
vt -9.84252 -15.63562
vt -19.68504 -15.63562
vt -9.84252 26.29757
vt -19.68504 26.29757
vt -11.92268 11.5895
vt -19.68504 3.845582E-13
vt -11.92268 3.845582E-13
vt 19.68504 8.881553E-13
vt 19.68504 22.30971
vt -19.68504 7.874016
vt 19.68504 5.197442E-13
vt 9.84252 8.267716
vt -19.68504 5.090861E-13
vt -9.84252 8.267716
vt -9.84252 -11.92268
vt -9.84252 -19.68504
vt -19.68504 -11.92268
vt -19.68504 -19.68504
vt 19.68504 5.436711E-13
vt 9.84252 6.68016E-13
vt 9.84252 14.4357
vt -9.84252 14.4357
vt 9.84252 22.70341
vt -19.68504 1.047268E-12
vt -9.84252 9.193706E-13
vt -9.84252 22.70341
vt -19.68504 -18.48182
vt -19.68504 15.18366
vt 19.68504 -18.48182
vt -9.84252 15.18366
vt -9.84252 23.45137
vt 9.84252 15.18366
vt 19.68504 15.18366
vt 9.84252 23.45137
vt 19.68504 -11.92268
vt 19.68504 -19.68504
vt 9.84252 -11.92268
vt 9.84252 -19.68504
vt -19.68504 -6.529487E-28
vt -19.68504 11.5895
vt -9.84252 1.234568E-13
vt -9.84252 11.5895
vt 9.84252 3.756995E-13
vt 9.84252 11.5895
vt 19.68504 5.035972E-13
vt 19.68504 11.5895
vt 19.68504 14.4357
vt 19.68504 1.117314E-13
vt 11.92268 1.108432E-13
vt -19.68504 14.4357
vt -19.68504 3.883131E-13
vt -11.92268 3.883131E-13

usemtl asphalt

f 3/3/1 2/2/1 1/1/1
f 2/2/1 3/3/1 4/4/1
f 1/7/2 6/6/2 5/5/2
f 6/6/2 1/7/2 2/8/2
f 4/11/3 8/10/3 7/9/3
f 8/10/3 4/11/3 3/12/3

usemtl pavement

f 11/15/1 10/14/1 9/13/1
f 10/14/1 11/15/1 12/16/1
f 11/19/4 14/18/4 13/17/4
f 14/18/4 11/19/4 9/20/4
f 14/18/4 9/20/4 15/21/4
f 16/22/4 13/17/4 14/18/4
f 1/25/5 12/24/5 3/23/5
f 12/24/5 1/25/5 10/26/5
f 19/29/1 18/28/1 17/27/1
f 18/28/1 19/29/1 20/30/1
f 20/24/5 21/31/5 18/26/5
f 21/31/5 20/24/5 22/32/5
f 21/31/5 22/32/5 23/33/5
f 18/26/5 21/31/5 24/34/5
f 17/20/4 4/35/4 19/19/4
f 4/35/4 17/20/4 2/36/4
f 9/26/2 5/5/2 15/37/2
f 5/5/2 9/26/2 1/7/2
f 1/7/2 9/26/2 10/38/2
f 6/6/2 15/37/2 5/5/2
f 6/6/2 24/39/2 15/37/2
f 24/39/2 6/6/2 18/20/2
f 18/20/2 6/6/2 2/8/2
f 18/20/2 2/8/2 17/40/2
f 23/43/6 26/42/6 25/41/6
f 26/42/6 23/43/6 22/44/6
f 20/19/3 26/46/3 22/45/3
f 26/46/3 20/19/3 27/47/3
f 27/47/3 20/19/3 7/9/3
f 27/47/3 7/9/3 28/48/3
f 7/9/3 20/19/3 4/11/3
f 4/11/3 20/19/3 19/49/3
f 8/10/3 28/48/3 7/9/3
f 11/24/3 28/48/3 8/10/3
f 13/50/3 28/48/3 11/24/3
f 28/48/3 13/50/3 29/51/3
f 11/24/3 8/10/3 3/12/3
f 11/24/3 3/12/3 12/52/3
f 24/55/7 14/54/7 15/53/7
f 14/54/7 24/55/7 30/56/7
f 30/56/7 24/55/7 28/57/7
f 28/57/7 24/55/7 31/58/7
f 31/58/7 24/55/7 21/59/7
f 27/60/7 28/57/7 31/58/7
f 32/63/6 13/62/6 16/61/6
f 13/62/6 32/63/6 29/64/6
f 25/67/2 21/66/2 23/65/2
f 21/66/2 25/67/2 31/68/2
f 16/71/2 30/70/2 32/69/2
f 30/70/2 16/71/2 14/72/2
f 31/18/4 26/74/4 27/73/4
f 26/74/4 31/18/4 25/75/4
f 29/77/5 30/31/5 28/76/5
f 30/31/5 29/77/5 32/78/5

