# Created by Kenney (www.kenney.nl)

mtllib tile109.mtl

g tile109

v 0.5 0 0.5
v -0.5 0 0.5
v 0.5 0.55 0.5
v -0.5 0.1833333 0.5
v -0.5 0 -0.5
v 0.5 0 -0.5
v -0.5 0.1833333 -0.5
v 0.5 0.55 -0.5
v 0.5 2.255973E-17 -0.25
v 0.5 4.511946E-17 -0.375
v -0.5 2.255973E-17 -0.375
v -0.5 0 -0.25
v -0.5 2.255973E-17 0.375
v -0.5 0 0.25
v 0.5 1.127987E-16 0.25
v 0.5 9.023893E-17 0.375
v 0.5 0.55 -0.375
v -0.5 0.1833333 -0.375
v -0.5 0.1833333 0.375
v 0.5 0.55 0.375
v -0.5 0.1833333 0.25
v 0.5 0.55 0.25
v -0.5 0.1833333 -0.25
v 0.5 0.55 -0.25
v -0.5 0.1516667 -0.25
v 0.5 0.5183333 -0.25
v -0.5 0.1516667 0.25
v 0.5 0.5183333 0.25

vn 1.490123E-08 0 1
vn -1.490123E-08 0 -1
vn 0 -1 0
vn 1 0 -1.490123E-08
vn -0.3442546 0.9388763 5.129818E-09
vn -1 0 1.490123E-08

vt 19.68504 -5.425963E-13
vt -19.68504 -5.425963E-13
vt 19.68504 21.65354
vt -19.68504 7.217848
vt 19.68504 5.425963E-13
vt -19.68504 5.425963E-13
vt 19.68504 7.217848
vt -19.68504 21.65354
vt 19.68504 19.68504
vt -19.68504 9.84252
vt -19.68504 19.68504
vt -19.68504 14.76378
vt -19.68504 -19.68504
vt 19.68504 -19.68504
vt 19.68504 14.76378
vt 19.68504 9.84252
vt 19.68504 -14.76378
vt 19.68504 -9.84252
vt -19.68504 -9.84252
vt -19.68504 -14.76378
vt 14.76378 -2.178212E-08
vt 14.76378 21.65354
vt 19.68504 -2.178212E-08
vt -14.76378 -15.99704
vt -19.68504 -15.99704
vt -14.76378 25.93615
vt -19.68504 25.93615
vt -14.76378 7.217848
vt -14.76378 1.603669E-07
vt -19.68504 4.999988E-08
vt 19.68504 1.416658E-07
vt 14.76378 7.217848
vt 14.76378 4.543708E-07
vt 14.76378 -15.99704
vt 14.76378 25.93615
vt 19.68504 -15.99704
vt 19.68504 25.93615
vt -19.68504 -1.306921E-07
vt -14.76378 -4.15015E-07
vt -14.76378 21.65354
vt 9.842519 -15.99704
vt 9.842521 25.93615
vt -9.84252 -15.99704
vt -9.84252 25.93615
vt -19.68504 5.971128
vt 19.68504 20.40682
vt 19.68504 5.971128
vt -19.68504 20.40682
vt 9.842519 7.217848
vt 9.842519 4.543708E-07
vt 9.842519 5.971129
vt -9.84252 7.217848
vt -9.84252 5.971129
vt -9.84252 1.603669E-07
vt -9.84252 -4.15015E-07
vt -9.84252 21.65354
vt -9.84252 20.40682
vt 9.84252 -3.235787E-07
vt 9.84252 20.40682
vt 9.84252 21.65354
vt 9.84252 -16.42623
vt -9.84252 -16.42623
vt 9.84252 25.50696
vt -9.84252 25.50696
vt 9.84252 5.971129

usemtl grass

f 3/3/1 2/2/1 1/1/1
f 2/2/1 3/3/1 4/4/1
f 7/7/2 6/6/2 5/5/2
f 6/6/2 7/7/2 8/8/2
f 6/11/3 9/10/3 5/9/3
f 9/10/3 6/11/3 10/12/3
f 1/13/3 5/9/3 9/10/3
f 2/14/3 5/9/3 1/13/3
f 2/14/3 11/15/3 5/9/3
f 2/14/3 12/16/3 11/15/3
f 13/17/3 12/16/3 2/14/3
f 12/16/3 13/17/3 14/18/3
f 1/13/3 9/10/3 15/19/3
f 1/13/3 15/19/3 16/20/3
f 6/23/4 17/22/4 10/21/4
f 17/22/4 6/23/4 8/3/4
f 17/26/5 7/25/5 18/24/5
f 7/25/5 17/26/5 8/27/5
f 7/4/6 11/29/6 18/28/6
f 11/29/6 7/4/6 5/30/6
f 19/32/6 2/31/6 4/7/6
f 2/31/6 19/32/6 13/33/6
f 4/36/5 20/35/5 19/34/5
f 20/35/5 4/36/5 3/37/5
f 16/39/4 3/8/4 1/38/4
f 3/8/4 16/39/4 20/40/4

usemtl pavement

f 19/34/5 22/42/5 21/41/5
f 22/42/5 19/34/5 20/35/5
f 24/44/5 18/24/5 23/43/5
f 18/24/5 24/44/5 17/26/5
f 26/46/1 23/4/1 25/45/1
f 23/4/1 26/46/1 24/3/1
f 21/7/2 28/48/2 27/47/2
f 28/48/2 21/7/2 22/8/2
f 21/49/6 13/33/6 19/32/6
f 13/33/6 21/49/6 14/50/6
f 14/50/6 21/49/6 27/51/6
f 18/28/6 25/53/6 23/52/6
f 25/53/6 18/28/6 12/54/6
f 12/54/6 18/28/6 11/29/6
f 15/55/4 20/40/4 16/39/4
f 20/40/4 15/55/4 22/56/4
f 22/56/4 15/55/4 28/57/4
f 10/21/4 26/59/4 9/58/4
f 26/59/4 10/21/4 24/60/4
f 24/60/4 10/21/4 17/22/4

usemtl water

f 28/63/5 25/62/5 27/61/5
f 25/62/5 28/63/5 26/64/5
f 25/53/6 14/50/6 27/65/6
f 14/50/6 25/53/6 12/54/6
f 9/58/4 28/57/4 15/55/4
f 28/57/4 9/58/4 26/59/4

