# Created by Kenney (www.kenney.nl)

mtllib tile043.mtl

g tile043

v -0.25 0.1 0.5000001
v -0.25 0.2 0.5000001
v 0.5000001 0.1 0.4999999
v 0.5000001 0.2 0.4999999
v 0.5 0.1 -0.5000001
v 0.5 0.2 -0.5000001
v -0.5 0.1 0.2500001
v -0.5000001 0.1 -0.2499999
v -0.5 0.2 0.2500001
v -0.5000001 0.2 -0.2499999
v -0.2500001 0.2 -0.5
v -0.2500001 0.1 -0.5
v -0.2500001 0.2 -0.25
v -0.25 0.2 0.2500001
v -0.5000001 0.21 -0.4999999
v -0.5000001 0 -0.4999999
v -0.2500001 0.21 -0.5
v 0.5 5.639933E-16 -0.5000001
v -0.2500001 0.21 -0.25
v -0.5000001 0.21 -0.2499999
v -0.5 0.21 0.2500001
v -0.25 0.21 0.2500001
v -0.5 0.21 0.5000001
v -0.25 0.21 0.5000001
v -0.5 1.127987E-16 0.5000001
v 0.5000001 5.639933E-16 0.4999999

vn 1.192093E-07 0 1
vn 1 0 -1.192093E-07
vn -1 0 1.192093E-07
vn -1.192093E-07 0 -1
vn 0 1 0
vn 0 -1 0

vt -9.84252 3.937008
vt -9.84252 7.874016
vt 19.68504 3.937008
vt 19.68504 7.874016
vt -19.68504 3.937008
vt -19.68504 7.874016
vt 9.84252 3.937008
vt 9.84252 7.874016
vt -9.84252 -19.68504
vt -9.84252 -9.84252
vt 9.84252 -19.68504
vt 9.84252 -9.84252
vt 19.68504 19.68504
vt -19.68504 -9.84252
vt -19.68504 19.68504
vt 19.68504 -9.84252
vt 19.68504 8.267716
vt 19.68504 -3.415874E-12
vt 9.84252 8.267716
vt -19.68504 -3.39367E-12
vt -19.68504 -19.68504
vt 19.68504 -19.68504
vt 19.68504 -4.530885E-14
vt -19.68504 -4.974974E-14
vt -19.68504 8.267716
vt -9.84252 8.267716
vt -19.68504 3.390893E-12
vt 19.68504 3.408657E-12
vt 19.68504 2.220446E-14
vt -19.68504 2.220446E-14

usemtl asphalt

f 3/3/1 2/2/1 1/1/1
f 2/2/1 3/3/1 4/4/1
f 6/4/2 3/5/2 5/3/2
f 3/5/2 6/4/2 4/6/2
f 9/8/3 8/1/3 7/7/3
f 8/1/3 9/8/3 10/2/3
f 6/6/4 12/7/4 11/8/4
f 12/7/4 6/6/4 5/5/4
f 9/11/5 13/10/5 10/9/5
f 14/12/5 13/10/5 9/11/5
f 4/13/5 13/10/5 14/12/5
f 4/13/5 11/14/5 13/10/5
f 11/14/5 4/13/5 6/15/5
f 4/13/5 14/12/5 2/16/5

usemtl pavement

f 17/19/4 16/18/4 15/17/4
f 16/18/4 17/19/4 12/7/4
f 16/18/4 12/7/4 18/20/4
f 12/7/4 17/19/4 11/8/4
f 18/20/4 12/7/4 5/5/4
f 15/21/5 19/10/5 17/14/5
f 19/10/5 15/21/5 20/9/5
f 23/22/5 22/12/5 21/11/5
f 22/12/5 23/22/5 24/16/5
f 23/17/3 7/7/3 25/23/3
f 7/7/3 23/17/3 9/8/3
f 9/8/3 23/17/3 21/19/3
f 8/1/3 25/23/3 7/7/3
f 8/1/3 16/24/3 25/23/3
f 16/24/3 8/1/3 15/25/3
f 15/25/3 8/1/3 10/2/3
f 15/25/3 10/2/3 20/26/3
f 22/26/2 2/6/2 14/2/2
f 2/6/2 22/26/2 24/25/2
f 22/19/4 9/4/4 21/17/4
f 9/4/4 22/19/4 14/8/4
f 26/15/6 16/22/6 18/13/6
f 16/22/6 26/15/6 25/21/6
f 13/2/1 20/25/1 10/6/1
f 20/25/1 13/2/1 19/26/1
f 17/17/2 13/8/2 11/4/2
f 13/8/2 17/17/2 19/19/2
f 25/27/1 1/1/1 23/25/1
f 1/1/1 25/27/1 26/28/1
f 1/1/1 26/28/1 3/3/1
f 1/1/1 24/26/1 23/25/1
f 24/26/1 1/1/1 2/2/1
f 5/3/2 26/30/2 18/29/2
f 26/30/2 5/3/2 3/5/2

