# Created by Kenney (www.kenney.nl)

mtllib tile050.mtl

g tile050

v -0.5000001 0.21 -0.4999999
v -0.5000001 0 -0.4999999
v 0.5 0.21 -0.5000001
v 0.5 0 -0.5000001
v 0.5000001 0 0.4999999
v 0.5000001 0.21 0.4999999
v -0.5000001 0.1 0.1250001
v -0.5 0 0.5000001
v -0.5 0.21 0.5000001
v -0.5000001 0.2 0.1250001
v -0.5000001 0.21 0.1250001
v -0.5000001 0.1 -0.1249999
v -0.5000001 0.2 -0.1249999
v -0.5000001 0.21 -0.1249999
v 6.172257E-09 0.21 -0.125
v 0.03235239 0.21 -0.1207407
v 0.06250001 0.21 -0.1082532
v 0.08838837 0.21 -0.08838834
v 0.1082532 0.21 -0.0625
v 0.1207408 0.21 -0.03235238
v 0.125 0.21 0
v 0.1207408 0.21 0.0323524
v 0.1082532 0.21 0.06250001
v 0.08838838 0.21 0.08838836
v 0.06250004 0.21 0.1082532
v 0.03235242 0.21 0.1207408
v 3.783722E-08 0.21 0.125
v 6.172257E-09 0.2 -0.125
v 0.03235239 0.2 -0.1207407
v 3.783722E-08 0.2 0.125
v 0.03235242 0.2 0.1207408
v 0.06250004 0.2 0.1082532
v 0.08838838 0.2 0.08838836
v 0.1082532 0.2 0.06250001
v 0.1207408 0.2 0.0323524
v 0.125 0.2 0
v 0.1207408 0.2 -0.03235238
v 0.1082532 0.2 -0.0625
v 0.08838837 0.2 -0.08838834
v 0.06250001 0.2 -0.1082532

vn -1.192093E-07 0 -1
vn 1 0 -1.192093E-07
vn -1 0 1.192093E-07
vn 1.192093E-07 0 1
vn 0 -1 0
vn 0 1 0
vn -0.06540301 0 0.9978591
vn -0.258819 0 0.9659259
vn -0.06540326 0 -0.9978591
vn -0.2588192 0 -0.9659259
vn -0.5000002 0 -0.8660255
vn -0.7071069 0 -0.7071068
vn -0.8660256 0 -0.4999999
vn -0.9659259 0 -0.258819
vn -0.9659259 0 0.2588192
vn -0.8660255 0 0.5000002
vn -0.7071068 0 0.7071069
vn -0.4999999 0 0.8660256

vt 19.68504 8.267716
vt 19.68504 -3.474607E-28
vt -19.68504 8.267716
vt -19.68504 -3.474607E-28
vt 19.68504 -1.191171E-29
vt -19.68504 -1.191171E-29
vt -19.68504 -7.706506E-20
vt 4.921261 3.937008
vt 19.68504 -7.706506E-20
vt 4.921261 7.874016
vt 4.921261 8.267716
vt -4.921259 3.937008
vt -4.921259 7.874016
vt -4.921259 8.267716
vt -19.68504 6.697613E-28
vt 19.68504 6.697613E-28
vt 19.68504 19.68504
vt 19.68504 -19.68504
vt -19.68504 19.68504
vt -19.68504 -19.68504
vt -4.921259 -19.68504
vt -4.921259 8.296621E-07
vt -4.753571 1.273717
vt -4.261935 2.460631
vt -3.479855 3.479857
vt -2.460629 4.261937
vt -1.273715 4.753573
vt 7.929962E-07 4.921261
vt 1.273717 4.753573
vt 2.460631 4.261937
vt 3.479857 3.479857
vt 4.261937 2.460631
vt 4.753573 1.273717
vt 4.921261 9.029945E-07
vt 4.921261 -19.68504
vt -0.6423524 7.874016
vt -0.6423524 8.267716
vt 0.6423542 7.874016
vt 0.6423542 8.267716
vt -19.68504 7.874016
vt 8.296622E-07 7.874016
vt 8.296622E-07 8.267716
vt 19.68504 7.874016
vt -9.029945E-07 8.267716
vt -9.029945E-07 7.874016
vt 0.6423526 8.267716
vt 0.6423526 7.874016
vt -0.642354 8.267716
vt -0.642354 7.874016
vt 0.6423529 8.267716
vt 0.6423529 7.874016
vt -0.6423538 8.267716
vt -0.6423538 7.874016
vt 0.6423532 8.267716
vt 0.6423532 7.874016
vt -0.6423535 8.267716
vt -0.6423535 7.874016
vt 0.6423535 7.874016
vt -0.6423532 7.874016
vt 0.6423535 8.267716
vt -0.6423532 8.267716
vt 0.6423538 7.874016
vt -0.6423529 7.874016
vt 0.6423538 8.267716
vt -0.6423529 8.267716
vt -0.6423526 7.874016
vt -0.6423526 8.267716
vt 0.642354 7.874016
vt 0.642354 8.267716
vt 0.6423544 7.874016
vt -0.6423522 7.874016
vt 0.6423544 8.267716
vt -0.6423522 8.267716
vt 0.6423545 7.874016
vt -0.6423522 7.874016
vt 0.6423545 8.267716
vt -0.6423522 8.267716

usemtl pavement

f 3/3/1 2/2/1 1/1/1
f 2/2/1 3/3/1 4/4/1
f 3/1/2 5/6/2 4/5/2
f 5/6/2 3/1/2 6/3/2
f 8/9/3 7/8/3 2/7/3
f 7/8/3 8/9/3 9/1/3
f 7/8/3 9/1/3 10/10/3
f 10/10/3 9/1/3 11/11/3
f 12/12/3 2/7/3 7/8/3
f 2/7/3 12/12/3 1/3/3
f 1/3/3 12/12/3 13/13/3
f 1/3/3 13/13/3 14/14/3
f 5/16/4 9/3/4 8/15/4
f 9/3/4 5/16/4 6/1/4
f 5/19/5 2/18/5 4/17/5
f 2/18/5 5/19/5 8/20/5
f 14/21/6 3/19/6 1/20/6
f 3/19/6 14/21/6 15/22/6
f 16/23/6 3/19/6 15/22/6
f 17/24/6 3/19/6 16/23/6
f 18/25/6 3/19/6 17/24/6
f 19/26/6 3/19/6 18/25/6
f 3/19/6 19/26/6 6/17/6
f 6/17/6 19/26/6 20/27/6
f 6/17/6 20/27/6 21/28/6
f 6/17/6 21/28/6 22/29/6
f 6/17/6 22/29/6 23/30/6
f 6/17/6 23/30/6 24/31/6
f 6/17/6 24/31/6 25/32/6
f 6/17/6 25/32/6 26/33/6
f 6/17/6 26/33/6 27/34/6
f 27/34/6 9/18/6 6/17/6
f 9/18/6 27/34/6 11/35/6
f 29/38/8 15/37/7 28/36/7
f 15/37/7 29/38/8 16/39/8
f 28/41/7 14/3/4 13/40/4
f 14/3/4 28/41/7 15/42/7
f 27/44/9 10/43/1 11/1/1
f 10/43/1 27/44/9 30/45/9
f 26/48/10 30/47/9 27/46/9
f 30/47/9 26/48/10 31/49/10
f 25/52/11 31/51/10 26/50/10
f 31/51/10 25/52/11 32/53/11
f 24/56/12 32/55/11 25/54/11
f 32/55/11 24/56/12 33/57/12
f 24/60/12 34/59/13 33/58/12
f 34/59/13 24/60/12 23/61/13
f 23/64/13 35/63/14 34/62/13
f 35/63/14 23/64/13 22/65/14
f 35/68/14 21/67/3 36/66/3
f 21/67/3 35/68/14 22/69/14
f 21/39/3 37/36/15 36/38/3
f 37/36/15 21/39/3 20/37/15
f 20/72/15 38/71/16 37/70/15
f 38/71/16 20/72/15 19/73/16
f 19/76/16 39/75/17 38/74/16
f 39/75/17 19/76/16 18/77/17
f 39/74/17 17/77/18 40/75/18
f 17/77/18 39/74/17 18/76/17
f 40/70/18 16/73/8 29/71/8
f 16/73/8 40/70/18 17/72/18

usemtl asphalt

f 10/10/3 12/12/3 7/8/3
f 12/12/3 10/10/3 13/13/3
f 13/21/6 29/23/6 28/22/6
f 29/23/6 13/21/6 10/35/6
f 29/23/6 10/35/6 40/24/6
f 40/24/6 10/35/6 39/25/6
f 39/25/6 10/35/6 38/26/6
f 38/26/6 10/35/6 37/27/6
f 37/27/6 10/35/6 36/28/6
f 36/28/6 10/35/6 35/29/6
f 35/29/6 10/35/6 34/30/6
f 34/30/6 10/35/6 33/31/6
f 33/31/6 10/35/6 32/32/6
f 32/32/6 10/35/6 31/33/6
f 31/33/6 10/35/6 30/34/6

