# Created by Kenney (www.kenney.nl)

mtllib tile242.mtl

g tile242

v 0.5 0.2 0.25
v 0.5 0.1 0.25
v 0.5 0.5788248 0.25
v 0.5 4.331469E-13 0.5
v 0.5 0.1 -0.25
v 0.5 4.912006E-13 -0.5
v 0.5 0.2 -0.25
v 0.5 0.5788248 -0.25
v 0.5 0.7333333 -0.5
v 0.5 0.7333333 0.5
v -0.5 0 0.5
v -0.5 0.7333333 0.5
v -0.5 5.805371E-14 -0.5
v -0.5 0.2 0.25
v -0.5 0.5788248 0.25
v -0.5 0.7333333 -0.5
v -0.5 0.1 -0.25
v -0.5 0.1 0.25
v -0.5 0.5788248 -0.25
v -0.5 0.2 -0.25

vn 0.3333333 0 0
vn 0 0 0.3333333
vn 0 -0.3333333 0
vn 0 0 -0.3333333
vn 0 0.3333333 0
vn -0.3333333 0 0

vt -29.52756 23.62205
vt -29.52756 11.81102
vt -29.52756 68.36514
vt -59.05512 2.382585E-11
vt 29.52756 11.81102
vt 59.05512 3.068258E-11
vt 29.52756 23.62205
vt 29.52756 68.36514
vt 59.05512 86.61417
vt -59.05512 86.61417
vt -59.05512 0
vt 59.05512 5.115908E-11
vt 59.05512 -59.05512
vt -59.05512 -59.05512
vt 59.05512 59.05512
vt -59.05512 59.05512
vt 59.05512 23.62205
vt -59.05512 23.62205
vt 59.05512 68.36514
vt -59.05512 68.36514
vt 59.05512 6.856737E-12
vt -59.05512 5.801581E-11
vt -59.05512 2.990997E-11
vt 59.05512 2.305323E-11
vt 59.05512 29.52756
vt 59.05512 -29.52756
vt -59.05512 29.52756
vt -59.05512 -29.52756

usemtl pavement

f 3/3/1 2/2/1 1/1/1
f 4/4/1 2/2/1 3/3/1
f 4/4/1 5/5/1 2/2/1
f 6/6/1 5/5/1 4/4/1
f 5/5/1 6/6/1 7/7/1
f 7/7/1 6/6/1 8/8/1
f 9/9/1 8/8/1 6/6/1
f 8/8/1 9/9/1 10/10/1
f 8/8/1 10/10/1 3/3/1
f 4/4/1 3/3/1 10/10/1
f 4/12/2 12/10/2 11/11/2
f 12/10/2 4/12/2 10/9/2
f 4/15/3 13/14/3 6/13/3
f 13/14/3 4/15/3 11/16/3
f 15/19/4 1/18/4 14/17/4
f 1/18/4 15/19/4 3/20/4
f 9/14/5 12/15/5 10/16/5
f 12/15/5 9/14/5 16/13/5
f 16/9/4 6/22/4 13/21/4
f 6/22/4 16/9/4 9/10/4
f 13/23/6 17/2/6 16/10/6
f 17/2/6 13/23/6 11/24/6
f 17/2/6 11/24/6 18/5/6
f 18/5/6 11/24/6 14/7/6
f 14/7/6 11/24/6 15/8/6
f 19/3/6 16/10/6 17/2/6
f 16/10/6 19/3/6 12/9/6
f 12/9/6 19/3/6 15/8/6
f 12/9/6 15/8/6 11/24/6
f 19/3/6 17/2/6 20/1/6
f 7/17/2 19/20/2 20/18/2
f 19/20/2 7/17/2 8/19/2
f 15/27/3 8/26/3 3/25/3
f 8/26/3 15/27/3 19/28/3

usemtl asphalt

f 20/26/5 1/27/5 7/28/5
f 1/27/5 20/26/5 14/25/5
f 18/5/6 20/1/6 17/2/6
f 20/1/6 18/5/6 14/7/6
f 1/1/1 5/5/1 7/7/1
f 5/5/1 1/1/1 2/2/1

