# Created by Kenney (www.kenney.nl)

mtllib tile143.mtl

g tile143

v -0.5 0 0.5000001
v -0.5 0 0.2500003
v -0.5 0.1833333 0.5000001
v -0.5 0.1516667 0.2500003
v -0.5 0.1833333 0.2500003
v -0.5000001 0.1833333 -0.4999999
v 0.25 0.1833333 -0.2499999
v -0.5000001 0.1833333 -0.2499998
v 0.5 0.1833333 -0.5000001
v 0.5000001 0.1833333 0.4999999
v 0.2500001 0.1833333 0.2500002
v -0.5000001 0 -0.4999999
v 0.5 2.255973E-16 -0.5000001
v 0.5000001 2.255973E-16 0.4999999
v 0.2500001 0.1516667 0.2500002
v 0.25 0.1516667 -0.2499999
v -0.5000001 0.1516667 -0.2499998
v -0.5000001 0 -0.2499998

vn -1 0 1.192093E-07
vn 0 1 0
vn -1.192093E-07 0 -1
vn 1.192093E-07 0 1
vn 1 0 -1.192093E-07
vn 0 -1 0

vt 19.68504 1.698237E-21
vt 9.842526 1.698237E-21
vt 19.68504 7.217848
vt 9.842526 5.971128
vt 9.842526 7.217848
vt -19.68504 -19.68504
vt -9.842513 9.84252
vt -9.842513 -19.68504
vt -19.68504 19.68504
vt 19.68504 19.68504
vt 9.842526 9.84252
vt 19.68504 -19.68504
vt 9.842526 -19.68504
vt 19.68504 5.420564E-23
vt -19.68504 7.217848
vt -19.68504 8.881784E-15
vt -19.68504 5.420759E-23
vt 19.68504 8.881784E-15
vt 19.68504 5.971128
vt -9.84252 7.217848
vt -9.84252 5.971128
vt -9.842513 5.971128
vt -9.842513 7.217848
vt -19.68504 5.971128
vt 9.84252 5.971128
vt 9.84252 7.217848
vt 9.842513 -19.68504
vt -9.842526 -19.68504
vt -9.842513 -1.141175E-13
vt -19.68504 -1.141175E-13

usemtl grass

f 3/3/1 2/2/1 1/1/1
f 2/2/1 3/3/1 4/4/1
f 4/4/1 3/3/1 5/5/1
f 8/8/2 7/7/2 6/6/2
f 7/7/2 9/9/2 6/6/2
f 9/9/2 7/7/2 10/10/2
f 10/10/2 7/7/2 11/11/2
f 11/11/2 3/12/2 10/10/2
f 3/12/2 11/11/2 5/13/2
f 9/15/3 12/14/3 6/3/3
f 12/14/3 9/15/3 13/16/3
f 14/18/4 3/15/4 1/17/4
f 3/15/4 14/18/4 10/3/4
f 11/20/3 4/19/3 5/3/3
f 4/19/3 11/20/3 15/21/3
f 9/3/5 14/16/5 13/18/5
f 14/16/5 9/3/5 10/15/5
f 11/5/1 16/22/1 15/4/1
f 16/22/1 11/5/1 7/23/1
f 16/25/4 8/15/4 17/24/4
f 8/15/4 16/25/4 7/26/4
f 14/9/6 12/12/6 13/10/6
f 12/12/6 14/9/6 18/27/6
f 18/27/6 14/9/6 2/28/6
f 2/28/6 14/9/6 1/6/6
f 17/22/1 12/30/1 18/29/1
f 12/30/1 17/22/1 6/15/1
f 6/15/1 17/22/1 8/23/1

usemtl water

f 17/8/2 15/11/2 16/7/2
f 15/11/2 17/8/2 4/13/2
f 4/4/1 18/29/1 2/2/1
f 18/29/1 4/4/1 17/22/1

