# Created by Kenney (www.kenney.nl)

mtllib tile129.mtl

g tile129

v -0.125 0.21 -0.5
v -0.3125 0.21 -0.3125
v -0.3125 0.21 -0.5
v -0.5 0.21 -0.125
v -0.125 0.21 -0.125
v -0.5 0.21 -0.3125
v 0.125 0.2 0.125
v 0.5 0.2 0.125
v 0.125 0.21 0.125
v 0.5 0.21 0.125
v -0.125 0.2 -0.5
v -0.125 0.2 -0.125
v -0.3125 6.617521E-16 0.5
v 0.125 0.105 0.5
v 0.3125 6.617521E-16 0.5
v 0.3125 0.21 0.5
v 0.125 0.2 0.5
v 0.125 0.21 0.5
v -0.125 0.105 0.5
v -0.3125 0.21 0.5
v -0.125 0.2 0.5
v -0.125 0.21 0.5
v 0.5 0.21 0.3125
v 0.5 0.1 0.125
v 0.5 6.617521E-16 0.3125
v 0.5 0.1 -0.125
v 0.5 5.414336E-16 -0.3125
v 0.5 0.21 -0.125
v 0.5 0.21 -0.3125
v 0.5 0.2 -0.125
v 0.3125 0.21 -0.3125
v 0.125 0.21 -0.125
v 0.3125 0.21 -0.5
v 0.125 0.21 -0.5
v 0.125 0.2 -0.5
v 0.125 0.2 -0.125
v -0.3125 3.609557E-16 0.3125
v -0.3125 0.21 0.3125
v -0.5 3.007964E-16 -0.3125
v -0.3125 3.007964E-16 -0.3125
v -0.5 3.609557E-16 0.3125
v -0.5 0.21 0.3125
v 0.3125 0.21 0.3125
v 0.3125 0 0.3125
v -0.5 0.1 -0.125
v -0.5 0.1 0.125
v -0.5 0.2 0.125
v -0.5 0.21 0.125
v -0.5 0.2 -0.125
v 0.3125 5.414336E-16 -0.5
v -0.125 0.105 -0.5
v -0.3125 3.007964E-16 -0.5
v 0.125 0.105 -0.5
v 0.3125 5.414336E-16 -0.3125
v -0.125 0.21 0.125
v -0.125 0.2 0.125

vn 0 0.3333333 0
vn 0 0 -0.3333333
vn 0.3333333 0 0
vn 0 0 0.3333333
vn -0.3333333 0 0
vn 0 -0.3333333 0

vt 14.76378 -59.05512
vt 36.90945 -36.90945
vt 36.90945 -59.05512
vt 59.05512 -14.76378
vt 14.76378 -14.76378
vt 59.05512 -36.90945
vt -14.76378 23.62205
vt -59.05512 23.62205
vt -14.76378 24.80315
vt -59.05512 24.80315
vt 59.05512 24.80315
vt 59.05512 23.62205
vt 14.76378 24.80315
vt 14.76378 23.62205
vt -36.90945 -1.688821E-12
vt 14.76378 12.40158
vt 36.90945 -1.688821E-12
vt 36.90945 24.80315
vt 14.76378 23.62205
vt 14.76378 24.80315
vt -14.76378 12.40158
vt -36.90945 24.80315
vt -14.76378 24.80315
vt -14.76378 23.62205
vt -36.90945 24.80315
vt -14.76378 11.81102
vt -36.90945 7.81597E-14
vt 14.76378 11.81102
vt 36.90945 6.394885E-14
vt -59.05512 -36.90945
vt -59.05512 -14.76378
vt -36.90945 -36.90945
vt -14.76378 -14.76378
vt -36.90945 -59.05512
vt -14.76378 -59.05512
vt -14.76378 23.62205
vt -14.76378 24.80315
vt 36.90945 2.118094E-13
vt 36.90945 24.80315
vt 59.05512 2.473365E-13
vt 14.76378 23.62205
vt 14.76378 24.80315
vt 59.05512 3.552714E-14
vt 36.90945 3.552714E-14
vt -36.90945 4.263256E-14
vt -59.05512 4.263256E-14
vt -59.05512 14.76378
vt -59.05512 36.90945
vt -14.76378 14.76378
vt -36.90945 36.90945
vt -14.76378 59.05512
vt -36.90945 59.05512
vt 36.90945 -1.353415E-12
vt 59.05512 -1.275255E-12
vt -14.76378 11.81102
vt -36.90945 3.552714E-14
vt 36.90945 4.263256E-14
vt 14.76378 11.81102
vt -36.90945 -2.027651E-13
vt 36.90945 -2.311868E-13
vt 36.90945 36.90945
vt 36.90945 59.05512
vt 59.05512 36.90945
vt -36.90945 6.394885E-14
vt -59.05512 6.394885E-14
vt 14.76378 59.05512
vt 14.76378 14.76378
vt 59.05512 14.76378
vt 59.05512 6.394885E-14
vt -59.05512 3.552714E-14
vt -36.90945 3.479191E-26
vt -59.05512 7.81597E-14

usemtl pavement

f 3/3/1 2/2/1 1/1/1
f 4/4/1 1/1/1 2/2/1
f 1/1/1 4/4/1 5/5/1
f 4/4/1 2/2/1 6/6/1
f 9/9/2 8/8/2 7/7/2
f 8/8/2 9/9/2 10/10/2
f 5/13/3 11/12/3 1/11/3
f 11/12/3 5/13/3 12/14/3
f 15/17/4 14/16/4 13/15/4
f 14/16/4 15/17/4 16/18/4
f 14/16/4 16/18/4 17/19/4
f 17/19/4 16/18/4 18/20/4
f 19/21/4 13/15/4 14/16/4
f 13/15/4 19/21/4 20/22/4
f 20/22/4 19/21/4 21/7/4
f 20/22/4 21/7/4 22/9/4
f 23/25/3 8/24/3 10/23/3
f 8/24/3 23/25/3 24/26/3
f 25/27/3 24/26/3 23/25/3
f 25/27/3 26/28/3 24/26/3
f 27/29/3 26/28/3 25/27/3
f 27/29/3 28/13/3 26/28/3
f 28/13/3 27/29/3 29/18/3
f 26/28/3 28/13/3 30/14/3
f 31/32/1 28/31/1 29/30/1
f 28/31/1 31/32/1 32/33/1
f 32/33/1 31/32/1 33/34/1
f 32/33/1 33/34/1 34/35/1
f 36/36/5 34/10/5 35/8/5
f 34/10/5 36/36/5 32/37/5
f 13/40/5 38/39/5 37/38/5
f 38/39/5 13/40/5 20/11/5
f 17/12/5 9/42/5 7/41/5
f 9/42/5 17/12/5 18/11/5
f 6/11/2 40/44/2 39/43/2
f 40/44/2 6/11/2 2/18/2
f 38/22/4 41/46/4 37/45/4
f 41/46/4 38/22/4 42/10/4
f 9/49/1 23/48/1 10/47/1
f 23/48/1 9/49/1 43/50/1
f 43/50/1 9/49/1 18/51/1
f 18/51/1 16/52/1 43/50/1
f 25/54/4 43/18/4 44/53/4
f 43/18/4 25/54/4 23/11/4
f 39/56/5 45/55/5 6/22/5
f 45/55/5 39/56/5 41/57/5
f 45/55/5 41/57/5 46/58/5
f 46/58/5 41/57/5 47/41/5
f 47/41/5 41/57/5 48/42/5
f 48/42/5 41/57/5 42/39/5
f 45/55/5 4/37/5 6/22/5
f 4/37/5 45/55/5 49/36/5
f 52/60/2 51/16/2 50/59/2
f 51/16/2 52/60/2 3/18/2
f 51/16/2 3/18/2 11/19/2
f 11/19/2 3/18/2 1/20/2
f 53/21/2 50/59/2 51/16/2
f 50/59/2 53/21/2 33/22/2
f 33/22/2 53/21/2 35/7/2
f 33/22/2 35/7/2 34/9/2
f 41/48/6 40/32/6 37/50/6
f 40/32/6 41/48/6 39/30/6
f 52/34/6 37/50/6 40/32/6
f 52/34/6 13/52/6 37/50/6
f 50/3/6 13/52/6 52/34/6
f 54/2/6 13/52/6 50/3/6
f 44/61/6 13/52/6 54/2/6
f 13/52/6 44/61/6 15/62/6
f 27/6/6 44/61/6 54/2/6
f 44/61/6 27/6/6 25/63/6
f 22/10/3 56/24/3 55/23/3
f 56/24/3 22/10/3 21/8/3
f 31/22/2 27/65/2 54/64/2
f 27/65/2 31/22/2 29/10/2
f 55/67/1 20/62/1 22/66/1
f 20/62/1 55/67/1 38/61/1
f 38/61/1 55/67/1 48/68/1
f 38/61/1 48/68/1 42/63/1
f 28/11/4 36/19/4 30/12/4
f 36/19/4 28/11/4 32/20/4
f 31/18/3 50/69/3 33/11/3
f 50/69/3 31/18/3 54/29/3
f 40/56/5 3/10/5 52/70/5
f 3/10/5 40/56/5 2/22/5
f 16/10/3 44/71/3 43/25/3
f 44/71/3 16/10/3 15/72/3
f 5/9/4 49/8/4 12/7/4
f 49/8/4 5/9/4 4/10/4
f 48/11/2 56/19/2 47/12/2
f 56/19/2 48/11/2 55/20/2

usemtl asphalt

f 17/19/4 19/21/4 14/16/4
f 19/21/4 17/19/4 21/7/4
f 11/19/2 53/21/2 51/16/2
f 53/21/2 11/19/2 35/7/2
f 8/24/3 26/28/3 30/14/3
f 26/28/3 8/24/3 24/26/3
f 36/33/1 8/47/1 30/31/1
f 8/47/1 36/33/1 7/49/1
f 21/66/1 7/49/1 36/33/1
f 7/49/1 21/66/1 17/51/1
f 21/66/1 36/33/1 35/35/1
f 21/66/1 35/35/1 56/67/1
f 56/67/1 35/35/1 12/5/1
f 12/5/1 35/35/1 11/1/1
f 12/5/1 47/68/1 56/67/1
f 47/68/1 12/5/1 49/4/1
f 46/58/5 49/36/5 45/55/5
f 49/36/5 46/58/5 47/41/5

