# Created by Kenney (www.kenney.nl)

mtllib tile169.mtl

g tile169

v 0.5000001 0 -0.4999999
v 0.5000001 0.1833333 -0.4999999
v -0.5 0 -0.5000001
v -0.5 0.1833333 -0.5000001
v 0.5 0.1833333 0.5000001
v 0.5 0 0.5000001
v -0.5000001 0.1833333 0.4999999
v -0.5000001 0 0.4999999
v -0.5000001 0 0.375
v -0.5000001 0.1833333 0.375
v 0.5000001 0 -0.375
v 0.5000001 0.1833333 -0.375
v 0.5 0 0.3750001
v -0.5 0 -0.3750001
v 0.5 0.1833333 0.3750001
v -0.5 0.1833333 -0.3750001
v 0.5000001 0.1 -0.2499999
v 0.5 0.1 0.2500001
v 0.5000001 0.2 -0.2499999
v 0.5 0.2 0.2500001
v -0.5000001 0.1 0.2499999
v -0.5 0.1 -0.2500001
v -0.5000001 0.2 0.2499999
v -0.5 0.2 -0.2500001
v 0.125 0.2 0.1875
v 0.125 0.2 0.125
v 0.125 0.2 0.06250002
v -0.125 0.2 0.125
v -0.125 0.2 0.06249999
v 0.125 0.2 1.490116E-08
v 0.125 0.2 -0.06249999
v -0.125 0.2 -1.490116E-08
v 0.125 0.2 -0.125
v -0.125 0.2 -0.125
v 0.125 0.2 -0.1875
v -0.125 0.2 -0.1875
v 0.125 0.2 -0.25
v -0.125 0.2 0.1875
v -0.125 0.2 -0.06250002
v -0.125 0.2 -0.2500001
v 0.5 0.21 0.2500001
v -0.5000001 0.21 0.2499999
v 0.5000001 0.21 -0.2499999
v -0.5 0.21 -0.2500001
v -0.5 0.21 -0.3750001
v 0.5000001 0.21 -0.375
v 0.5 0.21 0.3750001
v -0.5000001 0.21 0.375

vn 1.192093E-07 0 -1
vn -1.192093E-07 0 1
vn -1 0 -1.192093E-07
vn 1 0 1.192093E-07
vn 0 -1 0
vn 0 1 0

vt -19.68504 0
vt -19.68504 7.217848
vt 19.68504 0
vt 19.68504 7.217848
vt 14.76378 0
vt 14.76378 7.217848
vt 19.68504 -2.583792E-14
vt 14.76378 -2.583792E-14
vt 19.68504 19.68504
vt 19.68504 -19.68504
vt 14.76378 19.68504
vt 14.76378 -19.68504
vt -14.76378 19.68504
vt -14.76378 -19.68504
vt -19.68504 19.68504
vt -19.68504 -19.68504
vt -14.76378 1.291896E-14
vt -19.68504 1.291896E-14
vt -14.76378 7.217848
vt -14.76378 -2.583792E-14
vt -19.68504 -2.583792E-14
vt 9.84252 3.937008
vt -9.84252 3.937008
vt 9.84252 7.874016
vt -9.84252 7.874016
vt -9.84252 19.68504
vt -7.38189 -4.92126
vt -9.84252 -19.68504
vt 9.84252 -19.68504
vt -4.92126 -4.92126
vt -2.46063 -4.92126
vt -4.92126 4.92126
vt -2.46063 4.92126
vt -4.547474E-13 -4.92126
vt 2.46063 -4.92126
vt 0 4.92126
vt 4.92126 -4.92126
vt 4.92126 4.92126
vt 7.38189 -4.92126
vt 7.38189 4.92126
vt 9.84252 -4.92126
vt -7.38189 4.92126
vt 9.84252 19.68504
vt 2.46063 4.92126
vt 9.84252 4.92126
vt -19.68504 7.874016
vt -19.68504 8.267716
vt 19.68504 7.874016
vt 19.68504 8.267716
vt 4.92126 7.874016
vt -4.92126 7.874016
vt 14.76378 8.267716
vt 9.84252 8.267716
vt -14.76378 8.267716
vt -9.84252 8.267716

usemtl grass

f 3/3/1 2/2/1 1/1/1
f 2/2/1 3/3/1 4/4/1
f 7/2/2 6/3/2 5/4/2
f 6/3/2 7/2/2 8/1/2
f 7/4/3 9/5/3 8/3/3
f 9/5/3 7/4/3 10/6/3
f 2/4/4 11/8/4 1/7/4
f 11/8/4 2/4/4 12/6/4
f 9/11/5 6/10/5 8/9/5
f 6/10/5 9/11/5 13/12/5
f 13/12/5 9/11/5 14/13/5
f 13/12/5 14/13/5 11/14/5
f 11/14/5 14/13/5 3/15/5
f 11/14/5 3/15/5 1/16/5
f 15/14/6 7/15/6 5/16/6
f 7/15/6 15/14/6 10/13/6
f 12/12/6 4/9/6 16/11/6
f 4/9/6 12/12/6 2/10/6
f 16/19/3 3/18/3 14/17/3
f 3/18/3 16/19/3 4/2/3
f 15/19/4 6/21/4 13/20/4
f 6/21/4 15/19/4 5/2/4

usemtl asphalt

f 19/24/4 18/23/4 17/22/4
f 18/23/4 19/24/4 20/25/4
f 23/24/3 22/23/3 21/22/3
f 22/23/3 23/24/3 24/25/3
f 20/28/6 25/27/6 23/26/6
f 25/27/6 20/28/6 19/29/6
f 25/27/6 19/29/6 26/30/6
f 26/30/6 19/29/6 27/31/6
f 26/30/6 27/31/6 28/32/6
f 28/32/6 27/31/6 29/33/6
f 27/31/6 19/29/6 30/34/6
f 30/34/6 19/29/6 31/35/6
f 30/34/6 31/35/6 32/36/6
f 31/35/6 19/29/6 33/37/6
f 33/37/6 19/29/6 34/38/6
f 34/38/6 19/29/6 35/39/6
f 34/38/6 35/39/6 36/40/6
f 35/39/6 19/29/6 37/41/6
f 38/42/6 23/26/6 25/27/6
f 24/43/6 38/42/6 28/32/6
f 24/43/6 28/32/6 29/33/6
f 24/43/6 29/33/6 32/36/6
f 24/43/6 34/38/6 36/40/6
f 23/26/6 38/42/6 24/43/6
f 24/43/6 32/36/6 39/44/6
f 39/44/6 32/36/6 31/35/6
f 24/43/6 39/44/6 34/38/6
f 24/43/6 36/40/6 40/45/6

usemtl pavement

f 23/48/1 41/47/1 20/46/1
f 41/47/1 23/48/1 42/49/1
f 44/47/2 19/48/2 43/49/2
f 19/48/2 44/47/2 37/50/2
f 37/50/2 44/47/2 40/51/2
f 40/51/2 44/47/2 24/46/2
f 43/29/6 45/11/6 44/43/6
f 45/11/6 43/29/6 46/12/6
f 41/28/6 48/13/6 47/14/6
f 48/13/6 41/28/6 42/26/6
f 48/47/2 15/4/2 47/49/2
f 15/4/2 48/47/2 10/2/2
f 16/4/1 46/47/1 12/2/1
f 46/47/1 16/4/1 45/49/1
f 9/5/3 21/22/3 14/17/3
f 21/22/3 9/5/3 10/6/3
f 21/22/3 10/6/3 23/24/3
f 23/24/3 10/6/3 48/52/3
f 23/24/3 48/52/3 42/53/3
f 22/23/3 14/17/3 21/22/3
f 14/17/3 22/23/3 16/19/3
f 16/19/3 22/23/3 24/25/3
f 16/19/3 24/25/3 45/54/3
f 45/54/3 24/25/3 44/55/3
f 11/8/4 17/22/4 13/20/4
f 17/22/4 11/8/4 12/6/4
f 17/22/4 12/6/4 19/24/4
f 19/24/4 12/6/4 46/52/4
f 19/24/4 46/52/4 43/53/4
f 18/23/4 13/20/4 17/22/4
f 13/20/4 18/23/4 15/19/4
f 15/19/4 18/23/4 20/25/4
f 15/19/4 20/25/4 47/54/4
f 47/54/4 20/25/4 41/55/4

usemtl striping

f 35/39/6 40/45/6 36/40/6
f 40/45/6 35/39/6 37/41/6
f 27/31/6 32/36/6 29/33/6
f 32/36/6 27/31/6 30/34/6
f 33/37/6 39/44/6 31/35/6
f 39/44/6 33/37/6 34/38/6
f 26/30/6 38/42/6 25/27/6
f 38/42/6 26/30/6 28/32/6

