# Created by Kenney (www.kenney.nl)

mtllib tile113.mtl

g tile113

v -0.5 0.21 0.375
v -0.5 0.1833333 0.375
v -0.5 0.21 0.25
v -0.5 2.255973E-17 0.375
v -0.5 0 0.25
v -0.5 0.1516667 0.25
v 0.5 9.023893E-17 -0.25
v 0.5 0.1516667 -0.25
v 0.5 9.023893E-17 -0.375
v 0.5 0.55 -0.375
v 0.5 0.5766667 -0.375
v 0.5 0.5766667 -0.25
v -0.5 0.1516667 -0.25
v -0.5 0.21 -0.25
v 0.5 0.1516667 0.25
v 0.5 0.5766667 0.25
v -0.5 0.21 -0.375
v -0.5 0 -0.25
v -0.5 2.255973E-17 -0.375
v -0.5 0.1833333 -0.375
v 0.5 9.023893E-17 0.375
v 0.5 0.55 0.375
v 0.5 9.023893E-17 0.25
v 0.5 0.5766667 0.375
v 0.5 0 0.5
v -0.5 0 0.5
v 0.5 0.55 0.5
v -0.5 0.1833333 0.5
v -0.5 0 -0.5
v 0.5 0 -0.5
v -0.5 0.1833333 -0.5
v 0.5 0.55 -0.5

vn -1 0 1.490123E-08
vn 1 0 -1.490123E-08
vn 1.490123E-08 0 1
vn -1.490123E-08 0 -1
vn -0.3442546 0.9388763 5.129818E-09
vn 0 -1 0
vn 0 1 0

vt 14.76378 8.267717
vt 14.76378 7.217848
vt 9.842521 8.267717
vt 14.76378 5.768024E-07
vt 9.842521 5.768024E-07
vt 9.842521 5.971129
vt 9.842519 -3.289162E-07
vt 9.842519 5.971128
vt 14.76378 -3.289162E-07
vt 14.76378 21.65354
vt 14.76378 22.70341
vt 9.842519 22.70341
vt 19.68504 5.971128
vt -19.68504 5.971128
vt 19.68504 22.70341
vt -19.68504 8.267716
vt 19.68504 8.267716
vt -19.68504 22.70341
vt -9.842521 8.267716
vt -9.842521 5.971128
vt -14.76378 8.267716
vt -9.842521 -2.200506E-07
vt -14.76378 -2.200506E-07
vt -14.76378 7.217847
vt -14.76378 -2.803746E-07
vt -14.76378 21.65354
vt -9.84252 -2.803746E-07
vt -14.76378 22.70341
vt -9.84252 5.971128
vt -9.84252 22.70341
vt 19.68504 7.217848
vt -19.68504 21.65354
vt -14.76378 -15.63562
vt -14.76378 26.29757
vt -9.842521 -15.63562
vt -9.842519 26.29757
vt 14.76378 -15.63562
vt 9.84252 -15.63562
vt 14.76378 26.29757
vt 9.84252 26.29757
vt -19.68504 7.217848
vt 19.68504 21.65354
vt 19.68504 -5.425963E-13
vt -19.68504 -5.425963E-13
vt 19.68504 5.425963E-13
vt -19.68504 5.425963E-13
vt 19.68504 19.68504
vt 19.68504 14.76378
vt -19.68504 19.68504
vt 19.68504 9.84252
vt -19.68504 -19.68504
vt 19.68504 -9.84252
vt 19.68504 -14.76378
vt 19.68504 -19.68504
vt -19.68504 14.76378
vt -19.68504 -14.76378
vt -19.68504 -9.84252
vt -19.68504 9.84252
vt -19.68504 -15.99704
vt -19.68504 25.93615
vt -14.76378 -15.99704
vt -14.76378 25.93615
vt -14.76378 7.217848
vt -19.68504 -1.499986E-07
vt 19.68504 7.217847
vt 19.68504 -2.249982E-07
vt 19.68504 -15.99704
vt 14.76378 -15.99704
vt 19.68504 25.93615
vt 14.76378 25.93615
vt -19.68504 -8.333211E-09
vt 19.68504 -8.055481E-08
vt 9.84252 5.971128

usemtl pavement

f 3/3/1 2/2/1 1/1/1
f 2/2/1 3/3/1 4/4/1
f 4/4/1 3/3/1 5/5/1
f 5/5/1 3/3/1 6/6/1
f 9/9/2 8/8/2 7/7/2
f 10/10/2 8/8/2 9/9/2
f 11/11/2 8/8/2 10/10/2
f 8/8/2 11/11/2 12/12/2
f 12/15/3 13/14/3 8/13/3
f 13/14/3 12/15/3 14/16/3
f 3/17/4 15/14/4 6/13/4
f 15/14/4 3/17/4 16/18/4
f 17/21/1 13/20/1 14/19/1
f 13/20/1 17/21/1 18/22/1
f 18/22/1 17/21/1 19/23/1
f 19/23/1 17/21/1 20/24/1
f 23/27/2 22/26/2 21/25/2
f 22/26/2 23/27/2 24/28/2
f 24/28/2 23/27/2 15/29/2
f 24/28/2 15/29/2 16/30/2
f 17/17/4 10/32/4 20/31/4
f 10/32/4 17/17/4 11/18/4
f 14/35/5 11/34/5 17/33/5
f 11/34/5 14/35/5 12/36/5
f 24/39/5 3/38/5 1/37/5
f 3/38/5 24/39/5 16/40/5
f 22/42/3 1/16/3 2/41/3
f 1/16/3 22/42/3 24/15/3

usemtl grass

f 27/42/3 26/44/3 25/43/3
f 26/44/3 27/42/3 28/41/3
f 31/31/4 30/46/4 29/45/4
f 30/46/4 31/31/4 32/32/4
f 30/49/6 19/48/6 29/47/6
f 19/48/6 30/49/6 18/50/6
f 25/51/6 18/50/6 30/49/6
f 25/51/6 5/52/6 18/50/6
f 25/51/6 4/53/6 5/52/6
f 4/53/6 25/51/6 26/54/6
f 25/51/6 30/49/6 9/55/6
f 25/51/6 9/55/6 21/56/6
f 21/56/6 9/55/6 23/57/6
f 23/57/6 9/55/6 7/58/6
f 20/61/5 32/60/5 31/59/5
f 32/60/5 20/61/5 10/62/5
f 31/41/1 19/23/1 20/63/1
f 19/23/1 31/41/1 29/64/1
f 2/2/1 26/66/1 28/65/1
f 26/66/1 2/2/1 4/4/1
f 27/69/5 2/68/5 28/67/5
f 2/68/5 27/69/5 22/70/5
f 21/25/2 27/32/2 25/71/2
f 27/32/2 21/25/2 22/26/2
f 30/72/2 10/10/2 9/9/2
f 10/10/2 30/72/2 32/42/2

usemtl water

f 15/52/7 13/58/7 6/57/7
f 13/58/7 15/52/7 8/50/7
f 13/20/1 5/5/1 6/73/1
f 5/5/1 13/20/1 18/22/1
f 7/7/2 15/29/2 23/27/2
f 15/29/2 7/7/2 8/8/2

