# Created by Kenney (www.kenney.nl)

mtllib tile063.mtl

g tile063

v 0.5 0.3833333 0.2500001
v -0.5000001 0.2 0.2499999
v 0.5000001 0.3833333 -0.2499999
v -0.5 0.2 -0.2500001
v -0.5000001 0.1 0.2499999
v -0.5 0.1 -0.2500001
v 0.5000001 0.2833333 -0.2499999
v 0.5 0.2833333 0.2500001
v 0.5 0.1833333 0.5000001
v 0.5000001 0.1833333 -0.4999999
v 0.5000001 0.3933333 -0.4999999
v 0.5000001 0.3933333 -0.2499999
v 0.5 0.3933333 0.5000001
v 0.5 0.3933333 0.2500001
v -0.5000001 0.21 0.4999999
v -0.5000001 0.21 0.2499999
v -0.5000001 3.158362E-16 0.4999999
v -0.5 0.21 -0.2500001
v -0.5 0.21 -0.5000001
v -0.5 0 -0.5000001

vn -0.1803279 0.9836066 -1.490116E-08
vn -1 0 -1.192093E-07
vn 1 0 1.192093E-07
vn -1.192093E-07 0 1
vn 1.192093E-07 0 -1
vn 0.1803279 -0.9836066 1.490116E-08

vt 9.84252 22.08382
vt 9.84252 -17.94243
vt -9.84252 22.08382
vt -9.84252 -17.94243
vt 9.84252 3.937008
vt -9.84252 3.937008
vt 9.84252 7.874016
vt -9.84252 7.874016
vt 9.84252 11.15486
vt -9.84252 11.15486
vt 9.84252 15.09186
vt -9.84252 15.09186
vt -19.68504 7.217848
vt 19.68504 7.217848
vt 19.68504 15.48556
vt 9.84252 15.48556
vt -19.68504 15.48556
vt -9.84252 15.48556
vt 19.68504 22.15481
vt 19.68504 -17.87143
vt 9.84252 22.15481
vt 9.84252 -17.87143
vt -19.68504 8.267716
vt -19.68504 1.24345E-14
vt -19.68504 15.09186
vt 19.68504 7.874016
vt 19.68504 8.267716
vt -9.84252 22.15481
vt -9.84252 -17.87143
vt -19.68504 22.15481
vt -19.68504 -17.87143
vt 19.68504 2.42861E-28
vt 19.68504 15.09186
vt -19.68504 7.874016
vt -19.68504 -19.36233
vt -19.68504 20.66391
vt 19.68504 -19.36233
vt 19.68504 20.66391
vt 19.68504 1.875315E-13
vt 9.84252 8.267716
vt -19.68504 1.750971E-13
vt -9.84252 8.267716

usemtl asphalt

f 3/3/1 2/2/1 1/1/1
f 2/2/1 3/3/1 4/4/1
f 2/7/2 6/6/2 5/5/2
f 6/6/2 2/7/2 4/8/2
f 3/11/3 8/10/3 7/9/3
f 8/10/3 3/11/3 1/12/3

usemtl pavement

f 10/14/3 7/9/3 9/13/3
f 7/9/3 10/14/3 11/15/3
f 7/9/3 11/15/3 3/11/3
f 3/11/3 11/15/3 12/16/3
f 8/10/3 9/13/3 7/9/3
f 9/13/3 8/10/3 13/17/3
f 13/17/3 8/10/3 1/12/3
f 13/17/3 1/12/3 14/18/3
f 14/21/1 15/20/1 13/19/1
f 15/20/1 14/21/1 16/22/1
f 15/23/4 9/14/4 13/15/4
f 9/14/4 15/23/4 17/24/4
f 2/26/5 14/17/5 1/25/5
f 14/17/5 2/26/5 16/27/5
f 11/30/1 18/29/1 12/28/1
f 18/29/1 11/30/1 19/31/1
f 20/32/5 11/17/5 10/13/5
f 11/17/5 20/32/5 19/27/5
f 18/23/4 3/33/4 12/15/4
f 3/33/4 18/23/4 4/34/4
f 20/37/6 9/36/6 17/35/6
f 9/36/6 20/37/6 10/38/6
f 15/27/2 5/5/2 17/39/2
f 5/5/2 15/27/2 2/7/2
f 2/7/2 15/27/2 16/40/2
f 6/6/2 17/39/2 5/5/2
f 6/6/2 20/41/2 17/39/2
f 20/41/2 6/6/2 19/23/2
f 19/23/2 6/6/2 4/8/2
f 19/23/2 4/8/2 18/42/2

