# Created by Kenney (www.kenney.nl)

mtllib tile141.mtl

g tile141

v -0.5 0.2 -0.25
v -0.5 0.21 -0.25
v 0.5 0.5666667 -0.25
v 0.5 0.5766667 -0.25
v -0.5 0.2 0.25
v 0.5 0.5666667 0.25
v -0.5 0.21 0.25
v 0.5 0.5766667 0.25
v 0.5 0.5766667 -0.375
v -0.5 0.21 -0.375
v -0.5 0.1 -0.25
v -0.5 0 -0.375
v -0.5 3.17641E-13 0.375
v -0.5 0.1 0.25
v -0.5 0.21 0.375
v 0.5 0.5766667 0.375
v -3.946449E-14 3.484426E-13 0.375
v 0.5 0.3666667 0.375
v 0.5 0.4666667 0.25
v 0.5 0.4666667 -0.25
v 0.5 0.3666667 -0.375
v 6.064056E-14 8.362141E-15 -0.375

vn 0 0 0.3333333
vn 0 0 -0.3333333
vn -0.1147515 0.3129588 0
vn -0.3333333 0 0
vn 0.3333333 0 0
vn 0.1971212 -0.2688017 0
vn 0 -0.3333333 0

vt -59.05512 23.62205
vt -59.05512 24.80315
vt 59.05512 66.92913
vt 59.05512 68.11024
vt 59.05512 23.62205
vt -59.05512 66.92913
vt 59.05512 24.80315
vt -59.05512 68.11024
vt -44.29134 78.89272
vt -29.52756 78.89272
vt -44.29134 -46.90685
vt -29.52756 -46.90685
vt -44.29134 24.80315
vt -29.52756 11.81102
vt -44.29134 -8.081161E-12
vt 44.29134 2.94355E-11
vt 29.52756 11.81102
vt 29.52756 23.62205
vt 29.52756 24.80315
vt 44.29134 24.80315
vt -29.52756 24.80315
vt -29.52756 23.62205
vt 44.29134 78.89272
vt 44.29134 -46.90685
vt 29.52756 78.89272
vt 29.52756 -46.90685
vt -59.05512 2.029869E-10
vt -6.874419E-11 2.066249E-10
vt 59.05512 43.30709
vt -29.52756 68.11024
vt -29.52756 66.92913
vt -44.29134 68.11024
vt -29.52756 55.11811
vt -44.29134 43.30709
vt 29.52756 55.11811
vt 44.29134 43.30709
vt 29.52756 68.11024
vt 44.29134 68.11024
vt 29.52756 66.92913
vt 44.29134 73.23258
vt 44.29134 -2.047456E-11
vt -44.29134 73.23258
vt -44.29134 4.741289E-11
vt 7.162271E-12 -44.29134
vt -59.05512 -44.29134
vt -4.66116E-12 44.29134
vt -59.05512 44.29134
vt 59.05512 -4.835608E-13
vt -8.021697E-12 5.040936E-13
vt -59.05512 43.30709
vt 29.52756 78.48611
vt 29.52756 -47.31345
vt -29.52756 78.48611
vt -29.52756 -47.31345

usemtl pavement

f 3/3/1 2/2/1 1/1/1
f 2/2/1 3/3/1 4/4/1
f 7/7/2 6/6/2 5/5/2
f 6/6/2 7/7/2 8/8/2
f 10/11/3 4/10/3 9/9/3
f 4/10/3 10/11/3 2/12/3
f 12/15/4 11/14/4 10/13/4
f 11/14/4 12/15/4 13/16/4
f 11/14/4 13/16/4 14/17/4
f 14/17/4 13/16/4 5/18/4
f 5/18/4 13/16/4 7/19/4
f 7/19/4 13/16/4 15/20/4
f 11/14/4 2/21/4 10/13/4
f 2/21/4 11/14/4 1/22/4
f 8/25/3 15/24/3 16/23/3
f 15/24/3 8/25/3 7/26/3
f 17/28/1 15/2/1 13/27/1
f 15/2/1 17/28/1 18/29/1
f 15/2/1 18/29/1 16/4/1
f 16/32/5 6/31/5 8/30/5
f 6/31/5 16/32/5 19/33/5
f 19/33/5 16/32/5 18/34/5
f 18/34/5 20/35/5 19/33/5
f 21/36/5 20/35/5 18/34/5
f 21/36/5 4/37/5 20/35/5
f 4/37/5 21/36/5 9/38/5
f 20/35/5 4/37/5 3/39/5
f 18/42/6 22/41/6 21/40/6
f 22/41/6 18/42/6 17/43/6
f 17/46/7 12/45/7 22/44/7
f 12/45/7 17/46/7 13/47/7
f 10/7/2 22/49/2 12/48/2
f 22/49/2 10/7/2 21/50/2
f 21/50/2 10/7/2 9/8/2

usemtl asphalt

f 6/31/5 20/35/5 3/39/5
f 20/35/5 6/31/5 19/33/5
f 14/17/4 1/22/4 11/14/4
f 1/22/4 14/17/4 5/18/4
f 3/53/3 5/52/3 6/51/3
f 5/52/3 3/53/3 1/54/3

