# Created by Kenney (www.kenney.nl)

mtllib tile076.mtl

g tile076

v 0.5 0.2 0.2500001
v -0.5000001 0.2 0.2499999
v 0.5000001 0.2 -0.2499999
v -0.5 0.2 -0.2500001
v -0.5000001 0.1 0.2499999
v -0.5 0.1 -0.2500001
v 0.5000001 0.1 -0.2499999
v 0.5 0.1 0.2500001
v 0.5 4.511947E-16 0.3750001
v 0.5000001 3.158362E-16 -0.375
v 0.5000001 0.21 -0.375
v 0.5000001 0.21 -0.2499999
v 0.5 0.21 0.3750001
v 0.5 0.21 0.2500001
v -0.5000001 3.38396E-16 0.4999999
v -0.5000001 0.21 0.4999999
v -0.5000001 0.21 0.2499999
v -0.5 0 -0.5000001
v -0.5 0.21 -0.5000001
v -0.5 0.21 -0.2500001
v -5.960466E-08 0.21 0.5000001
v -5.960466E-08 3.158362E-16 0.5000001
v 5.960467E-08 3.158362E-16 -0.5000001
v 5.960467E-08 0.21 -0.5000001

vn 0 1 0
vn -1 0 -1.192093E-07
vn 1 0 1.192093E-07
vn 0.1221832 0 0.9925078
vn -1.192093E-07 0 1
vn 1.192093E-07 0 -1
vn 0.1221834 0 -0.9925077
vn 0 -1 0
vn 0.2425355 0 0.9701427
vn 0.2425358 0 -0.9701427

vt -9.84252 -19.68504
vt -9.84252 19.68504
vt 9.84252 -19.68504
vt 9.84252 19.68504
vt 9.84252 3.937008
vt -9.84252 3.937008
vt 9.84252 7.874016
vt -9.84252 7.874016
vt -14.76378 -4.773384E-13
vt 14.76378 -4.826675E-13
vt 14.76378 8.267716
vt 9.84252 8.267716
vt -14.76378 8.267716
vt -9.84252 8.267716
vt 19.68504 7.500868E-14
vt 19.68504 8.267716
vt -19.68504 6.168601E-14
vt -19.68504 8.267716
vt -19.68504 5.109276E-13
vt -19.68504 19.68504
vt -14.76378 -19.68504
vt -4.920333E-13 8.267716
vt -4.920333E-13 1.24345E-14
vt -19.68504 1.332268E-14
vt -19.68504 7.874016
vt 19.68504 7.874016
vt -1.136259E-12 1.24345E-14
vt -1.136259E-12 8.267716
vt 19.68504 4.176999E-29
vt 19.68504 5.115908E-13
vt 14.76378 -19.68504
vt 19.68504 19.68504
vt -19.68504 -1.080025E-12
vt 19.68504 -1.080025E-12
vt 15.51655 8.267716
vt 15.51655 1.819154E-14
vt -4.774323 8.267716
vt -4.774323 1.286247E-14
vt -15.51655 1.24345E-14
vt -15.51655 8.267716
vt 4.774323 1.24345E-14
vt 4.774323 8.267716

usemtl asphalt

f 3/3/1 2/2/1 1/1/1
f 2/2/1 3/3/1 4/4/1
f 2/7/2 6/6/2 5/5/2
f 6/6/2 2/7/2 4/8/2
f 3/7/3 8/6/3 7/5/3
f 8/6/3 3/7/3 1/8/3

usemtl pavement

f 10/10/3 7/5/3 9/9/3
f 7/5/3 10/10/3 11/11/3
f 7/5/3 11/11/3 3/7/3
f 3/7/3 11/11/3 12/12/3
f 8/6/3 9/9/3 7/5/3
f 9/9/3 8/6/3 13/13/3
f 13/13/3 8/6/3 1/8/3
f 13/13/3 1/8/3 14/14/3
f 16/16/2 5/5/2 15/15/2
f 5/5/2 16/16/2 2/7/2
f 2/7/2 16/16/2 17/12/2
f 6/6/2 15/15/2 5/5/2
f 6/6/2 18/17/2 15/15/2
f 18/17/2 6/6/2 19/18/2
f 19/18/2 6/6/2 4/8/2
f 19/18/2 4/8/2 20/14/2
f 13/21/1 16/20/1 21/19/1
f 16/20/1 13/21/1 17/2/1
f 17/2/1 13/21/1 14/1/1
f 16/18/5 22/23/4 21/22/4
f 22/23/4 16/18/5 15/24/5
f 2/26/6 14/18/6 1/25/6
f 14/18/6 2/26/6 17/16/6
f 18/29/6 24/28/7 23/27/7
f 24/28/7 18/29/6 19/16/6
f 20/18/5 3/26/5 12/16/5
f 3/26/5 20/18/5 4/25/5
f 15/32/8 9/31/8 22/30/8
f 9/31/8 15/32/8 18/20/8
f 9/31/8 18/20/8 10/21/8
f 10/21/8 18/20/8 23/33/8
f 11/31/1 20/4/1 12/3/1
f 20/4/1 11/31/1 19/32/1
f 19/32/1 11/31/1 24/34/1
f 21/37/4 9/36/9 13/35/9
f 9/36/9 21/37/4 22/38/4
f 23/41/7 11/40/10 10/39/10
f 11/40/10 23/41/7 24/42/7

