# Created by Kenney (www.kenney.nl)

mtllib tile217.mtl

g tile217

v -0.5 2.030376E-16 0.3750001
v -0.5 0.1833333 0.3750001
v -0.5 2.48157E-16 0.5000001
v -0.5 0.1833333 0.5000001
v -0.5000001 0.1833333 -0.4999999
v -0.5000001 0 -0.4999999
v -0.3750001 0.1833333 -0.5
v -0.3750001 1.213714E-14 -0.5
v 0.3750001 2.82899E-14 0.5
v 0.3750001 0.1833333 0.5
v 0.5000001 3.230554E-14 0.4999999
v 0.5000001 0.1833333 0.4999999
v 0.5 0.1833333 -0.5000001
v 0.375 0.1833333 -0.5000001
v 0.5 3.237322E-14 -0.5000001
v 0.375 2.831246E-14 -0.5000001
v 0.25 2.427427E-14 -0.5000001
v -0.2500001 2.427427E-14 -0.5
v -0.5000001 2.255973E-17 -0.375
v -0.5000001 6.76792E-17 -0.2499999
v -0.5 1.804779E-16 0.2500001
v 0.2500001 2.427427E-14 0.5
v -0.375 4.241229E-15 0.5000001
v -0.25 8.234302E-15 0.5000001
v -0.3760695 0.1833333 -0.4836843
v -0.5000001 0.1833333 -0.375
v -0.3792594 0.1833333 -0.4676476
v -0.3845152 0.1833333 -0.4521646
v -0.3917469 0.1833333 -0.4375
v -0.400831 0.1833333 -0.4239049
v -0.4116118 0.1833333 -0.4116116
v -0.423905 0.1833333 -0.4008309
v -0.4375001 0.1833333 -0.3917468
v -0.4521647 0.1833333 -0.3845151
v -0.4676477 0.1833333 -0.3792592
v -0.4836844 0.1833333 -0.3760694
v -0.4836842 0.1833333 0.3760695
v -0.4676476 0.1833333 0.3792594
v -0.4521646 0.1833333 0.3845152
v -0.4375 0.1833333 0.3917469
v -0.4239048 0.1833333 0.400831
v -0.4116116 0.1833333 0.4116118
v -0.4008308 0.1833333 0.423905
v -0.3917468 0.1833333 0.4375001
v -0.384515 0.1833333 0.4521647
v -0.3792593 0.1833333 0.4676477
v -0.3760694 0.1833333 0.4836844
v -0.375 0.1833333 0.5000001
v 0.2500001 0.1516667 0.5
v 0.25 0.1516667 -0.5000001
v 0.2500001 0.21 0.5
v 0.25 0.21 -0.5000001
v -0.375 0.21 0.5000001
v -0.25 0.21 0.5000001
v -0.25 0.1516667 0.5000001
v -0.5000001 0.1516667 -0.2499999
v -0.5000001 0.21 -0.2499999
v -0.5000001 0.21 -0.375
v 0.375 0.21 -0.5000001
v -0.2500001 0.1516667 -0.5
v -0.2521389 0.1516667 -0.4673685
v -0.2500001 0.21 -0.5
v -0.2521389 0.21 -0.4673685
v -0.2585186 0.1516667 -0.4352952
v -0.2585186 0.21 -0.4352952
v -0.2690302 0.1516667 -0.4043292
v -0.2690302 0.21 -0.4043292
v -0.2834937 0.1516667 -0.375
v -0.2834937 0.21 -0.375
v -0.3016617 0.1516667 -0.3478096
v -0.3016617 0.21 -0.3478096
v -0.3232234 0.1516667 -0.3232233
v -0.3232234 0.21 -0.3232233
v -0.3478097 0.1516667 -0.3016617
v -0.3478097 0.21 -0.3016617
v -0.3750001 0.1516667 -0.2834936
v -0.3750001 0.21 -0.2834936
v -0.4043292 0.1516667 -0.2690301
v -0.4043292 0.21 -0.2690301
v -0.4352953 0.1516667 -0.2585185
v -0.4352953 0.21 -0.2585185
v -0.4673685 0.1516667 -0.2521387
v -0.4673685 0.21 -0.2521387
v -0.5 0.1516667 0.2500001
v -0.4673685 0.1516667 0.2521389
v -0.5 0.21 0.2500001
v -0.4673685 0.21 0.2521389
v -0.4352953 0.21 0.2585186
v -0.4352953 0.1516667 0.2585186
v -0.4043292 0.21 0.2690302
v -0.4043292 0.1516667 0.2690302
v -0.375 0.21 0.2834937
v -0.375 0.1516667 0.2834937
v -0.3478096 0.21 0.3016617
v -0.3478096 0.1516667 0.3016617
v -0.3232233 0.21 0.3232234
v -0.3232233 0.1516667 0.3232234
v -0.3016617 0.1516667 0.3478097
v -0.3016617 0.21 0.3478097
v -0.2834936 0.1516667 0.3750001
v -0.2834936 0.21 0.3750001
v -0.2690301 0.1516667 0.4043292
v -0.2690301 0.21 0.4043292
v -0.2585185 0.1516667 0.4352953
v -0.2585185 0.21 0.4352953
v -0.2521387 0.1516667 0.4673685
v -0.2521387 0.21 0.4673685
v 0.3750001 0.21 0.5
v -0.5 0.21 0.3750001
v -0.4836842 0.21 0.3760695
v -0.4676476 0.21 0.3792594
v -0.4521646 0.21 0.3845152
v -0.4375 0.21 0.3917469
v -0.4239048 0.21 0.400831
v -0.4116116 0.21 0.4116118
v -0.4008308 0.21 0.423905
v -0.3917468 0.21 0.4375001
v -0.384515 0.21 0.4521647
v -0.3792593 0.21 0.4676477
v -0.3760694 0.21 0.4836844
v -0.3750001 0.21 -0.5
v -0.3760695 0.21 -0.4836843
v -0.3792594 0.21 -0.4676476
v -0.3845152 0.21 -0.4521646
v -0.3917469 0.21 -0.4375
v -0.400831 0.21 -0.4239049
v -0.4116118 0.21 -0.4116116
v -0.423905 0.21 -0.4008309
v -0.4375001 0.21 -0.3917468
v -0.4521647 0.21 -0.3845151
v -0.4676477 0.21 -0.3792592
v -0.4836844 0.21 -0.3760694

vn -1 0 1.192093E-07
vn -1.192093E-07 0 -1
vn 1.192093E-07 0 1
vn 0 1 0
vn 1 0 -1.192093E-07
vn 0 -1 0
vn 0.9978591 0 0.06540304
vn 0.991445 0 0.1305261
vn 0.9659259 0 0.258819
vn 0.9238797 0 0.3826834
vn 0.8660256 0 0.4999999
vn 0.7933535 0 0.6087614
vn 0.7071069 0 0.7071068
vn 0.6087616 0 0.7933534
vn 0.5000002 0 0.8660255
vn 0.3826836 0 0.9238795
vn 0.2588192 0 0.9659259
vn 0.1305263 0 0.9914449
vn 0.06540325 0 0.9978591
vn 0.06540301 0 -0.9978591
vn 0.1305261 0 -0.991445
vn 0.258819 0 -0.9659259
vn 0.3826834 0 -0.9238797
vn 0.4999999 0 -0.8660256
vn 0.6087614 0 -0.7933535
vn 0.7071068 0 -0.7071069
vn 0.7933534 0 -0.6087616
vn 0.8660255 0 -0.5000002
vn 0.9238796 0 -0.3826836
vn 0.9659259 0 -0.2588192
vn 0.991445 0 -0.1305263
vn 0.9978591 0 -0.06540328
vn -0.06540301 0 0.9978591
vn -0.1305261 0 0.991445
vn -0.258819 0 0.9659259
vn -0.3826834 0 0.9238797
vn -0.4999999 0 0.8660256
vn -0.6087614 0 0.7933535
vn -0.7071068 0 0.7071069
vn -0.7933534 0 0.6087616
vn -0.8660255 0 0.5000002
vn -0.9238796 0 0.3826836
vn -0.9659259 0 0.2588192
vn -0.991445 0 0.1305263
vn -0.9978591 0 0.06540328
vn -0.9978591 0 -0.06540304
vn -0.991445 0 -0.1305261
vn -0.9659259 0 -0.258819
vn -0.9238797 0 -0.3826834
vn -0.8660256 0 -0.4999999
vn -0.7933535 0 -0.6087614
vn -0.7071069 0 -0.7071068
vn -0.6087616 0 -0.7933534
vn -0.5000002 0 -0.8660255
vn -0.3826836 0 -0.9238795
vn -0.2588192 0 -0.9659259
vn -0.1305263 0 -0.9914449
vn -0.06540325 0 -0.9978591

vt 14.76378 4.214003E-13
vt 14.76378 7.217848
vt 19.68504 4.231767E-13
vt 19.68504 7.217848
vt 19.68504 2.067033E-13
vt 14.76378 6.845434E-13
vt 14.76378 1.320479E-12
vt 19.68504 1.478575E-12
vt -19.68504 19.68504
vt 19.68504 19.68504
vt -19.68504 14.76378
vt 19.68504 14.76378
vt -19.68504 -3.825991E-12
vt -19.68504 7.217848
vt 19.68504 -3.823326E-12
vt 19.68504 9.84252
vt 19.68504 -9.84252
vt 19.68504 -14.76378
vt 19.68504 -19.68504
vt 14.76378 -19.68504
vt 9.84252 -19.68504
vt -9.84252 -19.68504
vt -14.76378 -19.68504
vt -19.68504 -19.68504
vt -19.68504 9.84252
vt -19.68504 -14.76378
vt -19.68504 -9.84252
vt -19.04269 -14.80588
vt -18.41132 -14.93147
vt -17.80175 -15.13839
vt -17.22441 -15.4231
vt -16.68917 -15.78074
vt -16.20518 -16.20518
vt -15.78074 -16.68917
vt -15.4231 -17.22441
vt -15.13839 -17.80175
vt -14.93147 -18.41132
vt -14.80588 -19.04269
vt 14.80588 -19.04269
vt 14.93147 -18.41132
vt 15.13839 -17.80175
vt 15.4231 -17.22441
vt 15.78074 -16.68917
vt 16.20518 -16.20518
vt 16.68917 -15.78074
vt 17.22441 -15.4231
vt 17.80175 -15.13839
vt 18.41132 -14.93147
vt 19.04269 -14.80588
vt -19.68504 -6.200107E-26
vt -14.76378 7.213594E-14
vt -14.76378 7.217848
vt -19.68504 1.354884E-11
vt -14.76378 8.140366E-12
vt -14.76378 -3.068174E-12
vt -19.68504 -5.960081E-12
vt 19.68504 5.971128
vt -19.68504 5.971128
vt 19.68504 8.267716
vt -19.68504 8.267716
vt -9.84252 8.297574E-12
vt -14.76378 8.267716
vt -9.84252 8.267716
vt -9.84252 5.971128
vt -9.84252 7.39123E-14
vt -9.84252 -3.227158E-12
vt 18.99916 5.971128
vt 17.7117 5.971128
vt 18.99916 8.267716
vt 17.7117 8.267716
vt 16.11017 5.971128
vt 14.8227 5.971128
vt 16.11017 8.267716
vt 14.8227 8.267716
vt 12.95654 5.971128
vt 11.66908 5.971128
vt 12.95654 8.267716
vt 11.66908 8.267716
vt 9.592237 5.971128
vt 8.304773 5.971128
vt 9.592237 8.267716
vt 8.304773 8.267716
vt 6.074822 5.971128
vt 4.787359 5.971128
vt 6.074822 8.267716
vt 4.787359 8.267716
vt 2.464479 5.971128
vt 1.177016 5.971128
vt 2.464479 8.267716
vt 1.177016 8.267716
vt -2.464479 5.971128
vt -2.464479 8.267716
vt -1.177016 5.971128
vt -1.177016 8.267716
vt -6.074822 5.971128
vt -6.074822 8.267716
vt -4.787359 5.971128
vt -4.787359 8.267716
vt -9.592237 5.971128
vt -9.592237 8.267716
vt -8.304773 5.971128
vt -8.304773 8.267716
vt -12.95654 5.971128
vt -12.95654 8.267716
vt -11.66908 5.971128
vt -11.66908 8.267716
vt -16.11017 5.971128
vt -16.11017 8.267716
vt -14.8227 5.971128
vt -14.8227 8.267716
vt -18.99916 5.971128
vt -18.99916 8.267716
vt -17.7117 5.971128
vt -17.7117 8.267716
vt 9.926723 -18.40033
vt 10.1779 -17.13761
vt 10.59174 -15.91847
vt 11.16117 -14.76378
vt 11.87644 -13.69329
vt 12.72533 -12.72533
vt 13.69329 -11.87644
vt 14.76378 -11.16117
vt 15.91847 -10.59174
vt 17.13761 -10.1779
vt 18.40033 -9.926723
vt -18.6773 7.217848
vt -18.6773 8.267716
vt -18.03356 7.217848
vt -18.03356 8.267716
vt -15.7883 7.217848
vt -15.7883 8.267716
vt -15.14457 7.217848
vt -15.14457 8.267716
vt -12.63467 7.217848
vt -12.63467 8.267716
vt -11.99094 7.217848
vt -11.99094 8.267716
vt -9.27037 7.217848
vt -9.27037 8.267716
vt -8.626639 7.217848
vt -8.626639 8.267716
vt -5.752956 7.217848
vt -5.752956 8.267716
vt -5.109224 7.217848
vt -5.109224 8.267716
vt -2.142614 7.217848
vt -2.142614 8.267716
vt -1.498882 7.217848
vt -1.498882 8.267716
vt 2.142614 7.217848
vt 1.498882 7.217848
vt 2.142614 8.267716
vt 1.498882 8.267716
vt 5.752956 7.217848
vt 5.109224 7.217848
vt 5.752956 8.267716
vt 5.109224 8.267716
vt 9.27037 7.217848
vt 8.626639 7.217848
vt 9.27037 8.267716
vt 8.626639 8.267716
vt 12.63467 7.217848
vt 11.99094 7.217848
vt 12.63467 8.267716
vt 11.99094 8.267716
vt 15.7883 7.217848
vt 15.14457 7.217848
vt 15.7883 8.267716
vt 15.14457 8.267716
vt 18.6773 7.217848
vt 18.03356 7.217848
vt 18.6773 8.267716
vt 18.03356 8.267716
vt -18.40033 -9.926723
vt -17.13761 -10.1779
vt -15.91847 -10.59174
vt -14.76378 -11.16117
vt -13.69329 -11.87644
vt -12.72533 -12.72533
vt -11.87644 -13.69329
vt -11.16117 -14.76378
vt -10.59174 -15.91847
vt -10.1779 -17.13761
vt -9.926723 -18.40033
vt 9.84252 1.506273E-12
vt 9.84252 5.971128
vt 9.84252 8.267716
vt 14.76378 8.267716
vt 9.84252 5.140855E-12
vt 9.84252 -9.807441E-13

usemtl grass

f 3/3/1 2/2/1 1/1/1
f 2/2/1 3/3/1 4/4/1
f 7/2/2 6/5/2 5/4/2
f 6/5/2 7/2/2 8/6/2
f 11/8/3 10/2/3 9/7/3
f 10/2/3 11/8/3 12/4/3
f 14/11/4 12/10/4 13/9/4
f 12/10/4 14/11/4 10/12/4
f 15/15/5 12/14/5 11/13/5
f 12/14/5 15/15/5 13/4/5
f 11/9/6 16/12/6 15/10/6
f 16/12/6 11/9/6 17/16/6
f 17/16/6 11/9/6 18/17/6
f 18/17/6 11/9/6 8/18/6
f 8/18/6 11/9/6 6/19/6
f 6/19/6 11/9/6 19/20/6
f 19/20/6 11/9/6 20/21/6
f 20/21/6 11/9/6 21/22/6
f 21/22/6 11/9/6 1/23/6
f 1/23/6 11/9/6 3/24/6
f 3/24/6 11/9/6 9/11/6
f 3/24/6 9/11/6 22/25/6
f 3/24/6 22/25/6 23/26/6
f 23/26/6 22/25/6 24/27/6
f 5/24/4 25/28/4 7/26/4
f 25/28/4 5/24/4 26/23/4
f 25/28/4 26/23/4 27/29/4
f 27/29/4 26/23/4 28/30/4
f 28/30/4 26/23/4 29/31/4
f 29/31/4 26/23/4 30/32/4
f 30/32/4 26/23/4 31/33/4
f 31/33/4 26/23/4 32/34/4
f 32/34/4 26/23/4 33/35/4
f 33/35/4 26/23/4 34/36/4
f 34/36/4 26/23/4 35/37/4
f 35/37/4 26/23/4 36/38/4
f 4/19/4 37/39/4 2/20/4
f 37/39/4 4/19/4 38/40/4
f 38/40/4 4/19/4 39/41/4
f 39/41/4 4/19/4 40/42/4
f 40/42/4 4/19/4 41/43/4
f 41/43/4 4/19/4 42/44/4
f 42/44/4 4/19/4 43/45/4
f 43/45/4 4/19/4 44/46/4
f 44/46/4 4/19/4 45/47/4
f 45/47/4 4/19/4 46/48/4
f 46/48/4 4/19/4 47/49/4
f 47/49/4 4/19/4 48/18/4
f 19/51/1 5/14/1 6/50/1
f 5/14/1 19/51/1 26/52/1
f 23/54/3 4/14/3 3/53/3
f 4/14/3 23/54/3 48/52/3
f 13/14/2 16/55/2 14/52/2
f 16/55/2 13/14/2 15/56/2

usemtl pavement

f 51/59/1 50/58/1 49/57/1
f 50/58/1 51/59/1 52/60/1
f 24/61/3 48/52/3 23/54/3
f 48/52/3 24/61/3 53/62/3
f 53/62/3 24/61/3 54/63/3
f 54/63/3 24/61/3 55/64/3
f 20/65/1 26/52/1 19/51/1
f 26/52/1 20/65/1 56/64/1
f 26/52/1 56/64/1 57/63/1
f 26/52/1 57/63/1 58/62/1
f 59/62/2 50/64/2 52/63/2
f 50/64/2 59/62/2 17/66/2
f 17/66/2 59/62/2 14/52/2
f 17/66/2 14/52/2 16/55/2
f 62/69/7 61/68/8 60/67/7
f 61/68/8 62/69/7 63/70/8
f 63/73/8 64/72/9 61/71/8
f 64/72/9 63/73/8 65/74/9
f 65/77/9 66/76/10 64/75/9
f 66/76/10 65/77/9 67/78/10
f 67/81/10 68/80/11 66/79/10
f 68/80/11 67/81/10 69/82/11
f 69/85/11 70/84/12 68/83/11
f 70/84/12 69/85/11 71/86/12
f 71/89/12 72/88/13 70/87/12
f 72/88/13 71/89/12 73/90/13
f 72/93/13 75/92/14 74/91/14
f 75/92/14 72/93/13 73/94/13
f 74/97/14 77/96/15 76/95/15
f 77/96/15 74/97/14 75/98/14
f 76/101/15 79/100/16 78/99/16
f 79/100/16 76/101/15 77/102/15
f 78/105/16 81/104/17 80/103/17
f 81/104/17 78/105/16 79/106/16
f 80/109/17 83/108/18 82/107/18
f 83/108/18 80/109/17 81/110/17
f 82/113/18 57/112/19 56/111/19
f 57/112/19 82/113/18 83/114/18
f 86/69/20 85/68/21 84/67/20
f 85/68/21 86/69/20 87/70/21
f 88/74/22 85/71/21 87/73/21
f 85/71/21 88/74/22 89/72/22
f 90/78/23 89/75/22 88/77/22
f 89/75/22 90/78/23 91/76/23
f 92/82/24 91/79/23 90/81/23
f 91/79/23 92/82/24 93/80/24
f 94/86/25 93/83/24 92/85/24
f 93/83/24 94/86/25 95/84/25
f 96/90/26 95/87/25 94/89/25
f 95/87/25 96/90/26 97/88/26
f 96/94/26 98/91/27 97/93/26
f 98/91/27 96/94/26 99/92/27
f 99/98/27 100/95/28 98/97/27
f 100/95/28 99/98/27 101/96/28
f 101/102/28 102/99/29 100/101/28
f 102/99/29 101/102/28 103/100/29
f 103/106/29 104/103/30 102/105/29
f 104/103/30 103/106/29 105/104/30
f 104/109/30 107/108/31 106/107/31
f 107/108/31 104/109/30 105/110/30
f 107/114/31 55/111/32 106/113/31
f 55/111/32 107/114/31 54/112/32
f 52/25/4 108/12/4 59/11/4
f 108/12/4 52/25/4 51/16/4
f 14/4/5 108/60/5 10/14/5
f 108/60/5 14/4/5 59/59/5
f 109/20/4 87/115/4 86/21/4
f 87/115/4 109/20/4 88/116/4
f 88/116/4 109/20/4 90/117/4
f 90/117/4 109/20/4 92/118/4
f 92/118/4 109/20/4 94/119/4
f 94/119/4 109/20/4 96/120/4
f 96/120/4 109/20/4 99/121/4
f 99/121/4 109/20/4 101/122/4
f 101/122/4 109/20/4 110/39/4
f 101/122/4 110/39/4 103/123/4
f 103/123/4 110/39/4 111/40/4
f 103/123/4 111/40/4 112/41/4
f 103/123/4 112/41/4 113/42/4
f 103/123/4 113/42/4 114/43/4
f 103/123/4 114/43/4 115/44/4
f 103/123/4 115/44/4 105/124/4
f 105/124/4 115/44/4 116/45/4
f 105/124/4 116/45/4 117/46/4
f 105/124/4 117/46/4 107/125/4
f 107/125/4 117/46/4 118/47/4
f 107/125/4 118/47/4 119/48/4
f 107/125/4 119/48/4 54/17/4
f 54/17/4 119/48/4 120/49/4
f 54/17/4 120/49/4 53/18/4
f 37/128/34 109/127/33 2/126/33
f 109/127/33 37/128/34 110/129/34
f 38/132/35 110/131/34 37/130/34
f 110/131/34 38/132/35 111/133/35
f 39/136/36 111/135/35 38/134/35
f 111/135/35 39/136/36 112/137/36
f 40/140/37 112/139/36 39/138/36
f 112/139/36 40/140/37 113/141/37
f 41/144/38 113/143/37 40/142/37
f 113/143/37 41/144/38 114/145/38
f 42/148/39 114/147/38 41/146/38
f 114/147/38 42/148/39 115/149/39
f 116/152/40 42/151/39 43/150/40
f 42/151/39 116/152/40 115/153/39
f 117/156/41 43/155/40 44/154/41
f 43/155/40 117/156/41 116/157/40
f 118/160/42 44/159/41 45/158/42
f 44/159/41 118/160/42 117/161/41
f 119/164/43 45/163/42 46/162/43
f 45/163/42 119/164/43 118/165/42
f 120/168/44 46/167/43 47/166/44
f 46/167/43 120/168/44 119/169/43
f 53/172/45 47/171/44 48/170/45
f 47/171/44 53/172/45 120/173/44
f 121/26/4 63/174/4 62/27/4
f 63/174/4 121/26/4 122/28/4
f 63/174/4 122/28/4 123/29/4
f 63/174/4 123/29/4 124/30/4
f 63/174/4 124/30/4 65/175/4
f 65/175/4 124/30/4 125/31/4
f 65/175/4 125/31/4 126/32/4
f 65/175/4 126/32/4 67/176/4
f 67/176/4 126/32/4 127/33/4
f 67/176/4 127/33/4 128/34/4
f 67/176/4 128/34/4 69/177/4
f 69/177/4 128/34/4 129/35/4
f 69/177/4 129/35/4 130/36/4
f 69/177/4 130/36/4 131/37/4
f 69/177/4 131/37/4 132/38/4
f 69/177/4 132/38/4 58/23/4
f 69/177/4 58/23/4 71/178/4
f 71/178/4 58/23/4 57/22/4
f 71/178/4 57/22/4 73/179/4
f 73/179/4 57/22/4 75/180/4
f 75/180/4 57/22/4 77/181/4
f 77/181/4 57/22/4 79/182/4
f 79/182/4 57/22/4 81/183/4
f 81/183/4 57/22/4 83/184/4
f 25/128/47 121/127/46 7/126/46
f 121/127/46 25/128/47 122/129/47
f 123/133/48 25/130/47 27/132/48
f 25/130/47 123/133/48 122/131/47
f 124/137/49 27/134/48 28/136/49
f 27/134/48 124/137/49 123/135/48
f 125/141/50 28/138/49 29/140/50
f 28/138/49 125/141/50 124/139/49
f 126/145/51 29/142/50 30/144/51
f 29/142/50 126/145/51 125/143/50
f 127/149/52 30/146/51 31/148/52
f 30/146/51 127/149/52 126/147/51
f 127/153/52 32/150/53 128/152/53
f 32/150/53 127/153/52 31/151/52
f 128/157/53 33/154/54 129/156/54
f 33/154/54 128/157/53 32/155/53
f 129/161/54 34/158/55 130/160/55
f 34/158/55 129/161/54 33/159/54
f 130/165/55 35/162/56 131/164/56
f 35/162/56 130/165/55 34/163/55
f 131/169/56 36/166/57 132/168/57
f 36/166/57 131/169/56 35/167/56
f 132/173/57 26/170/58 58/172/58
f 26/170/58 132/173/57 36/171/57
f 1/1/1 84/186/1 21/185/1
f 84/186/1 1/1/1 2/2/1
f 84/186/1 2/2/1 86/187/1
f 86/187/1 2/2/1 109/188/1
f 9/7/3 49/186/3 22/189/3
f 49/186/3 9/7/3 108/188/3
f 108/188/3 9/7/3 10/2/3
f 108/188/3 51/187/3 49/186/3
f 62/187/2 7/2/2 121/188/2
f 7/2/2 62/187/2 8/6/2
f 8/6/2 62/187/2 18/190/2
f 18/190/2 62/187/2 60/186/2

usemtl water

f 22/189/3 55/64/3 24/61/3
f 55/64/3 22/189/3 49/186/3
f 21/185/1 56/64/1 20/65/1
f 56/64/1 21/185/1 84/186/1
f 50/64/2 18/190/2 60/186/2
f 18/190/2 50/64/2 17/66/2
f 60/27/4 49/16/4 50/25/4
f 49/16/4 60/27/4 61/174/4
f 49/16/4 61/174/4 64/175/4
f 49/16/4 64/175/4 66/176/4
f 49/16/4 66/176/4 68/177/4
f 49/16/4 68/177/4 70/178/4
f 49/16/4 70/178/4 72/179/4
f 49/16/4 72/179/4 74/180/4
f 49/16/4 74/180/4 76/181/4
f 49/16/4 76/181/4 78/182/4
f 49/16/4 78/182/4 80/183/4
f 49/16/4 80/183/4 82/184/4
f 49/16/4 82/184/4 56/22/4
f 49/16/4 56/22/4 91/117/4
f 91/117/4 56/22/4 89/116/4
f 89/116/4 56/22/4 85/115/4
f 85/115/4 56/22/4 84/21/4
f 49/16/4 91/117/4 93/118/4
f 49/16/4 93/118/4 95/119/4
f 49/16/4 95/119/4 97/120/4
f 49/16/4 97/120/4 98/121/4
f 49/16/4 98/121/4 100/122/4
f 49/16/4 100/122/4 102/123/4
f 49/16/4 102/123/4 104/124/4
f 49/16/4 104/124/4 106/125/4
f 49/16/4 106/125/4 55/17/4

