# Created by Kenney (www.kenney.nl)

mtllib tile058.mtl

g tile058

v 0.5 0.3833333 0.2500001
v -0.5000001 0.2 0.2499999
v 0.5000001 0.3833333 -0.2499999
v -0.5 0.2 -0.2500001
v -0.5000001 0.1 0.2499999
v -0.5 0.1 -0.2500001
v 0.5000001 0.2833333 -0.2499999
v 0.5 0.2833333 0.2500001
v 0.5000001 0.1833333 -0.4999999
v 0.5000001 0.1833333 -0.375
v 0.5000001 0.3666667 -0.4999999
v 0.5000001 0.3666667 -0.375
v -0.5000001 2.255973E-16 0.4999999
v 0.5 0.1833333 0.5000001
v -0.5000001 2.255973E-16 0.375
v 0.5 0.1833333 0.3750001
v -0.5 0 -0.3750001
v -0.5 0 -0.5000001
v -0.5000001 0.1833333 0.4999999
v -0.5000001 0.1833333 0.375
v 0.5 0.3666667 0.5000001
v -0.5 0.1833333 -0.5000001
v -0.5 0.1833333 -0.3750001
v 0.5 0.3666667 0.3750001
v 0.5 0.3933333 0.2500001
v -0.5000001 0.21 0.2499999
v 0.5000001 0.3933333 -0.2499999
v -0.5 0.21 -0.2500001
v 0.5000001 0.3933333 -0.375
v -0.5 0.21 -0.3750001
v 0.5 0.3933333 0.3750001
v -0.5000001 0.21 0.375

vn -0.1803279 0.9836066 -1.490116E-08
vn -1 0 -1.192093E-07
vn 1 0 1.192093E-07
vn 0.1803279 -0.9836066 1.490116E-08
vn -1.192093E-07 0 1
vn 1.192093E-07 0 -1

vt 9.84252 22.08382
vt 9.84252 -17.94243
vt -9.84252 22.08382
vt -9.84252 -17.94243
vt 9.84252 3.937008
vt -9.84252 3.937008
vt 9.84252 7.874016
vt -9.84252 7.874016
vt 9.84252 11.15486
vt -9.84252 11.15486
vt 9.84252 15.09186
vt -9.84252 15.09186
vt 19.68504 7.217848
vt 14.76378 7.217848
vt 19.68504 14.4357
vt 14.76378 14.4357
vt -19.68504 -19.36233
vt -19.68504 20.66391
vt -14.76378 -19.36233
vt -14.76378 20.66391
vt 14.76378 -19.36233
vt 14.76378 20.66391
vt 19.68504 -19.36233
vt 19.68504 20.66391
vt 19.68504 -3.011732E-13
vt 14.76378 -3.011732E-13
vt -19.68504 7.217848
vt -19.68504 8.881784E-15
vt -19.68504 14.4357
vt 19.68504 -2.067033E-13
vt -14.76378 21.96549
vt -14.76378 -18.06075
vt -19.68504 21.96549
vt -19.68504 -18.06075
vt 19.68504 21.96549
vt 19.68504 -18.06075
vt 14.76378 21.96549
vt 14.76378 -18.06075
vt -14.76378 1.033517E-13
vt -19.68504 1.033517E-13
vt -14.76378 7.217848
vt -14.76378 14.4357
vt -19.68504 15.09186
vt -19.68504 15.48556
vt 19.68504 7.874016
vt 19.68504 8.267716
vt -9.84252 22.15481
vt -9.84252 -17.87143
vt -14.76378 22.15481
vt -14.76378 -17.87143
vt 19.68504 15.48556
vt 19.68504 15.09186
vt -19.68504 8.267716
vt -19.68504 7.874016
vt 14.76378 22.15481
vt 14.76378 -17.87143
vt 9.84252 22.15481
vt 9.84252 -17.87143
vt 14.76378 8.267716
vt 9.84252 8.267716
vt -14.76378 8.267716
vt -9.84252 8.267716
vt 14.76378 15.48556
vt 9.84252 15.48556
vt -14.76378 15.48556
vt -9.84252 15.48556

usemtl asphalt

f 3/3/1 2/2/1 1/1/1
f 2/2/1 3/3/1 4/4/1
f 2/7/2 6/6/2 5/5/2
f 6/6/2 2/7/2 4/8/2
f 3/11/3 8/10/3 7/9/3
f 8/10/3 3/11/3 1/12/3

usemtl grass

f 11/15/3 10/14/3 9/13/3
f 10/14/3 11/15/3 12/16/3
f 15/19/4 14/18/4 13/17/4
f 14/18/4 15/19/4 16/20/4
f 16/20/4 15/19/4 17/21/4
f 16/20/4 17/21/4 10/22/4
f 10/22/4 17/21/4 18/23/4
f 10/22/4 18/23/4 9/24/4
f 19/13/2 15/26/2 13/25/2
f 15/26/2 19/13/2 20/14/2
f 19/27/5 14/13/5 21/15/5
f 14/13/5 19/27/5 13/28/5
f 9/27/6 22/13/6 11/29/6
f 22/13/6 9/27/6 18/30/6
f 11/33/1 23/32/1 12/31/1
f 23/32/1 11/33/1 22/34/1
f 24/37/1 19/36/1 21/35/1
f 19/36/1 24/37/1 20/38/1
f 23/41/2 18/40/2 17/39/2
f 18/40/2 23/41/2 22/27/2
f 24/42/3 14/27/3 16/41/3
f 14/27/3 24/42/3 21/29/3

usemtl pavement

f 2/45/6 25/44/6 1/43/6
f 25/44/6 2/45/6 26/46/6
f 29/49/1 28/48/1 27/47/1
f 28/48/1 29/49/1 30/50/1
f 28/53/5 3/52/5 27/51/5
f 3/52/5 28/53/5 4/54/5
f 25/57/1 32/56/1 31/55/1
f 32/56/1 25/57/1 26/58/1
f 23/13/6 29/44/6 12/29/6
f 29/44/6 23/13/6 30/46/6
f 32/53/5 24/15/5 31/51/5
f 24/15/5 32/53/5 20/27/5
f 20/14/2 5/5/2 15/26/2
f 5/5/2 20/14/2 2/7/2
f 2/7/2 20/14/2 32/59/2
f 2/7/2 32/59/2 26/60/2
f 6/6/2 15/26/2 5/5/2
f 6/6/2 17/39/2 15/26/2
f 17/39/2 6/6/2 23/41/2
f 23/41/2 6/6/2 4/8/2
f 23/41/2 4/8/2 30/61/2
f 30/61/2 4/8/2 28/62/2
f 10/14/3 7/9/3 16/41/3
f 7/9/3 10/14/3 12/16/3
f 7/9/3 12/16/3 3/11/3
f 3/11/3 12/16/3 29/63/3
f 3/11/3 29/63/3 27/64/3
f 8/10/3 16/41/3 7/9/3
f 16/41/3 8/10/3 24/42/3
f 24/42/3 8/10/3 1/12/3
f 24/42/3 1/12/3 31/65/3
f 31/65/3 1/12/3 25/66/3

