# Created by Kenney (www.kenney.nl)

mtllib tile261.mtl

g tile261

v -0.5000001 0.5666667 0.2499999
v -0.5 0.5666667 -0.2500001
v 0.5 0.5666667 0.2500001
v 0.5000001 0.5666667 -0.2499999
v -0.5000001 0.4666667 0.2499999
v -0.5 0.4666667 -0.2500001
v 0.5000001 0.4666667 -0.2499999
v 0.5 0.4666667 0.2500001
v 0.5 0.3666667 0.5000001
v 0.5000001 0.3666667 -0.4999999
v 0.5000001 0.5766667 -0.4999999
v 0.5000001 0.5766667 -0.2499999
v 0.5 0.5766667 0.5000001
v 0.5 0.5766667 0.2500001
v -0.5000001 2.842526E-14 0.4999999
v -0.5000001 0.5766667 0.4999999
v -0.5000001 0.5766667 0.2499999
v -0.5 0.5766667 -0.5000001
v -0.5 2.806431E-14 -0.5000001
v -0.5 0.5766667 -0.2500001
v 0.07666674 0.3666667 -0.5000001
v 0.02880713 0.3635298 -0.5000001
v -0.01823359 0.3541728 -0.5000001
v -0.06365054 0.3387558 -0.5000001
v -0.1066666 0.3175426 -0.5000001
v -0.1465458 0.2908962 -0.5000001
v -0.1826058 0.2592725 -0.5000001
v -0.2142295 0.2232125 -0.5000001
v -0.2408759 0.1833333 -0.5000001
v -0.2620891 0.1403173 -0.5000001
v -0.2775061 0.09490032 -0.5000001
v -0.2868631 0.0478596 -0.5000001
v -0.29 0 -0.5000001
v 0.07666662 0.3666667 0.5000001
v 0.02880701 0.3635298 0.5000001
v -0.01823371 0.3541728 0.5000001
v -0.06365066 0.3387558 0.5000001
v -0.1066667 0.3175426 0.5000001
v -0.1465459 0.2908962 0.5
v -0.1826059 0.2592725 0.5
v -0.2142296 0.2232125 0.5
v -0.2408761 0.1833333 0.5
v -0.2620893 0.1403173 0.5000001
v -0.2775062 0.09490032 0.5000001
v -0.2868632 0.0478596 0.5000001
v -0.2900001 3.280185E-14 0.5000001

vn 0 1 0
vn -1 0 -1.192093E-07
vn 1 0 1.192093E-07
vn 1.192093E-07 0 -1
vn -1.192093E-07 0 1
vn 0 -1 0
vn 0.9978591 -0.06540313 1.192093E-07
vn 0.991445 -0.1305262 1.192093E-07
vn 0.1305262 -0.9914449 1.490116E-08
vn 0.06540313 -0.9978589 7.450581E-09
vn 0.2588191 -0.9659258 2.980232E-08
vn 0.3826835 -0.9238795 5.960464E-08
vn 0.5000001 -0.8660254 5.960464E-08
vn 0.6087615 -0.7933533 5.960464E-08
vn 0.7071068 -0.7071068 5.960464E-08
vn 0.7933534 -0.6087614 1.192093E-07
vn 0.8660256 -0.5 1.192093E-07
vn 0.9238796 -0.3826834 1.192093E-07
vn 0.9659259 -0.258819 1.192093E-07

vt -9.84252 19.68504
vt 9.84252 19.68504
vt -9.84252 -19.68504
vt 9.84252 -19.68504
vt 9.84252 18.3727
vt -9.84252 18.3727
vt 9.84252 22.30971
vt -9.84252 22.30971
vt -19.68504 14.4357
vt 19.68504 14.4357
vt 19.68504 22.70341
vt 9.84252 22.70341
vt -19.68504 22.70341
vt -9.84252 22.70341
vt 19.68504 1.019735E-12
vt -19.68504 1.005524E-12
vt -19.68504 19.68504
vt -19.68504 -19.68504
vt -19.68504 22.30971
vt 19.68504 22.30971
vt 19.68504 19.68504
vt 19.68504 -19.68504
vt -3.018373 14.4357
vt -1.134136 14.3122
vt 0.7178602 13.94381
vt 2.505929 13.33684
vt 4.199475 12.50168
vt 5.769522 11.45261
vt 7.189206 10.20758
vt 8.434235 8.787894
vt 9.483306 7.217848
vt 10.31847 5.524302
vt 10.92544 3.736233
vt 11.29382 1.884236
vt 11.41732 2.958076E-13
vt 19.68504 1.400702E-12
vt 3.018373 14.4357
vt 1.134136 14.3122
vt -0.7178602 13.94381
vt -2.505929 13.33684
vt -4.199475 12.50168
vt -5.769522 11.45261
vt -7.189206 10.20758
vt -8.434235 8.787894
vt -9.483306 7.217848
vt -10.31847 5.524302
vt -10.92544 3.736233
vt -11.29382 1.884236
vt -11.41732 1.192881E-12
vt -19.68504 1.020574E-12
vt 19.68504 11.41732
vt -19.68504 11.41732
vt 19.68504 -0.7467287
vt -19.68504 -0.7467287
vt 19.68504 1.141551
vt -19.68504 1.141551
vt 19.68504 -3.018373
vt -19.68504 -3.018373
vt -19.68504 2.06777
vt -19.68504 3.95605
vt 19.68504 2.06777
vt 19.68504 3.95605
vt -19.68504 2.016236
vt -19.68504 3.904515
vt 19.68504 2.016236
vt 19.68504 3.904515
vt -19.68504 1.914048
vt -19.68504 3.802328
vt 19.68504 1.914048
vt 19.68504 3.802328
vt -19.68504 1.762957
vt -19.68504 3.651236
vt 19.68504 1.762957
vt 19.68504 3.651236
vt -19.68504 1.565546
vt -19.68504 3.453825
vt 19.68504 1.565546
vt 19.68504 3.453825
vt -19.68504 1.325193
vt -19.68504 3.213472
vt 19.68504 1.325193
vt 19.68504 3.213472
vt 19.68504 1.046012
vt -19.68504 1.046012
vt 19.68504 2.934291
vt -19.68504 2.934291
vt 19.68504 0.7327784
vt -19.68504 0.7327784
vt 19.68504 2.621058
vt -19.68504 2.621058
vt 19.68504 0.3908525
vt -19.68504 0.3908525
vt 19.68504 2.279132
vt -19.68504 2.279132
vt 19.68504 0.02608445
vt -19.68504 0.02608445
vt 19.68504 1.914364
vt -19.68504 1.914364
vt 19.68504 -0.3552844
vt -19.68504 -0.3552844
vt 19.68504 1.532995
vt -19.68504 1.532995

usemtl asphalt

f 3/3/1 2/2/1 1/1/1
f 2/2/1 3/3/1 4/4/1
f 1/7/2 6/6/2 5/5/2
f 6/6/2 1/7/2 2/8/2
f 4/7/3 8/6/3 7/5/3
f 8/6/3 4/7/3 3/8/3

usemtl pavement

f 10/10/3 7/5/3 9/9/3
f 7/5/3 10/10/3 11/11/3
f 7/5/3 11/11/3 4/7/3
f 4/7/3 11/11/3 12/12/3
f 8/6/3 9/9/3 7/5/3
f 9/9/3 8/6/3 13/13/3
f 13/13/3 8/6/3 3/8/3
f 13/13/3 3/8/3 14/14/3
f 16/11/2 5/5/2 15/15/2
f 5/5/2 16/11/2 1/7/2
f 1/7/2 16/11/2 17/12/2
f 6/6/2 15/15/2 5/5/2
f 18/13/2 15/15/2 6/6/2
f 15/15/2 18/13/2 19/16/2
f 18/13/2 6/6/2 2/8/2
f 18/13/2 2/8/2 20/14/2
f 13/18/1 17/1/1 16/17/1
f 17/1/1 13/18/1 14/3/1
f 1/20/4 14/13/4 3/19/4
f 14/13/4 1/20/4 17/11/4
f 12/4/1 18/21/1 20/2/1
f 18/21/1 12/4/1 11/22/1
f 21/23/4 11/13/4 10/9/4
f 11/13/4 21/23/4 18/11/4
f 18/11/4 21/23/4 22/24/4
f 18/11/4 22/24/4 23/25/4
f 18/11/4 23/25/4 24/26/4
f 18/11/4 24/26/4 25/27/4
f 18/11/4 25/27/4 26/28/4
f 18/11/4 26/28/4 27/29/4
f 18/11/4 27/29/4 28/30/4
f 18/11/4 28/30/4 29/31/4
f 18/11/4 29/31/4 30/32/4
f 18/11/4 30/32/4 31/33/4
f 18/11/4 31/33/4 32/34/4
f 18/11/4 32/34/4 33/35/4
f 18/11/4 33/35/4 19/36/4
f 20/13/5 4/20/5 12/11/5
f 4/20/5 20/13/5 2/19/5
f 16/13/5 9/10/5 13/11/5
f 9/10/5 16/13/5 34/37/5
f 34/37/5 16/13/5 35/38/5
f 35/38/5 16/13/5 36/39/5
f 36/39/5 16/13/5 37/40/5
f 37/40/5 16/13/5 38/41/5
f 38/41/5 16/13/5 39/42/5
f 39/42/5 16/13/5 40/43/5
f 40/43/5 16/13/5 41/44/5
f 41/44/5 16/13/5 42/45/5
f 42/45/5 16/13/5 43/46/5
f 43/46/5 16/13/5 44/47/5
f 44/47/5 16/13/5 45/48/5
f 45/48/5 16/13/5 46/49/5
f 46/49/5 16/13/5 15/50/5
f 19/17/6 46/51/6 15/21/6
f 46/51/6 19/17/6 33/52/6
f 32/55/8 46/54/7 33/53/7
f 46/54/7 32/55/8 45/56/8
f 34/57/6 10/18/6 9/22/6
f 10/18/6 34/57/6 21/58/6
f 22/61/9 34/60/10 35/59/9
f 34/60/10 22/61/9 21/62/10
f 23/65/11 35/64/9 36/63/11
f 35/64/9 23/65/11 22/66/9
f 24/69/12 36/68/11 37/67/12
f 36/68/11 24/69/12 23/70/11
f 25/73/13 37/72/12 38/71/13
f 37/72/12 25/73/13 24/74/12
f 26/77/14 38/76/13 39/75/14
f 38/76/13 26/77/14 25/78/13
f 27/81/15 39/80/14 40/79/15
f 39/80/14 27/81/15 26/82/14
f 27/85/15 41/84/16 28/83/16
f 41/84/16 27/85/15 40/86/15
f 28/89/16 42/88/17 29/87/17
f 42/88/17 28/89/16 41/90/16
f 29/93/17 43/92/18 30/91/18
f 43/92/18 29/93/17 42/94/17
f 30/97/18 44/96/19 31/95/19
f 44/96/19 30/97/18 43/98/18
f 31/101/19 45/100/8 32/99/8
f 45/100/8 31/101/19 44/102/19

