# Created by Kenney (www.kenney.nl)

mtllib tile279.mtl

g tile279

v -0.5 0 -0.5
v 0.5 0 -0.5
v -0.5 0.1833333 -0.5
v 0.5 0.5500001 -0.5
v 0.3694738 0.1833333 0.4914449
v 0.241181 0.1833333 0.4659258
v -0.2933533 0.1833333 0.1087614
v -0.3660254 0.1833333 1.290493E-08
v 0.5 0.1833333 0.5
v 0.5 0 0.5
v -0.4238795 0.1833333 -0.1173166
v -0.4659258 0.1833333 -0.2411809
v -0.4914449 0.1833333 -0.3694738
v -0.2071068 0.1833333 0.2071068
v 5.45425E-09 0.1833333 0.3660254
v -0.1087614 0.1833333 0.2933533
v 0.1173166 0.1833333 0.4238796
v -0.5 0 0.5
v -0.5 0.1833333 0.5

vn 0 0 -0.3333333
vn -0.07407776 0.3164428 0.07407776
vn -0.01497808 0.3129588 0.1137698
vn -0.02969988 0.3129588 0.1108415
vn -0.09103852 0.3129588 0.06985632
vn -0.09937775 0.3129588 0.05737577
vn 0.3333333 0 0
vn -0.1060166 0.3129588 0.04391351
vn -0.1108415 0.3129588 0.02969989
vn -0.1137698 0.3129588 0.01497808
vn -0.0811416 0.3129588 0.0811416
vn -0.05737577 0.3129588 0.09937775
vn -0.06985632 0.3129588 0.09103852
vn -0.007519298 0.3128791 0.1147223
vn -0.1147223 0.3128791 0.007519301
vn -0.04391351 0.3129588 0.1060166
vn 0 0 0.3333333
vn -0.3333333 0 0
vn 0 0.3333333 0
vn 0 -0.3333333 0

vt 59.05512 1.488264E-12
vt -59.05512 1.488264E-12
vt 59.05512 21.65354
vt -59.05512 64.96063
vt 46.39931 87.58564
vt 54.12409 -37.97653
vt 38.67453 -37.97653
vt -16.29327 99.29076
vt -8.568491 -26.27141
vt -24.01805 -26.27141
vt 59.05512 64.96063
vt 59.05512 2.225296E-20
vt -59.05512 21.65354
vt -59.05512 2.225296E-20
vt -36.93842 92.71271
vt -29.21365 -32.84946
vt -44.6632 -32.84946
vt -46.39931 87.58564
vt -38.67453 -37.97653
vt -54.12409 -37.97653
vt -26.84551 96.6368
vt -19.12074 -28.92538
vt -34.57029 -28.92538
vt -5.462243 100.6292
vt 2.262536 -24.93298
vt -13.18702 -24.93298
vt 16.29327 99.29076
vt 24.01805 -26.27141
vt 8.568492 -26.27141
vt 55.06629 81.34332
vt 62.79107 -44.21885
vt 47.34151 -44.21885
vt -55.06629 81.34332
vt -47.34151 -44.21885
vt -62.79107 -44.21885
vt 26.84551 96.6368
vt 34.57029 -28.92538
vt 19.12074 -28.92538
vt 5.462244 100.6292
vt 13.18702 -24.93298
vt -2.262535 -24.93298
vt 36.93843 92.71271
vt 44.6632 -32.84946
vt 29.21365 -32.84946
vt 59.05512 -4.31581E-26
vt -59.05512 -4.31581E-26
vt -59.05511 0
vt -59.05511 21.65354
vt 59.05512 0
vt -59.05512 59.05512
vt 59.05512 59.05512
vt -43.63864 58.04467
vt -28.48594 55.03061
vt -13.85629 50.06451
vt -6.442028E-07 43.23135
vt 12.84584 34.64803
vt 24.46143 24.46143
vt 34.64803 12.84584
vt 43.23135 1.524205E-06
vt 50.06451 -13.85629
vt 55.03061 -28.48594
vt 58.04467 -43.63864
vt 59.05512 -59.05511
vt 59.05512 -59.05512
vt -59.05512 -59.05511

usemtl grass

f 3/3/1 2/2/1 1/1/1
f 2/2/1 3/3/1 4/4/1
f 6/7/4 5/6/3 4/5/2
f 8/10/6 7/9/5 4/8/2
f 9/13/7 2/12/7 4/11/7
f 2/12/7 9/13/7 10/14/7
f 12/17/9 11/16/8 4/15/2
f 13/20/10 12/19/9 4/18/2
f 11/23/8 8/22/6 4/21/2
f 7/26/5 14/25/11 4/24/2
f 16/29/13 15/28/12 4/27/2
f 5/32/3 9/31/14 4/30/2
f 3/35/15 13/34/10 4/33/2
f 15/38/12 17/37/16 4/36/2
f 14/41/11 16/40/13 4/39/2
f 17/44/16 6/43/4 4/42/2
f 9/3/17 18/46/17 10/45/17
f 18/46/17 9/3/17 19/13/17
f 18/49/18 3/48/18 1/47/18
f 3/48/18 18/49/18 19/3/18
f 5/52/19 19/51/19 9/50/19
f 19/51/19 5/52/19 6/53/19
f 19/51/19 6/53/19 17/54/19
f 19/51/19 17/54/19 15/55/19
f 19/51/19 15/55/19 16/56/19
f 19/51/19 16/56/19 14/57/19
f 19/51/19 14/57/19 7/58/19
f 19/51/19 7/58/19 8/59/19
f 19/51/19 8/59/19 11/60/19
f 19/51/19 11/60/19 12/61/19
f 19/51/19 12/61/19 13/62/19
f 19/51/19 13/62/19 3/63/19
f 18/50/20 2/64/20 10/51/20
f 2/64/20 18/50/20 1/65/20

