# Created by Kenney (www.kenney.nl)

mtllib tile224.mtl

g tile224

v 0.5 3.38396E-16 0.5000001
v 0.5000001 0.1 -0.2499999
v 0.5000001 2.707168E-16 -0.4999999
v 0.5000001 0.1833333 -0.4999999
v 0.5000001 0.1516667 -0.2499999
v 0.5000001 0.1833333 -0.2499999
v 0.5 0.1 0.2500001
v 0.5 0.1833333 0.5000001
v 0.5 0.1516667 0.2500001
v 0.5 0.1833333 0.2500001
v -0.5000001 3.38396E-16 0.4999999
v -0.5000001 0.1 0.2499999
v -0.5000001 0.1833333 0.4999999
v -0.5000001 0.1516667 0.2499999
v -0.5000001 0.1833333 0.2499999
v -0.5 0.1 -0.2500001
v -0.5 0 -0.5000001
v -0.5 0.1833333 -0.5000001
v -0.5 0.1516667 -0.2500001
v -0.5 0.1833333 -0.2500001
v -0.405 0.1833333 -0.2500001
v 0.4050001 0.1833333 -0.2499999
v -0.4050001 0.1833333 0.2499999
v 0.405 0.1833333 0.2500001
v 0.25 0.235 0.2500001
v -0.2500001 0.235 0.25
v 0.2500001 0.235 -0.25
v -0.25 0.235 -0.2500001

vn 1 0 1.192093E-07
vn -1 0 -1.192093E-07
vn -1.192093E-07 0 1
vn 1.192093E-07 0 -1
vn 0 -1 0
vn 0 1 0
vn 0.1601823 0.9870875 1.490116E-08
vn -0.1601823 0.9870875 -1.490116E-08
vn 0.3162278 0.9486833 2.980232E-08
vn -0.3162278 0.9486833 -2.980232E-08

vt -19.68504 -3.583577E-13
vt 9.84252 3.937008
vt 19.68504 -3.610222E-13
vt 19.68504 7.217848
vt 9.84252 5.971128
vt 9.84252 7.217848
vt -9.84252 3.937008
vt -19.68504 7.217848
vt -9.84252 5.971128
vt -9.84252 7.217848
vt 19.68504 4.478078E-13
vt -19.68504 4.344851E-13
vt 19.68504 1.332268E-14
vt -19.68504 1.332268E-14
vt -19.68504 1.065814E-14
vt 19.68504 2.20223E-29
vt 19.68504 19.68504
vt 19.68504 -19.68504
vt -19.68504 19.68504
vt -19.68504 -19.68504
vt -9.84252 19.68504
vt 9.84252 19.68504
vt -9.84252 -19.68504
vt 9.84252 -19.68504
vt 9.84252 15.94488
vt 9.84252 -15.94488
vt -9.84252 15.94488
vt -9.84252 -15.94488
vt 19.68504 5.971128
vt -19.68504 5.971128
vt 15.94488 7.217848
vt -15.94488 7.217848
vt 9.84252 9.251968
vt -9.84252 9.251968
vt -9.84252 -9.84252
vt -9.84252 9.84252
vt 9.84252 -9.84252
vt 9.84252 9.84252
vt -9.84252 -6.411705
vt 9.84252 -6.411705
vt -9.84252 -12.84416
vt -9.84252 -16.78663
vt 9.84252 -16.78663
vt 9.84252 -12.84416

usemtl grass

f 3/3/1 2/2/1 1/1/1
f 2/2/1 3/3/1 4/4/1
f 2/2/1 4/4/1 5/5/1
f 5/5/1 4/4/1 6/6/1
f 7/7/1 1/1/1 2/2/1
f 1/1/1 7/7/1 8/8/1
f 8/8/1 7/7/1 9/9/1
f 8/8/1 9/9/1 10/10/1
f 13/4/2 12/2/2 11/11/2
f 12/2/2 13/4/2 14/5/2
f 14/5/2 13/4/2 15/6/2
f 16/7/2 11/11/2 12/2/2
f 16/7/2 17/12/2 11/11/2
f 17/12/2 16/7/2 18/8/2
f 18/8/2 16/7/2 19/9/2
f 18/8/2 19/9/2 20/10/2
f 13/8/3 1/13/3 8/4/3
f 1/13/3 13/8/3 11/14/3
f 17/16/4 4/8/4 3/15/4
f 4/8/4 17/16/4 18/4/4
f 17/19/5 1/18/5 11/17/5
f 1/18/5 17/19/5 3/20/5
f 9/23/6 19/22/6 14/21/6
f 19/22/6 9/23/6 5/24/6
f 22/26/6 20/22/6 21/25/6
f 20/22/6 22/26/6 18/17/6
f 18/17/6 22/26/6 6/24/6
f 18/17/6 6/24/6 4/18/6
f 8/20/6 24/28/6 23/27/6
f 24/28/6 8/20/6 10/23/6
f 15/21/6 8/20/6 23/27/6
f 8/20/6 15/21/6 13/19/6

usemtl dirt

f 14/5/2 16/7/2 12/2/2
f 16/7/2 14/5/2 19/9/2
f 5/5/1 7/7/1 2/2/1
f 7/7/1 5/5/1 9/9/1
f 24/31/3 14/30/3 9/29/3
f 14/30/3 24/31/3 23/32/3
f 25/33/3 23/32/3 24/31/3
f 23/32/3 25/33/3 26/34/3
f 21/31/4 27/34/4 22/32/4
f 27/34/4 21/31/4 28/33/4
f 22/32/4 19/29/4 21/31/4
f 19/29/4 22/32/4 5/30/4
f 27/37/7 26/36/8 25/35/7
f 26/36/8 27/37/7 28/38/8
f 24/41/9 27/40/7 25/39/7
f 27/40/7 24/41/9 9/42/9
f 27/40/7 9/42/9 5/43/9
f 27/40/7 5/43/9 22/44/9
f 28/39/8 23/44/10 26/40/8
f 23/44/10 28/39/8 14/43/10
f 14/43/10 28/39/8 19/42/10
f 19/42/10 28/39/8 21/41/10
f 22/31/3 5/29/3 6/4/3
f 19/30/3 21/32/3 20/8/3
f 15/4/4 23/31/4 14/29/4
f 24/32/4 10/8/4 9/30/4

