# Created by Kenney (www.kenney.nl)

mtllib tile245.mtl

g tile245

v -0.5 0.1 -0.5
v 0.5 0.1 -0.5
v -0.5 0.2 -0.5
v 0.5 0.2 -0.5
v 0.5 0.2 0.25
v 0.4673685 0.2 0.2521388
v 0.4352952 0.2 0.2585185
v 0.4043292 0.2 0.2690301
v 0.375 0.2 0.2834936
v 0.3478096 0.2 0.3016617
v 0.3232233 0.2 0.3232233
v 0.3016617 0.2 0.3478096
v 0.2834936 0.2 0.375
v 0.2690301 0.2 0.4043292
v 0.2585185 0.2 0.4352952
v 0.2521388 0.2 0.4673685
v 0.25 0.2 0.5
v -0.5 0.2 0.5
v 0.5 0.1 0.25
v 0.5 0 0.5
v 0.5 0 -0.5
v -0.5 0 0.5
v -0.5 0 -0.5
v -0.5 0.1 0.5
v 0.25 0.1 0.5
v 0.5 0.5766667 0.5
v 0.25 0.5766667 0.5
v 0.5 0.5766667 0.25
v 0.4043292 0.5766667 0.2690301
v 0.4352952 0.5766667 0.2585185
v 0.375 0.5766667 0.2834936
v 0.3478096 0.5766667 0.3016617
v 0.4673685 0.5766667 0.2521388
v 0.3016617 0.5766667 0.3478096
v 0.2834936 0.5766667 0.375
v 0.2690301 0.5766667 0.4043292
v 0.2585185 0.5766667 0.4352952
v 0.3232233 0.5766667 0.3232233
v 0.2521388 0.5766667 0.4673685

vn 0 0 -0.3333333
vn 0 0.3333333 0
vn 0.3333333 0 0
vn 0 -0.3333333 0
vn -0.3333333 0 0
vn 0 0 0.3333333
vn -0.1275612 0 -0.3079599
vn -0.08627301 0 -0.3219753
vn -0.1666667 0 -0.2886752
vn -0.2029205 0 -0.2644511
vn -0.04350873 0 -0.3304816
vn -0.2644511 0 -0.2029205
vn -0.2886752 0 -0.1666667
vn -0.3079599 0 -0.1275612
vn -0.3219753 0 -0.08627301
vn -0.2357023 0 -0.2357023
vn -0.02180104 0 -0.3326197
vn -0.3304816 0 -0.04350873
vn -0.3326197 0 -0.02180104

vt 59.05512 11.81102
vt -59.05512 11.81102
vt 59.05512 23.62205
vt -59.05512 23.62205
vt -59.05512 29.52756
vt -55.201 29.78017
vt -59.05512 -59.05512
vt 59.05512 -59.05512
vt -51.41282 30.53369
vt -47.75541 31.77521
vt -44.29134 33.4835
vt -41.07988 35.62933
vt -38.17598 38.17598
vt -35.62933 41.07988
vt -33.4835 44.29134
vt -31.77521 47.75541
vt -30.53369 51.41282
vt -29.78017 55.201
vt -29.52756 59.05512
vt 59.05512 59.05512
vt -29.52756 23.62205
vt -29.52756 11.81102
vt -59.05512 59.05512
vt 29.52756 11.81102
vt 29.52756 23.62205
vt -59.05512 -1.071463E-10
vt 59.05512 -1.071463E-10
vt 59.05512 68.11024
vt 29.52756 68.11024
vt -59.05512 0
vt 59.05512 0
vt -29.52756 68.11024
vt -59.05512 68.11024
vt -59.05512 1.037243E-10
vt 59.05512 1.037243E-10
vt 59.05512 7.951848E-28
vt -59.05512 7.951848E-28
vt -35.00723 23.62205
vt -38.86962 23.62205
vt -35.00723 68.11024
vt -38.86962 68.11024
vt -24.91432 23.62205
vt -28.77671 23.62205
vt -24.91432 68.11024
vt -28.77671 68.11024
vt -14.36208 23.62205
vt -18.22446 23.62205
vt -14.36208 68.11024
vt -18.22446 68.11024
vt -44.46811 23.62205
vt -48.3305 23.62205
vt -44.46811 68.11024
vt -48.3305 68.11024
vt 14.36208 23.62205
vt 14.36208 68.11024
vt 18.22446 23.62205
vt 18.22446 68.11024
vt 35.00723 23.62205
vt 35.00723 68.11024
vt 38.86962 23.62205
vt 38.86962 68.11024
vt -3.531049 23.62205
vt -7.393438 23.62205
vt -3.531049 68.11024
vt -7.393438 68.11024
vt 24.91432 23.62205
vt 24.91432 68.11024
vt 28.77671 23.62205
vt 28.77671 68.11024
vt -53.13509 23.62205
vt -56.99748 23.62205
vt -53.13509 68.11024
vt -56.99748 68.11024
vt 3.531049 23.62205
vt 3.531049 68.11024
vt 7.393438 23.62205
vt 7.393438 68.11024
vt 44.46811 23.62205
vt 44.46811 68.11024
vt 48.3305 23.62205
vt 48.3305 68.11024
vt 53.13509 23.62205
vt 53.13509 68.11024
vt 56.99748 23.62205
vt 56.99748 68.11024

usemtl asphalt

f 3/3/1 2/2/1 1/1/1
f 2/2/1 3/3/1 4/4/1
f 4/7/2 6/6/2 5/5/2
f 6/6/2 4/7/2 3/8/2
f 6/6/2 3/8/2 7/9/2
f 7/9/2 3/8/2 8/10/2
f 8/10/2 3/8/2 9/11/2
f 9/11/2 3/8/2 10/12/2
f 10/12/2 3/8/2 11/13/2
f 11/13/2 3/8/2 12/14/2
f 12/14/2 3/8/2 13/15/2
f 13/15/2 3/8/2 14/16/2
f 14/16/2 3/8/2 15/17/2
f 15/17/2 3/8/2 16/18/2
f 16/18/2 3/8/2 17/19/2
f 17/19/2 3/8/2 18/20/2
f 5/21/3 2/1/3 4/3/3
f 2/1/3 5/21/3 19/22/3
f 22/23/4 21/8/4 20/20/4
f 21/8/4 22/23/4 23/7/4
f 24/1/5 3/4/5 1/2/5
f 3/4/5 24/1/5 18/3/5
f 25/24/6 18/4/6 24/2/6
f 18/4/6 25/24/6 17/25/6

usemtl pavement

f 20/27/6 25/24/6 22/26/6
f 25/24/6 20/27/6 26/28/6
f 22/26/6 25/24/6 24/2/6
f 25/24/6 26/28/6 17/25/6
f 17/25/6 26/28/6 27/29/6
f 22/31/5 1/2/5 23/30/5
f 1/2/5 22/31/5 24/1/5
f 26/33/3 5/21/3 28/32/3
f 5/21/3 26/33/3 19/22/3
f 20/34/3 19/22/3 26/33/3
f 21/35/3 19/22/3 20/34/3
f 19/22/3 21/35/3 2/1/3
f 1/1/1 21/37/1 23/36/1
f 21/37/1 1/1/1 2/2/1
f 29/40/7 7/39/8 8/38/7
f 7/39/8 29/40/7 30/41/8
f 31/44/9 8/43/7 9/42/9
f 8/43/7 31/44/9 29/45/7
f 32/48/10 9/47/9 10/46/10
f 9/47/9 32/48/10 31/49/9
f 30/52/8 6/51/11 7/50/8
f 6/51/11 30/52/8 33/53/11
f 13/56/13 34/55/12 12/54/12
f 34/55/12 13/56/13 35/57/13
f 15/60/15 36/59/14 14/58/14
f 36/59/14 15/60/15 37/61/15
f 33/6/2 26/23/2 28/5/2
f 26/23/2 33/6/2 27/19/2
f 27/19/2 33/6/2 30/9/2
f 27/19/2 30/9/2 29/10/2
f 27/19/2 29/10/2 31/11/2
f 27/19/2 31/11/2 32/12/2
f 27/19/2 32/12/2 38/13/2
f 27/19/2 38/13/2 34/14/2
f 27/19/2 34/14/2 35/15/2
f 27/19/2 35/15/2 36/16/2
f 27/19/2 36/16/2 37/17/2
f 27/19/2 37/17/2 39/18/2
f 38/64/16 10/63/10 11/62/16
f 10/63/10 38/64/16 32/65/10
f 14/68/14 35/67/13 13/66/13
f 35/67/13 14/68/14 36/69/14
f 33/72/11 5/71/17 6/70/11
f 5/71/17 33/72/11 28/73/17
f 12/76/12 38/75/16 11/74/16
f 38/75/16 12/76/12 34/77/12
f 16/80/18 37/79/15 15/78/15
f 37/79/15 16/80/18 39/81/18
f 17/84/19 39/83/18 16/82/18
f 39/83/18 17/84/19 27/85/19

