# Created by Kenney (www.kenney.nl)

mtllib tile201.mtl

g tile201

v 0.5000001 4.511946E-17 -0.4999999
v 0.5000001 0.1833333 -0.4999999
v -0.5 4.511946E-17 -0.5000001
v -0.5 0.1833333 -0.5000001
v 0.5 0.1833333 0.5000001
v 0.5 4.511946E-17 0.5000001
v -0.5000001 0.1833333 0.4999999
v -0.5000001 4.511946E-17 0.4999999
v 0.5000001 2.255973E-17 -0.375
v 0.5000001 0.1833333 -0.375
v -0.5000001 2.255973E-17 0.375
v -0.5000001 0.1833333 0.375
v 0.5 2.255973E-17 0.3750001
v 0.5 0 0.2500001
v -0.5000001 0 0.2499999
v -0.5 0 -0.2500001
v 0.5000001 0 -0.2499999
v -0.5 2.255973E-17 -0.3750001
v -0.5 0.1833333 -0.3750001
v 0.5 0.1833333 0.3750001
v 0.5 0.1516667 0.2500001
v -0.5000001 0.1516667 0.2499999
v 0.5000001 0.1516667 -0.2499999
v -0.5 0.1516667 -0.2500001
v 0.5000001 0.21 -0.2499999
v -0.5 0.21 -0.2500001
v 0.5 0.21 0.2500001
v -0.5000001 0.21 0.2499999
v 0.5 0.21 0.3750001
v -0.5 0.21 -0.3750001
v -0.5000001 0.21 0.375
v 0.5000001 0.21 -0.375

vn 1.192093E-07 0 -1
vn -1.192093E-07 0 1
vn 1 0 1.192093E-07
vn -1 0 -1.192093E-07
vn 0 -1 0
vn 0 1 0

vt -19.68504 1.776357E-15
vt -19.68504 7.217848
vt 19.68504 1.776357E-15
vt 19.68504 7.217848
vt 14.76378 8.881784E-16
vt 14.76378 7.217848
vt 14.76378 2.075915E-13
vt 19.68504 2.084797E-13
vt 19.68504 19.68504
vt 19.68504 -19.68504
vt 14.76378 19.68504
vt 14.76378 -19.68504
vt 9.84252 -19.68504
vt 9.84252 19.68504
vt -9.84252 19.68504
vt -9.84252 -19.68504
vt -14.76378 19.68504
vt -14.76378 -19.68504
vt -19.68504 -19.68504
vt -19.68504 19.68504
vt -14.76378 3.770594E-13
vt -19.68504 1.05128E-13
vt -14.76378 7.217848
vt -14.76378 8.881784E-16
vt 9.84252 4.736689E-29
vt -9.84252 -4.494701E-30
vt 9.84252 5.971128
vt -9.84252 5.971128
vt 9.84252 1.082732E-12
vt -9.84252 3.761712E-13
vt 19.68504 8.267716
vt 19.68504 5.971128
vt -19.68504 8.267716
vt -19.68504 5.971128
vt -9.84252 8.267716
vt -14.76378 8.267716
vt 9.84252 8.267716
vt 14.76378 8.267716

usemtl grass

f 3/3/1 2/2/1 1/1/1
f 2/2/1 3/3/1 4/4/1
f 7/2/2 6/3/2 5/4/2
f 6/3/2 7/2/2 8/1/2
f 1/3/3 10/6/3 9/5/3
f 10/6/3 1/3/3 2/4/3
f 8/8/4 12/6/4 11/7/4
f 12/6/4 8/8/4 7/4/4
f 11/11/5 6/10/5 8/9/5
f 6/10/5 11/11/5 13/12/5
f 13/12/5 11/11/5 14/13/5
f 14/13/5 11/11/5 15/14/5
f 14/13/5 15/14/5 16/15/5
f 14/13/5 16/15/5 17/16/5
f 17/16/5 16/15/5 18/17/5
f 17/16/5 18/17/5 9/18/5
f 9/18/5 18/17/5 1/19/5
f 1/19/5 18/17/5 3/20/5
f 2/10/6 19/11/6 10/12/6
f 19/11/6 2/10/6 4/9/6
f 20/18/6 7/20/6 5/19/6
f 7/20/6 20/18/6 12/17/6
f 19/23/4 3/22/4 18/21/4
f 3/22/4 19/23/4 4/2/4
f 20/23/3 6/1/3 13/24/3
f 6/1/3 20/23/3 5/2/3

usemtl water

f 23/13/6 22/15/6 21/16/6
f 22/15/6 23/13/6 24/14/6
f 23/27/3 14/26/3 17/25/3
f 14/26/3 23/27/3 21/28/3
f 22/27/4 16/30/4 15/29/4
f 16/30/4 22/27/4 24/28/4

usemtl pavement

f 26/33/2 23/32/2 25/31/2
f 23/32/2 26/33/2 24/34/2
f 22/32/1 27/33/1 21/34/1
f 27/33/1 22/32/1 28/31/1
f 21/28/3 13/24/3 14/26/3
f 13/24/3 21/28/3 20/23/3
f 20/23/3 21/28/3 27/35/3
f 20/23/3 27/35/3 29/36/3
f 24/28/4 18/21/4 16/30/4
f 18/21/4 24/28/4 19/23/4
f 19/23/4 24/28/4 26/35/4
f 19/23/4 26/35/4 30/36/4
f 27/16/6 31/17/6 29/18/6
f 31/17/6 27/16/6 28/15/6
f 31/33/2 20/4/2 29/31/2
f 20/4/2 31/33/2 12/2/2
f 32/12/6 26/14/6 25/13/6
f 26/14/6 32/12/6 30/11/6
f 19/4/1 32/33/1 10/2/1
f 32/33/1 19/4/1 30/31/1
f 11/7/4 22/27/4 15/29/4
f 22/27/4 11/7/4 12/6/4
f 22/27/4 12/6/4 28/37/4
f 28/37/4 12/6/4 31/38/4
f 9/5/3 23/27/3 17/25/3
f 23/27/3 9/5/3 10/6/3
f 23/27/3 10/6/3 25/37/3
f 25/37/3 10/6/3 32/38/3

