# Created by Kenney (www.kenney.nl)

mtllib tile008.mtl

g tile008

v -0.5000001 0.21 -0.4999999
v -0.5000001 0 -0.4999999
v 0.5 0.21 -0.5000001
v 0.5 0 -0.5000001
v 0.5000001 0 0.4999999
v 0.5000001 0.21 0.4999999
v -0.5000001 0.1 0.1250001
v -0.5 0 0.5000001
v -0.5 0.21 0.5000001
v -0.5000001 0.2 0.1250001
v -0.5000001 0.21 0.1250001
v -0.5000001 0.1 -0.1249999
v -0.5000001 0.2 -0.1249999
v -0.5000001 0.21 -0.1249999
v 0.125 0.2 -0.125
v 0.125 0.21 -0.125
v 0.1250001 0.21 0.125
v 0.1250001 0.2 0.125

vn -1.192093E-07 0 -1
vn 1 0 -1.192093E-07
vn -1 0 1.192093E-07
vn 1.192093E-07 0 1
vn 0 1 0
vn 0 -1 0

vt 19.68504 8.267716
vt 19.68504 -3.474607E-28
vt -19.68504 8.267716
vt -19.68504 -3.474607E-28
vt 19.68504 -1.191171E-29
vt -19.68504 -1.191171E-29
vt -19.68504 -2.892191E-14
vt 4.921261 3.937008
vt 19.68504 -2.892191E-14
vt 4.921261 7.874016
vt 4.921261 8.267716
vt -4.921259 3.937008
vt -4.921259 7.874016
vt -4.921259 8.267716
vt -19.68504 6.697613E-28
vt 19.68504 6.697613E-28
vt -19.68504 7.874016
vt 19.68504 7.874016
vt -4.921261 8.267716
vt -4.921261 7.874016
vt 4.921259 8.267716
vt 4.921259 7.874016
vt -19.68504 -19.68504
vt -19.68504 19.68504
vt -4.921259 -19.68504
vt -4.921259 4.921261
vt 19.68504 19.68504
vt 4.921261 4.921261
vt 4.921261 -19.68504
vt 19.68504 -19.68504

usemtl pavement

f 3/3/1 2/2/1 1/1/1
f 2/2/1 3/3/1 4/4/1
f 3/1/2 5/6/2 4/5/2
f 5/6/2 3/1/2 6/3/2
f 8/9/3 7/8/3 2/7/3
f 7/8/3 8/9/3 9/1/3
f 7/8/3 9/1/3 10/10/3
f 10/10/3 9/1/3 11/11/3
f 12/12/3 2/7/3 7/8/3
f 2/7/3 12/12/3 1/3/3
f 1/3/3 12/12/3 13/13/3
f 1/3/3 13/13/3 14/14/3
f 5/16/4 9/3/4 8/15/4
f 9/3/4 5/16/4 6/1/4
f 15/10/4 14/3/4 13/17/4
f 14/3/4 15/10/4 16/11/4
f 17/19/1 10/18/1 11/1/1
f 10/18/1 17/19/1 18/20/1
f 15/22/3 18/20/3 16/21/3
f 17/19/3 16/21/3 18/20/3
f 14/25/5 3/24/5 1/23/5
f 3/24/5 14/25/5 16/26/5
f 16/26/5 6/27/5 3/24/5
f 6/27/5 16/26/5 17/28/5
f 6/27/5 17/28/5 11/29/5
f 6/27/5 11/29/5 9/30/5
f 4/27/6 8/23/6 2/30/6
f 8/23/6 4/27/6 5/24/6

usemtl asphalt

f 10/10/3 12/12/3 7/8/3
f 12/12/3 10/10/3 13/13/3
f 13/25/5 18/28/5 15/26/5
f 18/28/5 13/25/5 10/29/5

usemtl _defaultMat

f 16/21/2 18/20/2 15/22/2
f 18/20/2 16/21/2 17/19/2

