# Created by Kenney (www.kenney.nl)

mtllib tile184.mtl

g tile184

v 0.5 0.5666667 0.25
v -0.5 0.5666667 0.25
v 0.5 0.5666667 -0.25
v -0.5 0.5666667 -0.25
v 0.5 0.4666667 -0.25
v 0.5 0.4666667 0.25
v -0.5 0.4666667 -0.25
v -0.5 0.4666667 0.25
v 0.5 0.5766667 0.25
v 0.5 0.5766667 0.375
v -0.5 0.5766667 0.25
v -0.5 0.5766667 0.375
v -0.5 0 0.375
v 0.5 0.3666667 0.375
v -0.5 2.264177E-15 -0.375
v 0.5 0.3666667 -0.375
v -0.5 0.5766667 -0.375
v 0.5 0.5766667 -0.375
v 0.5 0.5766667 -0.25
v -0.5 0.5766667 -0.25

vn 0 0.3333333 0
vn 0.3333333 0 0
vn -0.3333333 0 0
vn 0 0 0.3333333
vn 0 0 -0.3333333
vn 0.1147515 -0.3129588 0

vt -59.05512 29.52756
vt 59.05512 29.52756
vt -59.05512 -29.52756
vt 59.05512 -29.52756
vt 29.52756 66.92913
vt 29.52756 55.11811
vt -29.52756 66.92913
vt -29.52756 55.11811
vt -59.05512 44.29134
vt 59.05512 44.29134
vt -59.05512 -3.712496E-13
vt -59.05512 68.11024
vt 59.05512 43.30709
vt 59.05512 68.11024
vt 59.05512 66.92913
vt -59.05512 66.92913
vt 59.05512 6.38672E-13
vt -59.05512 43.30709
vt 44.29134 70.35412
vt 44.29134 -55.44545
vt -44.29134 70.35412
vt -44.29134 -55.44545
vt -59.05512 -44.29134
vt 59.05512 -44.29134
vt -44.29134 9.877044E-13
vt 44.29134 7.202819E-13
vt 29.52756 68.11024
vt 44.29134 68.11024
vt -29.52756 68.11024
vt -44.29134 68.11024
vt -44.29134 43.30709
vt 44.29134 43.30709

usemtl asphalt

f 3/3/1 2/2/1 1/1/1
f 2/2/1 3/3/1 4/4/1
f 1/7/2 5/6/2 3/5/2
f 5/6/2 1/7/2 6/8/2
f 8/6/3 4/7/3 7/8/3
f 4/7/3 8/6/3 2/5/3

usemtl pavement

f 11/2/1 10/9/1 9/1/1
f 10/9/1 11/2/1 12/10/1
f 14/13/4 12/12/4 13/11/4
f 12/12/4 14/13/4 10/14/4
f 11/14/5 1/16/5 2/15/5
f 1/16/5 11/14/5 9/12/5
f 17/14/5 16/18/5 15/17/5
f 16/18/5 17/14/5 18/12/5
f 14/21/6 15/20/6 16/19/6
f 15/20/6 14/21/6 13/22/6
f 17/24/1 19/3/1 18/23/1
f 19/3/1 17/24/1 20/4/1
f 19/14/4 4/16/4 3/15/4
f 4/16/4 19/14/4 20/12/4
f 13/26/3 7/8/3 15/25/3
f 7/8/3 13/26/3 8/6/3
f 8/6/3 13/26/3 2/5/3
f 2/5/3 13/26/3 11/27/3
f 11/27/3 13/26/3 12/28/3
f 20/29/3 15/25/3 7/8/3
f 15/25/3 20/29/3 17/30/3
f 20/29/3 7/8/3 4/7/3
f 10/30/2 1/7/2 9/29/2
f 1/7/2 10/30/2 6/8/2
f 6/8/2 10/30/2 14/31/2
f 14/31/2 5/6/2 6/8/2
f 16/32/2 5/6/2 14/31/2
f 5/6/2 16/32/2 18/28/2
f 5/6/2 18/28/2 19/27/2
f 5/6/2 19/27/2 3/5/2

