# Created by Kenney (www.kenney.nl)

mtllib tile147.mtl

g tile147

v -0.5 0 0.5000001
v -0.5 0 0.3750002
v -0.5 0.1833333 0.5000001
v -0.5 0.1833333 0.3750002
v -0.5000001 0.1833333 -0.4999999
v -0.5000001 0 -0.4999999
v 0.5 0.1833333 -0.5000001
v 0.5 2.030376E-16 -0.5000001
v 0.5000001 2.030376E-16 0.4999999
v 0.5000001 0.1833333 0.4999999
v -0.5000001 0 -0.3749999
v -0.5000001 0 -0.2499998
v -0.5 0 0.2500003
v 5.960465E-08 0.1833333 0.3750001
v 0.09705719 0.1833333 0.3622223
v 0.1875001 0.1833333 0.3247596
v 0.2651651 0.1833333 0.2651651
v 0.3247596 0.1833333 0.1875001
v 0.3622222 0.1833333 0.09705722
v 0.3750001 0.1833333 2.980232E-08
v 0.3622222 0.1833333 -0.0970571
v 0.3247595 0.1833333 -0.1875
v 0.265165 0.1833333 -0.265165
v 0.1875 0.1833333 -0.3247595
v 0.09705713 0.1833333 -0.3622222
v -2.980232E-08 0.1833333 -0.3749999
v -0.5000001 0.1833333 -0.3749999
v -1.862664E-08 0.1516667 -0.2499999
v 0.06470475 0.1516667 -0.2414813
v -0.5000001 0.1516667 -0.2499998
v -0.5 0.1516667 0.2500003
v 0.125 0.1516667 -0.2165062
v 0.1767767 0.1516667 -0.1767766
v 0.2165064 0.1516667 -0.1249999
v 0.2414815 0.1516667 -0.06470463
v 0.25 0.1516667 1.490116E-07
v 0.2414815 0.1516667 0.0647049
v 0.2165064 0.1516667 0.1250001
v 0.1767767 0.1516667 0.1767769
v 0.1250001 0.1516667 0.2165065
v 0.06470481 0.1516667 0.2414816
v 4.0978E-08 0.1516667 0.2500002
v 4.0978E-08 0.21 0.2500002
v 0.06470481 0.21 0.2414816
v -0.5 0.21 0.2500003
v -0.5000001 0.21 -0.2499998
v -1.862664E-08 0.21 -0.2499999
v 0.06470475 0.21 -0.2414813
v 0.125 0.21 -0.2165062
v 0.1767767 0.21 -0.1767766
v 0.2165064 0.21 -0.1249999
v 0.2414815 0.21 -0.06470463
v 0.25 0.21 1.490116E-07
v 0.2414815 0.21 0.0647049
v 0.2165064 0.21 0.1250001
v 0.1767767 0.21 0.1767769
v 0.1250001 0.21 0.2165065
v -0.5000001 0.21 -0.3749999
v -2.980232E-08 0.21 -0.3749999
v 0.09705713 0.21 -0.3622222
v 0.1875 0.21 -0.3247595
v 0.265165 0.21 -0.265165
v 0.3247595 0.21 -0.1875
v 0.3622222 0.21 -0.0970571
v 0.3750001 0.21 2.980232E-08
v 0.3622222 0.21 0.09705722
v 0.3247596 0.21 0.1875001
v 0.2651651 0.21 0.2651651
v -0.5 0.21 0.3750002
v 0.1875001 0.21 0.3247596
v 0.09705719 0.21 0.3622223
v 5.960465E-08 0.21 0.3750001

vn -1 0 1.192093E-07
vn -1.192093E-07 0 -1
vn 1.192093E-07 0 1
vn 1 0 -1.192093E-07
vn 0 -1 0
vn 0 1 0
vn -0.06540325 0 -0.9978591
vn -0.2588192 0 -0.9659259
vn -0.06540301 0 0.9978591
vn -0.258819 0 0.9659259
vn -0.4999999 0 0.8660256
vn -0.7071068 0 0.7071069
vn -0.8660255 0 0.5000002
vn -0.9659259 0 0.2588192
vn -0.9659259 0 -0.258819
vn -0.8660256 0 -0.4999999
vn -0.7071069 0 -0.7071068
vn -0.5000002 0 -0.8660255
vn 0.06540325 0 0.9978591
vn 0.2588192 0 0.9659259
vn 0.5000002 0 0.8660255
vn 0.7071069 0 0.7071068
vn 0.8660256 0 0.4999999
vn 0.9659259 0 0.258819
vn 0.9659259 0 -0.2588192
vn 0.8660255 0 -0.5000002
vn 0.7071068 0 -0.7071069
vn 0.4999999 0 -0.8660256
vn 0.258819 0 -0.9659259
vn 0.06540301 0 -0.9978591

vt 19.68504 1.033517E-13
vt 14.76378 1.033517E-13
vt 19.68504 7.217848
vt 14.76378 7.217848
vt 19.68504 5.420564E-23
vt -19.68504 7.217848
vt -19.68504 7.993606E-15
vt -19.68504 5.420759E-23
vt 19.68504 7.993606E-15
vt 19.68504 19.68504
vt 19.68504 -19.68504
vt -19.68504 19.68504
vt 14.76378 -19.68504
vt 9.842513 -19.68504
vt -9.842526 -19.68504
vt -14.76378 -19.68504
vt -19.68504 -19.68504
vt 14.76378 -19.68504
vt 14.76378 1.989706E-13
vt 14.26072 3.821147
vt 12.78581 7.38189
vt 10.43957 10.43957
vt 7.381893 12.78581
vt 3.821151 14.26072
vt 3.383067E-06 14.76378
vt -3.821144 14.26072
vt -7.381886 12.78581
vt -10.43957 10.43957
vt -12.7858 7.38189
vt -14.26071 3.821147
vt -14.76378 1.421272E-13
vt -14.76378 -19.68504
vt -14.76378 -1.921145E-13
vt -19.68504 -1.033517E-13
vt -14.76378 7.217848
vt -9.842513 4.399873E-07
vt -9.507137 2.547432
vt -9.842513 -19.68504
vt 9.842526 -19.68504
vt -8.523866 4.92126
vt -6.959706 6.959713
vt -4.921253 8.523872
vt -2.547425 9.507144
vt 6.766135E-06 9.84252
vt 2.547438 9.507144
vt 4.921267 8.523872
vt 6.959719 6.959713
vt 8.523879 4.92126
vt 9.507151 2.547432
vt 9.842526 4.399873E-07
vt 9.842526 -2.673526E-13
vt -9.842513 -1.921145E-13
vt 9.842526 5.971128
vt -9.842513 5.971128
vt 1.284707 8.267716
vt 1.284707 5.971128
vt -1.284706 8.267716
vt -1.284706 5.971128
vt 19.68504 8.267716
vt 19.68504 5.971128
vt -4.399873E-07 8.267716
vt -4.399873E-07 5.971128
vt -19.68504 5.971128
vt -19.68504 8.267716
vt 4.399874E-07 5.971128
vt 4.399874E-07 8.267716
vt -1.284705 5.971128
vt -1.284705 8.267716
vt 1.284708 5.971128
vt 1.284708 8.267716
vt -1.284704 5.971128
vt -1.284704 8.267716
vt 1.28471 5.971128
vt 1.28471 8.267716
vt -1.284702 5.971128
vt -1.284702 8.267716
vt 1.284711 5.971128
vt 1.284711 8.267716
vt 1.284712 5.971128
vt -1.284701 5.971128
vt 1.284712 8.267716
vt -1.284701 8.267716
vt 1.284713 5.971128
vt -1.2847 5.971128
vt 1.284713 8.267716
vt -1.2847 8.267716
vt 1.284713 5.971128
vt -1.2847 5.971128
vt 1.284713 8.267716
vt -1.2847 8.267716
vt 1.284713 5.971128
vt -1.2847 5.971128
vt 1.284713 8.267716
vt -1.2847 8.267716
vt 1.284713 5.971128
vt -1.284701 5.971128
vt 1.284713 8.267716
vt -1.284701 8.267716
vt 1.284712 5.971128
vt -1.284701 5.971128
vt 1.284712 8.267716
vt -1.284701 8.267716
vt 1.28471 8.267716
vt 1.28471 5.971128
vt -1.284703 8.267716
vt -1.284703 5.971128
vt 1.284709 8.267716
vt 1.284709 5.971128
vt -1.284704 8.267716
vt -1.284704 5.971128
vt -9.842513 8.267716
vt -14.76378 8.267716
vt -14.76378 1.425582E-13
vt 14.76378 1.994016E-13
vt 2.400883E-13 7.217848
vt 2.400883E-13 8.267716
vt -1.92706 7.217848
vt -1.92706 8.267716
vt 1.92706 7.217848
vt 1.92706 8.267716
vt -1.927061 7.217848
vt -1.927061 8.267716
vt 1.927059 7.217848
vt 1.927059 8.267716
vt -1.927062 7.217848
vt -1.927062 8.267716
vt 1.927058 7.217848
vt 1.927058 8.267716
vt 1.927057 7.217848
vt -1.927063 7.217848
vt 1.927057 8.267716
vt -1.927063 8.267716
vt 1.927057 7.217848
vt -1.927063 7.217848
vt 1.927057 8.267716
vt -1.927063 8.267716
vt 1.927057 7.217848
vt -1.927063 7.217848
vt 1.927057 8.267716
vt -1.927063 8.267716
vt -1.009723E-13 8.267716
vt -1.009723E-13 7.217848
vt 9.842526 8.267716
vt 14.76378 8.267716

usemtl grass

f 3/3/1 2/2/1 1/1/1
f 2/2/1 3/3/1 4/4/1
f 7/6/2 6/5/2 5/3/2
f 6/5/2 7/6/2 8/7/2
f 9/9/3 3/6/3 1/8/3
f 3/6/3 9/9/3 10/3/3
f 7/3/4 9/7/4 8/9/4
f 9/7/4 7/3/4 10/6/4
f 9/12/5 6/11/5 8/10/5
f 6/11/5 9/12/5 11/13/5
f 11/13/5 9/12/5 12/14/5
f 12/14/5 9/12/5 13/15/5
f 13/15/5 9/12/5 2/16/5
f 2/16/5 9/12/5 1/17/5
f 3/11/6 14/19/6 4/18/6
f 10/10/6 14/19/6 3/11/6
f 10/10/6 15/20/6 14/19/6
f 10/10/6 16/21/6 15/20/6
f 10/10/6 17/22/6 16/21/6
f 10/10/6 18/23/6 17/22/6
f 10/10/6 19/24/6 18/23/6
f 10/10/6 20/25/6 19/24/6
f 10/10/6 21/26/6 20/25/6
f 7/12/6 21/26/6 10/10/6
f 21/26/6 7/12/6 22/27/6
f 22/27/6 7/12/6 23/28/6
f 23/28/6 7/12/6 24/29/6
f 24/29/6 7/12/6 25/30/6
f 25/30/6 7/12/6 5/17/6
f 25/30/6 5/17/6 26/31/6
f 26/31/6 5/17/6 27/32/6
f 27/35/1 6/34/1 11/33/1
f 6/34/1 27/35/1 5/6/1

usemtl water

f 30/38/6 29/37/6 28/36/6
f 29/37/6 30/38/6 31/39/6
f 29/37/6 31/39/6 32/40/6
f 32/40/6 31/39/6 33/41/6
f 33/41/6 31/39/6 34/42/6
f 34/42/6 31/39/6 35/43/6
f 35/43/6 31/39/6 36/44/6
f 36/44/6 31/39/6 37/45/6
f 37/45/6 31/39/6 38/46/6
f 38/46/6 31/39/6 39/47/6
f 39/47/6 31/39/6 40/48/6
f 40/48/6 31/39/6 41/49/6
f 41/49/6 31/39/6 42/50/6
f 31/53/1 12/52/1 13/51/1
f 12/52/1 31/53/1 30/54/1

usemtl pavement

f 44/57/8 42/56/7 43/55/7
f 42/56/7 44/57/8 41/58/8
f 43/61/7 31/60/2 45/59/2
f 31/60/2 43/61/7 42/62/7
f 28/65/9 46/64/3 30/63/3
f 46/64/3 28/65/9 47/66/9
f 29/69/10 47/68/9 28/67/9
f 47/68/9 29/69/10 48/70/10
f 32/73/11 48/72/10 29/71/10
f 48/72/10 32/73/11 49/74/11
f 33/77/12 49/76/11 32/75/11
f 49/76/11 33/77/12 50/78/12
f 51/81/13 33/80/12 34/79/13
f 33/80/12 51/81/13 50/82/12
f 52/85/14 34/84/13 35/83/14
f 34/84/13 52/85/14 51/86/13
f 53/89/1 35/88/14 36/87/1
f 35/88/14 53/89/1 52/90/14
f 54/93/15 36/92/1 37/91/15
f 36/92/1 54/93/15 53/94/1
f 55/97/16 37/96/15 38/95/16
f 37/96/15 55/97/16 54/98/15
f 56/101/17 38/100/16 39/99/17
f 38/100/16 56/101/17 55/102/16
f 56/105/17 40/104/18 57/103/18
f 40/104/18 56/105/17 39/106/17
f 57/109/18 41/108/8 44/107/8
f 41/108/8 57/109/18 40/110/18
f 30/54/1 11/33/1 12/52/1
f 11/33/1 30/54/1 27/35/1
f 27/35/1 30/54/1 46/111/1
f 27/35/1 46/111/1 58/112/1
f 46/38/6 59/113/6 58/32/6
f 59/113/6 46/38/6 60/30/6
f 60/30/6 46/38/6 61/29/6
f 61/29/6 46/38/6 62/28/6
f 62/28/6 46/38/6 47/36/6
f 48/37/6 62/28/6 47/36/6
f 62/28/6 48/37/6 63/27/6
f 63/27/6 48/37/6 49/40/6
f 63/27/6 49/40/6 50/41/6
f 63/27/6 50/41/6 64/26/6
f 64/26/6 50/41/6 51/42/6
f 64/26/6 51/42/6 52/43/6
f 64/26/6 52/43/6 65/25/6
f 65/25/6 52/43/6 53/44/6
f 65/25/6 53/44/6 66/24/6
f 66/24/6 53/44/6 54/45/6
f 66/24/6 54/45/6 55/46/6
f 66/24/6 55/46/6 67/23/6
f 67/23/6 55/46/6 56/47/6
f 67/23/6 56/47/6 57/48/6
f 67/23/6 57/48/6 68/22/6
f 68/22/6 57/48/6 44/49/6
f 68/22/6 44/49/6 43/50/6
f 43/50/6 69/18/6 68/22/6
f 69/18/6 43/50/6 45/39/6
f 68/22/6 69/18/6 70/21/6
f 70/21/6 69/18/6 71/20/6
f 71/20/6 69/18/6 72/114/6
f 14/115/19 69/64/3 4/6/3
f 69/64/3 14/115/19 72/116/19
f 15/119/20 72/118/19 14/117/19
f 72/118/19 15/119/20 71/120/20
f 16/123/21 71/122/20 15/121/20
f 71/122/20 16/123/21 70/124/21
f 17/127/22 70/126/21 16/125/21
f 70/126/21 17/127/22 68/128/22
f 67/131/23 17/130/22 18/129/23
f 17/130/22 67/131/23 68/132/22
f 66/135/24 18/134/23 19/133/24
f 18/134/23 66/135/24 67/136/23
f 65/139/4 19/138/24 20/137/4
f 19/138/24 65/139/4 66/140/24
f 64/139/25 20/138/4 21/137/25
f 20/138/4 64/139/25 65/140/4
f 63/135/26 21/134/25 22/133/26
f 21/134/25 63/135/26 64/136/25
f 62/131/27 22/130/26 23/129/27
f 22/130/26 62/131/27 63/132/26
f 62/126/27 24/127/28 61/128/28
f 24/127/28 62/126/27 23/125/27
f 61/122/28 25/123/29 60/124/29
f 25/123/29 61/122/28 24/121/28
f 60/118/29 26/119/30 59/120/30
f 26/119/30 60/118/29 25/117/29
f 59/141/30 27/3/2 58/59/2
f 27/3/2 59/141/30 26/142/30
f 4/4/1 13/51/1 2/2/1
f 13/51/1 4/4/1 31/53/1
f 31/53/1 4/4/1 45/143/1
f 45/143/1 4/4/1 69/144/1

