# Created by Kenney (www.kenney.nl)

mtllib tile229.mtl

g tile229

v 0.2500001 0.4666667 -0.5
v 0.2500001 0.5666666 -0.5
v -0.25 0.4666667 -0.5000001
v -0.25 0.5666666 -0.5000001
v -0.5000001 0.2 0.2499999
v -0.5 0.2 -0.2500001
v 0.5 0.2 0.2500001
v 0.5000001 0.2 -0.2499999
v 0.5000001 0.1 -0.2499999
v 0.5 0.1 0.2500001
v -0.5000001 0.1 0.2499999
v -0.5 0.1 -0.2500001
v 0.25 0.5666667 0.5000001
v -0.2500001 0.5666667 0.5
v 0.25 0.4666667 0.5000001
v -0.2500001 0.4666667 0.5
v -0.2500001 0.5766667 0.5
v -0.3750001 0.5766667 0.5
v -0.3750001 6.202297E-09 0.5
v 0.375 1.232446E-08 0.5000001
v 0.375 0.5766667 0.5000001
v 0.25 0.5766667 0.5000001
v 0.5000001 0.5766667 -0.2499999
v 0.375 0.4666667 -0.25
v 0.375 0.5766667 -0.25
v -0.375 0.4666667 -0.2500001
v -0.5 0.5766667 -0.2500001
v -0.375 0.5766667 -0.2500001
v 0.5000002 5.911964E-08 -0.3749999
v 0.5000001 0.5766667 -0.375
v 0.5 1.232446E-08 0.3750001
v 0.5 0.5766667 0.3750001
v 0.5 0.5766667 0.2500001
v -0.5000002 5.977946E-08 -0.375
v -0.5000001 6.202297E-09 0.375
v -0.5000001 0.5766667 0.375
v -0.5000001 0.5766667 0.2499999
v -0.5 0.5766667 -0.3750001
v -0.25 0.5766666 -0.5000001
v -0.3750001 0.5766667 0.375
v -0.3750001 0.5766667 0.2499999
v -0.375 0.5766666 -0.3750001
v -0.375 0.5766666 -0.5000001
v -0.3750001 2.50732E-09 0.375
v 0.375 0.5766667 0.3750001
v 0.375 0.5766667 0.2500001
v 0.2500001 0.5766666 -0.5
v 0.3750001 0.5766666 -0.375
v 0.3750001 0.5766666 -0.5
v 0.3750003 0 -0.4999999
v -0.3750002 6.598181E-10 -0.5000001
v 0.3750003 1.847489E-08 -0.3749999
v -0.3750001 0.4666667 0.2499999
v 0.375 0.4666667 0.2500001
v -0.3750002 1.91347E-08 -0.375
v 0.375 8.629487E-09 0.3750001

vn 1.192093E-07 0 -1
vn 0 1 0
vn 1 0 1.192093E-07
vn -1 0 -1.192093E-07
vn -1.192093E-07 0 1
vn 0 -1 0
vn -1 3.987419E-07 -1.192093E-07

vt -9.842519 18.3727
vt -9.842519 22.30971
vt 9.84252 18.3727
vt 9.84252 22.30971
vt -9.84252 19.68504
vt 9.84252 19.68504
vt -9.84252 -19.68504
vt 9.84252 -19.68504
vt 9.84252 3.937008
vt -9.84252 3.937008
vt 9.84252 7.874016
vt -9.84252 7.874016
vt 9.842518 3.937006
vt -9.842522 3.937006
vt 9.842518 7.874013
vt -9.842522 7.874013
vt -19.68504 -9.84252
vt -19.68504 9.84252
vt 19.68504 -9.842519
vt 19.68504 9.84252
vt 9.84252 22.30971
vt -9.84252 22.30971
vt -9.84252 18.3727
vt -9.84252 22.70341
vt -14.76378 22.70341
vt -14.76378 -7.555657E-08
vt 14.76378 1.654736E-07
vt 14.76378 22.70341
vt 9.84252 22.70341
vt 19.68504 22.70341
vt 14.76378 18.3727
vt 14.76378 22.70341
vt 19.68504 7.874016
vt -19.68504 7.874016
vt -14.76378 18.3727
vt -19.68504 22.70341
vt 14.76378 2.228436E-06
vt -14.76378 3.861065E-07
vt -14.76378 -2.317481E-08
vt 14.76378 -2.132511E-06
vt 14.76378 22.70341
vt 9.842518 22.70341
vt -14.76378 22.70341
vt -9.842522 22.70341
vt 19.68504 22.30971
vt -19.68504 22.30971
vt 19.68504 22.70341
vt -19.68504 22.70341
vt -19.68504 14.76378
vt -14.76378 14.76378
vt -19.68504 9.842521
vt 19.68504 9.842522
vt -9.842521 14.76378
vt -9.842521 19.68504
vt 9.842519 14.76378
vt 14.76378 14.76378
vt 19.68504 14.76378
vt 14.76378 19.68504
vt 9.842519 19.68504
vt -14.76378 19.68504
vt 14.76378 -2.285971E-07
vt 19.68504 -8.31255E-08
vt -14.76378 -19.68504
vt -14.76378 -14.76378
vt -9.842521 -19.68504
vt -9.842521 -14.76378
vt 19.68504 -9.842521
vt -19.68504 -9.842522
vt -19.68504 -14.76378
vt 9.842519 -14.76378
vt 14.76378 -14.76378
vt 9.842519 -19.68504
vt 14.76378 -19.68504
vt 19.68504 -14.76378
vt -19.68504 22.30971
vt -19.68504 22.70341
vt 19.68504 22.30971
vt 19.68504 22.70341
vt -14.76379 1.401342E-06
vt 14.76379 1.427319E-06
vt 19.68504 -1.854762E-06
vt 14.76378 -1.127404E-06
vt 19.68504 22.70341
vt 14.76378 22.70341
vt 9.842521 14.76378
vt 9.842521 -14.76378
vt -9.842519 14.76378
vt -9.842519 -14.76378
vt 14.76378 18.3727
vt 14.76379 1.844371E-06
vt 19.68505 3.444559E-06
vt -19.68504 -5.860967E-06
vt -19.68504 22.7034
vt -14.76377 -5.133608E-06
vt -14.76378 22.7034
vt -14.76378 -1.19493E-07
vt -19.68504 2.597858E-08
vt 19.68504 2.670089E-07
vt 14.76378 1.215373E-07
vt 14.76378 22.70341
vt -14.76378 1.098949E-07
vt -19.68504 2.553665E-07
vt -19.68505 3.418581E-06
vt -19.68504 22.70341
vt -14.76379 1.818394E-06
vt -14.76378 22.70341
vt 9.842519 18.3727

usemtl asphalt

f 3/3/1 2/2/1 1/1/1
f 2/2/1 3/3/1 4/4/1
f 7/7/2 6/6/2 5/5/2
f 6/6/2 7/7/2 8/8/2
f 8/11/3 10/10/3 9/9/3
f 10/10/3 8/11/3 7/12/3
f 5/15/4 12/14/4 11/13/4
f 12/14/4 5/15/4 6/16/4
f 2/19/2 14/18/2 13/17/2
f 14/18/2 2/19/2 4/20/2
f 14/22/5 15/3/5 13/21/5
f 15/3/5 14/22/5 16/23/5

usemtl pavement

f 18/25/5 14/22/5 17/24/5
f 14/22/5 18/25/5 16/23/5
f 19/26/5 16/23/5 18/25/5
f 19/26/5 15/3/5 16/23/5
f 20/27/5 15/3/5 19/26/5
f 15/3/5 20/27/5 21/28/5
f 15/3/5 21/28/5 22/29/5
f 15/3/5 22/29/5 13/21/5
f 25/32/5 24/31/5 23/30/5
f 24/31/5 8/33/5 23/30/5
f 8/33/5 24/31/5 6/34/5
f 6/34/5 24/31/5 26/35/5
f 6/34/5 26/35/5 27/36/5
f 27/36/5 26/35/5 28/25/5
f 30/28/3 9/9/3 29/37/3
f 9/9/3 30/28/3 8/11/3
f 8/11/3 30/28/3 23/29/3
f 10/10/3 29/37/3 9/9/3
f 10/10/3 31/38/3 29/37/3
f 31/38/3 10/10/3 32/25/3
f 32/25/3 10/10/3 7/12/3
f 32/25/3 7/12/3 33/24/3
f 35/40/4 11/13/4 34/39/4
f 11/13/4 35/40/4 36/41/4
f 11/13/4 36/41/4 5/15/4
f 5/15/4 36/41/4 37/42/4
f 12/14/4 34/39/4 11/13/4
f 34/39/4 12/14/4 38/43/4
f 38/43/4 12/14/4 6/16/4
f 38/43/4 6/16/4 27/44/4
f 39/47/3 14/46/3 4/45/3
f 14/46/3 39/47/3 17/48/3
f 17/51/2 40/50/2 18/49/2
f 40/50/2 17/51/2 39/52/2
f 40/50/2 39/52/2 41/53/2
f 40/50/2 41/53/2 37/54/2
f 41/53/2 39/52/2 28/55/2
f 28/55/2 39/52/2 42/56/2
f 42/56/2 39/52/2 43/57/2
f 38/58/2 28/55/2 42/56/2
f 28/55/2 38/58/2 27/59/2
f 37/54/2 36/60/2 40/50/2
f 19/62/4 40/28/4 44/61/4
f 40/28/4 19/62/4 18/30/4
f 33/65/2 45/64/2 32/63/2
f 45/64/2 33/65/2 46/66/2
f 47/67/2 45/64/2 46/66/2
f 22/68/2 45/64/2 47/67/2
f 45/64/2 22/68/2 21/69/2
f 47/67/2 46/66/2 25/70/2
f 47/67/2 25/70/2 48/71/2
f 48/71/2 25/70/2 23/72/2
f 48/71/2 23/72/2 30/73/2
f 47/67/2 48/71/2 49/74/2
f 13/77/4 47/76/4 2/75/4
f 47/76/4 13/77/4 22/78/4
f 50/79/1 1/1/1 49/25/1
f 1/1/1 50/79/1 51/80/1
f 1/1/1 51/80/1 3/3/1
f 3/3/1 51/80/1 4/4/1
f 4/4/1 51/80/1 39/29/1
f 39/29/1 51/80/1 43/28/1
f 1/1/1 47/24/1 49/25/1
f 47/24/1 1/1/1 2/22/1
f 49/83/3 52/82/3 50/81/3
f 52/82/3 49/83/3 48/84/3
f 26/87/6 54/86/6 53/85/6
f 54/86/6 26/87/6 24/88/6
f 7/34/1 54/35/1 33/36/1
f 54/35/1 7/34/1 5/33/1
f 54/35/1 5/33/1 53/89/1
f 53/89/1 5/33/1 37/30/1
f 37/30/1 41/28/1 53/89/1
f 46/25/1 33/36/1 54/35/1
f 55/90/1 38/78/1 42/28/1
f 38/78/1 55/90/1 34/91/1
f 55/94/7 43/93/7 51/92/7
f 43/93/7 55/94/7 42/95/7
f 36/36/5 44/96/5 40/25/5
f 44/96/5 36/36/5 35/97/5
f 53/3/4 28/24/4 26/23/4
f 28/24/4 53/3/4 41/29/4
f 32/30/5 56/99/5 31/98/5
f 56/99/5 32/30/5 45/100/5
f 45/25/3 20/102/3 56/101/3
f 20/102/3 45/25/3 21/36/3
f 52/105/1 30/104/1 29/103/1
f 30/104/1 52/105/1 48/106/1
f 25/29/3 54/23/3 24/107/3
f 54/23/3 25/29/3 46/24/3

