# Created by Kenney (www.kenney.nl)

mtllib tile282.mtl

g tile282

v 0.25 0.5766667 -0.5000001
v 0.25 0.2 -0.5000001
v 0.375 0.5766667 -0.5000001
v 0.25 0.1 -0.5000001
v 0.375 2.82899E-14 -0.5000001
v -0.5000001 0 -0.4999999
v -0.5000001 0.1 -0.4999999
v 0.375 0.55 -0.5000001
v 0.2500001 0.2 0.5
v 0.2500001 0.21 0.5
v -0.5 0 0.5000001
v -0.5 0.1 0.5000001
v 0.2500001 0.1 0.5
v 0.3750001 2.810943E-14 0.5
v 0.3750001 0.21 0.5
v 0.3750001 0.1833333 0.5
v -0.5 0.2 0.5000001
v -0.5000001 0.2 -0.4999999
v 0.5000001 0.1833333 0.4999999
v 0.5000001 3.212506E-14 0.4999999
v 0.5 3.230554E-14 -0.5000001
v 0.5 0.55 -0.5000001

vn -1.192093E-07 0 -1
vn -1 0 1.192093E-07
vn 1.192093E-07 0 1
vn 1 0 -1.192093E-07
vn 2.980232E-08 0.9388763 0.3442546
vn 0 1 0
vn 0 -1 0

vt -9.84252 22.70341
vt -9.84252 7.874016
vt -14.76378 22.70341
vt -9.84252 3.937008
vt -14.76378 -2.285498E-13
vt 19.68504 -1.342326E-12
vt 19.68504 3.937008
vt -14.76378 21.65354
vt 19.68504 7.874016
vt -19.68504 7.874016
vt 19.68504 8.267716
vt -19.68504 22.70341
vt 19.68504 3.789561E-13
vt -19.68504 3.789561E-13
vt -19.68504 3.937008
vt 9.84252 3.937008
vt -19.68504 1.27035E-12
vt 14.76378 -1.37377E-12
vt 9.84252 7.874016
vt 14.76378 8.267716
vt 14.76378 7.217848
vt 9.84252 8.267716
vt -19.68504 7.217848
vt -19.68504 8.267716
vt 19.68504 21.65354
vt 19.68504 22.70341
vt 14.76378 26.29757
vt 14.76378 -15.63562
vt 9.84252 26.29757
vt 9.84252 -15.63562
vt -19.68504 -19.68504
vt -19.68504 9.84252
vt 19.68504 -19.68504
vt 19.68504 9.84252
vt 19.68504 7.217848
vt 19.68504 -1.215674E-12
vt -19.68504 -3.665109E-12
vt 19.68504 -3.658003E-12
vt 19.68504 19.68504
vt 19.68504 14.76378
vt -19.68504 19.68504
vt -19.68504 14.76378
vt -19.68504 21.65354
vt -19.68504 -1.070766E-12
vt 19.68504 25.93615
vt 19.68504 -15.99704
vt 14.76378 25.93615
vt 14.76378 -15.99704

usemtl pavement

f 3/3/1 2/2/1 1/1/1
f 2/2/1 3/3/1 4/4/1
f 5/5/1 4/4/1 3/3/1
f 6/6/1 4/4/1 5/5/1
f 4/4/1 6/6/1 7/7/1
f 5/5/1 3/3/1 8/8/1
f 10/11/2 2/10/2 9/9/2
f 2/10/2 10/11/2 1/12/2
f 12/7/2 6/14/2 11/13/2
f 6/14/2 12/7/2 7/15/2
f 11/17/3 13/16/3 12/15/3
f 13/16/3 11/17/3 14/18/3
f 13/16/3 14/18/3 9/19/3
f 9/19/3 14/18/3 15/20/3
f 15/20/3 14/18/3 16/21/3
f 15/20/3 10/22/3 9/19/3
f 8/25/4 15/24/4 16/23/4
f 15/24/4 8/25/4 3/26/4
f 1/29/5 15/28/5 3/27/5
f 15/28/5 1/29/5 10/30/5

usemtl asphalt

f 17/9/2 7/15/2 12/7/2
f 7/15/2 17/9/2 18/10/2
f 13/16/3 17/10/3 12/15/3
f 17/10/3 13/16/3 9/19/3
f 17/33/6 2/32/6 18/31/6
f 2/32/6 17/33/6 9/34/6
f 18/9/1 4/4/1 7/7/1
f 4/4/1 18/9/1 2/2/1

usemtl grass

f 14/18/3 19/35/3 16/21/3
f 19/35/3 14/18/3 20/36/3
f 21/38/4 19/23/4 20/37/4
f 19/23/4 21/38/4 22/25/4
f 20/41/7 5/40/7 21/39/7
f 5/40/7 20/41/7 6/33/7
f 6/33/7 20/41/7 14/42/7
f 6/33/7 14/42/7 11/31/7
f 22/43/1 5/5/1 8/8/1
f 5/5/1 22/43/1 21/44/1
f 8/47/5 19/46/5 22/45/5
f 19/46/5 8/47/5 16/48/5

