# Created by Kenney (www.kenney.nl)

mtllib tile002.mtl

g tile002

v 0.5 0.21 0.5000001
v 0.5 3.722356E-15 0.5000001
v -0.5000001 0.21 0.4999999
v -0.5000001 0 0.4999999
v 0.5000001 3.38396E-16 -0.4999999
v -0.5 1.579181E-16 -0.5000001
v 0.5000001 0.21 -0.2485175
v -0.5 0.21 -0.5000001
v 0.4916918 0.21 -0.2609517
v 0.3838836 0.21 -0.3838835
v 0.2609519 0.21 -0.4916917
v 0.2485176 0.21 -0.5
v 0.5000001 0.1 -0.4999999
v 0.2485176 0.1 -0.5
v 0.2485176 0.2 -0.5
v 0.5000001 0.2 -0.2485175
v 0.4916918 0.2 -0.2609517
v 0.2609519 0.2 -0.4916917
v 0.3838836 0.2 -0.3838835
v 0.5000001 0.1 -0.2485175
v 0.5000001 0.2 -0.4999999

vn -1.192093E-07 0 1
vn 0 -1 0
vn 0 1 0
vn 1.192093E-07 0 -1
vn -1 0 -1.192093E-07
vn 0.8314698 0 -0.5555702
vn 0.7933535 0 -0.6087614
vn 0.6087616 0 -0.7933534
vn 0.5555704 0 -0.8314696
vn 0.7071069 0 -0.7071068
vn 1 0 1.192093E-07

vt 19.68504 8.267716
vt 19.68504 1.465494E-13
vt -19.68504 8.267716
vt -19.68504 -1.709399E-29
vt 19.68504 -19.68504
vt -19.68504 -19.68504
vt 19.68504 19.68504
vt -19.68504 19.68504
vt 9.784154 -19.68504
vt 10.27369 -19.35794
vt 15.11352 -15.11352
vt 19.35794 -10.27369
vt 19.68504 -9.784154
vt -19.68504 4.319597E-14
vt -19.68504 3.937008
vt 19.68504 3.609054E-14
vt -9.784154 3.937008
vt -9.784154 7.874016
vt -9.784154 8.267716
vt 19.68504 -4.611241E-30
vt -19.68504 6.217249E-15
vt -2.801196 7.874016
vt -2.801196 8.267716
vt -2.212432 7.874016
vt -2.212432 8.267716
vt 2.212432 7.874016
vt 2.212432 8.267716
vt 2.801196 7.874016
vt 2.801196 8.267716
vt -1.39791 7.874016
vt -1.39791 8.267716
vt 5.039406 7.874016
vt 5.039406 8.267716
vt -5.039406 7.874016
vt -5.039406 8.267716
vt 1.39791 7.874016
vt 1.39791 8.267716
vt 19.68504 9.964881E-17
vt -19.68504 1.333264E-13
vt 19.68504 3.937008
vt 9.784154 3.937008
vt 9.784154 7.874016
vt 9.784154 8.267716
vt 19.68504 7.874016
vt -19.68504 7.874016

usemtl pavement

f 3/3/1 2/2/1 1/1/1
f 2/2/1 3/3/1 4/4/1
f 4/7/2 5/6/2 2/5/2
f 5/6/2 4/7/2 6/8/2
f 7/9/3 3/8/3 1/6/3
f 3/8/3 7/9/3 8/7/3
f 8/7/3 7/9/3 9/10/3
f 8/7/3 9/10/3 10/11/3
f 8/7/3 10/11/3 11/12/3
f 8/7/3 11/12/3 12/13/3
f 6/16/4 13/15/4 5/14/4
f 13/15/4 6/16/4 14/17/4
f 14/17/4 6/16/4 15/18/4
f 15/18/4 6/16/4 12/19/4
f 12/19/4 6/16/4 8/1/4
f 3/1/5 6/21/5 4/20/5
f 6/21/5 3/1/5 8/3/5
f 17/24/7 7/23/6 16/22/6
f 7/23/6 17/24/7 9/25/7
f 15/28/9 11/27/8 18/26/8
f 11/27/8 15/28/9 12/29/9
f 18/32/8 10/31/10 19/30/10
f 10/31/10 18/32/8 11/33/8
f 19/36/10 9/35/7 17/34/7
f 9/35/7 19/36/10 10/37/10
f 13/40/11 2/39/11 5/38/11
f 2/39/11 13/40/11 20/41/11
f 2/39/11 20/41/11 1/3/11
f 1/3/11 20/41/11 16/42/11
f 1/3/11 16/42/11 7/43/11

usemtl asphalt

f 21/44/11 20/41/11 13/40/11
f 20/41/11 21/44/11 16/42/11
f 21/5/3 17/10/3 16/9/3
f 17/10/3 21/5/3 19/11/3
f 19/11/3 21/5/3 18/12/3
f 18/12/3 21/5/3 15/13/3
f 14/17/4 21/45/4 13/15/4
f 21/45/4 14/17/4 15/18/4

