# Created by Kenney (www.kenney.nl)

mtllib tile287.mtl

g tile287

v 0.3460659 0.21 0.5
v -0.5 0.21 0.5
v 0.2989994 0.21 0.4587238
v 0.15625 0.21 0.3633417
v 0.002272005 0.21 0.2874081
v -0.1603 0.21 0.2322224
v -0.3286844 0.21 0.1987286
v -0.5 0.21 0.1875
v 0.5 1.203186E-16 0.5
v 0.4406539 0.19 0.5
v 0.5 0.21 0.5
v 0.4406539 0.21 0.5
v 0.3460659 0.19 0.5
v -0.5 0 0.5
v 0.5 0.21 -0.5
v 0.5 0.19 0.142985
v 0.5 0.21 0.142985
v 0.5 1.203186E-16 -0.5
v 0.5 0.19 0.2202394
v 0.5 0.21 0.2202394
v 0.34375 0.21 0.03858213
v -0.5 0.21 -0.5
v 0.1457783 0.21 -0.05904671
v -0.06324287 0.21 -0.1299998
v -0.2797371 0.21 -0.1730632
v -0.5 0.21 -0.1875
v -0.5 0 -0.5
v -0.5 0.19 -0.1875
v -0.5 0.19 -0.125
v -0.5 0.21 -0.125
v -0.5 0.19 0.125
v -0.5 0.21 0.125
v -0.5 0.19 0.1875
v 0.4892373 0.21 0.2108008
v 0.3125 0.21 0.0927087
v 0.337047 0.21 0.4091392
v 0.1875 0.21 0.309215
v 0.1218606 0.21 -0.00130426
v 0.02618973 0.21 0.2296656
v -0.07941905 0.21 -0.06962949
v -0.1441238 0.21 0.171852
v -0.2878949 0.21 -0.1110979
v -0.3205265 0.21 0.1367633
v 0.34375 0.19 0.03858213
v 0.4892373 0.19 0.2108008
v 0.3125 0.19 0.0927087
v 0.1457783 0.19 -0.05904671
v 0.1218606 0.19 -0.00130426
v -0.06324287 0.19 -0.1299998
v -0.07941905 0.19 -0.06962949
v -0.2797371 0.19 -0.1730632
v -0.2878949 0.19 -0.1110979
v 0.337047 0.19 0.4091392
v 0.2989994 0.19 0.4587238
v 0.1875 0.19 0.309215
v 0.15625 0.19 0.3633417
v 0.02618973 0.19 0.2296656
v 0.002272005 0.19 0.2874081
v -0.1441238 0.19 0.171852
v -0.1603 0.19 0.2322224
v -0.3205265 0.19 0.1367633
v -0.3286844 0.19 0.1987286

vn 0 0.3333333 0
vn 0 0 0.3333333
vn 0.3333333 0 0
vn -0.3333333 0 0
vn 0 0 -0.3333333
vn 0 -0.3333333 0
vn -0.1851901 0 0.2771565
vn -0.1666667 0 0.2886752
vn -0.1275612 0 0.3079599
vn -0.08627301 0 0.3219753
vn -0.04350873 0 0.3304816
vn -0.02180104 0 0.3326197
vn 0.02180104 0 -0.3326197
vn 0.04350873 0 -0.3304816
vn 0.08627301 0 -0.3219753
vn 0.1275612 0 -0.3079599
vn 0.1666667 0 -0.2886752
vn 0.2029205 0 -0.2644511
vn 0.219782 0 -0.2506133
vn -0.2029205 0 0.2644511
vn -0.219782 0 0.2506133

vt -40.87393 59.05512
vt 59.05512 59.05512
vt -35.31489 54.17997
vt -18.45473 42.91437
vt -0.2683471 33.94584
vt 18.93307 27.42784
vt 38.82099 23.47188
vt 59.05512 22.14567
vt 59.05512 6.081555E-13
vt 52.04574 22.44094
vt 59.05512 24.80315
vt 52.04574 24.80315
vt 40.87393 22.44094
vt -59.05512 24.80315
vt -59.05512 5.939447E-13
vt 40.87393 24.80315
vt -16.888 22.44094
vt -16.888 24.80315
vt -59.05512 -1.526305E-13
vt 59.05512 -1.526305E-13
vt -26.01253 22.44094
vt -26.01253 24.80315
vt -59.05512 16.888
vt -40.6004 4.556945
vt -59.05512 -59.05512
vt 59.05512 -59.05512
vt -17.21791 -6.974021
vt 7.469629 -15.35431
vt 33.03981 -20.44054
vt 59.05512 -22.14567
vt -59.05512 -1.624098E-12
vt 59.05512 -1.624098E-12
vt -22.14567 22.44094
vt -14.76378 22.44094
vt -14.76378 24.80315
vt 14.76378 22.44094
vt 14.76378 24.80315
vt 22.14567 22.44094
vt 22.14567 24.80315
vt -22.14567 24.80315
vt 59.05512 -2.165464E-12
vt -59.05512 -2.151253E-12
vt -59.05512 59.05512
vt -52.04574 59.05512
vt -59.05512 26.01253
vt -57.78394 24.89773
vt -36.90945 10.94985
vt -39.8087 48.32352
vt -22.14567 36.52146
vt -14.39298 -0.1540464
vt -3.093275 27.12586
vt 9.380202 -8.223955
vt 17.0225 20.29748
vt 34.00334 -13.1218
vt 37.85746 16.15314
vt 59.05512 -14.76378
vt 59.05512 14.76378
vt 58.485 22.44094
vt 36.2897 22.44094
vt 58.485 24.80315
vt 36.2897 24.80315
vt 38.42887 22.44094
vt 12.35774 22.44094
vt 38.42887 24.80315
vt 12.35774 24.80315
vt 14.06243 22.44094
vt -12.0087 22.44094
vt 14.06243 24.80315
vt -12.0087 24.80315
vt -10.32158 22.44094
vt -36.39271 22.44094
vt -10.32158 24.80315
vt -36.39271 24.80315
vt -34.30594 22.44094
vt -60.37707 22.44094
vt -34.30594 24.80315
vt -60.37707 24.80315
vt 59.89428 22.44094
vt 34.78874 22.44094
vt 59.89428 24.80315
vt 34.78874 24.80315
vt 35.90991 22.44094
vt 10.80438 22.44094
vt 35.90991 24.80315
vt 10.80438 24.80315
vt 11.5259 22.44094
vt -13.57963 22.44094
vt 11.5259 24.80315
vt -13.57963 24.80315
vt -12.84054 22.44094
vt -37.94607 22.44094
vt -12.84054 24.80315
vt -37.94607 24.80315
vt -36.7725 22.44094
vt -61.87803 22.44094
vt -36.7725 24.80315
vt -61.87803 24.80315
vt -59.86048 22.44094
vt -61.55124 22.44094
vt -59.86048 24.80315
vt -61.55124 24.80315
vt 61.79168 22.44094
vt 61.79168 24.80315
vt 78.0678 22.44094
vt 78.0678 24.80315
vt 38.70369 22.44094
vt 38.70369 24.80315
vt 59.94683 22.44094
vt 59.94683 24.80315
vt 14.77174 22.44094
vt 14.77174 24.80315
vt 36.01488 22.44094
vt 36.01488 24.80315
vt -9.594706 22.44094
vt -9.594706 24.80315
vt 11.64844 22.44094
vt 11.64844 24.80315
vt -33.97871 22.44094
vt -33.97871 24.80315
vt -12.73557 22.44094
vt -12.73557 24.80315
vt -57.96308 22.44094
vt -57.96308 24.80315
vt -36.71994 22.44094
vt -36.71994 24.80315
vt 57.48028 22.44094
vt 37.20274 22.44094
vt 57.48028 24.80315
vt 37.20274 24.80315
vt 33.49592 22.44094
vt 13.21837 22.44094
vt 33.49592 24.80315
vt 13.21837 24.80315
vt 9.111906 22.44094
vt -11.16564 22.44094
vt 9.111906 24.80315
vt -11.16564 24.80315
vt -15.25453 22.44094
vt -35.53208 22.44094
vt -15.25453 24.80315
vt -35.53208 24.80315
vt -39.18649 22.44094
vt -59.46404 22.44094
vt -39.18649 24.80315
vt -59.46404 24.80315
vt -69.66839 22.44094
vt -69.66839 24.80315
vt -62.27448 22.44094
vt -62.27448 24.80315

usemtl pavement

f 3/3/1 2/2/1 1/1/1
f 2/2/1 3/3/1 4/4/1
f 2/2/1 4/4/1 5/5/1
f 2/2/1 5/5/1 6/6/1
f 2/2/1 6/6/1 7/7/1
f 2/2/1 7/7/1 8/8/1
f 11/11/2 10/10/2 9/9/2
f 10/10/2 11/11/2 12/12/2
f 13/13/2 9/9/2 10/10/2
f 2/14/2 9/9/2 13/13/2
f 9/9/2 2/14/2 14/15/2
f 2/14/2 13/13/2 1/16/2
f 17/18/3 16/17/3 15/11/3
f 9/19/3 15/11/3 16/17/3
f 15/11/3 9/19/3 18/20/3
f 9/19/3 16/17/3 19/21/3
f 9/19/3 19/21/3 20/22/3
f 9/19/3 20/22/3 11/14/3
f 15/25/1 21/24/1 17/23/1
f 21/24/1 15/25/1 22/26/1
f 21/24/1 22/26/1 23/27/1
f 23/27/1 22/26/1 24/28/1
f 24/28/1 22/26/1 25/29/1
f 25/29/1 22/26/1 26/30/1
f 14/32/4 22/14/4 27/31/4
f 22/14/4 14/32/4 28/33/4
f 28/33/4 14/32/4 29/34/4
f 29/34/4 14/32/4 30/35/4
f 30/35/4 14/32/4 31/36/4
f 30/35/4 31/36/4 32/37/4
f 31/36/4 14/32/4 33/38/4
f 2/11/4 33/38/4 14/32/4
f 33/38/4 2/11/4 8/39/4
f 26/40/4 22/14/4 28/33/4
f 22/11/5 18/42/5 27/41/5
f 18/42/5 22/11/5 15/14/5
f 14/43/6 18/26/6 9/2/6
f 18/26/6 14/43/6 27/25/6
f 20/45/1 12/44/1 11/43/1
f 12/44/1 20/45/1 34/46/1
f 12/44/1 34/46/1 35/47/1
f 12/44/1 35/47/1 36/48/1
f 36/48/1 35/47/1 37/49/1
f 37/49/1 35/47/1 38/50/1
f 37/49/1 38/50/1 39/51/1
f 39/51/1 38/50/1 40/52/1
f 39/51/1 40/52/1 41/53/1
f 41/53/1 40/52/1 42/54/1
f 41/53/1 42/54/1 43/55/1
f 43/55/1 42/54/1 30/56/1
f 43/55/1 30/56/1 32/57/1

usemtl metal

f 44/24/1 19/45/1 16/23/1
f 19/45/1 44/24/1 45/46/1
f 45/46/1 44/24/1 46/47/1
f 46/47/1 44/24/1 47/27/1
f 46/47/1 47/27/1 48/50/1
f 48/50/1 47/27/1 49/28/1
f 48/50/1 49/28/1 50/52/1
f 50/52/1 49/28/1 51/29/1
f 50/52/1 51/29/1 52/54/1
f 52/54/1 51/29/1 28/30/1
f 52/54/1 28/30/1 29/56/1
f 17/60/7 44/59/8 16/58/7
f 44/59/8 17/60/7 21/61/8
f 21/64/8 47/63/9 44/62/8
f 47/63/9 21/64/8 23/65/9
f 23/68/9 49/67/10 47/66/9
f 49/67/10 23/68/9 24/69/10
f 24/72/10 51/71/11 49/70/10
f 51/71/11 24/72/10 25/73/11
f 25/76/11 28/75/12 51/74/11
f 28/75/12 25/76/11 26/77/12
f 30/80/13 52/79/14 29/78/13
f 52/79/14 30/80/13 42/81/14
f 42/84/14 50/83/15 52/82/14
f 50/83/15 42/84/14 40/85/15
f 40/88/15 48/87/16 50/86/15
f 48/87/16 40/88/15 38/89/16
f 38/92/16 46/91/17 48/90/16
f 46/91/17 38/92/16 35/93/17
f 35/96/17 45/95/18 46/94/17
f 45/95/18 35/96/17 34/97/18
f 34/100/18 19/99/19 45/98/18
f 19/99/19 34/100/18 20/101/19
f 53/48/1 13/1/1 10/44/1
f 13/1/1 53/48/1 54/3/1
f 54/3/1 53/48/1 55/49/1
f 54/3/1 55/49/1 56/4/1
f 56/4/1 55/49/1 57/51/1
f 56/4/1 57/51/1 58/5/1
f 58/5/1 57/51/1 59/53/1
f 58/5/1 59/53/1 60/6/1
f 60/6/1 59/53/1 61/55/1
f 60/6/1 61/55/1 62/7/1
f 62/7/1 61/55/1 31/57/1
f 62/7/1 31/57/1 33/8/1
f 10/104/21 36/103/20 53/102/20
f 36/103/20 10/104/21 12/105/21
f 53/108/20 37/107/8 55/106/8
f 37/107/8 53/108/20 36/109/20
f 55/112/8 39/111/9 57/110/9
f 39/111/9 55/112/8 37/113/8
f 57/116/9 41/115/10 59/114/10
f 41/115/10 57/116/9 39/117/9
f 59/120/10 43/119/11 61/118/11
f 43/119/11 59/120/10 41/121/10
f 61/124/11 32/123/12 31/122/12
f 32/123/12 61/124/11 43/125/11
f 8/128/13 62/127/14 33/126/13
f 62/127/14 8/128/13 7/129/14
f 7/132/14 60/131/15 62/130/14
f 60/131/15 7/132/14 6/133/15
f 6/136/15 58/135/16 60/134/15
f 58/135/16 6/136/15 5/137/16
f 5/140/16 56/139/17 58/138/16
f 56/139/17 5/140/16 4/141/17
f 4/144/17 54/143/18 56/142/17
f 54/143/18 4/144/17 3/145/18
f 54/148/18 1/147/19 13/146/19
f 1/147/19 54/148/18 3/149/18

