# Created by Kenney (www.kenney.nl)

mtllib tile237.mtl

g tile237

v 0.3125 0.2 0.4375001
v 0.3125 0.1 0.4375001
v -0.4375001 0.2 0.4375
v -0.4375001 0.1 0.4375
v -0.4375 0.1 -0.3125001
v -0.4375 0.2 -0.3125001
v 0.3060836 0.2 0.3396055
v 0.2869444 0.2 0.2433858
v 0.2554097 0.2 0.1504875
v 0.2120191 0.2 0.06250003
v 0.157515 0.2 -0.01907106
v 0.09283011 0.2 -0.09283008
v 0.01907109 0.2 -0.157515
v -0.06249998 0.2 -0.2120191
v -0.1504874 0.2 -0.2554097
v -0.2433857 0.2 -0.2869444
v -0.3396054 0.2 -0.3060837
v -0.4375001 0 0.4375
v -0.4375 0 -0.4375001
v -0.4375 0.5766667 -0.4375001
v -0.4375 0.5766667 -0.3125001
v 0.4375 0 0.4375001
v 0.4300143 1.744619E-15 0.3232897
v 0.4076851 1.744619E-15 0.2110334
v 0.3708946 1.744619E-15 0.102652
v 0.3202723 1.744619E-15 2.980232E-08
v 0.2566842 1.744619E-15 -0.09516624
v 0.1812185 1.263345E-15 -0.1812184
v 0.0951663 1.263345E-15 -0.2566842
v 3.137695E-08 1.263345E-15 -0.3202722
v -0.102652 1.263345E-15 -0.3708947
v -0.2110333 1.263345E-15 -0.4076852
v -0.3232895 1.263345E-15 -0.4300143
v -0.3232895 0.5766667 -0.4300143
v -0.2110333 0.5766667 -0.4076852
v -0.102652 0.5766667 -0.3708947
v 3.137695E-08 0.5766667 -0.3202722
v 0.0951663 0.5766667 -0.2566842
v 0.1812185 0.5766667 -0.1812184
v 0.2566842 0.5766667 -0.09516624
v 0.3202723 0.5766667 2.980232E-08
v 0.3708946 0.5766667 0.102652
v 0.4076851 0.5766667 0.2110334
v 0.4300143 0.5766667 0.3232897
v 0.4375 0.5766667 0.4375001
v 0.3125 0.5766667 0.4375001
v 0.3060836 0.5766667 0.3396055
v 0.2869444 0.5766667 0.2433858
v 0.2554097 0.5766667 0.1504875
v 0.2120191 0.5766667 0.06250003
v 0.157515 0.5766667 -0.01907106
v 0.09283011 0.5766667 -0.09283008
v 0.01907109 0.5766667 -0.157515
v -0.06249998 0.5766667 -0.2120191
v -0.1504874 0.5766667 -0.2554097
v -0.2433857 0.5766667 -0.2869444
v -0.3396054 0.5766667 -0.3060837

vn -2.980232E-08 0 0.3333334
vn -0.3333334 0 -2.980232E-08
vn 0 0.3333333 0
vn 0 -0.3333333 0
vn 0.04350876 0 -0.3304817
vn 0.02180107 0 -0.3326197
vn 0.08627305 0 -0.3219753
vn 0.1275612 0 -0.3079599
vn 0.1666667 0 -0.2886752
vn 0.2029205 0 -0.2644511
vn 0.2357023 0 -0.2357023
vn 0.2644512 0 -0.2029205
vn 0.2886752 0 -0.1666667
vn 0.3079599 0 -0.1275611
vn 0.3219753 0 -0.08627298
vn 0.3304817 0 -0.04350871
vn 0.3326197 0 -0.02180102
vn -0.04350876 0 0.3304817
vn -0.02180107 0 0.3326197
vn -0.08627305 0 0.3219753
vn -0.1275612 0 0.3079599
vn -0.1666667 0 0.2886752
vn -0.2029205 0 0.2644511
vn -0.2357023 0 0.2357023
vn -0.2644512 0 0.2029205
vn -0.2886752 0 0.1666667
vn -0.3079599 0 0.1275611
vn -0.3219753 0 0.08627298
vn -0.3304817 0 0.04350871
vn -0.3326197 0 0.02180102

vt 36.90945 23.62205
vt 36.90945 11.81102
vt -51.67323 23.62205
vt -51.67323 11.81102
vt -36.90945 11.81102
vt -36.90945 23.62205
vt 51.67323 11.81102
vt 51.67323 23.62205
vt -51.67323 51.67323
vt 36.90945 51.67323
vt -51.67323 -36.90945
vt -40.11087 -36.15161
vt -28.74634 -33.89107
vt -17.77411 -30.16649
vt -7.381889 -25.04162
vt 2.252489 -18.60414
vt 10.96418 -10.96418
vt 18.60414 -2.252489
vt 25.04162 7.38189
vt 30.16649 17.77411
vt 33.89107 28.74635
vt 36.15161 40.11087
vt 51.67323 1.951781E-07
vt -51.67323 1.951781E-07
vt -51.67323 68.11024
vt -36.90945 68.11024
vt 51.67323 51.67323
vt 51.67323 -51.67323
vt 38.18381 -50.78909
vt 24.9252 -48.15178
vt 12.12425 -43.80645
vt -1.270269E-07 -37.82743
vt -11.24011 -30.31703
vt -21.40375 -21.40375
vt -30.31703 -11.24011
vt -37.82743 -1.859796E-07
vt -43.80645 12.12425
vt -48.15178 24.9252
vt -50.78909 38.18381
vt 41.42382 -5.089668E-09
vt 41.42382 68.11024
vt 54.94218 -5.089817E-09
vt 54.94218 68.11024
vt 33.84021 1.52332E-13
vt 33.84021 68.11024
vt 47.35858 1.52332E-13
vt 47.35858 68.11024
vt 25.56194 1.505886E-13
vt 25.56194 68.11024
vt 39.0803 1.505886E-13
vt 39.0803 68.11024
vt 16.73064 1.491775E-13
vt 16.73064 68.11024
vt 30.24901 1.491775E-13
vt 30.24901 68.11024
vt 7.49743 1.479965E-13
vt 7.49743 68.11024
vt 21.01579 1.479965E-13
vt 21.01579 68.11024
vt -1.979719 1.469281E-13
vt -1.979719 68.11024
vt 11.53864 1.469281E-13
vt 11.53864 68.11024
vt 1.979718 1.458505E-13
vt -11.53864 2.026939E-13
vt 1.979718 68.11024
vt -11.53864 68.11024
vt -7.49743 2.014928E-13
vt -21.01579 2.014928E-13
vt -7.49743 68.11024
vt -21.01579 68.11024
vt -16.73064 2.000723E-13
vt -30.24901 2.000723E-13
vt -16.73064 68.11024
vt -30.24901 68.11024
vt -25.56194 1.983645E-13
vt -39.0803 1.983645E-13
vt -25.56194 68.11024
vt -39.0803 68.11024
vt -33.84021 1.963371E-13
vt -47.35858 1.963371E-13
vt -33.84021 68.11024
vt -47.35858 68.11024
vt -54.94218 2.10263E-14
vt -54.94218 68.11024
vt -41.42382 2.270837E-13
vt -41.42382 68.11024
vt 51.67323 68.11024
vt 51.67323 -4.132333E-13
vt 36.90945 68.11024
vt -51.67323 -4.132333E-13
vt -51.67323 -51.67323
vt -38.18381 -50.78909
vt -24.9252 -48.15178
vt -12.12425 -43.80645
vt 1.270269E-07 -37.82743
vt 11.24011 -30.31703
vt 21.40375 -21.40375
vt 30.31703 -11.24011
vt 37.82743 -1.859796E-07
vt 43.80645 12.12425
vt 48.15178 24.9252
vt 50.78909 38.18381
vt -42.38942 68.11024
vt -42.38942 23.62205
vt -53.97659 68.11024
vt -53.97659 23.62205
vt -34.80581 68.11024
vt -34.80581 23.62205
vt -46.39298 68.11024
vt -46.39298 23.62205
vt -26.52754 68.11024
vt -26.52754 23.62205
vt -38.11471 68.11024
vt -38.11471 23.62205
vt -17.69624 68.11024
vt -17.69624 23.62205
vt -29.28341 68.11024
vt -29.28341 23.62205
vt -8.463028 68.11024
vt -8.463028 23.62205
vt -20.0502 68.11024
vt -20.0502 23.62205
vt 1.014121 68.11024
vt 1.014121 23.62205
vt -10.57305 68.11024
vt -10.57305 23.62205
vt 10.57305 23.62205
vt -1.014121 23.62205
vt 10.57305 68.11024
vt -1.014121 68.11024
vt 20.0502 23.62205
vt 8.463027 23.62205
vt 20.0502 68.11024
vt 8.463027 68.11024
vt 29.28341 23.62205
vt 17.69624 23.62205
vt 29.28341 68.11024
vt 17.69624 68.11024
vt 38.11471 23.62205
vt 26.52754 23.62205
vt 38.11471 68.11024
vt 26.52754 68.11024
vt 46.39298 23.62205
vt 34.80581 23.62205
vt 46.39298 68.11024
vt 34.80581 68.11024
vt 42.38942 23.62205
vt 42.38942 68.11024
vt 53.97659 23.62205
vt 53.97659 68.11024

usemtl asphalt

f 3/3/1 2/2/1 1/1/1
f 2/2/1 3/3/1 4/4/1
f 4/7/2 6/6/2 5/5/2
f 6/6/2 4/7/2 3/8/2
f 1/11/3 6/10/3 3/9/3
f 6/10/3 1/11/3 7/12/3
f 6/10/3 7/12/3 8/13/3
f 6/10/3 8/13/3 9/14/3
f 6/10/3 9/14/3 10/15/3
f 6/10/3 10/15/3 11/16/3
f 6/10/3 11/16/3 12/17/3
f 6/10/3 12/17/3 13/18/3
f 6/10/3 13/18/3 14/19/3
f 6/10/3 14/19/3 15/20/3
f 6/10/3 15/20/3 16/21/3
f 6/10/3 16/21/3 17/22/3

usemtl pavement

f 4/7/2 19/24/2 18/23/2
f 19/24/2 4/7/2 5/5/2
f 5/5/2 20/25/2 19/24/2
f 20/25/2 5/5/2 6/6/2
f 20/25/2 6/6/2 21/26/2
f 19/9/4 22/28/4 18/27/4
f 22/28/4 19/9/4 23/29/4
f 23/29/4 19/9/4 24/30/4
f 24/30/4 19/9/4 25/31/4
f 25/31/4 19/9/4 26/32/4
f 26/32/4 19/9/4 27/33/4
f 27/33/4 19/9/4 28/34/4
f 28/34/4 19/9/4 29/35/4
f 29/35/4 19/9/4 30/36/4
f 30/36/4 19/9/4 31/37/4
f 31/37/4 19/9/4 32/38/4
f 32/38/4 19/9/4 33/39/4
f 19/42/6 34/41/5 33/40/5
f 34/41/5 19/42/6 20/43/6
f 33/46/5 35/45/7 32/44/7
f 35/45/7 33/46/5 34/47/5
f 32/50/7 36/49/8 31/48/8
f 36/49/8 32/50/7 35/51/7
f 31/54/8 37/53/9 30/52/9
f 37/53/9 31/54/8 36/55/8
f 30/58/9 38/57/10 29/56/10
f 38/57/10 30/58/9 37/59/9
f 29/62/10 39/61/11 28/60/11
f 39/61/11 29/62/10 38/63/10
f 39/66/11 27/65/12 28/64/11
f 27/65/12 39/66/11 40/67/12
f 40/70/12 26/69/13 27/68/12
f 26/69/13 40/70/12 41/71/13
f 41/74/13 25/73/14 26/72/13
f 25/73/14 41/74/13 42/75/14
f 42/78/14 24/77/15 25/76/14
f 24/77/15 42/78/14 43/79/15
f 43/82/15 23/81/16 24/80/15
f 23/81/16 43/82/15 44/83/16
f 23/86/16 45/85/17 22/84/17
f 45/85/17 23/86/16 44/87/16
f 46/90/1 22/89/1 45/88/1
f 22/89/1 46/90/1 2/2/1
f 22/89/1 2/2/1 18/91/1
f 2/2/1 46/90/1 1/1/1
f 18/91/1 2/2/1 4/4/1
f 45/92/3 47/12/3 46/11/3
f 47/12/3 45/92/3 44/93/3
f 47/12/3 44/93/3 48/13/3
f 48/13/3 44/93/3 43/94/3
f 48/13/3 43/94/3 49/14/3
f 49/14/3 43/94/3 42/95/3
f 49/14/3 42/95/3 50/15/3
f 50/15/3 42/95/3 41/96/3
f 50/15/3 41/96/3 51/16/3
f 51/16/3 41/96/3 40/97/3
f 51/16/3 40/97/3 52/17/3
f 52/17/3 40/97/3 53/18/3
f 53/18/3 40/97/3 39/98/3
f 53/18/3 39/98/3 54/19/3
f 54/19/3 39/98/3 38/99/3
f 54/19/3 38/99/3 55/20/3
f 55/20/3 38/99/3 56/21/3
f 56/21/3 38/99/3 37/100/3
f 56/21/3 37/100/3 57/22/3
f 57/22/3 37/100/3 21/10/3
f 21/10/3 37/100/3 20/27/3
f 20/27/3 37/100/3 36/101/3
f 20/27/3 36/101/3 35/102/3
f 20/27/3 35/102/3 34/103/3
f 21/106/19 17/105/18 57/104/18
f 17/105/18 21/106/19 6/107/19
f 57/110/18 16/109/20 56/108/20
f 16/109/20 57/110/18 17/111/18
f 56/114/20 15/113/21 55/112/21
f 15/113/21 56/114/20 16/115/20
f 55/118/21 14/117/22 54/116/22
f 14/117/22 55/118/21 15/119/21
f 54/122/22 13/121/23 53/120/23
f 13/121/23 54/122/22 14/123/22
f 53/126/23 12/125/24 52/124/24
f 12/125/24 53/126/23 13/127/23
f 51/130/25 12/129/24 11/128/25
f 12/129/24 51/130/25 52/131/24
f 50/134/26 11/133/25 10/132/26
f 11/133/25 50/134/26 51/135/25
f 49/138/27 10/137/26 9/136/27
f 10/137/26 49/138/27 50/139/26
f 48/142/28 9/141/27 8/140/28
f 9/141/27 48/142/28 49/143/27
f 47/146/29 8/145/28 7/144/29
f 8/145/28 47/146/29 48/147/28
f 1/150/30 47/149/29 7/148/29
f 47/149/29 1/150/30 46/151/30

