# Created by Kenney (www.kenney.nl)

mtllib tile146.mtl

g tile146

v 0.2781356 0.2 -0.3235238
v 0.2781356 0.21 -0.3235238
v 0.3207283 0.2 -1.455373E-12
v 0.3207283 0.21 -1.455373E-12
v -0.3756685 0.21 -0.5
v -0.3756685 0.2 -0.5
v -0.2797527 0.21 -0.375
v -0.2797527 0.2 -0.375
v -0.2048274 0.21 -0.1941143
v -0.2048274 0.2 -0.1941143
v -0.2797527 0.21 0.375
v -0.2797527 0.2 0.375
v -0.3756685 0.21 0.5
v -0.3756685 0.2 0.5
v -0.2048274 0.21 0.1941143
v -0.2048274 0.2 0.1941143
v -0.4292718 2.435849E-13 0.3662787
v -0.4292718 0.21 0.3662787
v -0.4292718 6.130231E-14 0.5
v -0.4292718 0.21 0.5
v -0.1792717 0.21 -1.486175E-12
v -0.1792717 0.2 -1.486175E-12
v 0.3215182 0.21 -0.5
v 0.2050367 0.21 -0.5
v 0.3215182 0.21 0.5
v 0.3829805 0.21 -0.3516169
v 0.3829805 0.21 0.3516169
v 0.4292718 0.21 -4.235214E-13
v 0.2781356 0.21 0.3235238
v 0.2050367 0.21 0.5
v -0.3042717 0.21 -5.621284E-13
v -0.3255681 0.21 -0.1617619
v -0.3880059 0.21 -0.3125
v -0.4292718 0.21 -0.5
v -0.4292718 0.21 -0.3662787
v -0.3255681 0.21 0.1617619
v -0.3880059 0.21 0.3125
v 0.2781356 0.2 0.3235238
v 0.2050367 0.2 0.5
v -0.4292718 1.925097E-15 -0.3662787
v -0.3880059 1.443823E-15 -0.3125
v -0.4292718 7.09278E-14 -0.5
v 0.2050367 0.105 0.5
v 0.3215182 2.141671E-14 0.5
v -0.3756685 0.105 0.5
v 0.3829805 2.647008E-15 0.3516169
v -0.3255681 4.812743E-16 -0.1617619
v 0.3215182 6.617521E-15 -0.5
v 0.3829805 0 -0.3516169
v -0.3042717 0 -5.621284E-13
v -0.3255681 0 0.1617619
v 0.2050367 0.2 -0.5
v 0.4292718 8.4223E-16 -4.235214E-13
v -0.3880059 0 0.3125
v -0.3756685 0.105 -0.5
v 0.2050367 0.105 -0.5

vn -0.3219753 0 0.08627301
vn -0.3333333 0 0
vn 0.2644511 0 -0.2029205
vn 0.2886752 0 -0.1666667
vn 0.3219753 0 -0.08627301
vn 0.2886752 0 0.1666667
vn 0.2644511 0 0.2029205
vn 0.3219753 0 0.08627301
vn 0.3333333 0 0
vn 0 0.3333333 0
vn -0.3219753 0 -0.08627304
vn -0.3079599 0 -0.1275612
vn -0.2644511 0 0.2029205
vn -0.2886752 0 0.1666667
vn 0 0 0.3333333
vn 0.3079599 0 0.1275612
vn 0.3079599 0 -0.1275612
vn -0.3219753 0 -0.08627301
vn -0.3079599 0 0.1275612
vn 0 -0.3333333 0
vn -0.2886752 0 -0.1666667
vn -0.2644511 0 -0.2029205
vn 0 0 -0.3333333

vt -33.5967 23.62205
vt -33.5967 24.80315
vt 4.944501 23.62205
vt 4.944501 24.80315
vt 73.8625 24.80315
vt 73.8625 23.62205
vt 55.25317 24.80315
vt 55.25317 23.62205
vt 53.56435 24.80315
vt 53.56435 23.62205
vt 30.43964 24.80315
vt 30.43964 23.62205
vt -55.25317 24.80315
vt -55.25317 23.62205
vt -73.8625 24.80315
vt -73.8625 23.62205
vt -30.43964 24.80315
vt -30.43964 23.62205
vt -53.56435 24.80315
vt -53.56435 23.62205
vt 43.26127 2.876988E-11
vt 43.26127 24.80315
vt 59.05512 7.24043E-12
vt 59.05512 24.80315
vt -2.763739 24.80315
vt -2.763739 23.62205
vt -25.88846 24.80315
vt -25.88846 23.62205
vt -37.88129 -1.724194E-10
vt -32.85066 -38.21147
vt -37.97459 -59.05512
vt -24.21694 -59.05512
vt -37.97459 59.05512
vt -45.23391 -41.52956
vt -45.23391 41.52956
vt -50.70139 -5.054714E-11
vt -32.85066 38.21147
vt -24.21693 59.05512
vt 21.17382 -1.759053E-10
vt 24.19221 22.92688
vt 24.19221 -22.92688
vt 33.04165 -44.29134
vt 33.04165 44.29134
vt 35.9376 -6.676598E-11
vt 38.45292 -19.10574
vt 44.3703 -59.05512
vt 45.82746 -36.90945
vt 50.70139 -59.05512
vt 50.70139 -43.26127
vt 38.45292 19.10574
vt 44.3703 59.05512
vt 45.82746 36.90945
vt 50.70139 59.05512
vt 50.70139 43.26127
vt 25.88846 24.80315
vt 25.88846 23.62205
vt 2.763739 24.80315
vt 2.763739 23.62205
vt -4.944501 23.62205
vt -4.944501 24.80315
vt 33.5967 23.62205
vt 33.5967 24.80315
vt 22.73139 23.62205
vt 22.73139 24.80315
vt 45.29239 23.62205
vt 45.29239 24.80315
vt -65.18652 -7.566397E-14
vt -65.18652 24.80315
vt -57.18023 -1.325074E-13
vt -57.18023 24.80315
vt -59.05512 7.68012E-12
vt -59.05512 24.80315
vt -43.26127 -4.698055E-13
vt -43.26127 24.80315
vt -50.70139 1.384445E-10
vt 24.21693 12.40158
vt 37.97459 1.337336E-10
vt 37.97459 24.80315
vt 24.21693 23.62205
vt 24.21693 24.80315
vt -44.3703 12.40158
vt -50.70139 24.80315
vt -44.3703 23.62205
vt -44.3703 24.80315
vt -21.05804 24.80315
vt -21.05804 2.322078E-11
vt -40.02757 24.80315
vt -40.02757 2.543767E-11
vt -51.63729 -1.03773E-12
vt -51.63729 24.80315
vt -32.3667 -1.151417E-12
vt -32.3667 24.80315
vt 40.02757 24.80315
vt 40.02757 1.269461E-12
vt 21.05804 24.80315
vt 21.05804 4.878638E-13
vt 4.690799 -1.671E-12
vt 4.690799 24.80315
vt 23.9614 -1.671E-12
vt 23.9614 24.80315
vt -45.29239 23.62205
vt -45.29239 24.80315
vt -22.7314 23.62205
vt -22.7314 24.80315
vt 50.70139 -5.002221E-11
vt 45.23391 -41.52956
vt 45.23391 41.52956
vt 37.97459 59.05512
vt 37.97459 -59.05512
vt -50.70139 59.05512
vt -38.45292 19.10574
vt -35.9376 -6.639311E-11
vt -45.82746 36.90945
vt -50.70139 43.26127
vt -38.45292 -19.10574
vt -50.70139 -59.05512
vt -45.82746 -36.90945
vt -50.70139 -43.26127
vt 6.617858 24.80315
vt 6.617858 1.077242E-12
vt -35.27005 24.80315
vt -35.27005 1.290405E-12
vt 57.18023 -1.514276E-13
vt 57.18023 24.80315
vt 65.18652 2.861845E-11
vt 65.18652 24.80315
vt 32.3667 -1.245865E-12
vt 32.3667 24.80315
vt 51.63729 -1.245865E-12
vt 51.63729 24.80315
vt -23.9614 -1.597959E-12
vt -23.9614 24.80315
vt -4.690799 -1.654803E-12
vt -4.690799 24.80315
vt 35.27005 24.80315
vt 35.27005 6.879287E-13
vt -6.617858 24.80315
vt -6.617858 7.874046E-13
vt 50.70139 3.219067E-12
vt 44.3703 12.40158
vt 50.70139 24.80315
vt 44.3703 23.62205
vt 44.3703 24.80315
vt -24.21694 12.40158
vt -37.97459 -4.376634E-12
vt -37.97459 24.80315
vt -24.21694 23.62205
vt -24.21694 24.80315
vt -37.88129 -1.72566E-10
vt 21.17382 -1.76204E-10

usemtl pavement

f 3/3/2 2/2/1 1/1/1
f 2/2/1 3/3/2 4/4/2
f 7/7/4 6/6/3 5/5/3
f 6/6/3 7/7/4 8/8/4
f 9/11/5 8/10/4 7/9/4
f 8/10/4 9/11/5 10/12/5
f 13/15/7 12/14/6 11/13/6
f 12/14/6 13/15/7 14/16/7
f 11/19/6 16/18/8 15/17/8
f 16/18/8 11/19/6 12/20/6
f 19/23/2 18/22/2 17/21/2
f 18/22/2 19/23/2 20/24/2
f 15/27/8 22/26/9 21/25/9
f 22/26/9 15/27/8 16/28/8
f 23/31/10 2/30/10 4/29/10
f 2/30/10 23/31/10 24/32/10
f 25/33/10 23/31/10 4/29/10
f 25/33/10 26/34/10 23/31/10
f 27/35/10 26/34/10 25/33/10
f 26/34/10 27/35/10 28/36/10
f 25/33/10 4/29/10 29/37/10
f 25/33/10 29/37/10 30/38/10
f 9/41/10 15/40/10 21/39/10
f 15/40/10 9/41/10 7/42/10
f 15/40/10 7/42/10 11/43/10
f 11/43/10 7/42/10 31/44/10
f 31/44/10 7/42/10 32/45/10
f 32/45/10 7/42/10 5/46/10
f 32/45/10 5/46/10 33/47/10
f 33/47/10 5/46/10 34/48/10
f 33/47/10 34/48/10 35/49/10
f 36/50/10 11/43/10 31/44/10
f 11/43/10 36/50/10 13/51/10
f 13/51/10 36/50/10 37/52/10
f 13/51/10 37/52/10 20/53/10
f 20/53/10 37/52/10 18/54/10
f 21/57/9 10/56/5 9/55/5
f 10/56/5 21/57/9 22/58/9
f 38/61/11 4/60/2 3/59/2
f 4/60/2 38/61/11 29/62/11
f 39/65/12 29/64/11 38/63/11
f 29/64/11 39/65/12 30/66/12
f 41/69/14 35/68/13 40/67/13
f 35/68/13 41/69/14 33/70/14
f 40/73/2 34/72/2 42/71/2
f 34/72/2 40/73/2 35/74/2
f 44/77/15 43/76/15 19/75/15
f 43/76/15 44/77/15 25/78/15
f 43/76/15 25/78/15 39/79/15
f 39/79/15 25/78/15 30/80/15
f 45/81/15 19/75/15 43/76/15
f 19/75/15 45/81/15 20/82/15
f 20/82/15 45/81/15 14/83/15
f 20/82/15 14/83/15 13/84/15
f 25/87/16 46/86/8 27/85/8
f 46/86/8 25/87/16 44/88/16
f 47/91/1 33/90/14 41/89/14
f 33/90/14 47/91/1 32/92/1
f 26/95/5 48/94/17 23/93/17
f 48/94/17 26/95/5 49/96/5
f 51/99/18 31/98/2 50/97/2
f 31/98/2 51/99/18 36/100/18
f 1/103/1 24/102/19 52/101/19
f 24/102/19 1/103/1 2/104/1
f 46/107/20 49/106/20 53/105/20
f 49/106/20 46/107/20 44/108/20
f 49/106/20 44/108/20 48/109/20
f 48/109/20 44/108/20 19/110/20
f 48/109/20 19/110/20 51/111/20
f 48/109/20 51/111/20 50/112/20
f 51/111/20 19/110/20 54/113/20
f 54/113/20 19/110/20 17/114/20
f 47/115/20 48/109/20 50/112/20
f 48/109/20 47/115/20 42/116/20
f 42/116/20 47/115/20 41/117/20
f 42/116/20 41/117/20 40/118/20
f 27/121/8 53/120/9 28/119/9
f 53/120/9 27/121/8 46/122/8
f 17/125/22 37/124/21 54/123/21
f 37/124/21 17/125/22 18/126/22
f 54/129/21 36/128/18 51/127/18
f 36/128/18 54/129/21 37/130/21
f 50/133/2 32/132/1 47/131/1
f 32/132/1 50/133/2 31/134/2
f 28/137/9 49/136/5 26/135/5
f 49/136/5 28/137/9 53/138/9
f 34/141/23 55/140/23 42/139/23
f 55/140/23 34/141/23 6/142/23
f 6/142/23 34/141/23 5/143/23
f 56/144/23 42/139/23 55/140/23
f 56/144/23 48/145/23 42/139/23
f 48/145/23 56/144/23 23/146/23
f 23/146/23 56/144/23 52/147/23
f 23/146/23 52/147/23 24/148/23

usemtl asphalt

f 1/30/10 38/37/10 3/149/10
f 38/37/10 1/30/10 52/32/10
f 38/37/10 52/32/10 39/38/10
f 39/38/10 52/32/10 8/42/10
f 8/42/10 52/32/10 6/46/10
f 39/38/10 8/42/10 10/41/10
f 39/38/10 10/41/10 22/150/10
f 16/40/10 39/38/10 22/150/10
f 12/43/10 39/38/10 16/40/10
f 39/38/10 12/43/10 14/51/10
f 6/142/23 56/144/23 55/140/23
f 56/144/23 6/142/23 52/147/23
f 39/79/15 45/81/15 43/76/15
f 45/81/15 39/79/15 14/83/15

