# Created by Kenney (www.kenney.nl)

mtllib tile127.mtl

g tile127

v 0.5 0.5766667 0.25
v 0.5 0.5766667 0.375
v -0.5 0.21 0.25
v -0.5 0.21 0.375
v -0.5 0.1833333 0.375
v 0.5 0.5500001 0.375
v 0.5 3.615573E-13 0.375
v -0.5 1.03474E-14 0.375
v 0.5 0 -0.375
v 0.5 0.5766667 -0.375
v -0.5 1.155058E-14 -0.375
v -0.5 0.21 -0.375
v -0.5 0.21 -0.25
v -0.5 0.1 -0.25
v -0.5 0.2 -0.25
v -0.5 0.1 0.25
v -0.5 0.2 0.25
v 0.5 0.5666667 0.25
v 0.5 0.4666667 0.25
v 0.5 0.4666667 -0.25
v 0.5 0.5766667 -0.25
v 0.5 0.5666667 -0.25

vn -0.1147515 0.3129588 0
vn 0 0 0.3333333
vn 0 0 -0.3333333
vn -0.3333333 0 0
vn 0.3333333 0 0
vn 0 -0.3333333 0

vt 29.52756 78.89272
vt 44.29134 78.89272
vt 29.52756 -46.90685
vt 44.29134 -46.90685
vt -59.05512 21.65354
vt -59.05512 24.80315
vt 59.05512 64.96063
vt 59.05512 68.11024
vt 59.05512 1.446497E-10
vt -59.05512 1.031682E-10
vt -59.05512 1.604591E-12
vt -59.05512 68.11024
vt 59.05512 2.968833E-12
vt 59.05512 24.80315
vt -44.29134 24.80315
vt -29.52756 24.80315
vt -44.29134 3.137714E-12
vt -29.52756 11.81102
vt -29.52756 23.62205
vt 44.29134 2.995606E-12
vt 29.52756 11.81102
vt 29.52756 23.62205
vt 29.52756 24.80315
vt 44.29134 21.65354
vt 44.29134 24.80315
vt 59.05512 23.62205
vt -59.05512 66.92913
vt -29.52756 68.11024
vt -29.52756 66.92913
vt -44.29134 68.11024
vt -29.52756 55.11811
vt -44.29134 4.579526E-11
vt -44.29134 64.96063
vt 29.52756 55.11811
vt 44.29134 3.091646E-12
vt 29.52756 68.11024
vt 44.29134 68.11024
vt 29.52756 66.92913
vt 59.05512 -44.29134
vt -59.05512 -44.29134
vt 59.05512 44.29134
vt -59.05512 44.29134
vt -59.05512 23.62205
vt 59.05512 66.92913
vt -44.29134 78.89272
vt -29.52756 78.89272
vt -44.29134 -46.90685
vt -29.52756 -46.90685
vt 29.52756 78.48611
vt 29.52756 -47.31345
vt -29.52756 78.48611
vt -29.52756 -47.31345

usemtl pavement

f 3/3/1 2/2/1 1/1/1
f 2/2/1 3/3/1 4/4/1
f 6/7/2 4/6/2 5/5/2
f 4/6/2 6/7/2 2/8/2
f 5/5/2 7/9/2 6/7/2
f 7/9/2 5/5/2 8/10/2
f 11/13/3 10/12/3 9/11/3
f 10/12/3 11/13/3 12/14/3
f 11/17/4 13/16/4 12/15/4
f 13/16/4 11/17/4 14/18/4
f 13/16/4 14/18/4 15/19/4
f 8/20/4 14/18/4 11/17/4
f 14/18/4 8/20/4 16/21/4
f 16/21/4 8/20/4 17/22/4
f 17/22/4 8/20/4 3/23/4
f 3/23/4 8/20/4 5/24/4
f 4/25/4 3/23/4 5/24/4
f 3/14/3 18/27/3 17/26/3
f 18/27/3 3/14/3 1/12/3
f 2/30/5 18/29/5 1/28/5
f 18/29/5 2/30/5 19/31/5
f 19/31/5 2/30/5 7/32/5
f 7/32/5 2/30/5 6/33/5
f 7/32/5 20/34/5 19/31/5
f 9/35/5 20/34/5 7/32/5
f 9/35/5 21/36/5 20/34/5
f 21/36/5 9/35/5 10/37/5
f 20/34/5 21/36/5 22/38/5
f 7/41/6 11/40/6 9/39/6
f 11/40/6 7/41/6 8/42/6
f 22/44/2 13/6/2 15/43/2
f 13/6/2 22/44/2 21/8/2
f 12/47/1 21/46/1 10/45/1
f 21/46/1 12/47/1 13/48/1

usemtl asphalt

f 22/51/1 17/50/1 18/49/1
f 17/50/1 22/51/1 15/52/1
f 18/29/5 20/34/5 22/38/5
f 20/34/5 18/29/5 19/31/5
f 16/21/4 15/19/4 14/18/4
f 15/19/4 16/21/4 17/22/4

