# Created by Kenney (www.kenney.nl)

mtllib tile268.mtl

g tile268

v 0.3125 0.5766667 -0.5000001
v 0.3125 0.2 -0.5000001
v 0.4375 0.5766667 -0.5000001
v 0.3125 0.1 -0.5000001
v 0.4375 2.82899E-14 -0.5000001
v -0.4375001 0 -0.5
v -0.4375001 0.1 -0.5
v 0.3125001 0.2 0.5
v 0.3125001 0.5766667 0.5
v 0.4375001 2.810943E-14 0.5
v -0.4375 0 0.5000001
v -0.4375 0.1 0.5000001
v 0.4375001 0.5766667 0.5
v 0.3125001 0.1 0.5
v -0.4375 0.2 0.5000001
v -0.4375001 0.2 -0.5

vn -1.192093E-07 0 -1
vn -1 0 1.192093E-07
vn 0 -1 0
vn 0 1 0
vn 1 0 -1.192093E-07
vn 1.192093E-07 0 1

vt -12.30315 22.70341
vt -12.30315 7.874016
vt -17.22441 22.70341
vt -12.30315 3.937008
vt -17.22441 -4.992362E-13
vt 17.22441 -1.613012E-12
vt 17.22441 3.937008
vt 19.68504 7.874016
vt -19.68504 7.874016
vt 19.68504 22.70341
vt -19.68504 22.70341
vt 19.68504 17.22441
vt 19.68504 -17.22441
vt -19.68504 17.22441
vt -19.68504 -17.22441
vt 19.68504 3.315866E-13
vt -19.68504 3.315866E-13
vt 19.68504 3.937008
vt -19.68504 3.937008
vt -19.68504 12.30315
vt 19.68504 12.30315
vt -19.68504 -3.308439E-13
vt 19.68504 -3.237385E-13
vt -17.22441 5.341948E-13
vt -17.22441 3.937008
vt 17.22441 1.640865E-12
vt 12.30315 3.937008
vt 12.30315 7.874016
vt 17.22441 22.70341
vt 12.30315 22.70341
vt -17.22441 7.874016
vt 17.22441 7.874016

usemtl pavement

f 3/3/1 2/2/1 1/1/1
f 2/2/1 3/3/1 4/4/1
f 5/5/1 4/4/1 3/3/1
f 6/6/1 4/4/1 5/5/1
f 4/4/1 6/6/1 7/7/1
f 9/10/2 2/9/2 8/8/2
f 2/9/2 9/10/2 1/11/2
f 10/14/3 6/13/3 5/12/3
f 6/13/3 10/14/3 11/15/3
f 12/18/2 6/17/2 11/16/2
f 6/17/2 12/18/2 7/19/2
f 1/20/4 13/12/4 3/14/4
f 13/12/4 1/20/4 9/21/4
f 5/23/5 13/11/5 10/22/5
f 13/11/5 5/23/5 3/10/5
f 10/26/6 12/25/6 11/24/6
f 12/25/6 10/26/6 14/27/6
f 14/27/6 10/26/6 8/28/6
f 8/28/6 10/26/6 13/29/6
f 13/29/6 9/30/6 8/28/6

usemtl asphalt

f 15/8/2 7/19/2 12/18/2
f 7/19/2 15/8/2 16/9/2
f 14/27/6 15/31/6 12/25/6
f 15/31/6 14/27/6 8/28/6
f 15/13/4 2/20/4 16/15/4
f 2/20/4 15/13/4 8/21/4
f 16/32/1 4/4/1 7/7/1
f 4/4/1 16/32/1 2/2/1

