# Created by Kenney (www.kenney.nl)

mtllib tile250.mtl

g tile250

v -0.4055489 0.2 -0.2711056
v -0.4360629 0.2 -0.2601218
v -0.4055489 0.425 -0.2711056
v -0.4360629 0.425 -0.2601218
v -0.2530494 0.425 -0.467713
v -0.2530494 0.2 -0.467713
v -0.2601218 0.425 -0.4360629
v -0.2601218 0.2 -0.4360629
v -0.5 0.2 -0.25
v -0.5 0.425 -0.25
v -0.467713 0.2 -0.2530494
v -0.467713 0.425 -0.2530494
v -0.2858278 0.425 -0.3766524
v -0.2858278 0.2 -0.3766524
v -0.3040559 0.425 -0.3498293
v -0.3040559 0.2 -0.3498293
v 0.5 6.015928E-17 0.5
v -0.5 6.015928E-17 0.5
v 0.5 0.5500001 0.5
v -0.5 0.5500001 0.5
v 0.1601247 0.2 -0.1176242
v 0.1601247 0.425 -0.1176242
v 0.1058698 0.2 -0.03435
v 0.1058698 0.425 -0.03435
v 0.5 3.007964E-16 -0.5
v -0.25 0.1 -0.5
v -0.5 0 -0.5
v -0.5 0.5500001 -0.5
v -0.25 0.2 -0.5
v -0.25 0.425 -0.5
v 0.5 0.5500001 -0.5
v 0.25 0.1 -0.5
v 0.25 0.2 -0.5
v 0.25 0.425 -0.5
v -0.1176242 0.2 0.1601247
v -0.03435 0.2 0.1058698
v -0.1176242 0.425 0.1601247
v -0.03435 0.425 0.1058698
v -0.3255025 0.2 -0.3255025
v -0.3498293 0.2 -0.3040559
v -0.3255025 0.425 -0.3255025
v -0.3498293 0.425 -0.3040559
v 0.2477242 0.2 -0.400637
v 0.2477242 0.425 -0.400637
v 0.231739 0.2 -0.3025419
v 0.231739 0.425 -0.3025419
v -0.3025419 0.2 0.231739
v -0.207597 0.2 0.2023512
v -0.3025419 0.425 0.231739
v -0.207597 0.425 0.2023512
v -0.400637 0.2 0.2477242
v -0.400637 0.425 0.2477242
v -0.5 0.2 0.25
v -0.5 0.425 0.25
v -0.5 0.1 -0.25
v -0.5 0.1 0.25
v 0.04062756 0.2 0.04062756
v 0.04062756 0.425 0.04062756
v 0.2023512 0.2 -0.207597
v 0.215476 0.425 -0.25
v 0.2023512 0.425 -0.207597
v -0.2711056 0.425 -0.4055489
v -0.2711056 0.2 -0.4055489
v -0.3766524 0.2 -0.2858278
v -0.3766524 0.425 -0.2858278

vn 0.1323689 0 0.3059241
vn 0.09297794 0 0.3201035
vn 0.3292333 0 0.05212025
vn 0.3201035 0 0.09297794
vn 0.0313422 0 0.3318566
vn 0.05212025 0 0.3292333
vn 0.2869191 0 0.1696719
vn 0.2633881 0 0.2042984
vn 0 0 0.3333333
vn -0.2912193 0 -0.1621803
vn -0.266013 0 -0.2008685
vn 0 0 -0.3333333
vn -0.1621803 0 -0.2912193
vn -0.2008685 0 -0.266013
vn 0.2357023 0 0.2357023
vn 0.2042984 0 0.2633881
vn -0.331917 0 -0.0306958
vn -0.3244905 0 -0.07626967
vn -0.07626967 0 -0.3244905
vn -0.12038 0 -0.3108372
vn -0.0306958 0 -0.331917
vn -0.007632678 0 -0.3332459
vn 0.3318566 0 0.0313422
vn -0.3333333 0 0
vn -0.2357023 0 -0.2357023
vn -0.3108372 0 -0.12038
vn -0.3184285 0 -0.09856154
vn 0.3059241 0 0.1323689
vn -0.3332459 0 -0.007632678
vn 0.1696719 0 0.2869191
vn 0 -0.3333333 0
vn 0.3333333 0 0
vn 0 0.3333333 0

vt -34.22361 23.62205
vt -38.05401 23.62205
vt -34.22361 50.19685
vt -38.05401 50.19685
vt 47.39426 50.19685
vt 47.39426 23.62205
vt 43.56387 50.19685
vt 43.56387 23.62205
vt -56.01711 23.62205
vt -56.01711 50.19685
vt -52.18671 23.62205
vt -52.18671 50.19685
vt 17.81964 50.19685
vt 17.81964 23.62205
vt 13.98924 50.19685
vt 13.98924 23.62205
vt 59.05512 5.870049E-09
vt -59.05512 5.870049E-09
vt 59.05512 64.96063
vt -59.05512 64.96063
vt -21.96404 23.62205
vt -21.96404 50.19685
vt -10.22518 23.62205
vt -10.22518 50.19685
vt -43.56387 23.62205
vt -47.39426 23.62205
vt -43.56387 50.19685
vt -47.39426 50.19685
vt -59.05512 -4.731803E-09
vt 29.52756 11.81102
vt 59.05512 -4.731838E-09
vt 29.52756 23.62205
vt 29.52756 50.19685
vt -29.52756 11.81102
vt -29.52756 23.62205
vt -29.52756 50.19685
vt 21.96404 23.62205
vt 10.22518 23.62205
vt 21.96404 50.19685
vt 10.22518 50.19685
vt -3.414306 23.62205
vt -7.244699 23.62205
vt -3.414306 50.19685
vt -7.244699 50.19685
vt -51.40912 23.62205
vt -51.40912 50.19685
vt -39.67025 23.62205
vt -39.67025 50.19685
vt 42.22861 23.62205
vt 30.48975 23.62205
vt 42.22861 50.19685
vt 30.48975 50.19685
vt 47.97689 23.62205
vt 47.97689 50.19685
vt 59.71576 23.62205
vt 59.71576 50.19685
vt 56.01711 50.19685
vt 56.01711 23.62205
vt 52.18671 50.19685
vt 52.18671 23.62205
vt -59.05512 -1.067242E-08
vt 59.05512 -1.067242E-08
vt 11.26884 23.62205
vt -0.4700256 23.62205
vt 11.26884 50.19685
vt -0.4700256 50.19685
vt 7.244699 50.19685
vt 7.244699 23.62205
vt 3.414306 50.19685
vt 3.414306 23.62205
vt -42.22861 23.62205
vt -42.22861 50.19685
vt -30.48975 23.62205
vt -35.7324 50.19685
vt -30.48975 50.19685
vt 20.61154 23.62205
vt 20.61154 50.19685
vt 32.3504 23.62205
vt 32.3504 50.19685
vt 38.05401 50.19685
vt 38.05401 23.62205
vt 34.22361 50.19685
vt 34.22361 23.62205
vt -59.71576 23.62205
vt -59.71576 50.19685
vt -47.97689 23.62205
vt -47.97689 50.19685
vt -24.3133 23.62205
vt -28.14369 23.62205
vt -24.3133 50.19685
vt -28.14369 50.19685
vt 29.52756 -59.05512
vt -29.52756 -59.05512
vt 29.25876 -47.31933
vt 27.37075 -35.73329
vt 25.44992 -29.52756
vt 23.89975 -24.51933
vt 18.91236 -13.89262
vt 12.5043 -4.057087
vt 4.798531 4.798531
vt -4.057087 12.5043
vt -13.89262 18.91236
vt -24.51933 23.89975
vt -35.73329 27.37075
vt -29.88772 -55.2417
vt -30.72304 -51.50349
vt -32.02035 -47.89948
vt -33.75919 -44.48651
vt -35.91212 -41.31842
vt -47.31933 29.25876
vt -38.44518 -38.44518
vt -41.31842 -35.91212
vt -44.48651 -33.75919
vt -47.89948 -32.02035
vt -59.05512 29.52756
vt -51.50349 -30.72304
vt -55.2417 -29.88772
vt -59.05512 -29.52756
vt -32.3504 23.62205
vt -32.3504 50.19685
vt -20.61154 23.62205
vt -20.61154 50.19685
vt -13.98924 23.62205
vt -17.81964 23.62205
vt -13.98924 50.19685
vt -17.81964 50.19685
vt 59.05512 7.369943E-09
vt -59.05512 7.369914E-09
vt -59.05512 -59.05512
vt -59.05512 59.05512
vt 59.05512 -59.05512
vt 59.05512 59.05512
vt -11.26884 23.62205
vt -11.26884 50.19685
vt 0.4700257 23.62205
vt 0.4700257 50.19685
vt 28.14369 50.19685
vt 28.14369 23.62205
vt 24.3133 50.19685
vt 24.3133 23.62205
vt 51.40912 23.62205
vt 39.67025 23.62205
vt 51.40912 50.19685
vt 39.67025 50.19685
vt -29.25876 -47.31933
vt -27.37075 -35.73329
vt -23.89975 -24.51933
vt -18.91236 -13.89262
vt -12.5043 -4.057087
vt -4.798531 4.798531
vt 4.057087 12.5043
vt 13.89262 18.91236
vt 24.51933 23.89975
vt 35.73329 27.37075
vt 29.88772 -55.2417
vt 30.72304 -51.50349
vt 32.02035 -47.89948
vt 33.75919 -44.48651
vt 35.91212 -41.31842
vt 47.31933 29.25876
vt 38.44518 -38.44518
vt 41.31842 -35.91212
vt 44.48651 -33.75919
vt 47.89948 -32.02035
vt 59.05512 29.52756
vt 51.50349 -30.72304
vt 55.2417 -29.88772
vt 59.05512 -29.52756

usemtl pavement

f 3/3/1 2/2/2 1/1/1
f 2/2/2 3/3/1 4/4/2
f 7/7/4 6/6/3 5/5/3
f 6/6/3 7/7/4 8/8/4
f 11/11/6 10/10/5 9/9/5
f 10/10/5 11/11/6 12/12/6
f 15/15/8 14/14/7 13/13/7
f 14/14/7 15/15/8 16/16/8
f 19/19/9 18/18/9 17/17/9
f 18/18/9 19/19/9 20/20/9
f 23/23/11 22/22/10 21/21/10
f 22/22/10 23/23/11 24/24/11
f 4/27/2 11/26/6 2/25/2
f 11/26/6 4/27/2 12/28/6
f 27/31/12 26/30/12 25/29/12
f 26/30/12 27/31/12 28/19/12
f 26/30/12 28/19/12 29/32/12
f 29/32/12 28/19/12 30/33/12
f 30/33/12 28/19/12 31/20/12
f 25/29/12 32/34/12 31/20/12
f 32/34/12 25/29/12 26/30/12
f 31/20/12 32/34/12 33/35/12
f 31/20/12 33/35/12 34/36/12
f 31/20/12 34/36/12 30/33/12
f 37/39/13 36/38/14 35/37/13
f 36/38/14 37/39/13 38/40/14
f 41/43/15 40/42/16 39/41/15
f 40/42/16 41/43/15 42/44/16
f 45/47/18 44/46/17 43/45/17
f 44/46/17 45/47/18 46/48/18
f 49/51/19 48/50/20 47/49/19
f 48/50/20 49/51/19 50/52/20
f 53/55/22 52/54/21 51/53/21
f 52/54/21 53/55/22 54/56/22
f 5/59/3 29/58/23 30/57/23
f 29/58/23 5/59/3 6/60/3
f 18/62/24 55/34/24 27/61/24
f 55/34/24 18/62/24 56/30/24
f 56/30/24 18/62/24 53/32/24
f 53/32/24 18/62/24 54/33/24
f 10/36/24 27/61/24 55/34/24
f 10/36/24 28/20/24 27/61/24
f 28/20/24 10/36/24 20/19/24
f 20/19/24 10/36/24 54/33/24
f 20/19/24 54/33/24 18/62/24
f 10/36/24 55/34/24 9/35/24
f 38/65/14 57/64/25 36/63/14
f 57/64/25 38/65/14 58/66/25
f 41/69/15 16/68/8 15/67/8
f 16/68/8 41/69/15 39/70/15
f 59/73/26 46/72/18 45/71/18
f 46/72/18 59/73/26 60/74/27
f 60/74/27 59/73/26 61/75/26
f 48/78/20 37/77/13 35/76/13
f 37/77/13 48/78/20 50/79/20
f 62/82/28 8/81/4 7/80/4
f 8/81/4 62/82/28 63/83/28
f 43/86/17 34/85/29 33/84/29
f 34/85/29 43/86/17 44/87/17
f 65/90/30 1/89/1 64/88/30
f 1/89/1 65/90/30 3/91/1
f 44/94/31 30/93/31 34/92/31
f 30/93/31 44/94/31 46/95/31
f 30/93/31 46/95/31 60/96/31
f 30/93/31 60/96/31 61/97/31
f 30/93/31 61/97/31 22/98/31
f 30/93/31 22/98/31 24/99/31
f 30/93/31 24/99/31 58/100/31
f 30/93/31 58/100/31 38/101/31
f 30/93/31 38/101/31 37/102/31
f 30/93/31 37/102/31 50/103/31
f 30/93/31 50/103/31 49/104/31
f 30/93/31 49/104/31 5/105/31
f 5/105/31 49/104/31 7/106/31
f 7/106/31 49/104/31 62/107/31
f 62/107/31 49/104/31 13/108/31
f 13/108/31 49/104/31 15/109/31
f 15/109/31 49/104/31 52/110/31
f 15/109/31 52/110/31 41/111/31
f 41/111/31 52/110/31 42/112/31
f 42/112/31 52/110/31 65/113/31
f 65/113/31 52/110/31 3/114/31
f 3/114/31 52/110/31 54/115/31
f 3/114/31 54/115/31 4/116/31
f 4/116/31 54/115/31 12/117/31
f 12/117/31 54/115/31 10/118/31
f 21/121/10 61/120/26 59/119/26
f 61/120/26 21/121/10 22/122/10
f 42/125/16 64/124/30 40/123/16
f 64/124/30 42/125/16 65/126/30
f 31/19/32 17/128/32 25/127/32
f 17/128/32 31/19/32 19/20/32
f 28/131/33 19/130/33 31/129/33
f 19/130/33 28/131/33 20/132/33
f 18/130/31 25/131/31 17/132/31
f 25/131/31 18/130/31 27/129/31
f 57/135/25 24/134/11 23/133/11
f 24/134/11 57/135/25 58/136/25
f 13/139/7 63/138/28 62/137/28
f 63/138/28 13/139/7 14/140/7
f 52/143/21 47/142/19 51/141/21
f 47/142/19 52/143/21 49/144/19

usemtl asphalt

f 29/32/12 32/34/12 26/30/12
f 32/34/12 29/32/12 33/35/12
f 56/30/24 9/35/24 55/34/24
f 9/35/24 56/30/24 53/32/24
f 29/92/33 43/145/33 33/93/33
f 43/145/33 29/92/33 45/146/33
f 45/146/33 29/92/33 59/147/33
f 59/147/33 29/92/33 21/148/33
f 21/148/33 29/92/33 23/149/33
f 23/149/33 29/92/33 57/150/33
f 57/150/33 29/92/33 36/151/33
f 36/151/33 29/92/33 35/152/33
f 35/152/33 29/92/33 48/153/33
f 48/153/33 29/92/33 47/154/33
f 47/154/33 29/92/33 6/155/33
f 47/154/33 6/155/33 8/156/33
f 47/154/33 8/156/33 63/157/33
f 47/154/33 63/157/33 14/158/33
f 47/154/33 14/158/33 16/159/33
f 47/154/33 16/159/33 51/160/33
f 51/160/33 16/159/33 39/161/33
f 51/160/33 39/161/33 40/162/33
f 51/160/33 40/162/33 64/163/33
f 51/160/33 64/163/33 1/164/33
f 51/160/33 1/164/33 53/165/33
f 53/165/33 1/164/33 2/166/33
f 53/165/33 2/166/33 11/167/33
f 53/165/33 11/167/33 9/168/33

