# Created by Kenney (www.kenney.nl)

mtllib tile061.mtl

g tile061

v -0.5000001 0.1833333 -0.4999999
v -0.5000001 0 -0.4999999
v -0.3750001 0.1833333 -0.5
v -0.3750001 0 -0.5
v -0.5 0 0.5000001
v -0.5 0 0.3750001
v -0.5 0.1833333 0.5000001
v -0.5 0.1833333 0.3750001
v 0.5 0 -0.5000001
v 0.5 0 -0.3750001
v 0.5 0.1833333 -0.5000001
v 0.5 0.1833333 -0.3750001
v 0.375 0 -0.5000001
v -0.5000001 0 -0.375
v 0.5000001 0 0.375
v 0.5000001 0 0.4999999
v 0.3750001 0 0.5
v -0.375 0 0.5000001
v 0.3750001 0.1833333 0.5
v 0.5000001 0.1833333 0.4999999
v -0.375 0.1833333 0.3750001
v -0.375 0.1833333 0.5000001
v -0.5000001 0.1833333 -0.375
v -0.3750001 0.1833333 -0.375
v 0.3750001 0.1833333 0.375
v 0.5000001 0.1833333 0.375
v 0.375 0.1833333 -0.5000001
v 0.375 0.1833333 -0.3750001
v -0.5000001 0.2 -0.2499999
v -0.2500001 0.2 -0.25
v -0.5 0.2 0.2500001
v -0.25 0.2 0.2500001
v 0.5000001 0.2 0.2499999
v 0.25 0.2 -0.2500001
v 0.5 0.2 -0.2500001
v 0.2500001 0.2 0.25
v -0.5 0.1 0.2500001
v -0.5000001 0.1 -0.2499999
v 0.5 0.1 -0.2500001
v 0.5000001 0.1 0.2499999
v -0.5000001 0.21 -0.2499999
v -0.2500001 0.21 -0.25
v 0.2500001 0.21 0.25
v 0.5000001 0.21 0.2499999
v -0.5 0.21 0.2500001
v -0.25 0.21 0.2500001
v 0.2500001 0.21 0.5
v -0.25 0.21 0.5000001
v 0.25 0.21 -0.2500001
v 0.5 0.21 -0.2500001
v 0.25 0.21 -0.5000001
v -0.2500001 0.21 -0.5
v 0.375 0.21 -0.5000001
v 0.375 0.21 -0.3750001
v 0.5 0.21 -0.3750001
v 0.3750001 0.21 0.375
v 0.3750001 0.21 0.5
v 0.5000001 0.21 0.375
v -0.5 0.21 0.3750001
v -0.375 0.21 0.3750001
v -0.375 0.21 0.5000001
v -0.3750001 0.21 -0.5
v -0.3750001 0.21 -0.375
v -0.5000001 0.21 -0.375

vn -1.192093E-07 0 -1
vn -1 0 1.192093E-07
vn 1 0 -1.192093E-07
vn 0 -1 0
vn 1.192093E-07 0 1
vn 0 1 0
vn 1.862645E-09 0.9999112 0.01332505
vn -1.862645E-09 0.9999112 -0.01332505
vn -3.72529E-09 0.999201 -0.03996805
vn 3.72529E-09 0.999201 0.03996805

vt 19.68504 7.217848
vt 19.68504 3.675371E-29
vt 14.76378 7.217848
vt 14.76378 3.675371E-29
vt 19.68504 -5.167584E-14
vt 14.76378 -5.167584E-14
vt 19.68504 1.033517E-13
vt 14.76378 1.033517E-13
vt 19.68504 19.68504
vt 19.68504 14.76378
vt 14.76378 19.68504
vt 19.68504 -14.76378
vt 14.76378 -19.68504
vt -14.76378 -19.68504
vt -14.76378 19.68504
vt -19.68504 19.68504
vt -19.68504 -19.68504
vt -19.68504 14.76378
vt -19.68504 -14.76378
vt 19.68504 -19.68504
vt 14.76378 -4.134067E-13
vt 19.68504 -4.134067E-13
vt 14.76378 -14.76378
vt -14.76378 -14.76378
vt 14.76378 14.76378
vt -14.76378 14.76378
vt -14.76378 1.591895E-26
vt -19.68504 1.591895E-26
vt -14.76378 7.217848
vt -19.68504 7.217848
vt -19.68504 -4.134067E-13
vt -14.76378 -8.876819E-13
vt -14.76378 -1.58372E-13
vt -19.68504 -5.167584E-14
vt -14.76378 6.621738E-13
vt -19.68504 4.134067E-13
vt -9.84252 -19.68504
vt -9.84252 -9.84252
vt 9.84252 -19.68504
vt 9.84252 -9.84252
vt 9.84252 19.68504
vt -9.84252 9.84252
vt -9.84252 19.68504
vt 9.84252 9.84252
vt 9.84252 3.937008
vt -9.84252 3.937008
vt 9.84252 7.874016
vt -9.84252 7.874016
vt -19.68504 7.874016
vt -19.68504 8.267716
vt -9.84252 8.267716
vt 19.68504 8.267716
vt 19.68504 7.874016
vt 9.84252 8.267716
vt 9.84252 10.14936
vt -9.84252 10.14936
vt 9.84252 19.99975
vt -9.84252 19.99975
vt -19.68504 9.84252
vt 19.68504 9.84252
vt 19.68504 -9.84252
vt -19.68504 -9.84252
vt 14.76378 8.267716
vt -14.76378 8.267716

usemtl grass

f 3/3/1 2/2/1 1/1/1
f 2/2/1 3/3/1 4/4/1
f 7/1/2 6/6/2 5/5/2
f 6/6/2 7/1/2 8/3/2
f 11/1/3 10/8/3 9/7/3
f 10/8/3 11/1/3 12/3/3
f 10/11/4 13/10/4 9/9/4
f 13/10/4 10/11/4 4/12/4
f 4/12/4 10/11/4 14/13/4
f 14/13/4 10/11/4 6/14/4
f 6/14/4 10/11/4 15/15/4
f 6/14/4 15/15/4 16/16/4
f 6/14/4 16/16/4 5/17/4
f 5/17/4 16/16/4 17/18/4
f 5/17/4 17/18/4 18/19/4
f 14/13/4 2/20/4 4/12/4
f 16/22/5 19/3/5 17/21/5
f 19/3/5 16/22/5 20/1/5
f 8/13/6 22/12/6 21/23/6
f 22/12/6 8/13/6 7/20/6
f 23/14/6 3/19/6 1/17/6
f 3/19/6 23/14/6 24/24/6
f 19/10/6 26/11/6 25/25/6
f 26/11/6 19/10/6 20/9/6
f 27/18/6 12/15/6 11/16/6
f 12/15/6 27/18/6 28/26/6
f 26/29/3 16/28/3 15/27/3
f 16/28/3 26/29/3 20/30/3
f 18/32/5 7/30/5 5/31/5
f 7/30/5 18/32/5 22/29/5
f 23/29/2 2/34/2 14/33/2
f 2/34/2 23/29/2 1/30/2
f 11/30/1 13/35/1 27/29/1
f 13/35/1 11/30/1 9/36/1

usemtl asphalt

f 31/39/6 30/38/7 29/37/6
f 30/38/7 31/39/6 32/40/8
f 33/41/6 30/38/7 32/40/8
f 33/41/6 34/42/7 30/38/7
f 34/42/7 33/41/6 35/43/6
f 33/41/6 32/40/8 36/44/8
f 31/47/2 38/46/2 37/45/2
f 38/46/2 31/47/2 29/48/2
f 35/47/3 40/46/3 39/45/3
f 40/46/3 35/47/3 33/48/3

usemtl pavement

f 30/48/5 41/50/5 29/49/5
f 41/50/5 30/48/5 42/51/5
f 44/50/1 36/48/1 43/51/1
f 36/48/1 44/50/1 33/49/1
f 46/54/1 31/53/1 45/52/1
f 31/53/1 46/54/1 32/47/1
f 43/54/2 36/47/2 47/52/2
f 48/50/3 32/48/3 46/51/3
f 48/57/9 36/56/8 32/55/8
f 36/56/8 48/57/9 47/58/9
f 35/53/5 49/54/5 34/47/5
f 49/54/5 35/53/5 50/52/5
f 51/50/2 34/48/2 49/51/2
f 42/54/3 30/47/3 52/52/3
f 52/58/10 34/55/7 51/57/10
f 34/55/7 52/58/10 30/56/7
f 49/42/6 53/18/6 51/59/6
f 53/18/6 49/42/6 54/26/6
f 54/26/6 49/42/6 50/43/6
f 50/43/6 55/15/6 54/26/6
f 47/60/6 56/25/6 43/44/6
f 56/25/6 47/60/6 57/10/6
f 58/11/6 43/44/6 56/25/6
f 43/44/6 58/11/6 44/41/6
f 59/13/6 46/40/6 45/39/6
f 46/40/6 59/13/6 60/23/6
f 60/23/6 48/61/6 46/40/6
f 48/61/6 60/23/6 61/12/6
f 62/19/6 42/38/6 52/62/6
f 42/38/6 62/19/6 63/24/6
f 42/38/6 63/24/6 64/14/6
f 42/38/6 64/14/6 41/37/6
f 61/52/2 21/3/2 22/1/2
f 21/3/2 61/52/2 60/63/2
f 21/29/5 59/50/5 8/30/5
f 59/50/5 21/29/5 60/64/5
f 63/63/1 23/1/1 64/52/1
f 23/1/1 63/63/1 24/3/1
f 63/64/2 3/30/2 24/29/2
f 3/30/2 63/64/2 62/50/2
f 26/1/5 56/63/5 25/3/5
f 56/63/5 26/1/5 58/52/5
f 56/64/3 19/30/3 25/29/3
f 19/30/3 56/64/3 57/50/3
f 53/52/3 28/3/3 27/1/3
f 28/3/3 53/52/3 54/63/3
f 55/50/1 28/29/1 54/64/1
f 28/29/1 55/50/1 12/30/1
f 17/21/5 22/29/5 18/32/5
f 22/29/5 17/21/5 61/64/5
f 61/64/5 17/21/5 48/51/5
f 48/51/5 17/21/5 47/54/5
f 47/54/5 17/21/5 57/63/5
f 57/63/5 17/21/5 19/3/5
f 6/6/2 37/45/2 14/33/2
f 37/45/2 6/6/2 8/3/2
f 37/45/2 8/3/2 31/47/2
f 31/47/2 8/3/2 59/63/2
f 31/47/2 59/63/2 45/54/2
f 38/46/2 14/33/2 37/45/2
f 14/33/2 38/46/2 23/29/2
f 23/29/2 38/46/2 29/48/2
f 23/29/2 29/48/2 64/64/2
f 64/64/2 29/48/2 41/51/2
f 52/54/1 3/3/1 62/63/1
f 3/3/1 52/54/1 4/4/1
f 4/4/1 52/54/1 13/35/1
f 13/35/1 52/54/1 51/51/1
f 13/35/1 51/51/1 53/64/1
f 13/35/1 53/64/1 27/29/1
f 10/8/3 39/45/3 15/27/3
f 39/45/3 10/8/3 12/3/3
f 39/45/3 12/3/3 35/47/3
f 35/47/3 12/3/3 55/63/3
f 35/47/3 55/63/3 50/54/3
f 40/46/3 15/27/3 39/45/3
f 15/27/3 40/46/3 26/29/3
f 26/29/3 40/46/3 33/48/3
f 26/29/3 33/48/3 58/64/3
f 58/64/3 33/48/3 44/51/3

