# Created by Kenney (www.kenney.nl)

mtllib tile101.mtl

g tile101

v -0.5 0.21 -0.5
v -0.5 0.1 -0.125
v -0.5 0 -0.5
v -0.5 0 0.5
v -0.5 0.1 0.125
v -0.5 0.2 0.125
v -0.5 0.21 0.125
v -0.5 0.21 0.5
v -0.5 0.21 -0.125
v -0.5 0.2 -0.125
v 0.5 0.21 -0.5
v 0.5 0 -0.5
v 0.5 0.21 0.5
v 0.5 0 0.5
v 0.125 0.105 0.4999999
v 0.125 0.2 0.4999999
v 0.125 0.21 0.4999999
v -0.125 0.105 0.4999999
v -0.125 0.2 0.4999999
v -0.125 0.21 0.4999999
v -0.1282082 0.21 0.4510526
v -0.1377778 0.21 0.4029428
v -0.1535452 0.21 0.3564937
v -0.1752405 0.21 0.3125
v -0.2024925 0.21 0.2717144
v -0.234835 0.21 0.2348349
v -0.2717145 0.21 0.2024925
v -0.3125 0.21 0.1752405
v -0.3564937 0.21 0.1535452
v -0.4029429 0.21 0.1377778
v -0.4510527 0.21 0.1282081
v -0.125 0.21 -0.5
v -0.1282082 0.21 -0.4510527
v -0.1377778 0.21 -0.4029429
v -0.1535452 0.21 -0.3564937
v -0.1752405 0.21 -0.3125
v -0.2024925 0.21 -0.2717145
v -0.234835 0.21 -0.234835
v -0.2717145 0.21 -0.2024925
v -0.3125 0.21 -0.1752405
v -0.3564937 0.21 -0.1535452
v -0.4029429 0.21 -0.1377778
v -0.4510527 0.21 -0.1282082
v -0.125 0.1 -0.5
v -0.125 0.2 -0.5
v 0.125 0.1 -0.5
v 0.125 0.2 -0.5
v 0.125 0.21 -0.5
v 0.119653 0.21 0.4184211
v 0.119653 0.21 -0.4184211
v 0.1037036 0.21 0.3382381
v 0.1037036 0.21 -0.3382381
v 0.07742469 0.21 0.2608228
v 0.07742469 0.21 -0.2608229
v 0.04126586 0.21 0.1875
v 0.04126586 0.21 -0.1875
v -0.004154179 0.21 0.1195241
v -0.004154179 0.21 -0.1195241
v -0.05805828 0.21 0.05805824
v -0.05805828 0.21 -0.05805828
v -0.1195241 0.21 0.004154137
v -0.1195241 0.21 -0.004154179
v -0.1257413 0.21 -2.107343E-08
v -0.1195241 0.2 0.004154137
v -0.1257413 0.2 -2.107343E-08
v -0.1195241 0.2 -0.004154179
v -0.05805828 0.2 -0.05805828
v -0.004154179 0.2 -0.1195241
v 0.04126586 0.2 -0.1875
v 0.07742469 0.2 -0.2608229
v 0.1037036 0.2 -0.3382381
v 0.119653 0.2 -0.4184211
v -0.1282082 0.2 -0.4510527
v -0.1377778 0.2 -0.4029429
v -0.1535452 0.2 -0.3564937
v -0.1752405 0.2 -0.3125
v -0.2024925 0.2 -0.2717145
v -0.234835 0.2 -0.234835
v -0.2717145 0.2 -0.2024925
v -0.3125 0.2 -0.1752405
v -0.3564937 0.2 -0.1535452
v -0.4029429 0.2 -0.1377778
v -0.4510527 0.2 -0.1282082
v -0.4510527 0.2 0.1282081
v -0.4029429 0.2 0.1377778
v -0.3564937 0.2 0.1535452
v -0.3125 0.2 0.1752405
v -0.2717145 0.2 0.2024925
v -0.234835 0.2 0.2348349
v -0.2024925 0.2 0.2717144
v -0.1752405 0.2 0.3125
v -0.1535452 0.2 0.3564937
v -0.1377778 0.2 0.4029428
v -0.1282082 0.2 0.4510526
v 0.119653 0.2 0.4184211
v 0.1037036 0.2 0.3382381
v 0.07742469 0.2 0.2608228
v 0.04126586 0.2 0.1875
v -0.004154179 0.2 0.1195241
v -0.05805828 0.2 0.05805824

vn -1 0 0
vn 1 0 0
vn 0 0 1
vn 0 1 0
vn 0 0 -1
vn 0 -1 0
vn -0.6087614 0 0.7933533
vn -0.5555702 0 0.8314696
vn -0.5555702 0 -0.8314696
vn -0.6087614 0 -0.7933533
vn -0.7071068 0 -0.7071068
vn -0.7933533 0 -0.6087614
vn -0.8660254 0 -0.5
vn -0.9238795 0 -0.3826834
vn -0.9659258 0 -0.258819
vn -0.9914449 0 -0.1305262
vn -0.9978589 0 -0.06540313
vn 0.9978589 0 0.06540313
vn 0.9914449 0 0.1305262
vn 0.9659258 0 0.258819
vn 0.9238795 0 0.3826834
vn 0.8660254 0 0.5
vn 0.7933533 0 0.6087614
vn 0.7071068 0 0.7071068
vn 0.6087614 0 0.7933533
vn 0.5 0 0.8660254
vn 0.3826834 0 0.9238795
vn 0.258819 0 0.9659258
vn 0.1305262 0 0.9914449
vn 0.06540313 0 0.9978589
vn 0.06540313 0 -0.9978589
vn 0.1305262 0 -0.9914449
vn 0.258819 0 -0.9659258
vn 0.3826834 0 -0.9238795
vn 0.5 0 -0.8660254
vn 0.6087614 0 -0.7933533
vn 0.7071068 0 -0.7071068
vn 0.7933533 0 -0.6087614
vn 0.8660254 0 -0.5
vn 0.9238795 0 -0.3826834
vn 0.9659258 0 -0.258819
vn 0.9914449 0 -0.1305262
vn 0.9978589 0 -0.06540313
vn -0.9914449 0 0.1305262
vn -0.9978589 0 0.06540313
vn -0.9659258 0 0.258819
vn -0.9238795 0 0.3826834
vn -0.8660254 0 0.5
vn -0.7933533 0 0.6087614
vn -0.7071068 0 0.7071068

vt -19.68504 8.267716
vt -4.921261 3.937008
vt -19.68504 1.114577E-13
vt 19.68504 1.114577E-13
vt 4.921259 3.937008
vt 4.921259 7.874016
vt 4.921259 8.267716
vt 19.68504 8.267716
vt -4.921261 8.267716
vt -4.921261 7.874016
vt 19.68504 0
vt -19.68504 0
vt -19.68504 -1.589289E-06
vt 4.921259 4.133857
vt 19.68504 -1.589289E-06
vt 19.68504 8.267715
vt 4.921259 7.874014
vt 4.921259 8.267715
vt -4.921261 4.133857
vt -19.68504 8.267715
vt -4.921261 7.874014
vt -4.921261 8.267715
vt 4.921261 19.68504
vt 19.68504 19.68504
vt 5.047567 17.75798
vt 5.424324 15.86389
vt 6.045086 14.03518
vt 6.899232 12.30315
vt 7.972146 10.69742
vt 9.245471 9.24547
vt 10.69742 7.972145
vt 12.30315 6.89923
vt 14.03519 6.045085
vt 15.86389 5.424323
vt 17.75798 5.047565
vt 19.68504 4.921259
vt 4.921261 -19.68504
vt 5.047567 -17.75798
vt 19.68504 -19.68504
vt 5.424324 -15.86389
vt 6.045086 -14.03519
vt 6.899232 -12.30315
vt 7.972146 -10.69742
vt 9.245471 -9.245471
vt 10.69742 -7.972146
vt 12.30315 -6.899232
vt 14.03519 -6.045086
vt 15.86389 -5.424324
vt 17.75798 -5.047567
vt 19.68504 -4.921261
vt 4.921261 3.937008
vt 4.921261 7.874016
vt 4.921261 8.267716
vt -4.921259 3.937008
vt -4.921259 7.874016
vt -4.921259 8.267716
vt -19.68504 19.68504
vt -19.68504 -19.68504
vt -4.921259 -19.68504
vt -4.921259 19.68504
vt -4.710749 16.47327
vt -4.710749 -16.47327
vt -4.08282 13.31646
vt -4.08282 -13.31646
vt -3.048216 10.26861
vt -3.048216 -10.26862
vt -1.62464 7.381888
vt -1.62464 -7.38189
vt 0.1635504 4.705672
vt 0.1635504 -4.705674
vt 2.285759 2.285757
vt 2.285759 -2.285759
vt 4.705674 0.1635487
vt 4.705674 -0.1635504
vt 4.950443 -8.296627E-07
vt -3.821762 7.874016
vt -4.116144 7.874016
vt -3.821762 8.267716
vt -4.116144 8.267716
vt 4.116143 7.874016
vt 3.821761 7.874016
vt 4.116143 8.267716
vt 3.821761 8.267716
vt 3.430077 7.874016
vt 0.211419 7.874016
vt 3.430077 8.267716
vt 0.211419 8.267716
vt -3.430077 7.874016
vt -3.430077 8.267716
vt -0.211419 7.874016
vt -0.211419 8.267716
vt -7.040419 7.874016
vt -7.040419 8.267716
vt -3.821761 7.874016
vt -3.821761 8.267716
vt -10.55783 7.874016
vt -10.55783 8.267716
vt -7.339176 7.874016
vt -7.339176 8.267716
vt -13.92214 7.874016
vt -13.92214 8.267716
vt -10.70348 7.874016
vt -10.70348 8.267716
vt -17.07577 7.874016
vt -17.07577 8.267716
vt -13.85711 7.874016
vt -13.85711 8.267716
vt -19.96476 7.874016
vt -19.96476 8.267716
vt -16.7461 7.874016
vt -16.7461 8.267716
vt 19.32103 8.267716
vt 19.32103 7.874016
vt 17.38983 8.267716
vt 17.38983 7.874016
vt 16.43203 8.267716
vt 16.43203 7.874016
vt 14.50084 8.267716
vt 14.50084 7.874016
vt 13.27841 8.267716
vt 13.27841 7.874016
vt 11.34721 8.267716
vt 11.34721 7.874016
vt 9.914103 8.267716
vt 9.914103 7.874016
vt 7.982908 8.267716
vt 7.982908 7.874016
vt 6.396688 8.267716
vt 6.396688 7.874016
vt 4.465493 8.267716
vt 4.465493 7.874016
vt 2.786345 8.267716
vt 2.786345 7.874016
vt 0.8551506 8.267716
vt 0.8551506 7.874016
vt -0.8551506 7.874016
vt -2.786345 7.874016
vt -0.8551506 8.267716
vt -2.786345 8.267716
vt -4.465493 7.874016
vt -6.396688 7.874016
vt -4.465493 8.267716
vt -6.396688 8.267716
vt -7.982908 7.874016
vt -9.914103 7.874016
vt -7.982908 8.267716
vt -9.914103 8.267716
vt -11.34721 7.874016
vt -13.27841 7.874016
vt -11.34721 8.267716
vt -13.27841 8.267716
vt -14.50084 7.874016
vt -16.43203 7.874016
vt -14.50084 8.267716
vt -16.43203 8.267716
vt -17.38983 7.874016
vt -19.32103 7.874016
vt -17.38983 8.267716
vt -19.32103 8.267716
vt 11.34721 7.874016
vt 11.34721 8.267716
vt 7.982908 7.874016
vt 7.982908 8.267716
vt 6.396688 7.874016
vt 4.465494 7.874016
vt 6.396688 8.267716
vt 4.465494 8.267716
vt 2.786346 7.874016
vt 0.8551517 7.874016
vt 2.786346 8.267716
vt 0.8551517 8.267716
vt -0.8551493 8.267716
vt -0.8551493 7.874016
vt -2.786344 8.267716
vt -2.786344 7.874016
vt -4.465491 8.267716
vt -4.465491 7.874016
vt -6.396686 8.267716
vt -6.396686 7.874016
vt -7.982906 8.267716
vt -7.982906 7.874016
vt -9.914101 8.267716
vt -9.914101 7.874016
vt -11.34721 8.267716
vt -11.34721 7.874016
vt -13.2784 8.267716
vt -13.2784 7.874016
vt -14.50084 8.267716
vt -14.50084 7.874016
vt -16.43203 8.267716
vt -16.43203 7.874016
vt -17.38983 8.267716
vt -17.38983 7.874016
vt -19.32102 8.267716
vt -19.32102 7.874016
vt 16.7461 7.874016
vt 16.7461 8.267716
vt 19.96476 7.874016
vt 19.96476 8.267716
vt 13.85711 7.874016
vt 13.85711 8.267716
vt 17.07576 7.874016
vt 17.07576 8.267716
vt 10.70348 7.874016
vt 10.70348 8.267716
vt 13.92214 7.874016
vt 13.92214 8.267716
vt 7.339175 7.874016
vt 7.339175 8.267716
vt 10.55783 7.874016
vt 10.55783 8.267716
vt 3.82176 7.874016
vt 3.82176 8.267716
vt 7.040418 7.874016
vt 7.040418 8.267716
vt 0.2114177 7.874016
vt 0.2114177 8.267716
vt 3.430076 7.874016
vt 3.430076 8.267716
vt -0.2114201 7.874016
vt -3.430078 7.874016
vt -0.2114201 8.267716
vt -3.430078 8.267716

usemtl pavement

f 3/3/1 2/2/1 1/1/1
f 2/2/1 3/3/1 4/4/1
f 2/2/1 4/4/1 5/5/1
f 5/5/1 4/4/1 6/6/1
f 6/6/1 4/4/1 7/7/1
f 7/7/1 4/4/1 8/8/1
f 2/2/1 9/9/1 1/1/1
f 9/9/1 2/2/1 10/10/1
f 13/1/2 12/11/2 11/8/2
f 12/11/2 13/1/2 14/12/2
f 14/15/3 15/14/3 4/13/3
f 15/14/3 14/15/3 13/16/3
f 15/14/3 13/16/3 16/17/3
f 16/17/3 13/16/3 17/18/3
f 18/19/3 4/13/3 15/14/3
f 4/13/3 18/19/3 8/20/3
f 8/20/3 18/19/3 19/21/3
f 8/20/3 19/21/3 20/22/3
f 21/25/4 8/24/4 20/23/4
f 8/24/4 21/25/4 22/26/4
f 8/24/4 22/26/4 23/27/4
f 8/24/4 23/27/4 24/28/4
f 8/24/4 24/28/4 25/29/4
f 8/24/4 25/29/4 26/30/4
f 8/24/4 26/30/4 27/31/4
f 8/24/4 27/31/4 28/32/4
f 8/24/4 28/32/4 29/33/4
f 8/24/4 29/33/4 30/34/4
f 8/24/4 30/34/4 31/35/4
f 8/24/4 31/35/4 7/36/4
f 1/39/4 33/38/4 32/37/4
f 33/38/4 1/39/4 34/40/4
f 34/40/4 1/39/4 35/41/4
f 35/41/4 1/39/4 36/42/4
f 36/42/4 1/39/4 37/43/4
f 37/43/4 1/39/4 38/44/4
f 38/44/4 1/39/4 39/45/4
f 39/45/4 1/39/4 40/46/4
f 40/46/4 1/39/4 41/47/4
f 41/47/4 1/39/4 42/48/4
f 42/48/4 1/39/4 43/49/4
f 43/49/4 1/39/4 9/50/4
f 3/11/5 44/51/5 12/12/5
f 44/51/5 3/11/5 1/8/5
f 44/51/5 1/8/5 45/52/5
f 45/52/5 1/8/5 32/53/5
f 46/54/5 12/12/5 44/51/5
f 12/12/5 46/54/5 11/1/5
f 11/1/5 46/54/5 47/55/5
f 11/1/5 47/55/5 48/56/5
f 4/57/6 12/39/6 14/24/6
f 12/39/6 4/57/6 3/58/6
f 48/59/4 13/57/4 11/58/4
f 13/57/4 48/59/4 17/60/4
f 17/60/4 48/59/4 49/61/4
f 49/61/4 48/59/4 50/62/4
f 49/61/4 50/62/4 51/63/4
f 51/63/4 50/62/4 52/64/4
f 51/63/4 52/64/4 53/65/4
f 53/65/4 52/64/4 54/66/4
f 53/65/4 54/66/4 55/67/4
f 55/67/4 54/66/4 56/68/4
f 55/67/4 56/68/4 57/69/4
f 57/69/4 56/68/4 58/70/4
f 57/69/4 58/70/4 59/71/4
f 59/71/4 58/70/4 60/72/4
f 59/71/4 60/72/4 61/73/4
f 61/73/4 60/72/4 62/74/4
f 61/73/4 62/74/4 63/75/4
f 61/78/7 65/77/8 64/76/7
f 65/77/8 61/78/7 63/79/8
f 63/82/9 66/81/10 65/80/9
f 66/81/10 63/82/9 62/83/10
f 62/86/10 67/85/11 66/84/10
f 67/85/11 62/86/10 60/87/11
f 67/90/11 58/89/12 68/88/12
f 58/89/12 67/90/11 60/91/11
f 68/94/12 56/93/13 69/92/13
f 56/93/13 68/94/12 58/95/12
f 69/98/13 54/97/14 70/96/14
f 54/97/14 69/98/13 56/99/13
f 70/102/14 52/101/15 71/100/15
f 52/101/15 70/102/14 54/103/14
f 71/106/15 50/105/16 72/104/16
f 50/105/16 71/106/15 52/107/15
f 72/110/16 48/109/17 47/108/17
f 48/109/17 72/110/16 50/111/16
f 33/114/19 45/113/18 32/112/18
f 45/113/18 33/114/19 73/115/19
f 34/118/20 73/117/19 33/116/19
f 73/117/19 34/118/20 74/119/20
f 35/122/21 74/121/20 34/120/20
f 74/121/20 35/122/21 75/123/21
f 36/126/22 75/125/21 35/124/21
f 75/125/21 36/126/22 76/127/22
f 37/130/23 76/129/22 36/128/22
f 76/129/22 37/130/23 77/131/23
f 38/134/24 77/133/23 37/132/23
f 77/133/23 38/134/24 78/135/24
f 38/138/24 79/137/25 78/136/24
f 79/137/25 38/138/24 39/139/25
f 39/142/25 80/141/26 79/140/25
f 80/141/26 39/142/25 40/143/26
f 40/146/26 81/145/27 80/144/26
f 81/145/27 40/146/26 41/147/27
f 41/150/27 82/149/28 81/148/27
f 82/149/28 41/150/27 42/151/28
f 42/154/28 83/153/29 82/152/28
f 83/153/29 42/154/28 43/155/29
f 43/158/29 10/157/30 83/156/29
f 10/157/30 43/158/29 9/159/30
f 7/112/31 84/115/32 6/113/31
f 84/115/32 7/112/31 31/114/32
f 31/116/32 85/119/33 84/117/32
f 85/119/33 31/116/32 30/118/33
f 30/120/33 86/160/34 85/121/33
f 86/160/34 30/120/33 29/161/34
f 29/124/34 87/162/35 86/125/34
f 87/162/35 29/124/34 28/163/35
f 28/166/35 88/165/36 87/164/35
f 88/165/36 28/166/35 27/167/36
f 27/170/36 89/169/37 88/168/36
f 89/169/37 27/170/36 26/171/37
f 25/174/38 89/173/37 26/172/37
f 89/173/37 25/174/38 90/175/38
f 24/178/39 90/177/38 25/176/38
f 90/177/38 24/178/39 91/179/39
f 23/182/40 91/181/39 24/180/39
f 91/181/39 23/182/40 92/183/40
f 22/186/41 92/185/40 23/184/40
f 92/185/40 22/186/41 93/187/41
f 21/190/42 93/189/41 22/188/41
f 93/189/41 21/190/42 94/191/42
f 20/194/43 94/193/42 21/192/42
f 94/193/42 20/194/43 19/195/43
f 16/198/45 49/197/44 95/196/44
f 49/197/44 16/198/45 17/199/45
f 95/202/44 51/201/46 96/200/46
f 51/201/46 95/202/44 49/203/44
f 96/206/46 53/205/47 97/204/47
f 53/205/47 96/206/46 51/207/46
f 97/210/47 55/209/48 98/208/48
f 55/209/48 97/210/47 53/211/47
f 98/214/48 57/213/49 99/212/49
f 57/213/49 98/214/48 55/215/48
f 99/218/49 59/217/50 100/216/50
f 59/217/50 99/218/49 57/219/49
f 59/222/50 64/221/7 100/220/50
f 64/221/7 59/222/50 61/223/7

usemtl asphalt

f 45/52/5 46/54/5 44/51/5
f 46/54/5 45/52/5 47/55/5
f 5/5/1 10/10/1 2/2/1
f 10/10/1 5/5/1 6/6/1
f 16/17/3 18/19/3 15/14/3
f 18/19/3 16/17/3 19/21/3
f 45/37/4 72/62/4 47/59/4
f 72/62/4 45/37/4 71/64/4
f 71/64/4 45/37/4 70/66/4
f 70/66/4 45/37/4 69/68/4
f 69/68/4 45/37/4 68/70/4
f 68/70/4 45/37/4 67/72/4
f 67/72/4 45/37/4 66/74/4
f 66/74/4 45/37/4 65/75/4
f 65/75/4 45/37/4 73/38/4
f 65/75/4 73/38/4 94/25/4
f 94/25/4 73/38/4 93/26/4
f 93/26/4 73/38/4 74/40/4
f 93/26/4 74/40/4 92/27/4
f 92/27/4 74/40/4 75/41/4
f 92/27/4 75/41/4 91/28/4
f 91/28/4 75/41/4 76/42/4
f 91/28/4 76/42/4 90/29/4
f 90/29/4 76/42/4 77/43/4
f 90/29/4 77/43/4 89/30/4
f 89/30/4 77/43/4 78/44/4
f 89/30/4 78/44/4 88/31/4
f 88/31/4 78/44/4 79/45/4
f 88/31/4 79/45/4 87/32/4
f 87/32/4 79/45/4 80/46/4
f 87/32/4 80/46/4 86/33/4
f 86/33/4 80/46/4 81/47/4
f 86/33/4 81/47/4 85/34/4
f 85/34/4 81/47/4 82/48/4
f 85/34/4 82/48/4 84/35/4
f 84/35/4 82/48/4 83/49/4
f 84/35/4 83/49/4 6/36/4
f 6/36/4 83/49/4 10/50/4
f 95/61/4 19/23/4 16/60/4
f 19/23/4 95/61/4 96/63/4
f 19/23/4 96/63/4 97/65/4
f 19/23/4 97/65/4 98/67/4
f 19/23/4 98/67/4 99/69/4
f 19/23/4 99/69/4 100/71/4
f 19/23/4 100/71/4 64/73/4
f 19/23/4 64/73/4 65/75/4
f 19/23/4 65/75/4 94/25/4

