# Created by Kenney (www.kenney.nl)

mtllib bannerGreen.mtl

g bannerGreen

v 0.375 0.9499999 0.12
v 0.375 1 0.12
v 0.375 0.9499999 0.2
v 0.375 1 0.2
v 0.375 0.9499999 -0.04
v 0.375 1 -0.04
v 0.375 0.9499999 0.04
v 0.375 1 0.04
v 0.425 1 0.12
v 0.425 1 0.2
v 0.425 1 -0.2
v 0.425 1 -0.12
v 0.375 1 -0.2
v 0.375 1 -0.12
v 0.375 0.9499999 -0.2
v 0.375 0.9499999 -0.12
v 0.425 1 -0.04
v 0.425 1 0.04
v 0.4 0.8903893 -0.12
v 0.4 0.2863111 -0.12
v 0.4 0.160649 -0.2
v 0.4 0.2540638 -2.165734E-15
v 0.4 0.34236 -2.165734E-15
v 0.4 0.160649 0.2
v 0.4 0.2863111 0.12
v 0.4 0.8903893 0.12
v 0.4 0.9499999 0.12
v 0.4 0.8903893 0.2
v 0.4 0.9499999 0.2
v 0.4 0.9499999 -0.12
v 0.4 0.9499999 -0.2
v 0.4 0.8903893 -0.2
v 0.3875 0.9625 -0.25
v 0.4125 0.9625 -0.25
v 0.3875 0.9875 -0.25
v 0.4125 0.9875 -0.25
v 0.425 0.9499999 -0.2
v 0.425 0.9499999 0.2
v 0.4125 0.9625 0.25
v 0.3875 0.9625 0.25
v 0.4125 0.9875 0.25
v 0.3875 0.9875 0.25
v 0.4 0.8903893 0.04
v 0.4 0.9499999 0.04
v 0.4 0.9499999 -0.04
v 0.4 0.8903893 -0.04

vn -1 0 0
vn -0.9936895 0 0.1121652
vn 0 1 0
vn 0 0.9936895 0.1121652
vn 0 0.9936895 -0.1121652
vn -0.9936895 0 -0.1121652
vn 1 0 0
vn 0 0 -1
vn 0.9936895 0 -0.1121652
vn 0.9936895 0 0.1121652
vn 0 -0.9936895 0.1121652
vn 0 -0.9936895 -0.1121652
vn 0 -0.9925076 0.1221832
vn 0 -0.9925076 -0.1221833
vn 0 -1 0
vn 0 0 1
vn -0.9701425 0 -0.2425357
vn 0.9701425 0 -0.2425356
vn 0 0.9701425 -0.2425356
vn 0 -0.9701425 -0.2425356
vn 0 -0.9701425 0.2425356
vn 0 0.9701425 0.2425357
vn -0.9701425 0 0.2425356
vn 0.9701425 0 0.2425356

vt 4.72441 37.40157
vt 4.72441 39.37008
vt 7.874016 37.40157
vt 7.874016 39.37008
vt -1.574803 37.40157
vt -1.574803 39.37008
vt 1.574803 37.40157
vt 1.574803 39.37008
vt -16.73228 4.724409
vt -16.73228 7.874015
vt -14.76378 4.724409
vt -14.76378 7.874015
vt -16.73228 -7.874016
vt -16.73228 -4.72441
vt -14.76378 -7.874016
vt -14.76378 -4.72441
vt -7.874016 39.37008
vt -4.72441 39.37008
vt -7.874016 37.40157
vt -4.72441 37.40157
vt -16.73228 -1.574804
vt -16.73228 1.574803
vt -14.76378 -1.574804
vt -14.76378 1.574803
vt -4.72441 35.0547
vt -4.72441 11.27209
vt -7.874016 6.324762
vt -8.327358E-14 10.00251
vt -8.327358E-14 13.47874
vt 7.874016 6.324762
vt 4.72441 11.27209
vt 4.72441 35.0547
vt 7.874016 35.0547
vt -7.874016 35.0547
vt -15.25591 37.8937
vt -16.24016 37.8937
vt -15.25591 38.87795
vt -16.24016 38.87795
vt 16.73228 7.874015
vt 16.73228 -7.874016
vt 15.74803 7.874015
vt 15.74803 -7.874016
vt 14.76378 7.874015
vt 14.76378 -7.874016
vt 14.76378 4.724409
vt 14.76378 1.574803
vt 14.76378 -1.574803
vt 14.76378 -4.72441
vt 16.24016 37.8937
vt 15.25591 37.8937
vt 16.24016 38.87795
vt 15.25591 38.87795
vt -13.24875 38.87795
vt -11.21966 39.37008
vt -13.24875 37.8937
vt -11.21966 37.40157
vt 5.60983 37.8937
vt 3.580743 37.40157
vt 5.60983 38.87795
vt 3.580743 39.37008
vt -16.73228 1.909729
vt -14.76378 1.909729
vt -16.24016 -0.1193586
vt -15.25591 -0.1193586
vt -16.73228 16.71013
vt -16.24016 18.73922
vt -15.74803 16.71013
vt -15.25591 18.73922
vt -14.76378 16.71013
vt 16.73228 16.71013
vt 15.74803 16.71013
vt 16.24016 18.73922
vt 15.25591 18.73922
vt 14.76378 16.71013
vt 16.73228 1.90973
vt 16.24016 -0.1193576
vt 14.76378 1.90973
vt 15.25591 -0.1193576
vt 11.21966 37.40157
vt 11.21966 39.37008
vt 13.24875 37.8937
vt 13.24875 38.87795
vt -3.580743 37.40157
vt -5.60983 37.8937
vt -3.580743 39.37008
vt -5.60983 38.87795
vt 1.574803 35.0547
vt -1.574803 35.0547

usemtl roof

f 3/3/2 2/2/1 1/1/1
f 2/2/1 3/3/2 4/4/2
f 7/7/1 6/6/1 5/5/1
f 6/6/1 7/7/1 8/8/1
f 2/11/3 10/10/4 9/9/3
f 10/10/4 2/11/3 4/12/4
f 13/15/5 12/14/3 11/13/5
f 12/14/3 13/15/5 14/16/3
f 15/19/6 14/18/1 13/17/6
f 14/18/1 15/19/6 16/20/1
f 6/23/3 18/22/3 17/21/3
f 18/22/3 6/23/3 8/24/3
f 21/27/1 20/26/1 19/25/1
f 20/26/1 21/27/1 22/28/1
f 20/26/1 22/28/1 23/29/1
f 23/29/1 22/28/1 24/30/1
f 23/29/1 24/30/1 25/31/1
f 25/31/1 24/30/1 26/32/1
f 26/32/1 24/30/1 27/1/1
f 27/1/1 24/30/1 28/33/1
f 27/1/1 28/33/1 29/3/1
f 30/20/1 21/27/1 19/25/1
f 31/19/1 21/27/1 30/20/1
f 21/27/1 31/19/1 32/34/1
f 19/25/7 20/26/7 21/27/7
f 22/28/7 21/27/7 20/26/7
f 23/29/7 22/28/7 20/26/7
f 24/30/7 22/28/7 23/29/7
f 25/31/7 24/30/7 23/29/7
f 26/32/7 24/30/7 25/31/7
f 27/1/7 24/30/7 26/32/7
f 28/33/7 24/30/7 27/1/7
f 29/3/7 28/33/7 27/1/7
f 19/25/7 21/27/7 30/20/7
f 30/20/7 21/27/7 31/19/7
f 32/34/7 31/19/7 21/27/7

usemtl wood

f 8/24/3 9/9/3 18/22/3
f 9/9/3 8/24/3 2/11/3
f 1/1/1 8/8/1 7/7/1
f 8/8/1 1/1/1 2/2/1
f 35/37/8 34/36/8 33/35/8
f 34/36/8 35/37/8 36/38/8
f 11/4/9 38/19/10 37/3/9
f 38/19/10 11/4/9 12/2/7
f 38/19/10 12/2/7 17/8/7
f 38/19/10 17/8/7 18/6/7
f 38/19/10 18/6/7 9/18/7
f 38/19/10 9/18/7 10/17/10
f 29/41/13 37/40/12 38/39/11
f 37/40/12 29/41/13 31/42/14
f 31/42/14 29/41/13 3/43/11
f 31/42/14 3/43/11 15/44/12
f 15/44/12 3/43/11 1/45/15
f 15/44/12 1/45/15 7/46/15
f 15/44/12 7/46/15 5/47/15
f 15/44/12 5/47/15 16/48/15
f 41/51/16 40/50/16 39/49/16
f 40/50/16 41/51/16 42/52/16
f 5/5/1 14/18/1 16/20/1
f 14/18/1 5/5/1 6/6/1
f 14/16/3 17/21/3 12/14/3
f 17/21/3 14/16/3 6/23/3
f 33/55/17 13/54/6 35/53/17
f 13/54/6 33/55/17 15/56/6
f 36/59/18 37/58/9 34/57/18
f 37/58/9 36/59/18 11/60/9
f 36/63/19 13/62/5 11/61/5
f 13/62/5 36/63/19 35/64/19
f 31/67/14 34/66/20 37/65/12
f 34/66/20 31/67/14 33/68/20
f 33/68/20 31/67/14 15/69/12
f 39/72/21 29/71/13 38/70/11
f 29/71/13 39/72/21 40/73/21
f 29/71/13 40/73/21 3/74/11
f 4/77/4 41/76/22 10/75/4
f 41/76/22 4/77/4 42/78/22
f 40/81/23 4/80/2 3/79/2
f 4/80/2 40/81/23 42/82/23
f 10/85/10 39/84/24 38/83/10
f 39/84/24 10/85/10 41/86/24

usemtl roofLight

f 25/31/1 43/87/1 23/29/1
f 43/87/1 25/31/1 26/32/1
f 44/7/1 23/29/1 43/87/1
f 45/5/1 23/29/1 44/7/1
f 46/88/1 23/29/1 45/5/1
f 46/88/1 20/26/1 23/29/1
f 20/26/1 46/88/1 19/25/1
f 23/29/7 43/87/7 25/31/7
f 26/32/7 25/31/7 43/87/7
f 43/87/7 23/29/7 44/7/7
f 44/7/7 23/29/7 45/5/7
f 45/5/7 23/29/7 46/88/7
f 23/29/7 20/26/7 46/88/7
f 19/25/7 46/88/7 20/26/7

