# Created by Kenney (www.kenney.nl)

mtllib fountainEdge.mtl

g fountainEdge

v -0.2 0.14 -0.5000001
v -0.2000001 0.14 0.5
v -0.2 0.28 -0.5000001
v -0.2000001 0.28 0.5
v -0.2000001 0 0.5
v -0.2 0 -0.5000001
v -0.4250001 0.28 0.5
v -0.425 0.28 -0.5000001
v -0.4700001 0.056 0.5
v -0.47 0.056 -0.5000001
v -0.4700001 0.112 0.5
v -0.47 0.112 -0.5000001
v -0.5000001 0.14 0.4999999
v -0.5 0.14 -0.5000001
v 0.5 0 0.5000001
v 0.5000001 0 -0.4999999
v -0.5000001 0.28 0.4999999
v -0.5 0.28 -0.5000001
v -0.5 0 -0.5000001
v -0.5 0.056 -0.5000001
v -0.5000001 0 0.4999999
v -0.5000001 0.056 0.4999999
v 0.5 0.14 0.5000001
v 0.5000001 0.14 -0.4999999

vn 1 0 1.192093E-07
vn 0 1 0
vn -1 0 -1.192093E-07
vn -0.6823183 -0.7310552 -5.960464E-08
vn 1.192093E-07 0 -1
vn -1.192093E-07 0 1
vn 0 -1 0

vt 19.68504 5.511811
vt -19.68504 5.511811
vt 19.68504 11.02362
vt -19.68504 11.02362
vt -19.68504 0
vt 19.68504 0
vt -19.68504 7.874016
vt -19.68504 16.73228
vt 19.68504 7.874016
vt 19.68504 16.73228
vt 19.68504 2.204724
vt -19.68504 2.204724
vt 19.68504 4.409449
vt -19.68504 4.409449
vt 19.68504 18.15166
vt 19.68504 16.53605
vt -19.68504 18.15166
vt -19.68504 16.53605
vt -19.68504 -19.68504
vt 19.68504 -19.68504
vt 7.874016 0
vt 7.874016 5.511811
vt 7.874016 11.02362
vt 18.50394 2.204724
vt 16.73228 11.02362
vt 18.50394 4.409449
vt -16.73228 11.02362
vt -18.50394 4.409449
vt -18.50394 2.204724
vt -7.874016 0
vt -7.874016 5.511811
vt -7.874016 11.02362
vt 19.68504 19.68504
vt -19.68504 19.68504
vt -19.68504 18.50394
vt 19.68504 18.50394

usemtl stone

f 3/3/1 2/2/1 1/1/1
f 2/2/1 3/3/1 4/4/1
f 5/5/1 1/1/1 2/2/1
f 1/1/1 5/5/1 6/6/1
f 3/9/2 7/8/2 4/7/2
f 7/8/2 3/9/2 8/10/2
f 11/13/3 10/12/3 9/11/3
f 10/12/3 11/13/3 12/14/3
f 14/17/4 11/16/4 13/15/4
f 11/16/4 14/17/4 12/18/4
f 16/20/2 5/7/2 15/19/2
f 5/7/2 16/20/2 6/9/2
f 17/3/3 14/2/3 13/1/3
f 14/2/3 17/3/3 18/4/3
f 19/6/5 1/22/5 6/21/5
f 1/22/5 19/6/5 3/23/5
f 3/23/5 19/6/5 10/24/5
f 3/23/5 10/24/5 8/25/5
f 10/24/5 19/6/5 20/11/5
f 12/26/5 8/25/5 10/24/5
f 8/25/5 12/26/5 18/3/5
f 18/3/5 12/26/5 14/1/5
f 17/4/6 11/28/6 7/27/6
f 11/28/6 17/4/6 13/2/6
f 9/29/6 7/27/6 11/28/6
f 5/30/6 7/27/6 9/29/6
f 2/31/6 7/27/6 5/30/6
f 7/27/6 2/31/6 4/32/6
f 5/30/6 9/29/6 21/5/6
f 21/5/6 9/29/6 22/12/6
f 21/33/7 6/7/7 5/9/7
f 6/7/7 21/33/7 19/34/7

usemtl stoneDark

f 10/36/2 22/34/2 9/35/2
f 22/34/2 10/36/2 20/33/2
f 8/10/2 17/34/2 7/8/2
f 17/34/2 8/10/2 18/33/2
f 22/11/3 19/5/3 21/6/3
f 19/5/3 22/11/3 20/12/3

usemtl water

f 24/20/2 2/7/2 23/19/2
f 2/7/2 24/20/2 1/9/2

