# Created by Kenney (www.kenney.nl)

mtllib fountainSquare.mtl

g fountainSquare

v 0.9625 0.14 -1
v 0.97 0.112 -0.97
v 1 0.14 -0.9625
v 0.9625 0.28 -1
v 1 0.28 -0.9625
v 0.925 0.28 0.925
v 0.7 0.28 -0.7
v 0.925 0.28 -0.925
v -0.925 0.28 -0.925
v -0.7 0.28 -0.7
v -0.7 0.28 0.7
v 0.7 0.28 0.7
v -0.925 0.28 0.925
v -0.97 0.112 -0.97
v -0.9625 0.14 -1
v -1 0.14 -0.9625
v -1 0.28 -0.9625
v -1 0.14 0.9625
v -1 0.28 0.9625
v -0.97 0.056 -0.97
v 0.97 0.056 -0.97
v 0.7 0 -0.7
v -0.7 0 -0.7
v 0.7 0.14 -0.7
v -0.7 0.14 -0.7
v -0.97 0.056 0.97
v -0.97 0.112 0.97
v -0.9625 0.28 -1
v -0.7 0.14 0.7
v -0.7 0 0.7
v -0.9625 0.14 1
v -0.9625 0.28 1
v 0.7 0 0.7
v 0.7 0.14 0.7
v 1 0.14 0.9625
v 0.97 0.112 0.97
v 0.9625 0.14 1
v 0.97 0.056 0.97
v 0.9625 0.28 1
v 1 0.28 0.9625
v 1 0 1
v -1 0 1
v -1 0 -1
v 1 0 -1
v -1 0.056 -1
v -1 0.056 1
v 1 0.056 -1
v 1 0.056 1

vn 0.614791 -0.4940285 -0.614791
vn 0.7071068 0 -0.7071068
vn 0 1 0
vn -0.614791 -0.4940285 -0.614791
vn -1 0 0
vn 0 0 -1
vn 0 0 1
vn -0.7071068 0 -0.7071068
vn 0 -0.7310552 -0.6823182
vn 1 0 0
vn -0.7071068 0 0.7071068
vn -0.614791 -0.4940285 0.614791
vn 0.6823182 -0.7310552 0
vn -0.6823182 -0.7310552 0
vn 0 -0.7310552 0.6823182
vn 0.7071068 0 0.7071068
vn 0 -1 0
vn 0.614791 -0.4940285 0.614791

vt 1.043957 31.78284
vt -3.513634E-12 30.51495
vt -1.043957 31.78284
vt 1.043957 5.511811
vt -1.043957 5.511811
vt 1.043957 11.02362
vt -1.043957 11.02362
vt -36.41732 36.41732
vt -27.55906 -27.55906
vt -36.41732 -36.41732
vt 36.41732 -36.41732
vt 27.55906 -27.55906
vt 27.55906 27.55906
vt -27.55906 27.55906
vt 36.41732 36.41732
vt -6.227907E-12 30.51495
vt -37.8937 5.511811
vt -37.8937 11.02362
vt 37.8937 5.511811
vt 37.8937 11.02362
vt 38.18898 2.204724
vt -38.18898 2.204724
vt 38.18898 4.409449
vt -38.18898 4.409449
vt 27.55906 -2.463215E-12
vt -27.55906 -2.463215E-12
vt 27.55906 5.511811
vt -27.55906 5.511811
vt 27.55906 11.02362
vt -27.55906 11.02362
vt -38.18898 30.9269
vt -37.8937 32.54251
vt 38.18898 30.9269
vt 37.8937 32.54251
vt 27.55906 2.842171E-12
vt -27.55906 2.842171E-12
vt -1.467271E-12 30.51495
vt -27.55906 -2.557954E-12
vt 27.55906 -2.557954E-12
vt 27.55906 -2.510584E-12
vt -27.55906 -2.510584E-12
vt 39.37008 39.37008
vt -39.37008 39.37008
vt -39.37008 -39.37008
vt 39.37008 -39.37008
vt 4.341416E-12 30.51495
vt -39.37008 0
vt -39.37008 2.204724
vt 39.37008 0
vt 39.37008 2.204724
vt 39.37008 1.635679E-27
vt -39.37008 1.635679E-27
vt -38.18898 -38.18898
vt 38.18898 -38.18898
vt 38.18898 38.18898
vt -38.18898 38.18898
vt -39.37008 -37.8937
vt -39.37008 37.8937
vt -37.8937 -39.37008
vt -37.8937 39.37008
vt 37.8937 -39.37008
vt 37.8937 39.37008
vt 39.37008 -37.8937
vt 39.37008 37.8937

usemtl stone

f 3/3/1 2/2/1 1/1/1
f 4/6/2 3/5/2 1/4/2
f 3/5/2 4/6/2 5/7/2
f 8/10/3 7/9/3 6/8/3
f 7/9/3 8/10/3 9/11/3
f 7/9/3 9/11/3 10/12/3
f 10/12/3 9/11/3 11/13/3
f 12/14/3 6/8/3 7/9/3
f 6/8/3 12/14/3 13/15/3
f 13/15/3 12/14/3 11/13/3
f 13/15/3 11/13/3 9/11/3
f 16/1/4 15/3/4 14/16/4
f 18/19/5 17/18/5 16/17/5
f 17/18/5 18/19/5 19/20/5
f 14/23/6 21/22/6 20/21/6
f 21/22/6 14/23/6 2/24/6
f 24/27/7 23/26/7 22/25/7
f 23/26/7 24/27/7 25/28/7
f 7/29/7 25/28/7 24/27/7
f 25/28/7 7/29/7 10/30/7
f 26/21/5 14/24/5 20/22/5
f 14/24/5 26/21/5 27/23/5
f 28/20/6 1/17/6 15/19/6
f 1/17/6 28/20/6 4/18/6
f 16/4/8 28/7/8 15/5/8
f 28/7/8 16/4/8 17/6/8
f 14/33/9 1/32/9 2/31/9
f 1/32/9 14/33/9 15/34/9
f 10/29/10 29/28/10 25/27/10
f 29/28/10 10/29/10 11/30/10
f 29/28/10 23/35/10 25/27/10
f 23/35/10 29/28/10 30/36/10
f 31/4/11 19/7/11 18/5/11
f 19/7/11 31/4/11 32/6/11
f 31/1/12 18/3/12 27/37/12
f 33/39/5 24/28/5 22/38/5
f 24/28/5 33/39/5 34/27/5
f 12/29/5 24/28/5 34/27/5
f 24/28/5 12/29/5 7/30/5
f 35/32/13 2/33/13 3/34/13
f 2/33/13 35/32/13 36/31/13
f 29/27/6 33/41/6 30/40/6
f 33/41/6 29/27/6 34/28/6
f 11/29/6 34/28/6 29/27/6
f 34/28/6 11/29/6 12/30/6
f 27/33/14 16/32/14 14/31/14
f 16/32/14 27/33/14 18/34/14
f 37/34/15 27/31/15 36/33/15
f 27/31/15 37/34/15 31/32/15
f 36/24/10 21/21/10 2/23/10
f 21/21/10 36/24/10 38/22/10
f 39/20/7 31/17/7 37/19/7
f 31/17/7 39/20/7 32/18/7
f 36/23/7 26/22/7 38/21/7
f 26/22/7 36/23/7 27/24/7
f 40/18/10 3/19/10 5/20/10
f 3/19/10 40/18/10 35/17/10
f 40/6/16 37/5/16 35/4/16
f 37/5/16 40/6/16 39/7/16
f 41/42/17 33/13/17 22/12/17
f 33/13/17 41/42/17 42/43/17
f 33/13/17 42/43/17 30/14/17
f 30/14/17 42/43/17 43/44/17
f 44/45/17 22/12/17 43/44/17
f 22/12/17 44/45/17 41/42/17
f 43/44/17 22/12/17 23/9/17
f 43/44/17 23/9/17 30/14/17
f 37/3/18 36/46/18 35/1/18
f 23/12/3 33/14/3 22/9/3
f 33/14/3 23/12/3 30/13/3

usemtl stoneDark

f 42/49/5 45/48/5 43/47/5
f 45/48/5 42/49/5 46/50/5
f 45/50/6 44/52/6 43/51/6
f 44/52/6 45/50/6 47/48/6
f 47/44/3 21/53/3 48/43/3
f 21/53/3 47/44/3 45/45/3
f 21/53/3 45/45/3 20/54/3
f 20/54/3 45/45/3 26/55/3
f 38/56/3 48/43/3 21/53/3
f 48/43/3 38/56/3 46/42/3
f 46/42/3 38/56/3 26/55/3
f 46/42/3 26/55/3 45/45/3
f 4/59/3 40/58/3 5/57/3
f 40/58/3 4/59/3 39/60/3
f 39/60/3 4/59/3 8/10/3
f 8/10/3 4/59/3 28/61/3
f 8/10/3 28/61/3 9/11/3
f 9/11/3 28/61/3 13/15/3
f 6/8/3 39/60/3 8/10/3
f 39/60/3 6/8/3 32/62/3
f 32/62/3 6/8/3 13/15/3
f 32/62/3 13/15/3 28/61/3
f 32/62/3 28/61/3 17/63/3
f 32/62/3 17/63/3 19/64/3
f 48/48/10 44/49/10 47/50/10
f 44/49/10 48/48/10 41/47/10
f 48/50/7 42/47/7 41/49/7
f 42/47/7 48/50/7 46/48/7

usemtl water

f 25/12/3 34/14/3 24/9/3
f 34/14/3 25/12/3 29/13/3
f 24/9/17 34/14/17 25/12/17
f 29/13/17 25/12/17 34/14/17

