# Created by Kenney (www.kenney.nl)

mtllib fountainCornerInner.mtl

g fountainCornerInner

v -0.4740192 0.056 -0.485
v -0.4740192 0.112 -0.485
v -0.4761994 0.056 -0.4817372
v -0.4761994 0.112 -0.4817372
v -0.4817372 0.056 -0.4761994
v -0.4787868 0.056 -0.4787868
v -0.4817372 0.112 -0.4761994
v -0.4787868 0.112 -0.4787868
v -0.4960842 0.056 -0.4702567
v -0.4922354 0.056 -0.4710222
v -0.4960842 0.112 -0.4702567
v -0.4922354 0.112 -0.4710222
v -0.4722836 0.056 -0.4885195
v -0.4722836 0.112 -0.4885195
v -0.485 0.056 -0.4740192
v -0.485 0.112 -0.4740192
v -0.5 0.056 -0.47
v -0.5 0.112 -0.47
v -0.4702567 0.056 -0.4960842
v -0.4702567 0.112 -0.4960842
v -0.4710222 0.056 -0.4922354
v -0.4710222 0.112 -0.4922354
v -0.47 0.056 -0.5
v -0.47 0.112 -0.5
v -0.4885195 0.056 -0.4722836
v -0.4885195 0.112 -0.4722836
v -0.2 0.28 -0.5
v -0.2025665 0.28 -0.4608421
v -0.425 0.28 -0.5
v -0.2102222 0.28 -0.4223543
v -0.2228361 0.28 -0.385195
v -0.2401924 0.28 -0.35
v -0.261994 0.28 -0.3173716
v -0.2878679 0.28 -0.287868
v -0.3173716 0.28 -0.261994
v -0.35 0.28 -0.2401924
v -0.385195 0.28 -0.2228361
v -0.4223543 0.28 -0.2102222
v -0.4256417 0.28 -0.4902105
v -0.4608421 0.28 -0.2025665
v -0.4275555 0.28 -0.4805886
v -0.430709 0.28 -0.4712988
v -0.4350481 0.28 -0.4625
v -0.4404985 0.28 -0.4543429
v -0.446967 0.28 -0.446967
v -0.4543429 0.28 -0.4404985
v -0.4625 0.28 -0.4350481
v -0.5 0.28 -0.2
v -0.4712988 0.28 -0.430709
v -0.4805886 0.28 -0.4275555
v -0.4902105 0.28 -0.4256417
v -0.5 0.28 -0.425
v -0.2 0 -0.5
v -0.5 0 -0.5
v -0.2025665 0 -0.4608421
v -0.2102222 0 -0.4223543
v -0.2228361 0 -0.385195
v -0.2401924 0 -0.35
v -0.261994 0 -0.3173716
v -0.2878679 0 -0.287868
v -0.3173716 0 -0.261994
v -0.35 0 -0.2401924
v -0.385195 0 -0.2228361
v -0.4223543 0 -0.2102222
v -0.4608421 0 -0.2025665
v -0.5 0 -0.2
v -0.2 0.14 -0.5
v -0.2025665 0.14 -0.4608421
v -0.4223543 0.14 -0.2102222
v -0.4608421 0.14 -0.2025665
v -0.385195 0.14 -0.2228361
v -0.2102222 0.14 -0.4223543
v -0.2228361 0.14 -0.385195
v -0.2401924 0.14 -0.35
v -0.261994 0.14 -0.3173716
v -0.2878679 0.14 -0.287868
v -0.3173716 0.14 -0.261994
v -0.5 0.14 -0.2
v -0.35 0.14 -0.2401924
v -0.5 0.056 -0.5
v -0.5 0.28 -0.5
v -0.5 0.14 -0.5
v 0.5 0 -0.5
v 0.5 0 0.5
v -0.5 0 0.5
v 0.5 0.14 -0.5
v 0.5 0.14 0.5
v -0.5 0.14 0.5

vn -0.8660253 0 -0.5000001
vn -0.7933532 0 -0.6087616
vn -0.6087613 0 -0.7933536
vn -0.7071066 0 -0.7071069
vn -0.1305257 0 -0.9914449
vn -0.2588187 0 -0.9659259
vn -0.9238795 0 -0.3826835
vn -0.4999998 0 -0.8660256
vn -0.06540267 0 -0.9978589
vn -0.9914449 0 -0.1305262
vn -0.9659258 0 -0.2588191
vn -0.9978589 0 -0.06540315
vn -0.3826831 0 -0.9238796
vn 0 1 0
vn 0 -1 0
vn 0.9978589 0 0.06540313
vn 0.9914449 0 0.1305262
vn 0.9914449 0 0.1305261
vn 0.9978589 0 0.06540294
vn 0.258819 0 0.9659258
vn 0.1305262 0 0.9914449
vn 0.3826834 0 0.9238795
vn 0.9659258 0 0.258819
vn 0.9238795 0 0.3826834
vn 0.8660254 0 0.5
vn 0.7933533 0 0.6087614
vn 0.7071068 0 0.7071068
vn 0.6087614 0 0.7933533
vn 0.0654031 0 0.9978589
vn 0.5 0 0.8660254
vn -1 0 0
vn 0 0 -1
vn -0.6590688 -0.7310552 -0.176597
vn -0.6764809 -0.7310552 -0.08906042
vn -0.4556606 -0.7646871 -0.455661
vn -0.1765967 -0.7310551 -0.659069
vn -0.2611117 -0.7310551 -0.63038
vn -0.341159 -0.7310551 -0.5909051
vn -0.4153689 -0.7310551 -0.5413196
vn -0.6303798 -0.7310552 -0.2611119
vn -0.5909049 -0.7310552 -0.3411592
vn -0.4824718 -0.7310551 -0.482472
vn -0.681637 -0.7303253 -0.04467686
vn -0.5413194 -0.7310552 -0.4153691
vn -0.04467654 -0.7303252 -0.6816372
vn -0.08906013 -0.7310551 -0.6764811

vt -5.508333 2.204724
vt -5.508333 4.409449
vt -5.353838 2.204724
vt -5.353838 4.409449
vt 1.898003 2.204724
vt 1.743507 2.204724
vt 1.898003 4.409449
vt 1.743507 4.409449
vt 15.54369 2.204724
vt 15.3892 2.204724
vt 15.54369 4.409449
vt 15.3892 4.409449
vt -1.89799 2.204724
vt -1.89799 4.409449
vt -1.743494 2.204724
vt -1.743494 4.409449
vt -9.025749 2.204724
vt -9.025749 4.409449
vt -8.871254 2.204724
vt -8.871254 4.409449
vt 5.508346 2.204724
vt 5.35385 2.204724
vt 5.508346 4.409449
vt 5.35385 4.409449
vt 18.43269 2.204724
vt 18.27819 2.204724
vt 18.43269 4.409449
vt 18.27819 4.409449
vt -15.54368 2.204724
vt -15.54368 4.409449
vt -15.38919 2.204724
vt -15.38919 4.409449
vt -18.43268 2.204724
vt -18.43268 4.409449
vt -18.27818 2.204724
vt -18.27818 4.409449
vt -12.39005 2.204724
vt -12.39005 4.409449
vt -12.23556 2.204724
vt -12.23556 4.409449
vt 9.025762 2.204724
vt 8.871265 2.204724
vt 9.025762 4.409449
vt 8.871265 4.409449
vt 12.39007 2.204724
vt 12.23557 2.204724
vt 12.39007 4.409449
vt 12.23557 4.409449
vt 7.874016 -19.68504
vt 7.97506 -18.14339
vt 16.73228 -19.68504
vt 8.276466 -16.62812
vt 8.773076 -15.16516
vt 9.456392 -13.77953
vt 10.31472 -12.49494
vt 11.33338 -11.33338
vt 12.49494 -10.31472
vt 13.77953 -9.456392
vt 15.16516 -8.773076
vt 16.62812 -8.276466
vt 16.75755 -19.29963
vt 18.14339 -7.97506
vt 16.8329 -18.92081
vt 16.95705 -18.55507
vt 17.12788 -18.20866
vt 17.34246 -17.88752
vt 17.59713 -17.59713
vt 17.88752 -17.34246
vt 18.20866 -17.12788
vt 19.68504 -7.874016
vt 18.55507 -16.95705
vt 18.92081 -16.8329
vt 19.29963 -16.75755
vt 19.68504 -16.73228
vt -7.874015 -19.68504
vt -19.68504 -19.68504
vt -7.97506 -18.14339
vt -8.276466 -16.62812
vt -8.773076 -15.16516
vt -9.456392 -13.77953
vt -10.31472 -12.49494
vt -11.33338 -11.33338
vt -12.49494 -10.31472
vt -13.77953 -9.456392
vt -15.16516 -8.773076
vt -16.62812 -8.276466
vt -18.14339 -7.97506
vt -19.68504 -7.874016
vt 19.12791 5.511811
vt 19.12791 -1.598029E-13
vt 17.58295 5.511811
vt 17.58295 -1.598029E-13
vt 17.58295 11.02362
vt 19.12791 11.02362
vt -14.69396 -5.157157E-14
vt -16.23891 -5.157157E-14
vt -14.69396 5.511811
vt -16.23891 5.511811
vt -14.69396 11.02362
vt -16.23891 11.02362
vt -11.54033 0
vt -13.08529 0
vt -11.54033 5.511811
vt -13.08529 5.511811
vt -11.54033 11.02362
vt -13.08529 11.02362
vt 16.23891 5.511811
vt 16.23891 -2.298345E-13
vt 14.69396 5.511811
vt 14.69396 -2.298345E-13
vt 14.69396 11.02362
vt 16.23891 11.02362
vt 13.08529 5.511811
vt 13.08529 -1.287311E-13
vt 11.54033 5.511811
vt 11.54033 -1.287311E-13
vt 11.54033 11.02362
vt 13.08529 11.02362
vt 6.203568 5.511811
vt 6.203568 -1.330657E-13
vt 4.658612 5.511811
vt 4.658612 -1.330657E-13
vt 4.658612 11.02362
vt 6.203568 11.02362
vt -1.04827 -1.087516E-13
vt -2.593226 -1.087516E-13
vt -1.04827 5.511811
vt -2.593226 5.511811
vt -1.04827 11.02362
vt -2.593226 11.02362
vt 2.593226 5.511811
vt 2.593226 0
vt 1.04827 5.511811
vt 1.04827 0
vt 1.04827 11.02362
vt 2.593226 11.02362
vt 9.720983 5.511811
vt 9.720983 -1.348631E-13
vt 8.176027 5.511811
vt 8.176027 -1.348631E-13
vt 8.176027 11.02362
vt 9.720983 11.02362
vt -17.58295 -5.042635E-14
vt -19.12791 -5.042635E-14
vt -17.58295 5.511811
vt -19.12791 5.511811
vt -17.58295 11.02362
vt -19.12791 11.02362
vt -4.658612 -1.222017E-13
vt -6.203568 -1.222017E-13
vt -4.658612 5.511811
vt -6.203568 5.511811
vt -4.658612 11.02362
vt -6.203568 11.02362
vt -8.176027 -3.372771E-14
vt -9.720983 -3.372771E-14
vt -8.176027 5.511811
vt -9.720983 5.511811
vt -8.176027 11.02362
vt -9.720983 11.02362
vt -19.68504 5.16016E-07
vt -19.68504 2.204725
vt -7.874016 5.16016E-07
vt -18.50394 2.204725
vt -18.50394 4.409449
vt -16.73228 11.02362
vt -7.874016 11.02362
vt -7.874016 5.511812
vt -19.68504 11.02362
vt -19.68504 5.511812
vt -19.68504 19.68504
vt 7.874015 -19.68504
vt 19.68504 19.68504
vt 19.68504 -1.49119E-12
vt 7.874015 -1.49119E-12
vt 19.68504 2.204724
vt 18.50394 2.204724
vt 7.874015 5.511811
vt 18.50394 4.409449
vt 19.68504 5.511811
vt 19.68504 11.02362
vt 7.874016 11.02362
vt 16.73228 11.02362
vt -15.38919 19.0563
vt -15.54368 19.0563
vt -15.46643 20.67007
vt 12.39007 20.38604
vt 12.23557 20.38604
vt 12.31282 21.9998
vt 9.025762 21.40378
vt 8.871265 21.40378
vt 8.948514 23.01754
vt 5.508346 22.0921
vt 5.35385 22.0921
vt 5.431098 23.70587
vt -12.23556 20.38604
vt -12.39005 20.38604
vt -12.31281 21.99981
vt -8.871254 21.40378
vt -9.025749 21.40378
vt -8.948502 23.01755
vt 1.898003 22.43923
vt 1.743507 22.43923
vt 1.820755 24.053
vt -18.27818 17.43732
vt -18.43268 17.43732
vt -18.35543 19.05108
vt -5.353838 22.0921
vt -5.508333 22.0921
vt -5.431085 23.70587
vt 18.43269 17.43731
vt 18.27819 17.43731
vt 18.35544 19.05107
vt 15.54369 19.0563
vt 15.3892 19.0563
vt 15.46645 20.67006
vt -1.743494 22.43924
vt -1.89799 22.43924
vt -1.820742 24.053
vt 18.50394 -19.68504
vt 18.51404 -19.53087
vt 19.68504 -19.68504
vt 18.54418 -19.37935
vt 18.59384 -19.23305
vt 18.66217 -19.09449
vt 18.74801 -18.96603
vt 18.84987 -18.84987
vt 18.96603 -18.74801
vt 19.09449 -18.66217
vt 19.23305 -18.59384
vt 19.37935 -18.54418
vt 19.53087 -18.51404
vt 19.68504 -18.50394

usemtl stone

f 3/3/2 2/2/1 1/1/1
f 2/2/1 3/3/2 4/4/2
f 7/7/3 6/6/4 5/5/3
f 6/6/4 7/7/3 8/8/4
f 11/11/5 10/10/6 9/9/5
f 10/10/6 11/11/5 12/12/6
f 6/15/4 4/14/2 3/13/2
f 4/14/2 6/15/4 8/16/4
f 1/19/1 14/18/7 13/17/7
f 14/18/7 1/19/1 2/20/1
f 16/23/8 5/22/3 15/21/8
f 5/22/3 16/23/8 7/24/3
f 18/27/9 9/26/5 17/25/9
f 9/26/5 18/27/9 11/28/5
f 21/31/11 20/30/10 19/29/10
f 20/30/10 21/31/11 22/32/11
f 19/35/10 24/34/12 23/33/12
f 24/34/12 19/35/10 20/36/10
f 13/39/7 22/38/11 21/37/11
f 22/38/11 13/39/7 14/40/7
f 26/43/13 15/42/8 25/41/13
f 15/42/8 26/43/13 16/44/8
f 12/47/6 25/46/13 10/45/6
f 25/46/13 12/47/6 26/48/13
f 29/51/14 28/50/14 27/49/14
f 28/50/14 29/51/14 30/52/14
f 30/52/14 29/51/14 31/53/14
f 31/53/14 29/51/14 32/54/14
f 32/54/14 29/51/14 33/55/14
f 33/55/14 29/51/14 34/56/14
f 34/56/14 29/51/14 35/57/14
f 35/57/14 29/51/14 36/58/14
f 36/58/14 29/51/14 37/59/14
f 37/59/14 29/51/14 38/60/14
f 38/60/14 29/51/14 39/61/14
f 38/60/14 39/61/14 40/62/14
f 40/62/14 39/61/14 41/63/14
f 40/62/14 41/63/14 42/64/14
f 40/62/14 42/64/14 43/65/14
f 40/62/14 43/65/14 44/66/14
f 40/62/14 44/66/14 45/67/14
f 40/62/14 45/67/14 46/68/14
f 40/62/14 46/68/14 47/69/14
f 40/62/14 47/69/14 48/70/14
f 48/70/14 47/69/14 49/71/14
f 48/70/14 49/71/14 50/72/14
f 48/70/14 50/72/14 51/73/14
f 48/70/14 51/73/14 52/74/14
f 55/77/15 54/76/15 53/75/15
f 54/76/15 55/77/15 56/78/15
f 54/76/15 56/78/15 57/79/15
f 54/76/15 57/79/15 58/80/15
f 54/76/15 58/80/15 59/81/15
f 54/76/15 59/81/15 60/82/15
f 54/76/15 60/82/15 61/83/15
f 54/76/15 61/83/15 62/84/15
f 54/76/15 62/84/15 63/85/15
f 54/76/15 63/85/15 64/86/15
f 54/76/15 64/86/15 65/87/15
f 54/76/15 65/87/15 66/88/15
f 68/91/17 53/90/16 67/89/16
f 53/90/16 68/91/17 55/92/17
f 67/89/16 28/93/18 68/91/17
f 28/93/18 67/89/16 27/94/19
f 69/97/20 65/96/21 64/95/20
f 65/96/21 69/97/20 70/98/21
f 38/99/20 70/98/21 69/97/20
f 70/98/21 38/99/20 40/100/21
f 71/103/22 64/102/20 63/101/22
f 64/102/20 71/103/22 69/104/20
f 37/105/22 69/104/20 71/103/22
f 69/104/20 37/105/22 38/106/20
f 72/109/23 55/108/17 68/107/17
f 55/108/17 72/109/23 56/110/23
f 68/107/17 30/111/23 72/109/23
f 30/111/23 68/107/17 28/112/18
f 73/115/24 56/114/23 72/113/23
f 56/114/23 73/115/24 57/116/24
f 72/113/23 31/117/24 73/115/24
f 31/117/24 72/113/23 30/118/23
f 75/121/26 58/120/25 74/119/25
f 58/120/25 75/121/26 59/122/26
f 74/119/25 33/123/26 75/121/26
f 33/123/26 74/119/25 32/124/25
f 76/127/27 61/126/28 60/125/27
f 61/126/28 76/127/27 77/128/28
f 34/129/27 77/128/28 76/127/27
f 77/128/28 34/129/27 35/130/28
f 76/133/27 59/132/26 75/131/26
f 59/132/26 76/133/27 60/134/27
f 75/131/26 34/135/27 76/133/27
f 34/135/27 75/131/26 33/136/26
f 74/139/25 57/138/24 73/137/24
f 57/138/24 74/139/25 58/140/25
f 73/137/24 32/141/25 74/139/25
f 32/141/25 73/137/24 31/142/24
f 70/145/21 66/144/29 65/143/21
f 66/144/29 70/145/21 78/146/29
f 40/147/21 78/146/29 70/145/21
f 78/146/29 40/147/21 48/148/29
f 77/151/28 62/150/30 61/149/28
f 62/150/30 77/151/28 79/152/30
f 35/153/28 79/152/30 77/151/28
f 79/152/30 35/153/28 36/154/30
f 79/157/30 63/156/22 62/155/30
f 63/156/22 79/157/30 71/158/22
f 36/159/30 71/158/22 79/157/30
f 71/158/22 36/159/30 37/160/22
f 66/163/31 80/162/31 54/161/31
f 80/162/31 66/163/31 17/164/31
f 17/164/31 66/163/31 18/165/31
f 18/165/31 66/163/31 52/166/31
f 52/166/31 66/163/31 48/167/31
f 48/167/31 66/163/31 78/168/31
f 81/169/31 18/165/31 52/166/31
f 18/165/31 81/169/31 82/170/31
f 53/172/14 84/171/14 83/76/14
f 84/171/14 53/172/14 55/50/14
f 84/171/14 55/50/14 56/52/14
f 84/171/14 56/52/14 85/173/14
f 85/173/14 56/52/14 57/53/14
f 85/173/14 57/53/14 58/54/14
f 85/173/14 58/54/14 59/55/14
f 85/173/14 59/55/14 60/56/14
f 85/173/14 60/56/14 61/57/14
f 85/173/14 61/57/14 62/58/14
f 85/173/14 62/58/14 63/59/14
f 85/173/14 63/59/14 64/60/14
f 85/173/14 64/60/14 65/62/14
f 85/173/14 65/62/14 66/70/14
f 80/176/32 53/175/32 54/174/32
f 53/175/32 80/176/32 23/177/32
f 53/175/32 23/177/32 67/178/32
f 67/178/32 23/177/32 24/179/32
f 67/178/32 24/179/32 82/180/32
f 67/178/32 82/180/32 81/181/32
f 67/178/32 81/181/32 27/182/32
f 27/182/32 81/181/32 29/183/32
f 82/186/35 20/185/34 22/184/33
f 82/189/35 26/188/37 12/187/36
f 82/192/35 16/191/38 26/190/37
f 82/195/35 7/194/39 16/193/38
f 82/198/35 22/197/33 14/196/40
f 82/201/35 14/200/40 2/199/41
f 82/204/35 8/203/42 7/202/39
f 82/207/35 24/206/43 20/205/34
f 82/210/35 2/209/41 4/208/44
f 82/213/35 11/212/46 18/211/45
f 82/216/35 12/215/36 11/214/46
f 82/219/35 4/218/44 8/217/42

usemtl stoneDark

f 80/222/14 19/221/14 23/220/14
f 19/221/14 80/222/14 21/223/14
f 21/223/14 80/222/14 13/224/14
f 13/224/14 80/222/14 1/225/14
f 1/225/14 80/222/14 3/226/14
f 3/226/14 80/222/14 6/227/14
f 6/227/14 80/222/14 5/228/14
f 5/228/14 80/222/14 15/229/14
f 15/229/14 80/222/14 25/230/14
f 25/230/14 80/222/14 10/231/14
f 10/231/14 80/222/14 9/232/14
f 9/232/14 80/222/14 17/233/14
f 81/222/14 39/61/14 29/51/14
f 39/61/14 81/222/14 41/63/14
f 41/63/14 81/222/14 42/64/14
f 42/64/14 81/222/14 43/65/14
f 43/65/14 81/222/14 44/66/14
f 44/66/14 81/222/14 45/67/14
f 45/67/14 81/222/14 46/68/14
f 46/68/14 81/222/14 47/69/14
f 47/69/14 81/222/14 49/71/14
f 49/71/14 81/222/14 50/72/14
f 50/72/14 81/222/14 51/73/14
f 51/73/14 81/222/14 52/74/14

usemtl water

f 67/172/14 87/171/14 86/76/14
f 87/171/14 67/172/14 68/50/14
f 87/171/14 68/50/14 72/52/14
f 87/171/14 72/52/14 88/173/14
f 88/173/14 72/52/14 73/53/14
f 88/173/14 73/53/14 74/54/14
f 88/173/14 74/54/14 75/55/14
f 88/173/14 75/55/14 76/56/14
f 88/173/14 76/56/14 77/57/14
f 88/173/14 77/57/14 79/58/14
f 88/173/14 79/58/14 71/59/14
f 88/173/14 71/59/14 69/60/14
f 88/173/14 69/60/14 70/62/14
f 88/173/14 70/62/14 78/70/14

