# Created by Kenney (www.kenney.nl)

mtllib fountainCornerInnerSquare.mtl

g fountainCornerInnerSquare

v -0.5 5.203873E-18 -0.5
v -0.5 0.056 -0.5
v -0.5 5.203873E-18 -0.2
v -0.5 0.056 -0.47
v -0.5 0.112 -0.47
v -0.5 0.28 -0.425
v -0.5 0.28 -0.2
v -0.5 0.14 -0.2
v -0.5 0.14 -0.5
v -0.5 0.28 -0.5
v -0.2 5.203873E-18 -0.2
v -0.2 0.14 -0.2
v -0.2 0.28 -0.2
v -0.47 0.112 -0.47
v -0.2 0.14 -0.5
v -0.2 5.203873E-18 -0.5
v -0.2 0.28 -0.5
v -0.47 0.056 -0.5
v -0.47 0.112 -0.5
v -0.425 0.28 -0.5
v -0.47 0.056 -0.47
v -0.425 0.28 -0.425
v 0.5 5.203873E-18 -0.5
v 0.5 5.203873E-18 0.5
v -0.5 5.203873E-18 0.5
v 0.5 0.14 -0.5
v 0.5 0.14 0.5
v -0.5 0.14 0.5

vn -1 0 0
vn 0 0 1
vn 0 -0.7310552 -0.6823182
vn 1 0 0
vn 0 0 -1
vn 0 1 0
vn -0.6823182 -0.7310552 0
vn 0 -1 0

vt -19.68504 1.562725E-12
vt -19.68504 2.204724
vt -7.874016 1.562725E-12
vt -18.50394 2.204724
vt -18.50394 4.409449
vt -16.73228 11.02362
vt -7.874016 11.02362
vt -7.874016 5.511811
vt -19.68504 5.511811
vt -19.68504 11.02362
vt -7.874015 2.048769E-16
vt -19.68504 2.048769E-16
vt -7.874015 5.511811
vt -7.874015 11.02362
vt 18.50394 16.53605
vt 19.68504 18.15166
vt 19.68504 16.53605
vt 19.68504 5.511811
vt 19.68504 2.048769E-16
vt 7.874016 5.511811
vt 7.874016 2.048769E-16
vt 7.874016 11.02362
vt 19.68504 11.02362
vt 7.874015 -1.476681E-12
vt 7.874015 5.511811
vt 18.50394 2.204724
vt 18.50394 4.409449
vt 7.874015 11.02362
vt 16.73228 11.02362
vt 19.68504 2.204724
vt 19.68504 -1.476681E-12
vt 19.68504 4.409449
vt 7.874015 -19.68504
vt 7.874015 -7.874016
vt 16.73228 -19.68504
vt 16.73228 -16.73228
vt 19.68504 -7.874016
vt 19.68504 -16.73228
vt -19.68504 4.409449
vt -19.68504 -19.68504
vt -19.68504 19.68504
vt 19.68504 19.68504
vt -18.50394 16.53605
vt -19.68504 16.53605
vt -19.68504 18.15166
vt -7.874015 -7.874016
vt -7.874015 -19.68504
vt -19.68504 -7.874016
vt 18.50394 -19.68504
vt 18.50394 -18.50394
vt 19.68504 -19.68504
vt 19.68504 -18.50394

usemtl stone

f 3/3/1 2/2/1 1/1/1
f 2/2/1 3/3/1 4/4/1
f 4/4/1 3/3/1 5/5/1
f 5/5/1 3/3/1 6/6/1
f 6/6/1 3/3/1 7/7/1
f 7/7/1 3/3/1 8/8/1
f 6/6/1 9/9/1 5/5/1
f 9/9/1 6/6/1 10/10/1
f 12/13/2 3/12/2 11/11/2
f 3/12/2 12/13/2 8/9/2
f 13/14/2 8/9/2 12/13/2
f 8/9/2 13/14/2 7/10/2
f 5/17/3 9/16/3 14/15/3
f 12/20/4 16/19/4 15/18/4
f 16/19/4 12/20/4 11/21/4
f 15/18/4 13/22/4 12/20/4
f 13/22/4 15/18/4 17/23/4
f 18/26/5 15/25/5 16/24/5
f 15/25/5 18/26/5 19/27/5
f 15/25/5 19/27/5 9/18/5
f 15/25/5 9/18/5 10/23/5
f 15/25/5 10/23/5 17/28/5
f 17/28/5 10/23/5 20/29/5
f 16/24/5 2/30/5 18/26/5
f 2/30/5 16/24/5 1/31/5
f 5/32/5 21/26/5 4/30/5
f 21/26/5 5/32/5 14/27/5
f 20/35/6 13/34/6 17/33/6
f 13/34/6 20/35/6 22/36/6
f 13/34/6 22/36/6 7/37/6
f 7/37/6 22/36/6 6/38/6
f 21/4/1 19/39/1 18/2/1
f 19/39/1 21/4/1 14/5/1
f 16/33/6 24/41/6 23/40/6
f 24/41/6 16/33/6 11/34/6
f 24/41/6 11/34/6 25/42/6
f 25/42/6 11/34/6 3/37/6
f 9/45/7 19/44/7 14/43/7
f 3/48/8 16/47/8 11/46/8
f 16/47/8 3/48/8 1/40/8

usemtl stoneDark

f 2/51/6 21/50/6 18/49/6
f 21/50/6 2/51/6 4/52/6
f 10/51/6 22/36/6 20/35/6
f 22/36/6 10/51/6 6/38/6

usemtl water

f 15/33/6 27/41/6 26/40/6
f 27/41/6 15/33/6 12/34/6
f 27/41/6 12/34/6 28/42/6
f 28/42/6 12/34/6 8/37/6
f 26/40/8 27/41/8 15/33/8
f 12/34/8 15/33/8 27/41/8
f 28/42/8 12/34/8 27/41/8
f 8/37/8 12/34/8 28/42/8

