# Created by Kenney (www.kenney.nl)

mtllib hedge.mtl

g hedge

v 0.25 0 -0.5
v 0.25 0.1 -0.5
v 0.25 0 0.5
v 0.25 0.1 0.5
v 0.5 0.1 -0.5
v 0.5 0 -0.5
v 0.5 0.1 0.5
v 0.5 0 0.5
v 0.4375 0.1 0.5
v 0.3125 0.1 0.5
v 0.3125 0.1 -0.5
v 0.4375 0.1 -0.5
v 0.4375 0.22 0.5
v 0.3125 0.22 0.5
v 0.4075 0.25 0.5
v 0.3425 0.25 0.5
v 0.3125 0.22 -0.5
v 0.4375 0.22 -0.5
v 0.3425 0.25 -0.5
v 0.4075 0.25 -0.5

vn -1 0 0
vn 1 0 0
vn 0 0 1
vn 0 0 -1
vn 0 1 0
vn 0 -1 0
vn -0.7071068 0.7071068 0
vn 0.7071068 0.7071068 0

vt -19.68504 0
vt -19.68504 3.937008
vt 19.68504 0
vt 19.68504 3.937008
vt 9.84252 0
vt 9.84252 3.937008
vt 17.22441 3.937008
vt 12.30315 3.937008
vt -9.84252 0
vt -9.84252 3.937008
vt -12.30315 3.937008
vt -17.22441 3.937008
vt -12.30315 -19.68504
vt -12.30315 19.68504
vt -9.84252 -19.68504
vt -9.84252 19.68504
vt -19.68504 -19.68504
vt -19.68504 19.68504
vt -17.22441 -19.68504
vt -17.22441 19.68504
vt 19.68504 19.68504
vt 19.68504 -19.68504
vt 9.84252 19.68504
vt 9.84252 -19.68504
vt 17.22441 8.661417
vt 12.30315 8.661417
vt 16.04331 9.84252
vt 13.48425 9.84252
vt -12.30315 8.661417
vt -17.22441 8.661417
vt -13.48425 9.84252
vt -16.04331 9.84252
vt -16.04331 -19.68504
vt -16.04331 19.68504
vt -13.48425 -19.68504
vt -13.48425 19.68504
vt 19.68504 8.661417
vt -19.68504 8.661417
vt -19.68504 14.82419
vt -19.68504 16.49452
vt 19.68504 14.82419
vt 19.68504 16.49452
vt 19.68504 -6.05495
vt -19.68504 -6.05495
vt 19.68504 -4.384619
vt -19.68504 -4.384619

usemtl stone

f 3/3/1 2/2/1 1/1/1
f 2/2/1 3/3/1 4/4/1
f 7/2/2 6/3/2 5/4/2
f 6/3/2 7/2/2 8/1/2
f 7/4/3 3/5/3 8/3/3
f 3/5/3 7/4/3 4/6/3
f 4/6/3 7/4/3 9/7/3
f 4/6/3 9/7/3 10/8/3
f 2/10/4 6/1/4 1/9/4
f 6/1/4 2/10/4 5/2/4
f 5/2/4 2/10/4 11/11/4
f 5/2/4 11/11/4 12/12/4
f 2/15/5 10/14/5 11/13/5
f 10/14/5 2/15/5 4/16/5
f 12/19/5 7/18/5 5/17/5
f 7/18/5 12/19/5 9/20/5
f 3/23/6 6/22/6 8/21/6
f 6/22/6 3/23/6 1/24/6

usemtl foliage

f 13/25/3 10/8/3 9/7/3
f 10/8/3 13/25/3 14/26/3
f 14/26/3 13/25/3 15/27/3
f 14/26/3 15/27/3 16/28/3
f 17/29/4 12/12/4 11/11/4
f 12/12/4 17/29/4 18/30/4
f 18/30/4 17/29/4 19/31/4
f 18/30/4 19/31/4 20/32/4
f 19/35/5 15/34/5 20/33/5
f 15/34/5 19/35/5 16/36/5
f 13/38/2 12/4/2 18/37/2
f 12/4/2 13/38/2 9/2/2
f 10/4/1 17/38/1 11/2/1
f 17/38/1 10/4/1 14/37/1
f 14/41/7 19/40/7 17/39/7
f 19/40/7 14/41/7 16/42/7
f 20/45/8 13/44/8 18/43/8
f 13/44/8 20/45/8 15/46/8

