# Created by Kenney (www.kenney.nl)

mtllib poles.mtl

g poles

v 0.4 0 0.4
v 0.4125 0 0.4
v 0.4 1 0.4
v 0.5 0 0.4
v 0.5 1 0.4
v 0.5 1 0.5
v 0.5 0 0.5
v 0.5 0 -0.4
v 0.4125 0 -0.4
v 0.5 1 -0.4
v 0.4 0 -0.4
v 0.4 1 -0.4
v 0.5 0 -0.5
v 0.4 0 -0.5
v 0.5 1 -0.5
v 0.4 1 -0.5
v 0.4 0 0.5
v 0.4 1 0.5

vn 0 0 -1
vn 1 0 0
vn 0 0 1
vn 0 -1 0
vn 0 1 0
vn -1 0 0

vt -15.74803 6.929483E-15
vt -16.24016 6.929483E-15
vt -15.74803 39.37008
vt -19.68504 6.929483E-15
vt -19.68504 39.37008
vt -15.74803 0
vt -19.68504 0
vt 19.68504 -6.929483E-15
vt 16.24016 -6.929483E-15
vt 19.68504 39.37008
vt 15.74803 -6.929483E-15
vt 15.74803 39.37008
vt 19.68504 -15.74803
vt 19.68504 -19.68504
vt 16.24016 -15.74803
vt 15.74803 -19.68504
vt 15.74803 -15.74803
vt -19.68504 -19.68504
vt -19.68504 -15.74803
vt -15.74803 -19.68504
vt -15.74803 -15.74803
vt 19.68504 19.68504
vt 19.68504 15.74803
vt 15.74803 19.68504
vt 16.24016 15.74803
vt 15.74803 15.74803
vt -19.68504 15.74803
vt -19.68504 19.68504
vt -15.74803 15.74803
vt -15.74803 19.68504
vt 15.74803 0
vt 19.68504 0

usemtl wood

f 3/3/1 2/2/1 1/1/1
f 2/2/1 3/3/1 4/4/1
f 4/4/1 3/3/1 5/5/1
f 6/5/2 4/6/2 5/3/2
f 4/6/2 6/5/2 7/7/2
f 10/10/3 9/9/3 8/8/3
f 9/9/3 10/10/3 11/11/3
f 11/11/3 10/10/3 12/12/3
f 9/15/4 13/14/4 8/13/4
f 13/14/4 9/15/4 14/16/4
f 14/16/4 9/15/4 11/17/4
f 16/20/5 10/19/5 15/18/5
f 10/19/5 16/20/5 12/21/5
f 17/24/4 4/23/4 7/22/4
f 4/23/4 17/24/4 2/25/4
f 2/25/4 17/24/4 1/26/4
f 3/29/5 6/28/5 5/27/5
f 6/28/5 3/29/5 18/30/5
f 17/32/6 3/12/6 1/31/6
f 3/12/6 17/32/6 18/10/6
f 11/6/6 16/5/6 14/7/6
f 16/5/6 11/6/6 12/3/6
f 16/3/1 13/7/1 14/6/1
f 13/7/1 16/3/1 15/5/1
f 10/12/2 13/32/2 15/10/2
f 13/32/2 10/12/2 8/31/2
f 6/10/3 17/31/3 7/32/3
f 17/31/3 6/10/3 18/12/3

