# Created by Kenney (www.kenney.nl)

mtllib polesHorizontal.mtl

g polesHorizontal

v 0.4325 0.425 -0.4
v 0.4325 0.575 -0.4
v 0.4325 0.425 0.4
v 0.4325 0.575 0.4
v 0.5 1 -0.5
v 0.5 1 -0.4
v 0.4 1 -0.5
v 0.4 1 -0.4
v 0.4675 0.15 -0.4
v 0.4675 0.15 0.4
v 0.4325 0.15 -0.4
v 0.4325 0.15 0.4
v 0.5 0 -0.5
v 0.5 0 -0.4
v 0.4675 0.575 -0.4
v 0.4675 0.575 0.4
v 0.5 1 0.4
v 0.5 1 0.5
v 0.4 1 0.4
v 0.4 1 0.5
v 0.4675 0.425 0.4
v 0.4675 0.425 -0.4
v 0.4 0 0.4
v 0.4325 0 0.4
v 0.5 0 0.4
v 0.4675 0 0.4
v 0.4675 0 -0.4
v 0.4 0 -0.4
v 0.4325 0 -0.4
v 0.5 0 0.5
v 0.4 0 -0.5
v 0.4 0 0.5

vn -1 0 0
vn 0 1 0
vn 1 0 0
vn 0 -1 0
vn 0 0 -1
vn 0 0 1

vt -15.74803 16.73228
vt -15.74803 22.63779
vt 15.74803 16.73228
vt 15.74803 22.63779
vt -19.68504 -19.68504
vt -19.68504 -15.74803
vt -15.74803 -19.68504
vt -15.74803 -15.74803
vt -18.40551 -15.74803
vt -18.40551 15.74803
vt -17.02756 -15.74803
vt -17.02756 15.74803
vt 19.68504 39.37008
vt 19.68504 0
vt 15.74803 39.37008
vt 15.74803 0
vt -19.68504 15.74803
vt -19.68504 19.68504
vt -15.74803 15.74803
vt -15.74803 19.68504
vt 18.40551 15.74803
vt 18.40551 -15.74803
vt 17.02756 15.74803
vt 17.02756 -15.74803
vt -15.74803 1.396695E-14
vt -17.02756 1.396695E-14
vt -15.74803 39.37008
vt -17.02756 5.905512
vt -17.02756 16.73228
vt -18.40551 5.905512
vt -17.02756 22.63779
vt -18.40551 22.63779
vt -18.40551 16.73228
vt -19.68504 39.37008
vt -19.68504 1.396695E-14
vt -18.40551 1.396695E-14
vt 19.68504 -1.396695E-14
vt 18.40551 -1.396695E-14
vt 18.40551 5.905512
vt 18.40551 16.73228
vt 17.02756 5.905512
vt 17.02756 16.73228
vt 18.40551 22.63779
vt 15.74803 -1.396695E-14
vt 17.02756 -1.396695E-14
vt 17.02756 22.63779
vt -15.74803 0
vt -19.68504 0
vt 15.74803 5.905512
vt -15.74803 5.905512
vt 19.68504 19.68504
vt 19.68504 15.74803
vt 15.74803 19.68504
vt 15.74803 15.74803
vt 15.74803 -19.68504
vt 19.68504 -19.68504
vt 19.68504 -15.74803
vt 15.74803 -15.74803

usemtl wood

f 3/3/1 2/2/1 1/1/1
f 2/2/1 3/3/1 4/4/1
f 7/7/2 6/6/2 5/5/2
f 6/6/2 7/7/2 8/8/2
f 11/11/2 10/10/2 9/9/2
f 10/10/2 11/11/2 12/12/2
f 6/15/3 13/14/3 5/13/3
f 13/14/3 6/15/3 14/16/3
f 2/11/2 16/10/2 15/9/2
f 16/10/2 2/11/2 4/12/2
f 19/19/2 18/18/2 17/17/2
f 18/18/2 19/19/2 20/20/2
f 3/23/4 22/22/4 21/21/4
f 22/22/4 3/23/4 1/24/4
f 19/27/5 24/26/5 23/25/5
f 24/26/5 19/27/5 12/28/5
f 12/28/5 19/27/5 3/29/5
f 12/28/5 3/29/5 10/30/5
f 3/29/5 19/27/5 4/31/5
f 4/31/5 19/27/5 16/32/5
f 21/33/5 10/30/5 3/29/5
f 17/34/5 10/30/5 21/33/5
f 17/34/5 21/33/5 16/32/5
f 17/34/5 16/32/5 19/27/5
f 25/35/5 10/30/5 17/34/5
f 10/30/5 25/35/5 26/36/5
f 6/13/6 27/38/6 14/37/6
f 27/38/6 6/13/6 9/39/6
f 9/39/6 6/13/6 22/40/6
f 9/39/6 22/40/6 11/41/6
f 11/41/6 22/40/6 1/42/6
f 22/40/6 6/13/6 15/43/6
f 8/15/6 11/41/6 1/42/6
f 8/15/6 15/43/6 6/13/6
f 28/44/6 11/41/6 8/15/6
f 11/41/6 28/44/6 29/45/6
f 8/15/6 1/42/6 2/46/6
f 8/15/6 2/46/6 15/43/6
f 18/34/3 25/47/3 17/27/3
f 25/47/3 18/34/3 30/48/3
f 7/27/5 13/48/5 31/47/5
f 13/48/5 7/27/5 5/34/5
f 18/13/6 32/16/6 30/14/6
f 32/16/6 18/13/6 20/15/6
f 32/14/1 19/15/1 23/16/1
f 19/15/1 32/14/1 20/13/1
f 10/50/3 27/16/3 9/49/3
f 27/16/3 10/50/3 26/47/3
f 28/47/1 7/34/1 31/48/1
f 7/34/1 28/47/1 8/27/1
f 32/53/4 25/52/4 30/51/4
f 25/52/4 32/53/4 26/21/4
f 26/21/4 32/53/4 24/23/4
f 26/21/4 24/23/4 27/22/4
f 24/23/4 32/53/4 23/54/4
f 29/24/4 27/22/4 24/23/4
f 31/55/4 27/22/4 29/24/4
f 13/56/4 27/22/4 31/55/4
f 27/22/4 13/56/4 14/57/4
f 31/55/4 29/24/4 28/58/4
f 16/2/3 22/3/3 15/4/3
f 22/3/3 16/2/3 21/1/3
f 24/16/1 11/50/1 29/47/1
f 11/50/1 24/16/1 12/49/1

