# Created by Kenney (www.kenney.nl)

mtllib roadBend.mtl

g roadBend

v -1.5 9.276206E-20 -1.5
v -1.5 0.05 -1.5
v -1.5 6.829876E-19 1.5
v -1.5 0.05 1.5
v 1.5 3.724923E-16 1.5
v 1.5 0.05 1.5
v 1.075556 0.05 -1.174313
v 1.004154 0.025 -1.119524
v 1.036676 0.05 -1.2325
v 0.9587341 0.025 -1.1875
v 1.005724 0.05 -1.295264
v 0.9225752 0.025 -1.260823
v 1.5 0.05 -0.965
v 1.5 0.025 -0.875
v 1.430169 0.05 -0.969577
v 1.418421 0.025 -0.880347
v 1.361532 0.05 -0.9832297
v 1.338238 0.025 -0.8962963
v 0.9832297 0.05 -1.361532
v 0.8962963 0.025 -1.338238
v 0.969577 0.05 -1.430169
v 0.880347 0.025 -1.418421
v 1.295264 0.05 -1.005724
v 1.260823 0.025 -0.9225752
v 1.174313 0.05 -1.075556
v 1.119524 0.025 -1.004154
v 1.121698 0.05 -1.121698
v 1.058058 0.025 -1.058058
v 1.2325 0.05 -1.036676
v 1.1875 0.025 -0.9587341
v 0.965 0.05 -1.5
v 0.875 0.025 -1.5
v 1.5 0.05 -1.5
v 1.5 0.025 -1.5
v 1.5 9.276206E-20 -1.5
v 1.5 7.828194E-17 -0.875
v 1.5 0.0125 -0.875
v 0.875 0.0125 -1.5
v 0.875 1.078628E-20 -1.5
v 1.5 0.025 0.875
v 1.5 0.0125 0.875
v 1.5 0.05 0.965
v 1.5 2.955469E-16 0.875
v -0.875 0 -1.5
v -0.875 0.0125 -1.5
v -0.875 0.025 -1.5
v -0.965 0.05 -1.5
v 1.418421 0.0125 -0.880347
v 1.338238 0.0125 -0.8962963
v 1.260823 0.0125 -0.9225752
v 1.1875 0.0125 -0.9587341
v 1.119524 0.0125 -1.004154
v 1.058058 0.0125 -1.058058
v 1.004154 0.0125 -1.119524
v 0.9587341 0.0125 -1.1875
v 0.9225752 0.0125 -1.260823
v 0.8962963 0.0125 -1.338238
v 0.880347 0.0125 -1.418421
v -0.8546816 0.025 -1.19
v -0.8546816 0.0125 -1.19
v -0.7940738 0.025 -0.8853047
v -0.7940738 0.0125 -0.8853047
v -0.6942139 0.025 -0.5911269
v -0.6942139 0.0125 -0.5911269
v -0.5568103 0.025 -0.3125
v -0.5568103 0.0125 -0.3125
v -0.3842142 0.025 -0.0541916
v -0.3842142 0.0125 -0.0541916
v -0.1793786 0.025 0.1793786
v -0.1793786 0.0125 0.1793786
v 0.0541916 0.0125 0.3842142
v 0.0541916 0.025 0.3842142
v 0.3125 0.0125 0.5568103
v 0.3125 0.025 0.5568103
v 0.5911269 0.0125 0.6942139
v 0.5911269 0.025 0.6942139
v 0.8853047 0.0125 0.7940738
v 0.8853047 0.025 0.7940738
v 1.19 0.0125 0.8546816
v 1.19 0.025 0.8546816
v -0.7773631 0.05 -0.5566853
v -0.8810071 0.05 -0.862011
v 0.5566853 0.05 0.7773631
v 0.2675 0.05 0.6347526
v -0.455616 0.05 0.0005969225
v -0.6347526 0.05 -0.2675
v -0.0005969225 0.05 0.455616
v -0.2430182 0.05 0.2430182
v -0.9439116 0.05 -1.178253
v 0.862011 0.05 0.8810071
v 1.178253 0.05 0.9439116
v 1.5 0.025 -0.785
v 1.5 0.0125 -0.785
v 1.5 0.025 0.785
v 1.5 0.0125 0.785
v -0.785 0.0125 -1.5
v 0.785 0.0125 -1.5
v -0.785 0.025 -1.5
v 0.785 0.025 -1.5
v 1.406674 0.025 -0.7911169
v 1.201748 0.025 0.7654515
v 1.314944 0.025 -0.8093631
v 1.226381 0.025 -0.8394261
v 1.1425 0.025 -0.8807918
v 0.9085985 0.025 0.7071405
v 1.064736 0.025 -0.9327524
v 0.9944186 0.025 -0.9944186
v 0.9327524 0.025 -1.064736
v 0.8807918 0.025 -1.1425
v 0.6255683 0.025 0.6110647
v 0.8394261 0.025 -1.226381
v 0.8093631 0.025 -1.314944
v 0.7911169 0.025 -1.406674
v 0.3575 0.025 0.478868
v 0.1089801 0.025 0.3128124
v -0.115739 0.025 0.115739
v -0.3128124 0.025 -0.1089801
v -0.478868 0.025 -0.3575
v -0.6110647 0.025 -0.6255683
v -0.7071405 0.025 -0.9085985
v -0.7654515 0.025 -1.201748
v 1.406674 0.0125 -0.7911169
v 1.314944 0.0125 -0.8093631
v 1.226381 0.0125 -0.8394261
v 1.1425 0.0125 -0.8807918
v 1.064736 0.0125 -0.9327524
v 0.9944186 0.0125 -0.9944186
v 0.9327524 0.0125 -1.064736
v 0.8807918 0.0125 -1.1425
v 0.8394261 0.0125 -1.226381
v 0.8093631 0.0125 -1.314944
v 0.7911169 0.0125 -1.406674
v 1.201748 0.0125 0.7654515
v 0.9085985 0.0125 0.7071405
v 0.6255683 0.0125 0.6110647
v 0.3575 0.0125 0.478868
v 0.1089801 0.0125 0.3128124
v -0.115739 0.0125 0.115739
v -0.3128124 0.0125 -0.1089801
v -0.478868 0.0125 -0.3575
v -0.6110647 0.0125 -0.6255683
v -0.7071405 0.0125 -0.9085985
v -0.7654515 0.0125 -1.201748

vn -1 0 0
vn 0 0 1
vn -0.1115263 0.9900699 0.0855771
vn -0.2123362 0.963518 0.1629313
vn -0.1217422 0.9900699 0.07028788
vn -0.2317864 0.963518 0.1338219
vn -0.1298751 0.9900699 0.05379601
vn -0.2472707 0.963518 0.1024229
vn -0.009213432 0.990028 0.1405698
vn -0.01753961 0.9633697 0.2676027
vn -0.01834882 0.9900699 0.1393731
vn -0.03493454 0.963518 0.2653541
vn -0.03638368 0.9900699 0.1357858
vn -0.06927133 0.963518 0.2585241
vn -0.1357858 0.9900699 0.03638368
vn -0.2585241 0.963518 0.06927133
vn -0.1393731 0.9900699 0.01834882
vn -0.2653541 0.963518 0.03493454
vn -0.05379601 0.9900699 0.1298751
vn -0.1024229 0.963518 0.2472707
vn -0.0855771 0.9900699 0.1115263
vn -0.1629313 0.963518 0.2123362
vn -0.09940208 0.9900699 0.09940208
vn -0.1892528 0.963518 0.1892528
vn -0.07028788 0.9900699 0.1217422
vn -0.1338219 0.963518 0.2317864
vn -0.1405698 0.990028 0.009213432
vn -0.2676027 0.9633697 0.01753961
vn 0 1 0
vn 1 0 0
vn 0 0 -1
vn -0.06540313 0 0.9978589
vn -0.1305262 0 0.9914449
vn -0.258819 0 0.9659258
vn -0.3826834 0 0.9238795
vn -0.5 0 0.8660254
vn -0.6087614 0 0.7933533
vn -0.7071068 0 0.7071068
vn -0.7933533 0 0.6087614
vn -0.8660254 0 0.5
vn -0.9238795 0 0.3826834
vn -0.9659258 0 0.258819
vn -0.9914449 0 0.1305262
vn -0.9978589 0 0.06540313
vn 0.9978589 0 -0.06540313
vn 0.9914449 0 -0.1305262
vn 0.9659258 0 -0.258819
vn 0.9238795 0 -0.3826834
vn 0.8660254 0 -0.5
vn 0.7933533 0 -0.6087614
vn 0.7071068 0 -0.7071068
vn 0.6087614 0 -0.7933533
vn 0.5 0 -0.8660254
vn 0.3826834 0 -0.9238795
vn 0.258819 0 -0.9659258
vn 0.1305262 0 -0.9914449
vn 0.06540313 0 -0.9978589
vn 0.2472707 0.963518 -0.1024229
vn 0.1196669 0.991576 -0.04956767
vn 0.2585241 0.963518 -0.06927133
vn 0.125113 0.991576 -0.03352393
vn 0.1024229 0.963518 -0.2472707
vn 0.04956767 0.991576 -0.1196669
vn 0.1338219 0.963518 -0.2317864
vn 0.06476327 0.991576 -0.1121733
vn 0.2123362 0.963518 -0.1629313
vn 0.1027603 0.991576 -0.07885076
vn 0.2317864 0.963518 -0.1338219
vn 0.1121733 0.991576 -0.06476327
vn 0.1629313 0.963518 -0.2123362
vn 0.07885076 0.991576 -0.1027603
vn 0.1892528 0.963518 -0.1892528
vn 0.09158909 0.991576 -0.09158909
vn 0.2653541 0.963518 -0.03493454
vn 0.1284184 0.991576 -0.01690661
vn 0.06927133 0.963518 -0.2585241
vn 0.03352393 0.991576 -0.125113
vn 0.2676027 0.9633697 -0.01753961
vn 0.1295219 0.9915403 -0.008489313
vn 0.03493454 0.963518 -0.2653541
vn 0.01690661 0.991576 -0.1284184
vn 0.008489313 0.9915403 -0.1295219
vn 0.01753961 0.9633697 -0.2676027
vn 0 -1 0

vt -59.05512 3.663193E-15
vt -59.05512 1.968504
vt 59.05512 3.68643E-15
vt 59.05512 1.968504
vt -59.05512 -3.64427E-15
vt 59.05512 1.099389E-14
vt -14.91568 59.19125
vt -14.68394 55.52109
vt -17.67086 59.19125
vt -17.9026 55.52109
vt -25.46793 56.46736
vt -25.23619 52.7972
vt -28.2231 56.46736
vt -28.45484 52.7972
vt 56.44387 40.77092
vt 56.67562 37.10075
vt 53.6887 40.77092
vt 53.45696 37.10075
vt 47.77689 47.17772
vt 48.00864 43.50755
vt 45.02172 47.17772
vt 44.78998 43.50755
vt -45.02172 47.17772
vt -44.78998 43.50755
vt -47.77689 47.17772
vt -48.00864 43.50755
vt 38.31601 52.43987
vt 38.54775 48.76971
vt 35.56084 52.43987
vt 35.3291 48.76971
vt 6.839829 60.56495
vt 7.071573 56.89479
vt 4.084658 60.56495
vt 3.852915 56.89479
vt -4.084658 60.56495
vt -3.852915 56.89479
vt -6.839829 60.56495
vt -7.071573 56.89479
vt 28.2231 56.46736
vt 28.45484 52.7972
vt 25.46793 56.46736
vt 25.23619 52.7972
vt -53.6887 40.77092
vt -53.45696 37.10075
vt -56.44387 40.77092
vt -56.67562 37.10075
vt 17.67086 59.19125
vt 17.9026 55.52109
vt 14.91568 59.19125
vt 14.68394 55.52109
vt -35.56084 52.43987
vt -35.3291 48.76971
vt -38.31601 52.43987
vt -38.54775 48.76971
vt -59.05512 -59.05512
vt -59.05512 -37.99213
vt -37.99213 -59.05512
vt -56.30585 -38.17232
vt -53.60361 -38.70983
vt -50.99466 -39.59545
vt -48.52362 -40.81403
vt -46.23278 -42.34472
vt -44.16133 -44.16133
vt -42.34472 -46.23278
vt -40.81403 -48.52362
vt -39.59545 -50.99466
vt -38.70983 -53.60361
vt -38.17232 -56.30585
vt 59.05512 0.984252
vt 37.99213 1.968504
vt 34.44882 0.984252
vt 59.05512 -9.549694E-11
vt 34.44882 -1.022873E-11
vt 34.44882 0.492126
vt -34.44882 0.984252
vt -59.05512 0.984252
vt -37.99213 1.968504
vt -34.44882 0.492126
vt -59.05512 1.432454E-10
vt -34.44882 1.261924E-10
vt -34.44882 -1.022018E-11
vt -59.05512 1.358769E-10
vt 34.44882 1.261924E-10
vt 59.05512 1.350479E-11
vt 56.67562 0.492126
vt 53.45696 0.492126
vt 56.67562 0.984252
vt 53.45696 0.984252
vt 48.00864 0.492126
vt 44.78998 0.492126
vt 48.00864 0.984252
vt 44.78998 0.984252
vt 38.54775 0.492126
vt 35.3291 0.492126
vt 38.54775 0.984252
vt 35.3291 0.984252
vt 28.45484 0.492126
vt 25.23619 0.492126
vt 28.45484 0.984252
vt 25.23619 0.984252
vt 17.9026 0.492126
vt 14.68394 0.492126
vt 17.9026 0.984252
vt 14.68394 0.984252
vt 7.071573 0.492126
vt 3.852915 0.492126
vt 7.071573 0.984252
vt 3.852915 0.984252
vt -7.071573 0.492126
vt -7.071573 0.984252
vt -3.852915 0.492126
vt -3.852915 0.984252
vt -17.9026 0.492126
vt -17.9026 0.984252
vt -14.68394 0.492126
vt -14.68394 0.984252
vt -28.45484 0.492126
vt -28.45484 0.984252
vt -25.23619 0.492126
vt -25.23619 0.984252
vt -38.54775 0.492126
vt -38.54775 0.984252
vt -35.3291 0.492126
vt -35.3291 0.984252
vt -48.00864 0.492126
vt -48.00864 0.984252
vt -44.78998 0.492126
vt -44.78998 0.984252
vt -56.67562 0.492126
vt -56.67562 0.984252
vt -53.45696 0.492126
vt -53.45696 0.984252
vt 61.18174 0.984252
vt 61.18174 0.492126
vt 48.95084 0.984252
vt 48.95084 0.492126
vt 52.51476 0.984252
vt 52.51476 0.492126
vt 40.28386 0.984252
vt 40.28386 0.492126
vt 43.05387 0.984252
vt 43.05387 0.492126
vt 30.82298 0.984252
vt 30.82298 0.492126
vt 32.96096 0.984252
vt 32.96096 0.492126
vt 20.73006 0.984252
vt 20.73006 0.492126
vt 22.40872 0.984252
vt 22.40872 0.492126
vt 10.17782 0.984252
vt 10.17782 0.492126
vt 11.57769 0.984252
vt 11.57769 0.492126
vt -0.6532064 0.984252
vt -0.6532064 0.492126
vt -11.57769 0.492126
vt -11.57769 0.984252
vt 0.6532064 0.492126
vt 0.6532064 0.984252
vt -22.40872 0.492126
vt -22.40872 0.984252
vt -10.17782 0.492126
vt -10.17782 0.984252
vt -32.96096 0.492126
vt -32.96096 0.984252
vt -20.73006 0.492126
vt -20.73006 0.984252
vt -43.05387 0.492126
vt -43.05387 0.984252
vt -30.82298 0.492126
vt -30.82298 0.984252
vt -52.51476 0.492126
vt -52.51476 0.984252
vt -40.28386 0.492126
vt -40.28386 0.984252
vt -61.18174 0.492126
vt -61.18174 0.984252
vt -48.95084 0.492126
vt -48.95084 0.984252
vt 30.82298 17.98998
vt 30.59123 21.66014
vt 43.05387 17.98998
vt 43.28562 21.66014
vt -32.96096 13.96249
vt -33.19271 17.63265
vt -20.73006 13.96249
vt -20.49832 17.63265
vt 10.17782 11.2386
vt 9.946077 14.90876
vt 22.40872 11.2386
vt 22.64046 14.90876
vt -11.57769 9.8649
vt -11.80944 13.53506
vt 0.6532064 9.8649
vt 0.8849498 13.53506
vt 20.73006 13.96249
vt 20.49832 17.63265
vt 32.96096 13.96249
vt 33.19271 17.63265
vt -0.6532064 9.8649
vt -0.8849498 13.53506
vt 11.57769 9.8649
vt 11.80944 13.53506
vt 40.28386 23.25214
vt 40.05212 26.9223
vt 52.51476 23.25214
vt 52.7465 26.9223
vt -43.05387 17.98998
vt -43.28562 21.66014
vt -30.82298 17.98998
vt -30.59123 21.66014
vt 48.95084 29.65894
vt 48.71909 33.3291
vt 61.18174 29.65894
vt 61.41348 33.3291
vt -52.51476 23.25214
vt -52.7465 26.9223
vt -40.28386 23.25214
vt -40.05212 26.9223
vt -61.41348 33.3291
vt -48.71909 33.3291
vt -61.18174 29.65894
vt -48.95084 29.65894
vt -59.05512 59.05512
vt 59.05512 59.05512
vt -59.05512 37.99213
vt -46.38791 37.16187
vt -33.93744 34.68532
vt -21.91675 30.60485
vt -10.5315 24.99026
vt 0.02350089 17.93764
vt 9.567646 9.567646
vt 17.93764 0.02350089
vt 24.99026 -10.5315
vt 30.60485 -21.91675
vt 34.68532 -33.93744
vt 37.16187 -46.38791
vt 37.99213 -59.05512
vt 59.05512 -59.05512
vt -22.40872 11.2386
vt -22.64046 14.90876
vt -10.17782 11.2386
vt -9.946077 14.90876
vt 30.90551 0.984252
vt 30.90551 0.492126
vt -30.90551 0.984252
vt -30.90551 0.492126
vt 59.05512 34.44882
vt 34.44882 -59.05512
vt -34.44882 -59.05512
vt 59.05512 -34.44882
vt -59.05512 -30.90551
vt -59.05512 30.90551
vt -55.38086 -31.14634
vt -47.3129 30.13589
vt -51.76946 -31.86469
vt -48.28273 -33.04827
vt -44.98032 -34.67685
vt -35.7716 27.84018
vt -41.91872 -36.72253
vt -39.15034 -39.15034
vt -36.72253 -41.91872
vt -34.67685 -44.98032
vt -24.62868 24.05767
vt -33.04827 -48.28273
vt -31.86469 -51.76946
vt -31.14634 -55.38086
vt -30.90551 -59.05512
vt 30.90551 -59.05512
vt -14.0748 18.85307
vt -4.290556 12.31545
vt 4.556653 4.556653
vt 12.31545 -4.290556
vt 18.85307 -14.0748
vt 24.05767 -24.62868
vt 27.84018 -35.7716
vt 30.13589 -47.3129
vt -59.05512 -34.44882
vt -55.84335 -34.65933
vt -52.68654 -35.28726
vt -49.63869 -36.32186
vt -46.75197 -37.74544
vt -44.07575 -39.53363
vt -41.65584 -41.65584
vt -39.53363 -44.07575
vt -37.74544 -46.75197
vt -36.32186 -49.63869
vt -35.28726 -52.68654
vt -34.65933 -55.84335
vt 56.90736 0.984252
vt 56.90736 0.492126
vt 53.22522 0.984252
vt 53.22522 0.492126
vt 48.24038 0.984252
vt 48.24038 0.492126
vt 44.55824 0.984252
vt 44.55824 0.492126
vt 38.7795 0.984252
vt 38.7795 0.492126
vt 35.09735 0.984252
vt 35.09735 0.492126
vt 28.68659 0.984252
vt 28.68659 0.492126
vt 25.00444 0.984252
vt 25.00444 0.492126
vt 18.13434 0.984252
vt 18.13434 0.492126
vt 14.4522 0.984252
vt 14.4522 0.492126
vt 7.303316 0.984252
vt 7.303316 0.492126
vt 3.621171 0.984252
vt 3.621171 0.492126
vt -7.303316 0.492126
vt -7.303316 0.984252
vt -3.621171 0.492126
vt -3.621171 0.984252
vt -18.13434 0.492126
vt -18.13434 0.984252
vt -14.4522 0.492126
vt -14.4522 0.984252
vt -28.68659 0.492126
vt -28.68659 0.984252
vt -25.00444 0.492126
vt -25.00444 0.984252
vt -38.7795 0.492126
vt -38.7795 0.984252
vt -35.09735 0.492126
vt -35.09735 0.984252
vt -48.24038 0.492126
vt -48.24038 0.984252
vt -44.55824 0.492126
vt -44.55824 0.984252
vt -56.90736 0.492126
vt -56.90736 0.984252
vt -53.22522 0.492126
vt -53.22522 0.984252
vt -59.05512 34.44882
vt -46.85041 33.64888
vt -34.85452 31.26275
vt -23.27271 27.33125
vt -12.30315 21.92167
vt -2.133528 15.12654
vt 7.06215 7.06215
vt 15.12654 -2.133528
vt 21.92167 -12.30315
vt 27.33125 -23.27271
vt 31.26275 -34.85452
vt 33.64888 -46.85041
vt 60.94999 0.492126
vt 49.18258 0.492126
vt 60.94999 0.984252
vt 49.18258 0.984252
vt 52.28302 0.492126
vt 40.5156 0.492126
vt 52.28302 0.984252
vt 40.5156 0.984252
vt 42.82213 0.492126
vt 31.05472 0.492126
vt 42.82213 0.984252
vt 31.05472 0.984252
vt 32.72922 0.492126
vt 20.96181 0.492126
vt 32.72922 0.984252
vt 20.96181 0.984252
vt 22.17698 0.492126
vt 10.40956 0.492126
vt 22.17698 0.984252
vt 10.40956 0.984252
vt 11.34595 0.492126
vt -0.4214631 0.492126
vt 11.34595 0.984252
vt -0.4214631 0.984252
vt -11.34595 0.492126
vt -11.34595 0.984252
vt 0.4214631 0.492126
vt 0.4214631 0.984252
vt -22.17698 0.492126
vt -22.17698 0.984252
vt -10.40956 0.492126
vt -10.40956 0.984252
vt -32.72922 0.492126
vt -32.72922 0.984252
vt -20.96181 0.492126
vt -20.96181 0.984252
vt -42.82213 0.492126
vt -42.82213 0.984252
vt -31.05472 0.492126
vt -31.05472 0.984252
vt -52.28302 0.492126
vt -52.28302 0.984252
vt -40.5156 0.492126
vt -40.5156 0.984252
vt -60.94999 0.492126
vt -60.94999 0.984252
vt -49.18258 0.492126
vt -49.18258 0.984252

usemtl stoneDark

f 3/3/1 2/2/1 1/1/1
f 2/2/1 3/3/1 4/4/1
f 5/6/2 4/2/2 3/5/2
f 4/2/2 5/6/2 6/4/2
f 9/9/5 8/8/4 7/7/3
f 8/8/4 9/9/5 10/10/6
f 11/13/7 10/12/6 9/11/5
f 10/12/6 11/13/7 12/14/8
f 15/17/11 14/16/10 13/15/9
f 14/16/10 15/17/11 16/18/12
f 17/21/13 16/20/12 15/19/11
f 16/20/12 17/21/13 18/22/14
f 21/25/17 20/24/16 19/23/15
f 20/24/16 21/25/17 22/26/18
f 23/29/19 18/28/14 17/27/13
f 18/28/14 23/29/19 24/30/20
f 27/33/23 26/32/22 25/31/21
f 26/32/22 27/33/23 28/34/24
f 7/37/3 28/36/24 27/35/23
f 28/36/24 7/37/3 8/38/4
f 29/41/25 24/40/20 23/39/19
f 24/40/20 29/41/25 30/42/26
f 31/45/27 22/44/18 21/43/17
f 22/44/18 31/45/27 32/46/28
f 25/49/21 30/48/26 29/47/25
f 30/48/26 25/49/21 26/50/22
f 19/53/15 12/52/8 11/51/7
f 12/52/8 19/53/15 20/54/16
f 31/57/27 13/56/9 33/55/29
f 13/56/9 31/57/27 15/58/11
f 15/58/11 31/57/27 17/59/13
f 17/59/13 31/57/27 23/60/19
f 23/60/19 31/57/27 29/61/25
f 29/61/25 31/57/27 25/62/21
f 25/62/21 31/57/27 27/63/23
f 27/63/23 31/57/27 7/64/3
f 7/64/3 31/57/27 9/65/5
f 9/65/5 31/57/27 11/66/7
f 11/66/7 31/57/27 19/67/15
f 19/67/15 31/57/27 21/68/17
f 13/70/30 34/69/30 33/4/30
f 34/69/30 13/70/30 14/71/30
f 14/71/30 35/72/30 34/69/30
f 35/72/30 14/71/30 36/73/30
f 36/73/30 14/71/30 37/74/30
f 31/77/31 34/76/31 32/75/31
f 34/76/31 31/77/31 33/2/31
f 34/76/31 38/78/31 32/75/31
f 35/79/31 38/78/31 34/76/31
f 38/78/31 35/79/31 39/80/31
f 42/77/30 41/78/30 40/75/30
f 41/78/30 42/77/30 43/81/30
f 43/81/30 42/77/30 5/82/30
f 5/82/30 42/77/30 6/2/30
f 1/84/31 45/74/31 44/83/31
f 45/74/31 1/84/31 2/4/31
f 45/74/31 2/4/31 46/71/31
f 46/71/31 2/4/31 47/70/31
f 14/87/32 48/86/33 37/85/32
f 48/86/33 14/87/32 16/88/33
f 16/91/33 49/90/34 48/89/33
f 49/90/34 16/91/33 18/92/34
f 18/95/34 50/94/35 49/93/34
f 50/94/35 18/95/34 24/96/35
f 24/99/35 51/98/36 50/97/35
f 51/98/36 24/99/35 30/100/36
f 30/103/36 52/102/37 51/101/36
f 52/102/37 30/103/36 26/104/37
f 26/107/37 53/106/38 52/105/37
f 53/106/38 26/107/37 28/108/38
f 53/111/38 8/110/39 54/109/39
f 8/110/39 53/111/38 28/112/38
f 54/115/39 10/114/40 55/113/40
f 10/114/40 54/115/39 8/116/39
f 55/119/40 12/118/41 56/117/41
f 12/118/41 55/119/40 10/120/40
f 56/123/41 20/122/42 57/121/42
f 20/122/42 56/123/41 12/124/41
f 57/127/42 22/126/43 58/125/43
f 22/126/43 57/127/42 20/128/42
f 58/131/43 32/130/44 38/129/44
f 32/130/44 58/131/43 22/132/43
f 59/135/46 45/134/45 46/133/45
f 45/134/45 59/135/46 60/136/46
f 61/139/47 60/138/46 59/137/46
f 60/138/46 61/139/47 62/140/47
f 63/143/48 62/142/47 61/141/47
f 62/142/47 63/143/48 64/144/48
f 65/147/49 64/146/48 63/145/48
f 64/146/48 65/147/49 66/148/49
f 67/151/50 66/150/49 65/149/49
f 66/150/49 67/151/50 68/152/50
f 69/155/51 68/154/50 67/153/50
f 68/154/50 69/155/51 70/156/51
f 70/159/51 72/158/52 71/157/52
f 72/158/52 70/159/51 69/160/51
f 71/163/52 74/162/53 73/161/53
f 74/162/53 71/163/52 72/164/52
f 73/167/53 76/166/54 75/165/54
f 76/166/54 73/167/53 74/168/53
f 75/171/54 78/170/55 77/169/55
f 78/170/55 75/171/54 76/172/54
f 77/175/55 80/174/56 79/173/56
f 80/174/56 77/175/55 78/176/55
f 79/179/56 40/178/57 41/177/57
f 40/178/57 79/179/56 80/180/56
f 61/183/60 81/182/59 63/181/58
f 81/182/59 61/183/60 82/184/61
f 74/187/64 83/186/63 76/185/62
f 83/186/63 74/187/64 84/188/65
f 65/191/68 85/190/67 67/189/66
f 85/190/67 65/191/68 86/192/69
f 69/195/72 87/194/71 72/193/70
f 87/194/71 69/195/72 88/196/73
f 63/199/58 86/198/69 65/197/68
f 86/198/69 63/199/58 81/200/59
f 67/203/66 88/202/73 69/201/72
f 88/202/73 67/203/66 85/204/67
f 59/207/74 82/206/61 61/205/60
f 82/206/61 59/207/74 89/208/75
f 76/211/62 90/210/77 78/209/76
f 90/210/77 76/211/62 83/212/63
f 46/215/78 89/214/75 59/213/74
f 89/214/75 46/215/78 47/216/79
f 78/219/76 91/218/81 80/217/80
f 91/218/81 78/219/76 90/220/77
f 40/223/83 91/222/81 42/221/82
f 91/222/81 40/223/83 80/224/80
f 42/227/82 4/226/29 6/225/29
f 4/226/29 42/227/82 91/228/81
f 4/226/29 91/228/81 90/229/77
f 4/226/29 90/229/77 83/230/63
f 4/226/29 83/230/63 84/231/65
f 4/226/29 84/231/65 87/232/71
f 4/226/29 87/232/71 88/233/73
f 4/226/29 88/233/73 85/234/67
f 4/226/29 85/234/67 86/235/69
f 4/226/29 86/235/69 81/236/59
f 4/226/29 81/236/59 82/237/61
f 4/226/29 82/237/61 89/238/75
f 4/226/29 89/238/75 47/239/79
f 4/226/29 47/239/79 2/240/29
f 72/243/70 84/242/65 74/241/64
f 84/242/65 72/243/70 87/244/71

usemtl stone

f 94/247/30 93/246/30 92/245/30
f 95/248/30 93/246/30 94/247/30
f 43/81/30 93/246/30 95/248/30
f 36/73/30 93/246/30 43/81/30
f 93/246/30 36/73/30 37/74/30
f 43/81/30 95/248/30 41/78/30
f 45/74/31 39/80/31 44/83/31
f 39/80/31 45/74/31 38/78/31
f 38/78/31 45/74/31 96/246/31
f 38/78/31 96/246/31 97/248/31
f 97/248/31 96/246/31 98/245/31
f 97/248/31 98/245/31 99/247/31
f 3/225/84 43/249/84 5/226/84
f 43/249/84 3/225/84 39/250/84
f 39/250/84 3/225/84 44/251/84
f 44/251/84 3/225/84 1/55/84
f 39/250/84 36/252/84 43/249/84
f 36/252/84 39/250/84 35/240/84
f 100/255/29 94/254/29 92/253/29
f 94/254/29 100/255/29 101/256/29
f 101/256/29 100/255/29 102/257/29
f 101/256/29 102/257/29 103/258/29
f 101/256/29 103/258/29 104/259/29
f 101/256/29 104/259/29 105/260/29
f 105/260/29 104/259/29 106/261/29
f 105/260/29 106/261/29 107/262/29
f 105/260/29 107/262/29 108/263/29
f 105/260/29 108/263/29 109/264/29
f 105/260/29 109/264/29 110/265/29
f 110/265/29 109/264/29 111/266/29
f 110/265/29 111/266/29 112/267/29
f 110/265/29 112/267/29 113/268/29
f 110/265/29 113/268/29 99/269/29
f 110/265/29 99/269/29 98/270/29
f 110/265/29 98/270/29 114/271/29
f 114/271/29 98/270/29 115/272/29
f 115/272/29 98/270/29 116/273/29
f 116/273/29 98/270/29 117/274/29
f 117/274/29 98/270/29 118/275/29
f 118/275/29 98/270/29 119/276/29
f 119/276/29 98/270/29 120/277/29
f 120/277/29 98/270/29 121/278/29
f 37/279/29 122/255/29 93/253/29
f 122/255/29 37/279/29 48/280/29
f 122/255/29 48/280/29 49/281/29
f 122/255/29 49/281/29 123/257/29
f 123/257/29 49/281/29 50/282/29
f 123/257/29 50/282/29 124/258/29
f 124/258/29 50/282/29 51/283/29
f 124/258/29 51/283/29 125/259/29
f 125/259/29 51/283/29 52/284/29
f 125/259/29 52/284/29 126/261/29
f 126/261/29 52/284/29 53/285/29
f 126/261/29 53/285/29 127/262/29
f 127/262/29 53/285/29 54/286/29
f 127/262/29 54/286/29 55/287/29
f 127/262/29 55/287/29 128/263/29
f 128/263/29 55/287/29 56/288/29
f 128/263/29 56/288/29 129/264/29
f 129/264/29 56/288/29 57/289/29
f 129/264/29 57/289/29 58/290/29
f 129/264/29 58/290/29 130/266/29
f 130/266/29 58/290/29 38/251/29
f 130/266/29 38/251/29 97/269/29
f 130/266/29 97/269/29 131/267/29
f 131/267/29 97/269/29 132/268/29
f 113/293/46 97/292/45 99/291/45
f 97/292/45 113/293/46 132/294/46
f 112/297/47 132/296/46 113/295/46
f 132/296/46 112/297/47 131/298/47
f 111/301/48 131/300/47 112/299/47
f 131/300/47 111/301/48 130/302/48
f 109/305/49 130/304/48 111/303/48
f 130/304/48 109/305/49 129/306/49
f 108/309/50 129/308/49 109/307/49
f 129/308/49 108/309/50 128/310/50
f 107/313/51 128/312/50 108/311/50
f 128/312/50 107/313/51 127/314/51
f 127/317/51 106/316/52 126/315/52
f 106/316/52 127/317/51 107/318/51
f 126/321/52 104/320/53 125/319/53
f 104/320/53 126/321/52 106/322/52
f 125/325/53 103/324/54 124/323/54
f 103/324/54 125/325/53 104/326/53
f 124/329/54 102/328/55 123/327/55
f 102/328/55 124/329/54 103/330/54
f 123/333/55 100/332/56 122/331/56
f 100/332/56 123/333/55 102/334/55
f 122/337/56 92/336/57 93/335/57
f 92/336/57 122/337/56 100/338/56
f 133/256/29 41/339/29 95/254/29
f 41/339/29 133/256/29 79/340/29
f 79/340/29 133/256/29 134/260/29
f 79/340/29 134/260/29 77/341/29
f 77/341/29 134/260/29 135/265/29
f 77/341/29 135/265/29 75/342/29
f 75/342/29 135/265/29 136/271/29
f 75/342/29 136/271/29 73/343/29
f 73/343/29 136/271/29 137/272/29
f 73/343/29 137/272/29 71/344/29
f 71/344/29 137/272/29 138/273/29
f 71/344/29 138/273/29 70/345/29
f 70/345/29 138/273/29 139/274/29
f 70/345/29 139/274/29 68/346/29
f 68/346/29 139/274/29 140/275/29
f 68/346/29 140/275/29 66/347/29
f 66/347/29 140/275/29 141/276/29
f 66/347/29 141/276/29 64/348/29
f 64/348/29 141/276/29 142/277/29
f 64/348/29 142/277/29 62/349/29
f 62/349/29 142/277/29 143/278/29
f 62/349/29 143/278/29 96/270/29
f 62/349/29 96/270/29 45/250/29
f 62/349/29 45/250/29 60/350/29
f 94/353/32 133/352/33 95/351/32
f 133/352/33 94/353/32 101/354/33
f 101/357/33 134/356/34 133/355/33
f 134/356/34 101/357/33 105/358/34
f 105/361/34 135/360/35 134/359/34
f 135/360/35 105/361/34 110/362/35
f 110/365/35 136/364/36 135/363/35
f 136/364/36 110/365/35 114/366/36
f 114/369/36 137/368/37 136/367/36
f 137/368/37 114/369/36 115/370/37
f 115/373/37 138/372/38 137/371/37
f 138/372/38 115/373/37 116/374/38
f 138/377/38 117/376/39 139/375/39
f 117/376/39 138/377/38 116/378/38
f 139/381/39 118/380/40 140/379/40
f 118/380/40 139/381/39 117/382/39
f 140/385/40 119/384/41 141/383/41
f 119/384/41 140/385/40 118/386/40
f 141/389/41 120/388/42 142/387/42
f 120/388/42 141/389/41 119/390/41
f 142/393/42 121/392/43 143/391/43
f 121/392/43 142/393/42 120/394/42
f 143/397/43 98/396/44 96/395/44
f 98/396/44 143/397/43 121/398/43

