# Created by Kenney (www.kenney.nl)

mtllib roofHigh.mtl

g roofHigh

v -0.4 0 0.5
v -0.4 0 0.475
v -0.5 0 0.5
v -0.4 0 -0.475
v -0.4 0 -0.5
v -0.5 0 -0.5
v 0.4 0 -0.475
v 0.4 0 0.475
v 0.4 0 -0.5
v 0.4 0 0.5
v 0.5 0 -0.5
v 0.5 0 0.5
v 0.5 1.140711 -0.5
v 0.5 1 -0.5
v 0.5 1.140711 0.5
v 0.5 1 0.5
v 0.4 0.9 0.475
v -0.4 0.1 0.475
v -0.4 0.1 -0.475
v 0.4 0.9 -0.475
v 0.4 0.9 -0.5
v -0.4 0.1 0.5
v 0.4 0.9 0.5
v -0.4 0.1 -0.5
v -0.5353553 -0.03535534 0.5
v -0.5353553 -0.03535534 -0.5
v -0.5707107 -3.609557E-16 0.5
v -0.5707107 -3.609557E-16 -0.5
v -0.4707107 0.1 -0.5
v 0.4 0.9707107 -0.5
v 0.4 1.040711 -0.5
v 0.4 1.040711 0.5
v 0.4 0.9707107 0.5
v -0.4707107 0.1 0.5

vn 0 -1 0
vn 1 0 0
vn 0 0 1
vn 0 0 -1
vn -1 0 0
vn -0.7071068 -0.7071068 0
vn 0.7071068 -0.7071068 0
vn -0.7071068 0.7071068 0

vt -15.74803 19.68504
vt -15.74803 18.70079
vt -19.68504 19.68504
vt -15.74803 -18.70079
vt -15.74803 -19.68504
vt -19.68504 -19.68504
vt 15.74803 -18.70079
vt 15.74803 18.70079
vt 15.74803 -19.68504
vt 15.74803 19.68504
vt 19.68504 -19.68504
vt 19.68504 19.68504
vt 19.68504 44.90987
vt 19.68504 39.37008
vt -19.68504 44.90987
vt 19.68504 1.019945E-13
vt -19.68504 1.019945E-13
vt -19.68504 39.37008
vt 15.74803 0
vt -15.74803 0
vt 15.74803 35.43307
vt -15.74803 3.937008
vt 15.74803 3.937008
vt -15.74803 35.43307
vt -19.68504 0
vt 19.68504 1.097019E-30
vt 15.74803 1.097019E-30
vt 18.70079 0
vt 18.70079 35.43307
vt 19.68504 0
vt 19.68504 35.43307
vt -18.70079 3.937008
vt -18.70079 0
vt -19.68504 3.937008
vt 19.68504 9.728794E-12
vt 19.68504 3.937008
vt 18.70079 3.937008
vt -19.68504 35.43307
vt -18.70079 35.43307
vt 19.68504 13.91943
vt -19.68504 13.91943
vt 19.68504 15.88793
vt -19.68504 15.88793
vt 19.68504 -13.91943
vt 19.68504 -15.88793
vt -19.68504 -13.91943
vt -19.68504 -15.88793
vt 21.07698 -1.391943
vt 22.46892 9.714583E-12
vt 18.53192 3.937008
vt -15.74803 38.21696
vt -15.74803 40.97286
vt -18.70079 36.19051
vt -18.70079 -8.351655
vt -19.68504 36.19051
vt -19.68504 -8.351655
vt 19.68504 36.19051
vt 19.68504 -8.351655
vt 18.70079 36.19051
vt 18.70079 -8.351655
vt -19.68504 40.10773
vt -19.68504 45.6755
vt 19.68504 40.10773
vt 19.68504 45.6755
vt -19.68504 38.21696
vt -19.68504 40.97286
vt 19.68504 38.21696
vt 19.68504 40.97286
vt -21.07698 -1.391943
vt -22.46892 1.277255E-13
vt -18.53192 3.937008
vt 15.74803 38.21696
vt 15.74803 40.97286
vt -19.68504 38.15901
vt 19.68504 38.15901
vt -19.68504 -10.32016
vt 19.68504 -10.32016

usemtl woodDark

f 3/3/1 2/2/1 1/1/1
f 2/2/1 3/3/1 4/4/1
f 4/4/1 3/3/1 5/5/1
f 5/5/1 3/3/1 6/6/1
f 7/7/1 2/2/1 4/4/1
f 2/2/1 7/7/1 8/8/1
f 9/9/1 8/8/1 7/7/1
f 9/9/1 10/10/1 8/8/1
f 11/11/1 10/10/1 9/9/1
f 10/10/1 11/11/1 12/12/1
f 15/15/2 14/14/2 13/13/2
f 14/14/2 15/15/2 11/16/2
f 11/16/2 15/15/2 12/17/2
f 12/17/2 15/15/2 16/18/2
f 17/21/3 2/20/3 8/19/3
f 2/20/3 17/21/3 18/22/3
f 19/23/4 7/20/4 4/19/4
f 7/20/4 19/23/4 20/24/4

usemtl wood

f 21/24/4 11/25/4 9/20/4
f 11/25/4 21/24/4 14/18/4
f 22/22/3 3/25/3 1/20/3
f 16/14/3 10/27/3 12/26/3
f 10/27/3 16/14/3 23/21/3
f 10/30/5 17/29/5 8/28/5
f 17/29/5 10/30/5 23/31/5
f 22/34/2 2/33/2 18/32/2
f 2/33/2 22/34/2 1/25/2
f 24/23/4 5/19/4 6/35/4
f 19/37/2 5/30/2 24/36/2
f 5/30/2 19/37/2 4/28/2
f 7/33/5 21/38/5 9/25/5
f 21/38/5 7/33/5 20/39/5

usemtl roofRed

f 27/42/6 26/41/6 25/40/6
f 26/41/6 27/42/6 28/43/6
f 3/46/7 26/45/7 6/44/7
f 26/45/7 3/46/7 25/47/7
f 28/49/4 6/35/4 26/48/4
f 6/35/4 28/49/4 29/50/4
f 6/35/4 29/50/4 24/23/4
f 24/23/4 29/50/4 30/51/4
f 24/23/4 30/51/4 21/24/4
f 21/24/4 30/51/4 14/18/4
f 14/18/4 30/51/4 31/52/4
f 14/18/4 31/52/4 13/15/4
f 23/55/7 18/54/7 17/53/7
f 18/54/7 23/55/7 22/56/7
f 20/59/7 24/58/7 21/57/7
f 24/58/7 20/59/7 19/60/7
f 32/63/8 13/62/8 31/61/8
f 13/62/8 32/63/8 15/64/8
f 33/67/5 31/66/5 30/65/5
f 31/66/5 33/67/5 32/68/5
f 3/25/3 27/70/3 25/69/3
f 27/70/3 3/25/3 34/71/3
f 34/71/3 3/25/3 22/22/3
f 34/71/3 22/22/3 33/72/3
f 33/72/3 22/22/3 23/21/3
f 33/72/3 23/21/3 16/14/3
f 33/72/3 16/14/3 32/73/3
f 32/73/3 16/14/3 15/13/3
f 29/76/8 33/75/8 30/74/8
f 33/75/8 29/76/8 34/77/8

usemtl roofRedLight

f 28/47/8 34/77/8 29/76/8
f 34/77/8 28/47/8 27/45/8

