# Created by Kenney (www.kenney.nl)

mtllib roofHighGable.mtl

g roofHighGable

v -0.5 -5.414336E-16 -0.4
v -0.5 -5.414336E-16 -0.5
v -0.5 0.2 -0.4
v -0.475 -5.414336E-16 -0.4
v -0.475 0.2 -0.4
v 0.5 0.2 0.4
v 0.5 -5.414336E-16 0.4
v 0.5 -5.414336E-16 0.5
v 0.475 -5.414336E-16 0.4
v 0.475 0.2 0.4
v 0.5 -5.414336E-16 -0.4
v 0.475 -5.414336E-16 -0.4
v 0.5 0.2 -0.4
v 0.475 0.2 -0.4
v -0.5 -5.414336E-16 0.4
v -0.475 -5.414336E-16 0.4
v -0.5 0.2 0.4
v -0.475 0.2 0.4
v 0.5 -5.414336E-16 -0.5
v -0.5 -5.414336E-16 0.5
v -0.55 -0.02236068 -0.567082
v -0.55 0.1194098 -0.4961968
v -0.55 -0.04472136 -0.5223607
v -0.55 1 0
v -0.55 1.111803 2.887646E-15
v -0.55 -0.04472136 0.5223607
v -0.55 0.1194098 0.4961968
v -0.55 -0.02236068 0.567082
v 0.55 -0.04472136 0.5223607
v -0.475 1 0
v 0.55 1 0
v 0.475 1 0
v 0.55 -0.04472136 -0.5223607
v 0.55 0.1194098 0.4961968
v 0.55 1.111803 2.887646E-15
v 0.55 -0.02236068 -0.567082
v 0.55 0.1194098 -0.4961968
v 0.55 -0.02236068 0.567082

vn -1 0 0
vn 0 0 1
vn 1 0 0
vn 0 0 -1
vn 0 -0.4472136 -0.8944272
vn 0 -0.4472136 0.8944272
vn 0 0.4472136 0.8944272
vn 0 -0.8944272 0.4472136
vn 0 -0.8944272 -0.4472136
vn 0 0.4472136 -0.8944272
vn 0 -1 0

vt -15.74803 -2.131628E-14
vt -19.68504 -2.131628E-14
vt -15.74803 7.874016
vt -18.70079 -2.131628E-14
vt -18.70079 7.874016
vt -19.68504 7.874016
vt 19.68504 -2.131628E-14
vt 18.70079 -2.131628E-14
vt 19.68504 7.874016
vt 18.70079 7.874016
vt 15.74803 7.874016
vt 15.74803 -2.131628E-14
vt -22.32607 -0.8803417
vt -19.53531 4.701174
vt -20.56538 -1.760683
vt 0 39.37008
vt 1.136868E-13 43.77179
vt 20.56538 -1.760683
vt 19.53531 4.701174
vt 22.32607 -0.8803417
vt -21.65354 -10.77192
vt 19.68504 -8.803417
vt 21.65354 -10.77192
vt 21.65354 35.21367
vt 19.68504 3.197442E-14
vt 18.70079 3.197442E-14
vt 18.70079 35.21367
vt -19.68504 -8.803417
vt -21.65354 35.21367
vt -19.68504 2.4869E-14
vt -18.70079 35.21367
vt -18.70079 2.4869E-14
vt 19.68504 -1.829648E-13
vt 18.70079 -1.829648E-13
vt -19.68504 -1.847411E-13
vt -18.70079 -1.847411E-13
vt 21.65354 -4.531597
vt -21.65354 -4.531597
vt 21.65354 39.15068
vt -21.65354 39.15068
vt -1.136868E-13 43.77179
vt 21.65354 19.57534
vt 21.65354 17.60683
vt -21.65354 19.57534
vt -21.65354 17.60683
vt 19.68504 19.68504
vt 19.68504 15.74803
vt -19.68504 19.68504
vt 18.70079 15.74803
vt 18.70079 -15.74803
vt -18.70079 15.74803
vt -19.68504 15.74803
vt -18.70079 -15.74803
vt -19.68504 -19.68504
vt 19.68504 -19.68504
vt 19.68504 -15.74803
vt -19.68504 -15.74803

usemtl wood

f 3/3/1 2/2/1 1/1/1
f 5/5/2 1/2/2 4/4/2
f 1/2/2 5/5/2 3/6/2
f 8/2/3 7/1/3 6/3/3
f 10/5/4 7/2/4 9/4/4
f 7/2/4 10/5/4 6/6/4
f 13/9/2 12/8/2 11/7/2
f 12/8/2 13/9/2 14/10/2
f 17/9/4 16/8/4 15/7/4
f 16/8/4 17/9/4 18/10/4
f 11/12/3 19/7/3 13/11/3
f 20/7/1 17/11/1 15/12/1

usemtl roofRed

f 23/15/1 22/14/1 21/13/1
f 22/14/1 23/15/1 24/16/1
f 22/14/1 24/16/1 25/17/1
f 25/17/1 24/16/1 26/18/1
f 25/17/1 26/18/1 27/19/1
f 27/19/1 26/18/1 28/20/1
f 26/23/5 20/22/5 29/21/5
f 20/22/5 26/23/5 24/24/5
f 20/22/5 24/24/5 17/25/5
f 17/25/5 24/24/5 18/26/5
f 18/26/5 24/24/5 30/27/5
f 8/28/5 29/21/5 20/22/5
f 29/21/5 8/28/5 31/29/5
f 31/29/5 8/28/5 6/30/5
f 31/29/5 6/30/5 32/31/5
f 32/31/5 6/30/5 10/32/5
f 33/23/6 19/22/6 23/21/6
f 19/22/6 33/23/6 31/24/6
f 19/22/6 31/24/6 13/33/6
f 13/33/6 31/24/6 14/34/6
f 14/34/6 31/24/6 32/27/6
f 2/28/6 23/21/6 19/22/6
f 23/21/6 2/28/6 24/29/6
f 24/29/6 2/28/6 3/35/6
f 24/29/6 3/35/6 30/31/6
f 30/31/6 3/35/6 5/36/6
f 35/39/7 27/38/7 34/37/7
f 27/38/7 35/39/7 25/40/7
f 37/19/3 33/18/3 36/20/3
f 33/18/3 37/19/3 31/16/3
f 31/16/3 37/19/3 35/41/3
f 31/16/3 35/41/3 29/15/3
f 29/15/3 35/41/3 34/14/3
f 29/15/3 34/14/3 38/13/3
f 28/44/8 29/43/8 38/42/8
f 29/43/8 28/44/8 26/45/8
f 23/43/9 36/44/9 33/45/9
f 36/44/9 23/43/9 21/42/9
f 25/39/10 37/38/10 22/37/10
f 37/38/10 25/39/10 35/40/10

usemtl woodDark

f 32/16/3 12/12/3 14/11/3
f 12/12/3 32/16/3 9/1/3
f 9/1/3 32/16/3 10/3/3
f 20/48/11 7/47/11 8/46/11
f 7/47/11 20/48/11 9/49/11
f 9/49/11 20/48/11 12/50/11
f 12/50/11 20/48/11 16/51/11
f 16/51/11 20/48/11 15/52/11
f 4/53/11 12/50/11 16/51/11
f 2/54/11 12/50/11 4/53/11
f 19/55/11 12/50/11 2/54/11
f 12/50/11 19/55/11 11/56/11
f 2/54/11 4/53/11 1/57/11
f 16/12/1 5/3/1 4/1/1
f 5/3/1 16/12/1 30/16/1
f 30/16/1 16/12/1 18/11/1

usemtl roofRedLight

f 22/37/10 36/21/10 21/23/10
f 36/21/10 22/37/10 37/38/10
f 34/37/7 28/21/7 38/23/7
f 28/21/7 34/37/7 27/38/7

