# Created by Kenney (www.kenney.nl)

mtllib roofCornerInner.mtl

g roofCornerInner

v -0.5 0 0.5
v 0.4 0.5059017 0.5
v 0.5 0 0.5
v 0.5 0.6259017 0.5
v -0.4461968 0.08280331 0.5
v -0.5 0.0559017 0.5
v 0.4 0.5759017 0.5
v 0.5 0.6259017 -0.5
v 0.5 0 -0.5
v -0.5 0 -0.5
v -0.5 0.6259017 -0.5
v -0.5 0.5059017 -0.4
v -0.5 0.5759017 -0.4
v -0.5 0.08280331 0.4461968
v -0.4461968 0.08280331 0.4461968
v 0.4 0.5759017 -0.4
v 0.4 0.5059017 -0.4

vn 0 0 1
vn 1 0 0
vn 0 -1 0
vn -1 0 0
vn 0 0 -1
vn -0.4472136 0.8944272 0
vn 0 0.8944272 0.4472136

vt -19.68504 -2.221391E-12
vt 15.74803 19.91739
vt 19.68504 -2.221391E-12
vt 19.68504 24.6418
vt -17.5668 3.259973
vt -19.68504 2.200854
vt 15.74803 22.6733
vt 19.68504 -2.713201E-12
vt -19.68504 24.6418
vt -19.68504 -2.713201E-12
vt 19.68504 -19.68504
vt -19.68504 -19.68504
vt 19.68504 19.68504
vt -19.68504 19.68504
vt -15.74803 19.91739
vt -19.68504 2.918686E-12
vt 19.68504 2.918686E-12
vt -15.74803 22.6733
vt 17.5668 3.259973
vt 19.68504 2.200854
vt 19.68504 -2.724553E-12
vt -19.68504 -2.724553E-12
vt 17.5668 -14.25432
vt 19.68504 -14.25432
vt 19.68504 -16.62258
vt -17.5668 -14.25432
vt -19.68504 -16.62258
vt -19.68504 -14.25432
vt 19.68504 28.62698
vt 15.74803 24.22527
vt -19.68504 28.62698
vt -19.68504 24.22527
vt 19.68504 19.91739
vt 19.68504 22.6733
vt -15.74803 22.9928
vt 19.68504 22.9928
vt -19.68504 19.91739
vt -19.68504 22.6733
vt -15.74803 24.22527
vt 19.68504 24.22527
vt 15.74803 22.9928
vt -19.68504 22.9928

usemtl stone

f 3/3/1 2/2/1 1/1/1
f 2/2/1 3/3/1 4/4/1
f 1/1/1 2/2/1 5/5/1
f 1/1/1 5/5/1 6/6/1
f 2/2/1 4/4/1 7/7/1
f 4/9/2 9/8/2 8/4/2
f 9/8/2 4/9/2 3/10/2
f 3/13/3 10/12/3 9/11/3
f 10/12/3 3/13/3 1/14/3
f 10/16/4 12/15/4 11/9/4
f 12/15/4 10/16/4 1/17/4
f 11/9/4 12/15/4 13/18/4
f 12/15/4 1/17/4 14/19/4
f 14/19/4 1/17/4 6/20/4
f 11/4/5 9/22/5 10/21/5
f 9/22/5 11/4/5 8/9/5

usemtl roofLight

f 6/25/6 5/24/6 15/23/6
f 14/28/7 6/27/7 15/26/7

usemtl roof

f 11/31/7 16/30/7 8/29/7
f 16/30/7 11/31/7 13/32/7
f 2/33/4 16/18/4 17/15/4
f 16/18/4 2/33/4 7/34/4
f 15/23/6 2/36/6 17/35/6
f 2/36/6 15/23/6 5/24/6
f 17/2/1 13/38/1 12/37/1
f 13/38/1 17/2/1 16/7/1
f 16/39/6 4/29/6 8/31/6
f 4/29/6 16/39/6 7/40/6
f 12/42/7 15/26/7 17/41/7
f 15/26/7 12/42/7 14/28/7

