# Created by Kenney (www.kenney.nl)

mtllib roofHighCorner.mtl

g roofHighCorner

v 0.4 0.9707107 -0.5
v 0.4 0.9707107 -0.4
v -0.4707107 0.1 -0.5
v -0.4707107 0.1 0.4707107
v 0.5 1.040711 -0.4
v 0.4 1.040711 -0.4
v 0.5 1.140711 -0.5
v 0.5 -0.03535534 0.5353553
v -0.5353553 -0.03535534 0.5353553
v 0.5 -3.609557E-16 0.5707107
v -0.5707107 -3.609557E-16 0.5707107
v -0.5 0 -0.5
v -0.5353553 -0.03535534 -0.5
v -0.5 0 0.5
v 0.4 1.040711 -0.5
v 0.5 0.9707107 -0.4
v -0.5707107 -3.609557E-16 -0.5
v 0.5 0.1 0.4707107
v 0.5 0 0.5
v 0.5 0 -0.5

vn -0.7071068 0.7071068 0
vn 0 0.7071068 0.7071068
vn 0 -0.7071068 0.7071068
vn 0.7071068 -0.7071068 0
vn -1 0 0
vn 0 0 1
vn -0.7071068 -0.7071068 0
vn 0 -0.7071068 -0.7071068
vn 0 0 -1
vn 0 -1 0
vn 1 0 0

vt -19.68504 38.15901
vt -15.74803 38.15901
vt -19.68504 -10.32016
vt 18.53192 -10.32016
vt 19.68504 40.10773
vt 15.74803 40.10773
vt 19.68504 45.6755
vt 19.68504 13.91943
vt -21.07698 13.91943
vt 19.68504 15.88793
vt -22.46892 15.88793
vt 19.68504 -13.91943
vt 19.68504 -15.88793
vt -19.68504 -13.91943
vt -21.07698 -15.88793
vt -19.68504 38.21696
vt -19.68504 40.97286
vt -15.74803 38.21696
vt -15.74803 40.97286
vt 19.68504 38.21696
vt 15.74803 38.21696
vt 19.68504 40.97286
vt 15.74803 40.97286
vt 21.07698 13.91943
vt -19.68504 13.91943
vt 22.46892 15.88793
vt -19.68504 15.88793
vt 19.68504 38.15901
vt 19.68504 -10.32016
vt 15.74803 38.15901
vt -18.53192 -10.32016
vt -19.68504 -15.88793
vt 21.07698 -15.88793
vt -19.68504 40.10773
vt -19.68504 45.6755
vt -15.74803 40.10773
vt -22.46892 -15.88793
vt 22.46892 -15.88793
vt 21.07698 -1.391943
vt 19.68504 3.336441E-14
vt 22.46892 1.915356E-14
vt 18.53192 3.937008
vt -19.68504 3.336441E-14
vt -19.68504 44.90987
vt 19.68504 19.68504
vt 19.68504 -19.68504
vt -19.68504 19.68504
vt -19.68504 -19.68504
vt 19.68504 44.90987
vt 19.68504 -1.832694E-13
vt -19.68504 -1.832694E-13
vt -18.53192 3.937008
vt -22.46892 -1.974803E-13
vt -21.07698 -1.391943

usemtl roofRed

f 3/3/1 2/2/1 1/1/1
f 2/2/1 3/3/1 4/4/1
f 7/7/2 6/6/2 5/5/2
f 10/10/3 9/9/3 8/8/3
f 9/9/3 10/10/3 11/11/3
f 14/14/4 13/13/4 12/12/4
f 13/13/4 14/14/4 9/15/4
f 2/18/5 15/17/5 1/16/5
f 15/17/5 2/18/5 6/19/5
f 5/22/6 2/21/6 16/20/6
f 2/21/6 5/22/6 6/23/6
f 11/26/7 13/25/7 9/24/7
f 13/25/7 11/26/7 17/27/7
f 2/30/2 18/29/2 16/28/2
f 18/29/2 2/30/2 4/31/2
f 8/32/8 14/12/8 19/14/8
f 14/12/8 8/32/8 9/33/8
f 6/36/1 7/35/1 15/34/1

usemtl roofRedLight

f 18/29/2 11/37/2 10/13/2
f 11/37/2 18/29/2 4/31/2
f 11/38/1 3/3/1 17/32/1
f 3/3/1 11/38/1 4/4/1

usemtl woodDark

f 17/41/9 12/40/9 13/39/9
f 12/40/9 17/41/9 3/42/9
f 12/40/9 3/42/9 20/43/9
f 20/43/9 3/42/9 1/18/9
f 20/43/9 1/18/9 7/44/9
f 7/44/9 1/18/9 15/19/9
f 14/47/10 20/46/10 19/45/10
f 20/46/10 14/47/10 12/48/10
f 5/23/11 20/50/11 7/49/11
f 20/50/11 5/23/11 16/21/11
f 20/50/11 16/21/11 19/51/11
f 19/51/11 16/21/11 18/52/11
f 19/51/11 18/52/11 10/53/11
f 19/51/11 10/53/11 8/54/11

