# Created by Kenney (www.kenney.nl)

mtllib stairsStone.mtl

g stairsStone

v -0.145 0.4625 -0.25
v -0.145 0.5 -0.25
v -0.145 0.4625 0.25
v -0.145 0.5 0.25
v -0.375 0.2125 0.25
v -0.375 0.2125 -0.25
v -0.395 0.2125 0.25
v -0.395 0.2125 -0.25
v 0.25 0.75 -0.25
v 0.25 0.8375 -0.25
v 0.25 0.75 0.25
v 0.25 0.8375 0.25
v 0.375 0.9625 0.25
v 0.375 0.9625 -0.25
v 0.355 0.9625 0.25
v 0.355 0.9625 -0.25
v 0.375 0.875 -0.25
v 0.375 0.875 0.25
v 0.355 1 -0.25
v 0.355 1 0.25
v -0.25 0.25 -0.25
v -0.25 0.3375 -0.25
v -0.25 0.25 0.25
v -0.25 0.3375 0.25
v -0.425 2.819966E-18 0.25
v -0.425 2.819966E-18 -0.25
v -0.5 0 0.25
v -0.5 0 -0.25
v -0.125 0.4625 0.25
v -0.125 0.4625 -0.25
v -0.02 0.5875 -0.25
v -0.02 0.625 -0.25
v -0.02 0.5875 0.25
v -0.02 0.625 0.25
v -0.395 0.25 -0.25
v -0.395 0.25 0.25
v 0.125 0.625 -0.25
v 0.125 0.625 0.25
v 2.887646E-15 0.5 -0.25
v 2.887646E-15 0.5875 -0.25
v 2.887646E-15 0.5 0.25
v 2.887646E-15 0.5875 0.25
v -0.375 0.125 -0.25
v -0.375 0.125 0.25
v -0.52 0.125 -0.25
v -0.52 0.125 0.25
v 0.5 1 -0.25
v 0.5 0.925 -0.25
v 0.5 1 0.25
v 0.5 0.925 0.25
v -0.125 0.375 -0.25
v -0.125 0.375 0.25
v 0.125 0.7125 -0.25
v 0.125 0.7125 0.25
v 0.23 0.8375 0.25
v 0.23 0.8375 -0.25
v 0.105 0.75 -0.25
v 0.105 0.75 0.25
v 0.23 0.875 -0.25
v 0.23 0.875 0.25
v -0.27 0.3375 0.25
v -0.27 0.3375 -0.25
v -0.52 0.0875 -0.25
v -0.52 0.0875 0.25
v -0.5 0.0875 -0.25
v -0.5 0.0875 0.25
v -0.27 0.375 -0.25
v 0.105 0.7125 -0.25
v -0.27 0.375 0.25
v 0.105 0.7125 0.25

vn -1 0 0
vn 0 -1 0
vn 0 1 0
vn 1 0 0
vn 0 0 -1
vn 0 0 1
vn 0.7071068 -0.7071068 0

vt -9.84252 18.20866
vt -9.84252 19.68504
vt 9.84252 18.20866
vt 9.84252 19.68504
vt -14.76378 9.84252
vt -14.76378 -9.84252
vt -15.55118 9.84252
vt -15.55118 -9.84252
vt -9.84252 29.52756
vt -9.84252 32.97244
vt 9.84252 29.52756
vt 9.84252 32.97244
vt 14.76378 9.84252
vt 14.76378 -9.84252
vt 13.97638 9.84252
vt 13.97638 -9.84252
vt -9.84252 34.44882
vt -9.84252 37.8937
vt 9.84252 34.44882
vt 9.84252 37.8937
vt -9.84252 39.37008
vt 9.84252 39.37008
vt -9.84252 9.84252
vt -9.84252 13.2874
vt 9.84252 9.84252
vt 9.84252 13.2874
vt -16.73228 9.84252
vt -16.73228 -9.84252
vt -19.68504 9.84252
vt -19.68504 -9.84252
vt -4.92126 9.84252
vt -4.92126 -9.84252
vt -5.708662 9.84252
vt -5.708662 -9.84252
vt -9.84252 23.12992
vt -9.84252 24.6063
vt 9.84252 23.12992
vt 9.84252 24.6063
vt 9.84252 -9.84252
vt 15.55118 -9.84252
vt 15.55118 9.84252
vt 0.7874016 -9.84252
vt 0.7874016 9.84252
vt -9.84252 8.366141
vt 9.84252 8.366141
vt 20.47244 -9.84252
vt 20.47244 9.84252
vt 9.84252 36.41732
vt -9.84252 36.41732
vt -9.84252 14.76378
vt 9.84252 14.76378
vt -9.84252 28.05118
vt 9.84252 28.05118
vt 9.055119 9.84252
vt 9.055119 -9.84252
vt -9.84252 -9.84252
vt -4.133858 -9.84252
vt -4.133858 9.84252
vt -10.62992 9.84252
vt -10.62992 -9.84252
vt -9.84252 3.444882
vt -9.84252 4.92126
vt 9.84252 3.444882
vt 9.84252 4.92126
vt -9.055119 -9.84252
vt -9.055119 9.84252
vt -9.84252 -3.248195E-13
vt 9.84252 -3.248195E-13
vt -1.136868E-13 -9.84252
vt -1.136868E-13 9.84252
vt 5.708662 -9.84252
vt 5.708662 9.84252
vt 1.004234E-12 9.84252
vt 1.004234E-12 -9.84252
vt -0.7874016 9.84252
vt -0.7874016 -9.84252
vt -13.97638 -9.84252
vt -13.97638 9.84252
vt 20.47244 3.444882
vt 19.68504 3.444882
vt 20.47244 4.92126
vt 14.76378 4.92126
vt 16.73228 -2.187387E-13
vt 19.68504 -2.188497E-13
vt -19.68504 36.41732
vt 14.76378 8.366141
vt 15.55118 8.366141
vt 4.92126 14.76378
vt 10.62992 14.76378
vt 10.62992 13.2874
vt -2.957264E-13 19.68504
vt 4.92126 18.20866
vt 5.708662 19.68504
vt 5.708662 18.20866
vt -4.92126 24.6063
vt -2.957264E-13 23.12992
vt 0.7874016 24.6063
vt 0.7874016 23.12992
vt -4.92126 28.05118
vt -4.133858 29.52756
vt -4.133858 28.05118
vt -14.76378 34.44882
vt -9.055119 34.44882
vt -9.055119 32.97244
vt -14.76378 37.8937
vt -19.68504 39.37008
vt -13.97638 39.37008
vt -13.97638 37.8937
vt -20.47244 9.84252
vt -20.47244 -9.84252
vt -19.68504 0
vt -19.68504 3.444882
vt -16.73228 1.110223E-16
vt -14.76378 4.92126
vt 19.68504 36.41732
vt -20.47244 4.92126
vt -14.76378 8.366141
vt -4.92126 14.76378
vt -10.62992 14.76378
vt 1.136868E-13 19.68504
vt -4.92126 18.20866
vt -5.708662 19.68504
vt 4.92126 24.6063
vt 1.136868E-13 23.12992
vt -0.7874016 24.6063
vt 4.92126 28.05118
vt 4.133858 29.52756
vt 4.133858 28.05118
vt -0.7874016 23.12992
vt -5.708662 18.20866
vt -10.62992 13.2874
vt 14.76378 34.44882
vt 9.055119 34.44882
vt 14.76378 37.8937
vt 19.68504 39.37008
vt 13.97638 39.37008
vt 13.97638 37.8937
vt 9.055119 32.97244
vt -15.55118 8.366141
vt -20.47244 3.444882
vt 9.84252 -11.83151
vt -9.84252 -11.83151
vt 9.84252 39.67036
vt -9.84252 39.67036
vt 4.92126 -9.84252
vt 4.92126 9.84252
vt 10.62992 -9.84252
vt 10.62992 9.84252
vt 4.133858 9.84252
vt 4.133858 -9.84252

usemtl stone

f 3/3/1 2/2/1 1/1/1
f 2/2/1 3/3/1 4/4/1
f 7/7/2 6/6/2 5/5/2
f 6/6/2 7/7/2 8/8/2
f 11/11/1 10/10/1 9/9/1
f 10/10/1 11/11/1 12/12/1
f 15/15/2 14/14/2 13/13/2
f 14/14/2 15/15/2 16/16/2
f 18/19/1 14/18/1 17/17/1
f 14/18/1 18/19/1 13/20/1
f 15/20/1 19/21/1 16/18/1
f 19/21/1 15/20/1 20/22/1
f 23/25/1 22/24/1 21/23/1
f 22/24/1 23/25/1 24/26/1
f 27/29/2 26/28/2 25/27/2
f 26/28/2 27/29/2 28/30/2
f 3/33/2 30/32/2 29/31/2
f 30/32/2 3/33/2 1/34/2
f 33/37/1 32/36/1 31/35/1
f 32/36/1 33/37/1 34/38/1
f 35/40/3 23/25/3 21/39/3
f 23/25/3 35/40/3 36/41/3
f 32/42/3 38/31/3 37/32/3
f 38/31/3 32/42/3 34/43/3
f 7/45/1 35/23/1 8/44/1
f 35/23/1 7/45/1 36/25/1
f 41/4/1 40/35/1 39/2/1
f 40/35/1 41/4/1 42/37/1
f 45/46/3 44/13/3 43/14/3
f 44/13/3 45/46/3 46/47/3
f 49/21/4 48/48/4 47/22/4
f 48/48/4 49/21/4 50/49/4
f 52/51/1 30/1/1 51/50/1
f 30/1/1 52/51/1 29/3/1
f 38/38/1 53/52/1 37/36/1
f 53/52/1 38/38/1 54/53/1
f 55/54/2 10/39/2 12/25/2
f 10/39/2 55/54/2 56/55/2
f 57/57/3 11/23/3 9/56/3
f 11/23/3 57/57/3 58/58/3
f 55/12/1 59/17/1 56/10/1
f 59/17/1 55/12/1 60/19/1
f 61/59/2 22/56/2 24/23/2
f 22/56/2 61/59/2 62/60/2
f 64/63/1 45/62/1 63/61/1
f 45/62/1 64/63/1 46/64/1
f 44/64/1 6/44/1 43/62/1
f 6/44/1 44/64/1 5/45/1
f 59/65/3 18/5/3 17/6/3
f 18/5/3 59/65/3 60/66/3
f 27/68/1 65/61/1 28/67/1
f 65/61/1 27/68/1 66/63/1
f 2/71/3 41/70/3 39/69/3
f 41/70/3 2/71/3 4/72/3
f 33/75/2 40/74/2 42/73/2
f 40/74/2 33/75/2 31/76/2
f 19/77/3 49/29/3 47/30/3
f 49/29/3 19/77/3 20/78/3
f 45/81/5 65/80/5 63/79/5
f 43/82/5 65/80/5 45/81/5
f 26/83/5 65/80/5 43/82/5
f 65/80/5 26/83/5 28/84/5
f 26/83/5 43/82/5 48/85/5
f 48/85/5 43/82/5 21/25/5
f 21/25/5 43/82/5 6/86/5
f 21/25/5 6/86/5 35/41/5
f 35/41/5 6/86/5 8/87/5
f 48/85/5 21/25/5 51/88/5
f 51/88/5 21/25/5 22/26/5
f 51/88/5 22/26/5 67/89/5
f 67/89/5 22/26/5 62/90/5
f 48/85/5 51/88/5 39/91/5
f 39/91/5 51/88/5 30/92/5
f 39/91/5 30/92/5 2/93/5
f 2/93/5 30/92/5 1/94/5
f 48/85/5 39/91/5 37/95/5
f 37/95/5 39/91/5 40/96/5
f 37/95/5 40/96/5 32/97/5
f 32/97/5 40/96/5 31/98/5
f 48/85/5 37/95/5 9/9/5
f 9/9/5 37/95/5 53/99/5
f 9/9/5 53/99/5 57/100/5
f 57/100/5 53/99/5 68/101/5
f 48/85/5 9/9/5 17/102/5
f 17/102/5 9/9/5 10/10/5
f 17/102/5 10/10/5 59/103/5
f 59/103/5 10/10/5 56/104/5
f 48/85/5 17/102/5 14/105/5
f 48/85/5 14/105/5 47/106/5
f 47/106/5 14/105/5 19/107/5
f 19/107/5 14/105/5 16/108/5
f 64/109/2 65/30/2 66/29/2
f 65/30/2 64/109/2 63/110/2
f 25/113/6 66/112/6 27/111/6
f 66/112/6 25/113/6 44/114/6
f 44/114/6 25/113/6 50/115/6
f 66/112/6 44/114/6 46/116/6
f 44/114/6 50/115/6 23/23/6
f 44/114/6 23/23/6 5/117/6
f 5/117/6 23/23/6 36/7/6
f 23/23/6 50/115/6 52/118/6
f 23/23/6 52/118/6 24/24/6
f 24/24/6 52/118/6 69/119/6
f 52/118/6 50/115/6 41/120/6
f 52/118/6 41/120/6 29/121/6
f 29/121/6 41/120/6 4/122/6
f 41/120/6 50/115/6 38/123/6
f 41/120/6 38/123/6 42/124/6
f 42/124/6 38/123/6 34/125/6
f 38/123/6 50/115/6 11/11/6
f 38/123/6 11/11/6 54/126/6
f 54/126/6 11/11/6 58/127/6
f 58/127/6 70/128/6 54/126/6
f 34/125/6 33/129/6 42/124/6
f 4/122/6 3/130/6 29/121/6
f 69/119/6 61/131/6 24/24/6
f 11/11/6 50/115/6 18/132/6
f 11/11/6 18/132/6 12/12/6
f 12/12/6 18/132/6 60/133/6
f 18/132/6 50/115/6 13/134/6
f 13/134/6 50/115/6 49/135/6
f 13/134/6 49/135/6 20/136/6
f 20/136/6 15/137/6 13/134/6
f 60/133/6 55/138/6 12/12/6
f 36/7/6 7/139/6 5/117/6
f 46/116/6 64/140/6 66/112/6
f 61/26/1 67/50/1 62/24/1
f 67/50/1 61/26/1 69/51/1
f 48/143/7 25/142/7 26/141/7
f 25/142/7 48/143/7 50/144/7
f 67/147/3 52/146/3 51/145/3
f 52/146/3 67/147/3 69/148/3
f 70/149/2 53/145/2 54/146/2
f 53/145/2 70/149/2 68/150/2
f 70/53/1 57/9/1 68/52/1
f 57/9/1 70/53/1 58/11/1

