# Created by Kenney (www.kenney.nl)

mtllib stallStool.mtl

g stallStool

v 0.11 0.1755014 0.06
v 0.11 6.979798E-16 0.06
v 0.11 0.1755014 0.11
v 0.11 7.264503E-16 0.11
v 0.13 0.2255014 -0.13
v 0.13 0.1755014 -0.13
v 0.13 0.2255014 0.13
v 0.13 0.1755014 0.13
v 0.06 7.264503E-16 0.11
v 0.06 7.264503E-16 0.06
v 0.06 0 0.07
v -0.06 2.48703E-13 0.11
v -0.11 2.48703E-13 0.11
v -0.06 0.1755014 0.11
v -0.11 0.1755014 0.11
v 0.11 7.882187E-16 -0.11
v 0.11 0.1755014 -0.11
v 0.06 8.166893E-16 -0.11
v 0.06 0.1755014 -0.11
v -0.13 0.2255014 -0.13
v -0.13 0.2255014 0.13
v -0.13 0.1755014 0.13
v 0.06 0.1755014 0.11
v 0.06 0.1755014 0.06
v 0.06 0.1755014 -0.06
v -0.11 0.1755014 0.06
v -0.11 0.1755014 -0.06
v -0.11 0.1755014 -0.11
v -0.13 0.1755014 -0.13
v 0.11 0.1755014 -0.06
v -0.06 0.1755014 -0.11
v -0.06 0.1755014 0.07
v -0.06 0.1755014 0.06
v -0.06 0.1755014 -0.06
v -0.06 0.1755014 -0.07
v 0.06 0.08275071 0.0725
v 0.06 0.08275071 0.0975
v 0.06 0.1327507 0.0975
v 0.06 0.1327507 0.0725
v -0.11 2.48703E-13 0.06
v -0.0975 0.08275071 0.06
v -0.0975 0.1327507 0.06
v -0.0725 0.1327507 0.06
v -0.0725 0.08275071 0.06
v -0.06 2.486746E-13 0.06
v -0.06 2.487933E-13 -0.06
v -0.06 2.487648E-13 -0.11
v -0.11 2.487933E-13 -0.06
v -0.11 2.487933E-13 -0.11
v -0.0725 0.1327507 -0.06
v -0.0725 0.08275071 -0.06
v 0.0725 0.08275071 0.06
v 0.0725 0.1327507 0.06
v 0.0975 0.1327507 0.06
v 0.0975 0.08275071 0.06
v -0.06 0.1327507 -0.0975
v -0.06 0.1327507 -0.0725
v -0.06 0.08275071 -0.0725
v -0.06 0.08275071 -0.0975
v -0.0975 0.1327507 -0.06
v -0.0975 0.08275071 -0.06
v 0.0975 0.1327507 -0.06
v 0.0975 0.08275071 -0.06
v 0.11 8.166893E-16 -0.06
v 0.06 8.166893E-16 -0.06
v 0.06 1.54314E-15 -0.07
v 0.0725 0.1327507 -0.06
v 0.0725 0.08275071 -0.06
v -0.06 0.1327507 0.0725
v -0.06 0.1327507 0.0975
v -0.06 0.08275071 0.0975
v -0.06 0.08275071 0.0725
v 0.06 0.08275071 -0.0975
v 0.06 0.08275071 -0.0725
v 0.06 0.1327507 -0.0725
v 0.06 0.1327507 -0.0975

vn 1 0 0
vn 0 -1 0
vn 0 0 1
vn 0 0 -1
vn 0 1 0
vn -1 0 0

vt -2.362205 6.909504
vt -2.362205 2.747952E-14
vt -4.330709 6.909504
vt -4.330709 2.860041E-14
vt 5.11811 8.878009
vt 5.11811 6.909504
vt -5.11811 8.878009
vt -5.11811 6.909504
vt 4.330709 4.330709
vt 4.330709 2.362205
vt 2.362205 4.330709
vt 2.362205 2.362205
vt 2.362205 2.755906
vt -2.362205 9.791458E-12
vt -4.330709 9.791458E-12
vt -4.330709 3.103223E-14
vt -2.362205 3.215312E-14
vt -5.11811 -5.11811
vt -5.11811 5.11811
vt 5.11811 -5.11811
vt 5.11811 5.11811
vt -2.362205 4.330709
vt 2.362205 -2.362205
vt 2.362205 -4.330709
vt -4.330709 4.330709
vt -4.330709 2.362205
vt -4.330709 -2.362205
vt -4.330709 -4.330709
vt 4.330709 -4.330709
vt 4.330709 -2.362205
vt -2.362205 -4.330709
vt -2.362205 2.755906
vt -2.362205 2.362205
vt -2.362205 -2.362205
vt -2.362205 -2.755906
vt 2.755906 0
vt 2.854331 3.257902
vt 4.330709 2.860041E-14
vt 3.838583 3.257902
vt 3.838583 5.226406
vt 2.854331 5.226406
vt 2.362205 6.909504
vt 2.362205 2.860041E-14
vt 4.330709 6.909504
vt 4.330709 9.791458E-12
vt 2.362205 9.790337E-12
vt 2.362205 5.226406
vt 2.362205 3.257902
vt -2.362205 5.226406
vt -2.362205 3.257902
vt -4.330709 9.79501E-12
vt -2.362205 9.79501E-12
vt -2.362205 2.860041E-14
vt -2.854331 3.257902
vt -2.854331 5.226406
vt -3.838583 5.226406
vt -3.838583 3.257902
vt -4.330709 2.747952E-14
vt 4.330709 9.79389E-12
vt 2.755906 6.909504
vt 2.362205 9.79501E-12
vt 2.854331 -2.362205
vt 2.854331 2.362205
vt 3.838583 -2.362205
vt 3.838583 2.362205
vt 2.362205 -2.755906
vt 2.362205 3.215312E-14
vt 4.330709 3.215312E-14
vt 2.362205 9.79389E-12
vt 4.330709 9.79501E-12
vt -2.755906 6.909504
vt -2.362205 9.790337E-12
vt -4.330709 3.215312E-14
vt -2.755906 6.075353E-14
vt 4.330709 3.103223E-14
vt -3.838583 -2.362205
vt -3.838583 2.362205
vt -2.854331 -2.362205
vt -2.854331 2.362205
vt 2.362205 9.791458E-12
vt -2.362205 -2.854331
vt 2.362205 -2.854331
vt -2.362205 -3.838583
vt 2.362205 -3.838583
vt -2.362205 3.838583
vt 2.362205 3.838583
vt -2.362205 2.854331
vt 2.362205 2.854331

usemtl wood

f 3/3/1 2/2/1 1/1/1
f 2/2/1 3/3/1 4/4/1
f 7/7/1 6/6/1 5/5/1
f 6/6/1 7/7/1 8/8/1
f 9/11/2 2/10/2 4/9/2
f 2/10/2 9/11/2 10/12/2
f 10/12/2 9/11/2 11/13/2
f 14/1/3 13/15/3 12/14/3
f 13/15/3 14/1/3 15/3/3
f 18/17/4 17/3/4 16/16/4
f 17/3/4 18/17/4 19/1/4
f 20/20/5 7/19/5 5/18/5
f 7/19/5 20/20/5 21/21/5
f 8/21/2 3/9/2 6/20/2
f 3/9/2 8/21/2 22/19/2
f 3/9/2 22/19/2 23/11/2
f 23/11/2 22/19/2 14/22/2
f 23/11/2 14/22/2 24/12/2
f 24/12/2 14/22/2 25/23/2
f 25/23/2 14/22/2 19/24/2
f 14/22/2 22/19/2 15/25/2
f 15/25/2 22/19/2 26/26/2
f 26/26/2 22/19/2 27/27/2
f 27/27/2 22/19/2 28/28/2
f 17/29/2 6/20/2 3/9/2
f 6/20/2 17/29/2 29/18/2
f 29/18/2 17/29/2 19/24/2
f 29/18/2 28/28/2 22/19/2
f 17/29/2 3/9/2 1/10/2
f 17/29/2 1/10/2 30/30/2
f 24/12/2 30/30/2 1/10/2
f 30/30/2 24/12/2 25/23/2
f 29/18/2 19/24/2 31/31/2
f 31/31/2 19/24/2 14/22/2
f 29/18/2 31/31/2 28/28/2
f 31/31/2 14/22/2 32/32/2
f 31/31/2 32/32/2 33/33/2
f 31/31/2 33/33/2 34/34/2
f 26/26/2 34/34/2 33/33/2
f 34/34/2 26/26/2 27/27/2
f 31/31/2 34/34/2 35/35/2
f 7/5/3 22/8/3 8/6/3
f 22/8/3 7/5/3 21/7/3
f 9/38/6 36/37/6 11/36/6
f 36/37/6 9/38/6 37/39/6
f 37/39/6 9/38/6 38/40/6
f 39/41/6 11/36/6 36/37/6
f 24/42/6 11/36/6 39/41/6
f 11/36/6 24/42/6 10/43/6
f 24/42/6 39/41/6 23/44/6
f 23/44/6 39/41/6 38/40/6
f 23/44/6 38/40/6 9/38/6
f 26/44/4 41/39/4 40/45/4
f 41/39/4 26/44/4 42/40/4
f 42/40/4 26/44/4 43/41/4
f 44/37/4 40/45/4 41/39/4
f 44/37/4 45/46/4 40/45/4
f 45/46/4 44/37/4 33/42/4
f 33/42/4 44/37/4 43/41/4
f 33/42/4 43/41/4 26/44/4
f 48/27/2 47/31/2 46/34/2
f 47/31/2 48/27/2 49/28/2
f 43/49/1 51/48/1 50/47/1
f 51/48/1 43/49/1 44/50/1
f 48/52/6 28/3/6 49/51/6
f 28/3/6 48/52/6 27/1/6
f 3/44/3 9/43/3 4/38/3
f 9/43/3 3/44/3 23/42/3
f 24/1/4 52/54/4 10/53/4
f 52/54/4 24/1/4 53/55/4
f 53/55/4 24/1/4 54/56/4
f 55/57/4 10/53/4 52/54/4
f 55/57/4 2/58/4 10/53/4
f 2/58/4 55/57/4 1/3/4
f 1/3/4 55/57/4 54/56/4
f 1/3/4 54/56/4 24/1/4
f 13/25/2 45/33/2 12/22/2
f 45/33/2 13/25/2 40/26/2
f 31/44/1 56/40/1 47/59/1
f 56/40/1 31/44/1 35/60/1
f 56/40/1 35/60/1 57/41/1
f 57/41/1 35/60/1 58/37/1
f 59/39/1 47/59/1 56/40/1
f 47/59/1 59/39/1 46/61/1
f 46/61/1 59/39/1 58/37/1
f 46/61/1 58/37/1 35/60/1
f 46/61/1 35/60/1 34/42/1
f 60/64/5 43/63/5 50/62/5
f 43/63/5 60/64/5 42/65/5
f 46/52/3 51/54/3 48/51/3
f 51/54/3 46/52/3 34/1/3
f 51/54/3 34/1/3 50/55/3
f 50/55/3 34/1/3 60/56/3
f 61/57/3 48/51/3 51/54/3
f 48/51/3 61/57/3 27/3/3
f 27/3/3 61/57/3 60/56/3
f 27/3/3 60/56/3 34/1/3
f 22/6/6 20/7/6 29/8/6
f 20/7/6 22/6/6 21/5/6
f 54/49/1 63/48/1 62/47/1
f 63/48/1 54/49/1 55/50/1
f 65/23/2 16/29/2 64/30/2
f 16/29/2 65/23/2 18/24/2
f 18/24/2 65/23/2 66/66/2
f 64/68/3 63/39/3 65/67/3
f 63/39/3 64/68/3 30/44/3
f 63/39/3 30/44/3 62/40/3
f 62/40/3 30/44/3 67/41/3
f 68/37/3 65/67/3 63/39/3
f 65/67/3 68/37/3 25/42/3
f 25/42/3 68/37/3 67/41/3
f 25/42/3 67/41/3 30/44/3
f 49/70/4 31/42/4 47/69/4
f 31/42/4 49/70/4 28/44/4
f 29/6/4 5/7/4 6/8/4
f 5/7/4 29/6/4 20/5/4
f 14/3/1 69/55/1 32/71/1
f 69/55/1 14/3/1 70/56/1
f 70/56/1 14/3/1 71/57/1
f 72/54/1 32/71/1 69/55/1
f 45/72/1 32/71/1 72/54/1
f 32/71/1 45/72/1 33/1/1
f 45/72/1 72/54/1 12/15/1
f 12/15/1 72/54/1 71/57/1
f 12/15/1 71/57/1 14/3/1
f 52/63/2 63/64/2 55/65/2
f 63/64/2 52/63/2 68/62/2
f 68/50/6 53/47/6 67/49/6
f 53/47/6 68/50/6 52/48/6
f 18/73/6 73/57/6 19/3/6
f 73/57/6 18/73/6 66/74/6
f 73/57/6 66/74/6 74/54/6
f 74/54/6 66/74/6 75/55/6
f 76/56/6 19/3/6 73/57/6
f 19/3/6 76/56/6 25/1/6
f 25/1/6 76/56/6 75/55/6
f 25/1/6 75/55/6 66/74/6
f 25/1/6 66/74/6 65/17/6
f 30/42/1 16/75/1 17/44/1
f 16/75/1 30/42/1 64/67/1
f 67/78/5 54/77/5 62/76/5
f 54/77/5 67/78/5 53/79/5
f 61/50/6 42/47/6 60/49/6
f 42/47/6 61/50/6 41/48/6
f 41/77/2 51/78/2 44/79/2
f 51/78/2 41/77/2 61/76/2
f 13/45/6 26/42/6 40/80/6
f 26/42/6 13/45/6 15/44/6
f 75/47/3 58/50/3 74/48/3
f 58/50/3 75/47/3 57/49/3
f 59/48/4 76/49/4 73/50/4
f 76/49/4 59/48/4 56/47/4
f 76/83/5 57/82/5 75/81/5
f 57/82/5 76/83/5 56/84/5
f 58/81/2 73/84/2 74/82/2
f 73/84/2 58/81/2 59/83/2
f 39/87/5 70/86/5 38/85/5
f 70/86/5 39/87/5 69/88/5
f 72/48/4 39/49/4 36/50/4
f 39/49/4 72/48/4 69/47/4
f 71/85/2 36/88/2 37/86/2
f 36/88/2 71/85/2 72/87/2
f 38/47/3 71/50/3 37/48/3
f 71/50/3 38/47/3 70/49/3

