# Created by Kenney (www.kenney.nl)

mtllib wallWindowGlass.mtl

g wallWindowGlass

v 0.425 0 -0.4
v 0.4 0 -0.4
v 0.425 1 -0.4
v 0.4 1 -0.4
v 0.5 0 0.5
v 0.5 0 0.4
v 0.4 0 0.5
v 0.475 0 0.4
v 0.425 0 0.4
v 0.4 0 0.4
v 0.4 0 -0.5
v 0.4 1 -0.5
v 0.475 1 0.4
v 0.5 1 0.4
v 0.5 0 -0.4
v 0.475 0 -0.4
v 0.5 1 -0.4
v 0.475 1 -0.4
v 0.5 0.3 -0.1
v 0.5 0.3 0.1
v 0.4 0.3 -0.1
v 0.4 0.3 0.1
v 0.5 0.25 -0.15
v 0.5 0.7 -0.1
v 0.5 0.75 -0.15
v 0.5 0.75 0.15
v 0.5 0.7 0.1
v 0.5 0.25 0.15
v 0.475 0.25 -0.15
v 0.475 0.75 -0.15
v 0.425 0.8 -0.2
v 0.425 0.25 -0.15
v 0.425 0.2 -0.2
v 0.425 0.2 0.2
v 0.425 0.25 0.15
v 0.425 0.75 0.15
v 0.425 0.75 -0.15
v 0.425 0.8 0.2
v 0.425 0.25 0.2
v 0.475 0.2 -0.2
v 0.475 0.8 -0.2
v 0.475 0.8 0.2
v 0.475 0.75 0.15
v 0.475 0.25 0.15
v 0.475 0.2 0.2
v 0.475 0.25 0.2
v 0.5 0 -0.5
v 0.4 1 0.4
v 0.4 1 0.5
v 0.425 1 0.4
v 0.4 0.7 0.1
v 0.4 0.7 -0.1
v 0.4 0.25 0.15
v 0.4 0.25 -0.15
v 0.5 1 -0.5
v 0.4 0.75 -0.15
v 0.4 0.75 0.15
v 0.5 1 0.5

vn 0 0 1
vn 0 -1 0
vn -1 0 0
vn 0 0 -1
vn 0 1 0
vn 1 0 0

vt 16.73228 0
vt 15.74803 0
vt 16.73228 39.37008
vt 15.74803 39.37008
vt 19.68504 19.68504
vt 19.68504 15.74803
vt 15.74803 19.68504
vt 18.70079 15.74803
vt 16.73228 15.74803
vt 15.74803 15.74803
vt -19.68504 0
vt -19.68504 39.37008
vt -15.74803 0
vt -15.74803 39.37008
vt -18.70079 0
vt -18.70079 39.37008
vt 19.68504 0
vt 18.70079 0
vt 19.68504 39.37008
vt 18.70079 39.37008
vt -19.68504 -3.937008
vt -19.68504 3.937008
vt -15.74803 -3.937008
vt -15.74803 3.937008
vt 5.905512 9.84252
vt 3.937008 27.55906
vt 5.905512 29.52756
vt -5.905512 29.52756
vt -3.937008 27.55906
vt -3.937008 11.81102
vt 3.937008 11.81102
vt -5.905512 9.84252
vt -18.70079 9.84252
vt -19.68504 9.84252
vt -18.70079 29.52756
vt -19.68504 29.52756
vt -7.874016 31.49606
vt -7.874016 7.874016
vt 7.874016 7.874016
vt 7.874016 31.49606
vt 7.874016 9.84252
vt -7.874016 9.84252
vt 19.68504 -15.74803
vt 19.68504 -19.68504
vt 18.70079 -15.74803
vt 15.74803 -19.68504
vt 16.73228 -15.74803
vt 15.74803 -15.74803
vt -16.73228 0
vt -16.73228 39.37008
vt 19.68504 3.937008
vt 19.68504 -3.937008
vt 15.74803 3.937008
vt 15.74803 -3.937008
vt 18.70079 9.84252
vt 18.70079 29.52756
vt 19.68504 9.84252
vt 19.68504 29.52756
vt 16.73228 5.905512
vt 16.73228 -5.905512
vt 15.74803 5.905512
vt 15.74803 -5.905512
vt -19.68504 -19.68504
vt -19.68504 -15.74803
vt -15.74803 -19.68504
vt -18.70079 -15.74803
vt -16.73228 -15.74803
vt -15.74803 -15.74803
vt -16.73228 9.84252
vt -16.73228 29.52756
vt -15.74803 9.84252
vt -15.74803 29.52756
vt -19.68504 -5.905512
vt -19.68504 5.905512
vt -18.70079 -5.905512
vt -18.70079 5.905512
vt 15.74803 11.81102
vt 15.74803 27.55906
vt 19.68504 11.81102
vt 19.68504 27.55906
vt 16.73228 9.84252
vt 15.74803 9.84252
vt 16.73228 29.52756
vt 15.74803 29.52756
vt -15.74803 11.81102
vt -19.68504 11.81102
vt -15.74803 27.55906
vt -19.68504 27.55906
vt 19.68504 5.905512
vt 19.68504 -5.905512
vt 18.70079 5.905512
vt 18.70079 -5.905512
vt 19.68504 1.776357E-15
vt 15.74803 1.776357E-15
vt -16.73228 -5.905512
vt -16.73228 5.905512
vt -15.74803 -5.905512
vt -15.74803 5.905512
vt -19.68504 15.74803
vt -19.68504 19.68504
vt -18.70079 15.74803
vt -15.74803 19.68504
vt -16.73228 15.74803
vt -15.74803 15.74803

usemtl wood

f 3/3/1 2/2/1 1/1/1
f 2/2/1 3/3/1 4/4/1
f 7/7/2 6/6/2 5/5/2
f 6/6/2 7/7/2 8/8/2
f 8/8/2 7/7/2 9/9/2
f 9/9/2 7/7/2 10/10/2
f 2/13/3 12/12/3 11/11/3
f 12/12/3 2/13/3 4/14/3
f 13/16/4 6/11/4 8/15/4
f 6/11/4 13/16/4 14/12/4
f 17/19/1 16/18/1 15/17/1
f 16/18/1 17/19/1 18/20/1
f 21/23/5 20/22/5 19/21/5
f 20/22/5 21/23/5 22/24/5
f 25/27/6 24/26/6 23/25/6
f 24/26/6 25/27/6 26/28/6
f 24/26/6 26/28/6 27/29/6
f 27/29/6 26/28/6 20/30/6
f 19/31/6 23/25/6 24/26/6
f 23/25/6 19/31/6 28/32/6
f 28/32/6 19/31/6 20/30/6
f 28/32/6 20/30/6 26/28/6
f 30/35/4 23/34/4 29/33/4
f 23/34/4 30/35/4 25/36/4
f 33/38/3 32/32/3 31/37/3
f 32/32/3 33/38/3 34/39/3
f 32/32/3 34/39/3 35/25/3
f 35/25/3 34/39/3 36/27/3
f 37/28/3 31/37/3 32/32/3
f 31/37/3 37/28/3 38/40/3
f 38/40/3 37/28/3 36/27/3
f 38/40/3 36/27/3 34/39/3
f 38/40/3 34/39/3 39/41/3
f 41/40/6 30/27/6 40/39/6
f 30/27/6 41/40/6 42/37/6
f 30/27/6 42/37/6 43/28/6
f 43/28/6 42/37/6 44/32/6
f 29/25/6 40/39/6 30/27/6
f 40/39/6 29/25/6 45/38/6
f 45/38/6 29/25/6 44/32/6
f 45/38/6 44/32/6 42/37/6
f 45/38/6 42/37/6 46/42/6
f 16/45/2 47/44/2 15/43/2
f 47/44/2 16/45/2 11/46/2
f 11/46/2 16/45/2 1/47/2
f 11/46/2 1/47/2 2/48/2
f 7/17/3 48/4/3 10/2/3
f 48/4/3 7/17/3 49/19/3
f 48/14/4 9/49/4 10/13/4
f 9/49/4 48/14/4 50/50/4
f 51/53/2 24/52/2 27/51/2
f 24/52/2 51/53/2 52/54/2
f 28/57/1 43/56/1 44/55/1
f 43/56/1 28/57/1 26/58/1
f 53/61/2 32/60/2 35/59/2
f 32/60/2 53/61/2 54/62/2
f 12/65/5 17/64/5 55/63/5
f 17/64/5 12/65/5 18/66/5
f 18/66/5 12/65/5 3/67/5
f 3/67/5 12/65/5 4/68/5
f 54/32/3 21/30/3 56/28/3
f 21/30/3 54/32/3 53/25/3
f 21/30/3 53/25/3 22/31/3
f 22/31/3 53/25/3 51/26/3
f 52/29/3 56/28/3 21/30/3
f 56/28/3 52/29/3 57/27/3
f 57/27/3 52/29/3 51/26/3
f 57/27/3 51/26/3 53/25/3
f 54/71/4 37/70/4 32/69/4
f 37/70/4 54/71/4 56/72/4
f 30/75/5 26/74/5 25/73/5
f 26/74/5 30/75/5 43/76/5
f 19/79/1 52/78/1 21/77/1
f 52/78/1 19/79/1 24/80/1
f 17/4/6 47/17/6 55/19/6
f 47/17/6 17/4/6 15/2/6
f 58/12/6 6/13/6 14/14/6
f 6/13/6 58/12/6 5/11/6
f 36/83/1 53/82/1 35/81/1
f 53/82/1 36/83/1 57/84/1
f 51/87/4 20/86/4 22/85/4
f 20/86/4 51/87/4 27/88/4
f 44/91/2 23/90/2 28/89/2
f 23/90/2 44/91/2 29/92/2
f 12/14/4 47/11/4 11/13/4
f 47/11/4 12/14/4 55/12/4
f 58/19/1 7/94/1 5/93/1
f 7/94/1 58/19/1 49/4/1
f 56/97/5 36/96/5 37/95/5
f 36/96/5 56/97/5 57/98/5
f 13/101/5 58/100/5 14/99/5
f 58/100/5 13/101/5 49/102/5
f 49/102/5 13/101/5 50/103/5
f 49/102/5 50/103/5 48/104/5

usemtl stone

f 9/9/2 16/45/2 8/8/2
f 16/45/2 9/9/2 1/47/2
f 3/67/5 13/101/5 18/66/5
f 13/101/5 3/67/5 50/103/5
f 1/13/3 33/38/3 3/14/3
f 33/38/3 1/13/3 9/2/3
f 33/38/3 9/2/3 34/39/3
f 34/39/3 9/2/3 39/41/3
f 39/41/3 9/2/3 38/40/3
f 31/37/3 3/14/3 33/38/3
f 3/14/3 31/37/3 50/4/3
f 50/4/3 31/37/3 38/40/3
f 50/4/3 38/40/3 9/2/3
f 18/4/6 41/40/6 16/2/6
f 41/40/6 18/4/6 13/14/6
f 41/40/6 13/14/6 42/37/6
f 42/37/6 13/14/6 46/42/6
f 46/42/6 13/14/6 45/38/6
f 40/39/6 16/2/6 41/40/6
f 16/2/6 40/39/6 8/13/6
f 8/13/6 40/39/6 45/38/6
f 8/13/6 45/38/6 13/14/6

g detail

v 0.45625 0.43 -0.09249999
v 0.45625 0.43 -0.0125
v 0.45625 0.455 -0.09249999
v 0.45625 0.455 -0.0125
v 0.44375 0.545 -0.09249999
v 0.45625 0.545 -0.09249999
v 0.44375 0.57 -0.09249999
v 0.45625 0.57 -0.09249999
v 0.45625 0.545 -0.0125
v 0.44375 0.545 -0.0125
v 0.4625 0.3 -0.0125
v 0.4625 0.3 0.0125
v 0.4375 0.3 -0.0125
v 0.4375 0.3 0.0125
v 0.45625 0.57 -0.0125
v 0.4625 0.7 -0.0125
v 0.4625 0.7 0.0125
v 0.45625 0.43 0.1
v 0.45625 0.43 0.0125
v 0.44375 0.43 0.1
v 0.44375 0.43 0.0125
v 0.44375 0.57 -0.0125
v 0.45625 0.57 0.0125
v 0.45625 0.545 0.0125
v 0.45625 0.57 0.1
v 0.45625 0.545 0.1
v 0.45625 0.455 0.0125
v 0.45625 0.455 0.1
v 0.4375 0.7 -0.0125
v 0.4375 0.7 0.0125
v 0.44375 0.455 0.0125
v 0.44375 0.455 0.1
v 0.44375 0.545 0.0125
v 0.44375 0.57 0.0125
v 0.44375 0.545 0.1
v 0.44375 0.57 0.1
v 0.44375 0.43 -0.09249999
v 0.44375 0.455 -0.09249999
v 0.44375 0.43 -0.0125
v 0.44375 0.455 -0.0125


vt -6.938894E-17 5.11811
vt -3.149606 5.11811
vt -1.466553E-08 6.102362
vt -3.149606 6.102362
vt 0.738189 9.645669
vt 0.246063 9.645669
vt 0.738189 10.62992
vt 0.246063 10.62992
vt -0.246063 3.149606
vt -0.246063 -7.62608E-08
vt -0.738189 3.149606
vt -0.738189 -7.62608E-08
vt -6.411862E-30 3.149606
vt -6.411862E-30 4.133858
vt 0.984252 3.149606
vt 0.984252 4.133858
vt -6.746146E-08 9.645669
vt -3.149606 9.645669
vt -8.212699E-08 10.62992
vt -3.149606 10.62992
vt -3.149606 15.74803
vt -3.149606 3.552714E-15
vt -4.133858 15.74803
vt -4.133858 3.552714E-15
vt -0.246063 7.57874
vt -0.246063 4.133858
vt -0.738189 7.57874
vt -0.738189 4.133858
vt 0.246063 -7.62608E-08
vt 0.246063 3.149606
vt 0.738189 -7.62608E-08
vt 0.738189 3.149606
vt -4.133858 10.62992
vt -4.133858 9.645669
vt -7.57874 10.62992
vt -7.57874 9.645669
vt -4.133858 6.102362
vt -4.133858 5.11811
vt -7.57874 6.102362
vt -7.57874 5.11811
vt 3.149606 4.440892E-16
vt 3.149606 15.74803
vt 4.133858 4.440892E-16
vt 4.133858 15.74803
vt 4.133858 5.11811
vt 4.133858 6.102362
vt 7.57874 5.11811
vt 7.57874 6.102362
vt 0.246063 4.133858
vt 0.246063 7.57874
vt 0.738189 4.133858
vt 0.738189 7.57874
vt 4.133858 9.645669
vt 4.133858 10.62992
vt 7.57874 9.645669
vt 7.57874 10.62992
vt 2.842171E-14 4.133858
vt 2.842171E-14 3.149606
vt -0.984252 4.133858
vt -0.984252 3.149606
vt 0 5.11811
vt 1.466553E-08 6.102362
vt 3.149606 5.11811
vt 3.149606 6.102362
vt 0.738189 5.11811
vt 0.246063 5.11811
vt 0.738189 6.102362
vt 0.246063 6.102362
vt 0 3.552714E-15
vt 0.984252 4.071532E-32
vt 0.984252 15.74803
vt 0 15.74803
vt -0.738189 5.11811
vt -0.246063 5.11811
vt -0.246063 6.102362
vt -0.246063 9.645669
vt -0.738189 6.102362
vt -0.738189 9.645669
vt -0.246063 10.62992
vt -0.738189 10.62992
vt -0.984252 5.343885E-32
vt -0.984252 15.74803
vt 6.746146E-08 9.645669
vt 8.212699E-08 10.62992
vt 3.149606 9.645669
vt 3.149606 10.62992
vt -0.246063 -7.626078E-08
vt -0.738189 -7.626078E-08
vt 0.246063 -7.62608E-08
vt 0.246063 3.149606
vt 0.738189 -7.62608E-08
vt 0.738189 3.149606

usemtl wood

f 61/107/6 60/106/6 59/105/6
f 60/106/6 61/107/6 62/108/6
f 65/111/4 64/110/4 63/109/4
f 64/110/4 65/111/4 66/112/4
f 68/115/2 64/114/2 67/113/2
f 64/114/2 68/115/2 63/116/2
f 71/119/5 70/118/5 69/117/5
f 70/118/5 71/119/5 72/120/5
f 66/123/6 67/122/6 64/121/6
f 67/122/6 66/123/6 73/124/6
f 75/127/6 69/126/6 74/125/6
f 69/126/6 75/127/6 70/128/6
f 78/131/2 77/130/2 76/129/2
f 77/130/2 78/131/2 79/132/2
f 65/135/5 73/134/5 66/133/5
f 73/134/5 65/135/5 80/136/5
f 83/139/6 82/138/6 81/137/6
f 82/138/6 83/139/6 84/140/6
f 86/143/6 77/142/6 85/141/6
f 77/142/6 86/143/6 76/144/6
f 72/147/3 87/146/3 71/145/3
f 87/146/3 72/147/3 88/148/3
f 78/151/3 89/150/3 79/149/3
f 89/150/3 78/151/3 90/152/3
f 89/155/5 86/154/5 85/153/5
f 86/154/5 89/155/5 90/156/5
f 93/159/3 92/158/3 91/157/3
f 92/158/3 93/159/3 94/160/3
f 88/163/2 74/162/2 75/161/2
f 74/162/2 88/163/2 87/164/2
f 97/167/3 96/166/3 95/165/3
f 96/166/3 97/167/3 98/168/3
f 92/155/5 83/154/5 81/153/5
f 83/154/5 92/155/5 94/156/5
f 96/171/4 59/170/4 95/169/4
f 59/170/4 96/171/4 61/172/4
f 93/131/2 82/130/2 84/129/2
f 82/130/2 93/131/2 91/132/2
f 71/174/4 97/169/4 69/173/4
f 97/169/4 71/174/4 87/175/4
f 97/169/4 87/175/4 98/171/4
f 98/171/4 87/175/4 68/109/4
f 98/171/4 68/109/4 62/172/4
f 68/109/4 87/175/4 80/111/4
f 80/111/4 87/175/4 73/112/4
f 60/170/4 69/173/4 97/169/4
f 69/173/4 60/170/4 74/176/4
f 74/176/4 60/170/4 62/172/4
f 74/176/4 73/112/4 87/175/4
f 74/176/4 62/172/4 67/110/4
f 67/110/4 62/172/4 68/109/4
f 74/176/4 67/110/4 73/112/4
f 70/173/1 77/178/1 79/177/1
f 77/178/1 70/173/1 75/176/1
f 77/178/1 75/176/1 85/179/1
f 85/179/1 75/176/1 82/180/1
f 85/179/1 82/180/1 89/181/1
f 89/181/1 82/180/1 91/182/1
f 82/180/1 75/176/1 81/183/1
f 81/183/1 75/176/1 92/184/1
f 79/177/1 72/185/1 70/173/1
f 72/185/1 79/177/1 88/186/1
f 88/186/1 79/177/1 89/181/1
f 88/186/1 89/181/1 91/182/1
f 88/186/1 91/182/1 92/184/1
f 88/186/1 92/184/1 75/176/1
f 68/189/3 65/188/3 63/187/3
f 65/188/3 68/189/3 80/190/3
f 97/115/2 59/191/2 60/113/2
f 59/191/2 97/115/2 95/192/2
f 96/195/5 62/194/5 61/193/5
f 62/194/5 96/195/5 98/196/5

