# Created by Kenney (www.kenney.nl)

mtllib wallCurved.mtl

g wallCurved

v -0.4 0 0.425
v -0.2923159 0 0.417942
v -0.4 1 0.425
v -0.2923159 1 0.417942
v -0.2857896 0 0.4675142
v -0.4 0 0.475
v -0.2857896 1 0.4675142
v -0.4 1 0.475
v -0.1864743 0 0.3968888
v -0.1864743 1 0.3968888
v 0.425 0 -0.4
v 0.425 1 -0.4
v 0.417942 0 -0.2923159
v 0.417942 1 -0.2923159
v 0.475 1 -0.4
v 0.475 0 -0.4
v 0.4675142 1 -0.2857896
v 0.4675142 0 -0.2857896
v 0.2941842 1 0.1326662
v 0.2941842 0 0.1326662
v 0.2187184 1 0.2187184
v 0.2187184 0 0.2187184
v -0.1735333 0 0.4451851
v -0.1735333 1 0.4451851
v 0.3577722 1 0.0375
v 0.3577722 0 0.0375
v 0.314471 0 0.0125
v 0.314471 1 0.0125
v 0.2545165 0 0.1022282
v 0.2545165 1 0.1022282
v 0.4451851 1 -0.1735333
v 0.4451851 0 -0.1735333
v 0.4083946 1 -0.065152
v 0.4083946 0 -0.065152
v 0.3968888 0 -0.1864743
v 0.3622006 0 -0.08428617
v 0.1833631 0 0.1833631
v 0.1326662 0 0.2941842
v 0.1022282 0 0.2545165
v 0.0375 0 0.3577722
v 0.0125 0 0.314471
v -0.065152 0 0.4083946
v -0.08428617 0 0.3622006
v 0.1326662 1 0.2941842
v 0.0375 1 0.3577722
v -0.08428617 1 0.3622006
v 0.3968888 1 -0.1864743
v 0.1833631 1 0.1833631
v 0.0125 1 0.314471
v -0.065152 1 0.4083946
v 0.3622006 1 -0.08428617
v 0.1022282 1 0.2545165
v 0.5 0 -0.4
v 0.5 1 -0.4
v -0.4 1 0.4
v -0.4 0 0.4
v 0.5 1 -0.5
v 0.5 0 -0.5
v -0.5 1 0.4
v -0.5 1 0.5
v -0.4 1 0.5
v -0.5 0 0.4
v -0.5 0 0.5
v 0.4 1 -0.5
v 0.4 1 -0.4
v 0.4 0 -0.4
v -0.4 0 0.5
v 0.4 0 -0.5

vn -0.06540313 0 -0.9978589
vn -0.1305262 0 -0.9914449
vn 0.1305262 0 0.9914449
vn 0.06540313 0 0.9978589
vn -0.258819 0 -0.9659258
vn -0.9978589 0 -0.06540313
vn -0.9914449 0 -0.1305262
vn 0.9978589 0 0.06540313
vn 0.9914449 0 0.1305262
vn 0.7933533 0 0.6087614
vn 0.7071068 0 0.7071068
vn 0.258819 0 0.9659258
vn 0.8660254 0 0.5
vn -0.8660254 0 -0.5
vn -0.7933533 0 -0.6087614
vn 0.9659258 0 0.258819
vn 0.9238795 0 0.3826834
vn 0 -1 0
vn 0.6087614 0 0.7933533
vn 0.5 0 0.8660254
vn -0.3826834 0 -0.9238795
vn -0.9659258 0 -0.258819
vn -0.7071068 0 -0.7071068
vn -0.5 0 -0.8660254
vn 0.3826834 0 0.9238795
vn -0.9238795 0 -0.3826834
vn 0 1 0
vn -0.6087614 0 -0.7933533
vn 0 0 1
vn 1 0 0
vn -1 0 0
vn 0 0 -1

vt 16.80866 -8.724216E-19
vt 12.56003 -8.724216E-19
vt 16.80866 39.37008
vt 12.56003 39.37008
vt -12.43128 -1.227259E-18
vt -16.9374 -1.227259E-18
vt -12.43128 39.37008
vt -16.9374 39.37008
vt 14.49746 0
vt 10.24883 0
vt 14.49746 39.37008
vt 10.24883 39.37008
vt -16.80866 -8.724216E-19
vt -16.80866 39.37008
vt -12.56003 -8.724216E-19
vt -12.56003 39.37008
vt 16.9374 39.37008
vt 16.9374 -9.818072E-19
vt 12.43128 39.37008
vt 12.43128 -9.818072E-19
vt 3.709659 39.37008
vt 3.709659 0
vt -0.7964622 39.37008
vt -0.7964622 0
vt -10.12009 0
vt -14.62621 0
vt -10.12009 39.37008
vt -14.62621 39.37008
vt 6.597933 39.37008
vt 6.597933 0
vt 2.091812 39.37008
vt 2.091812 0
vt -6.469186 0
vt -6.469186 39.37008
vt -2.220558 0
vt -2.220558 39.37008
vt 12.10331 39.37008
vt 12.10331 0
vt 7.597186 39.37008
vt 7.597186 0
vt 18.70079 -15.74803
vt 16.73228 -15.74803
vt 18.40607 -11.25156
vt 17.52697 -6.832021
vt 16.07853 -2.565039
vt 16.45441 -11.5085
vt 15.62554 -7.341507
vt 14.08552 1.476378
vt 14.25987 -3.318353
vt 12.38075 0.492126
vt 11.58205 5.223081
vt 10.02034 4.024732
vt 8.610962 8.610962
vt 7.219019 7.219019
vt 5.223081 11.58205
vt 4.024732 10.02034
vt 1.476378 14.08552
vt 0.492126 12.38075
vt -2.565039 16.07853
vt -3.318353 14.25987
vt -6.832021 17.52697
vt -7.341507 15.62554
vt -11.25156 18.40607
vt -11.5085 16.45441
vt -15.74803 18.70079
vt -15.74803 16.73228
vt -2.091812 0
vt -6.597933 0
vt -2.091812 39.37008
vt -6.597933 39.37008
vt 11.97456 0
vt 7.725933 0
vt 11.97456 39.37008
vt 7.725933 39.37008
vt -14.49746 0
vt -14.49746 39.37008
vt -10.24883 0
vt -10.24883 39.37008
vt -3.580913 0
vt -3.580913 39.37008
vt 0.6677159 0
vt 0.6677159 39.37008
vt 0.7964622 0
vt -3.709659 0
vt 0.7964622 39.37008
vt -3.709659 39.37008
vt 9.283118 0
vt 5.03449 0
vt 9.283118 39.37008
vt 5.03449 39.37008
vt -7.597186 0
vt -12.10331 0
vt -7.597186 39.37008
vt -12.10331 39.37008
vt -9.283118 0
vt -9.283118 39.37008
vt -5.03449 0
vt -5.03449 39.37008
vt -18.70079 -15.74803
vt -18.40607 -11.25156
vt -16.73228 -15.74803
vt -17.52697 -6.832021
vt -16.07853 -2.565039
vt -16.45441 -11.5085
vt -15.62554 -7.341507
vt -14.08552 1.476378
vt -14.25987 -3.318353
vt -12.38075 0.492126
vt -11.58205 5.223081
vt -10.02034 4.024732
vt -8.610962 8.610962
vt -7.219019 7.219019
vt -5.223081 11.58205
vt -4.024732 10.02034
vt -1.476378 14.08552
vt -0.492126 12.38075
vt 2.565039 16.07853
vt 3.318353 14.25987
vt 6.832021 17.52697
vt 7.341507 15.62554
vt 11.25156 18.40607
vt 11.5085 16.45441
vt 15.74803 18.70079
vt 15.74803 16.73228
vt 14.62621 39.37008
vt 14.62621 0
vt 10.12009 39.37008
vt 10.12009 0
vt -4.905744 0
vt -9.411864 0
vt -4.905744 39.37008
vt -9.411864 39.37008
vt -11.97456 0
vt -11.97456 39.37008
vt -7.725933 0
vt -7.725933 39.37008
vt 9.411864 39.37008
vt 9.411864 0
vt 4.905744 39.37008
vt 4.905744 0
vt 6.469186 0
vt 2.220558 0
vt 6.469186 39.37008
vt 2.220558 39.37008
vt 3.580913 0
vt -0.6677159 0
vt 3.580913 39.37008
vt -0.6677159 39.37008
vt 19.68504 0
vt 18.70079 0
vt 19.68504 39.37008
vt 18.70079 39.37008
vt -15.74803 39.37008
vt -15.74803 0
vt -16.73228 39.37008
vt -16.73228 0
vt 15.74803 39.37008
vt 15.74803 0
vt 15.74803 15.74803
vt 19.68504 15.74803
vt 19.68504 19.68504
vt 15.74803 19.68504
vt -19.68504 -19.68504
vt -19.68504 -15.74803
vt -15.74803 -19.68504
vt -15.74803 -15.74803
vt 16.73228 0
vt 16.73228 39.37008
vt -15.74803 19.68504
vt -19.68504 19.68504
vt -19.68504 15.74803
vt -15.74803 15.74803
vt -18.70079 39.37008
vt -18.70079 0
vt -19.68504 39.37008
vt -19.68504 0
vt 19.68504 -15.74803
vt 19.68504 -19.68504
vt 15.74803 -19.68504
vt 15.74803 -15.74803

usemtl stone

f 3/3/1 2/2/2 1/1/1
f 2/2/2 3/3/1 4/4/2
f 7/7/3 6/6/4 5/5/3
f 6/6/4 7/7/3 8/8/4
f 4/11/2 9/10/5 2/9/2
f 9/10/5 4/11/2 10/12/5
f 13/15/7 12/14/6 11/13/6
f 12/14/6 13/15/7 14/16/7
f 17/19/9 16/18/8 15/17/8
f 16/18/8 17/19/9 18/20/9
f 21/23/11 20/22/10 19/21/10
f 20/22/10 21/23/11 22/24/11
f 24/27/12 5/26/3 23/25/12
f 5/26/3 24/27/12 7/28/3
f 19/31/10 26/30/13 25/29/13
f 26/30/13 19/31/10 20/32/10
f 29/35/15 28/34/14 27/33/14
f 28/34/14 29/35/15 30/36/15
f 33/39/17 32/38/16 31/37/16
f 32/38/16 33/39/17 34/40/17
f 18/43/18 11/42/18 16/41/18
f 11/42/18 18/43/18 32/44/18
f 11/42/18 32/44/18 34/45/18
f 11/42/18 34/45/18 13/46/18
f 13/46/18 34/45/18 35/47/18
f 35/47/18 34/45/18 26/48/18
f 35/47/18 26/48/18 36/49/18
f 36/49/18 26/48/18 27/50/18
f 27/50/18 26/48/18 20/51/18
f 27/50/18 20/51/18 29/52/18
f 29/52/18 20/51/18 22/53/18
f 29/52/18 22/53/18 37/54/18
f 37/54/18 22/53/18 38/55/18
f 37/54/18 38/55/18 39/56/18
f 39/56/18 38/55/18 40/57/18
f 39/56/18 40/57/18 41/58/18
f 41/58/18 40/57/18 42/59/18
f 41/58/18 42/59/18 43/60/18
f 43/60/18 42/59/18 23/61/18
f 43/60/18 23/61/18 9/62/18
f 9/62/18 23/61/18 5/63/18
f 9/62/18 5/63/18 2/64/18
f 2/64/18 5/63/18 6/65/18
f 2/64/18 6/65/18 1/66/18
f 44/69/19 40/68/20 38/67/19
f 40/68/20 44/69/19 45/70/20
f 10/73/5 43/72/21 9/71/5
f 43/72/21 10/73/5 46/74/21
f 35/77/22 14/76/7 13/75/7
f 14/76/7 35/77/22 47/78/22
f 37/81/23 30/80/15 29/79/15
f 30/80/15 37/81/23 48/82/23
f 21/85/11 38/84/19 22/83/11
f 38/84/19 21/85/11 44/86/19
f 46/89/21 41/88/24 43/87/21
f 41/88/24 46/89/21 49/90/24
f 50/93/25 23/92/12 42/91/25
f 23/92/12 50/93/25 24/94/12
f 27/97/14 51/96/26 36/95/26
f 51/96/26 27/97/14 28/98/14
f 12/101/27 17/100/27 15/99/27
f 17/100/27 12/101/27 31/102/27
f 31/102/27 12/101/27 33/103/27
f 33/103/27 12/101/27 14/104/27
f 33/103/27 14/104/27 47/105/27
f 33/103/27 47/105/27 25/106/27
f 25/106/27 47/105/27 51/107/27
f 25/106/27 51/107/27 28/108/27
f 25/106/27 28/108/27 19/109/27
f 19/109/27 28/108/27 30/110/27
f 19/109/27 30/110/27 21/111/27
f 21/111/27 30/110/27 48/112/27
f 21/111/27 48/112/27 44/113/27
f 44/113/27 48/112/27 52/114/27
f 44/113/27 52/114/27 45/115/27
f 45/115/27 52/114/27 49/116/27
f 45/115/27 49/116/27 50/117/27
f 50/117/27 49/116/27 46/118/27
f 50/117/27 46/118/27 24/119/27
f 24/119/27 46/118/27 10/120/27
f 24/119/27 10/120/27 7/121/27
f 7/121/27 10/120/27 4/122/27
f 7/121/27 4/122/27 8/123/27
f 8/123/27 4/122/27 3/124/27
f 31/127/16 18/126/9 17/125/9
f 18/126/9 31/127/16 32/128/16
f 45/131/20 42/130/25 40/129/20
f 42/130/25 45/131/20 50/132/25
f 36/135/26 47/134/22 35/133/22
f 47/134/22 36/135/26 51/136/26
f 25/139/13 34/138/17 33/137/17
f 34/138/17 25/139/13 26/140/13
f 49/143/24 39/142/28 41/141/24
f 39/142/28 49/143/24 52/144/28
f 52/147/28 37/146/23 39/145/28
f 37/146/23 52/147/28 48/148/23

usemtl wood

f 54/151/29 16/150/29 53/149/29
f 16/150/29 54/151/29 15/152/29
f 3/155/30 56/154/30 55/153/30
f 56/154/30 3/155/30 1/156/30
f 54/157/30 58/149/30 57/151/30
f 58/149/30 54/157/30 53/158/30
f 59/160/27 3/124/27 55/159/27
f 3/124/27 59/160/27 8/123/27
f 60/161/27 8/123/27 59/160/27
f 8/123/27 60/161/27 61/162/27
f 63/149/31 59/157/31 62/158/31
f 59/157/31 63/149/31 60/151/31
f 59/151/32 56/158/32 62/149/32
f 56/158/32 59/151/32 55/157/32
f 64/165/27 54/164/27 57/163/27
f 54/164/27 64/165/27 15/99/27
f 15/99/27 64/165/27 12/101/27
f 12/101/27 64/165/27 65/166/27
f 12/168/29 66/158/29 11/167/29
f 66/158/29 12/168/29 65/157/29
f 63/170/18 6/65/18 67/169/18
f 6/65/18 63/170/18 62/171/18
f 62/171/18 1/66/18 6/65/18
f 1/66/18 62/171/18 56/172/18
f 61/175/30 6/174/30 8/173/30
f 6/174/30 61/175/30 67/176/30
f 16/41/18 58/178/18 53/177/18
f 58/178/18 16/41/18 68/179/18
f 68/179/18 16/41/18 11/42/18
f 68/179/18 11/42/18 66/180/18
f 66/154/31 64/175/31 68/176/31
f 64/175/31 66/154/31 65/153/31
f 64/153/32 58/176/32 68/154/32
f 58/176/32 64/153/32 57/175/32
f 61/153/29 63/176/29 67/154/29
f 63/176/29 61/153/29 60/175/29

