# Created by Kenney (www.kenney.nl)

mtllib wallBlockHalf.mtl

g wallBlockHalf

v 0.5 0 0.5
v 0.5 0 0.4
v 0.4 0 0.5
v 0.475 0 0.4
v 0.4 0 0.475
v 0.5 0.5 0.4
v 0.5 0.5 0.5
v -0.4 0 0.5
v -0.5 0 0.5
v -0.4 0.5 0.5
v -0.5 0.5 0.5
v -0.4 0.5 0.475
v -0.4 0 0.475
v -0.5 0 0.4
v -0.5 0.5 0.4
v 0.4 0.5 0.5
v 0.4 0.5 0.475
v -0.5 0 -0.5
v -0.5 0.5 -0.5
v -0.5 0 -0.4
v -0.5 0.5 -0.4
v -0.4 0.5 -0.5
v -0.4 0 -0.5
v -0.4 0.5 -0.475
v -0.4 0 -0.475
v -0.475 0 0.4
v 0.475 0.5 0.4
v -0.475 0.5 0.4
v 0.5 0.5 -0.5
v 0.5 0.5 -0.4
v 0.4 0.5 -0.5
v 0.475 0.5 -0.4
v 0.4 0.5 -0.475
v -0.475 0.5 -0.4
v 0.5 0 -0.5
v 0.5 0 -0.4
v 0.475 0 -0.4
v 0.4 0 -0.5
v 0.4 0 -0.475
v -0.475 0 -0.4

vn 0 -1 0
vn 1 0 0
vn 0 0 1
vn -1 0 0
vn 0 1 0
vn 0 0 -1
vn 0.7071068 0 -0.7071068

vt 19.68504 19.68504
vt 19.68504 15.74803
vt 15.74803 19.68504
vt 18.70079 15.74803
vt 15.74803 18.70079
vt -15.74803 19.68504
vt -15.74803 0
vt -19.68504 19.68504
vt -19.68504 0
vt -18.70079 19.68504
vt -18.70079 -1.136868E-14
vt -19.68504 -1.136868E-14
vt 15.74803 -4.263256E-14
vt 19.68504 -4.263256E-14
vt 19.68504 0
vt 15.74803 0
vt 18.70079 0
vt 18.70079 19.68504
vt -19.68504 -4.263256E-14
vt -15.74803 -4.263256E-14
vt 19.68504 -1.136868E-14
vt 18.70079 -1.136868E-14
vt -15.74803 18.70079
vt -18.70079 15.74803
vt -19.68504 15.74803
vt -19.68504 -19.68504
vt -19.68504 -15.74803
vt -15.74803 -19.68504
vt -18.70079 -15.74803
vt -15.74803 -18.70079
vt 15.74803 -19.68504
vt 15.74803 -18.70079
vt 19.68504 -19.68504
vt 18.70079 -15.74803
vt 19.68504 -15.74803
vt -18.70079 0
vt -18.70079 -1.96997E-27
vt -19.68504 -1.96997E-27
vt 19.68504 1.96997E-27
vt 18.70079 1.96997E-27
vt 15.74803 -1.36152E-28
vt -15.74803 -1.36152E-28
vt 15.74803 1.36152E-28
vt -15.74803 1.36152E-28
vt -15.74803 -4.050093E-14
vt 15.74803 -4.050093E-14

usemtl wood

f 3/3/1 2/2/1 1/1/1
f 2/2/1 3/3/1 4/4/1
f 4/4/1 3/3/1 5/5/1
f 7/8/2 2/7/2 6/6/2
f 2/7/2 7/8/2 1/9/2
f 10/6/3 9/9/3 8/7/3
f 9/9/3 10/6/3 11/8/3
f 10/8/2 13/11/2 12/10/2
f 13/11/2 10/8/2 8/12/2
f 9/14/4 15/3/4 14/13/4
f 15/3/4 9/14/4 11/1/4
f 7/1/3 3/16/3 1/15/3
f 3/16/3 7/1/3 16/3/3
f 3/15/4 17/18/4 5/17/4
f 17/18/4 3/15/4 16/1/4
f 20/20/4 19/8/4 18/19/4
f 19/8/4 20/20/4 21/6/4
f 24/18/2 23/21/2 22/1/2
f 23/21/2 24/18/2 25/22/2
f 8/6/1 26/24/1 13/23/1
f 26/24/1 8/6/1 9/8/1
f 26/24/1 9/8/1 14/25/1
f 27/24/5 7/8/5 6/25/5
f 7/8/5 27/24/5 16/6/5
f 16/6/5 27/24/5 17/23/5
f 28/4/5 10/3/5 12/5/5
f 10/3/5 28/4/5 11/1/5
f 11/1/5 28/4/5 15/2/5
f 31/28/5 30/27/5 29/26/5
f 30/27/5 31/28/5 32/29/5
f 32/29/5 31/28/5 33/30/5
f 19/1/6 23/16/6 18/15/6
f 23/16/6 19/1/6 22/3/6
f 19/33/5 24/32/5 22/31/5
f 24/32/5 19/33/5 34/34/5
f 34/34/5 19/33/5 21/35/5
f 30/3/2 35/15/2 29/1/2
f 35/15/2 30/3/2 36/16/2
f 37/34/1 35/33/1 36/35/1
f 35/33/1 37/34/1 38/31/1
f 38/31/1 37/34/1 39/32/1
f 27/10/6 2/9/6 4/36/6
f 2/9/6 27/10/6 6/8/6
f 30/1/3 37/17/3 36/15/3
f 37/17/3 30/1/3 32/18/3
f 34/10/3 20/38/3 40/37/3
f 20/38/3 34/10/3 21/8/3
f 15/1/6 26/40/6 14/39/6
f 26/40/6 15/1/6 28/18/6
f 31/6/6 35/9/6 38/7/6
f 35/9/6 31/6/6 29/8/6
f 39/36/4 31/8/4 38/9/4
f 31/8/4 39/36/4 33/10/4
f 25/30/1 18/26/1 23/28/1
f 18/26/1 25/30/1 40/29/1
f 18/26/1 40/29/1 20/27/1

usemtl stone

f 33/30/5 27/24/5 32/29/5
f 27/24/5 33/30/5 17/23/5
f 17/23/5 33/30/5 12/5/5
f 12/5/5 33/30/5 24/32/5
f 12/5/5 24/32/5 28/4/5
f 28/4/5 24/32/5 34/34/5
f 24/3/6 39/42/6 25/41/6
f 39/42/6 24/3/6 33/6/6
f 17/3/3 13/44/3 5/43/3
f 13/44/3 17/3/3 12/6/3
f 27/6/2 37/16/2 32/3/2
f 37/16/2 27/6/2 4/7/2
f 26/46/4 34/6/4 40/45/4
f 34/6/4 26/46/4 28/3/4
f 5/5/1 37/34/1 4/4/1
f 37/34/1 5/5/1 39/32/1
f 39/32/1 5/5/1 13/23/1
f 39/32/1 13/23/1 25/30/1
f 25/30/1 13/23/1 26/24/1
f 25/30/1 26/24/1 40/29/1

usemtl _defaultMat

f 33/16/7 37/6/7 39/7/7
f 37/16/7 33/6/7 32/7/7

