# Created by Kenney (www.kenney.nl)

mtllib wallWindowRound.mtl

g wallWindowRound

v 0.5 0.7007061 0.09200034
v 0.475 0.7007061 0.09200034
v 0.5 0.7212634 0.07433034
v 0.475 0.7212634 0.07433034
v 0.425 0.7369 -0.05218704
v 0.425 0.746675 -0.02690305
v 0.4 0.7369 -0.05218704
v 0.4 0.746675 -0.02690305
v 0.5 0.7369 -0.05218704
v 0.475 0.7369 -0.05218704
v 0.5 0.7212634 -0.07433034
v 0.475 0.7212634 -0.07433034
v 0.5 0.746675 -0.02690305
v 0.5 0.75 -3.609557E-16
v 0.475 0.746675 -0.02690305
v 0.475 0.75 -3.609557E-16
v 0.4 0.65 -0.11
v 0.4 0.3 -0.06
v 0.4 0.25 -0.11
v 0.4 0.25 0.11
v 0.4 0.6764653 -0.1041336
v 0.4 0.7007061 -0.09200034
v 0.4 0.7212634 -0.07433034
v 0.4 0.3 0.06
v 0.4 0.65 0.06
v 0.4 0.7212634 0.07433034
v 0.4 0.7007061 0.09200034
v 0.4 0.6764653 0.1041336
v 0.4 0.65 0.11
v 0.4 0.65 -0.06
v 0.4 0.6634773 -0.05587364
v 0.4 0.6756477 -0.0487642
v 0.4 0.6858615 -0.03905125
v 0.4 0.6935734 -0.02725336
v 0.4 0.6983716 -0.01400042
v 0.4 0.75 -3.609557E-16
v 0.4 0.7 -7.219114E-16
v 0.4 0.6983716 0.01400042
v 0.4 0.746675 0.02690305
v 0.4 0.6935734 0.02725336
v 0.4 0.7369 0.05218704
v 0.4 0.6858615 0.03905125
v 0.4 0.6756477 0.0487642
v 0.4 0.6634773 0.05587364
v 0.425 0.75 -3.609557E-16
v 0.5 0.6764653 0.1041336
v 0.475 0.6764653 0.1041336
v 0.425 0.746675 0.02690305
v 0.425 0.65 0.11
v 0.425 0.6764653 0.1041336
v 0.425 0.65 -0.11
v 0.425 0.6764653 -0.1041336
v 0.5 0.65 -0.11
v 0.5 0.6764653 -0.1041336
v 0.475 0.65 -0.11
v 0.475 0.6764653 -0.1041336
v 0.5 0.7007061 -0.09200034
v 0.475 0.7007061 -0.09200034
v 0.425 0.7369 0.05218704
v 0.425 0.25 0.11
v 0.5 0.65 0.11
v 0.475 0.65 0.11
v 0.425 0.7212634 0.07433034
v 0.5 0.746675 0.02690305
v 0.5 0.7369 0.05218704
v 0.475 0.746675 0.02690305
v 0.475 0.7369 0.05218704
v 0.425 0.7212634 -0.07433034
v 0.425 0.7007061 0.09200034
v 0.425 0.7007061 -0.09200034
v 0.425 0.25 -0.11
v 0.5 0.6756477 -0.0487642
v 0.5 0.6858615 -0.03905125
v 0.5 1 -0.5
v 0.5 1 -0.4
v 0.4 1 -0.5
v 0.475 1 -0.4
v 0.425 1 -0.4
v 0.4 1 -0.4
v 0.4 0 0.4
v 0.425 0 0.4
v 0.4 1 0.4
v 0.425 1 0.4
v 0.425 0 -0.4
v 0.4 0 -0.4
v 0.5 0 -0.4
v 0.475 0 -0.4
v 0.425 0.65 -0.16
v 0.425 0.2 -0.16
v 0.425 0.2 0.16
v 0.425 0.6894235 -0.1524173
v 0.425 0.7257275 -0.1352786
v 0.425 0.7257275 0.1352786
v 0.425 0.6894235 0.1524173
v 0.425 0.65 0.16
v 0.425 0.25 0.16
v 0.425 0.7566358 -0.1096586
v 0.425 0.7802106 -0.07716332
v 0.425 0.7949739 -0.03983026
v 0.425 0.8 -7.219114E-16
v 0.425 0.7949739 0.03983026
v 0.425 0.7802106 0.07716332
v 0.425 0.7566358 0.1096586
v 0.5 0.6634773 -0.05587364
v 0.475 0.7257275 -0.1352786
v 0.475 0.7566358 -0.1096586
v 0.475 0.7802106 -0.07716332
v 0.475 0.7949739 -0.03983026
v 0.475 0.8 -7.219114E-16
v 0.475 0.7949739 0.03983026
v 0.475 0.7802106 0.07716332
v 0.475 0.7566358 0.1096586
v 0.475 0.7257275 0.1352786
v 0.475 0.25 0.11
v 0.475 0.2 0.16
v 0.475 0.25 -0.11
v 0.475 0.2 -0.16
v 0.475 0.6894235 -0.1524173
v 0.475 0.65 -0.16
v 0.475 0.6894235 0.1524173
v 0.475 0.65 0.16
v 0.475 0.25 0.16
v 0.5 0.65 -0.06
v 0.5 0.6935734 -0.02725336
v 0.5 0.6983716 -0.01400042
v 0.5 0.7 -7.219114E-16
v 0.5 0.6983716 0.01400042
v 0.5 0.6935734 0.02725336
v 0.5 0.6858615 0.03905125
v 0.5 0.6756477 0.0487642
v 0.5 0.6634773 0.05587364
v 0.5 0.65 0.06
v 0.5 0.3 0.06
v 0.5 0.25 0.11
v 0.5 0.3 -0.06
v 0.5 0.25 -0.11
v 0.4 0 -0.5
v 0.5 0 -0.5
v 0.5 1 0.4
v 0.5 0 0.4
v 0.5 1 0.5
v 0.5 0 0.5
v 0.475 0 0.4
v 0.475 1 0.4
v 0.4 0 0.5
v 0.4 1 0.5

vn 0 0.5539015 0.8325822
vn 0 0.73994 0.6726728
vn 0 0.881448 -0.4722809
vn 0 0.9699093 -0.2434666
vn 0 0.73994 -0.6726728
vn 0 1 0
vn -1 0 0
vn 0 0.3345282 0.9423857
vn 0 0.9699093 0.2434666
vn 0 0.1088516 0.994058
vn 0 0.1088516 -0.994058
vn 0 0.3345282 -0.9423857
vn 0 0.5539015 -0.8325822
vn 0 0.881448 0.4722809
vn 0 0 1
vn 0 -1 0
vn 0 0 -1
vn 0 -0.6007817 0.799413
vn 0 -0.7682213 0.6401844
vn 0 -0.4012665 0.9159613
vn 1 0 0
vn 0 -0.4012665 -0.9159613
vn 0 -0.6007817 -0.799413
vn 0 -0.7682213 -0.6401844
vn 0 -0.1480089 0.988986
vn 0 -0.1480089 -0.988986
vn 0 -0.9733051 -0.2295151
vn 0 -0.8946456 0.4467764
vn 0 -0.8946456 -0.4467764
vn 0 -0.9733051 0.2295151

vt 19.68504 18.55959
vt 18.70079 18.55959
vt 19.68504 19.62682
vt 18.70079 19.62682
vt -16.73228 8.545185
vt -16.73228 9.612419
vt -15.74803 8.545185
vt -15.74803 9.612419
vt -19.68504 15.05663
vt -18.70079 15.05663
vt -19.68504 13.98939
vt -18.70079 13.98939
vt -19.68504 2.554601
vt -19.68504 3.621836
vt -18.70079 2.554601
vt -18.70079 3.621836
vt -4.330709 25.59055
vt -2.362205 11.81102
vt -4.330709 9.84252
vt 4.330709 9.84252
vt -4.099749 26.63249
vt -3.622061 27.58685
vt -2.926392 28.3962
vt 2.362205 11.81102
vt 2.362205 25.59055
vt 2.926392 28.3962
vt 3.622061 27.58685
vt 4.099749 26.63249
vt 4.330709 25.59055
vt -2.362205 25.59055
vt -2.054608 29.01181
vt -2.19975 26.12115
vt -1.91985 26.6003
vt -1.059175 29.39665
vt -1.537451 27.00242
vt -1.072967 27.30604
vt -0.5511976 27.49495
vt -1.357408E-14 29.52756
vt -2.778494E-14 27.55906
vt 0.5511976 27.49495
vt 1.059175 29.39665
vt 1.072967 27.30604
vt 2.054608 29.01181
vt 1.537451 27.00242
vt 1.91985 26.6003
vt 2.19975 26.12115
vt -16.73228 2.554601
vt -16.73228 3.621836
vt -15.74803 2.554601
vt -15.74803 3.621836
vt 19.68504 21.98072
vt 18.70079 21.98072
vt 19.68504 23.04796
vt 18.70079 23.04796
vt 16.73228 3.621836
vt 16.73228 2.554601
vt 15.74803 3.621836
vt 15.74803 2.554601
vt 16.73228 24.04692
vt 15.74803 24.04692
vt 16.73228 25.11415
vt 15.74803 25.11415
vt -15.74803 24.04692
vt -16.73228 24.04692
vt -15.74803 25.11415
vt -16.73228 25.11415
vt -19.68504 24.04692
vt -19.68504 25.11415
vt -18.70079 24.04692
vt -18.70079 25.11415
vt -19.68504 18.55959
vt -19.68504 19.62682
vt -18.70079 18.55959
vt -18.70079 19.62682
vt -19.68504 8.545185
vt -19.68504 9.612419
vt -18.70079 8.545185
vt -18.70079 9.612419
vt 16.73228 9.612419
vt 16.73228 8.545185
vt 15.74803 9.612419
vt 15.74803 8.545185
vt 16.73228 9.84252
vt 15.74803 9.84252
vt 16.73228 25.59055
vt 15.74803 25.59055
vt 19.68504 24.04692
vt 18.70079 24.04692
vt 19.68504 25.11415
vt 18.70079 25.11415
vt 16.73228 15.05663
vt 16.73228 13.98939
vt 15.74803 15.05663
vt 15.74803 13.98939
vt 19.68504 9.612419
vt 19.68504 8.545185
vt 18.70079 9.612419
vt 18.70079 8.545185
vt 19.68504 3.621836
vt 19.68504 2.554601
vt 18.70079 3.621836
vt 18.70079 2.554601
vt -16.73228 15.05663
vt -15.74803 15.05663
vt -16.73228 13.98939
vt -15.74803 13.98939
vt 16.73228 21.98072
vt 15.74803 21.98072
vt 16.73228 23.04796
vt 15.74803 23.04796
vt -15.74803 21.98072
vt -16.73228 21.98072
vt -15.74803 23.04796
vt -16.73228 23.04796
vt 19.68504 15.05663
vt 19.68504 13.98939
vt 18.70079 15.05663
vt 18.70079 13.98939
vt 16.73228 18.55959
vt 15.74803 18.55959
vt 16.73228 19.62682
vt 15.74803 19.62682
vt -19.68504 21.98072
vt -19.68504 23.04796
vt -18.70079 21.98072
vt -18.70079 23.04796
vt -15.74803 18.55959
vt -16.73228 18.55959
vt -15.74803 19.62682
vt -16.73228 19.62682
vt 16.73228 4.330709
vt 16.73228 -4.330709
vt 15.74803 4.330709
vt 15.74803 -4.330709
vt -16.73228 9.84252
vt -16.73228 25.59055
vt -15.74803 9.84252
vt -15.74803 25.59055
vt 19.68504 17.95294
vt 15.74803 17.95294
vt 19.68504 18.50785
vt 15.74803 18.50785
vt -19.68504 -19.68504
vt -19.68504 -15.74803
vt -15.74803 -19.68504
vt -18.70079 -15.74803
vt -16.73228 -15.74803
vt -15.74803 -15.74803
vt -15.74803 0
vt -16.73228 0
vt -15.74803 39.37008
vt -16.73228 39.37008
vt 16.73228 0
vt 15.74803 0
vt 16.73228 39.37008
vt 15.74803 39.37008
vt 19.68504 0
vt 18.70079 0
vt 19.68504 39.37008
vt 18.70079 39.37008
vt -6.299212 25.59055
vt -6.299212 7.874016
vt 6.299212 7.874016
vt -6.000681 27.14266
vt -5.325931 28.57195
vt 5.325931 28.57195
vt 6.000681 27.14266
vt 6.299212 25.59055
vt 6.299212 9.84252
vt -4.317266 29.78881
vt -3.037926 30.71695
vt -1.568121 31.29818
vt -2.842171E-14 31.49606
vt -1.536743E-14 29.52756
vt 1.568121 31.29818
vt 3.037926 30.71695
vt 4.317266 29.78881
vt 19.68504 21.44525
vt 15.74803 21.44525
vt 19.68504 22.00016
vt 15.74803 22.00016
vt 2.971435E-14 31.49606
vt 1.550349E-14 29.52756
vt -6.299212 9.84252
vt 1.169491E-14 29.52756
vt 2.590576E-14 27.55906
vt 19.68504 9.84252
vt 18.70079 9.84252
vt 19.68504 25.59055
vt 18.70079 25.59055
vt -19.68504 9.84252
vt -19.68504 25.59055
vt -18.70079 9.84252
vt -18.70079 25.59055
vt 19.68504 4.330709
vt 19.68504 -4.330709
vt 18.70079 4.330709
vt 18.70079 -4.330709
vt -19.68504 0
vt -19.68504 39.37008
vt -19.68504 21.44525
vt -19.68504 22.00016
vt -15.74803 21.44525
vt -15.74803 22.00016
vt -19.68504 17.95294
vt -19.68504 18.50785
vt -15.74803 17.95294
vt -15.74803 18.50785
vt 19.68504 23.77779
vt 15.74803 23.77779
vt 19.68504 24.3327
vt 15.74803 24.3327
vt -19.68504 -2.362205
vt -19.68504 2.362205
vt -15.74803 -2.362205
vt -15.74803 2.362205
vt -19.68504 23.77779
vt -19.68504 24.3327
vt -15.74803 23.77779
vt -15.74803 24.3327
vt -19.68504 2.629016
vt -19.68504 3.183929
vt -15.74803 2.629016
vt -15.74803 3.183929
vt 19.68504 14.04222
vt 19.68504 13.48731
vt 15.74803 14.04222
vt 15.74803 13.48731
vt -18.70079 0
vt -18.70079 39.37008
vt -19.68504 15.74803
vt -19.68504 19.68504
vt -18.70079 15.74803
vt -15.74803 19.68504
vt -16.73228 15.74803
vt -15.74803 15.74803
vt -19.68504 13.48731
vt -19.68504 14.04222
vt -15.74803 13.48731
vt -15.74803 14.04222
vt 19.68504 -15.74803
vt 19.68504 -19.68504
vt 18.70079 -15.74803
vt 15.74803 -19.68504
vt 16.73228 -15.74803
vt 15.74803 -15.74803
vt 19.68504 8.841699
vt 19.68504 8.286785
vt 15.74803 8.841699
vt 15.74803 8.286785
vt 19.68504 19.68504
vt 19.68504 15.74803
vt 15.74803 19.68504
vt 18.70079 15.74803
vt 16.73228 15.74803
vt 15.74803 15.74803
vt -19.68504 11.81102
vt -15.74803 11.81102
vt -19.68504 8.286785
vt -19.68504 8.841699
vt -15.74803 8.286785
vt -15.74803 8.841699
vt 19.68504 11.81102
vt 15.74803 11.81102
vt 19.68504 3.183929
vt 19.68504 2.629016
vt 15.74803 3.183929
vt 15.74803 2.629016

usemtl wood

f 3/3/2 2/2/1 1/1/1
f 2/2/1 3/3/2 4/4/2
f 7/7/3 6/6/4 5/5/3
f 6/6/4 7/7/3 8/8/4
f 11/11/5 10/10/3 9/9/3
f 10/10/3 11/11/5 12/12/5
f 15/15/4 14/14/6 13/13/4
f 14/14/6 15/15/4 16/16/6
f 19/19/7 18/18/7 17/17/7
f 18/18/7 19/19/7 20/20/7
f 17/17/7 18/18/7 21/21/7
f 21/21/7 18/18/7 22/22/7
f 22/22/7 18/18/7 23/23/7
f 18/18/7 20/20/7 24/24/7
f 24/24/7 20/20/7 25/25/7
f 25/25/7 20/20/7 26/26/7
f 26/26/7 20/20/7 27/27/7
f 27/27/7 20/20/7 28/28/7
f 28/28/7 20/20/7 29/29/7
f 30/30/7 23/23/7 18/18/7
f 23/23/7 30/30/7 7/31/7
f 7/31/7 30/30/7 31/32/7
f 7/31/7 31/32/7 32/33/7
f 7/31/7 32/33/7 8/34/7
f 8/34/7 32/33/7 33/35/7
f 8/34/7 33/35/7 34/36/7
f 8/34/7 34/36/7 35/37/7
f 8/34/7 35/37/7 36/38/7
f 36/38/7 35/37/7 37/39/7
f 36/38/7 37/39/7 38/40/7
f 36/38/7 38/40/7 39/41/7
f 39/41/7 38/40/7 40/42/7
f 39/41/7 40/42/7 41/43/7
f 41/43/7 40/42/7 42/44/7
f 41/43/7 42/44/7 43/45/7
f 41/43/7 43/45/7 44/46/7
f 41/43/7 44/46/7 26/26/7
f 26/26/7 44/46/7 25/25/7
f 8/49/4 45/48/6 6/47/4
f 45/48/6 8/49/4 36/50/6
f 1/53/1 47/52/8 46/51/8
f 47/52/8 1/53/1 2/54/1
f 36/57/6 48/56/9 45/55/6
f 48/56/9 36/57/6 39/58/9
f 50/61/8 29/60/10 49/59/10
f 29/60/10 50/61/8 28/62/8
f 21/65/12 51/64/11 17/63/11
f 51/64/11 21/65/12 52/66/12
f 55/69/11 54/68/12 53/67/11
f 54/68/12 55/69/11 56/70/12
f 58/73/13 11/72/5 57/71/13
f 11/72/5 58/73/13 12/74/5
f 10/77/3 13/76/4 9/75/3
f 13/76/4 10/77/3 15/78/4
f 39/81/9 59/80/14 48/79/9
f 59/80/14 39/81/9 41/82/14
f 49/85/10 20/84/15 60/83/15
f 20/84/15 49/85/10 29/86/10
f 46/89/8 62/88/10 61/87/10
f 62/88/10 46/89/8 47/90/8
f 41/93/14 63/92/2 59/91/14
f 63/92/2 41/93/14 26/94/2
f 66/97/9 65/96/14 64/95/9
f 65/96/14 66/97/9 67/98/14
f 16/101/6 64/100/9 14/99/6
f 64/100/9 16/101/6 66/102/9
f 68/105/5 7/104/3 5/103/3
f 7/104/3 68/105/5 23/106/5
f 69/109/1 28/108/8 50/107/8
f 28/108/8 69/109/1 27/110/1
f 22/113/13 52/112/12 21/111/12
f 52/112/12 22/113/13 70/114/13
f 67/117/14 3/116/2 65/115/14
f 3/116/2 67/117/14 4/118/2
f 63/121/2 27/120/1 69/119/1
f 27/120/1 63/121/2 26/122/2
f 56/125/12 57/124/13 54/123/12
f 57/124/13 56/125/12 58/126/13
f 23/129/5 70/128/13 22/127/13
f 70/128/13 23/129/5 68/130/5
f 20/133/16 71/132/16 60/131/16
f 71/132/16 20/133/16 19/134/16
f 19/137/17 51/136/11 71/135/17
f 51/136/11 19/137/17 17/138/11
f 73/141/19 32/140/18 72/139/18
f 32/140/18 73/141/19 33/142/19
f 76/145/6 75/144/6 74/143/6
f 75/144/6 76/145/6 77/146/6
f 77/146/6 76/145/6 78/147/6
f 78/147/6 76/145/6 79/148/6
f 82/151/17 81/150/17 80/149/17
f 81/150/17 82/151/17 83/152/17
f 78/155/15 85/154/15 84/153/15
f 85/154/15 78/155/15 79/156/15
f 75/159/15 87/158/15 86/157/15
f 87/158/15 75/159/15 77/160/15
f 89/162/7 71/19/7 88/161/7
f 71/19/7 89/162/7 90/163/7
f 88/161/7 71/19/7 91/164/7
f 91/164/7 71/19/7 92/165/7
f 71/19/7 90/163/7 60/20/7
f 60/20/7 90/163/7 49/29/7
f 49/29/7 90/163/7 93/166/7
f 93/166/7 90/163/7 94/167/7
f 94/167/7 90/163/7 95/168/7
f 95/168/7 90/163/7 96/169/7
f 51/17/7 92/165/7 71/19/7
f 92/165/7 51/17/7 97/170/7
f 97/170/7 51/17/7 52/21/7
f 97/170/7 52/21/7 98/171/7
f 98/171/7 52/21/7 70/22/7
f 98/171/7 70/22/7 68/23/7
f 98/171/7 68/23/7 99/172/7
f 99/172/7 68/23/7 5/31/7
f 99/172/7 5/31/7 6/34/7
f 99/172/7 6/34/7 100/173/7
f 100/173/7 6/34/7 45/174/7
f 100/173/7 45/174/7 101/175/7
f 101/175/7 45/174/7 48/41/7
f 101/175/7 48/41/7 59/43/7
f 101/175/7 59/43/7 102/176/7
f 102/176/7 59/43/7 63/26/7
f 102/176/7 63/26/7 69/27/7
f 102/176/7 69/27/7 103/177/7
f 103/177/7 69/27/7 50/28/7
f 103/177/7 50/28/7 49/29/7
f 103/177/7 49/29/7 93/166/7
f 72/180/18 31/179/20 104/178/20
f 31/179/20 72/180/18 32/181/18
f 106/177/21 55/29/21 105/166/21
f 55/29/21 106/177/21 56/28/21
f 56/28/21 106/177/21 107/176/21
f 56/28/21 107/176/21 58/27/21
f 58/27/21 107/176/21 12/26/21
f 12/26/21 107/176/21 108/175/21
f 12/26/21 108/175/21 10/43/21
f 10/43/21 108/175/21 15/41/21
f 15/41/21 108/175/21 109/182/21
f 15/41/21 109/182/21 16/183/21
f 16/183/21 109/182/21 110/172/21
f 16/183/21 110/172/21 66/34/21
f 66/34/21 110/172/21 67/31/21
f 67/31/21 110/172/21 111/171/21
f 67/31/21 111/171/21 4/23/21
f 4/23/21 111/171/21 2/22/21
f 2/22/21 111/171/21 112/170/21
f 2/22/21 112/170/21 47/21/21
f 47/21/21 112/170/21 62/17/21
f 62/17/21 112/170/21 113/165/21
f 62/17/21 113/165/21 114/19/21
f 115/162/21 114/19/21 113/165/21
f 115/162/21 116/20/21 114/19/21
f 117/163/21 116/20/21 115/162/21
f 117/163/21 118/167/21 116/20/21
f 118/167/21 117/163/21 119/168/21
f 116/20/21 118/167/21 105/166/21
f 116/20/21 105/166/21 55/29/21
f 115/162/21 113/165/21 120/164/21
f 115/162/21 120/164/21 121/161/21
f 115/162/21 121/161/21 122/184/21
f 9/43/21 123/25/21 11/26/21
f 123/25/21 9/43/21 104/46/21
f 104/46/21 9/43/21 72/45/21
f 72/45/21 9/43/21 13/41/21
f 72/45/21 13/41/21 73/44/21
f 73/44/21 13/41/21 124/42/21
f 124/42/21 13/41/21 125/40/21
f 125/40/21 13/41/21 14/185/21
f 125/40/21 14/185/21 126/186/21
f 126/186/21 14/185/21 127/37/21
f 127/37/21 14/185/21 64/34/21
f 127/37/21 64/34/21 128/36/21
f 128/36/21 64/34/21 65/31/21
f 128/36/21 65/31/21 129/35/21
f 129/35/21 65/31/21 130/33/21
f 130/33/21 65/31/21 131/32/21
f 131/32/21 65/31/21 3/23/21
f 131/32/21 3/23/21 132/30/21
f 132/30/21 3/23/21 133/18/21
f 134/19/21 133/18/21 3/23/21
f 134/19/21 135/24/21 133/18/21
f 136/20/21 135/24/21 134/19/21
f 136/20/21 54/28/21 135/24/21
f 54/28/21 136/20/21 53/29/21
f 135/24/21 54/28/21 57/27/21
f 135/24/21 57/27/21 11/26/21
f 135/24/21 11/26/21 123/25/21
f 134/19/21 3/23/21 1/22/21
f 134/19/21 1/22/21 46/21/21
f 134/19/21 46/21/21 61/17/21
f 61/189/10 114/188/15 134/187/15
f 114/188/15 61/189/10 62/190/10
f 116/193/17 53/192/11 136/191/17
f 53/192/11 116/193/17 55/194/11
f 114/197/16 136/196/16 134/195/16
f 136/196/16 114/197/16 116/198/16
f 85/149/7 76/200/7 137/199/7
f 76/200/7 85/149/7 79/151/7
f 44/203/22 130/202/23 131/201/22
f 130/202/23 44/203/22 43/204/23
f 43/207/23 129/206/24 130/205/23
f 129/206/24 43/207/23 42/208/24
f 76/151/17 138/199/17 137/149/17
f 138/199/17 76/151/17 74/200/17
f 141/200/21 140/149/21 139/151/21
f 140/149/21 141/200/21 142/199/21
f 104/211/20 30/210/25 123/209/25
f 30/210/25 104/211/20 31/212/20
f 18/215/6 133/214/6 135/213/6
f 133/214/6 18/215/6 24/216/6
f 25/219/26 131/218/22 132/217/26
f 131/218/22 25/219/26 44/220/22
f 38/223/27 126/222/16 127/221/27
f 126/222/16 38/223/27 37/224/16
f 34/227/28 73/226/19 124/225/28
f 73/226/19 34/227/28 33/228/19
f 144/230/17 140/199/17 143/229/17
f 140/199/17 144/230/17 139/200/17
f 145/157/7 82/156/7 80/154/7
f 82/156/7 145/157/7 146/159/7
f 144/233/6 141/232/6 139/231/6
f 141/232/6 144/233/6 146/234/6
f 146/234/6 144/233/6 83/235/6
f 146/234/6 83/235/6 82/236/6
f 42/239/24 128/238/29 129/237/24
f 128/238/29 42/239/24 40/240/29
f 141/159/15 145/154/15 142/157/15
f 145/154/15 141/159/15 146/156/15
f 87/243/16 138/242/16 86/241/16
f 138/242/16 87/243/16 137/244/16
f 137/244/16 87/243/16 84/245/16
f 137/244/16 84/245/16 85/246/16
f 75/156/21 138/157/21 74/159/21
f 138/157/21 75/156/21 86/154/21
f 35/249/30 124/248/28 125/247/30
f 124/248/28 35/249/30 34/250/28
f 145/253/16 140/252/16 142/251/16
f 140/252/16 145/253/16 143/254/16
f 143/254/16 145/253/16 81/255/16
f 81/255/16 145/253/16 80/256/16
f 24/258/17 132/192/26 133/257/17
f 132/192/26 24/258/17 25/138/26
f 40/261/29 127/260/27 128/259/29
f 127/260/27 40/261/29 38/262/27
f 123/189/25 18/264/15 135/263/15
f 18/264/15 123/189/25 30/86/25
f 37/267/16 125/266/30 126/265/16
f 125/266/30 37/267/16 35/268/30

usemtl stone

f 84/149/7 89/162/7 78/151/7
f 89/162/7 84/149/7 81/154/7
f 89/162/7 81/154/7 90/163/7
f 90/163/7 81/154/7 96/169/7
f 96/169/7 81/154/7 95/168/7
f 88/161/7 78/151/7 89/162/7
f 91/164/7 78/151/7 88/161/7
f 92/165/7 78/151/7 91/164/7
f 97/170/7 78/151/7 92/165/7
f 98/171/7 78/151/7 97/170/7
f 78/151/7 98/171/7 83/156/7
f 83/156/7 95/168/7 81/154/7
f 83/156/7 98/171/7 99/172/7
f 83/156/7 99/172/7 100/173/7
f 83/156/7 100/173/7 101/175/7
f 83/156/7 101/175/7 102/176/7
f 83/156/7 102/176/7 103/177/7
f 83/156/7 103/177/7 93/166/7
f 83/156/7 93/166/7 94/167/7
f 83/156/7 94/167/7 95/168/7
f 77/156/21 118/167/21 87/154/21
f 118/167/21 77/156/21 105/166/21
f 105/166/21 77/156/21 106/177/21
f 106/177/21 77/156/21 107/176/21
f 107/176/21 77/156/21 144/151/21
f 87/154/21 118/167/21 119/168/21
f 107/176/21 144/151/21 108/175/21
f 108/175/21 144/151/21 109/182/21
f 109/182/21 144/151/21 110/172/21
f 110/172/21 144/151/21 111/171/21
f 111/171/21 144/151/21 112/170/21
f 112/170/21 144/151/21 113/165/21
f 113/165/21 144/151/21 120/164/21
f 120/164/21 144/151/21 121/161/21
f 121/161/21 144/151/21 122/184/21
f 122/184/21 144/151/21 115/162/21
f 143/149/21 115/162/21 144/151/21
f 143/149/21 117/163/21 115/162/21
f 87/154/21 117/163/21 143/149/21
f 117/163/21 87/154/21 119/168/21
f 78/147/6 144/233/6 77/146/6
f 144/233/6 78/147/6 83/235/6
f 81/255/16 87/243/16 143/254/16
f 87/243/16 81/255/16 84/245/16

