# Created by Kenney (www.kenney.nl)

mtllib wallWoodCornerEdge.mtl

g wallWoodCornerEdge

v 0.475 0 -0.4
v 0.425 0 -0.4
v 0.2187184 0 0.2187184
v 0.1833631 0 0.1833631
v -0.4 0 0.475
v -0.4 0 0.425
v 0.2187184 1 0.2187184
v -0.4 1 0.475
v 0.475 1 -0.4
v 0.425 1 -0.4
v 0.1833631 1 0.1833631
v -0.4 1 0.425
v -0.4 1 0.5
v -0.5 1 0.5
v -0.4 1 0.4
v -0.5 1 0.4
v -0.4 0 0.4
v 0.5 0 -0.4
v 0.5 1 -0.4
v 0.4 0 -0.4
v 0.4 1 -0.4
v 0.5 1 -0.5
v 0.4 1 -0.5
v -0.4 0 0.5
v -0.5 0 0.5
v -0.5 0 0.4
v 0.4 0 -0.5
v 0.5 0 -0.5

vn 0 -1 0
vn 0.3826834 0 0.9238795
vn 0 1 0
vn 0.9238795 0 0.3826834
vn -0.3826834 0 -0.9238795
vn -0.9238795 0 -0.3826834
vn 1 0 0
vn 0 0 1
vn 0 0 -1
vn -1 0 0

vt 18.70079 -15.74803
vt 16.73228 -15.74803
vt 8.610962 8.610962
vt 7.219019 7.219019
vt -15.74803 18.70079
vt -15.74803 16.73228
vt 4.660219 0
vt -21.70576 0
vt 4.660219 39.37008
vt -21.70576 39.37008
vt -18.70079 -15.74803
vt -8.610962 8.610962
vt -16.73228 -15.74803
vt -7.219019 7.219019
vt 15.74803 18.70079
vt 15.74803 16.73228
vt 21.70576 39.37008
vt 21.70576 0
vt -4.660219 39.37008
vt -4.660219 0
vt 20.95245 0
vt -3.906905 0
vt 20.95245 39.37008
vt -3.906905 39.37008
vt -20.95245 0
vt -20.95245 39.37008
vt 3.906905 0
vt 3.906905 39.37008
vt 15.74803 19.68504
vt 19.68504 19.68504
vt 15.74803 15.74803
vt 19.68504 15.74803
vt -15.74803 39.37008
vt -15.74803 0
vt -16.73228 39.37008
vt -16.73228 0
vt 19.68504 0
vt 18.70079 0
vt 19.68504 39.37008
vt 18.70079 39.37008
vt 16.73228 0
vt 15.74803 0
vt 16.73228 39.37008
vt 15.74803 39.37008
vt -19.68504 -19.68504
vt -19.68504 -15.74803
vt -15.74803 -19.68504
vt -15.74803 -15.74803
vt -15.74803 9.947598E-13
vt -19.68504 9.947598E-13
vt -19.68504 39.37008
vt -19.68504 0
vt -15.74803 19.68504
vt -19.68504 19.68504
vt -15.74803 15.74803
vt -19.68504 15.74803
vt -18.70079 39.37008
vt -18.70079 0
vt 15.74803 1.776357E-14
vt 19.68504 1.776357E-14
vt 19.68504 -15.74803
vt 19.68504 -19.68504
vt 15.74803 -19.68504
vt 15.74803 -15.74803

usemtl woodDark

f 3/3/1 2/2/1 1/1/1
f 2/2/1 3/3/1 4/4/1
f 4/4/1 3/3/1 5/5/1
f 4/4/1 5/5/1 6/6/1
f 7/9/2 5/8/2 3/7/2
f 5/8/2 7/9/2 8/10/2
f 10/13/3 7/12/3 9/11/3
f 7/12/3 10/13/3 11/14/3
f 7/12/3 11/14/3 8/15/3
f 8/15/3 11/14/3 12/16/3
f 7/19/4 1/18/4 9/17/4
f 1/18/4 7/19/4 3/20/4
f 12/23/5 4/22/5 6/21/5
f 4/22/5 12/23/5 11/24/5
f 4/27/6 10/26/6 2/25/6
f 10/26/6 4/27/6 11/28/6

usemtl wood

f 8/15/3 14/30/3 13/29/3
f 14/30/3 8/15/3 12/16/3
f 14/30/3 12/16/3 15/31/3
f 14/30/3 15/31/3 16/32/3
f 12/35/7 17/34/7 15/33/7
f 17/34/7 12/35/7 6/36/7
f 19/39/8 1/38/8 18/37/8
f 1/38/8 19/39/8 9/40/8
f 10/43/8 20/42/8 2/41/8
f 20/42/8 10/43/8 21/44/8
f 23/47/3 19/46/3 22/45/3
f 19/46/3 23/47/3 9/11/3
f 9/11/3 23/47/3 10/13/3
f 10/13/3 23/47/3 21/48/3
f 13/33/8 25/50/8 24/49/8
f 25/50/8 13/33/8 14/51/8
f 16/39/9 17/42/9 26/37/9
f 17/42/9 16/39/9 15/44/9
f 23/33/9 28/52/9 27/34/9
f 28/52/9 23/33/9 22/51/9
f 25/54/1 5/5/1 24/53/1
f 5/5/1 25/54/1 6/6/1
f 6/6/1 25/54/1 17/55/1
f 17/55/1 25/54/1 26/56/1
f 13/51/7 5/58/7 8/57/7
f 5/58/7 13/51/7 24/52/7
f 25/60/10 16/44/10 26/59/10
f 16/44/10 25/60/10 14/39/10
f 19/44/7 28/37/7 22/39/7
f 28/37/7 19/44/7 18/42/7
f 1/1/1 28/62/1 18/61/1
f 28/62/1 1/1/1 27/63/1
f 27/63/1 1/1/1 2/2/1
f 27/63/1 2/2/1 20/64/1
f 20/34/10 23/51/10 27/52/10
f 23/51/10 20/34/10 21/33/10

