# Created by Kenney (www.kenney.nl)

mtllib wallHalf.mtl

g wallHalf

v 0.475 0 0.4
v 0.475 0 -0.4
v 0.425 0 0.4
v 0.425 0 -0.4
v 0.475 0.5 -0.4
v 0.475 0.5 0.4
v 0.425 0.5 -0.4
v 0.425 0.5 0.4
v 0.5 0 -0.4
v 0.5 0.5 -0.4
v 0.4 0 0.4
v 0.4 0.5 0.4
v 0.5 0 0.5
v 0.4 0 0.5
v 0.5 0.5 0.5
v 0.4 0.5 0.5
v 0.5 0.5 -0.5
v 0.4 0.5 -0.5
v 0.4 0.5 -0.4
v 0.5 0 0.4
v 0.5 0.5 0.4
v 0.4 0 -0.4
v 0.5 0 -0.5
v 0.4 0 -0.5

vn 0 -1 0
vn 0 1 0
vn -1 0 0
vn 1 0 0
vn 0 0 1
vn 0 0 -1

vt 18.70079 15.74803
vt 18.70079 -15.74803
vt 16.73228 15.74803
vt 16.73228 -15.74803
vt -18.70079 -15.74803
vt -18.70079 15.74803
vt -16.73228 -15.74803
vt -16.73228 15.74803
vt -15.74803 0
vt -15.74803 19.68504
vt 15.74803 0
vt 15.74803 19.68504
vt 19.68504 -6.565746E-31
vt 18.70079 -6.565746E-31
vt 19.68504 19.68504
vt 18.70079 19.68504
vt -16.73228 0
vt -16.73228 19.68504
vt 19.68504 -2.842171E-14
vt 15.74803 -2.842171E-14
vt -19.68504 -19.68504
vt -19.68504 -15.74803
vt -15.74803 -19.68504
vt -15.74803 -15.74803
vt -18.70079 0
vt -19.68504 0
vt -18.70079 19.68504
vt -19.68504 19.68504
vt -19.68504 15.74803
vt -15.74803 15.74803
vt 16.73228 0
vt 16.73228 19.68504
vt 19.68504 -15.74803
vt 19.68504 -19.68504
vt 15.74803 -19.68504
vt 15.74803 -15.74803
vt 19.68504 15.74803
vt 15.74803 15.74803
vt 19.68504 0

usemtl stone

f 3/3/1 2/2/1 1/1/1
f 2/2/1 3/3/1 4/4/1
f 7/7/2 6/6/2 5/5/2
f 6/6/2 7/7/2 8/8/2
f 3/11/3 7/10/3 4/9/3
f 7/10/3 3/11/3 8/12/3
f 6/10/4 2/11/4 5/12/4
f 2/11/4 6/10/4 1/9/4

usemtl wood

f 10/15/5 2/14/5 9/13/5
f 2/14/5 10/15/5 5/16/5
f 12/10/6 3/17/6 11/9/6
f 3/17/6 12/10/6 8/18/6
f 15/15/5 14/20/5 13/19/5
f 14/20/5 15/15/5 16/12/5
f 18/23/2 10/22/2 17/21/2
f 10/22/2 18/23/2 5/5/2
f 5/5/2 18/23/2 7/7/2
f 7/7/2 18/23/2 19/24/2
f 6/27/6 20/26/6 1/25/6
f 20/26/6 6/27/6 21/28/6
f 6/6/2 15/28/2 21/29/2
f 15/28/2 6/6/2 16/10/2
f 16/10/2 6/6/2 8/8/2
f 16/10/2 8/8/2 12/30/2
f 7/32/5 22/11/5 4/31/5
f 22/11/5 7/32/5 19/12/5
f 2/2/1 23/34/1 9/33/1
f 23/34/1 2/2/1 24/35/1
f 24/35/1 2/2/1 4/4/1
f 24/35/1 4/4/1 22/36/1
f 15/28/4 20/9/4 21/10/4
f 20/9/4 15/28/4 13/26/4
f 22/9/3 18/28/3 24/26/3
f 18/28/3 22/9/3 19/10/3
f 14/12/1 20/37/1 13/15/1
f 20/37/1 14/12/1 1/1/1
f 1/1/1 14/12/1 3/3/1
f 3/3/1 14/12/1 11/38/1
f 14/39/3 12/12/3 11/11/3
f 12/12/3 14/39/3 16/15/3
f 10/12/4 23/39/4 17/15/4
f 23/39/4 10/12/4 9/11/4
f 18/10/6 23/26/6 24/9/6
f 23/26/6 18/10/6 17/28/6

