# Created by Kenney (www.kenney.nl)

mtllib wallWoodArchTopDetail.mtl

g wallWoodArchTopDetail

v 0.4 0.2678784 0.1467157
v 0.4 0.3061467 0.2391036
v 0.37 0.2678784 0.1467157
v 0.37 0.3444151 0.3314916
v 0.425 0.3444151 0.3314916
v 0.425 0.3061467 0.2391036
v 0.4 0.104421 0.2931559
v 0.4 0.2070552 0.2727407
v 0.425 0.104421 0.2931559
v 0.425 0.2070552 0.2727407
v 0.425 0.9 -0.5
v 0.425 0.8923004 -0.3825264
v 0.37 0.9 -0.5
v 0.37 0.8923004 -0.3825264
v 0.53 0.5553473 -0.07386699
v 0.53 0.6062178 -0.15
v 0.5 0.5553473 -0.07386699
v 0.5 0.6062178 -0.15
v 0.4 0.5553473 -0.07386699
v 0.4 0.6062178 -0.15
v 0.37 0.5553473 -0.07386699
v 0.37 0.6062178 -0.15
v 0.4 0.6346827 -0.01299086
v 0.4 0.4949747 -0.005025253
v 0.4 0.5656855 0.06568542
v 0.4 0.426133 0.05534733
v 0.4 0.35 0.1062178
v 0.4 0.4870091 0.1346827
v 0.4 0.4 0.1928203
v 0.4 0.6940114 -0.4086317
v 0.37 0.6940114 -0.4086317
v 0.4 0.7931559 -0.395579
v 0.425 0.7931559 -0.395579
v 0.5 0.6467156 -0.2321216
v 0.4 0.6467156 -0.2321216
v 0.5 0.6761481 -0.3188266
v 0.5 0.6940114 -0.4086317
v 0.4 0.6761481 -0.3188266
v 0.4 0.09136833 0.1940114
v 0.5 0.09136833 0.1940114
v 0.4 0.1811733 0.1761481
v 0.5 0.1811733 0.1761481
v 0.53 0.6940114 -0.4086317
v 0.53 0.7 -0.5
v 0.37 0.7 -0.5
v 0.425 0.4 0.1928203
v 0.425 0.4870091 0.1346827
v 0.425 0.5656855 0.06568542
v 0.5 0.35 0.1062178
v 0.5 0.426133 0.05534733
v 0.425 0.6346827 -0.01299086
v 0.425 0.7794229 -0.05
v 0.425 0.714018 0.04788528
v 0.37 0.7794229 -0.05
v 0.37 0.714018 0.04788528
v 0.37 0.2329371 0.3693332
v 0.425 0.2329371 0.3693332
v 0.5 0.2678784 0.1467157
v 0.4 -2.230676E-16 0.3
v 0.425 -1.286498E-16 0.3
v 0.4 0.7727407 -0.2929448
v 0.4 0.7391036 -0.1938533
v 0.4 0.6928203 -0.1
v 0.425 0.7391036 -0.1938533
v 0.425 0.6928203 -0.1
v 0.425 0.7727407 -0.2929448
v 0.4 -5.178488E-16 0.2
v 0.5 -5.178488E-16 0.2
v 0.37 0.1811733 0.1761481
v 0.53 0.2678784 0.1467157
v 0.53 0.1811733 0.1761481
v 0.5 0.4949747 -0.005025253
v 0.53 0.714018 0.04788528
v 0.5 0.6346827 -0.01299086
v 0.475 0.6346827 -0.01299086
v 0.475 0.714018 0.04788528
v 0.5 0.7931559 -0.395579
v 0.53 0.8923004 -0.3825264
v 0.475 0.7931559 -0.395579
v 0.475 0.8923004 -0.3825264
v 0.5 0.7727407 -0.2929448
v 0.5 0.7391036 -0.1938533
v 0.475 0.7727407 -0.2929448
v 0.475 0.7391036 -0.1938533
v 0.5 0.4870091 0.1346827
v 0.475 0.4870091 0.1346827
v 0.5 0.5656855 0.06568542
v 0.475 0.5656855 0.06568542
v 0.5 0.6928203 -0.1
v 0.53 0.7794229 -0.05
v 0.475 0.7794229 -0.05
v 0.5 0.104421 0.2931559
v 0.475 0.104421 0.2931559
v 0.5 0.2070552 0.2727407
v 0.475 0.2070552 0.2727407
v 0.5 0.4 0.1928203
v 0.475 0.4 0.1928203
v 0.53 0.9 -0.5
v 0.475 0.9 -0.5
v 0.5 0.3061467 0.2391036
v 0.475 0.2329371 0.3693332
v 0.53 0.2329371 0.3693332
v 0.475 0.3061467 0.2391036
v 0.475 0.3444151 0.3314916
v 0.53 0.3444151 0.3314916
v 0.5 -2.230676E-16 0.3
v 0.475 -1.286498E-16 0.3
v 0.475 0.6928203 -0.1
v 0.4 0 0.4
v 0.425 0 0.4
v 0.4 1 0.4
v 0.425 1 0.4
v 0.5 0 0.5
v 0.4 0 0.5
v 0.5 1 0.5
v 0.4 1 0.5
v 0.5 1 0.4
v 0.475 1 0.4
v 0.475 0 0.4
v 0.5 0 0.4
v 0.475 1 -0.5
v 0.425 1 -0.5

vn 0 0.9238795 -0.3826834
vn 0 0.1305262 0.9914449
vn 0 0.1950903 0.9807853
vn 0 0.9978589 0.06540313
vn 0 -0.8314696 -0.5555702
vn 0 -0.806461 -0.5912873
vn 0 -0.8548975 -0.518797
vn -1 0 0
vn 0 -0.1305262 0.9914449
vn 0 -0.9238795 -0.3826834
vn 0 -0.9659258 -0.258819
vn 0 -0.9940593 -0.1088393
vn 0 -0.1305262 -0.9914449
vn 0 -0.2798557 -0.9600421
vn 0 -0.9978589 -0.06540313
vn 0 0.4422887 0.8968728
vn 0 0.5 0.8660254
vn 0 0.6087614 0.7933533
vn 0 0.7071068 0.7071068
vn 0 -0.5 -0.8660254
vn 0 -0.6087614 -0.7933533
vn 0 0.7518399 0.6593459
vn 0 0.8314696 0.5555702
vn 0 0.3214395 0.9469302
vn 0 -0.3624122 -0.9320179
vn 0 0.06540313 0.9978589
vn 0 0.9238795 0.3826834
vn 0 0.8968728 0.4422887
vn 0 0.9659258 0.258819
vn 0 0.9807853 0.1950903
vn 0 -0.06540313 -0.9978589
vn 0 -0.3214395 -0.9469302
vn 0 0.5 -0.8660254
vn 0 -0.7071068 -0.7071068
vn 0 -0.6087614 0.7933533
vn 1 0 0
vn 0 -0.9659258 0.258819
vn 0 0 -1
vn 0 0 1
vn 0 1 0
vn 0 -1 0

vt -15.74803 9.37245
vt -15.74803 13.30946
vt -14.56693 9.37245
vt -14.56693 17.24647
vt -16.73228 17.24647
vt -16.73228 13.30946
vt 15.74803 1.78042
vt 15.74803 5.900302
vt 16.73228 1.78042
vt 16.73228 5.900302
vt 16.73228 21.96033
vt 16.73228 17.32546
vt 14.56693 21.96033
vt 14.56693 17.32546
vt -20.86614 14.56506
vt -20.86614 18.16996
vt -19.68504 14.56506
vt -19.68504 18.16996
vt -15.74803 14.56506
vt -15.74803 18.16996
vt -14.56693 14.56506
vt -14.56693 18.16996
vt -2.908149 21.86407
vt -0.5114511 24.98751
vt -0.1978446 19.48719
vt 2.58604 22.27108
vt 2.179029 16.77689
vt 4.181802 13.77953
vt 5.302467 19.17359
vt 5.776207 10.54639
vt 7.591352 15.74803
vt 9.413528 12.05302
vt 15.74803 24.98964
vt 14.56693 24.98964
vt 15.74803 28.92665
vt 14.56693 32.86366
vt 16.73228 28.92665
vt 16.73228 32.86366
vt -19.68504 15.85253
vt -19.68504 19.45742
vt -15.74803 15.85253
vt -15.74803 19.45742
vt -19.68504 17.50435
vt -19.68504 21.10925
vt -15.74803 17.50435
vt -15.74803 21.10925
vt -15.74803 2.037912
vt -19.68504 2.037912
vt -15.74803 5.642809
vt -19.68504 5.642809
vt -20.86614 17.84044
vt -20.86614 21.44534
vt -19.68504 17.84044
vt -14.56693 21.44534
vt -15.74803 17.84044
vt -14.56693 17.84044
vt 15.74803 6.646529
vt 15.74803 10.76641
vt 16.73228 6.646529
vt 16.73228 10.76641
vt 15.74803 8.876481
vt 15.74803 12.99636
vt 16.73228 8.876481
vt 16.73228 12.99636
vt 15.74803 10.91931
vt 15.74803 15.03919
vt 16.73228 10.91931
vt 16.73228 15.03919
vt -15.74803 9.133973
vt -19.68504 9.133973
vt -15.74803 12.73887
vt -19.68504 12.73887
vt -19.68504 16.83791
vt -19.68504 20.44281
vt -15.74803 16.83791
vt -15.74803 20.44281
vt 16.73228 16.85994
vt 16.73228 12.74006
vt 15.74803 16.85994
vt 15.74803 12.74006
vt 16.73228 18.68495
vt 16.73228 14.05008
vt 14.56693 18.68495
vt 14.56693 14.05008
vt 14.56693 4.010115
vt 14.56693 8.644982
vt 16.73228 4.010115
vt 16.73228 8.644982
vt -15.74803 6.904022
vt -19.68504 6.904022
vt -15.74803 10.50892
vt -19.68504 10.50892
vt 15.74803 -0.7724779
vt 15.74803 3.347404
vt 16.73228 -0.7724779
vt 16.73228 3.347404
vt -16.08786 27.32328
vt -15.57398 31.22661
vt -12.55223 26.62
vt -11.53326 30.42286
vt -9.138645 25.46125
vt -7.632018 29.09857
vt -5.905512 23.86684
vt -3.937008 27.27639
vt 16.73228 19.71492
vt 16.73228 15.59503
vt 15.74803 19.71492
vt 15.74803 15.59503
vt 16.73228 20.7003
vt 16.73228 16.58042
vt 15.74803 20.7003
vt 15.74803 16.58042
vt 6.934964 7.132808
vt 10.73782 8.151781
vt 7.638244 3.597178
vt 7.874016 -7.986353E-14
vt 11.81102 -6.825797E-14
vt 11.54157 4.111061
vt 16.73228 21.36674
vt 16.73228 17.24686
vt 15.74803 21.36674
vt 15.74803 17.24686
vt -19.68504 35.43307
vt -15.0601 35.12994
vt -19.68504 27.55906
vt -15.74803 -0.5149853
vt -19.68504 -0.5149853
vt -15.74803 3.089912
vt -19.68504 3.089912
vt -14.56693 4.5251
vt -15.74803 4.5251
vt -14.56693 8.129997
vt -19.68504 4.5251
vt -20.86614 8.129997
vt -20.86614 4.5251
vt -15.74803 8.129997
vt -19.68504 8.129997
vt -14.56693 17.71654
vt -15.74803 17.71654
vt -14.56693 25.59055
vt -15.74803 21.65354
vt -16.73228 21.65354
vt -16.73228 25.59055
vt -19.68504 12.99755
vt -19.68504 16.60245
vt -15.74803 12.99755
vt -15.74803 16.60245
vt -15.74803 11.1768
vt -19.68504 11.1768
vt -15.74803 14.7817
vt -19.68504 14.7817
vt -1.968504 30.68594
vt 1.885247 28.11094
vt 20.86614 15.57556
vt 19.68504 15.57556
vt 20.86614 23.44958
vt 19.68504 19.51257
vt 18.70079 19.51257
vt 18.70079 23.44958
vt 19.68504 24.98964
vt 19.68504 28.92665
vt 20.86614 24.98964
vt 20.86614 32.86366
vt 18.70079 28.92665
vt 18.70079 32.86366
vt 14.56693 15.57556
vt 14.56693 23.44958
vt 15.74803 15.57556
vt 15.74803 19.51257
vt 16.73228 19.51257
vt 16.73228 23.44958
vt 19.68504 20.7003
vt 19.68504 16.58042
vt 18.70079 20.7003
vt 18.70079 16.58042
vt 19.68504 10.91931
vt 18.70079 10.91931
vt 19.68504 15.03919
vt 18.70079 15.03919
vt 19.68504 16.85994
vt 19.68504 12.74006
vt 18.70079 16.85994
vt 18.70079 12.74006
vt 16.08786 27.32328
vt 12.55223 26.62
vt 15.57398 31.22661
vt 11.53326 30.42286
vt 9.138645 25.46125
vt 7.632018 29.09857
vt 5.905512 23.86684
vt 3.937008 27.27639
vt 20.86614 18.68495
vt 20.86614 14.05008
vt 18.70079 18.68495
vt 18.70079 14.05008
vt 19.68504 1.78042
vt 18.70079 1.78042
vt 19.68504 5.900302
vt 18.70079 5.900302
vt 19.68504 8.876481
vt 18.70079 8.876481
vt 19.68504 12.99636
vt 18.70079 12.99636
vt 20.86614 21.96033
vt 20.86614 17.32546
vt 18.70079 21.96033
vt 18.70079 17.32546
vt 2.908149 21.86407
vt 0.1978446 19.48719
vt 0.5114511 24.98751
vt -2.58604 22.27108
vt -2.179029 16.77689
vt -4.181802 13.77953
vt -5.302467 19.17359
vt -5.776207 10.54639
vt -7.591352 15.74803
vt -9.413528 12.05302
vt 19.68504 12.48178
vt 20.86614 8.544767
vt 19.68504 8.544767
vt 18.70079 16.41878
vt 20.86614 16.41878
vt 18.70079 12.48178
vt 19.68504 6.646529
vt 18.70079 6.646529
vt 19.68504 10.76641
vt 18.70079 10.76641
vt -20.86614 9.37245
vt -19.68504 13.30946
vt -19.68504 9.37245
vt -18.70079 17.24647
vt -20.86614 17.24647
vt -18.70079 13.30946
vt 13.05085 13.55965
vt 14.54068 9.170753
vt 20.86614 4.010115
vt 18.70079 4.010115
vt 20.86614 8.644982
vt 18.70079 8.644982
vt 19.68504 -0.7724779
vt 18.70079 -0.7724779
vt 19.68504 3.347404
vt 18.70079 3.347404
vt -6.934964 7.132808
vt -13.05085 13.55965
vt -14.54068 9.170753
vt -7.638244 3.597178
vt -10.73782 8.151781
vt -7.874016 5.395698E-14
vt -11.81102 6.556254E-14
vt -11.54157 4.111061
vt 19.68504 35.43307
vt 19.68504 27.55906
vt 15.0601 35.12994
vt -20.86614 17.71654
vt -20.86614 25.59055
vt -19.68504 17.71654
vt -19.68504 21.65354
vt -18.70079 21.65354
vt -18.70079 25.59055
vt 16.73228 16.41878
vt 16.73228 12.48178
vt 14.56693 16.41878
vt 15.74803 12.48178
vt 14.56693 8.544767
vt 15.74803 8.544767
vt 19.68504 21.36674
vt 19.68504 17.24686
vt 18.70079 21.36674
vt 18.70079 17.24686
vt 19.68504 19.71492
vt 19.68504 15.59503
vt 18.70079 19.71492
vt 18.70079 15.59503
vt 1.968504 30.68594
vt -1.885247 28.11094
vt -15.74803 5.129489E-31
vt -16.73228 5.129489E-31
vt -15.74803 39.37008
vt -16.73228 39.37008
vt 19.68504 -7.105427E-15
vt 15.74803 -7.105427E-15
vt 19.68504 39.37008
vt 15.74803 39.37008
vt -19.68504 15.74803
vt -19.68504 19.68504
vt -18.70079 15.74803
vt -15.74803 19.68504
vt -16.73228 15.74803
vt -15.74803 15.74803
vt -18.70079 0
vt -19.68504 0
vt -18.70079 39.37008
vt -19.68504 39.37008
vt 19.68504 19.68504
vt 19.68504 15.74803
vt 15.74803 19.68504
vt 18.70079 15.74803
vt 16.73228 15.74803
vt 15.74803 15.74803
vt -15.74803 0
vt 15.74803 0
vt 19.68504 0
vt -18.70079 -19.68504
vt -16.73228 -19.68504
vt -16.73228 35.43307
vt -18.70079 35.43307
vt -20.86614 35.43307
vt -14.56693 35.43307
vt -20.86614 27.55906
vt -14.56693 27.55906
vt 19.68504 11.81102
vt 19.68504 7.874016
vt 18.70079 11.81102
vt 15.74803 7.874016
vt 16.73228 11.81102
vt 15.74803 11.81102
vt 15.74803 6.617689E-15
vt 11.81102 1.552735E-15
vt -15.74803 -2.277991E-14
vt -11.81102 -2.784486E-14

usemtl stoneDark

f 3/3/1 2/2/1 1/1/1
f 4/4/1 2/2/1 3/3/1
f 5/5/1 2/2/1 4/4/1
f 2/2/1 5/5/1 6/6/1
f 9/9/2 8/8/3 7/7/2
f 8/8/3 9/9/2 10/10/3
f 13/13/4 12/12/4 11/11/4
f 12/12/4 13/13/4 14/14/4
f 17/17/6 16/16/5 15/15/5
f 16/16/5 17/17/6 18/18/7
f 18/18/7 17/17/6 19/19/6
f 18/18/7 19/19/6 20/20/7
f 20/20/7 19/19/6 21/21/5
f 20/20/7 21/21/5 22/22/5
f 24/25/8 23/24/8 19/23/8
f 23/24/8 24/25/8 25/26/8
f 25/26/8 24/25/8 26/27/8
f 25/26/8 26/27/8 27/28/8
f 25/26/8 27/28/8 28/29/8
f 28/29/8 27/28/8 1/30/8
f 28/29/8 1/30/8 29/31/8
f 29/31/8 1/30/8 2/32/8
f 32/35/9 31/34/9 30/33/9
f 31/34/9 32/35/9 14/36/9
f 14/36/9 32/35/9 33/37/9
f 14/36/9 33/37/9 12/38/9
f 20/41/7 34/40/10 18/39/7
f 34/40/10 20/41/7 35/42/10
f 38/45/11 37/44/12 36/43/11
f 37/44/12 38/45/11 30/46/12
f 41/49/14 40/48/13 39/47/13
f 40/48/13 41/49/14 42/50/14
f 37/53/12 44/52/15 43/51/15
f 44/52/15 37/53/12 45/54/15
f 45/54/15 37/53/12 30/55/12
f 45/54/15 30/55/12 31/56/15
f 6/59/16 29/58/17 2/57/16
f 29/58/17 6/59/16 46/60/17
f 46/63/17 28/62/18 29/61/17
f 28/62/18 46/63/17 47/64/18
f 47/67/18 25/66/19 28/65/18
f 25/66/19 47/67/18 48/68/19
f 26/71/21 49/70/20 27/69/20
f 49/70/20 26/71/21 50/72/21
f 35/75/10 36/74/11 34/73/10
f 36/74/11 35/75/10 38/76/11
f 23/79/22 48/78/19 51/77/22
f 48/78/19 23/79/22 25/80/19
f 54/83/23 53/82/23 52/81/23
f 53/82/23 54/83/23 55/84/23
f 57/87/24 4/86/24 56/85/24
f 4/86/24 57/87/24 5/88/24
f 27/91/20 58/90/25 1/89/25
f 58/90/25 27/91/20 49/92/20
f 60/95/26 7/94/2 59/93/26
f 7/94/2 60/95/26 9/96/2
f 38/99/8 32/98/8 30/97/8
f 32/98/8 38/99/8 61/100/8
f 61/100/8 38/99/8 35/101/8
f 61/100/8 35/101/8 62/102/8
f 62/102/8 35/101/8 20/103/8
f 62/102/8 20/103/8 63/104/8
f 62/107/27 65/106/28 64/105/27
f 65/106/28 62/107/27 63/108/28
f 61/111/29 64/110/27 66/109/29
f 64/110/27 61/111/29 62/112/27
f 39/115/8 8/114/8 41/113/8
f 8/114/8 39/115/8 67/116/8
f 8/114/8 67/116/8 59/117/8
f 8/114/8 59/117/8 7/118/8
f 32/121/30 66/120/29 33/119/30
f 66/120/29 32/121/30 61/122/29
f 45/125/8 14/124/8 13/123/8
f 14/124/8 45/125/8 31/97/8
f 39/128/13 68/127/31 67/126/31
f 68/127/31 39/128/13 40/129/13
f 3/132/32 41/131/14 69/130/32
f 41/131/14 3/132/32 42/133/14
f 70/134/32 42/133/14 3/132/32
f 42/133/14 70/134/32 71/135/32
f 70/134/32 3/132/32 1/136/25
f 70/134/32 1/136/25 58/137/25
f 54/140/33 20/139/33 22/138/33
f 20/139/33 54/140/33 63/141/33
f 63/141/33 54/140/33 65/142/33
f 65/142/33 54/140/33 52/143/33
f 24/146/34 17/145/6 72/144/34
f 17/145/6 24/146/34 19/147/6
f 24/150/34 50/149/21 26/148/21
f 50/149/21 24/150/34 72/151/34
f 21/23/8 54/152/8 22/103/8
f 54/152/8 21/23/8 55/153/8
f 73/156/35 17/155/35 15/154/35
f 17/155/35 73/156/35 74/157/35
f 74/157/35 73/156/35 75/158/35
f 75/158/35 73/156/35 76/159/35
f 43/162/9 77/161/9 37/160/9
f 77/161/9 43/162/9 78/163/9
f 77/161/9 78/163/9 79/164/9
f 79/164/9 78/163/9 80/165/9
f 19/168/35 55/167/35 21/166/35
f 55/167/35 19/168/35 23/169/35
f 55/167/35 23/169/35 51/170/35
f 55/167/35 51/170/35 53/171/35
f 83/174/29 82/173/27 81/172/29
f 82/173/27 83/174/29 84/175/27
f 87/178/19 86/177/18 85/176/18
f 86/177/18 87/178/19 88/179/19
f 75/182/22 87/181/19 74/180/22
f 87/181/19 75/182/22 88/183/19
f 77/186/36 36/185/36 37/184/36
f 36/185/36 77/186/36 81/187/36
f 36/185/36 81/187/36 34/188/36
f 34/188/36 81/187/36 82/189/36
f 34/188/36 82/189/36 18/190/36
f 18/190/36 82/189/36 89/191/36
f 91/194/23 73/193/23 90/192/23
f 73/193/23 91/194/23 76/195/23
f 94/198/3 93/197/2 92/196/2
f 93/197/2 94/198/3 95/199/3
f 85/202/18 97/201/17 96/200/17
f 97/201/17 85/202/18 86/203/18
f 99/206/4 78/205/4 98/204/4
f 78/205/4 99/206/4 80/207/4
f 74/210/36 72/209/36 17/208/36
f 72/209/36 74/210/36 87/211/36
f 72/209/36 87/211/36 50/212/36
f 50/212/36 87/211/36 49/213/36
f 49/213/36 87/211/36 85/214/36
f 49/213/36 85/214/36 58/215/36
f 58/215/36 85/214/36 96/216/36
f 58/215/36 96/216/36 100/217/36
f 42/220/37 71/219/37 94/218/37
f 71/219/37 101/221/37 94/218/37
f 101/221/37 71/219/37 102/222/37
f 94/218/37 101/221/37 95/223/37
f 96/226/17 103/225/16 100/224/16
f 103/225/16 96/226/17 97/227/17
f 58/230/1 100/229/1 70/228/1
f 104/231/1 70/228/1 100/229/1
f 70/228/1 104/231/1 105/232/1
f 104/231/1 100/229/1 103/233/1
f 69/113/8 4/234/8 3/30/8
f 4/234/8 69/113/8 56/235/8
f 105/238/24 101/237/24 102/236/24
f 101/237/24 105/238/24 104/239/24
f 92/242/2 107/241/26 106/240/26
f 107/241/26 92/242/2 93/243/2
f 105/245/36 71/244/36 70/215/36
f 71/244/36 105/245/36 102/246/36
f 94/248/36 40/247/36 42/244/36
f 40/247/36 94/248/36 68/249/36
f 68/249/36 94/248/36 106/250/36
f 106/250/36 94/248/36 92/251/36
f 78/254/36 44/253/36 98/252/36
f 44/253/36 78/254/36 43/184/36
f 18/257/33 90/256/33 16/255/33
f 90/256/33 18/257/33 89/258/33
f 90/256/33 89/258/33 108/259/33
f 90/256/33 108/259/33 91/260/33
f 56/263/37 10/262/37 57/261/37
f 10/262/37 56/263/37 8/264/37
f 8/264/37 56/263/37 69/265/37
f 69/265/37 41/266/37 8/264/37
f 79/269/30 81/268/29 77/267/30
f 81/268/29 79/269/30 83/270/29
f 84/273/27 89/272/28 82/271/27
f 89/272/28 84/273/27 108/274/28
f 90/275/36 15/208/36 16/190/36
f 15/208/36 90/275/36 73/276/36

usemtl wood

f 111/279/38 110/278/38 109/277/38
f 110/278/38 111/279/38 112/280/38
f 115/283/39 114/282/39 113/281/39
f 114/282/39 115/283/39 116/284/39
f 118/287/40 115/286/40 117/285/40
f 115/286/40 118/287/40 116/288/40
f 116/288/40 118/287/40 112/289/40
f 116/288/40 112/289/40 111/290/40
f 118/293/38 120/292/38 119/291/38
f 120/292/38 118/293/38 117/294/38
f 114/297/41 120/296/41 113/295/41
f 120/296/41 114/297/41 119/298/41
f 119/298/41 114/297/41 110/299/41
f 110/299/41 114/297/41 109/300/41
f 115/294/36 120/301/36 117/279/36
f 120/301/36 115/294/36 113/292/36
f 114/303/8 111/284/8 109/302/8
f 111/284/8 114/303/8 116/283/8

usemtl woodDark

f 122/305/40 118/287/40 121/304/40
f 118/287/40 122/305/40 112/289/40
f 122/280/38 99/307/38 11/306/38
f 99/307/38 122/280/38 121/293/38
f 98/308/38 11/306/38 99/307/38
f 98/308/38 13/309/38 11/306/38
f 44/310/38 13/309/38 98/308/38
f 13/309/38 44/310/38 45/311/38
f 107/314/41 68/313/41 106/312/41
f 68/313/41 107/314/41 67/315/41
f 67/315/41 107/314/41 119/298/41
f 67/315/41 119/298/41 60/316/41
f 60/316/41 119/298/41 110/299/41
f 67/315/41 60/316/41 59/317/41
f 66/100/8 12/124/8 33/98/8
f 112/284/8 12/124/8 66/100/8
f 122/294/8 12/124/8 112/284/8
f 12/124/8 122/294/8 11/123/8
f 112/284/8 66/100/8 64/102/8
f 112/284/8 64/102/8 52/152/8
f 52/152/8 64/102/8 65/104/8
f 112/284/8 52/152/8 53/153/8
f 112/284/8 53/153/8 48/26/8
f 48/26/8 53/153/8 51/24/8
f 112/284/8 48/26/8 47/29/8
f 112/284/8 47/29/8 46/31/8
f 112/284/8 46/31/8 6/32/8
f 112/284/8 6/32/8 5/234/8
f 112/284/8 5/234/8 57/235/8
f 112/284/8 57/235/8 110/318/8
f 57/235/8 60/319/8 110/318/8
f 57/235/8 9/118/8 60/319/8
f 9/118/8 57/235/8 10/114/8
f 118/279/36 99/252/36 121/283/36
f 99/252/36 118/279/36 80/254/36
f 80/254/36 118/279/36 83/187/36
f 83/187/36 118/279/36 84/189/36
f 84/189/36 118/279/36 91/275/36
f 84/189/36 91/275/36 108/191/36
f 91/275/36 118/279/36 76/276/36
f 76/276/36 118/279/36 88/211/36
f 88/211/36 118/279/36 86/214/36
f 86/214/36 118/279/36 97/216/36
f 97/216/36 118/279/36 103/217/36
f 103/217/36 118/279/36 104/245/36
f 104/245/36 118/279/36 101/246/36
f 119/320/36 101/246/36 118/279/36
f 107/321/36 101/246/36 119/320/36
f 93/251/36 101/246/36 107/321/36
f 101/246/36 93/251/36 95/248/36
f 88/211/36 75/210/36 76/276/36
f 83/187/36 79/186/36 80/254/36

