# Created by Kenney (www.kenney.nl)

mtllib wallArch.mtl

g wallArch

v 0.425 0 0.3
v 0.425 1 0.3
v 0.425 0 0.4
v 0.425 1 0.4
v 0.475 0 0.4
v 0.475 0 0.3
v 0.4 0 0.2
v 0.5 0 0.2
v 0.5 0 0.3
v 0.4 0 0.3
v 0.475 1 0.3
v 0.475 1 0.4
v 0.5 0 0.4
v 0.5 1 0.4
v 0.5 0 0.5
v 0.4 0 0.5
v 0.5 1 0.5
v 0.4 1 0.5
v 0.4 0 0.4
v 0.4 1 0.4
v 0.5 1 0.3
v 0.4 1 0.3
v 0.5 1 0.2
v 0.4 1 0.2

vn -1 0 0
vn 0 -1 0
vn 1 0 0
vn 0 1 0
vn 0 0 -1
vn 0 0 1

vt 11.81102 0
vt 11.81102 39.37008
vt 15.74803 0
vt 15.74803 39.37008
vt 18.70079 15.74803
vt 18.70079 11.81102
vt 16.73228 15.74803
vt 16.73228 11.81102
vt 15.74803 7.874016
vt 19.68504 7.874016
vt 19.68504 11.81102
vt 15.74803 11.81102
vt -11.81102 39.37008
vt -11.81102 0
vt -15.74803 39.37008
vt -15.74803 0
vt -18.70079 11.81102
vt -18.70079 15.74803
vt -16.73228 11.81102
vt -16.73228 15.74803
vt -18.70079 0
vt -19.68504 0
vt -18.70079 39.37008
vt -19.68504 39.37008
vt 19.68504 0
vt 19.68504 39.37008
vt 19.68504 19.68504
vt 19.68504 15.74803
vt 15.74803 19.68504
vt 15.74803 15.74803
vt -19.68504 15.74803
vt -19.68504 19.68504
vt -15.74803 19.68504
vt -15.74803 15.74803
vt -16.73228 0
vt -16.73228 39.37008
vt 18.70079 0
vt 18.70079 39.37008
vt 16.73228 0
vt 16.73228 39.37008
vt -19.68504 7.874016
vt -19.68504 11.81102
vt -15.74803 7.874016
vt -15.74803 11.81102
vt -7.874016 39.37008
vt -7.874016 0
vt 7.874016 0
vt 7.874016 39.37008

usemtl stone

f 3/3/1 2/2/1 1/1/1
f 2/2/1 3/3/1 4/4/1
f 3/7/2 6/6/2 5/5/2
f 1/8/2 6/6/2 3/7/2
f 7/9/2 6/6/2 1/8/2
f 8/10/2 6/6/2 7/9/2
f 6/6/2 8/10/2 9/11/2
f 7/9/2 1/8/2 10/12/2
f 12/15/3 6/14/3 11/13/3
f 6/14/3 12/15/3 5/16/3
f 2/19/4 12/18/4 11/17/4
f 12/18/4 2/19/4 4/20/4

usemtl wood

f 12/23/5 13/22/5 5/21/5
f 13/22/5 12/23/5 14/24/5
f 17/26/6 16/3/6 15/25/6
f 16/3/6 17/26/6 18/4/6
f 16/29/2 13/28/2 15/27/2
f 13/28/2 16/29/2 5/5/2
f 5/5/2 16/29/2 3/7/2
f 3/7/2 16/29/2 19/30/2
f 17/24/3 13/16/3 14/15/3
f 13/16/3 17/24/3 15/22/3
f 16/25/1 20/4/1 19/3/1
f 20/4/1 16/25/1 18/26/1
f 12/18/4 17/32/4 14/31/4
f 17/32/4 12/18/4 18/33/4
f 18/33/4 12/18/4 4/20/4
f 18/33/4 4/20/4 20/34/4
f 20/15/5 3/35/5 19/16/5
f 3/35/5 20/15/5 4/36/5

usemtl stoneDark

f 21/26/6 6/37/6 9/25/6
f 6/37/6 21/26/6 11/38/6
f 2/40/6 10/3/6 1/39/6
f 10/3/6 2/40/6 22/4/6
f 24/43/4 21/42/4 23/41/4
f 21/42/4 24/43/4 11/17/4
f 11/17/4 24/43/4 2/19/4
f 2/19/4 24/43/4 22/44/4
f 21/13/3 8/46/3 23/45/3
f 8/46/3 21/13/3 9/14/3
f 10/1/1 24/48/1 7/47/1
f 24/48/1 10/1/1 22/2/1
f 24/15/5 8/22/5 7/16/5
f 8/22/5 24/15/5 23/24/5

