# Created by Kenney (www.kenney.nl)

mtllib wallWoodHalf.mtl

g wallWoodHalf

v 0.425 0 -0.4
v 0.4 0 -0.4
v 0.425 0.5 -0.4
v 0.4 0.5 -0.4
v 0.4 0 -0.5
v 0.4 0.5 -0.5
v 0.5 0.5 -0.5
v 0.5 0.5 -0.4
v 0.475 0.5 -0.4
v 0.5 0 -0.5
v 0.5 0 -0.4
v 0.475 0 -0.4
v 0.5 0 0.5
v 0.5 0 0.4
v 0.4 0 0.5
v 0.475 0 0.4
v 0.425 0 0.4
v 0.4 0 0.4
v 0.475 0.5 0.4
v 0.5 0.5 0.4
v 0.4 0.5 0.4
v 0.4 0.5 0.5
v 0.5 0.5 0.5
v 0.425 0.5 0.4

vn 0 0 1
vn -1 0 0
vn 0 1 0
vn 0 0 -1
vn 0 -1 0
vn 1 0 0

vt 16.73228 0
vt 15.74803 0
vt 16.73228 19.68504
vt 15.74803 19.68504
vt -19.68504 0
vt -19.68504 19.68504
vt -15.74803 0
vt -15.74803 19.68504
vt -19.68504 -19.68504
vt -19.68504 -15.74803
vt -15.74803 -19.68504
vt -18.70079 -15.74803
vt -16.73228 -15.74803
vt -15.74803 -15.74803
vt 19.68504 -15.74803
vt 19.68504 -19.68504
vt 18.70079 -15.74803
vt 15.74803 -19.68504
vt 16.73228 -15.74803
vt 15.74803 -15.74803
vt 19.68504 19.68504
vt 19.68504 15.74803
vt 18.70079 15.74803
vt 16.73228 15.74803
vt 15.74803 15.74803
vt -18.70079 0
vt -18.70079 19.68504
vt 19.68504 0
vt 19.68504 -2.842171E-14
vt 15.74803 -2.842171E-14
vt -16.73228 0
vt -16.73228 19.68504
vt 19.68504 -6.565746E-31
vt 18.70079 -6.565746E-31
vt 18.70079 19.68504
vt -19.68504 15.74803
vt -18.70079 15.74803
vt -16.73228 15.74803
vt -15.74803 15.74803

usemtl wood

f 3/3/1 2/2/1 1/1/1
f 2/2/1 3/3/1 4/4/1
f 2/7/2 6/6/2 5/5/2
f 6/6/2 2/7/2 4/8/2
f 6/11/3 8/10/3 7/9/3
f 8/10/3 6/11/3 9/12/3
f 9/12/3 6/11/3 3/13/3
f 3/13/3 6/11/3 4/14/3
f 6/8/4 10/5/4 5/7/4
f 10/5/4 6/8/4 7/6/4
f 12/17/5 10/16/5 11/15/5
f 10/16/5 12/17/5 5/18/5
f 5/18/5 12/17/5 1/19/5
f 5/18/5 1/19/5 2/20/5
f 15/4/5 14/22/5 13/21/5
f 14/22/5 15/4/5 16/23/5
f 16/23/5 15/4/5 17/24/5
f 17/24/5 15/4/5 18/25/5
f 19/27/4 14/5/4 16/26/4
f 14/5/4 19/27/4 20/6/4
f 8/4/6 10/28/6 7/21/6
f 10/28/6 8/4/6 11/2/6
f 15/28/2 21/4/2 18/2/2
f 21/4/2 15/28/2 22/21/2
f 23/21/1 15/30/1 13/29/1
f 15/30/1 23/21/1 22/4/1
f 23/6/6 14/7/6 20/8/6
f 14/7/6 23/6/6 13/5/6
f 21/8/4 17/31/4 18/7/4
f 17/31/4 21/8/4 24/32/4
f 8/21/1 12/34/1 11/33/1
f 12/34/1 8/21/1 9/35/1
f 19/37/3 23/6/3 20/36/3
f 23/6/3 19/37/3 22/8/3
f 22/8/3 19/37/3 24/38/3
f 22/8/3 24/38/3 21/39/3

usemtl woodDark

f 19/8/6 12/2/6 9/4/6
f 12/2/6 19/8/6 16/7/6
f 17/2/2 3/8/2 1/7/2
f 3/8/2 17/2/2 24/4/2
f 17/24/5 12/17/5 16/23/5
f 12/17/5 17/24/5 1/19/5
f 3/13/3 19/37/3 9/12/3
f 19/37/3 3/13/3 24/38/3

