# Created by Kenney (www.kenney.nl)

mtllib wallWoodArch.mtl

g wallWoodArch

v 0.5 0 0.5
v 0.5 0 0.4
v 0.4 0 0.5
v 0.475 0 0.4
v 0.425 0 0.4
v 0.4 0 0.4
v 0.475 1 0.4
v 0.5 1 0.4
v 0.5 1 0.5
v 0.4 1 0.5
v 0.425 1 0.4
v 0.4 1 0.4
v 0.475 1 0.3
v 0.425 1 0.3
v 0.475 0 0.3
v 0.425 0 0.3
v 0.4 0 0.2
v 0.5 0 0.2
v 0.5 0 0.3
v 0.4 0 0.3
v 0.4 1 0.2
v 0.5 1 0.2
v 0.4 1 0.3
v 0.5 1 0.3

vn 0 -1 0
vn 0 0 -1
vn 0 1 0
vn -1 0 0
vn 0 0 1
vn 1 0 0

vt 19.68504 19.68504
vt 19.68504 15.74803
vt 15.74803 19.68504
vt 18.70079 15.74803
vt 16.73228 15.74803
vt 15.74803 15.74803
vt -18.70079 0
vt -19.68504 0
vt -18.70079 39.37008
vt -19.68504 39.37008
vt -19.68504 15.74803
vt -19.68504 19.68504
vt -18.70079 15.74803
vt -15.74803 19.68504
vt -16.73228 15.74803
vt -15.74803 15.74803
vt 15.74803 0
vt 15.74803 39.37008
vt 19.68504 0
vt 19.68504 39.37008
vt -15.74803 0
vt -16.73228 0
vt -15.74803 39.37008
vt -16.73228 39.37008
vt -18.70079 11.81102
vt -16.73228 11.81102
vt -11.81102 39.37008
vt -11.81102 0
vt 11.81102 0
vt 11.81102 39.37008
vt 18.70079 11.81102
vt 16.73228 11.81102
vt 15.74803 7.874016
vt 19.68504 7.874016
vt 19.68504 11.81102
vt 15.74803 11.81102
vt 7.874016 0
vt 7.874016 39.37008
vt 16.73228 0
vt 16.73228 39.37008
vt -7.874016 39.37008
vt -7.874016 0
vt 18.70079 0
vt 18.70079 39.37008
vt -19.68504 7.874016
vt -19.68504 11.81102
vt -15.74803 7.874016
vt -15.74803 11.81102

usemtl wood

f 3/3/1 2/2/1 1/1/1
f 2/2/1 3/3/1 4/4/1
f 4/4/1 3/3/1 5/5/1
f 5/5/1 3/3/1 6/6/1
f 7/9/2 2/8/2 4/7/2
f 2/8/2 7/9/2 8/10/2
f 7/13/3 9/12/3 8/11/3
f 9/12/3 7/13/3 10/14/3
f 10/14/3 7/13/3 11/15/3
f 10/14/3 11/15/3 12/16/3
f 3/19/4 12/18/4 6/17/4
f 12/18/4 3/19/4 10/20/4
f 12/23/2 5/22/2 6/21/2
f 5/22/2 12/23/2 11/24/2
f 9/20/5 3/17/5 1/19/5
f 3/17/5 9/20/5 10/18/5
f 9/10/6 2/21/6 8/23/6
f 2/21/6 9/10/6 1/8/6

usemtl woodDark

f 14/26/3 7/13/3 13/25/3
f 7/13/3 14/26/3 11/15/3
f 7/23/6 15/28/6 13/27/6
f 15/28/6 7/23/6 4/21/6
f 5/17/4 14/30/4 16/29/4
f 14/30/4 5/17/4 11/18/4
f 5/5/1 15/31/1 4/4/1
f 16/32/1 15/31/1 5/5/1
f 17/33/1 15/31/1 16/32/1
f 18/34/1 15/31/1 17/33/1
f 15/31/1 18/34/1 19/35/1
f 17/33/1 16/32/1 20/36/1

usemtl stoneDark

f 21/23/2 18/8/2 17/21/2
f 18/8/2 21/23/2 22/10/2
f 20/29/4 21/38/4 17/37/4
f 21/38/4 20/29/4 23/30/4
f 14/40/5 20/17/5 16/39/5
f 20/17/5 14/40/5 23/18/5
f 24/27/6 18/42/6 22/41/6
f 18/42/6 24/27/6 19/28/6
f 24/20/5 15/43/5 19/19/5
f 15/43/5 24/20/5 13/44/5
f 21/47/3 24/46/3 22/45/3
f 24/46/3 21/47/3 13/25/3
f 13/25/3 21/47/3 14/26/3
f 14/26/3 21/47/3 23/48/3

