# Created by Kenney (www.kenney.nl)

mtllib wallCorner.mtl

g wallCorner

v -0.4 1 0.4
v -0.4 0 0.4
v -0.4 1 0.425
v -0.4 0 0.425
v -0.4 0 0.5
v -0.5 0 0.5
v -0.4 1 0.5
v -0.5 1 0.5
v 0.475 0 0.4
v 0.5 0 0.4
v 0.475 1 0.4
v 0.5 1 0.4
v -0.4 1 0.475
v -0.4 0 0.475
v 0.4 0 0.4
v 0.4 1 0.4
v 0.4 0 0.425
v 0.4 1 0.425
v -0.5 0 0.4
v 0.5 0 0.5
v 0.4 0 0.5
v 0.425 0 0.4
v 0.4 0 0.475
v 0.5 0 -0.4
v 0.475 0 -0.4
v 0.5 1 -0.4
v 0.475 1 -0.4
v 0.5 1 -0.5
v 0.4 1 -0.5
v 0.425 1 -0.4
v 0.4 1 -0.4
v 0.5 1 0.5
v 0.4 0 -0.5
v 0.4 0 -0.4
v 0.4 1 0.475
v 0.4 1 0.5
v -0.5 1 0.4
v 0.425 1 0.4
v 0.5 0 -0.5
v 0.425 0 -0.4

vn 1 0 0
vn 0 0 1
vn 0 0 -1
vn -1 0 0
vn 0 -1 0
vn 0 1 0

vt -15.74803 39.37008
vt -15.74803 0
vt -16.73228 39.37008
vt -16.73228 0
vt -15.74803 9.663381E-13
vt -19.68504 9.663381E-13
vt -19.68504 39.37008
vt -18.70079 0
vt -19.68504 0
vt -18.70079 39.37008
vt 15.74803 0
vt 15.74803 39.37008
vt 16.73228 0
vt 16.73228 39.37008
vt -15.74803 19.68504
vt -15.74803 18.70079
vt -19.68504 19.68504
vt -15.74803 16.73228
vt -15.74803 15.74803
vt -19.68504 15.74803
vt 19.68504 19.68504
vt 19.68504 15.74803
vt 15.74803 19.68504
vt 18.70079 15.74803
vt 16.73228 15.74803
vt 15.74803 18.70079
vt 15.74803 16.73228
vt 15.74803 15.74803
vt 19.68504 0
vt 18.70079 0
vt 19.68504 39.37008
vt 18.70079 39.37008
vt -19.68504 -19.68504
vt -19.68504 -15.74803
vt -15.74803 -19.68504
vt -18.70079 -15.74803
vt -16.73228 -15.74803
vt -15.74803 -15.74803
vt 15.74803 7.105427E-15
vt 19.68504 7.105427E-15
vt -18.70079 15.74803
vt -16.73228 15.74803
vt 19.68504 -15.74803
vt 19.68504 -19.68504
vt 18.70079 -15.74803
vt 15.74803 -19.68504
vt 16.73228 -15.74803
vt 15.74803 -15.74803

usemtl wood

f 3/3/1 2/2/1 1/1/1
f 2/2/1 3/3/1 4/4/1
f 7/1/2 6/6/2 5/5/2
f 6/6/2 7/1/2 8/7/2
f 11/10/3 10/9/3 9/8/3
f 10/9/3 11/10/3 12/7/3
f 7/7/1 14/8/1 13/10/1
f 14/8/1 7/7/1 5/9/1
f 17/13/4 16/12/4 15/11/4
f 16/12/4 17/13/4 18/14/4
f 6/17/5 14/16/5 5/15/5
f 14/16/5 6/17/5 4/18/5
f 4/18/5 6/17/5 2/19/5
f 2/19/5 6/17/5 19/20/5
f 21/23/5 10/22/5 20/21/5
f 10/22/5 21/23/5 9/24/5
f 9/24/5 21/23/5 22/25/5
f 22/25/5 21/23/5 23/26/5
f 22/25/5 23/26/5 17/27/5
f 22/25/5 17/27/5 15/28/5
f 26/31/2 25/30/2 24/29/2
f 25/30/2 26/31/2 27/32/2
f 29/35/6 26/34/6 28/33/6
f 26/34/6 29/35/6 27/36/6
f 27/36/6 29/35/6 30/37/6
f 30/37/6 29/35/6 31/38/6
f 32/7/1 10/2/1 12/1/1
f 10/2/1 32/7/1 20/9/1
f 34/2/4 29/7/4 33/9/4
f 29/7/4 34/2/4 31/1/4
f 21/29/4 35/32/4 23/30/4
f 35/32/4 21/29/4 36/31/4
f 37/31/3 2/11/3 19/29/3
f 2/11/3 37/31/3 1/12/3
f 13/26/6 8/21/6 7/23/6
f 8/21/6 13/26/6 3/27/6
f 8/21/6 3/27/6 1/28/6
f 8/21/6 1/28/6 37/22/6
f 6/40/4 37/12/4 19/39/4
f 37/12/4 6/40/4 8/31/4
f 12/20/6 36/15/6 32/17/6
f 36/15/6 12/20/6 11/41/6
f 36/15/6 11/41/6 38/42/6
f 36/15/6 38/42/6 35/16/6
f 35/16/6 38/42/6 18/18/6
f 18/18/6 38/42/6 16/19/6
f 32/31/2 21/11/2 20/29/2
f 21/11/2 32/31/2 36/12/2
f 16/1/3 22/4/3 15/2/3
f 22/4/3 16/1/3 38/3/3
f 26/12/1 39/29/1 28/31/1
f 39/29/1 26/12/1 24/11/1
f 29/1/3 39/9/3 33/2/3
f 39/9/3 29/1/3 28/7/3
f 25/45/5 39/44/5 24/43/5
f 39/44/5 25/45/5 33/46/5
f 33/46/5 25/45/5 40/47/5
f 33/46/5 40/47/5 34/48/5
f 30/14/2 34/11/2 40/13/2
f 34/11/2 30/14/2 31/12/2

usemtl stone

f 30/37/6 11/41/6 27/36/6
f 11/41/6 30/37/6 38/42/6
f 18/18/6 13/26/6 35/16/6
f 13/26/6 18/18/6 3/27/6
f 11/1/1 25/11/1 27/12/1
f 25/11/1 11/1/1 9/2/1
f 14/16/5 17/27/5 23/26/5
f 17/27/5 14/16/5 4/18/5
f 35/12/2 14/2/2 23/11/2
f 14/2/2 35/12/2 13/1/2
f 22/25/5 25/45/5 9/24/5
f 25/45/5 22/25/5 40/47/5
f 3/12/3 17/2/3 4/11/3
f 17/2/3 3/12/3 18/1/3
f 22/11/4 30/1/4 40/2/4
f 30/1/4 22/11/4 38/12/4

