# Created by Kenney (www.kenney.nl)

mtllib bumpWalls.mtl

g bumpWalls

v 0.49995 0 -0.4999501
v 0.49995 0 -0.3999601
v 0.49995 0.146652 -0.4999501
v 0.49995 0.063327 -0.3999601
v 0.49995 0.146652 -0.3999601
v -0.4999501 0 -0.49995
v -0.4999501 0 -0.39996
v -0.49995 0 0.3999601
v 0.4999501 0 0.39996
v -0.49995 0 0.4999501
v 0.4999501 0 0.49995
v -0.4999501 0.146652 -0.49995
v -0.49995 0.146652 0.3999601
v 0.4999501 0.146652 0.39996
v -0.49995 0.146652 0.4999501
v 0.4999501 0.146652 0.49995
v -0.49995 0.063327 0.3999601
v -0.4999501 0.146652 -0.39996
v -0.4999501 0.063327 -0.39996
v 0.4999501 0.063327 0.39996
v -0.07763799 0.063327 -0.2897488
v -0.149985 0.063327 -0.2597817
v -0.2121109 0.063327 -0.2121108
v -0.2597817 0.063327 -0.149985
v -2.980232E-08 0.063327 -0.29997
v -0.2897488 0.063327 -0.07763791
v -0.29997 0.063327 2.980232E-08
v -0.2897488 0.063327 0.07763799
v -0.2597817 0.063327 0.149985
v -0.2121108 0.063327 0.2121109
v -0.149985 0.063327 0.2597817
v -0.07763793 0.063327 0.2897488
v 2.980233E-08 0.063327 0.29997
v 0.07763793 0.063327 -0.2897488
v 0.07763799 0.063327 0.2897488
v 0.149985 0.063327 0.2597817
v 0.2121109 0.063327 0.2121108
v 0.2597817 0.063327 0.149985
v 0.2897488 0.063327 0.07763791
v 0.29997 0.063327 -2.980232E-08
v 0.2897488 0.063327 -0.07763799
v 0.2597817 0.063327 -0.149985
v 0.2121108 0.063327 -0.2121109
v 0.149985 0.063327 -0.2597817
v -1.490116E-08 0.096657 -0.149985
v 0.03881896 0.096657 -0.1448744
v -0.03881899 0.096657 -0.1448744
v -0.07499252 0.096657 -0.1298908
v 0.07499249 0.096657 -0.1298909
v -0.1060554 0.096657 -0.1060554
v 0.1060554 0.096657 -0.1060554
v -0.1298909 0.096657 -0.07499249
v 0.1298908 0.096657 -0.07499252
v -0.1448744 0.096657 -0.03881896
v 0.1448744 0.096657 -0.03881899
v -0.149985 0.096657 1.490116E-08
v 0.149985 0.096657 -1.490116E-08
v -0.1448744 0.096657 0.03881899
v 0.1448744 0.096657 0.03881896
v -0.1298908 0.096657 0.07499252
v 0.1298909 0.096657 0.07499249
v -0.1060554 0.096657 0.1060554
v 0.1060554 0.096657 0.1060554
v -0.07499249 0.096657 0.1298909
v 0.07499252 0.096657 0.1298908
v -0.03881896 0.096657 0.1448744
v 0.03881899 0.096657 0.1448744
v 1.490116E-08 0.096657 0.149985

vn 1 0 -1.192093E-07
vn 0 -1 0
vn -1.192093E-07 0 -1
vn 0 1 0
vn 1.192093E-07 0 1
vn -1 0 1.192093E-07
vn -1.490116E-08 0.9930038 -0.1180831
vn 0.03056213 0.9930038 -0.1140595
vn -0.03056216 0.9930038 -0.1140595
vn -0.05904155 0.9930038 -0.1022629
vn 0.05904152 0.9930038 -0.102263
vn -0.08349734 0.9930038 -0.08349733
vn 0.08349732 0.9930038 -0.08349734
vn -0.102263 0.9930038 -0.05904151
vn 0.1022629 0.9930038 -0.05904155
vn -0.1140595 0.9930038 -0.03056213
vn 0.1140595 0.9930038 -0.03056216
vn -0.1180831 0.9930038 1.490116E-08
vn 0.1180831 0.9930038 -1.490116E-08
vn -0.1140595 0.9930038 0.03056216
vn 0.1140595 0.9930038 0.03056213
vn -0.1022629 0.9930038 0.05904155
vn 0.102263 0.9930038 0.05904151
vn -0.08349732 0.9930038 0.08349734
vn 0.08349734 0.9930038 0.08349733
vn -0.05904152 0.9930038 0.102263
vn 0.05904155 0.9930038 0.1022629
vn -0.03056213 0.9930038 0.1140595
vn 0.03056216 0.9930038 0.1140595
vn 1.490116E-08 0.9930038 0.1180831
vn 0.1084652 0.9761871 -0.1878673
vn 0.153393 0.9761871 -0.153393
vn 0.05614572 0.9761871 -0.2095388
vn -2.980232E-08 0.9761871 -0.2169305
vn -0.05614578 0.9761871 -0.2095388
vn -0.1084653 0.9761871 -0.1878673
vn -0.153393 0.9761871 -0.153393
vn -0.1878673 0.9761871 -0.1084652
vn -0.2095388 0.9761871 -0.05614573
vn -0.2169305 0.9761871 2.980232E-08
vn -0.2095388 0.9761871 0.05614579
vn -0.1878673 0.9761871 0.1084653
vn -0.153393 0.9761871 0.153393
vn -0.1084652 0.9761871 0.1878673
vn -0.05614572 0.9761871 0.2095388
vn 2.980232E-08 0.9761871 0.2169305
vn 0.05614578 0.9761871 0.2095388
vn 0.1084653 0.9761871 0.1878673
vn 0.153393 0.9761871 0.153393
vn 0.2095388 0.9761871 -0.05614579
vn 0.2169305 0.9761871 -2.980232E-08
vn 0.2095388 0.9761871 0.05614573
vn 0.1878673 0.9761871 -0.1084653
vn 0.1878673 0.9761871 0.1084652

vt 19.68307 1.152413E-14
vt 15.74646 1.152413E-14
vt 19.68307 5.773701
vt 15.74646 2.493189
vt 15.74646 5.773701
vt 19.68307 19.68307
vt 19.68307 -19.68307
vt 15.74646 19.68307
vt 15.74646 -19.68307
vt -15.74646 -19.68307
vt -15.74646 19.68307
vt -19.68307 -19.68307
vt -19.68307 19.68307
vt 19.68307 0
vt -19.68307 5.773701
vt -19.68307 0
vt 19.68307 -3.155405E-31
vt 15.74646 -3.155405E-31
vt -19.68307 2.493189
vt 19.68307 2.493189
vt -15.74646 5.608987E-14
vt -19.68307 1.152413E-14
vt -15.74646 2.493189
vt -15.74646 5.773701
vt -15.74646 1.53655E-14
vt -19.68307 1.53655E-14
vt -11.40743 -3.056612
vt -10.22762 -5.904921
vt -8.35082 -8.35082
vt -5.904921 -10.22762
vt -11.80984 2.273737E-13
vt -3.056612 -11.40743
vt -1.250555E-11 -11.80984
vt 3.056612 -11.40743
vt 5.904921 -10.22762
vt 8.35082 -8.35082
vt 10.22762 -5.904921
vt 11.40743 -3.056612
vt 11.80984 2.273737E-13
vt -11.40743 3.056612
vt 11.40743 3.056612
vt 10.22762 5.904921
vt 8.35082 8.35082
vt 5.904921 10.22762
vt 3.056612 11.40743
vt -1.250555E-11 11.80984
vt -3.056612 11.40743
vt -5.904921 10.22762
vt -8.35082 8.35082
vt -10.22762 5.904921
vt -5.904921 0
vt -5.703716 1.528306
vt -5.703716 -1.528306
vt -5.113812 -2.952461
vt -5.113812 2.952461
vt -4.17541 -4.17541
vt -4.17541 4.17541
vt -2.952461 -5.113812
vt -2.952461 5.113812
vt -1.528306 -5.703716
vt -1.528306 5.703716
vt -1.20508E-11 -5.904921
vt -1.20508E-11 5.904921
vt 1.528306 -5.703716
vt 1.528306 5.703716
vt 2.952461 -5.113812
vt 2.952461 5.113812
vt 4.17541 -4.17541
vt 4.17541 4.17541
vt 5.113812 -2.952461
vt 5.113812 2.952461
vt 5.703716 -1.528306
vt 5.703716 1.528306
vt 5.904921 0
vt 1.541494 -10.88003
vt -1.541494 -10.88003
vt 0.7707469 -4.880374
vt -0.7707469 -4.880374

usemtl border

f 3/3/1 2/2/1 1/1/1
f 2/2/1 3/3/1 4/4/1
f 4/4/1 3/3/1 5/5/1
f 2/8/2 6/7/2 1/6/2
f 6/7/2 2/8/2 7/9/2
f 7/9/2 2/8/2 8/10/2
f 8/10/2 2/8/2 9/11/2
f 8/10/2 9/11/2 10/12/2
f 10/12/2 9/11/2 11/13/2
f 3/15/3 6/14/3 12/3/3
f 6/14/3 3/15/3 1/16/3
f 15/7/4 14/8/4 13/9/4
f 14/8/4 15/7/4 16/6/4
f 11/14/5 15/15/5 10/16/5
f 15/15/5 11/14/5 16/3/5
f 15/3/6 8/18/6 10/17/6
f 8/18/6 15/3/6 17/4/6
f 17/4/6 15/3/6 13/5/6
f 18/10/4 3/13/4 12/12/4
f 3/13/4 18/10/4 5/11/4
f 4/20/5 18/15/5 19/19/5
f 18/15/5 4/20/5 5/3/5
f 14/15/3 17/20/3 13/3/3
f 17/20/3 14/15/3 20/19/3
f 20/23/1 11/22/1 9/21/1
f 11/22/1 20/23/1 16/15/1
f 16/15/1 20/23/1 14/24/1
f 19/23/6 6/26/6 7/25/6
f 6/26/6 19/23/6 12/15/6
f 12/15/6 19/23/6 18/24/6

usemtl green

f 19/10/4 21/27/4 4/11/4
f 21/27/4 19/10/4 22/28/4
f 22/28/4 19/10/4 23/29/4
f 23/29/4 19/10/4 24/30/4
f 24/30/4 19/10/4 17/9/4
f 4/11/4 21/27/4 25/31/4
f 24/30/4 17/9/4 26/32/4
f 26/32/4 17/9/4 27/33/4
f 27/33/4 17/9/4 28/34/4
f 28/34/4 17/9/4 29/35/4
f 29/35/4 17/9/4 30/36/4
f 30/36/4 17/9/4 31/37/4
f 31/37/4 17/9/4 32/38/4
f 32/38/4 17/9/4 33/39/4
f 34/40/4 4/11/4 25/31/4
f 21/27/4 34/40/4 25/31/4
f 34/40/4 21/27/4 22/28/4
f 20/8/4 33/39/4 17/9/4
f 20/8/4 35/41/4 33/39/4
f 35/41/4 32/38/4 33/39/4
f 20/8/4 36/42/4 35/41/4
f 36/42/4 31/37/4 32/38/4
f 36/42/4 32/38/4 35/41/4
f 20/8/4 37/43/4 36/42/4
f 37/43/4 30/36/4 31/37/4
f 37/43/4 31/37/4 36/42/4
f 20/8/4 38/44/4 37/43/4
f 38/44/4 29/35/4 30/36/4
f 38/44/4 30/36/4 37/43/4
f 20/8/4 39/45/4 38/44/4
f 39/45/4 28/34/4 29/35/4
f 39/45/4 29/35/4 38/44/4
f 20/8/4 40/46/4 39/45/4
f 40/46/4 27/33/4 28/34/4
f 40/46/4 28/34/4 39/45/4
f 20/8/4 41/47/4 40/46/4
f 41/47/4 27/33/4 40/46/4
f 20/8/4 42/48/4 41/47/4
f 4/11/4 42/48/4 20/8/4
f 42/48/4 4/11/4 43/49/4
f 43/49/4 4/11/4 44/50/4
f 44/50/4 4/11/4 34/40/4
f 34/40/4 22/28/4 44/50/4
f 44/50/4 22/28/4 23/29/4
f 44/50/4 23/29/4 43/49/4
f 43/49/4 23/29/4 24/30/4
f 43/49/4 24/30/4 42/48/4
f 42/48/4 24/30/4 26/32/4
f 42/48/4 26/32/4 41/47/4
f 41/47/4 26/32/4 27/33/4
f 4/4/1 9/21/1 2/2/1
f 9/21/1 4/4/1 20/23/1
f 17/4/6 7/25/6 8/18/6
f 7/25/6 17/4/6 19/23/6
f 47/53/9 46/52/8 45/51/7
f 46/52/8 47/53/9 48/54/10
f 46/52/8 48/54/10 49/55/11
f 49/55/11 48/54/10 50/56/12
f 49/55/11 50/56/12 51/57/13
f 51/57/13 50/56/12 52/58/14
f 51/57/13 52/58/14 53/59/15
f 53/59/15 52/58/14 54/60/16
f 53/59/15 54/60/16 55/61/17
f 55/61/17 54/60/16 56/62/18
f 55/61/17 56/62/18 57/63/19
f 57/63/19 56/62/18 58/64/20
f 57/63/19 58/64/20 59/65/21
f 59/65/21 58/64/20 60/66/22
f 59/65/21 60/66/22 61/67/23
f 61/67/23 60/66/22 62/68/24
f 61/67/23 62/68/24 63/69/25
f 63/69/25 62/68/24 64/70/26
f 63/69/25 64/70/26 65/71/27
f 65/71/27 64/70/26 66/72/28
f 65/71/27 66/72/28 67/73/29
f 67/73/29 66/72/28 68/74/30
f 49/77/11 43/76/32 44/75/31
f 43/76/32 49/77/11 51/78/13
f 46/77/8 44/76/31 34/75/33
f 44/76/31 46/77/8 49/78/11
f 45/77/7 34/76/33 25/75/34
f 34/76/33 45/77/7 46/78/8
f 21/75/35 45/78/7 25/76/34
f 45/78/7 21/75/35 47/77/9
f 22/75/36 47/78/9 21/76/35
f 47/78/9 22/75/36 48/77/10
f 23/75/37 48/78/10 22/76/36
f 48/78/10 23/75/37 50/77/12
f 24/75/38 50/78/12 23/76/37
f 50/78/12 24/75/38 52/77/14
f 27/75/40 54/78/16 26/76/39
f 54/78/16 27/75/40 56/77/18
f 28/75/41 56/78/18 27/76/40
f 56/78/18 28/75/41 58/77/20
f 28/76/41 60/77/22 58/78/20
f 60/77/22 28/76/41 29/75/42
f 29/76/42 62/77/24 60/78/22
f 62/77/24 29/76/42 30/75/43
f 30/76/43 64/77/26 62/78/24
f 64/77/26 30/76/43 31/75/44
f 26/75/39 52/78/14 24/76/38
f 52/78/14 26/75/39 54/77/16
f 31/76/44 66/77/28 64/78/26
f 66/77/28 31/76/44 32/75/45
f 32/76/45 68/77/30 66/78/28
f 68/77/30 32/76/45 33/75/46
f 68/78/30 35/75/47 67/77/29
f 35/75/47 68/78/30 33/76/46
f 67/78/29 36/75/48 65/77/27
f 36/75/48 67/78/29 35/76/47
f 65/78/27 37/75/49 63/77/25
f 37/75/49 65/78/27 36/76/48
f 55/77/17 40/76/51 41/75/50
f 40/76/51 55/77/17 57/78/19
f 57/77/19 39/76/52 40/75/51
f 39/76/52 57/77/19 59/78/21
f 53/77/15 41/76/50 42/75/53
f 41/76/50 53/77/15 55/78/17
f 61/78/23 39/75/52 59/77/21
f 39/75/52 61/78/23 38/76/54
f 51/77/13 42/76/53 43/75/32
f 42/76/53 51/77/13 53/78/15
f 63/78/25 38/75/54 61/77/23
f 38/75/54 63/78/25 37/76/49

