# Created by Kenney (www.kenney.nl)

mtllib corner.mtl

g corner

v -0.4999501 0 -0.49995
v -0.4999501 0 -0.39996
v 0.49995 0 -0.4999501
v 0.4999501 0 0.49995
v -0.49995 0 0.4999501
v 0.3999601 0 0.49995
v -0.4999501 0.146652 -0.49995
v 0.49995 0.146652 -0.4999501
v 0.3999601 0.063327 0.49995
v 0.3999601 0.146652 0.49995
v 0.4999501 0.146652 0.49995
v -0.4999501 0.146652 -0.39996
v 0.39996 0.146652 -0.3999601
v -0.4999501 0.063327 -0.39996
v 0.39996 0.063327 -0.3999601
v -0.49995 0.063327 0.4999501

vn 0 -1 0
vn -1.192093E-07 0 -1
vn 1.192093E-07 0 1
vn 0 1 0
vn 1 0 -1.192093E-07
vn -1 0 1.192093E-07

vt 19.68307 -19.68307
vt 15.74646 -19.68307
vt 19.68307 19.68307
vt -19.68307 19.68307
vt -19.68307 -19.68307
vt -19.68307 15.74646
vt 19.68307 5.773701
vt 19.68307 -2.529061E-14
vt -19.68307 5.773701
vt -19.68307 -2.529061E-14
vt 15.74646 -1.676378E-27
vt 15.74646 2.493189
vt 19.68307 -1.676378E-27
vt 15.74646 5.773701
vt -15.74646 -19.68307
vt -15.74646 15.74646
vt 19.68307 15.74646
vt 19.68307 1.426637E-13
vt -19.68307 1.426637E-13
vt -15.74646 2.492883E-14
vt -19.68307 1.53655E-14
vt -15.74646 2.493189
vt -15.74646 5.773701
vt -19.68307 2.493189
vt 19.68307 2.493189
vt 19.68307 2.492883E-14
vt -19.68307 0

usemtl border

f 3/3/1 2/2/1 1/1/1
f 2/2/1 3/3/1 4/4/1
f 2/2/1 4/4/1 5/5/1
f 5/5/1 4/4/1 6/6/1
f 8/9/2 1/8/2 7/7/2
f 1/8/2 8/9/2 3/10/2
f 4/13/3 9/12/3 6/11/3
f 9/12/3 4/13/3 10/14/3
f 10/14/3 4/13/3 11/7/3
f 12/15/4 8/4/4 7/5/4
f 8/4/4 12/15/4 13/16/4
f 8/4/4 13/16/4 11/3/4
f 11/3/4 13/16/4 10/17/4
f 8/7/5 4/19/5 3/18/5
f 4/19/5 8/7/5 11/9/5
f 14/22/6 1/21/6 2/20/6
f 1/21/6 14/22/6 7/9/6
f 7/9/6 14/22/6 12/23/6
f 15/12/3 12/9/3 14/24/3
f 12/9/3 15/12/3 13/14/3
f 10/7/6 15/22/6 9/25/6
f 15/22/6 10/7/6 13/23/6

usemtl green

f 16/1/4 15/16/4 14/15/4
f 15/16/4 16/1/4 9/17/4
f 16/25/6 2/20/6 5/26/6
f 2/20/6 16/25/6 14/22/6
f 6/11/3 16/24/3 5/27/3
f 16/24/3 6/11/3 9/12/3

