# Created by Kenney (www.kenney.nl)

mtllib hillCorner.mtl

g hillCorner

v -0.4999501 0 -0.49995
v -0.4999501 0 -0.39996
v 0.49995 0 -0.4999501
v 0.4999501 0 0.49995
v 0.3999601 0 0.49995
v -0.49995 0 0.4999501
v -0.4999501 0.146652 -0.49995
v 0.49995 0.146652 -0.4999501
v 0.3999601 0.063327 0.49995
v 0.3999601 0.146652 0.49995
v 0.4999501 0.146652 0.49995
v -0.4999501 0.146652 -0.39996
v 0.39996 0.146652 -0.3999601
v 0.1230646 0.146652 -0.3999601
v 0.39996 0.146652 -0.1230647
v -0.4999501 0.063327 -0.39996
v 0.3999601 0.063327 0.04999495
v 0.39996 0.279972 -0.3999601
v -0.04999507 0.063327 -0.3999601
v 0.39996 0.063327 -0.3999601
v -0.49995 0.063327 0.4999501

vn 0 -1 0
vn -1.192093E-07 0 -1
vn 1.192093E-07 0 1
vn 0 1 0
vn 1 0 -1.192093E-07
vn -1 0 1.192093E-07
vn -0.3979799 0.8265736 0.39798

vt 19.68307 -19.68307
vt 15.74646 -19.68307
vt 19.68307 19.68307
vt -19.68307 19.68307
vt -19.68307 15.74646
vt -19.68307 -19.68307
vt 19.68307 5.773701
vt 19.68307 -2.529061E-14
vt -19.68307 5.773701
vt -19.68307 -2.529061E-14
vt 15.74646 -1.676378E-27
vt 15.74646 2.493189
vt 19.68307 -1.676378E-27
vt 15.74646 5.773701
vt -15.74646 -19.68307
vt -15.74646 15.74646
vt -15.74646 4.845064
vt -4.845064 15.74646
vt 19.68307 15.74646
vt 19.68307 1.426637E-13
vt -19.68307 1.426637E-13
vt -15.74646 2.492883E-14
vt -19.68307 1.53655E-14
vt -15.74646 2.493189
vt -15.74646 5.773701
vt 19.68307 2.493189
vt 1.968307 2.493189
vt -4.845064 5.773701
vt 4.845064 5.773701
vt 15.74646 11.02252
vt -15.74646 11.02252
vt -19.68307 2.493189
vt -1.968307 2.493189
vt 15.74646 0
vt 19.68307 2.492883E-14
vt -19.68307 0
vt -15.74646 -1.968307
vt 1.968307 15.74646
vt -12.52623 9.456233
vt -7.708449 15.28485
vt 12.52623 9.456233
vt 1.613121E-11 24.61064
vt 7.708449 15.28485

usemtl border

f 3/3/1 2/2/1 1/1/1
f 2/2/1 3/3/1 4/4/1
f 2/2/1 4/4/1 5/5/1
f 2/2/1 5/5/1 6/6/1
f 8/9/2 1/8/2 7/7/2
f 1/8/2 8/9/2 3/10/2
f 4/13/3 9/12/3 5/11/3
f 9/12/3 4/13/3 10/14/3
f 10/14/3 4/13/3 11/7/3
f 12/15/4 8/4/4 7/6/4
f 8/4/4 12/15/4 13/16/4
f 8/4/4 13/16/4 11/3/4
f 13/16/4 12/15/4 14/17/4
f 11/3/4 13/16/4 15/18/4
f 11/3/4 15/18/4 10/19/4
f 8/7/5 4/21/5 3/20/5
f 4/21/5 8/7/5 11/9/5
f 16/24/6 1/23/6 2/22/6
f 1/23/6 16/24/6 7/9/6
f 7/9/6 16/24/6 12/25/6
f 10/7/6 17/27/6 9/26/6
f 17/27/6 10/7/6 15/28/6
f 18/30/5 15/29/5 13/14/5
f 13/25/2 14/28/2 18/31/2
f 19/33/3 12/9/3 16/32/3
f 12/9/3 19/33/3 14/29/3

usemtl _defaultMat

f 17/2/4 20/5/4 19/6/4
f 20/9/3 14/24/3 19/25/3
f 14/9/3 20/24/3 13/25/3
f 15/32/6 20/34/6 17/12/6
f 20/32/6 15/34/6 13/12/6

usemtl green

f 21/26/6 2/22/6 6/35/6
f 2/22/6 21/26/6 16/24/6
f 5/11/3 21/32/3 6/36/3
f 21/32/3 5/11/3 9/12/3
f 21/1/4 19/37/4 16/15/4
f 19/37/4 21/1/4 17/38/4
f 17/38/4 21/1/4 9/19/4
f 17/41/7 14/40/7 19/39/7
f 14/40/7 17/41/7 18/42/7
f 18/42/7 17/41/7 15/43/7

