# Created by Kenney (www.kenney.nl)

mtllib hillRound.mtl

g hillRound

v 0.49995 0 -0.4999501
v 0.49995 0 -0.3999601
v 0.49995 0.146652 -0.4999501
v 0.49995 0.063327 -0.3999601
v 0.49995 0.146652 -0.3999601
v -0.4999501 0 -0.49995
v -0.4999501 0 -0.39996
v -0.49995 0 0.3999601
v 0.4999501 0 0.39996
v -0.49995 0 0.4999501
v 0.4999501 0 0.49995
v -0.4999501 0.146652 -0.49995
v -0.276696 0.146652 -0.4999501
v -0.2673189 0.1534508 -0.49995
v -0.2051641 0.1864382 -0.49995
v -0.1390285 0.2104688 -0.4999501
v -0.07019528 0.2250762 -0.49995
v -5.960464E-08 0.229977 -0.4999501
v 0.07019516 0.2250762 -0.4999501
v 0.1390284 0.2104688 -0.4999501
v 0.205164 0.1864382 -0.4999501
v 0.2766959 0.146652 -0.4999501
v 0.2673188 0.1534508 -0.4999501
v 0.4999501 0.146652 0.39996
v 0.4999501 0.146652 0.49995
v 0.276696 0.146652 0.39996
v 0.276696 0.146652 0.4999501
v -0.49995 0.146652 0.4999501
v -0.2766959 0.146652 0.4999501
v -0.2673188 0.1534508 0.4999501
v -0.205164 0.1864382 0.4999501
v -0.1390284 0.2104688 0.4999501
v -0.07019516 0.2250762 0.4999501
v 5.960464E-08 0.229977 0.4999501
v 0.07019528 0.2250762 0.49995
v 0.1390285 0.2104688 0.4999501
v 0.2051641 0.1864382 0.49995
v 0.2673189 0.1534508 0.49995
v -0.49995 0.063327 0.3999601
v -0.49995 0.146652 0.3999601
v -0.2766959 0.146652 0.3999601
v -0.249975 0.063327 0.3999601
v -0.2673188 0.1534508 0.3999601
v -0.205164 0.1864382 0.3999601
v -0.2128607 0.08817042 0.3999601
v -0.1733003 0.1088982 0.3999601
v -0.1390284 0.2104688 0.3999601
v -0.1317483 0.1252722 0.3999601
v -0.07019516 0.2250762 0.3999601
v -0.08868244 0.1371042 0.3999601
v -0.04459744 0.1442582 0.3999601
v 5.960464E-08 0.229977 0.3999601
v 5.960464E-08 0.146652 0.3999601
v 0.04459756 0.1442582 0.3999601
v 0.07019528 0.2250762 0.3999601
v 0.08868256 0.1371042 0.3999601
v 0.1390285 0.2104688 0.39996
v 0.1317485 0.1252722 0.3999601
v 0.1733004 0.1088982 0.39996
v 0.2051641 0.1864382 0.39996
v 0.2128608 0.08817042 0.39996
v 0.2673189 0.1534508 0.3999601
v 0.2499751 0.063327 0.39996
v 0.4999501 0.063327 0.39996
v -0.4999501 0.063327 -0.39996
v -0.4999501 0.146652 -0.39996
v -0.2499751 0.063327 -0.39996
v -0.276696 0.146652 -0.39996
v -0.2673189 0.1534508 -0.3999601
v -0.2051641 0.1864382 -0.39996
v -0.2128608 0.08817042 -0.39996
v -0.1733004 0.1088982 -0.39996
v -0.1390285 0.2104688 -0.39996
v -0.1317485 0.1252722 -0.3999601
v -0.07019528 0.2250762 -0.3999601
v -0.08868256 0.1371042 -0.3999601
v -0.04459756 0.1442582 -0.3999601
v -5.960464E-08 0.229977 -0.3999601
v -5.960464E-08 0.146652 -0.3999601
v 0.04459744 0.1442582 -0.3999601
v 0.07019516 0.2250762 -0.3999601
v 0.08868244 0.1371042 -0.3999601
v 0.1390284 0.2104688 -0.3999601
v 0.1317483 0.1252722 -0.3999601
v 0.1733003 0.1088982 -0.3999601
v 0.205164 0.1864382 -0.3999601
v 0.2128607 0.08817042 -0.3999601
v 0.2673188 0.1534508 -0.3999601
v 0.249975 0.063327 -0.3999601
v 0.2766959 0.146652 -0.3999601

vn 1 0 -1.192093E-07
vn 0 -1 0
vn -1.192093E-07 0 -1
vn 0 1 0
vn 1.192093E-07 0 1
vn -1 0 1.192093E-07
vn 0.5291789 0.8485103 -5.960464E-08
vn 0.5869905 0.8095938 -5.960464E-08
vn 0.4061385 0.9138115 -5.960464E-08
vn 0.2752178 0.9613819 -2.980232E-08
vn 0.138957 0.9902984 -1.490116E-08
vn -0.138957 0.9902984 1.490116E-08
vn -0.2752178 0.9613819 2.980232E-08
vn -0.4061385 0.9138115 5.960464E-08
vn -0.5291789 0.8485103 5.960464E-08
vn -0.5869905 0.8095938 5.960464E-08
vn -0.5109169 -0.8596302 5.960464E-08
vn -0.556258 -0.8310096 5.960464E-08
vn -0.4159623 -0.9093818 5.960464E-08
vn -0.3162278 -0.9486833 2.980232E-08
vn -0.2128593 -0.9770828 2.980232E-08
vn -0.1070447 -0.9942542 1.490116E-08
vn 0.1070447 -0.9942542 -1.490116E-08
vn 0.2128593 -0.9770828 -2.980232E-08
vn 0.3162278 -0.9486833 -2.980232E-08
vn 0.4159623 -0.9093818 -5.960464E-08
vn 0.5109169 -0.8596302 -5.960464E-08
vn 0.556258 -0.8310096 -5.960464E-08
vn 0.5109169 0.8596302 -5.960464E-08
vn 0.556258 0.8310096 -5.960464E-08
vn 0.4159623 0.9093818 -5.960464E-08
vn 0.3162278 0.9486833 -2.980232E-08
vn 0.2128593 0.9770828 -2.980232E-08
vn 0.1070447 0.9942542 -1.490116E-08
vn -0.1070447 0.9942542 1.490116E-08
vn -0.2128593 0.9770828 2.980232E-08
vn -0.3162278 0.9486833 2.980232E-08
vn -0.4159623 0.9093818 5.960464E-08
vn -0.5109169 0.8596302 5.960464E-08
vn -0.556258 0.8310096 5.960464E-08

vt 19.68307 1.152413E-14
vt 15.74646 1.152413E-14
vt 19.68307 5.773701
vt 15.74646 2.493189
vt 15.74646 5.773701
vt 19.68307 -19.68307
vt 15.74646 -19.68307
vt 19.68307 19.68307
vt 15.74646 19.68307
vt -15.74646 -19.68307
vt -15.74646 19.68307
vt -19.68307 -19.68307
vt -19.68307 19.68307
vt 19.68307 5.664228E-11
vt 10.89354 5.773701
vt -19.68307 5.664228E-11
vt 10.52436 6.041371
vt 8.077324 7.340088
vt 5.473559 8.286172
vt 2.763591 8.861266
vt 1.116091E-14 9.054213
vt -2.763591 8.861266
vt -5.473559 8.286172
vt -8.077324 7.340088
vt -10.89354 5.773701
vt -10.52436 6.041371
vt -19.68307 5.773701
vt 15.74646 10.89354
vt 19.68307 10.89354
vt -19.68307 2.592694E-14
vt 19.68307 2.592694E-14
vt -2.162128E-13 9.054213
vt 19.68307 -3.155405E-31
vt 15.74646 -3.155405E-31
vt 19.68307 2.493189
vt 9.841536 2.493189
vt 8.380342 3.471277
vt 6.822846 4.287332
vt 5.186944 4.931975
vt 3.491437 5.397801
vt 1.755807 5.679455
vt 1.631103E-13 9.054213
vt 2.199538E-13 5.773701
vt -1.755807 5.679455
vt -3.491437 5.397801
vt -5.186944 4.931975
vt -6.822846 4.287332
vt -8.380342 3.471277
vt -9.841536 2.493189
vt -19.68307 2.493189
vt -15.74646 5.608987E-14
vt -19.68307 1.152413E-14
vt -15.74646 2.493189
vt -15.74646 5.773701
vt -15.74646 1.53655E-14
vt -19.68307 1.53655E-14
vt 9.814832E-15 9.054213
vt 9.814832E-15 5.773701
vt -19.68307 -10.89354
vt -15.74646 -10.89354
vt 19.68307 -4.974231
vt 19.68307 -5.430235
vt 15.74646 -4.974231
vt 15.74646 -5.430235
vt 19.68307 -3.693736
vt 19.68307 -6.464055
vt 15.74646 -3.693736
vt 15.74646 -6.464055
vt 19.68307 -2.314695
vt 19.68307 -5.085013
vt 15.74646 -2.314695
vt 15.74646 -5.085013
vt 19.68307 -0.8638643
vt 19.68307 -3.634182
vt 15.74646 -0.8638643
vt 15.74646 -3.634182
vt 19.68307 0.6306044
vt 19.68307 -2.139714
vt 15.74646 0.6306044
vt 15.74646 -2.139714
vt -19.68307 -2.139714
vt -19.68307 0.6306044
vt -15.74646 -2.139714
vt -15.74646 0.6306044
vt -19.68307 -3.634182
vt -19.68307 -0.8638643
vt -15.74646 -3.634182
vt -15.74646 -0.8638643
vt -19.68307 -5.085013
vt -19.68307 -2.314695
vt -15.74646 -5.085013
vt -15.74646 -2.314695
vt -19.68307 -6.464055
vt -19.68307 -3.693736
vt -15.74646 -6.464055
vt -15.74646 -3.693736
vt -19.68307 -5.430235
vt -19.68307 -4.974231
vt -15.74646 -5.430235
vt -15.74646 -4.974231
vt -19.68307 10.89354
vt -15.74646 10.89354
vt 15.74646 -10.89354
vt 19.68307 -10.89354
vt -15.74646 -5.03322
vt 15.74646 -6.791554
vt 15.74646 -5.03322
vt -15.74646 -6.791554
vt -15.74646 -4.053757
vt 15.74646 -5.812091
vt 15.74646 -4.053757
vt -15.74646 -5.812091
vt -15.74646 -3.017606
vt 15.74646 -4.775941
vt 15.74646 -3.017606
vt -15.74646 -4.775941
vt -15.74646 -1.936676
vt 15.74646 -3.695011
vt 15.74646 -1.936676
vt -15.74646 -3.695011
vt -15.74646 -0.8233871
vt 15.74646 -2.581722
vt 15.74646 -0.8233871
vt -15.74646 -2.581722
vt -15.74646 0.3094669
vt 15.74646 -1.448868
vt 15.74646 0.3094669
vt -15.74646 -1.448868
vt -15.74646 -9.841536
vt 15.74646 -9.841536
vt -15.74646 9.841536
vt 15.74646 9.841536

usemtl border

f 3/3/1 2/2/1 1/1/1
f 2/2/1 3/3/1 4/4/1
f 4/4/1 3/3/1 5/5/1
f 1/8/2 7/7/2 6/6/2
f 7/7/2 1/8/2 2/9/2
f 7/7/2 2/9/2 8/10/2
f 8/10/2 2/9/2 9/11/2
f 8/10/2 9/11/2 10/12/2
f 10/12/2 9/11/2 11/13/2
f 13/15/3 6/14/3 12/3/3
f 6/14/3 13/15/3 1/16/3
f 1/16/3 13/15/3 14/17/3
f 1/16/3 14/17/3 15/18/3
f 1/16/3 15/18/3 16/19/3
f 1/16/3 16/19/3 17/20/3
f 1/16/3 17/20/3 18/21/3
f 1/16/3 18/21/3 19/22/3
f 1/16/3 19/22/3 20/23/3
f 1/16/3 20/23/3 21/24/3
f 1/16/3 21/24/3 22/25/3
f 22/25/3 21/24/3 23/26/3
f 1/16/3 22/25/3 3/27/3
f 26/28/4 25/8/4 24/9/4
f 25/8/4 26/28/4 27/29/4
f 11/31/5 28/27/5 10/30/5
f 28/27/5 11/31/5 29/25/5
f 29/25/5 11/31/5 30/26/5
f 30/26/5 11/31/5 31/24/5
f 31/24/5 11/31/5 32/23/5
f 32/23/5 11/31/5 33/22/5
f 33/22/5 11/31/5 34/32/5
f 34/32/5 11/31/5 35/20/5
f 35/20/5 11/31/5 36/19/5
f 36/19/5 11/31/5 37/18/5
f 37/18/5 11/31/5 27/15/5
f 37/18/5 27/15/5 38/17/5
f 27/15/5 11/31/5 25/3/5
f 28/3/6 8/34/6 10/33/6
f 8/34/6 28/3/6 39/4/6
f 39/4/6 28/3/6 40/5/6
f 41/15/3 39/35/3 40/3/3
f 39/35/3 41/15/3 42/36/3
f 42/36/3 41/15/3 43/17/3
f 42/36/3 43/17/3 44/18/3
f 42/36/3 44/18/3 45/37/3
f 45/37/3 44/18/3 46/38/3
f 46/38/3 44/18/3 47/19/3
f 46/38/3 47/19/3 48/39/3
f 48/39/3 47/19/3 49/20/3
f 48/39/3 49/20/3 50/40/3
f 50/40/3 49/20/3 51/41/3
f 51/41/3 49/20/3 52/42/3
f 51/41/3 52/42/3 53/43/3
f 53/43/3 52/42/3 54/44/3
f 54/44/3 52/42/3 55/22/3
f 54/44/3 55/22/3 56/45/3
f 56/45/3 55/22/3 57/23/3
f 56/45/3 57/23/3 58/46/3
f 58/46/3 57/23/3 59/47/3
f 59/47/3 57/23/3 60/24/3
f 59/47/3 60/24/3 61/48/3
f 61/48/3 60/24/3 62/26/3
f 61/48/3 62/26/3 63/49/3
f 63/49/3 62/26/3 26/25/3
f 63/49/3 26/25/3 64/50/3
f 64/50/3 26/25/3 24/27/3
f 64/53/1 11/52/1 9/51/1
f 11/52/1 64/53/1 25/27/1
f 25/27/1 64/53/1 24/54/1
f 65/53/6 6/56/6 7/55/6
f 6/56/6 65/53/6 12/27/6
f 12/27/6 65/53/6 66/54/6
f 67/49/5 66/27/5 65/50/5
f 66/27/5 67/49/5 68/25/5
f 68/25/5 67/49/5 69/26/5
f 69/26/5 67/49/5 70/24/5
f 70/24/5 67/49/5 71/48/5
f 70/24/5 71/48/5 72/47/5
f 70/24/5 72/47/5 73/23/5
f 73/23/5 72/47/5 74/46/5
f 73/23/5 74/46/5 75/22/5
f 75/22/5 74/46/5 76/45/5
f 75/22/5 76/45/5 77/44/5
f 75/22/5 77/44/5 78/57/5
f 78/57/5 77/44/5 79/58/5
f 78/57/5 79/58/5 80/41/5
f 78/57/5 80/41/5 81/20/5
f 81/20/5 80/41/5 82/40/5
f 81/20/5 82/40/5 83/19/5
f 83/19/5 82/40/5 84/39/5
f 83/19/5 84/39/5 85/38/5
f 83/19/5 85/38/5 86/18/5
f 86/18/5 85/38/5 87/37/5
f 86/18/5 87/37/5 88/17/5
f 88/17/5 87/37/5 89/36/5
f 88/17/5 89/36/5 90/15/5
f 90/15/5 89/36/5 4/35/5
f 90/15/5 4/35/5 5/3/5
f 12/12/4 68/60/4 13/59/4
f 68/60/4 12/12/4 66/10/4
f 88/63/7 22/62/8 23/61/7
f 22/62/8 88/63/7 90/64/8
f 86/67/9 23/66/7 21/65/9
f 23/66/7 86/67/9 88/68/7
f 83/71/10 21/70/9 20/69/10
f 21/70/9 83/71/10 86/72/9
f 81/75/11 20/74/10 19/73/11
f 20/74/10 81/75/11 83/76/10
f 78/79/4 19/78/11 18/77/4
f 19/78/11 78/79/4 81/80/11
f 75/83/12 18/82/4 17/81/12
f 18/82/4 75/83/12 78/84/4
f 73/87/13 17/86/12 16/85/13
f 17/86/12 73/87/13 75/88/12
f 70/91/14 16/90/13 15/89/14
f 16/90/13 70/91/14 73/92/13
f 69/95/15 15/94/14 14/93/15
f 15/94/14 69/95/15 70/96/14
f 68/99/16 14/98/15 13/97/16
f 14/98/15 68/99/16 69/100/15
f 90/102/4 3/13/4 22/101/4
f 3/13/4 90/102/4 5/11/4
f 38/98/7 26/99/8 62/100/7
f 26/99/8 38/98/7 27/97/8
f 37/94/9 62/95/7 60/96/9
f 62/95/7 37/94/9 38/93/7
f 36/90/10 60/91/9 57/92/10
f 60/91/9 36/90/10 37/89/9
f 35/86/11 57/87/10 55/88/11
f 57/87/10 35/86/11 36/85/10
f 34/82/4 55/83/11 52/84/4
f 55/83/11 34/82/4 35/81/11
f 33/78/12 52/79/4 49/80/12
f 52/79/4 33/78/12 34/77/4
f 32/74/13 49/75/12 47/76/13
f 49/75/12 32/74/13 33/73/12
f 31/70/14 47/71/13 44/72/14
f 47/71/13 31/70/14 32/69/13
f 30/66/15 44/67/14 43/68/15
f 44/67/14 30/66/15 31/65/14
f 29/62/16 43/63/15 41/64/16
f 43/63/15 29/62/16 30/61/15
f 28/6/4 41/103/4 40/7/4
f 41/103/4 28/6/4 29/104/4
f 87/107/17 89/106/18 61/105/17
f 63/108/18 61/105/17 89/106/18
f 85/111/19 87/110/17 59/109/19
f 61/112/17 59/109/19 87/110/17
f 84/115/20 85/114/19 58/113/20
f 59/116/19 58/113/20 85/114/19
f 82/119/21 84/118/20 56/117/21
f 58/120/20 56/117/21 84/118/20
f 80/123/22 82/122/21 54/121/22
f 56/124/21 54/121/22 82/122/21
f 79/127/2 80/126/22 53/125/2
f 54/128/22 53/125/2 80/126/22
f 77/128/23 79/125/2 51/126/23
f 53/127/2 51/126/23 79/125/2
f 76/124/24 77/121/23 50/122/24
f 51/123/23 50/122/24 77/121/23
f 74/120/25 76/117/24 48/118/25
f 50/119/24 48/118/25 76/117/24
f 72/116/26 74/113/25 46/114/26
f 48/115/25 46/114/26 74/113/25
f 71/112/27 72/109/26 45/110/27
f 46/111/26 45/110/27 72/109/26
f 67/108/28 71/105/27 42/106/28
f 45/107/27 42/106/28 71/105/27

usemtl green

f 4/4/1 9/51/1 2/2/1
f 9/51/1 4/4/1 64/53/1
f 39/4/6 7/55/6 8/34/6
f 7/55/6 39/4/6 65/53/6
f 39/7/4 67/129/4 65/10/4
f 67/129/4 39/7/4 42/130/4
f 61/105/29 89/106/30 87/107/29
f 89/106/30 61/105/29 63/108/30
f 59/109/31 87/110/29 85/111/31
f 87/110/29 59/109/31 61/112/29
f 58/113/32 85/114/31 84/115/32
f 85/114/31 58/113/32 59/116/31
f 56/117/33 84/118/32 82/119/33
f 84/118/32 56/117/33 58/120/32
f 54/121/34 82/122/33 80/123/34
f 82/122/33 54/121/34 56/124/33
f 53/125/4 80/126/34 79/127/4
f 80/126/34 53/125/4 54/128/34
f 51/126/35 79/125/4 77/128/35
f 79/125/4 51/126/35 53/127/4
f 50/122/36 77/121/35 76/124/36
f 77/121/35 50/122/36 51/123/35
f 48/118/37 76/117/36 74/120/37
f 76/117/36 48/118/37 50/119/36
f 46/114/38 74/113/37 72/116/38
f 74/113/37 46/114/38 48/115/37
f 45/110/39 72/109/38 71/112/39
f 72/109/38 45/110/39 46/111/38
f 42/106/40 71/105/39 67/108/40
f 71/105/39 42/106/40 45/107/39
f 63/132/4 4/11/4 89/131/4
f 4/11/4 63/132/4 64/9/4

