# Created by Kenney (www.kenney.nl)

mtllib holeOpen.mtl

g holeOpen

v 0.49995 0 -0.4999501
v -0.4999501 0 -0.49995
v 0.4999501 0 0.49995
v -0.49995 0 0.4999501
v -0.4999501 0.063327 -0.49995
v 0.49995 0.063327 -0.4999501
v -0.04713575 0.063327 -0.04713574
v -0.49995 0.063327 0.4999501
v -0.03333001 0.063327 -0.05772926
v -0.01725289 0.063327 -0.06438862
v -7.450577E-09 0.063327 -0.06666001
v -0.05772926 0.063327 -0.03332999
v -0.06438862 0.063327 -0.01725287
v -0.06666001 0.063327 7.450581E-09
v -0.06438862 0.063327 0.01725288
v -0.05772926 0.063327 0.03333001
v -0.04713574 0.063327 0.04713575
v -0.03333 0.063327 0.05772926
v -0.01725287 0.063327 0.06438862
v 7.450583E-09 0.063327 0.06666001
v 0.01725287 0.063327 -0.06438862
v 0.4999501 0.063327 0.49995
v 0.01725289 0.063327 0.06438862
v 0.03333001 0.063327 0.05772926
v 0.04713575 0.063327 0.04713574
v 0.05772926 0.063327 0.03332999
v 0.06438862 0.063327 0.01725287
v 0.06666001 0.063327 -7.450581E-09
v 0.06438862 0.063327 -0.01725288
v 0.05772926 0.063327 -0.03333001
v 0.04713574 0.063327 -0.04713575
v 0.03333 0.063327 -0.05772926
v -7.450577E-09 0.0316635 -0.06666001
v 0.01725287 0.0316635 -0.06438862
v -0.01725289 0.0316635 -0.06438862
v -0.03333001 0.0316635 -0.05772926
v 0.03333 0.0316635 -0.05772926
v -0.04713575 0.0316635 -0.04713574
v 0.04713574 0.0316635 -0.04713575
v -0.05772926 0.0316635 -0.03332999
v 0.05772926 0.0316635 -0.03333001
v -0.06438862 0.0316635 -0.01725287
v 0.06438862 0.0316635 -0.01725288
v -0.06666001 0.0316635 7.450581E-09
v 0.06666001 0.0316635 -7.450581E-09
v -0.06438862 0.0316635 0.01725288
v 0.06438862 0.0316635 0.01725287
v -0.05772926 0.0316635 0.03333001
v 0.05772926 0.0316635 0.03332999
v -0.04713574 0.0316635 0.04713575
v 0.04713575 0.0316635 0.04713574
v -0.03333 0.0316635 0.05772926
v 0.03333001 0.0316635 0.05772926
v -0.01725287 0.0316635 0.06438862
v 0.01725289 0.0316635 0.06438862
v 7.450583E-09 0.0316635 0.06666001

vn 0 -1 0
vn -1.192093E-07 0 -1
vn 0 1 0
vn 1.192093E-07 0 1
vn 1 0 -1.192093E-07
vn -1 0 1.192093E-07
vn -0.5000002 0 -0.8660255
vn -0.7071069 0 -0.7071068
vn -0.8660256 0 -0.4999999
vn -0.9659259 0 -0.258819
vn -0.9659259 0 0.2588192
vn -0.8660255 0 0.5000002
vn -0.7071068 0 0.7071069
vn -0.4999999 0 0.8660256
vn -0.258819 0 0.9659259
vn 0.2588192 0 0.9659259
vn 0.5000002 0 0.8660255
vn 0.7071069 0 0.7071068
vn 0.8660256 0 0.4999999
vn 0.9659259 0 0.258819
vn 0.9659259 0 -0.2588192
vn 0.8660255 0 -0.5000002
vn 0.7071068 0 -0.7071069
vn 0.4999999 0 -0.8660256
vn 0.258819 0 -0.9659259
vn -0.2588192 0 -0.9659259

vt 19.68307 19.68307
vt 19.68307 -19.68307
vt -19.68307 19.68307
vt -19.68307 -19.68307
vt 19.68307 2.493189
vt 19.68307 -2.334518E-14
vt -19.68307 2.493189
vt -19.68307 -2.334518E-14
vt -1.855738 -1.855738
vt -2.272805 -1.312205
vt -2.534985 -0.6792471
vt -2.624409 1.136868E-13
vt -1.312205 -2.272805
vt -0.6792471 -2.534985
vt -1.205049E-11 -2.624409
vt 0.6792471 -2.534985
vt 1.312205 -2.272805
vt 1.855738 -1.855738
vt 2.272805 -1.312205
vt 2.534985 -0.6792471
vt 2.624409 1.136868E-13
vt -2.534985 0.6792471
vt 2.534985 0.6792471
vt 2.272805 1.312205
vt 1.855738 1.855738
vt 1.312205 2.272805
vt 0.6792471 2.534985
vt -1.205049E-11 2.624409
vt -0.6792471 2.534985
vt -1.312205 2.272805
vt -1.855738 1.855738
vt -2.272805 1.312205
vt -19.68307 0
vt 19.68307 0
vt 19.68307 8.872024E-15
vt -19.68307 8.872024E-15
vt 19.68307 5.551234E-29
vt -19.68307 5.551234E-29
vt -1.20508E-11 -2.624409
vt -1.20508E-11 2.624409
vt 0.3425542 2.493189
vt 0.3425542 1.246594
vt -0.3425542 2.493189
vt -0.3425542 1.246594

usemtl green

f 3/3/1 2/2/1 1/1/1
f 2/2/1 3/3/1 4/4/1
f 6/7/2 2/6/2 5/5/2
f 2/6/2 6/7/2 1/8/2
f 5/4/3 7/9/3 6/3/3
f 7/9/3 5/4/3 8/2/3
f 6/3/3 7/9/3 9/10/3
f 6/3/3 9/10/3 10/11/3
f 6/3/3 10/11/3 11/12/3
f 7/9/3 8/2/3 12/13/3
f 12/13/3 8/2/3 13/14/3
f 13/14/3 8/2/3 14/15/3
f 14/15/3 8/2/3 15/16/3
f 15/16/3 8/2/3 16/17/3
f 16/17/3 8/2/3 17/18/3
f 17/18/3 8/2/3 18/19/3
f 18/19/3 8/2/3 19/20/3
f 19/20/3 8/2/3 20/21/3
f 21/22/3 6/3/3 11/12/3
f 22/1/3 20/21/3 8/2/3
f 22/1/3 23/23/3 20/21/3
f 22/1/3 24/24/3 23/23/3
f 22/1/3 25/25/3 24/24/3
f 22/1/3 26/26/3 25/25/3
f 22/1/3 27/27/3 26/26/3
f 22/1/3 28/28/3 27/27/3
f 22/1/3 29/29/3 28/28/3
f 22/1/3 30/30/3 29/29/3
f 22/1/3 31/31/3 30/30/3
f 6/3/3 31/31/3 22/1/3
f 31/31/3 6/3/3 32/32/3
f 32/32/3 6/3/3 21/22/3
f 3/34/4 8/7/4 4/33/4
f 8/7/4 3/34/4 22/5/4
f 6/5/5 3/36/5 1/35/5
f 3/36/5 6/5/5 22/7/5
f 8/5/6 2/38/6 4/37/6
f 2/38/6 8/5/6 5/7/6

usemtl dark

f 35/11/3 34/22/3 33/12/3
f 34/22/3 35/11/3 36/10/3
f 34/22/3 36/10/3 37/32/3
f 37/32/3 36/10/3 38/9/3
f 37/32/3 38/9/3 39/31/3
f 39/31/3 38/9/3 40/13/3
f 39/31/3 40/13/3 41/30/3
f 41/30/3 40/13/3 42/14/3
f 41/30/3 42/14/3 43/29/3
f 43/29/3 42/14/3 44/39/3
f 43/29/3 44/39/3 45/40/3
f 45/40/3 44/39/3 46/16/3
f 45/40/3 46/16/3 47/27/3
f 47/27/3 46/16/3 48/17/3
f 47/27/3 48/17/3 49/26/3
f 49/26/3 48/17/3 50/18/3
f 49/26/3 50/18/3 51/25/3
f 51/25/3 50/18/3 52/19/3
f 51/25/3 52/19/3 53/24/3
f 53/24/3 52/19/3 54/20/3
f 53/24/3 54/20/3 55/23/3
f 55/23/3 54/20/3 56/21/3

usemtl border

f 25/43/8 53/42/7 24/41/7
f 53/42/7 25/43/8 51/44/8
f 25/41/8 49/44/9 51/42/8
f 49/44/9 25/41/8 26/43/9
f 26/41/9 47/44/10 49/42/9
f 47/44/10 26/41/9 27/43/10
f 27/41/10 45/44/6 47/42/10
f 45/44/6 27/41/10 28/43/6
f 28/41/6 43/44/11 45/42/6
f 43/44/11 28/41/6 29/43/11
f 29/41/11 41/44/12 43/42/11
f 41/44/12 29/41/11 30/43/12
f 30/41/12 39/44/13 41/42/12
f 39/44/13 30/41/12 31/43/13
f 39/42/13 32/43/14 37/44/14
f 32/43/14 39/42/13 31/41/13
f 37/42/14 21/43/15 34/44/15
f 21/43/15 37/42/14 32/41/14
f 34/42/15 11/43/4 33/44/4
f 11/43/4 34/42/15 21/41/15
f 33/42/4 10/43/16 35/44/16
f 10/43/16 33/42/4 11/41/4
f 35/42/16 9/43/17 36/44/17
f 9/43/17 35/42/16 10/41/16
f 36/42/17 7/43/18 38/44/18
f 7/43/18 36/42/17 9/41/17
f 7/41/18 40/44/19 38/42/18
f 40/44/19 7/41/18 12/43/19
f 12/41/19 42/44/20 40/42/19
f 42/44/20 12/41/19 13/43/20
f 13/41/20 44/44/5 42/42/20
f 44/44/5 13/41/20 14/43/5
f 14/41/5 46/44/21 44/42/5
f 46/44/21 14/41/5 15/43/21
f 15/41/21 48/44/22 46/42/21
f 48/44/22 15/41/21 16/43/22
f 16/41/22 50/44/23 48/42/22
f 50/44/23 16/41/22 17/43/23
f 18/43/24 50/42/23 17/41/23
f 50/42/23 18/43/24 52/44/24
f 19/43/25 52/42/24 18/41/24
f 52/42/24 19/43/25 54/44/25
f 20/43/2 54/42/25 19/41/25
f 54/42/25 20/43/2 56/44/2
f 23/43/26 56/42/2 20/41/2
f 56/42/2 23/43/26 55/44/26
f 24/43/7 55/42/26 23/41/26
f 55/42/26 24/43/7 53/44/7

