# Created by Kenney (www.kenney.nl)

mtllib narrowSquare.mtl

g narrowSquare

v 0.49995 0 -0.4999501
v 0.49995 0 -0.3999601
v 0.49995 0.146652 -0.4999501
v 0.49995 0.063327 -0.3999601
v 0.49995 0.146652 -0.3999601
v -0.4999501 0 -0.49995
v -0.4999501 0 -0.39996
v -0.49995 0 0.3999601
v 0.4999501 0 0.39996
v -0.49995 0 0.4999501
v 0.4999501 0 0.49995
v -0.4999501 0.146652 -0.49995
v -0.249975 0.146652 0.1999801
v 0.2499751 0.146652 0.19998
v -0.49995 0.146652 0.3999601
v 0.4999501 0.146652 0.39996
v -0.49995 0.146652 0.4999501
v 0.4999501 0.146652 0.49995
v -0.49995 0.063327 0.3999601
v -0.4999501 0.146652 -0.39996
v -0.2499751 0.146652 -0.19998
v 0.249975 0.146652 -0.1999801
v 0.4999501 0.063327 0.39996
v -0.4999501 0.063327 -0.39996
v -0.2499751 0.063327 -0.19998
v 0.249975 0.063327 -0.1999801
v 0.2499751 0.063327 0.19998
v -0.249975 0.063327 0.1999801

vn 1 0 -1.192093E-07
vn 0 -1 0
vn -1.192093E-07 0 -1
vn 0 1 0
vn 1.192093E-07 0 1
vn -1 0 1.192093E-07
vn -0.624695 0 0.7808691
vn 0.6246952 0 0.7808689
vn 0.624695 0 -0.7808691
vn -0.6246952 0 -0.7808689

vt 19.68307 7.682752E-15
vt 15.74646 7.682752E-15
vt 19.68307 5.773701
vt 15.74646 2.493189
vt 15.74646 5.773701
vt 19.68307 -19.68307
vt 15.74646 -19.68307
vt 19.68307 19.68307
vt 15.74646 19.68307
vt -15.74646 -19.68307
vt -15.74646 19.68307
vt -19.68307 -19.68307
vt -19.68307 19.68307
vt 19.68307 0
vt -19.68307 5.773701
vt -19.68307 0
vt 7.873229 -9.841536
vt 7.873229 9.841536
vt 19.68307 2.839865E-30
vt 15.74646 2.839865E-30
vt -7.873229 -9.841536
vt -7.873229 9.841536
vt -15.74646 5.608987E-14
vt -19.68307 1.53655E-14
vt -15.74646 2.493189
vt -15.74646 5.773701
vt -15.74646 1.53655E-14
vt -25.20663 2.493189
vt -25.20663 5.773701
vt -12.60331 2.493189
vt -12.60331 5.773701
vt -9.841536 2.493189
vt -9.841536 5.773701
vt 9.841536 2.493189
vt 9.841536 5.773701
vt 12.60331 2.493189
vt 12.60331 5.773701
vt 25.20663 2.493189
vt 25.20663 5.773701

usemtl border

f 3/3/1 2/2/1 1/1/1
f 2/2/1 3/3/1 4/4/1
f 4/4/1 3/3/1 5/5/1
f 1/8/2 7/7/2 6/6/2
f 7/7/2 1/8/2 2/9/2
f 7/7/2 2/9/2 8/10/2
f 8/10/2 2/9/2 9/11/2
f 8/10/2 9/11/2 10/12/2
f 10/12/2 9/11/2 11/13/2
f 3/15/3 6/14/3 12/3/3
f 6/14/3 3/15/3 1/16/3
f 15/7/4 14/18/4 13/17/4
f 14/18/4 15/7/4 16/9/4
f 16/9/4 15/7/4 17/6/4
f 16/9/4 17/6/4 18/8/4
f 11/14/5 17/15/5 10/16/5
f 17/15/5 11/14/5 18/3/5
f 17/3/6 8/20/6 10/19/6
f 8/20/6 17/3/6 19/4/6
f 19/4/6 17/3/6 15/5/6
f 20/10/4 3/13/4 12/12/4
f 3/13/4 20/10/4 5/11/4
f 5/11/4 20/10/4 21/21/4
f 5/11/4 21/21/4 22/22/4
f 23/25/1 11/24/1 9/23/1
f 11/24/1 23/25/1 18/15/1
f 18/15/1 23/25/1 16/26/1
f 24/25/6 6/24/6 7/27/6
f 6/24/6 24/25/6 12/15/6
f 12/15/6 24/25/6 20/26/6
f 25/30/7 20/29/7 24/28/7
f 20/29/7 25/30/7 21/31/7
f 26/34/5 21/33/5 25/32/5
f 21/33/5 26/34/5 22/35/5
f 4/38/8 22/37/8 26/36/8
f 22/37/8 4/38/8 5/39/8
f 16/29/9 27/30/9 14/31/9
f 27/30/9 16/29/9 23/28/9
f 14/33/3 28/34/3 13/35/3
f 28/34/3 14/33/3 27/32/3
f 13/37/10 19/38/10 15/39/10
f 19/38/10 13/37/10 28/36/10

usemtl green

f 4/4/1 9/23/1 2/2/1
f 9/23/1 4/4/1 23/25/1
f 19/7/4 25/21/4 24/10/4
f 25/21/4 19/7/4 28/17/4
f 25/21/4 28/17/4 26/22/4
f 27/18/4 26/22/4 28/17/4
f 23/9/4 26/22/4 27/18/4
f 26/22/4 23/9/4 4/11/4
f 19/4/6 7/27/6 8/20/6
f 7/27/6 19/4/6 24/25/6

