# Created by Kenney (www.kenney.nl)

mtllib rampC.mtl

g rampC

v 0.49995 0.439956 -0.4999501
v 0.49995 0.439956 -0.3999601
v 0.49995 0.586608 -0.4999501
v 0.49995 0.503283 -0.3999601
v 0.49995 0.586608 -0.3999601
v -0.4999501 0 -0.49995
v -0.4999501 0 -0.39996
v -0.49995 0 0.3999601
v 0.4999501 0.439956 0.39996
v -0.49995 0 0.4999501
v 0.4999501 0.439956 0.49995
v -0.4999501 0.146652 -0.49995
v -0.49995 0.146652 0.3999601
v 0.4999501 0.586608 0.39996
v -0.49995 0.146652 0.4999501
v 0.4999501 0.586608 0.49995
v -0.49995 0.063327 0.3999601
v -0.4999501 0.146652 -0.39996
v -0.4999501 0.063327 -0.39996
v 0.4999501 0.503283 0.39996

vn 1 0 -1.192093E-07
vn 0.4027386 -0.915315 -5.960464E-08
vn -1.192093E-07 0 -1
vn -0.4027386 0.915315 5.960464E-08
vn 1.192093E-07 0 1
vn -1 0 1.192093E-07

vt 19.68307 17.3211
vt 15.74646 17.3211
vt 19.68307 23.0948
vt 15.74646 19.81429
vt 15.74646 23.0948
vt 19.68307 -18.01621
vt 15.74646 -18.01621
vt 19.68307 24.99209
vt 15.74646 24.99209
vt -15.74646 -18.01621
vt -15.74646 24.99209
vt -19.68307 -18.01621
vt -19.68307 24.99209
vt 19.68307 5.773701
vt 19.68307 4.978405E-28
vt -19.68307 23.0948
vt -19.68307 17.3211
vt 15.74646 -15.69092
vt 15.74646 27.31738
vt 19.68307 -15.69092
vt 19.68307 27.31738
vt -19.68307 4.978405E-28
vt -19.68307 5.773701
vt 19.68307 0
vt 15.74646 0
vt 15.74646 2.493189
vt 15.74646 5.773701
vt -19.68307 -15.69092
vt -19.68307 27.31738
vt -15.74646 -15.69092
vt -15.74646 27.31738
vt -19.68307 2.493189
vt 19.68307 19.81429
vt 19.68307 2.493189
vt -19.68307 19.81429
vt -15.74646 17.3211
vt -15.74646 19.81429
vt -15.74646 23.0948
vt -15.74646 -7.572972E-30
vt -19.68307 -7.572972E-30
vt -15.74646 2.493189
vt -15.74646 5.773701
vt -15.74646 -17.01211
vt -15.74646 25.99619
vt 15.74646 -17.01211
vt 15.74646 25.99619

usemtl border

f 3/3/1 2/2/1 1/1/1
f 2/2/1 3/3/1 4/4/1
f 4/4/1 3/3/1 5/5/1
f 1/8/2 7/7/2 6/6/2
f 7/7/2 1/8/2 2/9/2
f 7/7/2 2/9/2 8/10/2
f 8/10/2 2/9/2 9/11/2
f 8/10/2 9/11/2 10/12/2
f 10/12/2 9/11/2 11/13/2
f 3/16/3 6/15/3 12/14/3
f 6/15/3 3/16/3 1/17/3
f 15/20/4 14/19/4 13/18/4
f 14/19/4 15/20/4 16/21/4
f 11/1/5 15/23/5 10/22/5
f 15/23/5 11/1/5 16/3/5
f 15/14/6 8/25/6 10/24/6
f 8/25/6 15/14/6 17/26/6
f 17/26/6 15/14/6 13/27/6
f 18/30/4 3/29/4 12/28/4
f 3/29/4 18/30/4 5/31/4
f 4/33/5 18/23/5 19/32/5
f 18/23/5 4/33/5 5/3/5
f 14/16/3 17/34/3 13/14/3
f 17/34/3 14/16/3 20/35/3
f 20/37/1 11/17/1 9/36/1
f 11/17/1 20/37/1 16/16/1
f 16/16/1 20/37/1 14/38/1
f 19/41/6 6/40/6 7/39/6
f 6/40/6 19/41/6 12/23/6
f 12/23/6 19/41/6 18/42/6

usemtl green

f 17/45/4 4/44/4 19/43/4
f 4/44/4 17/45/4 20/46/4
f 4/4/1 9/36/1 2/2/1
f 9/36/1 4/4/1 20/37/1
f 17/26/6 7/39/6 8/25/6
f 7/39/6 17/26/6 19/41/6

