# Created by Kenney (www.kenney.nl)

mtllib roundCornerC.mtl

g roundCornerC

v -0.4999501 0 -0.49995
v -0.4999501 0 -0.39996
v -0.3694369 0 -0.4913957
v -0.2411569 0 -0.4658792
v -0.1173049 0 -0.4238372
v -2.980262E-08 0 -0.3659888
v -0.49995 0 0.4999501
v 0.1087505 0 -0.2933241
v 0.2070861 0 -0.2070861
v 0.293324 0 -0.1087506
v 0.3659888 0 -2.980232E-08
v 0.4238372 0 0.1173048
v 0.4658793 0 0.2411568
v 0.4913958 0 0.3694368
v 0.4999501 0 0.49995
v 0.3999601 0 0.49995
v 0.3999601 0.063327 0.49995
v 0.3999601 0.146652 0.49995
v 0.4999501 0.146652 0.49995
v -0.4999501 0.146652 -0.49995
v -0.3694369 0.146652 -0.4913957
v -0.2411569 0.146652 -0.4658792
v -0.1173049 0.146652 -0.4238372
v -2.980262E-08 0.146652 -0.3659888
v 0.1087505 0.146652 -0.2933241
v 0.2070861 0.146652 -0.2070861
v 0.293324 0.146652 -0.1087506
v 0.3659888 0.146652 -2.980232E-08
v 0.4238372 0.146652 0.1173048
v 0.4658793 0.146652 0.2411568
v 0.4913958 0.146652 0.3694368
v -0.4999501 0.146652 -0.39996
v -0.3824883 0.146652 -0.3922611
v -0.2670362 0.146652 -0.3692963
v -0.1555694 0.146652 -0.3314584
v -0.04999504 0.146652 -0.2793949
v 0.04788047 0.146652 -0.2139966
v 0.1363825 0.146652 -0.1363825
v 0.2139966 0.146652 -0.04788053
v 0.2793949 0.146652 0.04999498
v 0.3314584 0.146652 0.1555693
v 0.3692964 0.146652 0.2670362
v 0.3922612 0.146652 0.3824882
v -0.4999501 0.063327 -0.39996
v -0.3824883 0.063327 -0.3922611
v -0.2670362 0.063327 -0.3692963
v -0.1555694 0.063327 -0.3314584
v -0.04999504 0.063327 -0.2793949
v 0.04788047 0.063327 -0.2139966
v 0.1363825 0.063327 -0.1363825
v 0.2139966 0.063327 -0.04788053
v 0.2793949 0.063327 0.04999498
v 0.3314584 0.063327 0.1555693
v 0.3692964 0.063327 0.2670362
v 0.3922612 0.063327 0.3824882
v -0.49995 0.063327 0.4999501

vn 0 -1 0
vn 1.192093E-07 0 1
vn 0.06540301 0 -0.9978591
vn 0.1305261 0 -0.991445
vn 0.258819 0 -0.9659259
vn 0.3826834 0 -0.9238797
vn 0.4999999 0 -0.8660256
vn 0.6087614 0 -0.7933535
vn 0.7071068 0 -0.7071069
vn 0.7933534 0 -0.6087616
vn 0.8660255 0 -0.5000002
vn 0.9238796 0 -0.3826836
vn 0.9659259 0 -0.2588192
vn 0.991445 0 -0.1305263
vn 0.9978591 0 -0.06540328
vn 0 1 0
vn -0.06540301 0 0.9978591
vn -0.1305261 0 0.991445
vn -0.258819 0 0.9659259
vn -0.3826834 0 0.9238797
vn -0.4999999 0 0.8660256
vn -0.6087614 0 0.7933535
vn -0.7071068 0 0.7071069
vn -0.7933534 0 0.6087616
vn -0.8660255 0 0.5000002
vn -0.9238796 0 0.3826836
vn -0.9659259 0 0.2588192
vn -0.991445 0 0.1305263
vn -0.9978591 0 0.06540328
vn -1 0 1.192093E-07

vt 19.68307 -19.68307
vt 15.74646 -19.68307
vt 19.34629 -14.54476
vt 18.3417 -9.494364
vt 16.6865 -4.6183
vt 14.40901 -1.182343E-11
vt -19.68307 -19.68307
vt 11.54819 4.281518
vt 8.152995 8.152995
vt 4.281518 11.54819
vt 1.591616E-12 14.40901
vt -4.6183 16.6865
vt -9.494364 18.3417
vt -14.54476 19.34629
vt -19.68307 19.68307
vt -19.68307 15.74646
vt 15.74646 1.352164E-12
vt 15.74646 2.493189
vt 19.68307 1.352164E-12
vt 15.74646 5.773701
vt 19.68307 5.773701
vt 20.92826 5.773701
vt 20.92826 -6.859344E-15
vt 15.77892 5.773701
vt 15.77892 -6.859344E-15
vt 18.03956 5.773701
vt 18.03956 0
vt 12.89022 5.773701
vt 12.89022 0
vt 14.88625 5.773701
vt 14.88625 0
vt 9.736908 5.773701
vt 9.736908 0
vt 11.52228 5.773701
vt 11.52228 0
vt 6.372941 5.773701
vt 6.372941 0
vt 8.005216 5.773701
vt 8.005216 0
vt 2.855878 5.773701
vt 2.855878 0
vt 4.395235 5.773701
vt 4.395235 0
vt -0.7541031 5.773701
vt -0.7541031 0
vt 0.7541031 0
vt -4.395235 0
vt 0.7541031 5.773701
vt -4.395235 5.773701
vt -2.855878 0
vt -8.005216 0
vt -2.855878 5.773701
vt -8.005216 5.773701
vt -6.372941 0
vt -11.52228 0
vt -6.372941 5.773701
vt -11.52228 5.773701
vt -9.736908 0
vt -14.88625 0
vt -9.736908 5.773701
vt -14.88625 5.773701
vt -12.89022 0
vt -18.03956 0
vt -12.89022 5.773701
vt -18.03956 5.773701
vt -15.77892 5.218133E-14
vt -20.92826 5.218133E-14
vt -15.77892 5.773701
vt -20.92826 5.773701
vt -19.34629 -14.54476
vt -15.74646 -19.68307
vt -18.3417 -9.494364
vt -16.6865 -4.6183
vt -15.44335 -15.05859
vt -14.40901 -1.18228E-11
vt -14.53922 -10.51323
vt -13.04954 -6.124778
vt -11.54819 4.281518
vt -10.9998 -1.968307
vt -8.152995 8.152995
vt -8.425063 1.885059
vt -5.369388 5.369388
vt -4.281518 11.54819
vt -1.885059 8.425063
vt -1.591901E-12 14.40901
vt 1.968307 10.9998
vt 4.6183 16.6865
vt 6.124778 13.04954
vt 9.494364 18.3417
vt 10.51323 14.53922
vt 14.54476 19.34629
vt 15.05859 15.44335
vt 19.68307 19.68307
vt 19.68307 15.74646
vt -20.6708 2.493189
vt -20.6708 5.773701
vt -16.03639 2.493189
vt -16.03639 5.773701
vt -17.78209 2.493189
vt -17.78209 5.773701
vt -13.14769 2.493189
vt -13.14769 5.773701
vt -14.62878 2.493189
vt -14.62878 5.773701
vt -9.994375 2.493189
vt -9.994375 5.773701
vt -11.26481 2.493189
vt -11.26481 5.773701
vt -6.630408 2.493189
vt -6.630408 5.773701
vt -7.747749 2.493189
vt -7.747749 5.773701
vt -3.113345 2.493189
vt -3.113345 5.773701
vt -4.137768 2.493189
vt -4.137768 5.773701
vt 0.4966362 2.493189
vt 0.4966362 5.773701
vt -0.4966362 2.493189
vt -0.4966362 5.773701
vt 4.137768 2.493189
vt 4.137768 5.773701
vt 3.113345 2.493189
vt 3.113345 5.773701
vt 7.747749 2.493189
vt 7.747749 5.773701
vt 6.630408 2.493189
vt 6.630408 5.773701
vt 11.26481 2.493189
vt 11.26481 5.773701
vt 9.994375 2.493189
vt 9.994375 5.773701
vt 14.62878 2.493189
vt 14.62878 5.773701
vt 13.14769 2.493189
vt 13.14769 5.773701
vt 17.78209 2.493189
vt 17.78209 5.773701
vt 16.03639 2.493189
vt 16.03639 5.773701
vt 20.6708 2.493189
vt 20.6708 5.773701
vt -15.74646 -1.246442E-13
vt -19.68307 1.756058E-14
vt -15.74646 2.493189
vt -19.68307 5.773701
vt -15.74646 5.773701
vt 19.68307 -1.246442E-13
vt 19.68307 2.493189
vt -19.68307 4.287759E-11
vt -19.68307 2.493189

usemtl border

f 3/3/1 2/2/1 1/1/1
f 2/2/1 3/3/1 4/4/1
f 2/2/1 4/4/1 5/5/1
f 2/2/1 5/5/1 6/6/1
f 2/2/1 6/6/1 7/7/1
f 7/7/1 6/6/1 8/8/1
f 7/7/1 8/8/1 9/9/1
f 7/7/1 9/9/1 10/10/1
f 7/7/1 10/10/1 11/11/1
f 7/7/1 11/11/1 12/12/1
f 7/7/1 12/12/1 13/13/1
f 7/7/1 13/13/1 14/14/1
f 7/7/1 14/14/1 15/15/1
f 7/7/1 15/15/1 16/16/1
f 15/19/2 17/18/2 16/17/2
f 17/18/2 15/19/2 18/20/2
f 18/20/2 15/19/2 19/21/2
f 21/24/4 1/23/3 20/22/3
f 1/23/3 21/24/4 3/25/4
f 22/28/5 3/27/4 21/26/4
f 3/27/4 22/28/5 4/29/5
f 23/32/6 4/31/5 22/30/5
f 4/31/5 23/32/6 5/33/6
f 24/36/7 5/35/6 23/34/6
f 5/35/6 24/36/7 6/37/7
f 25/40/8 6/39/7 24/38/7
f 6/39/7 25/40/8 8/41/8
f 26/44/9 8/43/8 25/42/8
f 8/43/8 26/44/9 9/45/9
f 26/48/9 10/47/10 9/46/9
f 10/47/10 26/48/9 27/49/10
f 27/52/10 11/51/11 10/50/10
f 11/51/11 27/52/10 28/53/11
f 28/56/11 12/55/12 11/54/11
f 12/55/12 28/56/11 29/57/12
f 29/60/12 13/59/13 12/58/12
f 13/59/13 29/60/12 30/61/13
f 30/64/13 14/63/14 13/62/13
f 14/63/14 30/64/13 31/65/14
f 31/68/14 15/67/15 14/66/14
f 15/67/15 31/68/14 19/69/15
f 32/71/16 21/70/16 20/7/16
f 21/70/16 32/71/16 22/72/16
f 22/72/16 32/71/16 23/73/16
f 23/73/16 32/71/16 33/74/16
f 23/73/16 33/74/16 24/75/16
f 24/75/16 33/74/16 34/76/16
f 24/75/16 34/76/16 35/77/16
f 24/75/16 35/77/16 25/78/16
f 25/78/16 35/77/16 36/79/16
f 25/78/16 36/79/16 26/80/16
f 26/80/16 36/79/16 37/81/16
f 26/80/16 37/81/16 38/82/16
f 26/80/16 38/82/16 27/83/16
f 27/83/16 38/82/16 39/84/16
f 27/83/16 39/84/16 28/85/16
f 28/85/16 39/84/16 40/86/16
f 28/85/16 40/86/16 29/87/16
f 29/87/16 40/86/16 41/88/16
f 29/87/16 41/88/16 30/89/16
f 30/89/16 41/88/16 42/90/16
f 30/89/16 42/90/16 31/91/16
f 31/91/16 42/90/16 43/92/16
f 31/91/16 43/92/16 19/93/16
f 19/93/16 43/92/16 18/94/16
f 45/97/18 32/96/17 44/95/17
f 32/96/17 45/97/18 33/98/18
f 46/101/19 33/100/18 45/99/18
f 33/100/18 46/101/19 34/102/19
f 47/105/20 34/104/19 46/103/19
f 34/104/19 47/105/20 35/106/20
f 48/109/21 35/108/20 47/107/20
f 35/108/20 48/109/21 36/110/21
f 49/113/22 36/112/21 48/111/21
f 36/112/21 49/113/22 37/114/22
f 50/117/23 37/116/22 49/115/22
f 37/116/22 50/117/23 38/118/23
f 51/121/24 38/120/23 50/119/23
f 38/120/23 51/121/24 39/122/24
f 52/125/25 39/124/24 51/123/24
f 39/124/24 52/125/25 40/126/25
f 53/129/26 40/128/25 52/127/25
f 40/128/25 53/129/26 41/130/26
f 54/133/27 41/132/26 53/131/26
f 41/132/26 54/133/27 42/134/27
f 55/137/28 42/136/27 54/135/27
f 42/136/27 55/137/28 43/138/28
f 17/141/29 43/140/28 55/139/28
f 43/140/28 17/141/29 18/142/29
f 44/145/30 1/144/30 2/143/30
f 1/144/30 44/145/30 20/146/30
f 20/146/30 44/145/30 32/147/30

usemtl green

f 56/149/30 2/143/30 7/148/30
f 2/143/30 56/149/30 44/145/30
f 56/1/16 45/74/16 44/71/16
f 45/74/16 56/1/16 46/76/16
f 46/76/16 56/1/16 47/77/16
f 47/77/16 56/1/16 48/79/16
f 48/79/16 56/1/16 49/81/16
f 49/81/16 56/1/16 50/82/16
f 50/82/16 56/1/16 51/84/16
f 51/84/16 56/1/16 52/86/16
f 52/86/16 56/1/16 53/88/16
f 53/88/16 56/1/16 54/90/16
f 54/90/16 56/1/16 55/92/16
f 55/92/16 56/1/16 17/94/16
f 16/17/2 56/151/2 7/150/2
f 56/151/2 16/17/2 17/18/2

