# Created by Kenney (www.kenney.nl)

mtllib roundCornerB.mtl

g roundCornerB

v 0.49995 0 -0.4999501
v 0.4999501 0 0.49995
v 0.49995 0.146652 -0.4999501
v 0.4999501 0.146652 0.49995
v -0.4999501 0 -0.49995
v -0.4999501 0 -0.39996
v -0.49995 0 0.3999601
v -0.49995 0 0.4999501
v -0.39996 0 0.4999501
v 0.3999601 0 0.49995
v -0.4999501 0.146652 -0.49995
v 0.3999601 0.063327 0.49995
v 0.3999601 0.146652 0.49995
v -0.49995 0.146652 0.4999501
v -0.49995 0.063327 0.3999601
v -0.49995 0.146652 0.3999601
v -0.4999501 0.146652 -0.39996
v -0.3824883 0.146652 -0.3922611
v -0.2670362 0.146652 -0.3692963
v -0.1555694 0.146652 -0.3314584
v -0.04999504 0.146652 -0.2793949
v 0.04788047 0.146652 -0.2139966
v 0.1363825 0.146652 -0.1363825
v 0.2139966 0.146652 -0.04788053
v 0.2793949 0.146652 0.04999498
v 0.3314584 0.146652 0.1555693
v 0.3692964 0.146652 0.2670362
v 0.3922612 0.146652 0.3824882
v -0.4999501 0.063327 -0.39996
v -0.3824883 0.063327 -0.3922611
v -0.2670362 0.063327 -0.3692963
v -0.1555694 0.063327 -0.3314584
v -0.04999504 0.063327 -0.2793949
v 0.04788047 0.063327 -0.2139966
v 0.1363825 0.063327 -0.1363825
v 0.2139966 0.063327 -0.04788053
v 0.2793949 0.063327 0.04999498
v 0.3314584 0.063327 0.1555693
v 0.3692964 0.063327 0.2670362
v 0.3922612 0.063327 0.3824882
v -0.4868987 0.146652 0.4008155
v -0.4740707 0.146652 0.4033672
v -0.4616855 0.146652 0.4075714
v -0.449955 0.146652 0.4133562
v -0.4390799 0.146652 0.4206227
v -0.4292464 0.146652 0.4292465
v -0.4206226 0.146652 0.4390801
v -0.4133561 0.146652 0.4499551
v -0.4075713 0.146652 0.4616856
v -0.4033671 0.146652 0.4740708
v -0.4008154 0.146652 0.4868988
v -0.39996 0.146652 0.4999501
v -0.4008154 0.063327 0.4868988
v -0.39996 0.063327 0.4999501
v -0.4033671 0.063327 0.4740708
v -0.4075713 0.063327 0.4616856
v -0.4133561 0.063327 0.4499551
v -0.4206226 0.063327 0.4390801
v -0.4292464 0.063327 0.4292465
v -0.4390799 0.063327 0.4206227
v -0.449955 0.063327 0.4133562
v -0.4616855 0.063327 0.4075714
v -0.4740707 0.063327 0.4033672
v -0.4868987 0.063327 0.4008155

vn 1 0 -1.192093E-07
vn 0 -1 0
vn -1.192093E-07 0 -1
vn 1.192093E-07 0 1
vn -1 0 1.192093E-07
vn 0 1 0
vn -0.06540301 0 0.9978591
vn -0.1305261 0 0.991445
vn -0.258819 0 0.9659259
vn -0.3826834 0 0.9238797
vn -0.4999999 0 0.8660256
vn -0.6087614 0 0.7933535
vn -0.7071068 0 0.7071069
vn -0.7933534 0 0.6087616
vn -0.8660255 0 0.5000002
vn -0.9238796 0 0.3826836
vn -0.9659259 0 0.2588192
vn -0.991445 0 0.1305263
vn -0.9978591 0 0.06540328
vn 0.991445 0 -0.1305263
vn 0.9978591 0 -0.06540328
vn 0.9659259 0 -0.2588192
vn 0.9238796 0 -0.3826836
vn 0.8660255 0 -0.5000002
vn 0.7933534 0 -0.6087616
vn 0.7071068 0 -0.7071069
vn 0.6087614 0 -0.7933535
vn 0.4999999 0 -0.8660256
vn 0.3826834 0 -0.9238797
vn 0.258819 0 -0.9659259
vn 0.1305261 0 -0.991445
vn 0.06540301 0 -0.9978591

vt 19.68307 1.308764E-13
vt -19.68307 1.308764E-13
vt 19.68307 5.773701
vt -19.68307 5.773701
vt 19.68307 -19.68307
vt 15.74646 -19.68307
vt 19.68307 19.68307
vt -19.68307 19.68307
vt -15.74646 -19.68307
vt -19.68307 -19.68307
vt -19.68307 -15.74646
vt -19.68307 15.74646
vt 19.68307 -1.732202E-28
vt -19.68307 -1.732202E-28
vt 15.74646 1.352164E-12
vt 15.74646 2.493189
vt 19.68307 1.352164E-12
vt 15.74646 5.773701
vt 19.68307 -4.609652E-14
vt 15.74646 -4.609652E-14
vt -15.44335 -15.05859
vt -14.53922 -10.51323
vt -13.04954 -6.124778
vt -10.9998 -1.968307
vt -8.425063 1.885059
vt -5.369388 5.369388
vt -1.885059 8.425063
vt 1.968307 10.9998
vt 6.124778 13.04954
vt 10.51323 14.53922
vt 15.05859 15.44335
vt 19.68307 15.74646
vt -20.6708 2.493189
vt -20.6708 5.773701
vt -16.03639 2.493189
vt -16.03639 5.773701
vt -17.78209 2.493189
vt -17.78209 5.773701
vt -13.14769 2.493189
vt -13.14769 5.773701
vt -14.62878 2.493189
vt -14.62878 5.773701
vt -9.994375 2.493189
vt -9.994375 5.773701
vt -11.26481 2.493189
vt -11.26481 5.773701
vt -6.630408 2.493189
vt -6.630408 5.773701
vt -7.747749 2.493189
vt -7.747749 5.773701
vt -3.113345 2.493189
vt -3.113345 5.773701
vt -4.137768 2.493189
vt -4.137768 5.773701
vt 0.4966362 2.493189
vt 0.4966362 5.773701
vt -0.4966362 2.493189
vt -0.4966362 5.773701
vt 4.137768 2.493189
vt 4.137768 5.773701
vt 3.113345 2.493189
vt 3.113345 5.773701
vt 7.747749 2.493189
vt 7.747749 5.773701
vt 6.630408 2.493189
vt 6.630408 5.773701
vt 11.26481 2.493189
vt 11.26481 5.773701
vt 9.994375 2.493189
vt 9.994375 5.773701
vt 14.62878 2.493189
vt 14.62878 5.773701
vt 13.14769 2.493189
vt 13.14769 5.773701
vt 17.78209 2.493189
vt 17.78209 5.773701
vt 16.03639 2.493189
vt 16.03639 5.773701
vt 20.6708 2.493189
vt 20.6708 5.773701
vt 15.78014 -19.16924
vt 15.88059 -18.6642
vt 16.04611 -18.17659
vt 16.27386 -17.71476
vt 16.55994 -17.28661
vt 16.89946 -16.89946
vt 17.28661 -16.55994
vt 17.71476 -16.27386
vt 18.17659 -16.04611
vt 18.6642 -15.88059
vt 19.16924 -15.78014
vt 19.68307 -15.74646
vt -18.09613 2.493189
vt -18.61106 2.493189
vt -18.09613 5.773701
vt -18.61106 5.773701
vt -15.20742 2.493189
vt -15.72236 2.493189
vt -15.20742 5.773701
vt -15.72236 5.773701
vt -12.05411 2.493189
vt -12.56904 2.493189
vt -12.05411 5.773701
vt -12.56904 5.773701
vt -8.690144 2.493189
vt -9.205077 2.493189
vt -8.690144 5.773701
vt -9.205077 5.773701
vt -5.17308 2.493189
vt -5.688014 2.493189
vt -5.17308 5.773701
vt -5.688014 5.773701
vt -1.563099 2.493189
vt -2.078033 2.493189
vt -1.563099 5.773701
vt -2.078033 5.773701
vt 2.078033 5.773701
vt 2.078033 2.493189
vt 1.563099 5.773701
vt 1.563099 2.493189
vt 5.688014 5.773701
vt 5.688014 2.493189
vt 5.17308 5.773701
vt 5.17308 2.493189
vt 9.205077 5.773701
vt 9.205077 2.493189
vt 8.690144 5.773701
vt 8.690144 2.493189
vt 12.56904 5.773701
vt 12.56904 2.493189
vt 12.05411 5.773701
vt 12.05411 2.493189
vt 15.72236 5.773701
vt 15.72236 2.493189
vt 15.20742 5.773701
vt 15.20742 2.493189
vt 18.61106 5.773701
vt 18.61106 2.493189
vt 18.09613 5.773701
vt 18.09613 2.493189
vt -15.74646 3.292608E-14
vt -19.68307 3.292608E-14
vt -15.74646 2.493189
vt -15.74646 5.773701
vt -19.68307 2.50765E-11
vt -15.74646 2.50765E-11

usemtl border

f 3/3/1 2/2/1 1/1/1
f 2/2/1 3/3/1 4/4/1
f 1/7/2 6/6/2 5/5/2
f 6/6/2 1/7/2 2/8/2
f 6/6/2 2/8/2 7/9/2
f 7/9/2 2/8/2 8/10/2
f 8/10/2 2/8/2 9/11/2
f 9/11/2 2/8/2 10/12/2
f 3/4/3 5/13/3 11/3/3
f 5/13/3 3/4/3 1/14/3
f 2/17/4 12/16/4 10/15/4
f 12/16/4 2/17/4 13/18/4
f 13/18/4 2/17/4 4/3/4
f 14/3/5 7/20/5 8/19/5
f 7/20/5 14/3/5 15/16/5
f 15/16/5 14/3/5 16/18/5
f 17/9/6 3/8/6 11/10/6
f 3/8/6 17/9/6 18/21/6
f 3/8/6 18/21/6 19/22/6
f 3/8/6 19/22/6 20/23/6
f 3/8/6 20/23/6 21/24/6
f 3/8/6 21/24/6 22/25/6
f 3/8/6 22/25/6 23/26/6
f 3/8/6 23/26/6 24/27/6
f 3/8/6 24/27/6 25/28/6
f 3/8/6 25/28/6 26/29/6
f 3/8/6 26/29/6 4/7/6
f 4/7/6 26/29/6 27/30/6
f 4/7/6 27/30/6 28/31/6
f 4/7/6 28/31/6 13/32/6
f 30/35/8 17/34/7 29/33/7
f 17/34/7 30/35/8 18/36/8
f 31/39/9 18/38/8 30/37/8
f 18/38/8 31/39/9 19/40/9
f 32/43/10 19/42/9 31/41/9
f 19/42/9 32/43/10 20/44/10
f 33/47/11 20/46/10 32/45/10
f 20/46/10 33/47/11 21/48/11
f 34/51/12 21/50/11 33/49/11
f 21/50/11 34/51/12 22/52/12
f 35/55/13 22/54/12 34/53/12
f 22/54/12 35/55/13 23/56/13
f 36/59/14 23/58/13 35/57/13
f 23/58/13 36/59/14 24/60/14
f 37/63/15 24/62/14 36/61/14
f 24/62/14 37/63/15 25/64/15
f 38/67/16 25/66/15 37/65/15
f 25/66/15 38/67/16 26/68/16
f 39/71/17 26/70/16 38/69/16
f 26/70/16 39/71/17 27/72/17
f 40/75/18 27/74/17 39/73/17
f 27/74/17 40/75/18 28/76/18
f 12/79/19 28/78/18 40/77/18
f 28/78/18 12/79/19 13/80/19
f 14/5/6 41/81/6 16/6/6
f 41/81/6 14/5/6 42/82/6
f 42/82/6 14/5/6 43/83/6
f 43/83/6 14/5/6 44/84/6
f 44/84/6 14/5/6 45/85/6
f 45/85/6 14/5/6 46/86/6
f 46/86/6 14/5/6 47/87/6
f 47/87/6 14/5/6 48/88/6
f 48/88/6 14/5/6 49/89/6
f 49/89/6 14/5/6 50/90/6
f 50/90/6 14/5/6 51/91/6
f 51/91/6 14/5/6 52/92/6
f 51/95/20 54/94/21 53/93/20
f 54/94/21 51/95/20 52/96/21
f 50/99/22 53/98/20 55/97/22
f 53/98/20 50/99/22 51/100/20
f 49/103/23 55/102/22 56/101/23
f 55/102/22 49/103/23 50/104/22
f 48/107/24 56/106/23 57/105/24
f 56/106/23 48/107/24 49/108/23
f 47/111/25 57/110/24 58/109/25
f 57/110/24 47/111/25 48/112/24
f 46/115/26 58/114/25 59/113/26
f 58/114/25 46/115/26 47/116/25
f 46/119/26 60/118/27 45/117/27
f 60/118/27 46/119/26 59/120/26
f 45/123/27 61/122/28 44/121/28
f 61/122/28 45/123/27 60/124/27
f 44/127/28 62/126/29 43/125/29
f 62/126/29 44/127/28 61/128/28
f 43/131/29 63/130/30 42/129/30
f 63/130/30 43/131/29 62/132/29
f 42/135/30 64/134/31 41/133/31
f 64/134/31 42/135/30 63/136/30
f 41/139/31 15/138/32 16/137/32
f 15/138/32 41/139/31 64/140/31
f 29/143/5 5/142/5 6/141/5
f 5/142/5 29/143/5 11/4/5
f 11/4/5 29/143/5 17/144/5
f 9/146/4 14/4/4 8/145/4
f 14/4/4 9/146/4 52/144/4
f 52/144/4 9/146/4 54/143/4

usemtl green

f 15/6/6 30/21/6 29/9/6
f 30/21/6 15/6/6 31/22/6
f 31/22/6 15/6/6 32/23/6
f 32/23/6 15/6/6 33/24/6
f 33/24/6 15/6/6 34/25/6
f 34/25/6 15/6/6 35/26/6
f 35/26/6 15/6/6 36/27/6
f 36/27/6 15/6/6 37/28/6
f 37/28/6 15/6/6 38/29/6
f 38/29/6 15/6/6 39/30/6
f 39/30/6 15/6/6 40/31/6
f 40/31/6 15/6/6 64/81/6
f 40/31/6 64/81/6 12/32/6
f 12/32/6 64/81/6 63/82/6
f 12/32/6 63/82/6 62/83/6
f 12/32/6 62/83/6 61/84/6
f 12/32/6 61/84/6 60/85/6
f 12/32/6 60/85/6 59/86/6
f 12/32/6 59/86/6 58/87/6
f 12/32/6 58/87/6 57/88/6
f 12/32/6 57/88/6 56/89/6
f 12/32/6 56/89/6 55/90/6
f 12/32/6 55/90/6 53/91/6
f 12/32/6 53/91/6 54/92/6
f 15/16/5 6/141/5 7/20/5
f 6/141/5 15/16/5 29/143/5
f 10/15/4 54/143/4 9/146/4
f 54/143/4 10/15/4 12/16/4

