# Created by Kenney (www.kenney.nl)

mtllib side.mtl

g side

v 0.49995 0 -0.4999501
v 0.49995 0 -0.3999601
v 0.49995 0.146652 -0.4999501
v 0.49995 0.063327 -0.3999601
v 0.49995 0.146652 -0.3999601
v -0.4999501 0 -0.49995
v -0.4999501 0 -0.39996
v -0.49995 0 0.4999501
v 0.4999501 0 0.49995
v -0.4999501 0.146652 -0.49995
v -0.4999501 0.146652 -0.39996
v -0.4999501 0.063327 -0.39996
v -0.49995 0.063327 0.4999501
v 0.4999501 0.063327 0.49995

vn 1 0 -1.192093E-07
vn 0 -1 0
vn -1.192093E-07 0 -1
vn 0 1 0
vn 1.192093E-07 0 1
vn -1 0 1.192093E-07

vt 19.68307 1.152413E-14
vt 15.74646 1.152413E-14
vt 19.68307 5.773701
vt 15.74646 2.493189
vt 15.74646 5.773701
vt 19.68307 -19.68307
vt 15.74646 -19.68307
vt 19.68307 19.68307
vt 15.74646 19.68307
vt -19.68307 -19.68307
vt -19.68307 19.68307
vt 19.68307 0
vt -19.68307 5.773701
vt -19.68307 0
vt -15.74646 -19.68307
vt -15.74646 19.68307
vt -19.68307 2.493189
vt 19.68307 2.493189
vt -15.74646 2.492883E-14
vt -19.68307 1.53655E-14
vt -15.74646 2.493189
vt -15.74646 5.773701
vt -19.68307 2.917748E-15
vt 19.68307 2.917748E-15
vt 19.68307 2.492883E-14
vt -19.68307 7.478649E-14

usemtl border

f 3/3/1 2/2/1 1/1/1
f 2/2/1 3/3/1 4/4/1
f 4/4/1 3/3/1 5/5/1
f 1/8/2 7/7/2 6/6/2
f 7/7/2 1/8/2 2/9/2
f 7/7/2 2/9/2 8/10/2
f 8/10/2 2/9/2 9/11/2
f 3/13/3 6/12/3 10/3/3
f 6/12/3 3/13/3 1/14/3
f 11/15/4 3/11/4 10/10/4
f 3/11/4 11/15/4 5/16/4
f 4/18/5 11/13/5 12/17/5
f 11/13/5 4/18/5 5/3/5
f 12/21/6 6/20/6 7/19/6
f 6/20/6 12/21/6 10/13/6
f 10/13/6 12/21/6 11/22/6

usemtl green

f 13/6/4 4/16/4 12/15/4
f 4/16/4 13/6/4 14/8/4
f 9/24/5 13/17/5 8/23/5
f 13/17/5 9/24/5 14/18/5
f 13/18/6 7/19/6 8/25/6
f 7/19/6 13/18/6 12/21/6
f 4/4/1 9/26/1 2/2/1
f 9/26/1 4/4/1 14/17/1

