# Created by Kenney (www.kenney.nl)

mtllib squareCornerA.mtl

g squareCornerA

v 0.49995 0 -0.3999601
v 0.4999501 0 0.49995
v 0.49995 0.146652 -0.3999601
v 0.4999501 0.146652 0.49995
v -0.4999501 0 -0.49995
v -0.4999501 0 -0.39996
v 0.39996 0 -0.4999501
v 0.4130113 0 -0.4990947
v 0.4258393 0 -0.496543
v 0.4382245 0 -0.4923388
v 0.449955 0 -0.486554
v 0.4608301 0 -0.4792875
v 0.4706636 0 -0.4706637
v 0.4792874 0 -0.4608302
v 0.4865539 0 -0.4499551
v 0.4923387 0 -0.4382246
v 0.4965429 0 -0.4258394
v 0.4990946 0 -0.4130114
v -0.49995 0 0.3999601
v 0.3999601 0 0.49995
v -0.39996 0 0.4999501
v -0.49995 0 0.4999501
v -0.4999501 0.146652 -0.49995
v 0.39996 0.146652 -0.4999501
v 0.3999601 0.063327 0.49995
v 0.3999601 0.146652 0.49995
v -0.49995 0.146652 0.4999501
v -0.49995 0.063327 0.3999601
v -0.49995 0.146652 0.3999601
v 0.4130113 0.146652 -0.4990947
v 0.4258393 0.146652 -0.496543
v 0.4382245 0.146652 -0.4923388
v 0.449955 0.146652 -0.486554
v 0.4608301 0.146652 -0.4792875
v 0.4706636 0.146652 -0.4706637
v 0.4792874 0.146652 -0.4608302
v 0.4865539 0.146652 -0.4499551
v 0.4923387 0.146652 -0.4382246
v 0.4965429 0.146652 -0.4258394
v 0.4990946 0.146652 -0.4130114
v -0.4999501 0.146652 -0.39996
v 0.39996 0.146652 -0.3999601
v -0.4999501 0.063327 -0.39996
v 0.39996 0.063327 -0.3999601
v -0.4868987 0.146652 0.4008155
v -0.4740707 0.146652 0.4033672
v -0.4616855 0.146652 0.4075714
v -0.449955 0.146652 0.4133562
v -0.4390799 0.146652 0.4206227
v -0.4292464 0.146652 0.4292465
v -0.4206226 0.146652 0.4390801
v -0.4133561 0.146652 0.4499551
v -0.4075713 0.146652 0.4616856
v -0.4033671 0.146652 0.4740708
v -0.4008154 0.146652 0.4868988
v -0.39996 0.146652 0.4999501
v -0.4008154 0.063327 0.4868988
v -0.39996 0.063327 0.4999501
v -0.4033671 0.063327 0.4740708
v -0.4075713 0.063327 0.4616856
v -0.4133561 0.063327 0.4499551
v -0.4206226 0.063327 0.4390801
v -0.4292464 0.063327 0.4292465
v -0.4390799 0.063327 0.4206227
v -0.449955 0.063327 0.4133562
v -0.4616855 0.063327 0.4075714
v -0.4740707 0.063327 0.4033672
v -0.4868987 0.063327 0.4008155

vn 0.9994647 0 -0.03271919
vn 1 0 -1.192093E-07
vn 0 -1 0
vn -1.192093E-07 0 -1
vn 0.03271897 0 -0.9994647
vn 1.192093E-07 0 1
vn -1 0 1.192093E-07
vn 0.1305261 0 -0.991445
vn 0.258819 0 -0.9659259
vn 0.3826834 0 -0.9238797
vn 0.4999999 0 -0.8660256
vn 0.6087614 0 -0.7933535
vn 0.7071068 0 -0.7071069
vn 0.7933534 0 -0.6087616
vn 0.8660255 0 -0.5000002
vn 0.9238796 0 -0.3826836
vn 0.9659259 0 -0.2588192
vn 0.991445 0 -0.1305263
vn 0 1 0
vn 0.9978591 0 -0.06540328
vn 0.06540301 0 -0.9978591

vt 15.74646 7.478649E-14
vt -19.68307 7.478649E-14
vt 15.74646 5.773701
vt -19.68307 5.773701
vt 19.68307 -19.68307
vt 15.74646 -19.68307
vt 19.68307 15.74646
vt 19.64939 16.26029
vt 19.54893 16.76533
vt 19.38341 17.25293
vt 19.15566 17.71476
vt 18.86958 18.14292
vt 18.53006 18.53006
vt 18.14292 18.86958
vt 17.71476 19.15566
vt 17.25293 19.38341
vt 16.76533 19.54893
vt 16.26029 19.64939
vt 15.74646 19.68307
vt -15.74646 -19.68307
vt -19.68307 19.68307
vt -19.68307 15.74646
vt -19.68307 -15.74646
vt -19.68307 -19.68307
vt 19.68307 5.773701
vt 19.68307 -4.277041E-28
vt -15.74646 5.773701
vt -15.74646 -4.277041E-28
vt 15.74646 -9.833923E-12
vt 15.74646 2.493189
vt 19.68307 -9.833923E-12
vt 19.68307 -3.073101E-14
vt 15.74646 -3.073101E-14
vt -14.42541 5.773701
vt -14.42541 0
vt -14.94034 5.773701
vt -14.94034 0
vt -12.11444 5.773701
vt -12.11444 0
vt -12.62938 5.773701
vt -12.62938 0
vt -9.591795 5.773701
vt -9.591795 0
vt -10.10673 5.773701
vt -10.10673 0
vt -6.900621 5.773701
vt -6.900621 0
vt -7.415555 5.773701
vt -7.415555 0
vt -4.086971 5.773701
vt -4.086971 0
vt -4.601904 5.773701
vt -4.601904 0
vt -1.198986 5.773701
vt -1.198986 0
vt -1.71392 5.773701
vt -1.71392 0
vt 1.71392 0
vt 1.198986 0
vt 1.71392 5.773701
vt 1.198986 5.773701
vt 4.601904 0
vt 4.086971 0
vt 4.601904 5.773701
vt 4.086971 5.773701
vt 7.415555 0
vt 6.900621 0
vt 7.415555 5.773701
vt 6.900621 5.773701
vt 10.10673 0
vt 9.591795 0
vt 10.10673 5.773701
vt 9.591795 5.773701
vt 12.62938 0
vt 12.11444 0
vt 12.62938 5.773701
vt 12.11444 5.773701
vt 14.94034 0
vt 14.42541 0
vt 14.94034 5.773701
vt 14.42541 5.773701
vt -19.64939 16.26029
vt -19.54893 16.76533
vt -19.38341 17.25293
vt -19.15566 17.71476
vt -18.86958 18.14292
vt -18.53006 18.53006
vt -18.14292 18.86958
vt -17.71476 19.15566
vt -17.25293 19.38341
vt -16.76533 19.54893
vt -16.26029 19.64939
vt -15.74646 15.74646
vt -15.74646 19.68307
vt 19.68307 19.68307
vt -19.68307 2.493189
vt 19.68307 2.493189
vt -15.74646 2.493189
vt 15.78014 -19.16924
vt 15.88059 -18.6642
vt 16.04611 -18.17659
vt 16.27386 -17.71476
vt 16.55994 -17.28661
vt 16.89946 -16.89946
vt 17.28661 -16.55994
vt 17.71476 -16.27386
vt 18.17659 -16.04611
vt 18.6642 -15.88059
vt 19.16924 -15.78014
vt 19.68307 -15.74646
vt -18.09613 2.493189
vt -18.61106 2.493189
vt -18.09613 5.773701
vt -18.61106 5.773701
vt -15.20742 2.493189
vt -15.72236 2.493189
vt -15.20742 5.773701
vt -15.72236 5.773701
vt -12.05411 2.493189
vt -12.56904 2.493189
vt -12.05411 5.773701
vt -12.56904 5.773701
vt -8.690144 2.493189
vt -9.205077 2.493189
vt -8.690144 5.773701
vt -9.205077 5.773701
vt -5.17308 2.493189
vt -5.688014 2.493189
vt -5.17308 5.773701
vt -5.688014 5.773701
vt -1.563099 2.493189
vt -2.078033 2.493189
vt -1.563099 5.773701
vt -2.078033 5.773701
vt 2.078033 5.773701
vt 2.078033 2.493189
vt 1.563099 5.773701
vt 1.563099 2.493189
vt 5.688014 5.773701
vt 5.688014 2.493189
vt 5.17308 5.773701
vt 5.17308 2.493189
vt 9.205077 5.773701
vt 9.205077 2.493189
vt 8.690144 5.773701
vt 8.690144 2.493189
vt 12.56904 5.773701
vt 12.56904 2.493189
vt 12.05411 5.773701
vt 12.05411 2.493189
vt 15.72236 5.773701
vt 15.72236 2.493189
vt 15.20742 5.773701
vt 15.20742 2.493189
vt 18.61106 5.773701
vt 18.61106 2.493189
vt 18.09613 5.773701
vt 18.09613 2.493189
vt -15.74646 3.219439E-14
vt -19.68307 3.219439E-14
vt -19.68307 -9.833923E-13
vt -15.74646 -9.833923E-13

usemtl border

f 3/3/1 2/2/2 1/1/1
f 2/2/2 3/3/1 4/4/2
f 7/7/3 6/6/3 5/5/3
f 6/6/3 7/7/3 8/8/3
f 6/6/3 8/8/3 9/9/3
f 6/6/3 9/9/3 10/10/3
f 6/6/3 10/10/3 11/11/3
f 6/6/3 11/11/3 12/12/3
f 6/6/3 12/12/3 13/13/3
f 6/6/3 13/13/3 14/14/3
f 6/6/3 14/14/3 15/15/3
f 6/6/3 15/15/3 16/16/3
f 6/6/3 16/16/3 17/17/3
f 6/6/3 17/17/3 18/18/3
f 6/6/3 18/18/3 1/19/3
f 6/6/3 1/19/3 19/20/3
f 19/20/3 1/19/3 2/21/3
f 19/20/3 2/21/3 20/22/3
f 21/23/3 19/20/3 20/22/3
f 19/20/3 21/23/3 22/24/3
f 24/27/5 5/26/4 23/25/4
f 5/26/4 24/27/5 7/28/5
f 2/31/6 25/30/6 20/29/6
f 25/30/6 2/31/6 26/3/6
f 26/3/6 2/31/6 4/25/6
f 27/25/7 19/33/7 22/32/7
f 19/33/7 27/25/7 28/30/7
f 28/30/7 27/25/7 29/3/7
f 30/36/8 7/35/5 24/34/5
f 7/35/5 30/36/8 8/37/8
f 31/40/9 8/39/8 30/38/8
f 8/39/8 31/40/9 9/41/9
f 32/44/10 9/43/9 31/42/9
f 9/43/9 32/44/10 10/45/10
f 33/48/11 10/47/10 32/46/10
f 10/47/10 33/48/11 11/49/11
f 34/52/12 11/51/11 33/50/11
f 11/51/11 34/52/12 12/53/12
f 35/56/13 12/55/12 34/54/12
f 12/55/12 35/56/13 13/57/13
f 35/60/13 14/59/14 13/58/13
f 14/59/14 35/60/13 36/61/14
f 36/64/14 15/63/15 14/62/14
f 15/63/15 36/64/14 37/65/15
f 37/68/15 16/67/16 15/66/15
f 16/67/16 37/68/15 38/69/16
f 38/72/16 17/71/17 16/70/16
f 17/71/17 38/72/16 39/73/17
f 39/76/17 18/75/18 17/74/17
f 18/75/18 39/76/17 40/77/18
f 40/80/18 1/79/1 18/78/18
f 1/79/1 40/80/18 3/81/1
f 41/20/19 24/22/19 23/24/19
f 24/22/19 41/20/19 30/82/19
f 30/82/19 41/20/19 31/83/19
f 31/83/19 41/20/19 32/84/19
f 32/84/19 41/20/19 33/85/19
f 33/85/19 41/20/19 34/86/19
f 34/86/19 41/20/19 35/87/19
f 35/87/19 41/20/19 36/88/19
f 36/88/19 41/20/19 37/89/19
f 37/89/19 41/20/19 38/90/19
f 38/90/19 41/20/19 39/91/19
f 39/91/19 41/20/19 40/92/19
f 40/92/19 41/20/19 42/93/19
f 40/92/19 42/93/19 3/94/19
f 3/94/19 42/93/19 26/7/19
f 3/94/19 26/7/19 4/95/19
f 44/30/6 41/4/6 43/96/6
f 41/4/6 44/30/6 42/3/6
f 26/25/7 44/98/7 25/97/7
f 44/98/7 26/25/7 42/27/7
f 27/5/19 45/99/19 29/6/19
f 45/99/19 27/5/19 46/100/19
f 46/100/19 27/5/19 47/101/19
f 47/101/19 27/5/19 48/102/19
f 48/102/19 27/5/19 49/103/19
f 49/103/19 27/5/19 50/104/19
f 50/104/19 27/5/19 51/105/19
f 51/105/19 27/5/19 52/106/19
f 52/106/19 27/5/19 53/107/19
f 53/107/19 27/5/19 54/108/19
f 54/108/19 27/5/19 55/109/19
f 55/109/19 27/5/19 56/110/19
f 55/113/18 58/112/20 57/111/18
f 58/112/20 55/113/18 56/114/20
f 54/117/17 57/116/18 59/115/17
f 57/116/18 54/117/17 55/118/18
f 53/121/16 59/120/17 60/119/16
f 59/120/17 53/121/16 54/122/17
f 52/125/15 60/124/16 61/123/15
f 60/124/16 52/125/15 53/126/16
f 51/129/14 61/128/15 62/127/14
f 61/128/15 51/129/14 52/130/15
f 50/133/13 62/132/14 63/131/13
f 62/132/14 50/133/13 51/134/14
f 50/137/13 64/136/12 49/135/12
f 64/136/12 50/137/13 63/138/13
f 49/141/12 65/140/11 48/139/11
f 65/140/11 49/141/12 64/142/12
f 48/145/11 66/144/10 47/143/10
f 66/144/10 48/145/11 65/146/11
f 47/149/10 67/148/9 46/147/9
f 67/148/9 47/149/10 66/150/10
f 46/153/9 68/152/8 45/151/8
f 68/152/8 46/153/9 67/154/9
f 45/157/8 28/156/21 29/155/21
f 28/156/21 45/157/8 68/158/8
f 43/98/7 5/160/7 6/159/7
f 5/160/7 43/98/7 23/4/7
f 23/4/7 43/98/7 41/27/7
f 21/162/6 27/4/6 22/161/6
f 27/4/6 21/162/6 56/27/6
f 56/27/6 21/162/6 58/98/6

usemtl green

f 28/6/19 44/93/19 43/20/19
f 44/93/19 28/6/19 68/99/19
f 44/93/19 68/99/19 25/7/19
f 25/7/19 68/99/19 67/100/19
f 25/7/19 67/100/19 66/101/19
f 25/7/19 66/101/19 65/102/19
f 25/7/19 65/102/19 64/103/19
f 25/7/19 64/103/19 63/104/19
f 25/7/19 63/104/19 62/105/19
f 25/7/19 62/105/19 61/106/19
f 25/7/19 61/106/19 60/107/19
f 25/7/19 60/107/19 59/108/19
f 25/7/19 59/108/19 57/109/19
f 25/7/19 57/109/19 58/110/19
f 28/30/7 6/159/7 19/33/7
f 6/159/7 28/30/7 43/98/7
f 20/29/6 58/98/6 21/162/6
f 58/98/6 20/29/6 25/30/6

