# Created by Kenney (www.kenney.nl)

mtllib chimneyTop.mtl

g chimneyTop

v 0.425 0 0.13
v 0.425 0 -0.13
v 0.2530917 0 0.13
v 0.2530917 0 -0.13
v 0.465 0.625 -0.13
v 0.465 0.625 0.13
v 0.425 0.625 -0.17
v 0.425 0.625 -0.1134315
v 0.4084315 0.625 -0.13
v 0.2530917 0.625 -0.17
v 0.2696603 0.625 -0.13
v 0.2530917 0.625 -0.1134315
v 0.2130917 0.625 -0.13
v 0.2530917 0.625 0.1134315
v 0.2530917 0.625 0.17
v 0.2130917 0.625 0.13
v 0.425 0.625 0.1134315
v 0.425 0.625 0.17
v 0.4084315 0.625 0.13
v 0.2696603 0.625 0.13
v 0.425 0.375 0.13
v 0.2696603 0.375 0.13
v 0.2530917 0.375 0.13
v 0.4084315 0.375 0.13
v 0.2530917 0.375 -0.13
v 0.2530917 0.375 -0.1134315
v 0.2530917 0.375 0.1134315
v 0.425 0.375 -0.13
v 0.2696603 0.375 -0.13
v 0.4084315 0.375 -0.13
v 0.425 0.375 -0.1134315
v 0.425 0.375 0.1134315
v 0.465 0.375 -0.13
v 0.465 0.375 0.13
v 0.425 0.375 0.17
v 0.2530917 0.375 0.17
v 0.2130917 0.375 0.13
v 0.2530917 0.375 -0.17
v 0.2130917 0.375 -0.13
v 0.425 0.375 -0.17

vn 0 -1 0
vn 0 1 0
vn 0 0 1
vn -1 0 0
vn 0 0 -1
vn 1 0 0
vn 0.7071068 0 0.7071068
vn 0.7071068 0 -0.7071068
vn -0.7071068 0 0.7071068
vn -0.7071068 0 -0.7071068

vt 16.73228 5.11811
vt 16.73228 -5.11811
vt 9.964241 5.11811
vt 9.964241 -5.11811
vt -18.30709 -5.11811
vt -18.30709 5.11811
vt -16.73228 -6.692914
vt -16.73228 -4.465806
vt -16.07998 -5.11811
vt -9.964241 -6.692914
vt -10.61655 -5.11811
vt -9.964241 -4.465806
vt -8.389438 -5.11811
vt -9.964241 4.465806
vt -9.964241 6.692914
vt -8.389438 5.11811
vt -16.73228 4.465806
vt -16.73228 6.692914
vt -16.07998 5.11811
vt -10.61655 5.11811
vt 16.73228 0
vt 9.964241 0
vt 16.73228 14.76378
vt 10.61655 14.76378
vt 9.964241 14.76378
vt 16.07998 14.76378
vt -5.11811 0
vt -5.11811 14.76378
vt 5.11811 0
vt -4.465806 14.76378
vt 4.465806 14.76378
vt 5.11811 14.76378
vt -9.964241 2.463215E-15
vt -16.73228 2.463215E-15
vt -9.964241 14.76378
vt -16.73228 14.76378
vt -10.61655 14.76378
vt -16.07998 14.76378
vt 5.11811 6.442254E-14
vt -5.11811 6.442254E-14
vt 5.11811 24.6063
vt -5.11811 24.6063
vt 18.30709 5.11811
vt 18.30709 -5.11811
vt 16.73228 6.692914
vt 16.73228 4.465806
vt 9.964241 6.692914
vt 16.07998 5.11811
vt 10.61655 5.11811
vt 8.389438 5.11811
vt 9.964241 4.465806
vt 9.964241 -4.465806
vt 9.964241 -6.692914
vt 8.389438 -5.11811
vt 16.73228 -4.465806
vt 16.73228 -6.692914
vt 16.07998 -5.11811
vt 10.61655 -5.11811
vt 9.326015 14.76378
vt 7.098907 14.76378
vt 9.326015 24.6063
vt 7.098907 24.6063
vt -7.098907 14.76378
vt -9.326015 14.76378
vt -7.098907 24.6063
vt -9.326015 24.6063
vt 9.551279 14.76378
vt 9.551279 24.6063
vt 11.77839 14.76378
vt 11.77839 24.6063
vt -11.77839 14.76378
vt -11.77839 24.6063
vt -9.551279 14.76378
vt -9.551279 24.6063
vt -10.61655 24.6063
vt -16.07998 24.6063
vt -8.67371 14.76378
vt -8.67371 24.6063
vt -7.751212 14.76378
vt -7.751212 24.6063
vt -4.465806 24.6063
vt 4.465806 24.6063
vt 7.751212 14.76378
vt 7.751212 24.6063
vt 8.67371 14.76378
vt 8.67371 24.6063
vt 16.07998 24.6063
vt 10.61655 24.6063
vt 11.12608 24.6063
vt 11.12608 14.76378
vt 10.20358 24.6063
vt 10.20358 14.76378
vt -10.20358 14.76378
vt -11.12608 14.76378
vt -10.20358 24.6063
vt -11.12608 24.6063
vt 16.73228 24.6063
vt 9.964241 24.6063
vt -9.964241 24.6063
vt -16.73228 24.6063

usemtl stoneDark

f 3/3/1 2/2/1 1/1/1
f 2/2/1 3/3/1 4/4/1
f 7/7/2 6/6/2 5/5/2
f 6/6/2 7/7/2 8/8/2
f 8/8/2 7/7/2 9/9/2
f 9/9/2 7/7/2 10/10/2
f 9/9/2 10/10/2 11/11/2
f 11/11/2 10/10/2 12/12/2
f 12/12/2 10/10/2 13/13/2
f 12/12/2 13/13/2 14/14/2
f 14/14/2 13/13/2 15/15/2
f 15/15/2 13/13/2 16/16/2
f 17/17/2 6/6/2 8/8/2
f 6/6/2 17/17/2 18/18/2
f 18/18/2 17/17/2 19/19/2
f 18/18/2 19/19/2 15/15/2
f 15/15/2 19/19/2 20/20/2
f 15/15/2 20/20/2 14/14/2
f 21/23/3 3/22/3 1/21/3
f 3/22/3 21/23/3 22/24/3
f 3/22/3 22/24/3 23/25/3
f 22/24/3 21/23/3 24/26/3
f 3/29/4 25/28/4 4/27/4
f 25/28/4 3/29/4 26/30/4
f 26/30/4 3/29/4 27/31/4
f 27/31/4 3/29/4 23/32/4
f 25/35/5 2/34/5 4/33/5
f 2/34/5 25/35/5 28/36/5
f 28/36/5 25/35/5 29/37/5
f 28/36/5 29/37/5 30/38/5
f 31/31/6 2/39/6 28/32/6
f 2/39/6 31/31/6 1/40/6
f 1/40/6 31/31/6 32/30/6
f 1/40/6 32/30/6 21/28/6
f 6/42/6 33/32/6 5/41/6
f 33/32/6 6/42/6 34/28/6
f 35/45/1 33/44/1 34/43/1
f 33/44/1 35/45/1 32/46/1
f 32/46/1 35/45/1 21/1/1
f 21/1/1 35/45/1 36/47/1
f 21/1/1 36/47/1 24/48/1
f 24/48/1 36/47/1 22/49/1
f 22/49/1 36/47/1 23/3/1
f 23/3/1 36/47/1 37/50/1
f 23/3/1 37/50/1 27/51/1
f 27/51/1 37/50/1 26/52/1
f 26/52/1 37/50/1 25/4/1
f 25/4/1 37/50/1 38/53/1
f 38/53/1 37/50/1 39/54/1
f 31/55/1 33/44/1 32/46/1
f 33/44/1 31/55/1 40/56/1
f 40/56/1 31/55/1 28/2/1
f 40/56/1 28/2/1 30/57/1
f 40/56/1 30/57/1 38/53/1
f 38/53/1 30/57/1 29/58/1
f 38/53/1 29/58/1 25/4/1
f 6/61/7 35/60/7 34/59/7
f 35/60/7 6/61/7 18/62/7
f 7/65/8 33/64/8 40/63/8
f 33/64/8 7/65/8 5/66/8
f 36/69/9 16/68/9 37/67/9
f 16/68/9 36/69/9 15/70/9
f 39/73/10 10/72/10 38/71/10
f 10/72/10 39/73/10 13/74/10
f 30/9/2 32/17/2 31/8/2
f 32/17/2 30/9/2 24/19/2
f 24/19/2 30/9/2 29/11/2
f 24/19/2 29/11/2 22/20/2
f 22/20/2 29/11/2 26/12/2
f 22/20/2 26/12/2 27/14/2
f 20/75/5 24/38/5 22/37/5
f 24/38/5 20/75/5 19/76/5
f 24/79/10 17/78/10 32/77/10
f 17/78/10 24/79/10 19/80/10
f 32/31/4 8/81/4 31/30/4
f 8/81/4 32/31/4 17/82/4
f 31/85/9 9/84/9 30/83/9
f 9/84/9 31/85/9 8/86/9
f 9/87/3 29/24/3 30/26/3
f 29/24/3 9/87/3 11/88/3
f 12/91/7 29/90/7 11/89/7
f 29/90/7 12/91/7 26/92/7
f 14/81/6 26/31/6 12/82/6
f 26/31/6 14/81/6 27/30/6
f 14/95/8 22/94/8 27/93/8
f 22/94/8 14/95/8 20/96/8

usemtl stone

f 18/97/3 36/25/3 35/23/3
f 36/25/3 18/97/3 15/98/3
f 37/32/4 13/42/4 39/28/4
f 13/42/4 37/32/4 16/41/4
f 10/99/5 40/36/5 38/35/5
f 40/36/5 10/99/5 7/100/5

usemtl _defaultMat

f 30/32/1 28/42/1 31/28/1
f 24/94/1 32/95/1 21/96/1
f 25/94/1 29/95/1 26/96/1
f 27/94/1 22/95/1 23/96/1

