# Created by Kenney (www.kenney.nl)

mtllib chimneyBase.mtl

g chimneyBase

v 0.08118343 0.41 -0.26
v 0.425 0.41 -0.26
v 0.2530917 0.59 -0.13
v 0.425 0.59 -0.13
v 0.08118343 0.41 0.26
v 0.2530917 0.59 0.13
v 0.425 0.35 -0.26
v 0.425 0.35 -0.2
v 0.425 0.128742 -0.2
v 0.425 0 0.24
v 0.425 0 -0.24
v 0.425 0.128742 -0.24
v 0.425 0.128742 0.2
v 0.425 0.59 0.13
v 0.425 1 0.13
v 0.425 1 -0.13
v 0.425 0.35 0.2
v 0.425 0.41 0.26
v 0.425 0.35 0.26
v 0.425 0.128742 0.24
v 0.1011834 0 -0.24
v 0.1011834 0.128742 -0.24
v 0.1011834 0 0.24
v 0.1011834 0.128742 0.24
v 0.1411834 0.128742 -0.2
v 0.1411834 0.128742 -0.14943
v 0.1411834 0.128742 0.14943
v 0.1411834 0.128742 0.2
v 0.2411834 0.128742 0.14943
v 0.2411834 0.128742 -0.14943
v 0.08118343 0.35 -0.26
v 0.08118343 0.35 0.26
v 0.1411834 0.35 0.2
v 0.1411834 0.35 -0.2
v 0.1411834 0.29943 0.14943
v 0.1411834 0.29943 -0.14943
v 0.2411834 0.29943 0.14943
v 0.2530917 1 0.13
v 0.2411834 0.29943 -0.14943
v 0.2530917 1 -0.13

vn 0 0.5854905 -0.8106793
vn -0.7231748 0.6906651 0
vn 1 0 0
vn -1 0 0
vn 0 0 1
vn 0 1 0
vn 0 0 -1
vn 0 -1 0
vn 0 0.5854905 0.8106793

vt -3.196198 7.092556
vt -16.73228 7.092556
vt -9.964241 15.83413
vt -16.73228 15.83413
vt -10.23622 13.8808
vt -5.11811 23.68011
vt 10.23622 13.8808
vt 5.11811 23.68011
vt 10.23622 16.14173
vt 10.23622 13.77953
vt 5.11811 23.22835
vt 7.874016 13.77953
vt 7.874016 5.068582
vt -9.448819 0
vt 9.448819 0
vt 9.448819 5.068582
vt -7.874016 5.068582
vt -5.11811 23.22835
vt -5.11811 39.37008
vt 5.11811 39.37008
vt -7.874016 13.77953
vt -10.23622 16.14173
vt -10.23622 13.77953
vt -9.448819 5.068582
vt 16.73228 0
vt 3.9836 0
vt 16.73228 5.068582
vt 3.9836 5.068582
vt -16.73228 -9.448819
vt -16.73228 -7.874016
vt -3.9836 -9.448819
vt -5.558403 -7.874016
vt -5.558403 -5.88307
vt -5.558403 5.88307
vt -5.558403 7.874016
vt -3.9836 9.448819
vt -16.73228 9.448819
vt -16.73228 7.874016
vt -9.495411 5.88307
vt -9.495411 -5.88307
vt -3.196198 13.77953
vt -16.73228 13.77953
vt -3.196198 16.14173
vt -16.73228 16.14173
vt -3.9836 0
vt -16.73228 0
vt -3.9836 5.068582
vt -16.73228 5.068582
vt 16.73228 13.77953
vt 3.196198 13.77953
vt 16.73228 16.14173
vt 3.196198 16.14173
vt 16.73228 10.23622
vt 16.73228 7.874016
vt 3.196198 10.23622
vt 5.558403 7.874016
vt 5.558403 -7.874016
vt 3.196198 -10.23622
vt 16.73228 -10.23622
vt 16.73228 -7.874016
vt 16.73228 9.448819
vt 16.73228 -9.448819
vt 3.9836 9.448819
vt 3.9836 -9.448819
vt 16.73228 7.092556
vt 3.196198 7.092556
vt 16.73228 15.83413
vt 9.964241 15.83413
vt 5.88307 5.068582
vt 5.88307 11.78858
vt -5.88307 11.78858
vt -5.88307 5.068582
vt 5.558403 5.068582
vt 5.558403 13.77953
vt -5.558403 5.068582
vt -5.558403 13.77953
vt -9.495411 5.068582
vt -5.558403 11.78858
vt -9.495411 11.78858
vt 16.73228 23.22835
vt 9.964241 23.22835
vt 16.73228 39.37008
vt 9.964241 39.37008
vt 9.495411 5.88307
vt 9.495411 -5.88307
vt 5.558403 5.88307
vt 5.558403 -5.88307
vt -9.964241 23.22835
vt -16.73228 23.22835
vt -9.964241 39.37008
vt -16.73228 39.37008
vt 9.495411 5.068582
vt 9.495411 11.78858
vt 5.558403 11.78858
vt -16.73228 -5.11811
vt -16.73228 5.11811
vt -9.964241 -5.11811
vt -9.964241 5.11811

usemtl stone

f 3/3/1 2/2/1 1/1/1
f 2/2/1 3/3/1 4/4/1
f 5/7/2 3/6/2 1/5/2
f 3/6/2 5/7/2 6/8/2
f 4/11/3 7/10/3 2/9/3
f 7/10/3 4/11/3 8/12/3
f 8/12/3 4/11/3 9/13/3
f 10/14/3 9/13/3 4/11/3
f 11/15/3 9/13/3 10/14/3
f 9/13/3 11/15/3 12/16/3
f 10/14/3 4/11/3 13/17/3
f 13/17/3 4/11/3 14/18/3
f 14/18/3 4/11/3 15/19/3
f 15/19/3 4/11/3 16/20/3
f 13/17/3 14/18/3 17/21/3
f 18/22/3 17/21/3 14/18/3
f 17/21/3 18/22/3 19/23/3
f 10/14/3 13/17/3 20/24/3
f 23/15/4 22/24/4 21/14/4
f 22/24/4 23/15/4 24/16/4
f 20/27/5 23/26/5 10/25/5
f 23/26/5 20/27/5 24/28/5
f 22/31/6 9/30/6 12/29/6
f 9/30/6 22/31/6 25/32/6
f 25/32/6 22/31/6 26/33/6
f 26/33/6 22/31/6 27/34/6
f 27/34/6 22/31/6 28/35/6
f 24/36/6 28/35/6 22/31/6
f 20/37/6 28/35/6 24/36/6
f 28/35/6 20/37/6 13/38/6
f 29/39/6 26/33/6 27/34/6
f 26/33/6 29/39/6 30/40/6
f 1/43/7 7/42/7 31/41/7
f 7/42/7 1/43/7 2/44/7
f 32/10/4 1/22/4 31/23/4
f 1/22/4 32/10/4 5/9/4
f 22/47/7 11/46/7 21/45/7
f 11/46/7 22/47/7 12/48/7
f 18/51/5 32/50/5 19/49/5
f 32/50/5 18/51/5 5/52/5
f 32/55/8 17/54/8 19/53/8
f 17/54/8 32/55/8 33/56/8
f 33/56/8 32/55/8 34/57/8
f 31/58/8 34/57/8 32/55/8
f 7/59/8 34/57/8 31/58/8
f 34/57/8 7/59/8 8/60/8
f 23/63/8 11/62/8 10/61/8
f 11/62/8 23/63/8 21/64/8
f 14/67/9 5/66/9 18/65/9
f 5/66/9 14/67/9 6/68/9

usemtl stoneDark

f 28/13/4 35/70/4 27/69/4
f 33/12/4 35/70/4 28/13/4
f 33/12/4 36/71/4 35/70/4
f 34/21/4 36/71/4 33/12/4
f 34/21/4 26/72/4 36/71/4
f 26/72/4 34/21/4 25/17/4
f 17/49/5 28/73/5 13/27/5
f 28/73/5 17/49/5 33/74/5
f 34/76/7 9/48/7 25/75/7
f 9/48/7 34/76/7 8/42/7
f 35/78/7 29/77/7 27/75/7
f 29/77/7 35/78/7 37/79/7
f 15/82/5 6/81/5 14/80/5
f 6/81/5 15/82/5 38/83/5
f 35/86/8 39/85/8 37/84/8
f 39/85/8 35/86/8 36/87/8
f 6/11/4 40/19/4 3/18/4
f 40/19/4 6/11/4 38/20/4
f 29/69/4 39/71/4 30/72/4
f 39/71/4 29/69/4 37/70/4
f 40/90/7 4/89/7 3/88/7
f 4/89/7 40/90/7 16/91/7
f 39/93/5 26/73/5 30/92/5
f 26/73/5 39/93/5 36/94/5
f 40/97/6 15/96/6 16/95/6
f 15/96/6 40/97/6 38/98/6

