# Created by Kenney (www.kenney.nl)

mtllib fountainCurved.mtl

g fountainCurved

v 0.5 0.14 -0.5
v 0.3694738 0.14 -0.4914449
v 0.5 0.112 -0.47
v 0.3733896 0.112 -0.4617015
v 0.015 0.112 -0.3400446
v 1.299441E-14 0.14 -0.3660254
v -0.09049859 0.112 -0.2695527
v -0.1087614 0.14 -0.2933533
v 0.2489455 0.112 -0.436948
v 0.241181 0.14 -0.4659258
v 0.5 0 -0.5
v 0.3694738 0 -0.4914449
v 0.5 0 -0.2
v 0.4086317 0 -0.1940114
v 0.3188266 0 -0.1761481
v 0.241181 0 -0.4659258
v 0.2321216 0 -0.1467157
v 0.1173166 0 -0.4238795
v 0.15 0 -0.1062178
v 0.07386699 0 -0.05534733
v 1.299441E-14 0 -0.3660254
v 0.005025253 0 0.005025253
v -0.05534733 0 0.07386699
v -0.1087614 0 -0.2933533
v -0.1062178 0 0.15
v -0.1467157 0 0.2321216
v -0.2071068 0 -0.2071068
v -0.1761481 0 0.3188266
v -0.1940114 0 0.4086317
v -0.2 0 0.5
v -0.5 0 0.5
v -0.2933533 0 -0.1087614
v -0.3660254 0 -3.753939E-14
v -0.4238795 0 0.1173166
v -0.4659258 0 0.241181
v -0.4914449 0 0.3694738
v -0.1761481 0.28 0.3188266
v -0.1761481 0.14 0.3188266
v -0.1940114 0.28 0.4086317
v -0.1940114 0.14 0.4086317
v 0.1287971 0.112 -0.3961631
v 0.1173166 0.14 -0.4238795
v -0.2695527 0.112 -0.09049859
v -0.2933533 0.14 -0.1087614
v -0.3400446 0.112 0.015
v -0.3660254 0.14 -3.753939E-14
v -0.2 0.28 0.5
v -0.2 0.14 0.5
v 0.07386699 0.14 -0.05534733
v 0.005025253 0.14 0.005025253
v 0.07386699 0.28 -0.05534733
v 0.005025253 0.28 0.005025253
v -0.05534733 0.28 0.07386699
v -0.05534733 0.14 0.07386699
v 0.2321216 0.14 -0.1467157
v 0.15 0.14 -0.1062178
v 0.2321216 0.28 -0.1467157
v 0.15 0.28 -0.1062178
v 0.4086317 0.14 -0.1940114
v 0.3188266 0.14 -0.1761481
v 0.4086317 0.28 -0.1940114
v 0.3188266 0.28 -0.1761481
v -0.1858936 0.112 -0.1858936
v -0.2071068 0.14 -0.2071068
v -0.47 0.056 0.5
v -0.47 0.112 0.5
v -0.5 0.14 0.5
v -0.5 0.28 0.5
v -0.425 0.28 0.5
v -0.5 0.056 0.5
v -0.3961631 0.112 0.1287971
v -0.4238795 0.14 0.1173166
v -0.1062178 0.28 0.15
v -0.1062178 0.14 0.15
v -0.1467157 0.28 0.2321216
v -0.1467157 0.14 0.2321216
v 0.5 0.14 -0.2
v 0.5 0.28 -0.2
v -0.4914449 0.14 0.3694738
v -0.4914449 0.28 0.3694738
v 0.3694738 0.28 -0.4914449
v 0.5 0.28 -0.5
v -0.09049859 0.056 -0.2695527
v 0.015 0.056 -0.3400446
v 0.3733896 0.056 -0.4617015
v 0.5 0.056 -0.47
v 0.1287971 0.056 -0.3961631
v -0.1087614 0.28 -0.2933533
v 1.299441E-14 0.28 -0.3660254
v -0.2695527 0.056 -0.09049859
v -0.3400446 0.056 0.015
v 0.1173166 0.28 -0.4238795
v 0.241181 0.28 -0.4659258
v -0.4659258 0.14 0.241181
v -0.4659258 0.28 0.241181
v -0.436948 0.112 0.2489455
v -0.1858936 0.056 -0.1858936
v -0.2071068 0.28 -0.2071068
v -0.2933533 0.28 -0.1087614
v 0.5 0 0.5
v 0.2489455 0.056 -0.436948
v -0.3660254 0.28 -3.753939E-14
v -0.4238795 0.28 0.1173166
v 0.5 0.28 -0.425
v 0.5 0.056 -0.5
v -0.3961631 0.056 0.1287971
v -0.436948 0.056 0.2489455
v -0.4617015 0.056 0.3733896
v -0.4617015 0.112 0.3733896
v 0.3792633 0.28 -0.4170865
v 0.2605924 0.28 -0.3934814
v 0.1460178 0.28 -0.3545886
v 0.0375 0.28 -0.3010735
v -0.06310432 0.28 -0.2338518
v -0.1540738 0.28 -0.1540738
v -0.2338518 0.28 -0.06310432
v -0.3010735 0.28 0.0375
v -0.3545886 0.28 0.1460178
v -0.3934814 0.28 0.2605924
v -0.4170865 0.28 0.3792633
v 0.3694738 0.056 -0.4914449
v -0.2933533 0.056 -0.1087614
v -0.3660254 0.056 -3.753939E-14
v 0.241181 0.056 -0.4659258
v 1.299441E-14 0.056 -0.3660254
v 0.1173166 0.056 -0.4238795
v -0.2071068 0.056 -0.2071068
v -0.1087614 0.056 -0.2933533
v -0.4659258 0.056 0.241181
v -0.4914449 0.056 0.3694738
v -0.4238795 0.056 0.1173166
v 0.5 0.14 0.5

vn -0.04467685 -0.7303253 -0.681637
vn -0.0890604 -0.7310552 -0.6764809
vn -0.3411591 -0.7310552 -0.5909049
vn -0.415369 -0.7310552 -0.5413194
vn -0.1765969 -0.7310552 -0.6590688
vn 0 -1 0
vn 0.9659258 0 0.258819
vn 0.9914449 0 0.1305262
vn -0.2611119 -0.7310553 -0.6303799
vn -0.5413195 -0.7310552 -0.415369
vn -0.5909049 -0.7310552 -0.3411591
vn 0.9978589 0 0.06540313
vn 0.6087614 0 0.7933533
vn 0.7071068 0 0.7071068
vn 0.7933533 0 0.6087614
vn 0.3826834 0 0.9238795
vn 0.5 0 0.8660254
vn 0.1305262 0 0.9914449
vn 0.258819 0 0.9659258
vn -0.4824718 -0.7310552 -0.4824718
vn 0 0 1
vn -0.6303798 -0.7310552 -0.2611119
vn 0.8660254 0 0.5
vn 0.9238795 0 0.3826834
vn 0.06540313 0 0.9978589
vn -0.9914449 0 -0.1305262
vn -0.9978589 0 -0.06540313
vn -0.1305262 0 -0.9914449
vn -0.06540313 0 -0.9978589
vn -0.6087614 0 -0.7933533
vn -0.5 0 -0.8660254
vn -0.3826834 0 -0.9238795
vn -0.7933533 0 -0.6087614
vn -0.8660254 0 -0.5
vn -0.258819 0 -0.9659258
vn -0.9659258 0 -0.258819
vn -0.6590688 -0.7310552 -0.1765969
vn -0.7071068 0 -0.7071068
vn 0 1 0
vn -0.9238795 0 -0.3826834
vn 1 0 0
vn -0.6764809 -0.7310552 -0.0890604
vn -0.681637 -0.7303253 -0.04467685

vt -20.93036 17.17055
vt -15.7805 17.17055
vt -20.85311 15.55678
vt -15.85775 15.55678
vt -7.928769 10.902
vt -8.006017 12.51576
vt -2.933412 10.902
vt -2.856164 12.51576
vt -17.96412 13.9378
vt -18.04136 15.55156
vt -12.96876 13.9378
vt -12.89151 15.55156
vt 19.68504 -19.68504
vt 14.54621 -19.34822
vt 19.68504 -7.874016
vt 16.08786 -7.638244
vt 12.55223 -6.934964
vt 9.495314 -18.34354
vt 9.138645 -5.776207
vt 4.618762 -16.68817
vt 5.905512 -4.181802
vt 2.908149 -2.179029
vt 5.115908E-13 -14.41045
vt 0.1978446 0.1978446
vt -2.179029 2.908149
vt -4.281946 -11.54934
vt -4.181802 5.905512
vt -5.776207 9.138645
vt -8.153811 -8.153811
vt -6.934964 12.55223
vt -7.638244 16.08786
vt -7.874016 19.68504
vt -19.68504 19.68504
vt -11.54934 -4.281946
vt -14.41045 -1.477929E-12
vt -16.68817 4.618762
vt -18.34354 9.495314
vt -19.34822 14.54621
vt -13.66399 11.02362
vt -13.66399 5.511811
vt -17.26888 11.02362
vt -17.26888 5.511811
vt -17.26888 -1.854479E-12
vt -13.66399 -1.854479E-12
vt -14.81049 12.60806
vt -14.88773 14.22182
vt -9.81513 12.60806
vt -9.737882 14.22182
vt 2.933412 10.902
vt 2.856164 12.51576
vt 7.928769 10.902
vt 8.006017 12.51576
vt -16.55298 11.02362
vt -16.55298 5.511811
vt -20.15788 11.02362
vt -20.15788 5.511811
vt -20.15788 -2.414614E-12
vt -16.55298 -2.414614E-12
vt 3.623196 5.511811
vt 0.01829944 5.511811
vt 3.623196 11.02362
vt 0.01829944 11.02362
vt 0.01829944 8.040212E-14
vt 3.623196 8.040212E-14
vt -0.01829944 11.02362
vt -0.01829944 5.511811
vt -3.623196 11.02362
vt -3.623196 5.511811
vt -3.623196 9.194787E-14
vt -0.01829944 9.194787E-14
vt 10.75095 5.511811
vt 7.146057 5.511811
vt 10.75095 11.02362
vt 7.146057 11.02362
vt 7.146057 -2.26217E-13
vt 10.75095 -2.26217E-13
vt 17.26888 5.511811
vt 13.66399 5.511811
vt 17.26888 11.02362
vt 13.66399 11.02362
vt 13.66399 -3.701858E-13
vt 17.26888 -3.701858E-13
vt 7.233539 5.511811
vt 3.628642 5.511811
vt 7.233539 11.02362
vt 3.628642 11.02362
vt 3.628642 -4.782978E-14
vt 7.233539 -4.782978E-14
vt -4.318427 10.55487
vt -4.395674 12.16863
vt 0.6769307 10.55487
vt 0.7541785 12.16863
vt -11.44618 11.59032
vt -11.52343 13.20409
vt -6.450826 11.59032
vt -6.373579 13.20409
vt -0.6769307 10.55487
vt -0.7541785 12.16863
vt 4.318427 10.55487
vt 4.395674 12.16863
vt -7.874016 9.315457E-14
vt -19.68504 9.315457E-14
vt -7.874016 5.511811
vt -18.50394 2.204724
vt -18.50394 4.409449
vt -19.68504 5.511811
vt -19.68504 11.02362
vt -16.73228 11.02362
vt -7.874016 11.02362
vt -19.68504 2.204724
vt 14.11526 5.511811
vt 10.51036 5.511811
vt 14.11526 11.02362
vt 10.51036 11.02362
vt 10.51036 -3.649612E-13
vt 14.11526 -3.649612E-13
vt 6.450826 11.59032
vt 6.373579 13.20409
vt 11.44618 11.59032
vt 11.52343 13.20409
vt -3.628642 11.02362
vt -3.628642 5.511811
vt -7.233539 11.02362
vt -7.233539 5.511811
vt -7.233539 -7.114075E-14
vt -3.628642 -7.114075E-14
vt -7.146057 11.02362
vt -7.146057 5.511811
vt -10.75095 11.02362
vt -10.75095 5.511811
vt -10.75095 -4.429386E-13
vt -7.146057 -4.429386E-13
vt 20.15788 5.511811
vt 16.55298 5.511811
vt 20.15788 11.02362
vt 16.55298 11.02362
vt 16.55298 -1.754003E-13
vt 20.15788 -1.754003E-13
vt -10.51036 11.02362
vt -10.51036 5.511811
vt -14.11526 11.02362
vt -14.11526 5.511811
vt -14.11526 -1.038688E-12
vt -10.51036 -1.038688E-12
vt 15.7805 5.511811
vt 15.7805 11.02362
vt 20.93036 5.511811
vt 20.93036 11.02362
vt -15.7805 5.511811
vt -20.93036 5.511811
vt -15.7805 11.02362
vt -20.93036 11.02362
vt -2.933412 2.204724
vt -7.928769 2.204724
vt -2.933412 4.409449
vt -7.928769 4.409449
vt -15.85775 2.204724
vt -20.85311 2.204724
vt -15.85775 4.409449
vt -20.85311 4.409449
vt -6.450826 2.204724
vt -11.44618 2.204724
vt -6.450826 4.409449
vt -11.44618 4.409449
vt -2.856164 5.511811
vt -8.006017 5.511811
vt -2.856164 11.02362
vt -8.006017 11.02362
vt 2.933412 2.204724
vt 2.933412 4.409449
vt 7.928769 2.204724
vt 7.928769 4.409449
vt -9.737882 5.511811
vt -14.88773 5.511811
vt -9.737882 11.02362
vt -14.88773 11.02362
vt 12.89151 5.511811
vt 12.89151 11.02362
vt 18.04136 5.511811
vt 18.04136 11.02362
vt 9.81513 12.60806
vt 9.737882 14.22182
vt 14.81049 12.60806
vt 14.88773 14.22182
vt -0.6769307 2.204724
vt -0.6769307 4.409449
vt 4.318427 2.204724
vt 4.318427 4.409449
vt -0.7541785 5.511811
vt -0.7541785 11.02362
vt 4.395674 5.511811
vt 4.395674 11.02362
vt -6.373579 5.511811
vt -11.52343 5.511811
vt -6.373579 11.02362
vt -11.52343 11.02362
vt 0.7541785 5.511811
vt -4.395674 5.511811
vt 0.7541785 11.02362
vt -4.395674 11.02362
vt -19.68504 -7.874016
vt -16.08786 -7.638244
vt 7.874016 19.68504
vt -12.55223 -6.934964
vt -9.138645 -5.776207
vt -5.905512 -4.181802
vt -2.908149 -2.179029
vt -0.1978446 0.1978446
vt 2.179029 2.908149
vt 4.181802 5.905512
vt 5.776207 9.138645
vt 6.934964 12.55223
vt 7.638244 16.08786
vt -9.81513 2.204724
vt -14.81049 2.204724
vt -9.81513 4.409449
vt -14.81049 4.409449
vt 6.373579 5.511811
vt 6.373579 11.02362
vt 11.52343 5.511811
vt 11.52343 11.02362
vt 2.856164 5.511811
vt 2.856164 11.02362
vt 8.006017 5.511811
vt 8.006017 11.02362
vt 19.68504 11.02362
vt 19.68504 5.511811
vt 16.73228 11.02362
vt 18.50394 4.409449
vt 18.50394 2.204724
vt 7.874016 1.002887E-15
vt 19.68504 1.002887E-15
vt 19.68504 2.204724
vt 7.874016 11.02362
vt 7.874016 5.511811
vt 9.81513 2.204724
vt 9.81513 4.409449
vt 14.81049 2.204724
vt 14.81049 4.409449
vt 0.6769307 2.204724
vt -4.318427 2.204724
vt 0.6769307 4.409449
vt -4.318427 4.409449
vt 6.450826 2.204724
vt 6.450826 4.409449
vt 11.44618 2.204724
vt 11.44618 4.409449
vt 15.85775 2.204724
vt 15.85775 4.409449
vt 20.85311 2.204724
vt 20.85311 4.409449
vt -12.89151 5.511811
vt -18.04136 5.511811
vt -12.89151 11.02362
vt -18.04136 11.02362
vt -19.68504 -16.73228
vt -14.93163 -16.42073
vt -10.25954 -15.49139
vt -5.748733 -13.96018
vt -1.476378 -11.85329
vt 2.484422 -9.206765
vt 6.065897 -6.065897
vt 9.206765 -2.484422
vt 16.73228 19.68504
vt 11.85329 1.476378
vt 13.96018 5.748733
vt 15.49139 10.25954
vt 16.42073 14.93163
vt 15.85775 15.55678
vt 15.7805 17.17055
vt 20.85311 15.55678
vt 20.93036 17.17055
vt -12.96876 2.204724
vt -17.96412 2.204724
vt -12.96876 4.409449
vt -17.96412 4.409449
vt 12.96876 2.204724
vt 12.96876 4.409449
vt 17.96412 2.204724
vt 17.96412 4.409449
vt 9.737882 5.511811
vt 9.737882 11.02362
vt 14.88773 5.511811
vt 14.88773 11.02362
vt 12.96876 13.9378
vt 12.89151 15.55156
vt 17.96412 13.9378
vt 18.04136 15.55156
vt -19.68504 -19.68504
vt -14.54621 -19.34822
vt -9.495314 -18.34354
vt -4.618762 -16.68817
vt -5.107845E-13 -14.41045
vt 4.281946 -11.54934
vt 8.153811 -8.153811
vt 11.54934 -4.281946
vt 14.41045 -1.480897E-12
vt 16.68817 4.618762
vt 18.34354 9.495314
vt 19.68504 19.68504
vt 19.34822 14.54621
vt -15.7805 0
vt -20.93036 0
vt -15.7805 2.204724
vt -20.93036 2.204724
vt 2.856164 0
vt 2.856164 2.204724
vt 8.006017 0
vt 8.006017 2.204724
vt -12.89151 0
vt -18.04136 0
vt -12.89151 2.204724
vt -18.04136 2.204724
vt -6.373579 0
vt -11.52343 0
vt -6.373579 2.204724
vt -11.52343 2.204724
vt -9.737882 0
vt -14.88773 0
vt -9.737882 2.204724
vt -14.88773 2.204724
vt 0.7541785 0
vt -4.395674 0
vt 0.7541785 2.204724
vt -4.395674 2.204724
vt 12.89151 0
vt 12.89151 2.204724
vt 18.04136 0
vt 18.04136 2.204724
vt -2.856164 0
vt -8.006017 0
vt -2.856164 2.204724
vt -8.006017 2.204724
vt 15.7805 0
vt 15.7805 2.204724
vt 20.93036 0
vt 20.93036 2.204724
vt -19.68504 -18.50394
vt -14.70038 -18.17723
vt -9.801005 -17.20268
vt -5.070751 -15.59697
vt -0.5905512 -13.38758
vt -5.115938E-13 -14.41045
vt 3.562937 -10.61231
vt 7.318645 -7.318645
vt 10.61231 -3.562937
vt 13.38758 0.5905512
vt 14.41045 -1.477937E-12
vt 15.59697 5.070751
vt 17.20268 9.801005
vt 18.17723 14.70038
vt 18.50394 19.68504
vt 6.373579 0
vt 6.373579 2.204724
vt 11.52343 0
vt 11.52343 2.204724
vt 9.737882 0
vt 9.737882 2.204724
vt 14.88773 0
vt 14.88773 2.204724
vt -0.7541785 0
vt -0.7541785 2.204724
vt 4.395674 0
vt 4.395674 2.204724

usemtl stone

f 3/3/1 2/2/2 1/1/1
f 2/2/2 3/3/1 4/4/2
f 7/7/4 6/6/3 5/5/3
f 6/6/3 7/7/4 8/8/4
f 9/11/5 2/10/2 4/9/2
f 2/10/2 9/11/5 10/12/5
f 13/15/6 12/14/6 11/13/6
f 12/14/6 13/15/6 14/16/6
f 12/14/6 14/16/6 15/17/6
f 12/14/6 15/17/6 16/18/6
f 16/18/6 15/17/6 17/19/6
f 16/18/6 17/19/6 18/20/6
f 18/20/6 17/19/6 19/21/6
f 18/20/6 19/21/6 20/22/6
f 18/20/6 20/22/6 21/23/6
f 21/23/6 20/22/6 22/24/6
f 21/23/6 22/24/6 23/25/6
f 21/23/6 23/25/6 24/26/6
f 24/26/6 23/25/6 25/27/6
f 24/26/6 25/27/6 26/28/6
f 24/26/6 26/28/6 27/29/6
f 27/29/6 26/28/6 28/30/6
f 27/29/6 28/30/6 29/31/6
f 27/29/6 29/31/6 30/32/6
f 27/29/6 30/32/6 31/33/6
f 27/29/6 31/33/6 32/34/6
f 32/34/6 31/33/6 33/35/6
f 33/35/6 31/33/6 34/36/6
f 34/36/6 31/33/6 35/37/6
f 35/37/6 31/33/6 36/38/6
f 39/41/8 38/40/7 37/39/7
f 38/40/7 39/41/8 40/42/8
f 29/43/8 38/40/7 40/42/8
f 38/40/7 29/43/8 28/44/7
f 41/47/9 10/46/5 9/45/5
f 10/46/5 41/47/9 42/48/9
f 45/51/11 44/50/10 43/49/10
f 44/50/10 45/51/11 46/52/11
f 47/55/12 40/54/8 39/53/8
f 40/54/8 47/55/12 48/56/12
f 30/57/12 40/54/8 48/56/12
f 40/54/8 30/57/12 29/58/8
f 51/61/13 50/60/14 49/59/13
f 50/60/14 51/61/13 52/62/14
f 22/63/14 49/59/13 50/60/14
f 49/59/13 22/63/14 20/64/13
f 53/67/15 50/66/14 52/65/14
f 50/66/14 53/67/15 54/68/15
f 23/69/15 50/66/14 54/68/15
f 50/66/14 23/69/15 22/70/14
f 57/73/16 56/72/17 55/71/16
f 56/72/17 57/73/16 58/74/17
f 19/75/17 55/71/16 56/72/17
f 55/71/16 19/75/17 17/76/16
f 61/79/18 60/78/19 59/77/18
f 60/78/19 61/79/18 62/80/19
f 15/81/19 59/77/18 60/78/19
f 59/77/18 15/81/19 14/82/18
f 58/85/17 49/84/13 56/83/17
f 49/84/13 58/85/17 51/86/13
f 20/87/13 56/83/17 49/84/13
f 56/83/17 20/87/13 19/88/17
f 63/91/20 8/90/4 7/89/4
f 8/90/4 63/91/20 64/92/20
f 5/95/3 42/94/9 41/93/9
f 42/94/9 5/95/3 6/96/3
f 43/99/10 64/98/20 63/97/20
f 64/98/20 43/99/10 44/100/10
f 48/103/21 31/102/21 30/101/21
f 31/102/21 48/103/21 65/104/21
f 65/104/21 48/103/21 66/105/21
f 66/105/21 48/103/21 67/106/21
f 67/106/21 48/103/21 68/107/21
f 68/107/21 48/103/21 69/108/21
f 69/108/21 48/103/21 47/109/21
f 70/110/21 31/102/21 65/104/21
f 62/113/19 55/112/16 60/111/19
f 55/112/16 62/113/19 57/114/16
f 17/115/16 60/111/19 55/112/16
f 60/111/19 17/115/16 15/116/19
f 71/119/22 46/118/11 45/117/11
f 46/118/11 71/119/22 72/120/22
f 73/123/23 54/122/15 53/121/15
f 54/122/15 73/123/23 74/124/23
f 25/125/23 54/122/15 74/124/23
f 54/122/15 25/125/23 23/126/15
f 75/129/24 74/128/23 73/127/23
f 74/128/23 75/129/24 76/130/24
f 26/131/24 74/128/23 76/130/24
f 74/128/23 26/131/24 25/132/23
f 78/135/25 59/134/18 77/133/25
f 59/134/18 78/135/25 61/136/18
f 14/137/18 77/133/25 59/134/18
f 77/133/25 14/137/18 13/138/25
f 37/141/7 76/140/24 75/139/24
f 76/140/24 37/141/7 38/142/7
f 28/143/7 76/140/24 38/142/7
f 76/140/24 28/143/7 26/144/24
f 67/147/27 80/146/26 79/145/26
f 80/146/26 67/147/27 68/148/27
f 81/151/28 1/150/29 2/149/28
f 1/150/29 81/151/28 82/152/29
f 7/155/30 84/154/31 83/153/30
f 84/154/31 7/155/30 5/156/31
f 4/159/28 86/158/29 85/157/28
f 86/158/29 4/159/28 3/160/29
f 5/163/31 87/162/32 84/161/31
f 87/162/32 5/163/31 41/164/32
f 88/167/30 6/166/31 8/165/30
f 6/166/31 88/167/30 89/168/31
f 91/171/34 43/170/33 90/169/33
f 43/170/33 91/171/34 45/172/34
f 92/175/32 10/174/35 42/173/32
f 10/174/35 92/175/32 93/176/35
f 79/179/26 95/178/36 94/177/36
f 95/178/36 79/179/26 80/180/26
f 96/183/37 72/182/22 71/181/22
f 72/182/22 96/183/37 94/184/37
f 90/187/33 63/186/38 97/185/38
f 63/186/38 90/187/33 43/188/33
f 44/191/33 98/190/38 64/189/38
f 98/190/38 44/191/33 99/192/33
f 89/195/31 42/194/32 6/193/31
f 42/194/32 89/195/31 92/196/32
f 98/199/38 8/198/30 64/197/38
f 8/198/30 98/199/38 88/200/30
f 14/202/39 100/33/39 13/201/39
f 100/33/39 14/202/39 30/203/39
f 30/203/39 14/202/39 15/204/39
f 30/203/39 15/204/39 17/205/39
f 30/203/39 17/205/39 19/206/39
f 30/203/39 19/206/39 20/207/39
f 30/203/39 20/207/39 22/208/39
f 30/203/39 22/208/39 23/209/39
f 30/203/39 23/209/39 25/210/39
f 30/203/39 25/210/39 26/211/39
f 30/203/39 26/211/39 28/212/39
f 30/203/39 28/212/39 29/213/39
f 41/216/32 101/215/35 87/214/32
f 101/215/35 41/216/32 9/217/35
f 72/220/40 102/219/34 46/218/34
f 102/219/34 72/220/40 103/221/40
f 46/224/34 99/223/33 44/222/33
f 99/223/33 46/224/34 102/225/34
f 104/228/41 1/227/41 82/226/41
f 1/227/41 104/228/41 3/229/41
f 3/229/41 104/228/41 86/230/41
f 13/231/41 86/230/41 104/228/41
f 11/232/41 86/230/41 13/231/41
f 86/230/41 11/232/41 105/233/41
f 13/231/41 104/228/41 78/234/41
f 13/231/41 78/234/41 77/235/41
f 107/238/36 71/237/40 106/236/40
f 71/237/40 107/238/36 96/239/36
f 63/242/38 83/241/30 97/240/38
f 83/241/30 63/242/38 7/243/30
f 106/246/40 45/245/34 91/244/34
f 45/245/34 106/246/40 71/247/40
f 65/250/27 109/249/26 108/248/26
f 109/249/26 65/250/27 66/251/27
f 93/254/35 2/253/28 10/252/35
f 2/253/28 93/254/35 81/255/28
f 110/257/39 78/201/39 104/256/39
f 78/201/39 110/257/39 61/202/39
f 61/202/39 110/257/39 62/204/39
f 62/204/39 110/257/39 111/258/39
f 62/204/39 111/258/39 57/205/39
f 57/205/39 111/258/39 112/259/39
f 57/205/39 112/259/39 58/206/39
f 58/206/39 112/259/39 51/207/39
f 51/207/39 112/259/39 113/260/39
f 51/207/39 113/260/39 52/208/39
f 52/208/39 113/260/39 114/261/39
f 52/208/39 114/261/39 53/209/39
f 53/209/39 114/261/39 73/210/39
f 73/210/39 114/261/39 115/262/39
f 73/210/39 115/262/39 75/211/39
f 75/211/39 115/262/39 37/212/39
f 37/212/39 115/262/39 116/263/39
f 37/212/39 116/263/39 39/213/39
f 39/213/39 116/263/39 47/203/39
f 47/203/39 116/263/39 69/264/39
f 69/264/39 116/263/39 117/265/39
f 69/264/39 117/265/39 118/266/39
f 69/264/39 118/266/39 119/267/39
f 69/264/39 119/267/39 120/268/39
f 66/271/43 79/270/42 109/269/42
f 79/270/42 66/271/43 67/272/43
f 9/275/35 85/274/28 101/273/35
f 85/274/28 9/275/35 4/276/28
f 108/279/26 96/278/36 107/277/36
f 96/278/36 108/279/26 109/280/26
f 94/283/36 103/282/40 72/281/40
f 103/282/40 94/283/36 95/284/36
f 109/287/42 94/286/37 96/285/37
f 94/286/37 109/287/42 79/288/42

usemtl stoneDark

f 81/290/39 104/256/39 82/289/39
f 104/256/39 81/290/39 110/257/39
f 110/257/39 81/290/39 111/258/39
f 111/258/39 81/290/39 93/291/39
f 111/258/39 93/291/39 112/259/39
f 112/259/39 93/291/39 92/292/39
f 112/259/39 92/292/39 113/260/39
f 113/260/39 92/292/39 89/293/39
f 113/260/39 89/293/39 114/261/39
f 114/261/39 89/293/39 88/294/39
f 114/261/39 88/294/39 115/262/39
f 115/262/39 88/294/39 98/295/39
f 115/262/39 98/295/39 116/263/39
f 116/263/39 98/295/39 99/296/39
f 116/263/39 99/296/39 117/265/39
f 117/265/39 99/296/39 102/297/39
f 117/265/39 102/297/39 118/266/39
f 118/266/39 102/297/39 119/267/39
f 119/267/39 102/297/39 103/298/39
f 119/267/39 103/298/39 120/268/39
f 120/268/39 103/298/39 69/264/39
f 69/264/39 103/298/39 95/299/39
f 69/264/39 95/299/39 68/300/39
f 68/300/39 95/299/39 80/301/39
f 121/304/28 11/303/29 12/302/28
f 11/303/29 121/304/28 105/305/29
f 33/308/34 122/307/33 32/306/33
f 122/307/33 33/308/34 123/309/34
f 124/312/35 12/311/28 16/310/35
f 12/311/28 124/312/35 121/313/28
f 125/316/31 18/315/32 21/314/31
f 18/315/32 125/316/31 126/317/32
f 126/320/32 16/319/35 18/318/32
f 16/319/35 126/320/32 124/321/35
f 127/324/38 24/323/30 27/322/38
f 24/323/30 127/324/38 128/325/30
f 36/328/26 129/327/36 35/326/36
f 129/327/36 36/328/26 130/329/26
f 128/332/30 21/331/31 24/330/30
f 21/331/31 128/332/30 125/333/31
f 31/336/27 130/335/26 36/334/26
f 130/335/26 31/336/27 70/337/27
f 121/290/39 86/338/39 105/289/39
f 86/338/39 121/290/39 85/339/39
f 85/339/39 121/290/39 101/340/39
f 101/340/39 121/290/39 124/291/39
f 101/340/39 124/291/39 87/341/39
f 87/341/39 124/291/39 126/292/39
f 87/341/39 126/292/39 84/342/39
f 84/342/39 126/292/39 125/343/39
f 84/342/39 125/343/39 83/344/39
f 83/344/39 125/343/39 128/294/39
f 83/344/39 128/294/39 97/345/39
f 97/345/39 128/294/39 127/295/39
f 97/345/39 127/295/39 90/346/39
f 90/346/39 127/295/39 122/296/39
f 90/346/39 122/296/39 91/347/39
f 91/347/39 122/296/39 123/348/39
f 91/347/39 123/348/39 106/349/39
f 106/349/39 123/348/39 131/298/39
f 106/349/39 131/298/39 107/350/39
f 107/350/39 131/298/39 129/299/39
f 107/350/39 129/299/39 108/351/39
f 108/351/39 129/299/39 65/352/39
f 65/352/39 129/299/39 130/301/39
f 65/352/39 130/301/39 70/300/39
f 34/355/40 123/354/34 33/353/34
f 123/354/34 34/355/40 131/356/40
f 35/359/36 131/358/40 34/357/40
f 131/358/40 35/359/36 129/360/36
f 32/363/33 127/362/38 27/361/38
f 127/362/38 32/363/33 122/364/33

usemtl water

f 59/202/39 132/33/39 77/201/39
f 132/33/39 59/202/39 48/203/39
f 48/203/39 59/202/39 60/204/39
f 48/203/39 60/204/39 55/205/39
f 48/203/39 55/205/39 56/206/39
f 48/203/39 56/206/39 49/207/39
f 48/203/39 49/207/39 50/208/39
f 48/203/39 50/208/39 54/209/39
f 48/203/39 54/209/39 74/210/39
f 48/203/39 74/210/39 76/211/39
f 48/203/39 76/211/39 38/212/39
f 48/203/39 38/212/39 40/213/39
f 77/201/6 132/33/6 59/202/6
f 48/203/6 59/202/6 132/33/6
f 60/204/6 59/202/6 48/203/6
f 55/205/6 60/204/6 48/203/6
f 56/206/6 55/205/6 48/203/6
f 49/207/6 56/206/6 48/203/6
f 50/208/6 49/207/6 48/203/6
f 54/209/6 50/208/6 48/203/6
f 74/210/6 54/209/6 48/203/6
f 76/211/6 74/210/6 48/203/6
f 38/212/6 76/211/6 48/203/6
f 40/213/6 38/212/6 48/203/6

