# Created by Kenney (www.kenney.nl)

mtllib hedgeCurved.mtl

g hedgeCurved

v 0.5 0 0.5
v 0.5 0 2.021352E-14
v 0.25 0 0.5
v 0.4957224 0 -0.06526309
v 0.4829629 0 -0.1294095
v 0.4619398 0 -0.1913417
v 0.4330127 0 -0.25
v 0.3966767 0 -0.3043807
v 0.3535534 0 -0.3535534
v 0.3043807 0 -0.3966767
v 0.25 0 -0.4330127
v 0.25 0 2.021352E-14
v 0.2478612 0 -0.03263155
v 0.1913417 0 -0.4619398
v 0.2414815 0 -0.06470476
v 0.2309699 0 -0.09567086
v 0.2165064 0 -0.125
v 0.1983383 0 -0.1521904
v 0.1767767 0 -0.1767767
v 0.1294095 0 -0.4829629
v 0.1521904 0 -0.1983383
v 0.125 0 -0.2165064
v 0.06526309 0 -0.4957224
v 0.09567086 0 -0.2309699
v 0.06470476 0 -0.2414815
v 3.465175E-14 0 -0.5
v 0.03263155 0 -0.2478612
v 1.443823E-14 0 -0.25
v -0.5 0 -0.5
v -0.5 0 -0.25
v 0.25 0.1 -0.4330127
v 0.3043807 0.1 -0.3966767
v 0.1913417 0.1 -0.4619398
v 0.1294095 0.1 -0.4829629
v 3.465175E-14 0.1 -0.5
v 0.06526309 0.1 -0.4957224
v 0.06470476 0.1 -0.2414815
v 0.03263155 0.1 -0.2478612
v 0.09567086 0.1 -0.2309699
v 0.125 0.1 -0.2165064
v 1.443823E-14 0.1 -0.25
v 0.1767767 0.1 -0.1767767
v 0.1983383 0.1 -0.1521904
v 0.1521904 0.1 -0.1983383
v 0.2165064 0.1 -0.125
v 0.2309699 0.1 -0.09567086
v 0.270633 0.1 -0.15625
v 0.25 0.1 2.021352E-14
v 0.2479229 0.1 -0.190238
v 0.2478612 0.1 -0.03263155
v 0.2209709 0.1 -0.2209709
v 0.2414815 0.1 -0.06470476
v 0.190238 0.1 -0.2479229
v 0.15625 0.1 -0.270633
v 0.1195886 0.1 -0.2887124
v 0.08088095 0.1 -0.3018518
v 0.04078943 0.1 -0.3098265
v 2.021352E-14 0.1 -0.3125
v -0.5 0.1 -0.3125
v -0.5 0.1 -0.25
v 0.3125 0.1 2.021352E-14
v 0.3125 0.1 0.5
v 0.3098265 0.1 -0.04078943
v 0.25 0.1 0.5
v 0.3018518 0.1 -0.08088095
v 0.2887124 0.1 -0.1195886
v 0.4957224 0.1 -0.06526309
v 0.5 0.1 2.021352E-14
v 0.4619398 0.1 -0.1913417
v 0.4829629 0.1 -0.1294095
v 0.3966767 0.1 -0.3043807
v 0.4330127 0.1 -0.25
v 0.4375 0.1 2.021352E-14
v 0.4337572 0.1 -0.05710521
v 0.4225926 0.1 -0.1132333
v 0.4041973 0.1 -0.167424
v 0.3788861 0.1 -0.21875
v 0.3535534 0.1 -0.3535534
v 0.3470921 0.1 -0.2663331
v 0.3093592 0.1 -0.3093592
v 0.2663331 0.1 -0.3470921
v 0.21875 0.1 -0.3788861
v 0.167424 0.1 -0.4041973
v 0.1132333 0.1 -0.4225926
v 0.05710521 0.1 -0.4337572
v 3.17641E-14 0.1 -0.4375
v -0.5 0.1 -0.5
v -0.5 0.1 -0.4375
v 0.5 0.1 0.5
v 0.4375 0.1 0.5
v 2.021352E-14 0.22 -0.3125
v -0.5 0.22 -0.3125
v 3.17641E-14 0.22 -0.4375
v 2.887646E-14 0.25 -0.4075
v -0.5 0.22 -0.4375
v -0.5 0.25 -0.4075
v 2.310117E-14 0.25 -0.3425
v -0.5 0.25 -0.3425
v 0.4375 0.22 0.5
v 0.3125 0.22 0.5
v 0.4075 0.25 0.5
v 0.3425 0.25 0.5
v 0.4375 0.22 2.021352E-14
v 0.3125 0.22 2.021352E-14
v 0.3425 0.25 2.021352E-14
v 0.4075 0.25 2.021352E-14
v 0.4225926 0.22 -0.1132333
v 0.4337572 0.22 -0.05710521
v 0.3788861 0.22 -0.21875
v 0.4041973 0.22 -0.167424
v 0.2209709 0.22 -0.2209709
v 0.190238 0.22 -0.2479229
v 0.3018518 0.22 -0.08088095
v 0.3098265 0.22 -0.04078943
v 0.3470921 0.22 -0.2663331
v 0.2479229 0.22 -0.190238
v 0.08088095 0.22 -0.3018518
v 0.04078943 0.22 -0.3098265
v 0.1132333 0.22 -0.4225926
v 0.167424 0.22 -0.4041973
v 0.3093592 0.22 -0.3093592
v 0.2663331 0.22 -0.3470921
v 0.1195886 0.22 -0.2887124
v 0.21875 0.22 -0.3788861
v 0.15625 0.22 -0.270633
v 0.270633 0.22 -0.15625
v 0.2887124 0.22 -0.1195886
v 0.05710521 0.22 -0.4337572
v 0.3395699 0.25 -0.04470522
v 0.3529053 0.25 -0.20375
v 0.3232915 0.25 -0.2480703
v 0.3308296 0.25 -0.08864552
v 0.3164288 0.25 -0.1310691
v 0.288146 0.25 -0.288146
v 0.2966137 0.25 -0.17125
v 0.2717235 0.25 -0.2085008
v 0.2480703 0.25 -0.3232915
v 0.2421841 0.25 -0.2421841
v 0.20375 0.25 -0.3529053
v 0.2085008 0.25 -0.2717235
v 0.17125 0.25 -0.2966137
v 0.1559435 0.25 -0.3764809
v 0.1310691 0.25 -0.3164288
v 0.1054688 0.25 -0.3936148
v 0.08864552 0.25 -0.3308296
v 0.05318942 0.25 -0.4040138
v 0.04470522 0.25 -0.3395699
v 0.4040138 0.25 -0.05318942
v 0.3936148 0.25 -0.1054688
v 0.3764809 0.25 -0.1559435

vn 0 -1 0
vn 0.5 0 -0.8660254
vn 0.6087614 0 -0.7933533
vn 0.3826834 0 -0.9238795
vn 0.258819 0 -0.9659258
vn 0.03271909 0 -0.9994646
vn 0.1305262 0 -0.9914449
vn -0.258819 0 0.9659258
vn -0.1305262 0 0.9914449
vn -0.3826834 0 0.9238795
vn -0.5 0 0.8660254
vn -0.03271909 0 0.9994646
vn -0.7071068 0 0.7071068
vn -0.7933533 0 0.6087614
vn -0.6087614 0 0.7933533
vn -0.8660254 0 0.5
vn -0.9238795 0 0.3826834
vn 0 1 0
vn -0.9659258 0 0.258819
vn -0.9914449 0 0.1305262
vn -0.9994646 0 0.03271909
vn 0.9914449 0 -0.1305262
vn 0.9994646 0 -0.03271909
vn 0.9238795 0 -0.3826834
vn 0.9659258 0 -0.258819
vn 0.7933533 0 -0.6087614
vn 0.8660254 0 -0.5
vn 0.7071068 0 -0.7071068
vn -1 0 0
vn 1 0 0
vn 0 0 1
vn 0 0 -1
vn 0.0228084 0.7069228 -0.7069228
vn 0.0234905 0.7069116 -0.7069116
vn 0 0.7071068 -0.7071068
vn -0.0234905 0.7069116 0.7069116
vn 0 0.7071068 0.7071068
vn -0.0228084 0.7069228 0.7069228
vn -0.7069116 0.7069116 0.0234905
vn -0.7069228 0.7069228 0.0228084
vn -0.7071068 0.7071068 0
vn 0.7069228 0.7069228 -0.0228084
vn 0.7071068 0.7071068 0
vn 0.7069116 0.7069116 -0.0234905
vn 0.7010574 0.7071068 -0.09229595
vn 0.6830127 0.7071068 -0.1830127
vn 0.6532815 0.7071068 -0.2705981
vn 0.6123725 0.7071068 -0.3535534
vn 0.5609855 0.7071068 -0.4304593
vn 0.5 0.7071068 -0.5
vn 0.4304593 0.7071068 -0.5609855
vn 0.3535534 0.7071068 -0.6123725
vn 0.2705981 0.7071068 -0.6532815
vn 0.1830127 0.7071068 -0.6830127
vn 0.09229595 0.7071068 -0.7010574
vn -0.09229595 0.7071068 0.7010574
vn -0.1830127 0.7071068 0.6830127
vn -0.2705981 0.7071068 0.6532815
vn -0.3535534 0.7071068 0.6123725
vn -0.4304593 0.7071068 0.5609855
vn -0.5 0.7071068 0.5
vn -0.5609855 0.7071068 0.4304593
vn -0.6123725 0.7071068 0.3535534
vn -0.6532815 0.7071068 0.2705981
vn -0.6830127 0.7071068 0.1830127
vn -0.7010574 0.7071068 0.09229595

vt 19.68504 19.68504
vt 19.68504 7.958079E-13
vt 9.84252 19.68504
vt 19.51663 -2.569413
vt 19.01429 -5.094863
vt 18.18661 -7.533138
vt 17.04774 -9.84252
vt 15.61719 -11.98349
vt 13.91943 -13.91943
vt 11.98349 -15.61719
vt 9.84252 -17.04774
vt 9.84252 7.958079E-13
vt 9.758316 -1.284707
vt 7.533138 -18.18661
vt 9.507144 -2.547431
vt 9.093303 -3.766569
vt 8.523872 -4.92126
vt 7.808596 -5.991746
vt 6.959713 -6.959713
vt 5.094863 -19.01429
vt 5.991746 -7.808596
vt 4.92126 -8.523872
vt 2.569413 -19.51663
vt 3.766569 -9.093303
vt 2.547431 -9.507144
vt 1.364242E-12 -19.68504
vt 1.284707 -9.758316
vt 5.684342E-13 -9.84252
vt -19.68504 -19.68504
vt -19.68504 -9.84252
vt 1.287463 0
vt -1.287463 0
vt 1.287463 3.937008
vt -1.287463 3.937008
vt 0.6437316 0
vt -0.6437316 0
vt 0.6437316 3.937008
vt -0.6437316 3.937008
vt -10.65484 -6.151575
vt -9.84252 7.958079E-13
vt -9.760745 -7.489683
vt -9.758316 -1.284707
vt -8.69964 -8.69964
vt -9.507144 -2.547431
vt -9.093303 -3.766569
vt -8.523872 -4.92126
vt -7.489683 -9.760745
vt -7.808596 -5.991746
vt -6.959713 -6.959713
vt -6.151575 -10.65484
vt -5.991746 -7.808596
vt -4.708211 -11.36663
vt -4.92126 -8.523872
vt -3.766569 -9.093303
vt -3.184289 -11.88393
vt -2.547431 -9.507144
vt -1.605883 -12.19789
vt -1.284707 -9.758316
vt -7.958079E-13 -12.30315
vt -5.684342E-13 -9.84252
vt 19.68504 -12.30315
vt 19.68504 -9.84252
vt -12.30315 7.958079E-13
vt -12.30315 19.68504
vt -12.19789 -1.605883
vt -9.84252 19.68504
vt -11.88393 -3.184289
vt -11.36663 -4.708211
vt -18.18661 -7.533138
vt -17.22441 7.958079E-13
vt -17.04774 -9.84252
vt -17.07705 -2.248237
vt -16.6375 -4.458005
vt -15.61719 -11.98349
vt -15.91328 -6.591496
vt -14.91678 -8.612205
vt -13.91943 -13.91943
vt -13.66504 -10.48556
vt -11.98349 -15.61719
vt -12.1795 -12.1795
vt -10.48556 -13.66504
vt -9.84252 -17.04774
vt -8.612205 -14.91678
vt -7.533138 -18.18661
vt -6.591496 -15.91328
vt -5.094863 -19.01429
vt -4.458005 -16.6375
vt -2.569413 -19.51663
vt -2.248237 -17.07705
vt -1.364242E-12 -19.68504
vt -1.250555E-12 -17.22441
vt 19.68504 -19.68504
vt 19.68504 -17.22441
vt -19.68504 7.958079E-13
vt -19.68504 19.68504
vt -19.51663 -2.569413
vt -17.22441 19.68504
vt -19.01429 -5.094863
vt 7.958079E-13 0
vt 7.958079E-13 3.937008
vt 19.68504 0
vt 19.68504 3.937008
vt -7.958079E-13 3.937008
vt -7.958079E-13 0
vt -19.68504 3.937008
vt -19.68504 0
vt 9.84252 0
vt 9.84252 3.937008
vt 17.22441 3.937008
vt 12.30315 3.937008
vt -2.557954E-13 0
vt -2.557954E-13 3.937008
vt 2.842171E-13 0
vt 2.842171E-13 3.937008
vt -9.84252 0
vt -17.22441 3.937008
vt -12.30315 3.937008
vt -9.84252 3.937008
vt -2.344791E-13 3.937008
vt -2.344791E-13 8.661417
vt -19.68504 8.661417
vt 1.918294E-13 -6.05495
vt 2.066099E-13 -4.384619
vt 19.68504 -6.05495
vt 19.68504 -4.384619
vt -2.344951E-13 14.82419
vt -19.68504 14.82419
vt -2.197173E-13 16.49452
vt -19.68504 16.49452
vt 17.22441 8.661417
vt 12.30315 8.661417
vt 16.04331 9.84252
vt 13.48425 9.84252
vt -7.958079E-13 8.661417
vt 7.958079E-13 14.82419
vt 7.958079E-13 16.49452
vt 19.68504 14.82419
vt 19.68504 16.49452
vt -7.958079E-13 -6.05495
vt -19.68504 -6.05495
vt -7.958079E-13 -4.384619
vt -19.68504 -4.384619
vt 7.958079E-13 8.661417
vt 19.68504 8.661417
vt -17.22441 8.661417
vt -16.04331 9.84252
vt -13.48425 9.84252
vt -12.30315 8.661417
vt 1.918465E-13 3.937008
vt 1.918465E-13 8.661417
vt 1.12653 8.661417
vt 1.12653 3.937008
vt -1.12653 8.661417
vt -1.12653 3.937008
vt 0.8046645 3.937008
vt -0.8046645 3.937008
vt 0.8046645 8.661417
vt -0.8046645 8.661417
vt -13.48425 7.958079E-13
vt -13.36889 -1.760048
vt -13.89391 -8.021653
vt -12.72801 -9.766546
vt -13.02479 -3.489981
vt -12.45782 -5.1602
vt -11.34433 -11.34433
vt -11.6777 -6.742126
vt -10.69778 -8.208693
vt -9.766546 -12.72801
vt -9.534806 -9.534806
vt -8.021653 -13.89391
vt -8.208693 -10.69778
vt -6.742126 -11.6777
vt -6.139508 -14.82208
vt -5.1602 -12.45782
vt -4.152313 -15.49664
vt -3.489981 -13.02479
vt -2.094072 -15.90605
vt -1.760048 -13.36889
vt -1.136868E-12 -16.04331
vt -9.094947E-13 -13.48425
vt 19.68504 -16.04331
vt 19.68504 -13.48425
vt -16.04331 7.958079E-13
vt -16.04331 19.68504
vt -15.90605 -2.094072
vt -13.48425 19.68504
vt -15.49664 -4.152313
vt -14.82208 -6.139508
vt 1.12653 -6.009281
vt -1.12653 -6.009281
vt 1.049282 -4.340737
vt -1.049282 -4.340737
vt 0.8819123 16.47136
vt 0.8046645 14.80281
vt -0.8819123 16.47136
vt -0.8046645 14.80281

usemtl stone

f 3/3/1 2/2/1 1/1/1
f 2/2/1 3/3/1 4/4/1
f 4/4/1 3/3/1 5/5/1
f 5/5/1 3/3/1 6/6/1
f 6/6/1 3/3/1 7/7/1
f 7/7/1 3/3/1 8/8/1
f 8/8/1 3/3/1 9/9/1
f 9/9/1 3/3/1 10/10/1
f 10/10/1 3/3/1 11/11/1
f 11/11/1 3/3/1 12/12/1
f 11/11/1 12/12/1 13/13/1
f 11/11/1 13/13/1 14/14/1
f 14/14/1 13/13/1 15/15/1
f 14/14/1 15/15/1 16/16/1
f 14/14/1 16/16/1 17/17/1
f 14/14/1 17/17/1 18/18/1
f 14/14/1 18/18/1 19/19/1
f 14/14/1 19/19/1 20/20/1
f 20/20/1 19/19/1 21/21/1
f 20/20/1 21/21/1 22/22/1
f 20/20/1 22/22/1 23/23/1
f 23/23/1 22/22/1 24/24/1
f 23/23/1 24/24/1 25/25/1
f 23/23/1 25/25/1 26/26/1
f 26/26/1 25/25/1 27/27/1
f 26/26/1 27/27/1 28/28/1
f 26/26/1 28/28/1 29/29/1
f 29/29/1 28/28/1 30/30/1
f 31/33/2 10/32/3 11/31/2
f 10/32/3 31/33/2 32/34/3
f 33/33/4 11/32/2 14/31/4
f 11/32/2 33/33/4 31/34/2
f 34/33/5 14/32/4 20/31/5
f 14/32/4 34/33/5 33/34/4
f 35/33/6 23/32/7 26/31/6
f 23/32/7 35/33/6 36/34/7
f 36/33/7 20/32/5 23/31/7
f 20/32/5 36/33/7 34/34/5
f 37/37/8 27/36/9 25/35/8
f 27/36/9 37/37/8 38/38/9
f 39/37/10 25/36/8 24/35/10
f 25/36/8 39/37/10 37/38/8
f 40/37/11 24/36/10 22/35/11
f 24/36/10 40/37/11 39/38/10
f 38/37/9 28/36/12 27/35/9
f 28/36/12 38/37/9 41/38/12
f 18/35/14 42/38/13 19/36/13
f 42/38/13 18/35/14 43/37/14
f 42/37/13 21/36/15 19/35/13
f 21/36/15 42/37/13 44/38/15
f 17/35/16 43/38/14 18/36/14
f 43/38/14 17/35/16 45/37/16
f 44/37/15 22/36/11 21/35/15
f 22/36/11 44/37/15 40/38/11
f 16/35/17 45/38/16 17/36/16
f 45/38/16 16/35/17 46/37/17
f 49/41/18 48/40/18 47/39/18
f 48/40/18 49/41/18 50/42/18
f 50/42/18 49/41/18 51/43/18
f 50/42/18 51/43/18 52/44/18
f 52/44/18 51/43/18 46/45/18
f 46/45/18 51/43/18 45/46/18
f 45/46/18 51/43/18 53/47/18
f 45/46/18 53/47/18 43/48/18
f 43/48/18 53/47/18 42/49/18
f 42/49/18 53/47/18 54/50/18
f 42/49/18 54/50/18 44/51/18
f 44/51/18 54/50/18 55/52/18
f 44/51/18 55/52/18 40/53/18
f 40/53/18 55/52/18 39/54/18
f 39/54/18 55/52/18 56/55/18
f 39/54/18 56/55/18 37/56/18
f 37/56/18 56/55/18 57/57/18
f 37/56/18 57/57/18 38/58/18
f 38/58/18 57/57/18 58/59/18
f 38/58/18 58/59/18 41/60/18
f 41/60/18 58/59/18 59/61/18
f 41/60/18 59/61/18 60/62/18
f 63/65/18 62/64/18 61/63/18
f 62/64/18 63/65/18 64/66/18
f 64/66/18 63/65/18 65/67/18
f 64/66/18 65/67/18 66/68/18
f 64/66/18 66/68/18 47/39/18
f 64/66/18 47/39/18 48/40/18
f 15/35/19 46/38/17 16/36/17
f 46/38/17 15/35/19 52/37/19
f 12/35/21 50/38/20 13/36/20
f 50/38/20 12/35/21 48/37/21
f 13/35/20 52/38/19 15/36/19
f 52/38/19 13/35/20 50/37/20
f 68/34/23 4/31/22 67/33/22
f 4/31/22 68/34/23 2/32/23
f 70/34/25 6/31/24 69/33/24
f 6/31/24 70/34/25 5/32/25
f 72/34/27 8/31/26 71/33/26
f 8/31/26 72/34/27 7/32/27
f 69/34/24 7/31/27 72/33/27
f 7/31/27 69/34/24 6/32/24
f 72/71/18 73/70/18 69/69/18
f 73/70/18 72/71/18 74/72/18
f 74/72/18 72/71/18 75/73/18
f 75/73/18 72/71/18 71/74/18
f 75/73/18 71/74/18 76/75/18
f 76/75/18 71/74/18 77/76/18
f 77/76/18 71/74/18 78/77/18
f 77/76/18 78/77/18 79/78/18
f 79/78/18 78/77/18 32/79/18
f 79/78/18 32/79/18 80/80/18
f 80/80/18 32/79/18 81/81/18
f 81/81/18 32/79/18 31/82/18
f 81/81/18 31/82/18 82/83/18
f 82/83/18 31/82/18 33/84/18
f 82/83/18 33/84/18 83/85/18
f 83/85/18 33/84/18 34/86/18
f 83/85/18 34/86/18 84/87/18
f 84/87/18 34/86/18 36/88/18
f 84/87/18 36/88/18 85/89/18
f 85/89/18 36/88/18 35/90/18
f 85/89/18 35/90/18 86/91/18
f 86/91/18 35/90/18 87/92/18
f 86/91/18 87/92/18 88/93/18
f 67/96/18 89/95/18 68/94/18
f 89/95/18 67/96/18 90/97/18
f 90/97/18 67/96/18 70/98/18
f 90/97/18 70/98/18 69/69/18
f 90/97/18 69/69/18 73/70/18
f 67/34/22 5/31/25 70/33/25
f 5/31/25 67/34/22 4/32/22
f 71/34/26 9/31/28 78/33/28
f 9/31/28 71/34/26 8/32/26
f 32/33/3 9/32/28 10/31/3
f 9/32/28 32/33/3 78/34/28
f 3/101/29 48/100/21 12/99/21
f 48/100/21 3/101/29 64/102/29
f 89/105/30 2/104/23 68/103/23
f 2/104/23 89/105/30 1/106/30
f 89/102/31 3/107/31 1/101/31
f 3/107/31 89/102/31 64/108/31
f 64/108/31 89/102/31 90/109/31
f 64/108/31 90/109/31 62/110/31
f 41/112/12 30/106/31 28/111/12
f 30/106/31 41/112/12 60/105/31
f 87/102/32 26/113/6 29/101/32
f 26/113/6 87/102/32 35/114/6
f 30/115/29 87/105/29 29/106/29
f 87/105/29 30/115/29 88/116/29
f 88/116/29 30/115/29 59/117/29
f 59/117/29 30/115/29 60/118/29

usemtl foliage

f 91/120/12 59/105/31 58/119/12
f 59/105/31 91/120/12 92/121/31
f 95/124/35 94/123/34 93/122/33
f 94/123/34 95/124/35 96/125/35
f 97/128/38 92/127/37 91/126/36
f 92/127/37 97/128/38 98/129/37
f 99/130/31 62/110/31 90/109/31
f 62/110/31 99/130/31 100/131/31
f 100/131/31 99/130/31 101/132/31
f 100/131/31 101/132/31 102/133/31
f 99/121/30 73/103/23 103/134/23
f 73/103/23 99/121/30 90/105/30
f 100/137/41 105/136/40 104/135/39
f 105/136/40 100/137/41 102/138/41
f 106/141/44 99/140/43 103/139/42
f 99/140/43 106/141/44 101/142/43
f 62/102/29 104/143/21 61/100/21
f 104/143/21 62/102/29 100/144/29
f 59/117/29 95/145/29 88/116/29
f 95/145/29 59/117/29 96/146/29
f 96/146/29 59/117/29 98/147/29
f 98/147/29 59/117/29 92/148/29
f 95/144/32 86/149/6 88/102/32
f 86/149/6 95/144/32 93/150/6
f 108/153/22 75/152/25 107/151/25
f 75/152/25 108/153/22 74/154/22
f 110/153/24 77/152/27 109/151/27
f 77/152/27 110/153/24 76/154/24
f 111/157/13 53/156/15 51/155/13
f 53/156/15 111/157/13 112/158/15
f 63/155/20 113/158/19 65/156/19
f 113/158/19 63/155/20 114/157/20
f 109/153/27 79/152/26 115/151/26
f 79/152/26 109/153/27 77/154/27
f 49/155/14 111/158/13 51/156/13
f 111/158/13 49/155/14 116/157/14
f 117/157/8 57/156/9 56/155/8
f 57/156/9 117/157/8 118/158/9
f 119/151/5 83/154/4 84/152/5
f 83/154/4 119/151/5 120/153/4
f 118/157/9 58/156/12 57/155/9
f 58/156/12 118/157/9 91/158/12
f 107/153/25 76/152/24 110/151/24
f 76/152/24 107/153/25 75/154/25
f 103/153/23 74/152/22 108/151/22
f 74/152/22 103/153/23 73/154/23
f 115/153/26 80/152/28 121/151/28
f 80/152/28 115/153/26 79/154/26
f 122/151/3 80/154/28 81/152/3
f 80/154/28 122/151/3 121/153/28
f 123/157/10 56/156/8 55/155/10
f 56/156/8 123/157/10 117/158/8
f 120/151/4 82/154/2 83/152/4
f 82/154/2 120/151/4 124/153/2
f 125/157/11 55/156/10 54/155/11
f 55/156/10 125/157/11 123/158/10
f 47/155/16 116/158/14 49/156/14
f 116/158/14 47/155/16 126/157/16
f 112/157/15 54/156/11 53/155/15
f 54/156/11 112/157/15 125/158/11
f 124/151/2 81/154/3 82/152/2
f 81/154/3 124/151/2 122/153/3
f 66/155/17 126/158/16 47/156/16
f 126/158/16 66/155/17 127/157/17
f 65/155/19 127/158/17 66/156/17
f 127/158/17 65/155/19 113/157/19
f 128/151/7 84/154/5 85/152/7
f 84/154/5 128/151/7 119/153/5
f 61/155/21 114/158/20 63/156/20
f 114/158/20 61/155/21 104/157/21
f 93/151/6 85/154/7 86/152/6
f 85/154/7 93/151/6 128/153/7
f 130/161/18 129/160/18 105/159/18
f 129/160/18 130/161/18 131/162/18
f 129/160/18 131/162/18 132/163/18
f 132/163/18 131/162/18 133/164/18
f 133/164/18 131/162/18 134/165/18
f 133/164/18 134/165/18 135/166/18
f 135/166/18 134/165/18 136/167/18
f 136/167/18 134/165/18 137/168/18
f 136/167/18 137/168/18 138/169/18
f 138/169/18 137/168/18 139/170/18
f 138/169/18 139/170/18 140/171/18
f 140/171/18 139/170/18 141/172/18
f 141/172/18 139/170/18 142/173/18
f 141/172/18 142/173/18 143/174/18
f 143/174/18 142/173/18 144/175/18
f 143/174/18 144/175/18 145/176/18
f 145/176/18 144/175/18 146/177/18
f 145/176/18 146/177/18 147/178/18
f 147/178/18 146/177/18 94/179/18
f 147/178/18 94/179/18 97/180/18
f 97/180/18 94/179/18 96/181/18
f 97/180/18 96/181/18 98/182/18
f 148/185/18 101/184/18 106/183/18
f 101/184/18 148/185/18 102/186/18
f 102/186/18 148/185/18 149/187/18
f 102/186/18 149/187/18 150/188/18
f 102/186/18 150/188/18 130/161/18
f 102/186/18 130/161/18 105/159/18
f 148/191/45 103/190/42 108/189/45
f 103/190/42 148/191/45 106/192/44
f 107/189/46 148/192/45 108/190/45
f 148/192/45 107/189/46 149/191/46
f 110/189/47 149/192/46 107/190/46
f 149/192/46 110/189/47 150/191/47
f 109/189/48 150/192/47 110/190/47
f 150/192/47 109/189/48 130/191/48
f 115/189/49 130/192/48 109/190/48
f 130/192/48 115/189/49 131/191/49
f 121/189/50 131/192/49 115/190/49
f 131/192/49 121/189/50 134/191/50
f 122/189/51 134/192/50 121/190/50
f 134/192/50 122/189/51 137/191/51
f 124/189/52 137/192/51 122/190/51
f 137/192/51 124/189/52 139/191/52
f 120/189/53 139/192/52 124/190/52
f 139/192/52 120/189/53 142/191/53
f 119/189/54 142/192/53 120/190/53
f 142/192/53 119/189/54 144/191/54
f 128/189/55 144/192/54 119/190/54
f 144/192/54 128/189/55 146/191/55
f 94/191/34 128/190/55 93/189/33
f 128/190/55 94/191/34 146/192/55
f 97/195/38 118/194/56 147/193/56
f 118/194/56 97/195/38 91/196/36
f 147/195/56 117/194/57 145/193/57
f 117/194/57 147/195/56 118/196/56
f 145/195/57 123/194/58 143/193/58
f 123/194/58 145/195/57 117/196/57
f 143/195/58 125/194/59 141/193/59
f 125/194/59 143/195/58 123/196/58
f 141/195/59 112/194/60 140/193/60
f 112/194/60 141/195/59 125/196/59
f 140/195/60 111/194/61 138/193/61
f 111/194/61 140/195/60 112/196/60
f 138/195/61 116/194/62 136/193/62
f 116/194/62 138/195/61 111/196/61
f 136/195/62 126/194/63 135/193/63
f 126/194/63 136/195/62 116/196/62
f 135/195/63 127/194/64 133/193/64
f 127/194/64 135/195/63 126/196/63
f 133/195/64 113/194/65 132/193/65
f 113/194/65 133/195/64 127/196/64
f 129/195/66 104/194/39 105/193/40
f 104/194/39 129/195/66 114/196/66
f 132/195/65 114/194/66 129/193/66
f 114/194/66 132/195/65 113/196/65

