# Created by Kenney (www.kenney.nl)

mtllib roadCorner.mtl

g roadCorner

v 0.5 0.05 0.035
v 0.4301685 0.05 0.030423
v 0.5 0.05 -0.5
v -0.035 0.05 -0.5
v 0.3615318 0.05 0.01677032
v 0.2952644 0.05 -0.00572445
v 0.2325 0.05 -0.03667641
v 0.1743126 0.05 -0.07555596
v 0.1216979 0.05 -0.1216979
v 0.07555596 0.05 -0.1743126
v 0.03667641 0.05 -0.2325
v 0.00572445 0.05 -0.2952644
v -0.01677032 0.05 -0.3615318
v -0.030423 0.05 -0.4301685
v 0.2608229 0.025 0.07742471
v 0.1875 0.025 0.04126588
v 0.3382381 0.025 0.1037036
v -0.119653 0.025 -0.4184211
v -0.125 0.025 -0.5
v -0.1037036 0.025 -0.3382381
v -0.07742471 0.025 -0.2608229
v -0.04126588 0.025 -0.1875
v 0.1195241 0.025 -0.004154162
v 0.5 0.025 0.125
v 0.4184211 0.025 0.119653
v 0.05805826 0.025 -0.05805826
v 0.004154162 0.025 -0.1195241
v 0.5 1.271649E-18 -0.5
v 0.5 0 0.125
v 0.5 0.0125 0.125
v -0.125 1.456095E-18 -0.5
v -0.125 0.0125 -0.5
v 0.4184211 0.0125 0.119653
v 0.3382381 0.0125 0.1037036
v 0.2608229 0.0125 0.07742471
v 0.1875 0.0125 0.04126588
v 0.1195241 0.0125 -0.004154162
v 0.05805826 0.0125 -0.05805826
v 0.004154162 0.0125 -0.1195241
v -0.04126588 0.0125 -0.1875
v -0.07742471 0.0125 -0.2608229
v -0.1037036 0.0125 -0.3382381
v -0.119653 0.0125 -0.4184211
v -0.5 1.599552E-18 -0.5
v -0.5 0.025 -0.5
v -0.5 1.599552E-18 0.5
v -0.5 0.025 0.5
v 0.5 1.384366E-18 0.1481861
v 0.5 1.384366E-18 0.1381861
v 0.5 1.435601E-18 0.5
v -0.215 0.0125 -0.5
v -0.215 0.025 -0.5
v 0.5 0.025 0.5
v 0.5 0.025 0.215
v 0.4066738 0.025 0.2088831
v 0.3149444 0.025 0.190637
v 0.2263813 0.025 0.1605739
v 0.1425 0.025 0.1192082
v 0.06473558 0.025 0.06724764
v -0.005581348 0.025 0.005581348
v -0.06724764 0.025 -0.06473558
v -0.1192082 0.025 -0.1425
v -0.1605739 0.025 -0.2263813
v -0.190637 0.025 -0.3149444
v -0.2088831 0.025 -0.4066738
v 0.5 0.0125 0.215
v 0.4066738 0.0125 0.2088831
v 0.3149444 0.0125 0.190637
v 0.2263813 0.0125 0.1605739
v 0.1425 0.0125 0.1192082
v 0.06473558 0.0125 0.06724764
v -0.005581348 0.0125 0.005581348
v -0.06724764 0.0125 -0.06473558
v -0.1192082 0.0125 -0.1425
v -0.1605739 0.0125 -0.2263813
v -0.190637 0.0125 -0.3149444
v -0.2088831 0.0125 -0.4066738

vn -0.009213432 0.990028 0.1405698
vn -0.01834882 0.9900699 0.1393731
vn 0 1 0
vn -0.1405698 0.990028 0.009213432
vn -0.03638368 0.9900699 0.1357858
vn -0.05379601 0.9900699 0.1298751
vn -0.07028788 0.9900699 0.1217422
vn -0.0855771 0.9900699 0.1115263
vn -0.09940208 0.9900699 0.09940208
vn -0.1115263 0.9900699 0.0855771
vn -0.1217422 0.9900699 0.07028788
vn -0.1298751 0.9900699 0.05379601
vn -0.1357858 0.9900699 0.03638368
vn -0.1393731 0.9900699 0.01834882
vn -0.1024229 0.963518 0.2472707
vn -0.1338219 0.963518 0.2317864
vn -0.06927133 0.963518 0.2585241
vn -0.2653541 0.963518 0.03493454
vn -0.2676027 0.9633697 0.01753961
vn -0.2585241 0.963518 0.06927133
vn -0.2472707 0.963518 0.1024229
vn -0.2317864 0.963518 0.1338219
vn -0.1629313 0.963518 0.2123362
vn -0.01753961 0.9633697 0.2676027
vn -0.03493454 0.963518 0.2653541
vn -0.1892528 0.963518 0.1892528
vn -0.2123362 0.963518 0.1629313
vn 1 0 0
vn 0 0 -1
vn -0.1305262 0 0.9914449
vn -0.06540313 0 0.9978589
vn -0.258819 0 0.9659258
vn -0.3826834 0 0.9238795
vn -0.5 0 0.8660254
vn -0.6087614 0 0.7933533
vn -0.7071068 0 0.7071068
vn -0.7933533 0 0.6087614
vn -0.8660254 0 0.5
vn -0.9238795 0 0.3826834
vn -0.9659258 0 0.258819
vn -0.9914449 0 0.1305262
vn -0.9978589 0 0.06540313
vn -1 0 0
vn 0 -1 0
vn 0 0 1
vn 0.9978589 0 -0.06540313
vn 0.9914449 0 -0.1305262
vn 0.9659258 0 -0.258819
vn 0.9238795 0 -0.3826834
vn 0.8660254 0 -0.5
vn 0.7933533 0 -0.6087614
vn 0.7071068 0 -0.7071068
vn 0.6087614 0 -0.7933533
vn 0.5 0 -0.8660254
vn 0.3826834 0 -0.9238795
vn 0.258819 0 -0.9659258
vn 0.1305262 0 -0.9914449
vn 0.06540313 0 -0.9978589

vt -19.68504 1.377953
vt -16.93577 1.197756
vt -19.68504 -19.68504
vt 1.377953 -19.68504
vt -14.23354 0.6602487
vt -11.62458 -0.225372
vt -9.153543 -1.443953
vt -6.862702 -2.974644
vt -4.791255 -4.791255
vt -2.974644 -6.862702
vt -1.443953 -9.153543
vt -0.225372 -11.62458
vt 0.6602487 -14.23354
vt 1.197756 -16.93577
vt 10.32609 5.675722
vt 10.55783 2.005563
vt 7.57092 5.675722
vt 7.339176 2.005563
vt 13.69039 4.333228
vt 13.92214 0.6630682
vt 10.93522 4.333228
vt 10.70348 0.6630682
vt -16.97784 0.4435745
vt -16.7461 -3.226585
vt -19.73302 0.4435745
vt -19.96476 -3.226585
vt -14.08885 2.579175
vt -13.85711 -1.090985
vt -16.84402 2.579175
vt -17.07577 -1.090985
vt -10.93522 4.333228
vt -10.70348 0.6630682
vt -13.69039 4.333228
vt -13.92214 0.6630682
vt -7.57092 5.675722
vt -7.339176 2.005563
vt -10.32609 5.675722
vt -10.55783 2.005563
vt 6.808676 6.583687
vt 7.040419 2.913527
vt 4.053504 6.583687
vt 3.821761 2.913527
vt 19.73302 0.4435745
vt 19.96476 -3.226585
vt 16.97784 0.4435745
vt 16.7461 -3.226585
vt -0.4431623 7.041587
vt -0.2114189 3.371427
vt -3.198334 7.041587
vt -3.430077 3.371427
vt 3.198334 7.041587
vt 3.430077 3.371427
vt 0.4431623 7.041587
vt 0.2114189 3.371427
vt -4.053504 6.583687
vt -3.821761 2.913527
vt -6.808676 6.583687
vt -7.040419 2.913527
vt 16.84402 2.579175
vt 17.07577 -1.090985
vt 14.08885 2.579175
vt 13.85711 -1.090985
vt 19.68504 1.968504
vt 19.68504 1.856568E-11
vt -1.377953 1.968504
vt -4.92126 9.893007E-12
vt -4.92126 0.984252
vt -4.92126 0.492126
vt -19.68504 3.406347E-12
vt -19.68504 1.968504
vt 4.92126 5.732656E-17
vt 4.92126 0.492126
vt 4.92126 0.984252
vt 1.377953 1.968504
vt 16.7461 0.492126
vt 16.7461 0.984252
vt 19.96476 0.492126
vt 19.96476 0.984252
vt 13.85711 0.492126
vt 13.85711 0.984252
vt 17.07577 0.492126
vt 17.07577 0.984252
vt 10.70348 0.492126
vt 10.70348 0.984252
vt 13.92214 0.492126
vt 13.92214 0.984252
vt 7.339176 0.492126
vt 7.339176 0.984252
vt 10.55783 0.492126
vt 10.55783 0.984252
vt 3.821761 0.492126
vt 3.821761 0.984252
vt 7.040419 0.492126
vt 7.040419 0.984252
vt 0.2114189 0.492126
vt 0.2114189 0.984252
vt 3.430077 0.492126
vt 3.430077 0.984252
vt -3.430077 0.492126
vt -3.430077 0.984252
vt -0.2114189 0.492126
vt -0.2114189 0.984252
vt -7.040419 0.492126
vt -7.040419 0.984252
vt -3.821761 0.492126
vt -3.821761 0.984252
vt -10.55783 0.492126
vt -10.55783 0.984252
vt -7.339176 0.492126
vt -7.339176 0.984252
vt -13.92214 0.492126
vt -13.92214 0.984252
vt -10.70348 0.492126
vt -10.70348 0.984252
vt -17.07577 0.492126
vt -17.07577 0.984252
vt -13.85711 0.492126
vt -13.85711 0.984252
vt -19.96476 0.492126
vt -19.96476 0.984252
vt -16.7461 0.492126
vt -16.7461 0.984252
vt -19.68504 5.813341E-17
vt -19.68504 0.984252
vt 19.68504 5.813341E-17
vt 19.68504 0.984252
vt 19.68504 5.834097
vt 19.68504 5.440397
vt 19.68504 19.68504
vt 19.68504 -19.68504
vt 19.68504 4.92126
vt -19.68504 19.68504
vt -4.92126 -19.68504
vt 19.68504 6.29745E-17
vt 8.464567 0.492126
vt 8.464567 0.984252
vt 19.68504 5.490602E-17
vt -19.68504 6.13608E-17
vt -19.68504 8.464567
vt -16.01078 8.223743
vt -12.39939 7.505393
vt -8.912651 6.321806
vt -5.610236 4.693235
vt -2.548645 2.647545
vt 0.2197381 0.2197381
vt 2.647545 -2.548645
vt 4.693235 -5.610236
vt 6.321806 -8.912651
vt 7.505393 -12.39939
vt 8.223743 -16.01078
vt 8.464567 -19.68504
vt -8.464567 0.984252
vt -8.464567 0.492126
vt -19.68504 9.893064E-12
vt -5.834097 9.893061E-12
vt -5.440397 9.893061E-12
vt -19.68504 4.92126
vt -16.47327 4.71075
vt -13.31646 4.08282
vt -10.26862 3.048217
vt -7.38189 1.624641
vt -4.705674 -0.1635497
vt -2.285758 -2.285758
vt -0.1635497 -4.705674
vt 1.624641 -7.38189
vt 3.048217 -10.26862
vt 4.08282 -13.31646
vt 4.71075 -16.47327
vt 4.92126 -19.68504
vt 20.1965 0.984252
vt 20.1965 0.492126
vt 16.51436 0.984252
vt 16.51436 0.492126
vt 17.30751 0.984252
vt 17.30751 0.492126
vt 13.62536 0.984252
vt 13.62536 0.492126
vt 14.15388 0.984252
vt 14.15388 0.492126
vt 10.47174 0.984252
vt 10.47174 0.492126
vt 10.78958 0.984252
vt 10.78958 0.492126
vt 7.107433 0.984252
vt 7.107433 0.492126
vt 7.272162 0.984252
vt 7.272162 0.492126
vt 3.590018 0.984252
vt 3.590018 0.492126
vt 3.66182 0.984252
vt 3.66182 0.492126
vt -0.02032446 0.984252
vt -0.02032446 0.492126
vt 0.02032446 0.492126
vt -3.66182 0.492126
vt 0.02032446 0.984252
vt -3.66182 0.984252
vt -3.590018 0.492126
vt -7.272162 0.492126
vt -3.590018 0.984252
vt -7.272162 0.984252
vt -7.107433 0.492126
vt -10.78958 0.492126
vt -7.107433 0.984252
vt -10.78958 0.984252
vt -10.47174 0.492126
vt -14.15388 0.492126
vt -10.47174 0.984252
vt -14.15388 0.984252
vt -13.62536 0.492126
vt -17.30751 0.492126
vt -13.62536 0.984252
vt -17.30751 0.984252
vt -16.51436 0.492126
vt -20.1965 0.492126
vt -16.51436 0.984252
vt -20.1965 0.984252

usemtl stoneDark

f 3/3/3 2/2/2 1/1/1
f 2/2/2 3/3/3 4/4/4
f 2/2/2 4/4/4 5/5/5
f 5/5/5 4/4/4 6/6/6
f 6/6/6 4/4/4 7/7/7
f 7/7/7 4/4/4 8/8/8
f 8/8/8 4/4/4 9/9/9
f 9/9/9 4/4/4 10/10/10
f 10/10/10 4/4/4 11/11/11
f 11/11/11 4/4/4 12/12/12
f 12/12/12 4/4/4 13/13/13
f 13/13/13 4/4/4 14/14/14
f 7/17/7 15/16/15 6/15/6
f 15/16/15 7/17/7 16/18/16
f 6/21/6 17/20/17 5/19/5
f 17/20/17 6/21/6 15/22/15
f 4/25/4 18/24/18 14/23/14
f 18/24/18 4/25/4 19/26/19
f 14/29/14 20/28/20 13/27/13
f 20/28/20 14/29/14 18/30/18
f 13/33/13 21/32/21 12/31/12
f 21/32/21 13/33/13 20/34/20
f 12/37/12 22/36/22 11/35/11
f 22/36/22 12/37/12 21/38/21
f 8/41/8 16/40/16 7/39/7
f 16/40/16 8/41/8 23/42/23
f 2/45/2 24/44/24 1/43/1
f 24/44/24 2/45/2 25/46/25
f 10/49/10 26/48/26 9/47/9
f 26/48/26 10/49/10 27/50/27
f 9/53/9 23/52/23 8/51/8
f 23/52/23 9/53/9 26/54/26
f 11/57/11 27/56/27 10/55/10
f 27/56/27 11/57/11 22/58/22
f 5/61/5 25/60/25 2/59/2
f 25/60/25 5/61/5 17/62/17
f 1/65/28 28/64/28 3/63/28
f 28/64/28 1/65/28 29/66/28
f 29/66/28 1/65/28 24/67/28
f 29/66/28 24/67/28 30/68/28
f 31/71/29 3/70/29 28/69/29
f 3/70/29 31/71/29 32/72/29
f 3/70/29 32/72/29 19/73/29
f 3/70/29 19/73/29 4/74/29
f 30/77/31 25/76/30 33/75/30
f 25/76/30 30/77/31 24/78/31
f 33/81/30 17/80/32 34/79/32
f 17/80/32 33/81/30 25/82/30
f 34/85/32 15/84/33 35/83/33
f 15/84/33 34/85/32 17/86/32
f 35/89/33 16/88/34 36/87/34
f 16/88/34 35/89/33 15/90/33
f 36/93/34 23/92/35 37/91/35
f 23/92/35 36/93/34 16/94/34
f 37/97/35 26/96/36 38/95/36
f 26/96/36 37/97/35 23/98/35
f 38/101/36 27/100/37 39/99/37
f 27/100/37 38/101/36 26/102/36
f 39/105/37 22/104/38 40/103/38
f 22/104/38 39/105/37 27/106/37
f 40/109/38 21/108/39 41/107/39
f 21/108/39 40/109/38 22/110/38
f 41/113/39 20/112/40 42/111/40
f 20/112/40 41/113/39 21/114/39
f 42/117/40 18/116/41 43/115/41
f 18/116/41 42/117/40 20/118/40
f 43/121/41 19/120/42 32/119/42
f 19/120/42 43/121/41 18/122/41

usemtl stone

f 46/125/43 45/124/43 44/123/43
f 45/124/43 46/125/43 47/126/43
f 50/129/44 49/128/44 48/127/44
f 28/130/44 49/128/44 50/129/44
f 49/128/44 28/130/44 29/131/44
f 28/130/44 50/129/44 46/132/44
f 28/130/44 46/132/44 31/133/44
f 31/133/44 46/132/44 44/3/44
f 45/126/29 51/135/29 44/134/29
f 51/135/29 45/126/29 52/136/29
f 32/72/29 44/134/29 51/135/29
f 44/134/29 32/72/29 31/71/29
f 53/126/45 46/138/45 50/137/45
f 46/138/45 53/126/45 47/124/45
f 55/140/3 53/132/3 54/139/3
f 53/132/3 55/140/3 47/129/3
f 47/129/3 55/140/3 56/141/3
f 47/129/3 56/141/3 57/142/3
f 47/129/3 57/142/3 58/143/3
f 47/129/3 58/143/3 59/144/3
f 47/129/3 59/144/3 60/145/3
f 47/129/3 60/145/3 61/146/3
f 47/129/3 61/146/3 62/147/3
f 47/129/3 62/147/3 63/148/3
f 47/129/3 63/148/3 64/149/3
f 47/129/3 64/149/3 65/150/3
f 47/129/3 65/150/3 52/151/3
f 47/129/3 52/151/3 45/130/3
f 53/124/28 66/153/28 54/152/28
f 50/154/28 66/153/28 53/124/28
f 48/155/28 66/153/28 50/154/28
f 49/156/28 66/153/28 48/155/28
f 29/66/28 66/153/28 49/156/28
f 66/153/28 29/66/28 30/68/28
f 30/157/3 67/140/3 66/139/3
f 67/140/3 30/157/3 33/158/3
f 67/140/3 33/158/3 34/159/3
f 67/140/3 34/159/3 68/141/3
f 68/141/3 34/159/3 35/160/3
f 68/141/3 35/160/3 69/142/3
f 69/142/3 35/160/3 36/161/3
f 69/142/3 36/161/3 70/143/3
f 70/143/3 36/161/3 37/162/3
f 70/143/3 37/162/3 71/144/3
f 71/144/3 37/162/3 38/163/3
f 71/144/3 38/163/3 72/145/3
f 72/145/3 38/163/3 39/164/3
f 72/145/3 39/164/3 40/165/3
f 72/145/3 40/165/3 73/146/3
f 73/146/3 40/165/3 41/166/3
f 73/146/3 41/166/3 74/147/3
f 74/147/3 41/166/3 42/167/3
f 74/147/3 42/167/3 43/168/3
f 74/147/3 43/168/3 75/148/3
f 75/148/3 43/168/3 32/169/3
f 75/148/3 32/169/3 51/151/3
f 75/148/3 51/151/3 76/149/3
f 76/149/3 51/151/3 77/150/3
f 65/172/47 51/171/46 52/170/46
f 51/171/46 65/172/47 77/173/47
f 64/176/48 77/175/47 65/174/47
f 77/175/47 64/176/48 76/177/48
f 63/180/49 76/179/48 64/178/48
f 76/179/48 63/180/49 75/181/49
f 62/184/50 75/183/49 63/182/49
f 75/183/49 62/184/50 74/185/50
f 61/188/51 74/187/50 62/186/50
f 74/187/50 61/188/51 73/189/51
f 60/192/52 73/191/51 61/190/51
f 73/191/51 60/192/52 72/193/52
f 60/196/52 71/195/53 72/194/52
f 71/195/53 60/196/52 59/197/53
f 59/200/53 70/199/54 71/198/53
f 70/199/54 59/200/53 58/201/54
f 58/204/54 69/203/55 70/202/54
f 69/203/55 58/204/54 57/205/55
f 57/208/55 68/207/56 69/206/55
f 68/207/56 57/208/55 56/209/56
f 56/212/56 67/211/57 68/210/56
f 67/211/57 56/212/56 55/213/57
f 55/216/57 66/215/58 67/214/57
f 66/215/58 55/216/57 54/217/58

