# Created by Kenney (www.kenney.nl)

mtllib road.mtl

g road

v 0.5 0.025 -0.5
v 0.5 0 -0.5
v 0.5 0.025 0.5
v 0.5 0 0.5
v -0.5 0 0.5
v -0.5 0.025 0.5
v -0.5 0 -0.5
v -0.5 0.025 -0.5

vn 1 0 0
vn 0 0 1
vn -1 0 0
vn 0 0 -1
vn 0 1 0
vn 0 -1 0

vt 19.68504 0.984252
vt 19.68504 0
vt -19.68504 0.984252
vt -19.68504 0
vt -19.68504 -19.68504
vt -19.68504 19.68504
vt 19.68504 -19.68504
vt 19.68504 19.68504

usemtl stone

f 3/3/1 2/2/1 1/1/1
f 2/2/1 3/3/1 4/4/1
f 3/1/2 5/4/2 4/2/2
f 5/4/2 3/1/2 6/3/2
f 5/2/3 8/3/3 7/4/3
f 8/3/3 5/2/3 6/1/3
f 8/1/4 2/4/4 7/2/4
f 2/4/4 8/1/4 1/3/4
f 8/7/5 3/6/5 1/5/5
f 3/6/5 8/7/5 6/8/5
f 5/6/6 2/7/6 4/8/6
f 2/7/6 5/6/6 7/5/6

