# Created by Kenney (www.kenney.nl)

mtllib roadEdge.mtl

g roadEdge

v -0.5 1.639515E-19 -0.5
v -0.5 0.025 -0.5
v -0.5 1.639515E-19 0.5
v -0.5 0.025 0.5
v -0.125 8.197577E-20 0.5
v -0.125 0 -0.5
v -0.215 0.025 -0.5
v -0.215 0.025 0.5
v -0.125 0.0125 0.5
v -0.215 0.0125 0.5
v -0.215 0.0125 -0.5
v -0.125 0.0125 -0.5
v 0.5 1.639515E-19 -0.5
v 0.5 0.05 -0.5
v -0.125 0.025 -0.5
v -0.035 0.05 -0.5
v 0.5 1.639515E-19 0.5
v 0.5 0.05 0.5
v -0.035 0.05 0.5
v -0.125 0.025 0.5

vn -1 0 0
vn 0 -1 0
vn 0 1 0
vn 0 0 1
vn 0 0 -1
vn 1 0 0
vn -0.1350594 0.9908375 0
vn -0.2676439 0.963518 0

vt -19.68504 6.454785E-18
vt -19.68504 0.984252
vt 19.68504 6.454785E-18
vt 19.68504 0.984252
vt -4.92126 19.68504
vt -4.92126 -19.68504
vt -19.68504 19.68504
vt -19.68504 -19.68504
vt 8.464567 -19.68504
vt 8.464567 19.68504
vt 19.68504 -19.68504
vt 19.68504 19.68504
vt -4.92126 3.227393E-18
vt -4.92126 0.492126
vt -8.464567 0.492126
vt -8.464567 0.984252
vt 8.464567 0.492126
vt 8.464567 0.984252
vt 4.92126 0.492126
vt 4.92126 0
vt 4.92126 -19.68504
vt 4.92126 19.68504
vt 19.68504 0.492126
vt -19.68504 0.492126
vt -19.68504 1.968504
vt 4.92126 0.984252
vt 1.377953 1.968504
vt 1.377953 -19.68504
vt 1.377953 19.68504
vt -19.68504 -0.8008242
vt 19.68504 -0.8008242
vt -19.68504 -4.478293
vt 19.68504 -4.478293
vt 19.68504 1.968504
vt -4.92126 0.984252
vt -1.377953 1.968504

usemtl stone

f 3/3/1 2/2/1 1/1/1
f 2/2/1 3/3/1 4/4/1
f 3/7/2 6/6/2 5/5/2
f 6/6/2 3/7/2 1/8/2
f 2/11/3 8/10/3 7/9/3
f 8/10/3 2/11/3 4/12/3
f 9/14/4 3/1/4 5/13/4
f 3/1/4 9/14/4 10/15/4
f 3/1/4 10/15/4 4/2/4
f 4/2/4 10/15/4 8/16/4
f 2/4/5 11/17/5 1/3/5
f 11/17/5 2/4/5 7/18/5
f 12/19/5 1/3/5 11/17/5
f 1/3/5 12/19/5 6/20/5
f 11/9/3 9/22/3 12/21/3
f 9/22/3 11/9/3 10/10/3
f 8/2/6 11/23/6 7/4/6
f 11/23/6 8/2/6 10/24/6

usemtl stoneDark

f 12/19/5 13/1/5 6/20/5
f 13/1/5 12/19/5 14/25/5
f 14/25/5 12/19/5 15/26/5
f 14/25/5 15/26/5 16/27/5
f 5/5/2 13/11/2 17/12/2
f 13/11/2 5/5/2 6/6/2
f 16/28/7 18/7/3 14/8/3
f 18/7/3 16/28/7 19/29/7
f 15/32/8 19/31/7 16/30/7
f 19/31/7 15/32/8 20/33/8
f 18/25/6 13/3/6 14/34/6
f 13/3/6 18/25/6 17/1/6
f 17/3/4 9/14/4 5/13/4
f 9/14/4 17/3/4 18/34/4
f 9/14/4 18/34/4 20/35/4
f 20/35/4 18/34/4 19/36/4
f 9/23/1 15/2/1 12/24/1
f 15/2/1 9/23/1 20/4/1

