# Created by Kenney (www.kenney.nl)

mtllib rockSmall.mtl

g rockSmall

v -0.1977207 0.2056275 -0.3506038
v -0.2681889 0.2056275 -0.1337248
v -0.2909925 0.2056275 -0.3506038
v -0.2948976 0.2056275 -0.04380882
v -0.1855092 0.2056275 0.04754206
v -0.1570868 0.2056275 -0.05300438
v -0.3381544 0.2056275 -0.1837654
v -0.09062924 0.452625 -0.03470546
v -0.1326903 0.452625 0.1140884
v -0.2610097 0 0.1036749
v -0.2944366 0 0.2219248
v -0.2371426 0.1831509 0.2071394
v 0.05745429 0.452625 0.07288353
v 0.05745429 1.02 0.004004643
v -0.164237 1.02 -0.1570635
v 0.3784102 0 -0.1053563
v 0.4709261 0 0.2219248
v 0.2566262 0.452625 -0.07182337
v 0.329334 0.452625 0.1853852
v 0.08824474 0.452625 0.3867204
v -0.03229988 0.452625 0.2860528
v 0.08824474 0 0.5415044
v 0.4093452 0 -0.1278318
v 0.2749348 0 -0.5415044
v -0.1600263 0 -0.5415044
v -0.1833285 0 -0.4697875
v -0.3583742 0 -0.4697875
v -0.4709261 0 -0.07162768
v -0.4380098 0.06208146 -0.08012211
v 0.3634005 0.3599364 -0.1381471
v 0.1232639 1.02 -0.04380882
v 0.194467 1.02 -0.4176772
v 0.2595051 1.02 -0.2175105
v 0.02386728 1.02 -0.4176772
v -0.1115188 1.02 -0.3193135
v -0.1326903 0.3465071 -0.4994387

vn 0 1 0
vn -0.9268758 0.2687978 -0.2620094
vn -0.5849708 0.09774375 0.8051431
vn 0.9268758 0.2687978 -0.2620094
vn -0.6199859 0.2538795 0.7424034
vn 0 -1 0
vn 0.6199859 0.2538795 0.7424034
vn -0.8698902 0.4275792 -0.2459007
vn 0.5849708 0.09774375 0.8051431
vn 0.6058505 0.1077548 0.7882474
vn 0.6651753 0.1370916 0.7339944
vn 0 0.5014654 -0.8651778
vn 0.9450901 0.1118372 -0.3070784
vn 0 0.1205144 -0.9927117
vn -0.9450901 0.1118372 -0.3070784
vn -0.5722171 0.2286281 -0.7875893
vn -0.7696949 0.4535042 0.4493369
vn -0.7180132 0.6597039 0.2219188
vn -0.5856468 0.406471 0.7012841
vn 0.7718507 0.194281 0.6053935

vt 7.784279 -13.8033
vt 10.55862 -5.264757
vt 11.4564 -13.8033
vt 11.61014 -1.724757
vt 7.303514 1.871735
vt 6.184519 -2.086787
vt 13.31317 -7.234857
vt -0.3257799 6.045346
vt -0.3442416 16.14122
vt 3.787861 6.045346
vt 5.743337 16.14122
vt 6.723049 -2.359555
vt 11.56099 -2.359555
vt 10.38725 5.126626
vt 3.516589 17.63761
vt -3.689762 17.63761
vt 1.922652 40.08268
vt -8.865752 40.08268
vt -6.229963 7.866508
vt -11.63665 7.866508
vt -0.06110035 -4.156842
vt -13.4511 -4.156842
vt -0.02726916 14.34393
vt -10.5504 14.34393
vt -12.96591 7.298632
vt -3.474203 15.22521
vt -10.1034 -2.827692
vt -2.26198 2.86943
vt 1.271649 11.26192
vt 3.56808 -1.366357
vt 5.224028 4.491668
vt 16.33188 -3.588984
vt -3.297021 -3.588984
vt 12.4258 14.83453
vt -1.938798 3.865934
vt 6.242692 14.83453
vt 14.89804 -4.147886
vt 16.11595 -5.03275
vt 10.82421 -21.31907
vt 3.474203 21.31907
vt 18.5404 8.737197
vt -6.300246 -21.31907
vt -10.27597 4.081687
vt -11.59199 8.737197
vt -7.217657 -18.49557
vt -14.10922 -18.49557
vt -18.5404 -2.819987
vt 8.63028 -4.719722
vt -10.99862 -4.719722
vt 5.273672 13.70379
vt -7.092537 13.70379
vt -13.96013 -7.956547
vt -10.16642 0.9989507
vt 2.329722 -7.956547
vt -3.340584 0.9989507
vt 1.65539 -5.252773
vt 15.99626 -0.5279276
vt 14.49083 -0.5279276
vt 14.77157 13.71098
vt 9.835894 17.37769
vt 4.939872 39.82277
vt 0.1433714 17.37769
vt 1.737308 39.82277
vt 14.10922 -9.274888
vt 7.217657 -9.274888
vt 11.4564 0.08223241
vt 7.784279 0.08223241
vt 16.93078 -1.88808
vt -0.1936734 -1.88808
vt 13.27327 38.52292
vt 4.987139 38.52292
vt 0.7515257 12.37211
vt -10.21674 -8.563407
vt -4.852909 -1.724757
vt -7.656182 -16.44398
vt -0.9396566 -16.44398
vt -2.26198 0.1576631
vt 6.466023 -6.183602
vt 4.390502 -12.5714
vt 6.300246 -2.569256
vt -10.82421 -2.569256
vt 5.224028 11.17292
vt -7.656182 37.88306
vt -0.9396566 37.88306
vt -18.32876 -1.406895
vt -17.08626 12.32124
vt -15.35996 -1.406895
vt -10.59937 39.0041
vt -10.72225 6.739785
vt -1.744288 6.739785
vt -3.882844 39.0041
vt -3.837291 36.17859
vt -7.33126 8.941725
vt -10.42573 36.17859
vt 2.335786 0.9053831
vt 1.245285 12.80908
vt 9.084777 12.80908
vt -8.105892 -8.417617
vt -10.84349 -0.8976866
vt -5.076216 -0.8976866
vt -5.27103 -3.950764
vt -16.03829 -3.950764
vt -4.406066 4.909796
vt -15.25797 -1.275653
vt -10.01693 4.909796
vt 13.04335 38.85726
vt 13.1092 12.36573
vt 4.3521 38.85726

usemtl stone

f 3/3/1 2/2/1 1/1/1
f 4/4/1 2/2/1 3/3/1
f 5/5/1 2/2/1 4/4/1
f 2/2/1 5/5/1 6/6/1
f 4/4/1 3/3/1 7/7/1
f 5/10/2 8/9/2 6/8/2
f 8/9/2 5/10/2 9/11/2
f 9/11/2 5/10/2 10/12/2
f 9/11/2 10/12/2 11/13/2
f 9/11/2 11/13/2 12/14/2
f 14/17/3 8/16/3 13/15/3
f 15/18/3 8/16/3 14/17/3
f 15/18/3 6/19/3 8/16/3
f 6/19/3 15/18/3 2/20/3
f 18/23/4 17/22/4 16/21/4
f 17/22/4 18/23/4 19/24/4
f 18/27/1 20/26/1 19/25/1
f 20/26/1 18/27/1 13/28/1
f 20/26/1 13/28/1 21/29/1
f 21/29/1 13/28/1 8/30/1
f 21/29/1 8/30/1 9/31/1
f 20/34/5 11/33/5 22/32/5
f 11/33/5 20/34/5 12/35/5
f 12/35/5 20/34/5 21/36/5
f 24/39/6 23/38/6 16/37/6
f 16/37/6 22/40/6 24/39/6
f 22/40/6 16/37/6 17/41/6
f 24/39/6 22/40/6 25/42/6
f 25/42/6 22/40/6 10/43/6
f 10/43/6 22/40/6 11/44/6
f 25/42/6 10/43/6 26/45/6
f 10/43/6 27/46/6 26/45/6
f 27/46/6 10/43/6 28/47/6
f 19/50/7 22/49/7 17/48/7
f 22/49/7 19/50/7 20/51/7
f 28/54/8 3/53/8 27/52/8
f 3/53/8 28/54/8 7/55/8
f 7/55/8 28/54/8 29/56/8
f 30/59/10 16/58/9 23/57/9
f 16/58/9 30/59/10 18/60/9
f 18/60/9 30/59/10 31/61/11
f 18/60/9 31/61/11 13/62/9
f 13/62/9 31/61/11 14/63/9
f 3/66/12 26/65/12 27/64/12
f 26/65/12 3/66/12 1/67/12
f 32/70/13 23/69/13 24/68/13
f 23/69/13 32/70/13 33/71/13
f 23/69/13 33/71/13 30/72/13
f 32/75/1 31/74/1 33/73/1
f 31/74/1 32/75/1 34/76/1
f 31/74/1 34/76/1 14/77/1
f 14/77/1 34/76/1 15/78/1
f 15/78/1 34/76/1 35/79/1
f 36/82/14 24/81/14 25/80/14
f 24/81/14 36/82/14 32/83/14
f 32/83/14 36/82/14 34/84/14
f 26/87/15 36/86/15 25/85/15
f 36/86/15 26/87/15 35/88/15
f 35/88/15 26/87/15 1/89/15
f 35/88/15 1/89/15 2/90/15
f 35/88/15 2/90/15 15/91/15
f 34/94/16 36/93/16 35/92/16
f 21/97/17 9/96/17 12/95/17
f 4/100/18 7/99/18 29/98/18
f 5/103/19 28/102/19 10/101/19
f 28/102/19 5/103/19 29/104/19
f 29/104/19 5/103/19 4/105/19
f 31/108/11 30/107/10 33/106/20

