# Created by Kenney (www.kenney.nl)

mtllib roofFlat.mtl

g roofFlat

v 0.5 0.1259017 -0.5
v 0.5 0 -0.5
v 0.5 0.0759017 -0.4
v 0.5 0 0.5
v 0.5 0.0759017 0.4
v 0.5 0.1259017 0.5
v -0.5 0.0759017 -0.4
v -0.5 0.0759017 0.4
v -0.5 0.1259017 -0.5
v -0.5 0 -0.5
v -0.5 0 0.5
v -0.5 0.1259017 0.5

vn 1 0 0
vn 0 1 0
vn -1 0 0
vn 0 0 -1
vn 0 0.8944272 0.4472136
vn 0 -1 0
vn 0 0.8944272 -0.4472136
vn 0 0 1

vt 19.68504 4.95676
vt 19.68504 0
vt 15.74803 2.988256
vt -19.68504 0
vt -15.74803 2.988256
vt -19.68504 4.95676
vt -19.68504 -15.74803
vt -19.68504 15.74803
vt 19.68504 -15.74803
vt 19.68504 15.74803
vt -19.68504 3.663709E-12
vt 19.68504 3.663709E-12
vt 19.68504 19.82356
vt 19.68504 15.42186
vt -19.68504 19.82356
vt -19.68504 15.42186
vt 19.68504 -19.68504
vt -19.68504 -19.68504
vt 19.68504 19.68504
vt -19.68504 19.68504

usemtl roof

f 3/3/1 2/2/1 1/1/1
f 2/2/1 3/3/1 4/4/1
f 4/4/1 3/3/1 5/5/1
f 4/4/1 5/5/1 6/6/1
f 7/9/2 5/8/2 3/7/2
f 5/8/2 7/9/2 8/10/2
f 10/11/3 7/5/3 9/6/3
f 7/5/3 10/11/3 11/12/3
f 7/5/3 11/12/3 8/3/3
f 8/3/3 11/12/3 12/1/3
f 9/1/4 2/4/4 10/2/4
f 2/4/4 9/1/4 1/6/4
f 9/15/5 3/14/5 1/13/5
f 3/14/5 9/15/5 7/16/5
f 4/19/6 10/18/6 2/17/6
f 10/18/6 4/19/6 11/20/6
f 5/16/7 12/13/7 6/15/7
f 12/13/7 5/16/7 8/14/7
f 6/1/8 11/4/8 4/2/8
f 11/4/8 6/1/8 12/6/8

