# Created by Kenney (www.kenney.nl)

mtllib roofHighPoint.mtl

g roofHighPoint

v 0.55 0 0.5
v 0.55 0 -0.5
v 0.5 0 0.55
v 0.5 0 -0.5
v 0.5 0 0.5
v -0.5 0 0.5
v -0.5 0 0.55
v 0.5 0 -0.55
v -0.5 0 -0.5
v -0.5 0 -0.55
v -0.55 0 0.5
v -0.55 0 -0.5
v 0.1375 1 0.1375
v 0.4984375 0.125 0.4546875
v 0.4546875 0.125 0.4984375
v 0.1375 1 -0.1375
v 0.06875 0.9499999 -0.06875
v 0.06875 0.9499999 0.06875
v -0.06875 0.9499999 -0.06875
v -0.06875 0.9499999 0.06875
v -0.1375 1 0.1375
v -0.1375 1 -0.1375
v 0.4984375 0.125 -0.4546875
v 0.4546875 0.125 -0.4984375
v -0.4546875 0.125 0.4984375
v -0.4984375 0.125 0.4546875
v -0.4546875 0.125 -0.4984375
v -0.4984375 0.125 -0.4546875

vn 0 -1 0
vn 0.6200991 0.4805768 0.6200991
vn -0.5881717 0.8087361 0
vn 0 1 0
vn 0 0.8087361 -0.5881717
vn 0 0.8087361 0.5881717
vn 0.9244386 0.3813309 0
vn 0.6200991 0.4805768 -0.6200991
vn 0 0.3813309 0.9244386
vn -0.6200991 0.4805768 0.6200991
vn 0 0.3813309 -0.9244386
vn -0.6200991 0.4805768 -0.6200991
vn -0.9244386 0.3813309 0
vn 0.5881717 0.8087361 0

vt 21.65354 19.68504
vt 21.65354 -19.68504
vt 19.68504 21.65354
vt 19.68504 -19.68504
vt 19.68504 19.68504
vt -19.68504 19.68504
vt -19.68504 21.65354
vt 19.68504 -21.65354
vt -19.68504 -19.68504
vt -19.68504 -21.65354
vt -21.65354 19.68504
vt -21.65354 -19.68504
vt 5.713208E-12 30.84655
vt 1.21795 -8.435867
vt -1.21795 -8.435867
vt -5.413386 27.53437
vt 5.413386 27.53437
vt -2.706693 24.18755
vt 2.706693 24.18755
vt -2.706693 -2.706693
vt -2.706693 2.706693
vt 2.706693 -2.706693
vt 2.706693 2.706693
vt 17.90108 -2.933654
vt -17.90108 -2.933654
vt 5.413386 34.33093
vt -5.413386 34.33093
vt 1.837686E-11 30.84655
vt -1.862022E-11 30.84655
vt -5.754064E-12 30.84655
vt 1.391943 -14.04764
vt -1.391943 -14.04764
vt -19.68504 -8.257166
vt 19.68504 -8.257166

usemtl roofRed

f 3/3/1 2/2/1 1/1/1
f 2/2/1 3/3/1 4/4/1
f 4/4/1 3/3/1 5/5/1
f 5/5/1 3/3/1 6/6/1
f 6/6/1 3/3/1 7/7/1
f 4/4/1 8/8/1 2/2/1
f 8/8/1 4/4/1 9/9/1
f 5/5/1 9/9/1 4/4/1
f 9/9/1 5/5/1 6/6/1
f 8/8/1 9/9/1 10/10/1
f 10/10/1 9/9/1 6/6/1
f 10/10/1 6/6/1 7/7/1
f 10/10/1 7/7/1 11/11/1
f 10/10/1 11/11/1 12/12/1
f 15/15/2 14/14/2 13/13/2
f 17/18/3 13/17/3 16/16/3
f 13/17/3 17/18/3 18/19/3
f 19/22/4 18/21/4 17/20/4
f 18/21/4 19/22/4 20/23/4
f 18/18/5 21/17/5 13/16/5
f 21/17/5 18/18/5 20/19/5
f 22/16/6 17/19/6 16/17/6
f 17/19/6 22/16/6 19/18/6
f 16/26/7 14/25/7 23/24/7
f 14/25/7 16/26/7 13/27/7
f 16/28/8 23/15/8 24/14/8
f 15/24/9 21/27/9 25/25/9
f 21/27/9 15/24/9 13/26/9
f 21/29/10 26/15/10 25/14/10
f 27/24/11 16/27/11 24/25/11
f 16/27/11 27/24/11 22/26/11
f 22/30/12 27/15/12 28/14/12
f 26/24/13 22/27/13 28/25/13
f 22/27/13 26/24/13 21/26/13
f 22/17/14 20/18/14 19/19/14
f 20/18/14 22/17/14 21/16/14

usemtl roofRedLight

f 24/14/8 2/32/8 8/31/8
f 2/32/8 24/14/8 23/15/8
f 15/15/2 1/31/2 14/14/2
f 1/31/2 15/15/2 3/32/2
f 11/34/13 28/25/13 12/33/13
f 28/25/13 11/34/13 26/24/13
f 25/14/10 11/32/10 7/31/10
f 11/32/10 25/14/10 26/15/10
f 28/14/12 10/32/12 12/31/12
f 10/32/12 28/14/12 27/15/12
f 27/24/11 8/33/11 10/34/11
f 8/33/11 27/24/11 24/25/11
f 23/24/7 1/33/7 2/34/7
f 1/33/7 23/24/7 14/25/7
f 15/24/9 7/33/9 3/34/9
f 7/33/9 15/24/9 25/25/9

