# Created by Kenney (www.kenney.nl)

mtllib roofRight.mtl

g roofRight

v -0.5 0 -0.5
v -0.4 7.219114E-16 -0.5
v -0.4 0.05 -0.5
v -0.4 0.05 0.475
v -0.4 7.219114E-16 0.475
v -0.4 0.05 0.5
v -0.4 7.219114E-16 0.5
v -0.5894427 -0.04472136 0.4
v -0.5447214 -0.02236068 0.4
v -0.6341641 0.04472136 0.4
v -0.567082 0.02236068 0.4
v -0.4461968 0.08280331 0.4
v 0.4 0.5618034 0.4
v 0.4 0.5059017 0.4
v 0.4 0.5618034 0.5
v -0.6341641 0.04472136 0.5
v 0.4 7.219114E-16 0.475
v 0.4 0.45 0.475
v 0.4 7.219114E-16 0.5
v 0.4 0.45 0.5
v 0.4 7.219114E-16 -0.5
v 0.4 0.45 -0.5
v 0.4 7.219114E-16 -0.475
v 0.4 0.45 -0.475
v -0.5894427 -0.04472136 0.5
v 0.4 0.5759017 0.4
v 0.4 0.6259017 0.4
v 0.4 0.6259017 0.5
v -0.4 0.05 -0.475
v -0.4 7.219114E-16 -0.475
v -0.5447214 -0.02236068 0.5
v 0.5 0.6259017 0.4
v 0.5 0.6759017 0.4
v 0.5 0 -0.5
v 0.5 0.5 -0.5
v 0.5 0.6759017 0.5
v 0.5 0 0.5
v -0.5 0 0.5
v 0.5 0.6259017 -0.5
v -0.5447214 -0.02236068 -0.5
v -0.567082 0.02236068 -0.5
v -0.4461968 0.08280331 -0.5
v 0.4 0.5059017 -0.5
v 0.4 0.5759017 -0.5

vn 0 0 -1
vn 1 0 0
vn -0.4472136 0.8944272 0
vn -1 0 0
vn 0.4472136 -0.8944272 0
vn -0.8944272 -0.4472136 0
vn 0 0 1
vn 0 -1 0

vt 19.68504 0
vt 15.74803 2.842171E-14
vt 15.74803 1.968504
vt -18.70079 1.968504
vt -18.70079 2.842171E-14
vt -19.68504 1.968504
vt -19.68504 2.842171E-14
vt 23.20641 -1.760683
vt 21.44572 -0.8803417
vt 24.96709 1.760683
vt 22.32607 0.8803417
vt 17.5668 3.259973
vt -15.74803 22.11824
vt -15.74803 19.91739
vt 19.68504 23.97705
vt 19.68504 -21.54384
vt 15.74803 23.97705
vt 15.74803 -21.54384
vt 18.70079 2.842171E-14
vt 18.70079 17.71654
vt 19.68504 2.842171E-14
vt 19.68504 17.71654
vt -19.68504 17.71654
vt -18.70079 17.71654
vt -19.68504 22.00854
vt -18.70079 22.00854
vt -19.68504 -13.20513
vt -18.70079 -13.20513
vt 15.74803 12.74043
vt 19.68504 12.74043
vt 15.74803 8.803417
vt 19.68504 8.803417
vt 15.74803 22.6733
vt 15.74803 24.6418
vt 15.74803 22.11824
vt 19.68504 24.6418
vt 19.68504 22.11824
vt 19.68504 1.968504
vt 18.70079 1.968504
vt -15.74803 -19.57534
vt -15.74803 -21.54384
vt -19.68504 -19.57534
vt -19.68504 -21.54384
vt -15.74803 22.6733
vt -19.68504 24.6418
vt -15.74803 24.6418
vt -19.68504 26.6103
vt -19.68504 3.65673E-30
vt -19.68504 19.68504
vt -15.74803 2.842171E-14
vt -15.74803 17.71654
vt 19.68504 29.50732
vt 19.68504 25.10562
vt 15.74803 29.50732
vt 15.74803 25.10562
vt 19.68504 1.346124E-12
vt 15.74803 1.374545E-12
vt 19.68504 26.6103
vt 15.74803 17.71654
vt -15.74803 1.968504
vt -24.96709 1.760683
vt -15.74803 1.374545E-12
vt -19.68504 1.346124E-12
vt -21.44572 -0.8803417
vt -23.20641 -1.760683
vt -15.74803 19.68504
vt -15.74803 18.70079
vt -15.74803 -18.70079
vt -15.74803 -19.68504
vt -19.68504 -19.68504
vt 15.74803 -18.70079
vt 15.74803 18.70079
vt 15.74803 -19.68504
vt 15.74803 19.68504
vt 19.68504 -19.68504
vt 19.68504 19.68504
vt -15.74803 26.6103
vt -19.68504 -4.784056E-12
vt 19.68504 -4.784056E-12
vt -19.68504 8.803417
vt -19.68504 10.77192
vt 15.74803 10.77192
vt 18.70079 22.00854
vt 19.68504 22.00854
vt 18.70079 -13.20513
vt 19.68504 -13.20513
vt -19.68504 -17.60683
vt 19.68504 -17.60683
vt 19.68504 -19.57534
vt -19.68504 28.62698
vt 15.74803 28.62698
vt -19.68504 24.22527
vt 15.74803 24.22527
vt -19.68504 19.91739
vt -19.68504 22.6733
vt 15.74803 19.91739
vt 15.74803 22.9928
vt 15.74803 -14.25432
vt -19.68504 22.9928
vt -19.68504 -14.25432
vt 15.74803 -19.57534

usemtl wood

f 3/3/1 2/2/1 1/1/1
f 6/6/2 5/5/2 4/4/2
f 5/5/2 6/6/2 7/7/2
f 10/10/1 9/9/1 8/8/1
f 9/9/1 10/10/1 11/11/1
f 11/11/1 10/10/1 12/12/1
f 12/12/1 10/10/1 13/13/1
f 12/12/1 13/13/1 14/14/1
f 13/17/3 16/16/3 15/15/3
f 16/16/3 13/17/3 10/18/3
f 19/21/4 18/20/4 17/19/4
f 18/20/4 19/21/4 20/22/4
f 23/5/4 22/23/4 21/7/4
f 22/23/4 23/5/4 24/24/4
f 6/27/5 18/26/5 20/25/5
f 18/26/5 6/27/5 4/28/5
f 8/31/6 16/30/6 10/29/6
f 16/30/6 8/31/6 25/32/6
f 13/35/4 27/34/4 26/33/4
f 27/34/4 13/35/4 28/36/4
f 28/36/4 13/35/4 15/37/4
f 29/39/2 2/21/2 3/38/2
f 2/21/2 29/39/2 30/19/2
f 31/42/5 8/41/5 9/40/5
f 8/41/5 31/42/5 25/43/5
f 27/46/1 32/45/1 26/44/1
f 32/45/1 27/46/1 33/47/1
f 21/50/1 35/49/1 34/48/1
f 35/49/1 21/50/1 22/51/1
f 33/54/3 28/53/3 36/52/3
f 28/53/3 33/54/3 27/55/3
f 36/58/7 19/57/7 37/56/7
f 19/57/7 36/58/7 20/59/7
f 20/59/7 36/58/7 15/35/7
f 15/35/7 36/58/7 28/34/7
f 15/35/7 6/60/7 20/59/7
f 16/61/7 6/60/7 15/35/7
f 16/61/7 7/62/7 6/60/7
f 16/61/7 38/63/7 7/62/7
f 16/61/7 31/64/7 38/63/7
f 31/64/7 16/61/7 25/65/7

usemtl stone

f 38/49/8 5/67/8 7/66/8
f 5/67/8 38/49/8 30/68/8
f 30/68/8 38/49/8 2/69/8
f 2/69/8 38/49/8 1/70/8
f 23/71/8 5/67/8 30/68/8
f 5/67/8 23/71/8 17/72/8
f 21/73/8 17/72/8 23/71/8
f 21/73/8 19/74/8 17/72/8
f 34/75/8 19/74/8 21/73/8
f 19/74/8 34/75/8 37/76/8
f 29/3/1 23/50/1 30/2/1
f 23/50/1 29/3/1 24/51/1
f 36/47/2 32/46/2 33/77/2
f 32/46/2 36/47/2 37/78/2
f 34/79/2 32/46/2 37/78/2
f 35/76/2 32/46/2 34/79/2
f 32/46/2 35/76/2 39/36/2
f 18/59/7 5/50/7 17/2/7
f 5/50/7 18/59/7 4/60/7

usemtl roof

f 41/11/1 1/1/1 40/9/1
f 1/1/1 41/11/1 3/3/1
f 3/3/1 41/11/1 42/12/1
f 3/3/1 42/12/1 22/51/1
f 22/51/1 42/12/1 43/14/1
f 22/51/1 43/14/1 35/49/1
f 35/49/1 43/14/1 39/45/1
f 39/45/1 43/14/1 44/44/1
f 9/31/6 41/81/6 40/80/6
f 41/81/6 9/31/6 11/82/6
f 29/85/5 22/84/5 24/83/5
f 22/84/5 29/85/5 3/86/5
f 31/42/5 1/88/5 38/87/5
f 1/88/5 31/42/5 9/40/5
f 1/88/5 9/40/5 40/89/5
f 44/92/3 32/91/3 39/90/3
f 32/91/3 44/92/3 26/93/3
f 14/96/4 44/95/4 43/94/4
f 44/95/4 14/96/4 26/33/4
f 26/33/4 14/96/4 13/35/4
f 43/99/3 12/98/3 14/97/3
f 12/98/3 43/99/3 42/100/3

usemtl roofLight

f 42/100/3 11/101/3 12/98/3
f 11/101/3 42/100/3 41/42/3

