# Created by Kenney (www.kenney.nl)

mtllib roofHighCornerRound.mtl

g roofHighCornerRound

v 0.4 0.9707107 -0.4
v 0.04120692 0.1 0.4707107
v -0.4707107 0.1 -0.04120692
v 0.4 1.040711 -0.5
v 0.5 1.140711 -0.5
v 0.4 1.040711 -0.4
v 0.5 1.040711 -0.4
v 0.5 0.9707107 -0.4
v 0.4 0.9707107 -0.5
v -0.4707107 0.1 -0.5
v 6.35282E-14 -0.03535534 0.5353553
v 0.5 -0.03535534 0.5353553
v 5.775291E-15 0 0.5
v 0.5 0 0.5
v -0.5 0 -0.5
v -0.5353553 -0.03535534 -0.5
v -0.5 0 -1.443823E-15
v -0.5353553 -0.03535534 -1.443823E-15
v 0.5 0.1 0.4707107
v -0.5707107 -3.609557E-16 -0.5
v 0.5 0 -0.5
v 0.5 -3.609557E-16 0.5707107
v 6.064056E-14 -3.609557E-16 0.5707107
v -0.5707107 -3.609557E-16 -1.443823E-15
v -0.07071068 -1.804779E-16 0.5
v -0.5 -1.804779E-16 0.07071068

vn -0.5003792 0.7065701 0.5003792
vn -0.7071068 0.7071068 0
vn 0 0.7071068 0.7071068
vn 0 0 1
vn -1 0 0
vn 0 -0.7071068 -0.7071068
vn 0.7071068 -0.7071068 0
vn 0.5773503 -0.5773503 -0.5773503
vn 0 0 -1
vn 0 -1 0
vn 1 0 0
vn 0 -0.7071068 0.7071068
vn -0.7071068 -0.7071068 0
vn -0.5773503 -0.5773503 0.5773503

vt 8.455459E-13 42.78004
vt 14.2512 -5.662385
vt -14.2512 -5.662385
vt -19.68504 40.10773
vt -19.68504 45.6755
vt -15.74803 40.10773
vt 19.68504 40.10773
vt 15.74803 40.10773
vt 19.68504 45.6755
vt 19.68504 38.21696
vt 15.74803 38.21696
vt 19.68504 40.97286
vt 15.74803 40.97286
vt -19.68504 38.15901
vt -15.74803 38.15901
vt -19.68504 -10.32016
vt -1.62232 -10.32016
vt -19.68504 38.21696
vt -19.68504 40.97286
vt -15.74803 38.21696
vt -15.74803 40.97286
vt -4.469255E-13 -15.88793
vt -19.68504 -15.88793
vt 1.691151E-12 -13.91943
vt -19.68504 -13.91943
vt 19.68504 -13.91943
vt 19.68504 -15.88793
vt 1.704993E-13 -13.91943
vt 1.78536E-13 -15.88793
vt 13.91943 -8.036384
vt 14.90368 -9.741158
vt -13.91943 -8.036384
vt -14.90368 -9.741158
vt 19.68504 38.15901
vt 19.68504 -10.32016
vt 15.74803 38.15901
vt 1.62232 -10.32016
vt 21.07698 -1.391943
vt 19.68504 3.110798E-14
vt 22.46892 1.689712E-14
vt 18.53192 3.937008
vt -19.68504 3.110798E-14
vt -19.68504 44.90987
vt 19.68504 19.68504
vt 19.68504 -19.68504
vt 2.273737E-13 19.68504
vt -19.68504 -19.68504
vt -19.68504 -5.684342E-14
vt 19.68504 44.90987
vt 19.68504 -3.829507E-14
vt -19.68504 -3.829507E-14
vt -18.53192 3.937008
vt -22.46892 -5.250593E-14
vt -21.07698 -1.391943
vt 2.015863E-12 -15.88793
vt 19.68504 13.91943
vt 2.50111E-12 13.91943
vt 19.68504 15.88793
vt 2.387424E-12 15.88793
vt -5.684342E-14 13.91943
vt -19.68504 13.91943
vt -5.684342E-14 15.88793
vt -19.68504 15.88793
vt 15.88793 -11.22593
vt 11.95092 -11.22593
vt -11.95092 -11.22593
vt -15.88793 -11.22593
vt 14.90368 7.468125
vt -14.90368 7.468125
vt 15.88793 9.1729
vt 11.95092 9.1729
vt -11.95092 9.1729
vt -15.88793 9.1729
vt -5.889257E-14 -15.88793

usemtl roofRed

f 3/3/1 2/2/1 1/1/1
f 6/6/2 5/5/2 4/4/2
f 5/9/3 6/8/3 7/7/3
f 7/12/4 1/11/4 8/10/4
f 1/11/4 7/12/4 6/13/4
f 10/16/2 1/15/2 9/14/2
f 1/15/2 10/16/2 3/17/2
f 1/20/5 4/19/5 9/18/5
f 4/19/5 1/20/5 6/21/5
f 13/24/6 12/23/6 11/22/6
f 12/23/6 13/24/6 14/25/6
f 17/28/7 16/27/7 15/26/7
f 16/27/7 17/28/7 18/29/7
f 13/32/8 18/31/8 17/30/8
f 18/31/8 13/32/8 11/33/8
f 1/36/3 19/35/3 8/34/3
f 19/35/3 1/36/3 2/37/3

usemtl woodDark

f 20/40/9 15/39/9 16/38/9
f 15/39/9 20/40/9 10/41/9
f 15/39/9 10/41/9 21/42/9
f 21/42/9 10/41/9 9/20/9
f 21/42/9 9/20/9 5/43/9
f 5/43/9 9/20/9 4/21/9
f 13/46/10 21/45/10 14/44/10
f 21/45/10 13/46/10 15/47/10
f 15/47/10 13/46/10 17/48/10
f 7/13/11 21/50/11 5/49/11
f 21/50/11 7/13/11 8/11/11
f 21/50/11 8/11/11 14/51/11
f 14/51/11 8/11/11 19/52/11
f 14/51/11 19/52/11 22/53/11
f 14/51/11 22/53/11 12/54/11

usemtl roofRedLight

f 19/35/3 23/55/3 22/27/3
f 23/55/3 19/35/3 2/37/3
f 22/58/12 11/57/12 12/56/12
f 11/57/12 22/58/12 23/59/12
f 24/62/13 16/61/13 18/60/13
f 16/61/13 24/62/13 20/63/13
f 3/3/1 23/64/1 2/2/1
f 23/64/1 3/3/1 25/65/1
f 25/65/1 3/3/1 26/66/1
f 26/66/1 3/3/1 24/67/1
f 23/70/14 18/69/14 11/68/14
f 18/69/14 23/70/14 25/71/14
f 18/69/14 25/71/14 26/72/14
f 18/69/14 26/72/14 24/73/14
f 24/74/2 10/16/2 20/23/2
f 10/16/2 24/74/2 3/17/2

