# Created by Kenney (www.kenney.nl)

mtllib roofCornerRound.mtl

g roofCornerRound

v -0.5 0 -1.443823E-15
v -0.5 0 -0.5
v -0.5447214 -0.02236068 -1.443823E-15
v -0.5447214 -0.02236068 -0.5
v 0.4 0.5059017 -0.4
v 0.05 0.08280331 0.4461968
v -0.4461968 0.08280331 -0.05
v 0.5 0 0.5
v 5.775291E-15 0 0.5
v 0.5 -0.02236068 0.5447214
v -6.35282E-14 -0.02236068 0.5447214
v 0.5 0.5059017 -0.4
v 0.5 0.5759017 -0.4
v 0.4 0.5759017 -0.4
v 0.5 0.08280331 0.4461968
v 0.4 0.5759017 -0.5
v 0.5 0.6259017 -0.5
v 0.4 0.5059017 -0.5
v -0.4461968 0.08280331 -0.5
v -0.567082 0.02236068 -1.443823E-15
v -6.35282E-14 0.02236068 0.567082
v -0.567082 0.02236068 -0.5
v 0.5 0.02236068 0.567082
v 0.5 0 -0.5

vn 0.4472136 -0.8944272 0
vn -0.3163348 0.8943515 0.3163348
vn 0 -0.8944272 -0.4472136
vn 0 0 1
vn 0 0.8944272 0.4472136
vn -0.4472136 0.8944272 0
vn -1 0 0
vn 0.4082483 -0.8164966 -0.4082483
vn -0.6666667 -0.3333333 0.6666667
vn -0.8944272 -0.4472136 0
vn 0 -0.4472136 0.8944272
vn 0 -1 0
vn 0 0 -1
vn 1 0 0

vt 1.693714E-13 -17.60683
vt 19.68504 -17.60683
vt 1.794362E-13 -19.57534
vt 19.68504 -19.57534
vt -1.066369E-11 28.82852
vt 13.81355 -8.405997
vt -13.81355 -8.405997
vt -19.68504 -17.60683
vt 1.691016E-12 -17.60683
vt -19.68504 -19.57534
vt 4.591086E-12 -19.57534
vt 19.68504 19.91739
vt 15.74803 19.91739
vt 19.68504 22.6733
vt 15.74803 22.6733
vt 19.68504 22.9928
vt 19.68504 -14.25432
vt 15.74803 22.9928
vt 1.968504 -14.25432
vt -19.68504 24.22527
vt -19.68504 28.62698
vt -15.74803 24.22527
vt -19.68504 19.91739
vt -19.68504 22.6733
vt -15.74803 19.91739
vt -15.74803 22.6733
vt 19.68504 28.62698
vt 19.68504 24.22527
vt 15.74803 24.22527
vt -19.68504 22.9928
vt -15.74803 22.9928
vt -19.68504 -14.25432
vt -1.968504 -14.25432
vt -13.91943 -11.36516
vt 13.91943 -11.36516
vt -15.16442 -12.88996
vt 15.16442 -12.88996
vt -15.16442 4.224811
vt -15.78691 6.092298
vt 15.16442 4.224811
vt 15.78691 6.092298
vt -19.68504 8.803417
vt -19.68504 10.77192
vt -5.55926E-14 8.803417
vt -5.554125E-14 10.77192
vt 15.78691 -13.72521
vt -15.78691 -13.72521
vt 1.207088E-12 -19.57534
vt 19.68504 8.803417
vt -1.644122E-12 8.803417
vt 19.68504 10.77192
vt -1.608943E-12 10.77192
vt -1.856882E-11 -19.57534
vt 19.68504 19.68504
vt 19.68504 -19.68504
vt 2.273737E-13 19.68504
vt -19.68504 -19.68504
vt -19.68504 -5.684342E-14
vt 21.44572 -0.8803417
vt 19.68504 -2.201481E-12
vt 22.32607 0.8803417
vt -19.68504 -2.201481E-12
vt 17.5668 3.259973
vt -19.68504 24.6418
vt -19.68504 -3.702273E-12
vt 19.68504 -3.702273E-12
vt 19.68504 24.6418
vt -17.5668 3.259973
vt -22.32607 0.8803417
vt -21.44572 -0.8803417

usemtl roof

f 3/3/1 2/2/1 1/1/1
f 2/2/1 3/3/1 4/4/1
f 7/7/2 6/6/2 5/5/2
f 10/10/3 9/9/3 8/8/3
f 9/9/3 10/10/3 11/11/3
f 13/14/4 5/13/4 12/12/4
f 5/13/4 13/14/4 14/15/4
f 5/18/5 15/17/5 12/16/5
f 15/17/5 5/18/5 6/19/5
f 14/22/6 17/21/6 16/20/6
f 5/25/7 16/24/7 18/23/7
f 16/24/7 5/25/7 14/26/7
f 14/29/5 13/28/5 17/27/5
f 19/32/6 5/31/6 18/30/6
f 5/31/6 19/32/6 7/33/6
f 11/36/8 1/35/8 9/34/8
f 1/35/8 11/36/8 3/37/8

usemtl roofLight

f 11/40/9 20/39/9 3/38/9
f 20/39/9 11/40/9 21/41/9
f 3/44/10 22/43/10 4/42/10
f 22/43/10 3/44/10 20/45/10
f 7/7/2 21/46/2 6/6/2
f 21/46/2 7/7/2 20/47/2
f 22/10/6 7/33/6 19/32/6
f 7/33/6 22/10/6 20/48/6
f 23/51/11 11/50/11 10/49/11
f 11/50/11 23/51/11 21/52/11
f 15/17/5 21/53/5 23/4/5
f 21/53/5 15/17/5 6/19/5

usemtl stone

f 9/56/12 24/55/12 8/54/12
f 24/55/12 9/56/12 2/57/12
f 2/57/12 9/56/12 1/58/12
f 22/61/13 2/60/13 4/59/13
f 2/60/13 22/61/13 24/62/13
f 24/62/13 22/61/13 19/63/13
f 24/62/13 19/63/13 18/25/13
f 24/62/13 18/25/13 17/64/13
f 17/64/13 18/25/13 16/26/13
f 24/66/14 12/13/14 8/65/14
f 12/13/14 24/66/14 17/67/14
f 12/13/14 17/67/14 13/15/14
f 8/65/14 12/13/14 15/68/14
f 8/65/14 15/68/14 23/69/14
f 8/65/14 23/69/14 10/70/14

