# Created by Kenney (www.kenney.nl)

mtllib roofGableEnd.mtl

g roofGableEnd

v 0.5 -5.414336E-16 -0.4
v 0.475 0 -0.4
v 0.5 0.1 -0.4
v 0.475 0.1 -0.4
v 0.5 0.1 0.4
v 0.5 -5.414336E-16 0.4
v 0.5 -5.414336E-16 0.5
v 0.5 -5.414336E-16 -0.5
v 0.475 0 0.4
v 0.475 0.1 0.4
v 0.475 0.5 0
v -0.5 0 0.5
v -0.5 0 -0.5
v 0.55 -5.414336E-16 -0.5
v 0.55 0.03535534 -0.5353553
v -0.5353553 0.03535534 -0.5353553
v -0.4684359 0.1022748 0.4684359
v -1.443823E-15 0.5707107 0
v 0.55 0.1022748 0.4684359
v 0.55 0.5707107 0
v 0.55 0.5 0
v 0.55 0.1022748 -0.4684359
v 0.55 -5.414336E-16 0.5
v 0.55 0.03535534 0.5353553
v -0.5353553 0.03535534 0.5353553
v -0.5353553 0.03535534 -0.45
v -0.4684359 0.1022748 -0.4684359

vn 0 0 1
vn 1 0 0
vn 0 0 -1
vn 0 -1 0
vn 0 -0.7071068 -0.7071068
vn 0 0.7071068 0.7071068
vn 0 -0.7071068 0.7071068
vn -0.7071068 -0.7071068 0
vn 0 0.7071068 -0.7071068
vn -0.7071068 0.7071068 0

vt 19.68504 -2.131628E-14
vt 18.70079 0
vt 19.68504 3.937008
vt 18.70079 3.937008
vt -15.74803 3.937008
vt -15.74803 -2.131628E-14
vt -19.68504 -2.131628E-14
vt 15.74803 3.937008
vt 15.74803 -2.131628E-14
vt -19.68504 3.937008
vt -18.70079 0
vt -18.70079 3.937008
vt 15.74803 -1.130259E-13
vt -2.109867E-28 19.68504
vt -15.74803 -1.130259E-13
vt 19.68504 19.68504
vt 19.68504 15.74803
vt -19.68504 19.68504
vt 18.70079 15.74803
vt 18.70079 -15.74803
vt -19.68504 -19.68504
vt 19.68504 -19.68504
vt 19.68504 -15.74803
vt -19.68504 13.91943
vt -21.65354 13.91943
vt 19.68504 13.91943
vt -21.65354 15.88793
vt 21.07698 15.88793
vt -18.44236 -10.19351
vt -5.684342E-14 15.88793
vt 21.65354 -10.19351
vt 21.65354 15.88793
vt 21.65354 -13.91943
vt 19.68504 -13.91943
vt 21.65354 13.91943
vt 19.68504 -8.351655
vt 18.70079 -8.351655
vt 18.70079 13.91943
vt 21.07698 1.391943
vt 19.68504 -1.445037E-13
vt 18.44236 4.026565
vt -2.91407E-30 19.68504
vt -2.91407E-30 22.46892
vt -18.44236 4.026565
vt -19.68504 -1.445037E-13
vt -21.07698 1.391943
vt -21.07698 15.88793
vt -17.71654 15.88793
vt -19.68504 -13.91943
vt -21.65354 -13.91943
vt -19.68504 -8.351655
vt -18.70079 -8.351655
vt -18.70079 13.91943
vt 18.44236 -10.19351
vt -21.65354 -10.19351
vt 5.684342E-14 15.88793
vt -5.62032E-29 15.88793
vt -21.07698 -13.91943
vt -17.71654 -13.91943
vt 21.07698 -13.91943

usemtl wood

f 3/3/1 2/2/1 1/1/1
f 2/2/1 3/3/1 4/4/1
f 7/7/2 6/6/2 5/5/2
f 1/9/2 8/1/2 3/8/2
f 9/11/3 5/10/3 6/7/3
f 5/10/3 9/11/3 10/12/3

usemtl stone

f 11/14/2 2/13/2 4/8/2
f 2/13/2 11/14/2 9/15/2
f 9/15/2 11/14/2 10/5/2
f 12/18/4 6/17/4 7/16/4
f 6/17/4 12/18/4 9/19/4
f 9/19/4 12/18/4 2/20/4
f 13/21/4 2/20/4 12/18/4
f 8/22/4 2/20/4 13/21/4
f 2/20/4 8/22/4 1/23/4

usemtl roof

f 13/26/5 14/25/5 8/24/5
f 14/25/5 13/26/5 15/27/5
f 15/27/5 13/26/5 16/28/5
f 19/31/6 18/30/6 17/29/6
f 18/30/6 19/31/6 20/32/6
f 21/35/7 8/34/7 14/33/7
f 8/34/7 21/35/7 3/36/7
f 3/36/7 21/35/7 4/37/7
f 4/37/7 21/35/7 11/38/7
f 22/41/2 14/40/2 15/39/2
f 14/40/2 22/41/2 21/42/2
f 21/42/2 22/41/2 20/43/2
f 21/42/2 20/43/2 19/44/2
f 21/42/2 19/44/2 23/45/2
f 23/45/2 19/44/2 24/46/2
f 25/47/7 23/35/7 24/32/7
f 23/35/7 25/47/7 7/26/7
f 7/26/7 25/47/7 12/24/7
f 13/24/8 26/48/8 16/47/8
f 26/48/8 13/24/8 12/26/8
f 26/48/8 12/26/8 25/28/8
f 5/51/5 23/50/5 7/49/5
f 23/50/5 5/51/5 21/25/5
f 21/25/5 5/51/5 10/52/5
f 21/25/5 10/52/5 11/53/5
f 18/56/9 22/55/9 27/54/9
f 22/55/9 18/56/9 20/27/9
f 17/54/10 18/57/10 27/29/10

usemtl roofLight

f 26/59/10 27/29/10 16/58/10
f 27/29/10 26/59/10 17/54/10
f 17/54/10 26/59/10 25/60/10
f 24/33/6 17/29/6 25/58/6
f 17/29/6 24/33/6 19/31/6
f 16/60/9 22/55/9 15/50/9
f 22/55/9 16/60/9 27/54/9

