# Created by Kenney (www.kenney.nl)

mtllib roofHighRight.mtl

g roofHighRight

v 0.4 0.9707107 -0.5
v 0.4 1.040711 -0.5
v 0.4 0.9707107 0.4
v 0.4 0.9907106 0.4
v 0.4 1.040711 0.4
v 0.4 0.9 -0.5
v -0.4 0.1 -0.5
v 0.4 0.9 -0.475
v -0.4 0.1 -0.475
v -0.5353553 -0.03535534 -0.5
v -0.5 -2.255973E-17 -0.5
v -0.5707107 -3.835154E-16 -0.5
v -0.4707107 0.1 -0.5
v 0.5 1 -0.5
v 0.5 1.140711 -0.5
v -0.4707107 0.1 0.4
v 0.4 0.9 0.475
v -0.4 0.1 0.475
v 0.4 0.9 0.5
v -0.4 0.1 0.5
v -0.5 -2.255973E-17 0.5
v -0.5353553 -0.03535534 0.4
v -0.5353553 -0.03535534 0.5
v -0.5707107 -4.466827E-15 0.4
v 0.5 1.140711 0.4
v -0.4 -2.255973E-17 -0.475
v 0.4 -2.255973E-17 -0.475
v 0.5 1.190711 0.4
v 0.5 1.190711 0.5
v 0.5 -2.255973E-17 0.5
v 0.5 -2.255973E-17 -0.5
v 0.4 -2.255973E-17 0.475
v -0.4 -2.255973E-17 0.475
v -0.4 -2.255973E-17 0.5
v -0.4 -2.255973E-17 -0.5
v 0.4 -2.255973E-17 -0.5
v 0.4 -2.255973E-17 0.5
v 0.4 1.040711 0.5
v -0.6414214 -0.0007106781 0.5
v -0.6414214 -0.0007106781 0.4
v 0.4 1.090711 0.4
v -0.5707107 -0.07071068 0.4
v 0.4 1.090711 0.5
v -0.5707107 -0.07071068 0.5

vn -1 0 0
vn 0.7071068 -0.7071068 0
vn 0 0 -1
vn -0.7071068 0.7071068 0
vn -0.7071068 -0.7071068 0
vn 1 0 0
vn 0 0 1
vn 0 -1 0
vn -0.7035264 -0.710669 0

vt -19.68504 38.21696
vt -19.68504 40.97286
vt 15.74803 38.21696
vt 15.74803 39.00436
vt 15.74803 40.97286
vt 19.68504 36.19051
vt 19.68504 -8.351655
vt 18.70079 36.19051
vt 18.70079 -8.351655
vt 21.07698 -1.391943
vt 19.68504 -8.881784E-16
vt 22.46892 1.268374E-13
vt 18.53192 3.937008
vt 15.74803 3.937008
vt -15.74803 38.21696
vt -15.74803 35.43307
vt -19.68504 39.37008
vt -15.74803 40.97286
vt -19.68504 44.90987
vt 15.74803 38.15901
vt 15.74803 -10.32016
vt -19.68504 38.15901
vt -19.68504 -10.32016
vt -18.70079 36.19051
vt -18.70079 -8.351655
vt -19.68504 36.19051
vt -19.68504 -8.351655
vt 19.68504 -13.91943
vt 19.68504 -15.88793
vt -19.68504 -13.91943
vt -15.74803 -15.88793
vt -19.68504 -15.88793
vt 15.74803 13.91943
vt -19.68504 13.91943
vt 15.74803 15.88793
vt -19.68504 15.88793
vt -19.68504 45.6755
vt 15.74803 45.6755
vt -19.68504 40.10773
vt 15.74803 40.10773
vt 15.74803 -8.881784E-16
vt -15.74803 -8.881784E-16
vt -15.74803 46.87837
vt -15.74803 44.90987
vt -19.68504 46.87837
vt -19.68504 1.727989E-13
vt 19.68504 1.727989E-13
vt 19.68504 39.37008
vt 19.68504 44.90987
vt 15.74803 35.43307
vt -15.74803 3.937008
vt -15.74803 19.68504
vt -15.74803 18.70079
vt -19.68504 19.68504
vt -15.74803 -18.70079
vt -15.74803 -19.68504
vt -19.68504 -19.68504
vt 15.74803 -18.70079
vt 15.74803 18.70079
vt 15.74803 -19.68504
vt 15.74803 19.68504
vt 19.68504 -19.68504
vt 19.68504 19.68504
vt 19.68504 40.10773
vt 19.68504 -17.87622
vt 15.74803 -17.87622
vt -15.74803 42.94136
vt 25.25281 -0.02797945
vt 22.46892 1.697165E-12
vt 22.46892 -2.783885
vt -15.74803 39.00436
vt 15.74803 42.94136
vt 19.68504 40.97286
vt 19.68504 42.94136
vt -19.68504 -8.881784E-16
vt 19.68504 3.937008
vt 18.70079 3.937008
vt 18.70079 -8.881784E-16
vt -19.68504 35.43307
vt -18.70079 -8.881784E-16
vt -18.70079 35.43307
vt 15.74803 47.06744
vt 19.68504 47.06744
vt 15.74803 41.49967
vt 19.68504 41.49967
vt -15.74803 -17.85643
vt -19.68504 -17.85643
vt -15.74803 1.190127E-12
vt -19.68504 1.190127E-12
vt -25.25281 -0.02797945
vt -21.07698 -1.391943
vt -22.46892 -2.783885
vt 19.68504 46.87837
vt 15.74803 1.190127E-12
vt 19.68504 1.190127E-12
vt -18.70079 3.937008
vt -19.68504 3.937008
vt 19.68504 14.00943
vt 15.74803 14.00943
vt 19.68504 17.92671
vt 15.74803 17.92671
vt 18.70079 35.43307
vt 19.68504 35.43307
vt 15.74803 -15.88793

usemtl roofRed

f 3/3/1 2/2/1 1/1/1
f 2/2/1 3/3/1 4/4/1
f 2/2/1 4/4/1 5/5/1
f 8/8/2 7/7/2 6/6/2
f 7/7/2 8/8/2 9/9/2
f 12/12/3 11/11/3 10/10/3
f 11/11/3 12/12/3 13/13/3
f 11/11/3 13/13/3 7/14/3
f 7/14/3 13/13/3 1/15/3
f 7/14/3 1/15/3 6/16/3
f 6/16/3 1/15/3 14/17/3
f 14/17/3 1/15/3 2/18/3
f 14/17/3 2/18/3 15/19/3
f 1/22/4 16/21/4 3/20/4
f 16/21/4 1/22/4 13/23/4
f 19/26/2 18/25/2 17/24/2
f 18/25/2 19/26/2 20/27/2
f 21/30/2 10/29/2 11/28/2
f 10/29/2 21/30/2 22/31/2
f 22/31/2 21/30/2 23/32/2
f 24/35/5 10/34/5 22/33/5
f 10/34/5 24/35/5 12/36/5
f 2/39/4 25/38/4 15/37/4
f 25/38/4 2/39/4 5/40/4

usemtl woodDark

f 9/14/3 27/42/3 26/41/3
f 27/42/3 9/14/3 8/16/3
f 29/45/6 25/44/6 28/43/6
f 25/44/6 29/45/6 30/46/6
f 31/47/6 25/44/6 30/46/6
f 14/48/6 25/44/6 31/47/6
f 25/44/6 14/48/6 15/49/6
f 17/50/7 33/42/7 32/41/7
f 33/42/7 17/50/7 18/51/7
f 21/54/8 33/53/8 34/52/8
f 33/53/8 21/54/8 26/55/8
f 26/55/8 21/54/8 35/56/8
f 35/56/8 21/54/8 11/57/8
f 27/58/8 33/53/8 26/55/8
f 33/53/8 27/58/8 32/59/8
f 36/60/8 32/59/8 27/58/8
f 36/60/8 37/61/8 32/59/8
f 31/62/8 37/61/8 36/60/8
f 37/61/8 31/62/8 30/63/8

usemtl wood

f 5/40/4 39/65/4 38/64/4
f 39/65/4 5/40/4 40/66/4
f 41/67/3 25/19/3 5/18/3
f 25/19/3 41/67/3 28/45/3
f 24/69/3 40/68/3 5/18/3
f 22/10/3 40/68/3 24/69/3
f 40/68/3 22/10/3 42/70/3
f 24/69/3 5/18/3 16/13/3
f 16/13/3 5/18/3 4/71/3
f 16/13/3 4/71/3 3/15/3
f 38/73/1 41/72/1 5/5/1
f 41/72/1 38/73/1 43/74/1
f 7/14/3 35/41/3 11/11/3
f 6/16/3 31/75/3 36/42/3
f 31/75/3 6/16/3 14/17/3
f 9/77/6 35/11/6 7/76/6
f 35/11/6 9/77/6 26/78/6
f 27/80/1 6/79/1 36/75/1
f 6/79/1 27/80/1 8/81/1
f 41/84/4 29/83/4 28/82/4
f 29/83/4 41/84/4 43/85/4
f 23/32/2 42/86/2 22/31/2
f 42/86/2 23/32/2 44/87/2
f 20/51/7 21/89/7 34/88/7
f 38/5/7 21/89/7 20/51/7
f 39/90/7 21/89/7 38/5/7
f 39/90/7 23/91/7 21/89/7
f 23/91/7 39/90/7 44/92/7
f 38/5/7 20/51/7 19/50/7
f 19/50/7 29/93/7 38/5/7
f 37/94/7 29/93/7 19/50/7
f 29/93/7 37/94/7 30/95/7
f 38/5/7 29/93/7 43/72/7
f 20/97/6 33/80/6 18/96/6
f 33/80/6 20/97/6 34/75/6
f 39/100/9 42/99/9 44/98/9
f 42/99/9 39/100/9 40/101/9
f 37/11/1 17/102/1 32/78/1
f 17/102/1 37/11/1 19/103/1

usemtl roofRedLight

f 13/23/4 24/104/4 16/21/4
f 24/104/4 13/23/4 12/32/4

