# Created by Kenney (www.kenney.nl)

mtllib roof.mtl

g roof

v -0.4 7.219114E-16 0.5
v -0.5 0 0.5
v -0.4 0.05 0.5
v 0.5 0 -0.5
v 0.5 0.5 -0.5
v 0.4 7.219114E-16 -0.5
v 0.4 0.45 -0.5
v -0.5 0 -0.5
v -0.4 7.219114E-16 -0.5
v -0.4 0.05 -0.5
v -0.4 0.05 -0.475
v -0.4 7.219114E-16 -0.475
v 0.4 7.219114E-16 -0.475
v 0.4 0.45 -0.475
v 0.5 0 0.5
v 0.4 7.219114E-16 0.5
v 0.5 0.5 0.5
v 0.4 0.45 0.5
v -0.4 0.05 0.475
v -0.4 7.219114E-16 0.475
v 0.4 7.219114E-16 0.475
v 0.4 0.45 0.475
v 0.5 0.6259017 -0.5
v 0.5 0.6259017 0.5
v -0.5447214 -0.02236068 0.5
v -0.567082 0.02236068 0.5
v -0.4461968 0.08280331 0.5
v 0.4 0.5059017 0.5
v 0.4 0.5759017 0.5
v -0.5447214 -0.02236068 -0.5
v -0.567082 0.02236068 -0.5
v 0.4 0.5059017 -0.5
v -0.4461968 0.08280331 -0.5
v 0.4 0.5759017 -0.5

vn 0 0 1
vn 0 0 -1
vn 1 0 0
vn -1 0 0
vn 0 -1 0
vn -0.8944272 -0.4472136 0
vn 0.4472136 -0.8944272 0
vn -0.4472136 0.8944272 0

vt -15.74803 2.842171E-14
vt -19.68504 0
vt -15.74803 1.968504
vt -19.68504 19.68504
vt -15.74803 17.71654
vt 19.68504 0
vt 15.74803 2.842171E-14
vt 15.74803 1.968504
vt 19.68504 1.968504
vt 19.68504 2.842171E-14
vt 18.70079 1.968504
vt 18.70079 2.842171E-14
vt -19.68504 2.842171E-14
vt -19.68504 17.71654
vt -18.70079 2.842171E-14
vt -18.70079 17.71654
vt 19.68504 3.65673E-30
vt 19.68504 19.68504
vt 15.74803 17.71654
vt -18.70079 1.968504
vt -19.68504 1.968504
vt 18.70079 17.71654
vt 19.68504 17.71654
vt -15.74803 19.68504
vt -15.74803 18.70079
vt -15.74803 -18.70079
vt -15.74803 -19.68504
vt -19.68504 -19.68504
vt 15.74803 -18.70079
vt 15.74803 18.70079
vt 15.74803 -19.68504
vt 15.74803 19.68504
vt 19.68504 -19.68504
vt 19.68504 24.6418
vt -19.68504 24.6418
vt 19.68504 -2.631396E-12
vt -19.68504 -2.631396E-12
vt -21.44572 -0.8803417
vt -22.32607 0.8803417
vt -17.5668 3.259973
vt 15.74803 19.91739
vt 15.74803 22.6733
vt -19.68504 8.803417
vt -19.68504 10.77192
vt 19.68504 8.803417
vt 19.68504 10.77192
vt -19.68504 22.00854
vt -18.70079 22.00854
vt -19.68504 -13.20513
vt -18.70079 -13.20513
vt -19.68504 -17.60683
vt 19.68504 -17.60683
vt -19.68504 -19.57534
vt 19.68504 -19.57534
vt 18.70079 22.00854
vt 19.68504 22.00854
vt 18.70079 -13.20513
vt 19.68504 -13.20513
vt -19.68504 22.9928
vt 19.68504 22.9928
vt -19.68504 -14.25432
vt 19.68504 -14.25432
vt -19.68504 22.6733
vt 19.68504 22.6733
vt -19.68504 19.91739
vt 19.68504 19.91739
vt -19.68504 28.62698
vt 19.68504 28.62698
vt -19.68504 24.22527
vt 19.68504 24.22527
vt 21.44572 -0.8803417
vt 22.32607 0.8803417
vt 17.5668 3.259973
vt -15.74803 19.91739
vt -15.74803 22.6733

usemtl wood

f 3/3/1 2/2/1 1/1/1
f 6/1/2 5/4/2 4/2/2
f 5/4/2 6/1/2 7/5/2
f 10/8/2 9/7/2 8/6/2
f 11/11/3 9/10/3 10/9/3
f 9/10/3 11/11/3 12/12/3
f 13/15/4 7/14/4 6/13/4
f 7/14/4 13/15/4 14/16/4
f 17/18/1 16/7/1 15/17/1
f 16/7/1 17/18/1 18/19/1
f 3/21/3 20/15/3 19/20/3
f 20/15/3 3/21/3 1/13/3
f 16/10/4 22/22/4 21/12/4
f 22/22/4 16/10/4 18/23/4

usemtl stone

f 2/4/5 20/25/5 1/24/5
f 20/25/5 2/4/5 12/26/5
f 12/26/5 2/4/5 9/27/5
f 9/27/5 2/4/5 8/28/5
f 13/29/5 20/25/5 12/26/5
f 20/25/5 13/29/5 21/30/5
f 6/31/5 21/30/5 13/29/5
f 6/31/5 16/32/5 21/30/5
f 4/33/5 16/32/5 6/31/5
f 16/32/5 4/33/5 15/18/5
f 24/35/3 5/18/3 23/34/3
f 5/18/3 24/35/3 4/36/3
f 4/36/3 24/35/3 17/4/3
f 15/37/3 4/36/3 17/4/3
f 11/8/2 13/1/2 12/7/2
f 13/1/2 11/8/2 14/5/2
f 22/19/1 20/1/1 21/7/1
f 20/1/1 22/19/1 19/3/1

usemtl roof

f 2/2/1 26/39/1 25/38/1
f 26/39/1 2/2/1 3/3/1
f 26/39/1 3/3/1 27/40/1
f 27/40/1 3/3/1 18/19/1
f 27/40/1 18/19/1 28/41/1
f 28/41/1 18/19/1 17/18/1
f 28/41/1 17/18/1 24/34/1
f 28/41/1 24/34/1 29/42/1
f 25/45/6 31/44/6 30/43/6
f 31/44/6 25/45/6 26/46/6
f 3/49/7 22/48/7 18/47/7
f 22/48/7 3/49/7 19/50/7
f 25/53/7 8/52/7 2/51/7
f 8/52/7 25/53/7 30/54/7
f 11/57/7 7/56/7 14/55/7
f 7/56/7 11/57/7 10/58/7
f 33/61/8 28/60/8 32/59/8
f 28/60/8 33/61/8 27/62/8
f 32/65/4 29/64/4 34/63/4
f 29/64/4 32/65/4 28/66/4
f 34/69/8 24/68/8 23/67/8
f 24/68/8 34/69/8 29/70/8
f 31/72/2 8/6/2 30/71/2
f 8/6/2 31/72/2 10/8/2
f 10/8/2 31/72/2 33/73/2
f 10/8/2 33/73/2 7/5/2
f 7/5/2 33/73/2 32/74/2
f 7/5/2 32/74/2 5/4/2
f 5/4/2 32/74/2 23/35/2
f 23/35/2 32/74/2 34/75/2

usemtl roofLight

f 31/53/8 27/62/8 33/61/8
f 27/62/8 31/53/8 26/54/8

