# Created by Kenney (www.kenney.nl)

mtllib roofGable.mtl

g roofGable

v 0.55 0.1022748 -0.4684359
v 0.55 0.5707107 0
v -0.55 0.1022748 -0.4684359
v -0.55 0.5707107 0
v 0.55 -5.414336E-16 -0.5
v 0.5 -5.414336E-16 -0.5
v 0.55 0.5 0
v 0.5 0.1 -0.4
v 0.475 0.1 -0.4
v 0.475 0.5 0
v 0.55 0.1022748 0.4684359
v -0.55 0.1022748 0.4684359
v 0.5 -5.414336E-16 0.5
v 0.55 -5.414336E-16 0.5
v 0.5 0.1 0.4
v 0.475 0.1 0.4
v 0.55 0.03535534 0.5353553
v -0.55 0.03535534 0.5353553
v -0.5 -5.414336E-16 0.5
v -0.55 -3.609557E-16 0.5
v 0.55 0.03535534 -0.5353553
v -0.55 0.03535534 -0.5353553
v -0.5 -5.414336E-16 -0.5
v -0.55 -3.609557E-16 -0.5
v -0.475 0.1 -0.4
v -0.5 0.1 -0.4
v -0.475 0.5 0
v -0.55 0.5 0
v -0.5 0.1 0.4
v -0.475 0.1 0.4
v 0.5 -5.414336E-16 0.4
v -0.5 -5.414336E-16 -0.4
v -0.475 -5.414336E-16 -0.4
v -0.5 -5.414336E-16 0.4
v -0.475 -5.414336E-16 0.4
v 0.5 -5.414336E-16 -0.4
v 0.475 0 -0.4
v 0.475 0 0.4

vn 0 0.7071068 -0.7071068
vn 0 -0.7071068 0.7071068
vn 0 0.7071068 0.7071068
vn 0 -0.7071068 -0.7071068
vn 1 0 0
vn -1 0 0
vn 0 0 1
vn 0 0 -1
vn 0 -1 0

vt -21.65354 -10.19351
vt -21.65354 15.88793
vt 21.65354 -10.19351
vt 21.65354 15.88793
vt 21.65354 -13.91943
vt 19.68504 -13.91943
vt 21.65354 13.91943
vt 19.68504 -8.351655
vt 18.70079 -8.351655
vt 18.70079 13.91943
vt -19.68504 -13.91943
vt -21.65354 -13.91943
vt -19.68504 -8.351655
vt -21.65354 13.91943
vt -18.70079 -8.351655
vt -18.70079 13.91943
vt 19.68504 13.91943
vt -19.68504 13.91943
vt 21.07698 1.391943
vt 19.68504 -1.389693E-13
vt 18.44236 4.026565
vt 2.979581E-29 19.68504
vt 2.979581E-29 22.46892
vt -18.44236 4.026565
vt -19.68504 -1.389693E-13
vt -21.07698 1.391943
vt -19.68504 -1.271246E-13
vt -1.432312E-28 19.68504
vt -1.432312E-28 22.46892
vt 19.68504 -1.271246E-13
vt -15.74803 3.937008
vt -15.74803 -2.131628E-14
vt -19.68504 -2.131628E-14
vt -18.70079 -2.131628E-14
vt -18.70079 3.937008
vt -19.68504 3.937008
vt 19.68504 -2.131628E-14
vt 18.70079 -2.131628E-14
vt 19.68504 3.937008
vt 18.70079 3.937008
vt 15.74803 3.937008
vt 15.74803 -2.131628E-14
vt 18.70079 0
vt -18.70079 0
vt 19.68504 19.68504
vt 19.68504 15.74803
vt -19.68504 19.68504
vt 18.70079 15.74803
vt 18.70079 -15.74803
vt -18.70079 15.74803
vt -19.68504 15.74803
vt -18.70079 -15.74803
vt -19.68504 -19.68504
vt 19.68504 -19.68504
vt 19.68504 -15.74803
vt -19.68504 -15.74803
vt 0 19.68504
vt 15.74803 -1.130259E-13
vt -2.105819E-28 19.68504
vt -15.74803 -1.130259E-13

usemtl roof

f 3/3/1 2/2/1 1/1/1
f 2/2/1 3/3/1 4/4/1
f 7/7/2 6/6/2 5/5/2
f 6/6/2 7/7/2 8/8/2
f 8/8/2 7/7/2 9/9/2
f 9/9/2 7/7/2 10/10/2
f 2/4/3 12/1/3 11/3/3
f 12/1/3 2/4/3 4/2/3
f 15/13/4 14/12/4 13/11/4
f 14/12/4 15/13/4 7/14/4
f 7/14/4 15/13/4 16/15/4
f 7/14/4 16/15/4 10/16/4
f 18/2/2 14/7/2 17/4/2
f 14/7/2 18/2/2 13/17/2
f 13/17/2 18/2/2 19/18/2
f 19/18/2 18/2/2 20/14/2
f 1/21/5 5/20/5 21/19/5
f 5/20/5 1/21/5 7/22/5
f 7/22/5 1/21/5 2/23/5
f 7/22/5 2/23/5 11/24/5
f 7/22/5 11/24/5 14/25/5
f 14/25/5 11/24/5 17/26/5
f 6/18/4 21/2/4 5/14/4
f 21/2/4 6/18/4 22/4/4
f 22/4/4 6/18/4 23/17/4
f 22/4/4 23/17/4 24/7/4
f 27/16/2 26/13/2 25/15/2
f 28/14/2 26/13/2 27/16/2
f 24/12/2 26/13/2 28/14/2
f 26/13/2 24/12/2 23/11/2
f 20/5/4 29/8/4 19/6/4
f 29/8/4 20/5/4 28/7/4
f 29/8/4 28/7/4 30/9/4
f 30/9/4 28/7/4 27/10/4
f 24/27/6 3/24/6 22/26/6
f 3/24/6 24/27/6 28/28/6
f 3/24/6 28/28/6 4/29/6
f 4/29/6 28/28/6 20/30/6
f 4/29/6 20/30/6 12/21/6
f 12/21/6 20/30/6 18/19/6

usemtl wood

f 13/33/5 31/32/5 15/31/5
f 26/31/6 23/33/6 32/32/6
f 25/35/7 32/33/7 33/34/7
f 32/33/7 25/35/7 26/36/7
f 29/39/8 35/38/8 34/37/8
f 35/38/8 29/39/8 30/40/8
f 36/42/5 6/37/5 8/41/5
f 19/37/6 29/41/6 34/42/6
f 8/39/7 37/43/7 36/37/7
f 37/43/7 8/39/7 9/40/7
f 38/44/8 15/36/8 31/33/8
f 15/36/8 38/44/8 16/35/8

usemtl stone

f 19/47/9 31/46/9 13/45/9
f 31/46/9 19/47/9 38/48/9
f 38/48/9 19/47/9 37/49/9
f 37/49/9 19/47/9 35/50/9
f 35/50/9 19/47/9 34/51/9
f 33/52/9 37/49/9 35/50/9
f 23/53/9 37/49/9 33/52/9
f 6/54/9 37/49/9 23/53/9
f 37/49/9 6/54/9 36/55/9
f 23/53/9 33/52/9 32/56/9
f 35/42/6 25/31/6 33/32/6
f 25/31/6 35/42/6 27/57/6
f 27/57/6 35/42/6 30/41/6
f 10/59/5 37/58/5 9/41/5
f 37/58/5 10/59/5 38/60/5
f 38/60/5 10/59/5 16/31/5

usemtl roofLight

f 11/3/3 18/12/3 17/5/3
f 18/12/3 11/3/3 12/1/3
f 22/5/1 1/1/1 21/12/1
f 1/1/1 22/5/1 3/3/1

