# Created by Kenney (www.kenney.nl)

mtllib roofHighWindow.mtl

g roofHighWindow

v 0.5 1.140711 -0.5
v 0.5 1 -0.5
v 0.5 1.140711 0.5
v 0.5 0 -0.5
v 0.5 0 0.5
v 0.5 1 0.5
v -0.4 0 0.5
v -0.4 0 0.475
v -0.5 0 0.5
v -0.4 0 -0.475
v -0.4 0 -0.5
v -0.5 0 -0.5
v 0.4 0 -0.475
v 0.4 0 0.475
v 0.4 0 -0.5
v 0.4 0 0.5
v -0.4707107 0.54 -0.25
v -0.4707107 0.1 -0.25
v -0.03071068 0.54 -0.25
v -0.03071068 0.54 0.25
v -0.4707107 0.1 0.25
v -0.4707107 0.54 0.25
v -0.4 0.1 -0.475
v 0.4 0.9 -0.475
v 0.4 0.9 0.475
v -0.4 0.1 0.475
v -0.4707107 0.1499132 -0.2000868
v -0.4707107 0.1499132 0.2000868
v -0.4707107 0.5224128 0.2000868
v -0.4707107 0.5224128 -0.2000868
v -0.4707107 0.8507106 -3.465175E-14
v -0.4707107 0.7710892 -3.17641E-14
v -0.3707107 0.4871972 -0.1001435
v -0.5207106 0.4871972 -0.1001435
v -0.3707107 0.6116599 -3.17641E-14
v -0.4707107 0.5961244 -0.0125
v -0.4707107 0.6116599 -3.465175E-14
v -0.4957107 0.5961244 -0.0125
v -0.5207106 0.6116599 -3.17641E-14
v -0.4957107 0.6116599 -3.465175E-14
v -0.3707107 0.2498565 0.1001435
v -0.4894607 0.3298565 0.1001435
v -0.5207106 0.2498565 0.1001435
v -0.5207106 0.4871972 0.1001435
v -0.4894607 0.3548565 0.1001435
v -0.4769607 0.3548565 0.1001435
v -0.4894607 0.4448565 0.1001435
v -0.4894607 0.4698564 0.1001435
v -0.4769607 0.4698564 0.1001435
v -0.4769607 0.3298565 0.1001435
v -0.3707107 0.4871972 0.1001435
v -0.4769607 0.4448565 0.1001435
v -0.3707107 0.2498565 -0.1001435
v -0.5207106 0.2498565 -0.1001435
v -0.4769607 0.3298565 -0.1001435
v -0.4769607 0.3548565 -0.1001435
v -0.4894607 0.3548565 -0.1001435
v -0.4769607 0.4448565 -0.1001435
v -0.4769607 0.4698564 -0.1001435
v -0.4894607 0.4698564 -0.1001435
v -0.4894607 0.3298565 -0.1001435
v -0.4894607 0.4448565 -0.1001435
v -0.4707107 0.2498565 -0.0125
v -0.4957107 0.2498565 -0.0125
v -0.4957107 0.2498565 0.0125
v -0.4707107 0.2498565 0.0125
v -0.4957107 0.5961244 0.0125
v -0.4707107 0.5961244 0.0125
v 0.4 0.9 -0.5
v -0.4 0.1 0.5
v -0.4 0.1 -0.5
v 0.4 0.9 0.5
v -0.4707107 0.200282 -0.149718
v -0.4707107 0.200282 0.149718
v -0.4707107 0.5046651 0.149718
v -0.4707107 0.5046651 -0.149718
v -0.4707107 0.6907409 -3.17641E-14
v -0.5207106 0.5046651 -0.149718
v -0.5207106 0.200282 -0.149718
v -0.5207106 0.200282 0.149718
v -0.5207106 0.6907409 -3.17641E-14
v -0.5207106 0.5046651 0.149718
v -0.4769607 0.4698564 0.0125
v -0.4769607 0.4448565 0.0125
v -0.4769607 0.4448565 -0.0125
v -0.4894607 0.4448565 -0.0125
v -0.4769607 0.4698564 -0.0125
v -0.4894607 0.4698564 -0.0125
v -0.4894607 0.3298565 -0.0125
v -0.4894607 0.3548565 -0.0125
v -0.4769607 0.3298565 0.0125
v -0.4894607 0.3298565 0.0125
v -0.4769607 0.3548565 -0.0125
v -0.4769607 0.3298565 -0.0125
v -0.4894607 0.4698564 0.0125
v -0.4894607 0.4448565 0.0125
v -0.4769607 0.3548565 0.0125
v -0.4894607 0.3548565 0.0125
v -0.4707107 0.5010443 -0.2813441
v -0.5207106 0.5010443 -0.2813441
v -0.5207106 0.8507106 -3.465175E-14
v -0.06966642 0.5010443 -0.2813441
v -0.03832236 0.5323883 0.3202998
v -0.06966642 0.5010443 0.2813441
v -0.5207106 0.5323883 0.3202998
v -0.4707107 0.5010443 0.2813441
v -0.5207106 0.5010443 0.2813441
v -0.5353553 -0.03535534 -0.5
v -0.5707107 -3.609557E-16 -0.5
v -0.4707107 0.1 -0.5
v 0.4 0.9707107 -0.5
v 0.4 1.040711 -0.5
v 0.4 1.040711 0.5
v -0.03832236 0.5323883 -0.3202998
v -0.5207106 0.5323883 -0.3202998
v 0.3597599 0.9304706 -3.465175E-14
v -0.5207106 0.9304706 -3.465175E-14
v -0.5353553 -0.03535534 0.5
v -0.5707107 -3.609557E-16 0.5
v -0.4707107 0.1 0.5
v 0.4 0.9707107 0.5

vn 1 0 0
vn 0 -1 0
vn 0 0 -1
vn 0 0 1
vn -1 0 0
vn 0 -0.6268813 0.7791148
vn 0 1 0
vn 0 -0.6268813 -0.7791148
vn 0 0.6268813 0.7791148
vn 0 0.6268813 -0.7791148
vn 0 -0.7791148 0.6268813
vn -0.7071068 0.7071068 0
vn 0 -0.7791148 -0.6268813
vn 0.7071068 -0.7071068 0
vn -0.7071068 -0.7071068 0

vt 19.68504 44.90987
vt 19.68504 39.37008
vt -19.68504 44.90987
vt 19.68504 1.019945E-13
vt -19.68504 1.019945E-13
vt -19.68504 39.37008
vt -15.74803 19.68504
vt -15.74803 18.70079
vt -19.68504 19.68504
vt -15.74803 -18.70079
vt -15.74803 -19.68504
vt -19.68504 -19.68504
vt 15.74803 -18.70079
vt 15.74803 18.70079
vt 15.74803 -19.68504
vt 15.74803 19.68504
vt 19.68504 -19.68504
vt 19.68504 19.68504
vt 18.53192 21.25984
vt 18.53192 3.937008
vt 1.209082 21.25984
vt -1.209082 21.25984
vt -18.53192 3.937008
vt -18.53192 21.25984
vt 15.74803 0
vt -15.74803 0
vt 15.74803 3.937008
vt -15.74803 35.43307
vt 15.74803 35.43307
vt -15.74803 3.937008
vt -9.84252 21.25984
vt -7.877433 5.902095
vt -9.84252 3.937008
vt 9.84252 3.937008
vt 7.877433 5.902095
vt 7.877433 20.56743
vt -7.877433 20.56743
vt -1.04316E-12 33.49255
vt -8.493773E-13 30.35784
vt 9.84252 21.25984
vt -14.59491 12.47262
vt -20.50042 12.47262
vt -14.59491 18.76194
vt -18.53192 17.9769
vt -18.53192 18.76194
vt -19.51617 17.9769
vt -20.50042 18.76194
vt -19.51617 18.76194
vt 14.59491 9.836868
vt 19.27011 12.98647
vt 20.50042 9.836868
vt 20.50042 19.18099
vt 19.27011 13.97073
vt 18.77798 13.97073
vt 19.27011 17.51403
vt 19.27011 18.49829
vt 18.77798 18.49829
vt 18.77798 12.98647
vt 14.59491 19.18099
vt 18.77798 17.51403
vt -3.942659 9.836868
vt -3.942659 19.18099
vt 3.942659 9.836868
vt -1.040133E-12 24.0811
vt 3.942659 19.18099
vt -14.59491 9.836868
vt -20.50042 9.836868
vt -14.59491 19.18099
vt -18.77798 12.98647
vt -18.77798 13.97073
vt -19.27011 13.97073
vt -18.77798 17.51403
vt -18.77798 18.49829
vt -19.27011 18.49829
vt -19.27011 12.98647
vt -20.50042 19.18099
vt -19.27011 17.51403
vt 14.59491 -3.942659
vt 14.59491 3.942659
vt 20.50042 -3.942659
vt 18.53192 -0.492126
vt 19.51617 -0.492126
vt 19.51617 0.492126
vt 18.53192 0.492126
vt 20.50042 3.942659
vt 20.50042 12.47262
vt 14.59491 12.47262
vt 20.50042 18.76194
vt 19.51617 17.9769
vt 19.51617 18.76194
vt 18.53192 17.9769
vt 14.59491 18.76194
vt 18.53192 18.76194
vt -19.68504 0
vt 19.68504 3.937008
vt 19.68504 0
vt 18.70079 3.937008
vt 18.70079 0
vt 19.68504 1.097019E-30
vt 15.74803 1.097019E-30
vt 18.70079 35.43307
vt 19.68504 35.43307
vt -5.894409 7.885118
vt 5.894409 7.885118
vt 5.894409 19.8687
vt -5.894409 19.8687
vt -8.493773E-13 27.19453
vt -8.551588E-13 27.19453
vt -8.551588E-13 24.0811
vt 19.68504 9.728794E-12
vt -18.70079 3.937008
vt -18.70079 0
vt -19.68504 3.937008
vt -18.53192 7.885118
vt -20.50042 7.885118
vt -18.53192 19.8687
vt -20.50042 19.8687
vt -18.53192 11.78491
vt -20.50042 11.78491
vt -18.53192 21.18766
vt -20.50042 21.18766
vt 20.50042 11.78491
vt 18.53192 11.78491
vt 20.50042 21.18766
vt 18.53192 21.18766
vt 20.50042 7.885118
vt 18.53192 7.885118
vt 20.50042 19.8687
vt 18.53192 19.8687
vt -19.68504 35.43307
vt -18.70079 35.43307
vt -0.492126 18.49829
vt -0.492126 17.51403
vt -3.942659 18.49829
vt -3.942659 17.51403
vt 0.492126 23.46946
vt 0.492126 9.836868
vt 1.364242E-12 24.0811
vt -0.492126 9.836868
vt -0.492126 23.46946
vt -18.77798 -0.4921263
vt -18.77798 -3.94266
vt -19.27011 -0.4921263
vt -19.27011 -3.94266
vt 18.77798 -3.94266
vt 18.77798 -0.4921263
vt 19.27011 -3.94266
vt 19.27011 -0.4921263
vt -18.53192 -5.894409
vt -20.50042 -5.894409
vt -18.53192 5.894409
vt -20.50042 5.894409
vt -3.942659 12.98647
vt -3.942659 13.97073
vt -0.492126 12.98647
vt -0.492126 13.97073
vt -3.942659 18.49829
vt -18.77798 3.942659
vt -18.77798 0.4921258
vt -19.27011 3.942659
vt -19.27011 0.4921258
vt 18.77798 -3.942659
vt 18.77798 -0.4921262
vt 19.27011 -3.942659
vt 19.27011 -0.4921262
vt -18.77798 -0.4921262
vt -18.77798 -3.942659
vt -19.27011 -0.4921262
vt -19.27011 -3.942659
vt 18.77798 0.4921257
vt 18.77798 3.942659
vt 19.27011 0.4921257
vt 19.27011 3.942659
vt 0.492126 17.51403
vt 0.492126 18.49829
vt 3.942659 17.51403
vt 3.942659 18.49829
vt -18.77798 3.942659
vt -18.77798 0.4921257
vt -19.27011 3.942659
vt -19.27011 0.4921257
vt -18.53192 9.836868
vt -18.53192 23.46946
vt -19.51617 9.836868
vt -19.51617 23.46946
vt 3.942659 18.49829
vt -1.364242E-12 24.0811
vt 18.77798 0.4921258
vt 18.77798 3.942659
vt 19.27011 0.4921258
vt 19.27011 3.942659
vt 18.53192 9.836868
vt 19.51617 9.836868
vt 19.51617 23.46946
vt 18.53192 23.46946
vt 3.942659 12.98647
vt 0.492126 12.98647
vt 3.942659 13.97073
vt 0.492126 13.97073
vt -18.53192 8.425263
vt -20.50042 8.425263
vt -18.53192 10.39377
vt -20.50042 26.09454
vt -18.53192 26.09454
vt -2.742772 8.425263
vt -1.209082 10.39377
vt -1.508754 22.96435
vt -2.742772 20.99585
vt -20.50042 22.96435
vt -18.53192 20.99585
vt -20.50042 20.99585
vt 20.50042 8.425263
vt 18.53192 8.425263
vt 20.50042 26.09454
vt 18.53192 10.39377
vt 18.53192 26.09454
vt 2.742772 8.425263
vt 1.209082 10.39377
vt 21.07698 -1.391943
vt 22.46892 9.714583E-12
vt -15.74803 38.21696
vt -15.74803 40.97286
vt -19.68504 40.10773
vt -19.68504 45.6755
vt 19.68504 40.10773
vt 19.68504 45.6755
vt 1.508754 22.96435
vt 20.50042 22.96435
vt 2.742772 20.99585
vt 18.53192 20.99585
vt 20.50042 20.99585
vt -1.508754 8.425263
vt 14.16378 28.54108
vt -20.50042 28.54108
vt 19.68504 -13.91943
vt 19.68504 -15.88793
vt -19.68504 -13.91943
vt -19.68504 -15.88793
vt 19.68504 36.19051
vt 19.68504 -8.351655
vt 18.70079 36.19051
vt 18.70079 -8.351655
vt -21.07698 -1.391943
vt -22.46892 1.277255E-13
vt 15.74803 38.21696
vt 15.74803 40.97286
vt 19.68504 13.91943
vt -19.68504 13.91943
vt 19.68504 15.88793
vt -19.68504 15.88793
vt 19.68504 38.15901
vt -1.608133E-12 35.91853
vt -19.68504 38.15901
vt -12.61023 13.75423
vt -19.68504 -10.32016
vt -11.07654 12.00906
vt -9.84252 -10.32016
vt -9.84252 14.17803
vt 12.61023 13.75423
vt 19.68504 -10.32016
vt 11.07654 12.00906
vt 9.84252 -10.32016
vt 9.84252 14.17803
vt -19.68504 38.21696
vt -19.68504 40.97286
vt 19.68504 38.21696
vt 19.68504 40.97286
vt -18.70079 36.19051
vt -18.70079 -8.351655
vt -19.68504 36.19051
vt -19.68504 -8.351655
vt 1.508754 8.425263
vt 20.50042 28.54108
vt -14.16378 28.54108
vt -12.61023 20.96017
vt -1.039031E-12 36.6327
vt -11.07654 19.72615
vt -1.039031E-12 33.49255
vt 11.07654 19.72615
vt 12.61023 20.96017

usemtl woodDark

f 3/3/1 2/2/1 1/1/1
f 2/2/1 3/3/1 4/4/1
f 4/4/1 3/3/1 5/5/1
f 5/5/1 3/3/1 6/6/1
f 9/9/2 8/8/2 7/7/2
f 8/8/2 9/9/2 10/10/2
f 10/10/2 9/9/2 11/11/2
f 11/11/2 9/9/2 12/12/2
f 13/13/2 8/8/2 10/10/2
f 8/8/2 13/13/2 14/14/2
f 15/15/2 14/14/2 13/13/2
f 15/15/2 16/16/2 14/14/2
f 4/17/2 16/16/2 15/15/2
f 16/16/2 4/17/2 5/18/2
f 19/21/3 18/20/3 17/19/3
f 22/24/4 21/23/4 20/22/4
f 23/27/3 13/26/3 10/25/3
f 13/26/3 23/27/3 24/28/3
f 25/29/4 8/26/4 14/25/4
f 8/26/4 25/29/4 26/30/4
f 18/33/5 27/32/5 17/31/5
f 27/32/5 18/33/5 21/34/5
f 27/32/5 21/34/5 28/35/5
f 28/35/5 21/34/5 29/36/5
f 30/37/5 17/31/5 27/32/5
f 17/31/5 30/37/5 31/38/5
f 31/38/5 30/37/5 32/39/5
f 31/38/5 32/39/5 22/40/5
f 22/40/5 32/39/5 29/36/5
f 22/40/5 29/36/5 21/34/5
f 35/43/6 34/42/6 33/41/6
f 34/42/6 35/43/6 36/44/6
f 36/44/6 35/43/6 37/45/6
f 38/46/6 34/42/6 36/44/6
f 34/42/6 38/46/6 39/47/6
f 39/47/6 38/46/6 40/48/6
f 43/51/3 42/50/3 41/49/3
f 42/50/3 43/51/3 44/52/3
f 42/50/3 44/52/3 45/53/3
f 45/53/3 44/52/3 46/54/3
f 46/54/3 44/52/3 47/55/3
f 47/55/3 44/52/3 48/56/3
f 48/56/3 44/52/3 49/57/3
f 50/58/3 41/49/3 42/50/3
f 41/49/3 50/58/3 51/59/3
f 51/59/3 50/58/3 46/54/3
f 51/59/3 49/57/3 44/52/3
f 51/59/3 46/54/3 52/60/3
f 52/60/3 46/54/3 47/55/3
f 51/59/3 52/60/3 49/57/3
f 41/63/5 33/62/5 53/61/5
f 33/62/5 41/63/5 35/64/5
f 35/64/5 41/63/5 51/65/5
f 33/68/4 54/67/4 53/66/4
f 54/67/4 33/68/4 55/69/4
f 55/69/4 33/68/4 56/70/4
f 56/70/4 33/68/4 57/71/4
f 57/71/4 33/68/4 58/72/4
f 58/72/4 33/68/4 59/73/4
f 59/73/4 33/68/4 60/74/4
f 61/75/4 54/67/4 55/69/4
f 54/67/4 61/75/4 34/76/4
f 34/76/4 61/75/4 57/71/4
f 34/76/4 60/74/4 33/68/4
f 34/76/4 57/71/4 62/77/4
f 62/77/4 57/71/4 58/72/4
f 34/76/4 62/77/4 60/74/4
f 54/80/7 41/79/7 53/78/7
f 41/79/7 54/80/7 63/81/7
f 63/81/7 54/80/7 64/82/7
f 64/82/7 54/80/7 65/83/7
f 66/84/7 41/79/7 63/81/7
f 41/79/7 66/84/7 43/85/7
f 43/85/7 66/84/7 65/83/7
f 43/85/7 65/83/7 54/80/7
f 39/88/8 51/87/8 44/86/8
f 51/87/8 39/88/8 67/89/8
f 67/89/8 39/88/8 40/90/8
f 68/91/8 51/87/8 67/89/8
f 51/87/8 68/91/8 35/92/8
f 35/92/8 68/91/8 37/93/8

usemtl wood

f 69/28/3 4/94/3 15/26/3
f 4/94/3 69/28/3 2/6/3
f 70/30/4 9/94/4 7/26/4
f 23/97/1 11/96/1 71/95/1
f 11/96/1 23/97/1 10/98/1
f 6/2/4 16/100/4 5/99/4
f 16/100/4 6/2/4 72/29/4
f 16/96/5 25/101/5 14/98/5
f 25/101/5 16/96/5 72/102/5
f 27/32/5 73/103/5 30/37/5
f 73/103/5 27/32/5 28/35/5
f 73/103/5 28/35/5 74/104/5
f 74/104/5 28/35/5 75/105/5
f 76/106/5 30/37/5 73/103/5
f 30/37/5 76/106/5 32/39/5
f 32/39/5 76/106/5 77/107/5
f 32/39/5 77/107/5 75/105/5
f 32/39/5 75/105/5 29/36/5
f 29/36/5 75/105/5 28/35/5
f 79/103/5 54/61/5 78/106/5
f 54/61/5 79/103/5 80/104/5
f 54/61/5 80/104/5 43/63/5
f 43/63/5 80/104/5 44/65/5
f 34/62/5 78/106/5 54/61/5
f 78/106/5 34/62/5 81/108/5
f 81/108/5 34/62/5 39/109/5
f 81/108/5 39/109/5 44/65/5
f 81/108/5 44/65/5 82/105/5
f 82/105/5 44/65/5 80/104/5
f 71/27/3 11/25/3 12/110/3
f 70/113/1 8/112/1 26/111/1
f 8/112/1 70/113/1 7/94/1
f 75/116/4 80/115/4 74/114/4
f 80/115/4 75/116/4 82/117/4
f 77/120/9 82/119/9 75/118/9
f 82/119/9 77/120/9 81/121/9
f 81/124/10 76/123/10 78/122/10
f 76/123/10 81/124/10 77/125/10
f 78/128/3 73/127/3 79/126/3
f 73/127/3 78/128/3 76/129/3
f 13/112/5 69/130/5 15/94/5
f 69/130/5 13/112/5 24/131/5
f 49/134/1 84/133/1 83/132/1
f 84/133/1 49/134/1 52/135/1
f 37/138/1 63/137/1 36/136/1
f 63/137/1 37/138/1 66/139/1
f 66/139/1 37/138/1 68/140/1
f 86/143/2 58/142/2 85/141/2
f 58/142/2 86/143/2 62/144/2
f 60/147/7 87/146/7 59/145/7
f 87/146/7 60/147/7 88/148/7
f 74/151/2 79/150/2 73/149/2
f 79/150/2 74/151/2 80/152/2
f 89/155/5 57/154/5 61/153/5
f 57/154/5 89/155/5 90/156/5
f 86/133/5 60/157/5 62/135/5
f 60/157/5 86/133/5 88/132/5
f 42/160/2 91/159/2 50/158/2
f 91/159/2 42/160/2 92/161/2
f 57/164/7 93/163/7 56/162/7
f 93/163/7 57/164/7 90/165/7
f 89/168/2 55/167/2 94/166/2
f 55/167/2 89/168/2 61/169/2
f 95/172/7 49/171/7 83/170/7
f 49/171/7 95/172/7 48/173/7
f 47/176/5 95/175/5 96/174/5
f 95/175/5 47/176/5 48/177/5
f 47/180/2 84/179/2 52/178/2
f 84/179/2 47/180/2 96/181/2
f 66/182/4 91/69/4 92/75/4
f 91/69/4 66/182/4 68/183/4
f 91/69/4 68/183/4 97/70/4
f 97/70/4 68/183/4 84/72/4
f 97/70/4 84/72/4 98/71/4
f 98/71/4 84/72/4 96/77/4
f 84/72/4 68/183/4 83/73/4
f 83/73/4 68/183/4 95/74/4
f 92/75/4 65/184/4 66/182/4
f 65/184/4 92/75/4 67/185/4
f 67/185/4 92/75/4 98/71/4
f 67/185/4 98/71/4 96/77/4
f 67/185/4 96/77/4 95/74/4
f 67/185/4 95/74/4 68/183/4
f 59/186/1 85/174/1 58/176/1
f 85/174/1 59/186/1 87/175/1
f 65/137/5 38/140/5 64/139/5
f 38/140/5 65/137/5 40/187/5
f 40/187/5 65/137/5 67/136/5
f 98/190/7 46/189/7 97/188/7
f 46/189/7 98/190/7 45/191/7
f 64/193/3 89/50/3 63/192/3
f 89/50/3 64/193/3 38/194/3
f 89/50/3 38/194/3 90/53/3
f 90/53/3 38/194/3 86/55/3
f 90/53/3 86/55/3 93/54/3
f 86/55/3 38/194/3 88/56/3
f 88/56/3 38/194/3 87/57/3
f 87/57/3 38/194/3 36/195/3
f 63/192/3 94/58/3 36/195/3
f 94/58/3 63/192/3 89/50/3
f 36/195/3 94/58/3 93/54/3
f 36/195/3 93/54/3 85/60/3
f 85/60/3 93/54/3 86/55/3
f 36/195/3 85/60/3 87/57/3
f 56/198/1 94/197/1 55/196/1
f 94/197/1 56/198/1 93/199/1
f 42/196/5 98/199/5 92/197/5
f 98/199/5 42/196/5 45/198/5
f 46/154/1 91/155/1 97/156/1
f 91/155/1 46/154/1 50/153/1

usemtl roofRed

f 17/202/6 100/201/6 99/200/6
f 100/201/6 17/202/6 101/203/6
f 101/203/6 17/202/6 31/204/6
f 102/205/6 17/202/6 99/200/6
f 17/202/6 102/205/6 19/206/6
f 105/209/11 104/208/11 103/207/11
f 104/208/11 105/209/11 106/210/11
f 106/210/11 105/209/11 107/211/11
f 101/214/8 106/213/8 107/212/8
f 106/213/8 101/214/8 22/215/8
f 22/215/8 101/214/8 31/216/8
f 22/215/8 104/217/8 106/213/8
f 104/217/8 22/215/8 20/218/8
f 109/220/3 12/110/3 108/219/3
f 12/110/3 109/220/3 110/20/3
f 12/110/3 110/20/3 71/27/3
f 71/27/3 110/20/3 111/221/3
f 71/27/3 111/221/3 69/28/3
f 69/28/3 111/221/3 2/6/3
f 2/6/3 111/221/3 112/222/3
f 2/6/3 112/222/3 1/3/3
f 113/225/12 1/224/12 112/223/12
f 1/224/12 113/225/12 3/226/12
f 102/229/13 115/228/13 114/227/13
f 115/228/13 102/229/13 99/230/13
f 115/228/13 99/230/13 100/231/13
f 116/233/9 105/201/9 103/232/9
f 105/201/9 116/233/9 117/234/9
f 9/237/14 108/236/14 12/235/14
f 108/236/14 9/237/14 118/238/14
f 24/241/14 71/240/14 69/239/14
f 71/240/14 24/241/14 23/242/14
f 9/94/4 119/244/4 118/243/4
f 119/244/4 9/94/4 120/23/4
f 120/23/4 9/94/4 70/30/4
f 120/23/4 70/30/4 121/245/4
f 121/245/4 70/30/4 72/29/4
f 121/245/4 72/29/4 6/2/4
f 121/245/4 6/2/4 113/246/4
f 113/246/4 6/2/4 3/1/4
f 119/249/15 108/248/15 118/247/15
f 108/248/15 119/249/15 109/250/15
f 111/253/12 116/252/12 121/251/12
f 116/252/12 111/253/12 114/254/12
f 114/254/12 111/253/12 110/255/12
f 114/254/12 110/255/12 102/256/12
f 18/257/12 102/256/12 110/255/12
f 102/256/12 18/257/12 19/258/12
f 103/259/12 121/251/12 116/252/12
f 121/251/12 103/259/12 120/260/12
f 120/260/12 103/259/12 104/261/12
f 120/260/12 104/261/12 21/262/12
f 21/262/12 104/261/12 20/263/12
f 121/266/5 112/265/5 111/264/5
f 112/265/5 121/266/5 113/267/5
f 72/270/14 26/269/14 25/268/14
f 26/269/14 72/270/14 70/271/14
f 117/273/10 114/272/10 115/212/10
f 114/272/10 117/273/10 116/274/10
f 100/277/5 117/276/5 115/275/5
f 117/276/5 100/277/5 101/278/5
f 117/276/5 101/278/5 107/279/5
f 117/276/5 107/279/5 105/280/5

usemtl roofRedLight

f 109/238/12 18/257/12 110/255/12
f 18/257/12 109/238/12 21/262/12
f 21/262/12 109/238/12 120/260/12
f 120/260/12 109/238/12 119/236/12

