# Created by Kenney (www.kenney.nl)

mtllib roofHighCornerInner.mtl

g roofHighCornerInner

v 0.4 0.9707107 -0.4
v 0.4 1.040711 -0.4
v 0.4 0.9707107 0.5
v 0.4 1.040711 0.5
v -0.4707107 0.1 0.4707107
v -0.5 0.1 0.4707107
v -0.5 0.9707107 -0.4
v 0.5 1.140711 -0.5
v 0.5 1.140711 0.5
v -0.5 1.040711 -0.4
v -0.5 1.140711 -0.5
v -0.4707107 0.1 0.5
v -0.5 0.07071068 0.5
v -0.5 0 -0.5
v -0.5 0 0.5
v 0.5 0 -0.5
v 0.5 0 0.5

vn -1 0 0
vn 0 0.7071068 0.7071068
vn -0.7071068 0.7071068 0
vn 0 0 1
vn 1 0 0
vn 0 0 -1
vn 0 -1 0

vt -15.74803 38.21696
vt -15.74803 40.97286
vt 19.68504 38.21696
vt 19.68504 40.97286
vt -18.53192 -10.32016
vt -19.68504 -10.32016
vt 15.74803 38.15901
vt -19.68504 38.15901
vt -19.68504 45.6755
vt 19.68504 45.6755
vt -15.74803 40.10773
vt 19.68504 40.10773
vt 15.74803 40.10773
vt -19.68504 40.10773
vt 15.74803 38.21696
vt -19.68504 38.21696
vt 15.74803 40.97286
vt -19.68504 40.97286
vt -15.74803 38.15901
vt 19.68504 38.15901
vt 18.53192 -10.32016
vt 19.68504 -10.32016
vt 19.68504 -11.95092
vt -19.68504 -11.95092
vt -19.68504 44.90987
vt -19.68504 -3.236463E-12
vt 19.68504 -3.236463E-12
vt 18.53192 3.937008
vt 19.68504 2.783885
vt 19.68504 44.90987
vt 19.68504 2.989895E-13
vt -19.68504 2.989895E-13
vt 19.68504 -1.24579E-14
vt -19.68504 -1.24579E-14
vt -19.68504 -4.19649E-12
vt 19.68504 -4.19649E-12
vt -18.53192 3.937008
vt -19.68504 2.783885
vt 19.68504 -19.68504
vt -19.68504 -19.68504
vt 19.68504 19.68504
vt -19.68504 19.68504

usemtl roofRed

f 3/3/1 2/2/1 1/1/1
f 2/2/1 3/3/1 4/4/1
f 1/7/2 6/6/2 5/5/2
f 6/6/2 1/7/2 7/8/2
f 2/11/3 9/10/3 8/9/3
f 9/10/3 2/11/3 4/12/3
f 8/10/2 10/14/2 2/13/2
f 10/14/2 8/10/2 11/9/2
f 2/17/4 7/16/4 1/15/4
f 7/16/4 2/17/4 10/18/4
f 5/21/3 3/20/3 1/19/3
f 3/20/3 5/21/3 12/22/3

usemtl roofRedLight

f 13/23/3 12/22/3 5/21/3
f 6/6/2 13/24/2 5/5/2

usemtl woodDark

f 14/26/1 7/1/1 11/25/1
f 7/1/1 14/26/1 15/27/1
f 7/1/1 15/27/1 6/28/1
f 6/28/1 15/27/1 13/29/1
f 10/2/1 11/25/1 7/1/1
f 9/25/5 16/31/5 8/30/5
f 16/31/5 9/25/5 17/32/5
f 11/30/6 16/34/6 14/33/6
f 16/34/6 11/30/6 8/25/6
f 17/36/4 3/15/4 15/35/4
f 3/15/4 17/36/4 9/30/4
f 15/35/4 3/15/4 12/37/4
f 15/35/4 12/37/4 13/38/4
f 3/15/4 9/30/4 4/17/4
f 17/41/7 14/40/7 16/39/7
f 14/40/7 17/41/7 15/42/7

