# Created by Kenney (www.kenney.nl)

mtllib treeHigh.mtl

g treeHigh

v -7.219114E-16 1.04544 -0.5115
v 0.3616851 1.04544 -0.3616851
v 5.05338E-15 1.33144 -0.363165
v 0.2567964 1.33144 -0.2567964
v -0.290532 1.74834 -1.443823E-15
v -0.2054371 1.74834 0.2054371
v -0.4092 1.51954 1.443823E-15
v -0.2893481 1.51954 0.2893481
v -0.1423316 2.452416 -2.887646E-15
v 3.609557E-15 2.972761 -2.887646E-15
v -0.1006437 2.452416 0.1006437
v -0.2004671 2.31408 -1.443823E-15
v -0.1417516 2.31408 0.1417516
v 0.282348 1.89816 -1.443823E-15
v 0.2325408 1.89816 -1.443823E-15
v 0.1996502 1.89816 0.1996502
v 0.1644312 1.89816 0.1644312
v 2.165734E-15 1.89816 0.282348
v 5.05338E-15 1.89816 0.2325408
v -0.1644312 1.89816 0.1644312
v -0.1996502 1.89816 0.1996502
v -0.2325408 1.89816 -4.331469E-15
v -0.282348 1.89816 -1.443823E-15
v 0.1996502 1.89816 -0.1996502
v 0.1644312 1.89816 -0.1644312
v 2.165734E-15 1.89816 -0.282348
v 5.05338E-15 1.89816 -0.2325408
v -0.1644312 1.89816 -0.1644312
v -0.1996502 1.89816 -0.1996502
v -0.139612 2.31408 -4.331469E-15
v -0.09872058 2.31408 0.09872058
v -0.2004671 2.106551 -2.887646E-15
v -0.1417516 2.106551 0.1417516
v 5.05338E-15 2.106551 0.2004671
v 9.384848E-15 2.31408 0.139612
v 3.609557E-15 2.31408 -0.2004671
v 0.1417516 2.31408 -0.1417516
v 5.05338E-15 2.452416 -0.1423316
v 0.1006437 2.452416 -0.1006437
v 0.1417516 2.31408 0.1417516
v 3.609557E-15 2.31408 0.2004671
v 0.1006437 2.452416 0.1006437
v 5.05338E-15 2.452416 0.1423316
v -7.219114E-16 1.04544 0.5115
v -0.3616851 1.04544 0.3616851
v 5.05338E-15 1.33144 0.363165
v -0.2567964 1.33144 0.2567964
v -7.219114E-16 1.51954 0.4092
v 3.609557E-15 1.74834 0.290532
v 0.2893481 1.51954 0.2893481
v 0.2054371 1.74834 0.2054371
v -7.219114E-16 1.51954 -0.4092
v 0.2893481 1.51954 -0.2893481
v 3.609557E-15 1.74834 -0.290532
v 0.2054371 1.74834 -0.2054371
v 0.290532 1.74834 -1.443823E-15
v -0.1417516 2.106551 -0.1417516
v -0.09872058 2.31408 -0.09872058
v -0.1417516 2.31408 -0.1417516
v -0.1006437 2.452416 -0.1006437
v 0.363165 1.33144 -4.331469E-15
v 0.5115 1.04544 1.443823E-15
v 0.2567964 1.33144 0.2567964
v 0.3616851 1.04544 0.3616851
v 0.1417516 2.106551 -0.1417516
v 0.2004671 2.106551 -2.887646E-15
v 0.2004671 2.31408 -1.443823E-15
v 0.1423316 2.452416 -2.887646E-15
v 0.4092 1.51954 1.443823E-15
v -0.363165 1.33144 -4.331469E-15
v -0.5115 1.04544 1.443823E-15
v -0.2893481 1.51954 -0.2893481
v -0.2054371 1.74834 -0.2054371
v 0.09872058 2.31408 -0.09872058
v 0.139612 2.31408 -2.887646E-15
v 6.497203E-15 1.51954 -0.2903567
v 0.2053132 1.51954 -0.2053132
v 0.1417516 2.106551 0.1417516
v 0.09872058 2.31408 0.09872058
v 0.2903567 1.51954 -2.887646E-15
v 0.2053132 1.51954 0.2053132
v 7.941025E-15 1.51954 0.2903567
v -0.2053132 1.51954 0.2053132
v -0.2903567 1.51954 -2.887646E-15
v -0.2053132 1.51954 -0.2053132
v -0.2567964 1.33144 -0.2567964
v -0.3616851 1.04544 -0.3616851
v 5.05338E-15 2.106551 -0.2004671
v 2.165734E-15 2.31408 -0.139612
v 0.05558124 1.04544 0.05558124
v -0.05558124 1.04544 0.05558124
v -0.05558124 1.04544 -0.05558124
v 0.05558124 1.04544 -0.05558124
v 0.14432 0 0.14432
v -0.14432 0 0.14432
v 0.093808 0.17648 0.093808
v -0.093808 0.17648 0.093808
v -0.14432 0 -0.14432
v -0.093808 0.17648 -0.093808
v 0.14432 0 -0.14432
v 0.093808 0.17648 -0.093808
v -0.1825202 0.3442548 -0.04459999
v -0.1803403 0.3938069 -0.04459999
v -0.1825202 0.3442548 -0.004919992
v -0.1803403 0.3938069 -0.004919992
v -0.08728098 0.3248504 -0.05675999
v -0.08376507 0.4047731 -0.05675999
v -0.08376507 0.4047731 0.007240008
v -0.08728098 0.3248504 0.007240008
v 0.03548573 0.7464569 0.06873392
v 0.03548573 0.810395 0.06592119
v -0.02851427 0.810395 0.06592119
v -0.02851427 0.7464569 0.06873392
v 0.02268573 0.7641668 0.1800632
v -0.01571427 0.7641668 0.1800632
v 0.02268573 0.8025297 0.1783755
v -0.01571427 0.8025297 0.1783755

vn 0.3451091 0.4321253 -0.8331671
vn 0.3524331 0.3896761 -0.8508487
vn -0.8508487 0.3896761 0.3524331
vn -0.8331671 0.4321253 0.3451091
vn -0.8787771 0.3086322 0.3640014
vn -0.8957203 0.2450095 0.3710195
vn -0.8612435 0.3619348 0.3567388
vn 0 -1 0
vn -0.8917344 0.2614892 0.3693685
vn -0.8799357 0.3047398 0.3644813
vn -0.3644813 0.3047398 0.8799357
vn -0.3693685 0.2614892 0.8917344
vn 0.3567388 0.3619348 -0.8612435
vn 0.3640014 0.3086322 -0.8787771
vn -0.3597156 0.3412233 0.8684304
vn 0.3567388 0.3619348 0.8612435
vn 0.3640014 0.3086322 0.8787771
vn -0.3451091 0.4321253 0.8331671
vn -0.3524331 0.3896761 0.8508487
vn 0.3451091 0.4321253 0.8331671
vn 0.3524331 0.3896761 0.8508487
vn 0.8508487 0.3896761 -0.3524331
vn 0.8699278 0.336725 -0.3603359
vn -0.8799357 0.3047398 -0.3644813
vn -0.8917344 0.2614892 -0.3693685
vn 0.3710195 0.2450095 0.8957203
vn -0.3567388 0.3619348 -0.8612435
vn -0.3640014 0.3086322 -0.8787771
vn 0.8508487 0.3896761 0.3524331
vn 0.8331671 0.4321253 0.3451091
vn -0.8612435 0.3619348 -0.3567388
vn -0.8787771 0.3086322 -0.3640014
vn -0.3603359 0.336725 0.8699278
vn 0.8684304 0.3412233 -0.3597156
vn 0.8799357 0.3047398 -0.3644813
vn 0.8612435 0.3619348 -0.3567388
vn 0.8787771 0.3086322 -0.3640014
vn 0.8331671 0.4321253 -0.3451091
vn -0.8331671 0.4321253 -0.3451091
vn -0.8508487 0.3896761 -0.3524331
vn 0.8917344 0.2614892 -0.3693685
vn 0.8957203 0.2450095 0.3710195
vn 0.8787771 0.3086322 0.3640014
vn 0.3603359 0.336725 -0.8699278
vn 0.3644813 0.3047398 0.8799357
vn 0.3693685 0.2614892 0.8917344
vn 0.8957203 0.2450095 -0.3710195
vn 0.3603359 0.336725 0.8699278
vn -0.8699278 0.336725 -0.3603359
vn 0.8917344 0.2614892 0.3693685
vn 0.8799357 0.3047398 0.3644813
vn -0.8684304 0.3412233 0.3597156
vn 0.8612435 0.3619348 0.3567388
vn 0.3710195 0.2450095 -0.8957203
vn -0.3567388 0.3619348 0.8612435
vn -0.3640014 0.3086322 0.8787771
vn -0.8684304 0.3412233 -0.3597156
vn 0.3597156 0.3412233 -0.8684304
vn 0.3644813 0.3047398 -0.8799357
vn 0.8699278 0.336725 0.3603359
vn 0.3597156 0.3412233 0.8684304
vn -0.8699278 0.336725 0.3603359
vn -0.3597156 0.3412233 -0.8684304
vn -0.3644813 0.3047398 -0.8799357
vn -0.3524331 0.3896761 -0.8508487
vn -0.3603359 0.336725 -0.8699278
vn -0.3710195 0.2450095 0.8957203
vn -0.3451091 0.4321253 -0.8331671
vn -0.8957203 0.2450095 -0.3710195
vn -0.3693685 0.2614892 -0.8917344
vn -0.3710195 0.2450095 -0.8957203
vn 0.8684304 0.3412233 0.3597156
vn 0.3693685 0.2614892 -0.8917344
vn 0 0.2751701 0.9613956
vn 0 0.1714603 0.985191
vn -0.9613956 0.2751701 0
vn -0.985191 0.1714603 0
vn 0 0.2751701 -0.9613956
vn 0 0.1714603 -0.985191
vn 0.9613956 0.2751701 0
vn 0.985191 0.1714603 0
vn -0.9990338 0.04394889 0
vn -0.1255412 0.005522731 -0.992073
vn -0.112826 0.9936148 0
vn -0.1255412 0.005522731 0.992073
vn -0.1996423 -0.9798688 0
vn 0 0.04394889 -0.9990338
vn 0 0.04394889 0.9990338
vn 0.9990338 0.04394889 0
vn 0 -0.9875824 0.1571015
vn 0 0.997563 0.06977224
vn -0.9935327 0.004990246 0.1134369
vn 0.9935327 0.004990246 0.1134369

vt 7.7064 29.07815
vt -7.7064 29.07815
vt 5.471544 41.56392
vt -5.471544 41.56392
vt -4.377235 57.50737
vt 4.377235 57.50737
vt -6.165121 47.51875
vt 6.165121 47.51875
vt -2.144408 92.34057
vt -5.065035E-14 113.4706
vt 2.144408 92.34057
vt -2.144408 88.13218
vt 2.144408 88.13218
vt -3.020293 82.28977
vt 3.020293 82.28977
vt 11.11606 -5.684342E-14
vt 9.15515 -5.684342E-14
vt 7.860243 7.860243
vt 6.473669 6.473669
vt 8.526513E-14 11.11606
vt 1.98952E-13 9.15515
vt -6.473669 6.473669
vt -7.860243 7.860243
vt -9.15515 -1.705303E-13
vt -11.11606 -5.684342E-14
vt 7.860243 -7.860243
vt 6.473669 -6.473669
vt 8.526513E-14 -11.11606
vt 1.98952E-13 -9.15515
vt -6.473669 -6.473669
vt -7.860243 -7.860243
vt -2.103433 86.60774
vt 2.103433 86.60774
vt -3.020293 78.14278
vt 3.020293 78.14278
vt 4.253933 66.74121
vt -4.253933 66.74121
vt 3.020293 75.46943
vt -3.020293 75.46943
vt 4.377235 61.25432
vt -4.377235 61.25432
vt 3.503524 67.51855
vt -3.503524 67.51855
vt 1.747972E-13 113.4706
vt 1.576392E-13 113.4706
vt 5.471544 44.90983
vt -5.471544 44.90983
vt 4.374594 52.77462
vt -4.374594 52.77462
vt 16.11024 5.684342E-14
vt 11.43137 -1.136868E-13
vt 11.39166 11.39166
vt 8.083196 8.083196
vt -2.842171E-14 16.11024
vt 3.126388E-13 11.43137
vt -8.083196 8.083196
vt -11.39166 11.39166
vt -11.43137 -1.136868E-13
vt -16.11024 5.684342E-14
vt 11.39166 -11.39166
vt 8.083196 -8.083196
vt -2.842171E-14 -16.11024
vt 2.557954E-13 -11.43137
vt -8.083196 -8.083196
vt -11.39166 -11.39166
vt 4.8874E-14 113.4706
vt -8.778511E-14 113.4706
vt 8.956146E-14 113.4706
vt 7.892405 -5.684342E-14
vt 5.580773 -5.580773
vt 5.580773 5.580773
vt 5.496535 -1.136868E-13
vt 3.886637 3.886637
vt 1.421085E-13 7.892405
vt 3.694822E-13 5.496535
vt -3.886637 3.886637
vt -5.580773 5.580773
vt -5.496535 -1.705303E-13
vt 3.886637 -3.886637
vt 1.421085E-13 -7.892405
vt 8.526513E-14 -5.496535
vt -5.580773 -5.580773
vt -3.886637 -3.886637
vt -7.892405 -5.684342E-14
vt -1.594155E-13 113.4706
vt -1.747972E-13 113.4706
vt 20.13779 5.818649E-14
vt 14.23957 -14.23957
vt 14.23957 14.23957
vt -2.882274E-14 20.13779
vt 2.188238 2.188238
vt -2.188238 2.188238
vt -14.23957 14.23957
vt -2.188238 -2.188238
vt 2.188238 -2.188238
vt -2.882274E-14 -20.13779
vt -14.23957 -14.23957
vt -20.13779 5.818649E-14
vt 5.68189 -1.563486
vt -5.68189 -1.563486
vt 3.693228 5.663541
vt -3.693228 5.663541
vt 5.68189 5.68189
vt 5.68189 -5.68189
vt -5.68189 5.68189
vt -5.68189 -5.68189
vt -1.755905 13.22443
vt -1.755905 15.17719
vt -0.1937005 13.22443
vt -0.1937005 15.17719
vt 3.128528 12.77456
vt 2.991201 15.92118
vt 6.90854 13.53853
vt 6.823397 15.48943
vt -2.234645 -1.478791
vt 0.2850397 -1.478791
vt -1.755905 -5.305401
vt -0.1937005 -5.305401
vt -3.373287 12.78525
vt -7.153299 13.54921
vt -3.235961 15.93186
vt -7.068157 15.50011
vt 0.2850397 5.920385
vt -2.234645 5.920385
vt -0.1937005 9.746995
vt -1.755905 9.746995
vt -3.693228 6.779005
vt -2.234645 12.62601
vt 3.693228 6.779005
vt 0.2850397 12.62601
vt 0.2850397 15.77561
vt 2.188238 41.02312
vt -2.234645 15.77561
vt -2.188238 41.02312
vt 1.397076 29.24074
vt 1.397076 31.76043
vt -1.122609 31.76043
vt -1.122609 29.24074
vt 1.397076 7.289368
vt -1.122609 7.289368
vt 0.8931391 11.72752
vt -0.618672 11.72752
vt 1.397076 -0.3628928
vt 0.8931391 -4.801044
vt -1.122609 -0.3628928
vt -0.618672 -4.801044
vt 2.451223 31.89788
vt 6.907146 31.58822
vt 2.561246 29.3806
vt 6.97316 30.07785
vt -2.420088 31.89652
vt -2.530111 29.37924
vt -6.876011 31.58686
vt -6.942025 30.07649
vt 0.8931391 29.74468
vt -0.618672 29.74468
vt 0.8931391 31.25649
vt -0.618672 31.25649

usemtl foliage

f 3/3/2 2/2/1 1/1/1
f 2/2/1 3/3/2 4/4/2
f 7/7/4 6/6/3 5/5/3
f 6/6/3 7/7/4 8/8/4
f 11/11/5 10/10/6 9/9/5
f 12/14/7 11/13/5 9/12/5
f 11/13/5 12/14/7 13/15/7
f 16/18/8 15/17/8 14/16/8
f 15/17/8 16/18/8 17/19/8
f 17/19/8 16/18/8 18/20/8
f 17/19/8 18/20/8 19/21/8
f 19/21/8 18/20/8 20/22/8
f 20/22/8 18/20/8 21/23/8
f 20/22/8 21/23/8 22/24/8
f 22/24/8 21/23/8 23/25/8
f 15/17/8 24/26/8 14/16/8
f 24/26/8 15/17/8 25/27/8
f 24/26/8 25/27/8 26/28/8
f 26/28/8 25/27/8 27/29/8
f 26/28/8 27/29/8 28/30/8
f 26/28/8 28/30/8 29/31/8
f 29/31/8 28/30/8 22/24/8
f 29/31/8 22/24/8 23/25/8
f 32/34/10 31/33/9 30/32/9
f 31/33/9 32/34/10 33/35/10
f 35/33/12 33/34/11 34/35/11
f 33/34/11 35/33/12 31/32/12
f 38/13/14 37/14/13 36/15/13
f 37/14/13 38/13/14 39/12/14
f 34/38/11 21/37/15 18/36/15
f 21/37/15 34/38/11 33/39/11
f 42/13/17 41/14/16 40/15/16
f 41/14/16 42/13/17 43/12/17
f 46/3/19 45/2/18 44/1/18
f 45/2/18 46/3/19 47/4/19
f 49/6/19 8/7/18 48/8/18
f 8/7/18 49/6/19 6/5/19
f 51/6/21 48/7/20 50/8/20
f 48/7/20 51/6/21 49/5/21
f 54/6/2 53/7/1 52/8/1
f 53/7/1 54/6/2 55/5/2
f 25/42/23 56/41/22 55/40/22
f 56/41/22 25/42/23 15/43/23
f 32/35/24 58/32/25 57/34/24
f 58/32/25 32/35/24 30/33/25
f 10/44/26 43/9/17 42/11/17
f 60/13/28 36/14/27 59/15/27
f 36/14/27 60/13/28 38/12/28
f 63/4/29 62/1/30 61/3/29
f 62/1/30 63/4/29 64/2/30
f 12/15/31 60/12/32 59/14/31
f 60/12/32 12/15/31 9/13/32
f 19/42/33 6/41/19 49/40/19
f 6/41/19 19/42/33 20/43/33
f 65/38/35 14/37/34 24/36/34
f 14/37/34 65/38/35 66/39/35
f 39/13/37 67/14/36 37/15/36
f 67/14/36 39/13/37 68/12/37
f 55/6/22 69/7/38 53/8/38
f 69/7/38 55/6/22 56/5/22
f 71/2/4 47/3/3 70/4/3
f 47/3/3 71/2/4 45/1/4
f 7/8/39 73/5/40 72/7/39
f 73/5/40 7/8/39 5/6/40
f 74/33/41 66/34/35 65/35/35
f 66/34/35 74/33/41 75/32/41
f 42/9/43 68/11/43 10/45/42
f 76/48/44 4/47/2 3/46/2
f 4/47/2 76/48/44 77/49/44
f 79/33/46 34/34/45 78/35/45
f 34/34/45 79/33/46 35/32/46
f 63/3/21 44/2/20 64/1/20
f 44/2/20 63/3/21 46/4/21
f 50/52/8 80/51/8 69/50/8
f 80/51/8 50/52/8 81/53/8
f 81/53/8 50/52/8 48/54/8
f 81/53/8 48/54/8 82/55/8
f 82/55/8 48/54/8 83/56/8
f 83/56/8 48/54/8 8/57/8
f 83/56/8 8/57/8 84/58/8
f 84/58/8 8/57/8 7/59/8
f 80/51/8 53/60/8 69/50/8
f 53/60/8 80/51/8 77/61/8
f 53/60/8 77/61/8 52/62/8
f 52/62/8 77/61/8 76/63/8
f 52/62/8 76/63/8 85/64/8
f 52/62/8 85/64/8 72/65/8
f 72/65/8 85/64/8 84/58/8
f 72/65/8 84/58/8 7/59/8
f 68/9/37 39/11/37 10/66/47
f 17/42/48 49/41/21 51/40/21
f 49/41/21 17/42/48 19/43/48
f 5/40/40 28/43/49 73/41/40
f 28/43/49 5/40/40 22/42/49
f 79/32/50 66/35/51 75/33/50
f 66/35/51 79/32/50 78/34/51
f 23/37/52 33/38/10 32/39/10
f 33/38/10 23/37/52 21/36/52
f 42/12/43 67/15/53 68/13/43
f 67/15/53 42/12/43 40/14/53
f 70/46/40 85/49/49 86/47/40
f 85/49/49 70/46/40 84/48/49
f 71/1/39 86/4/40 87/2/39
f 86/4/40 71/1/39 70/3/40
f 10/67/54 39/9/14 38/11/14
f 43/13/56 13/14/55 41/15/55
f 13/14/55 43/13/56 11/12/56
f 51/5/29 69/8/30 56/6/29
f 69/8/30 51/5/29 50/7/30
f 81/48/48 46/47/21 63/46/21
f 46/47/21 81/48/48 82/49/48
f 23/36/57 57/39/24 29/37/57
f 57/39/24 23/36/57 32/38/24
f 88/38/59 24/37/58 26/36/58
f 24/37/58 88/38/59 65/39/59
f 17/43/60 56/40/29 15/42/60
f 56/40/29 17/43/60 51/41/29
f 78/38/45 18/37/61 16/36/61
f 18/37/61 78/38/45 34/39/45
f 47/46/3 84/49/62 70/47/3
f 84/49/62 47/46/3 83/48/62
f 57/38/64 26/37/63 29/36/63
f 26/37/63 57/38/64 88/39/64
f 27/42/44 55/41/2 54/40/2
f 55/41/2 27/42/44 25/43/44
f 85/48/66 3/47/65 86/46/65
f 3/47/65 85/48/66 76/49/66
f 5/41/3 20/42/62 22/43/62
f 20/42/62 5/41/3 6/40/3
f 4/3/22 62/2/38 2/1/38
f 62/2/38 4/3/22 61/4/22
f 10/68/67 11/9/56 43/11/56
f 40/71/8 37/70/8 67/69/8
f 37/70/8 40/71/8 75/72/8
f 75/72/8 40/71/8 79/73/8
f 79/73/8 40/71/8 41/74/8
f 79/73/8 41/74/8 35/75/8
f 35/75/8 41/74/8 31/76/8
f 31/76/8 41/74/8 13/77/8
f 31/76/8 13/77/8 30/78/8
f 74/79/8 37/70/8 75/72/8
f 37/70/8 74/79/8 36/80/8
f 36/80/8 74/79/8 89/81/8
f 36/80/8 89/81/8 59/82/8
f 59/82/8 30/78/8 13/77/8
f 59/82/8 89/81/8 58/83/8
f 59/82/8 58/83/8 30/78/8
f 59/82/8 13/77/8 12/84/8
f 86/3/65 1/2/68 87/1/68
f 1/2/68 86/3/65 3/4/65
f 10/85/69 60/9/32 9/11/32
f 80/48/60 63/47/29 61/46/29
f 63/47/29 80/48/60 81/49/60
f 77/48/23 61/47/22 4/46/22
f 61/47/22 77/48/23 80/49/23
f 58/33/70 88/34/64 57/35/64
f 88/34/64 58/33/70 89/32/70
f 28/42/66 54/41/65 73/40/65
f 54/41/65 28/42/66 27/43/66
f 10/86/71 38/9/28 60/11/28
f 78/39/51 14/36/72 66/38/51
f 14/36/72 78/39/51 16/37/72
f 73/6/65 52/7/68 72/8/68
f 52/7/68 73/6/65 54/5/65
f 89/33/73 65/34/59 88/35/59
f 65/34/59 89/33/73 74/32/73
f 82/48/33 47/47/19 46/46/19
f 47/47/19 82/48/33 83/49/33
f 64/89/8 2/88/8 62/87/8
f 2/88/8 64/89/8 44/90/8
f 2/88/8 44/90/8 90/91/8
f 90/91/8 44/90/8 91/92/8
f 91/92/8 44/90/8 45/93/8
f 91/92/8 45/93/8 92/94/8
f 93/95/8 2/88/8 90/91/8
f 2/88/8 93/95/8 1/96/8
f 1/96/8 93/95/8 92/94/8
f 1/96/8 92/94/8 87/97/8
f 87/97/8 92/94/8 45/93/8
f 87/97/8 45/93/8 71/98/8

usemtl wood

f 96/101/75 95/100/74 94/99/74
f 95/100/74 96/101/75 97/102/75
f 95/99/76 99/102/77 98/100/76
f 99/102/77 95/99/76 97/101/77
f 99/101/79 100/100/78 98/99/78
f 100/100/78 99/101/79 101/102/79
f 101/101/81 94/100/80 100/99/80
f 94/100/80 101/101/81 96/102/81
f 95/105/8 100/104/8 94/103/8
f 100/104/8 95/105/8 98/106/8
f 104/109/82 103/108/82 102/107/82
f 103/108/82 104/109/82 105/110/82
f 102/113/83 107/112/83 106/111/83
f 107/112/83 102/113/83 103/114/83
f 103/117/84 108/116/84 107/115/84
f 108/116/84 103/117/84 105/118/84
f 108/121/85 104/120/85 109/119/85
f 104/120/85 108/121/85 105/122/85
f 104/125/86 106/124/86 109/123/86
f 106/124/86 104/125/86 102/126/86
f 97/129/77 106/128/82 99/127/77
f 106/128/82 97/129/77 109/130/82
f 109/130/82 97/129/77 108/131/82
f 108/131/82 97/129/77 91/132/82
f 107/133/82 99/127/77 106/128/82
f 99/127/77 107/133/82 92/134/82
f 92/134/82 107/133/82 108/131/82
f 92/134/82 108/131/82 91/132/82
f 92/132/87 101/127/79 99/129/79
f 101/127/79 92/132/87 93/134/87
f 96/129/75 110/135/88 97/127/75
f 110/135/88 96/129/75 90/132/88
f 110/135/88 90/132/88 111/136/88
f 111/136/88 90/132/88 112/137/88
f 113/138/88 97/127/75 110/135/88
f 97/127/75 113/138/88 91/134/88
f 91/134/88 113/138/88 112/137/88
f 91/134/88 112/137/88 90/132/88
f 93/132/89 96/127/81 101/129/81
f 96/127/81 93/132/89 90/134/89
f 114/141/90 113/140/90 110/139/90
f 113/140/90 114/141/90 115/142/90
f 112/145/91 116/144/91 111/143/91
f 116/144/91 112/145/91 117/146/91
f 113/149/92 117/148/92 112/147/92
f 117/148/92 113/149/92 115/150/92
f 116/153/93 110/152/93 111/151/93
f 110/152/93 116/153/93 114/154/93
f 116/157/88 115/156/88 114/155/88
f 115/156/88 116/157/88 117/158/88

