# Created by Kenney (www.kenney.nl)

mtllib wallWindowStone.mtl

g wallWindowStone

v 0.425 0.75 -0.11
v 0.425 0.75 -0.055
v 0.4 0.75 -0.11
v 0.4125 0.75 -0.055
v 0.4125 0.75 0.055
v 0.4 0.75 0.11
v 0.425 0.75 0.11
v 0.425 0.75 0.055
v 0.5 0.3 -0.06
v 0.4 0.3 -0.06
v 0.5 0.7 -0.06
v 0.4 0.7 -0.06
v 0.4125 0.8 -0.055
v 0.4125 0.8 0.055
v 0.4125 0.2 -0.055
v 0.425 0.2 -0.055
v 0.4125 0.25 -0.055
v 0.425 0.25 -0.055
v 0.425 0.575 0.11
v 0.4125 0.575 0.11
v 0.4125 0.4375 0.11
v 0.4 0.25 0.11
v 0.425 0.4375 0.11
v 0.425 0.25 0.11
v 0.475 0.575 -0.11
v 0.4875 0.575 -0.11
v 0.475 0.75 -0.11
v 0.5 0.75 -0.11
v 0.4875 0.4375 -0.11
v 0.5 0.25 -0.11
v 0.475 0.4375 -0.11
v 0.475 0.25 -0.11
v 0.425 0.8 -0.055
v 0.425 0.8 0.055
v 0.475 0.75 -0.055
v 0.4875 0.75 -0.055
v 0.475 0.8 -0.055
v 0.4875 0.8 -0.055
v 0.475 0.4375 -0.16
v 0.4875 0.4375 -0.16
v 0.475 0.575 -0.16
v 0.4875 0.575 -0.16
v 0.425 0.575 -0.16
v 0.425 0.575 -0.11
v 0.4125 0.575 -0.16
v 0.4125 0.575 -0.11
v 0.4875 0.8 0.055
v 0.475 0.8 0.055
v 0.4875 0.2 0.055
v 0.475 0.2 0.055
v 0.4875 0.25 0.055
v 0.475 0.25 0.055
v 0.4875 0.25 -0.055
v 0.4875 0.2 -0.055
v 0.4125 0.4375 0.16
v 0.4125 0.575 0.16
v 0.5 0.25 0.11
v 0.4875 0.425 0.11
v 0.5 0.75 0.11
v 0.4875 0.575 0.11
v 0.475 0.575 0.11
v 0.475 0.75 0.11
v 0.475 0.425 0.11
v 0.475 0.25 0.11
v 0.5 0.3 0.06
v 0.4 0.3 0.06
v 0.5 0.7 0.06
v 0.425 0.25 0.055
v 0.4125 0.25 0.055
v 0.4 0.25 -0.11
v 0.425 0.25 -0.11
v 0.475 0.2 -0.055
v 0.475 0.25 -0.055
v 0.4125 0.425 -0.11
v 0.425 0.425 -0.11
v 0.425 0.575 0.16
v 0.425 0.2 0.055
v 0.4125 0.2 0.055
v 0.425 0.4375 0.16
v 0.425 0.425 -0.16
v 0.4125 0.425 -0.16
v 0.4 0.7 0.06
v 0.4875 0.575 0.16
v 0.475 0.575 0.16
v 0.4875 0.425 0.16
v 0.4875 0.75 0.055
v 0.475 0.75 0.055
v 0.475 0.425 0.16
v 0.475 0 0.4
v 0.5 0 0.4
v 0.475 1 0.4
v 0.5 1 0.4
v 0.425 0 -0.4
v 0.4 0 -0.4
v 0.425 1 -0.4
v 0.4 1 -0.4
v 0.4 0 0.4
v 0.4 1 0.4
v 0.4 0 0.5
v 0.4 1 0.5
v 0.5 0 -0.4
v 0.475 0 -0.4
v 0.5 1 -0.4
v 0.475 1 -0.4
v 0.5 1 -0.5
v 0.5 0 -0.5
v 0.4 1 -0.5
v 0.4 0 -0.5
v 0.5 1 0.5
v 0.425 1 0.4
v 0.425 0 0.4
v 0.5 0 0.5

vn 0 1 0
vn 0 0 1
vn -1 0 0
vn 0 0 -1
vn 1 0 0
vn 0 -1 0

vt -16.73228 -4.330709
vt -16.73228 -2.165354
vt -15.74803 -4.330709
vt -16.24016 -2.165354
vt -16.24016 2.165354
vt -15.74803 4.330709
vt -16.73228 4.330709
vt -16.73228 2.165354
vt 19.68504 11.81102
vt 15.74803 11.81102
vt 19.68504 27.55906
vt 15.74803 27.55906
vt -2.165354 29.52756
vt -2.165354 31.49606
vt 2.165354 29.52756
vt 2.165354 31.49606
vt -16.24016 7.874016
vt -16.73228 7.874016
vt -16.24016 9.84252
vt -16.73228 9.84252
vt 16.73228 22.63779
vt 16.24016 22.63779
vt 16.73228 29.52756
vt 15.74803 29.52756
vt 16.24016 17.22441
vt 15.74803 9.84252
vt 16.73228 17.22441
vt 16.73228 9.84252
vt -18.70079 22.63779
vt -19.19291 22.63779
vt -18.70079 29.52756
vt -19.68504 29.52756
vt -19.19291 17.22441
vt -19.68504 9.84252
vt -18.70079 17.22441
vt -18.70079 9.84252
vt -19.19291 29.52756
vt -18.70079 31.49606
vt -19.19291 31.49606
vt -16.73228 -6.299212
vt -16.24016 -6.299212
vt -16.24016 -4.330709
vt -19.19291 2.165354
vt -18.70079 2.165354
vt -19.19291 -2.165354
vt -18.70079 -2.165354
vt 19.19291 7.874016
vt 18.70079 7.874016
vt 19.19291 9.84252
vt 18.70079 9.84252
vt 2.165354 9.84252
vt 2.165354 7.874016
vt -2.165354 9.84252
vt -2.165354 7.874016
vt 4.330709 17.22441
vt 4.330709 22.63779
vt 6.299212 17.22441
vt 6.299212 22.63779
vt 19.68504 9.84252
vt 19.19291 16.73228
vt 19.68504 29.52756
vt 19.19291 22.63779
vt 18.70079 22.63779
vt 18.70079 29.52756
vt 18.70079 16.73228
vt -19.68504 2.362205
vt -15.74803 2.362205
vt -19.68504 -2.362205
vt -15.74803 -2.362205
vt 4.330709 9.84252
vt 2.362205 27.55906
vt 4.330709 29.52756
vt -4.330709 29.52756
vt -2.362205 27.55906
vt -2.362205 11.81102
vt 2.362205 11.81102
vt -4.330709 9.84252
vt 16.73228 4.330709
vt 16.73228 2.165354
vt 15.74803 4.330709
vt 16.24016 2.165354
vt 16.24016 -2.165354
vt 15.74803 -4.330709
vt 16.73228 -4.330709
vt 16.73228 -2.165354
vt -18.70079 7.874016
vt -19.19291 7.874016
vt -19.19291 9.84252
vt -15.74803 9.84252
vt -16.24016 16.73228
vt -15.74803 29.52756
vt -16.24016 22.63779
vt -16.73228 22.63779
vt -16.73228 29.52756
vt -16.73228 16.73228
vt -16.73228 6.299212
vt -16.24016 4.330709
vt -16.24016 6.299212
vt 16.73228 7.874016
vt 16.24016 7.874016
vt 16.24016 9.84252
vt 16.24016 29.52756
vt 16.73228 31.49606
vt 16.24016 31.49606
vt 16.73228 -6.299212
vt 16.24016 -4.330709
vt 16.24016 -6.299212
vt -15.74803 11.81102
vt -19.68504 11.81102
vt -15.74803 27.55906
vt -19.68504 27.55906
vt 19.68504 2.362205
vt 19.68504 -2.362205
vt 15.74803 2.362205
vt 15.74803 -2.362205
vt -6.299212 16.73228
vt -6.299212 22.63779
vt -4.330709 16.73228
vt -4.330709 22.63779
vt -16.24016 29.52756
vt -16.24016 31.49606
vt -16.73228 31.49606
vt 16.73228 6.299212
vt 16.24016 6.299212
vt 16.24016 4.330709
vt -19.19291 -4.330709
vt -18.70079 -4.330709
vt -19.19291 -6.299212
vt -18.70079 -6.299212
vt -19.19291 6.299212
vt -18.70079 6.299212
vt -19.19291 4.330709
vt -18.70079 4.330709
vt -19.68504 -4.330709
vt -19.68504 4.330709
vt 19.19291 -4.330709
vt 19.19291 -6.299212
vt 18.70079 -4.330709
vt 18.70079 -6.299212
vt 19.19291 2.165354
vt 19.19291 -2.165354
vt 18.70079 2.165354
vt 18.70079 -2.165354
vt 19.19291 6.299212
vt 19.19291 4.330709
vt 18.70079 6.299212
vt 18.70079 4.330709
vt 19.68504 -4.330709
vt 19.68504 4.330709
vt 19.19291 29.52756
vt 19.19291 31.49606
vt 18.70079 31.49606
vt -18.70079 0
vt -19.68504 0
vt -18.70079 39.37008
vt -19.68504 39.37008
vt 16.73228 0
vt 15.74803 0
vt 16.73228 39.37008
vt 15.74803 39.37008
vt 19.68504 0
vt 19.68504 39.37008
vt 18.70079 0
vt 18.70079 39.37008
vt -19.68504 -19.68504
vt -19.68504 -15.74803
vt -15.74803 -19.68504
vt -18.70079 -15.74803
vt -16.73228 -15.74803
vt -15.74803 -15.74803
vt -15.74803 0
vt -15.74803 39.37008
vt 19.68504 -15.74803
vt 19.68504 -19.68504
vt 18.70079 -15.74803
vt 15.74803 -19.68504
vt 16.73228 -15.74803
vt 15.74803 -15.74803
vt -19.68504 15.74803
vt -19.68504 19.68504
vt -18.70079 15.74803
vt -15.74803 19.68504
vt -16.73228 15.74803
vt -15.74803 15.74803
vt -16.73228 0
vt -16.73228 39.37008
vt 19.68504 19.68504
vt 19.68504 15.74803
vt 15.74803 19.68504
vt 18.70079 15.74803
vt 16.73228 15.74803
vt 15.74803 15.74803

usemtl stoneDark

f 3/3/1 2/2/1 1/1/1
f 2/2/1 3/3/1 4/4/1
f 4/4/1 3/3/1 5/5/1
f 6/6/1 5/5/1 3/3/1
f 7/7/1 5/5/1 6/6/1
f 5/5/1 7/7/1 8/8/1
f 11/11/2 10/10/2 9/9/2
f 10/10/2 11/11/2 12/12/2
f 5/15/3 13/14/3 4/13/3
f 13/14/3 5/15/3 14/16/3
f 17/19/4 16/18/4 15/17/4
f 16/18/4 17/19/4 18/20/4
f 7/23/2 20/22/2 19/21/2
f 6/24/2 20/22/2 7/23/2
f 6/24/2 21/25/2 20/22/2
f 22/26/2 21/25/2 6/24/2
f 22/26/2 23/27/2 21/25/2
f 23/27/2 22/26/2 24/28/2
f 27/31/4 26/30/4 25/29/4
f 28/32/4 26/30/4 27/31/4
f 28/32/4 29/33/4 26/30/4
f 30/34/4 29/33/4 28/32/4
f 30/34/4 31/35/4 29/33/4
f 31/35/4 30/34/4 32/36/4
f 13/4/1 34/8/1 33/2/1
f 34/8/1 13/4/1 14/5/1
f 37/38/4 36/37/4 35/31/4
f 36/37/4 37/38/4 38/39/4
f 41/29/4 40/33/4 39/35/4
f 40/33/4 41/29/4 42/30/4
f 45/41/1 44/1/1 43/40/1
f 44/1/1 45/41/1 46/42/1
f 38/45/1 48/44/1 47/43/1
f 48/44/1 38/45/1 37/46/1
f 51/49/2 50/48/2 49/47/2
f 50/48/2 51/49/2 52/50/2
f 51/53/5 54/52/5 53/51/5
f 54/52/5 51/53/5 49/54/5
f 55/57/3 20/56/3 21/55/3
f 20/56/3 55/57/3 56/58/3
f 59/61/2 58/60/2 57/59/2
f 58/60/2 59/61/2 60/62/2
f 60/62/2 59/61/2 61/63/2
f 61/63/2 59/61/2 62/64/2
f 63/65/2 57/59/2 58/60/2
f 57/59/2 63/65/2 64/50/2
f 9/68/1 66/67/1 65/66/1
f 66/67/1 9/68/1 10/69/1
f 28/72/5 11/71/5 30/70/5
f 11/71/5 28/72/5 59/73/5
f 11/71/5 59/73/5 67/74/5
f 67/74/5 59/73/5 65/75/5
f 9/76/5 30/70/5 11/71/5
f 30/70/5 9/76/5 57/77/5
f 57/77/5 9/76/5 65/75/5
f 57/77/5 65/75/5 59/73/5
f 22/80/6 68/79/6 24/78/6
f 68/79/6 22/80/6 69/81/6
f 69/81/6 22/80/6 17/82/6
f 70/83/6 17/82/6 22/80/6
f 71/84/6 17/82/6 70/83/6
f 17/82/6 71/84/6 18/85/6
f 73/36/4 54/87/4 72/86/4
f 54/87/4 73/36/4 53/88/4
f 3/91/4 74/90/4 70/89/4
f 74/90/4 3/91/4 46/92/4
f 46/92/4 3/91/4 44/93/4
f 44/93/4 3/91/4 1/94/4
f 75/95/4 70/89/4 74/90/4
f 70/89/4 75/95/4 71/20/4
f 20/97/1 76/96/1 19/7/1
f 76/96/1 20/97/1 56/98/1
f 68/28/2 78/100/2 77/99/2
f 78/100/2 68/28/2 69/101/2
f 34/103/2 5/102/2 8/23/2
f 5/102/2 34/103/2 14/104/2
f 78/81/6 16/85/6 77/79/6
f 16/85/6 78/81/6 15/82/6
f 76/21/2 55/25/2 79/27/2
f 55/25/2 76/21/2 56/22/2
f 26/56/5 40/57/5 42/58/5
f 40/57/5 26/56/5 29/55/5
f 74/106/6 80/105/6 75/84/6
f 80/105/6 74/106/6 81/107/6
f 82/110/4 65/109/4 66/108/4
f 65/109/4 82/110/4 67/111/4
f 82/114/6 11/113/6 67/112/6
f 11/113/6 82/114/6 12/115/6
f 74/118/3 45/117/3 81/116/3
f 45/117/3 74/118/3 46/119/3
f 45/92/4 80/95/4 81/90/4
f 80/95/4 45/92/4 43/93/4
f 13/121/4 2/94/4 4/120/4
f 2/94/4 13/121/4 33/122/4
f 55/124/6 23/78/6 79/123/6
f 23/78/6 55/124/6 21/125/6
f 78/52/3 17/53/3 15/54/3
f 17/53/3 78/52/3 69/51/3
f 70/77/3 10/75/3 3/73/3
f 10/75/3 70/77/3 22/70/3
f 10/75/3 22/70/3 66/76/3
f 66/76/3 22/70/3 82/71/3
f 12/74/3 3/73/3 10/75/3
f 3/73/3 12/74/3 6/72/3
f 6/72/3 12/74/3 82/71/3
f 6/72/3 82/71/3 22/70/3
f 42/128/1 25/127/1 26/126/1
f 25/127/1 42/128/1 41/129/1
f 60/132/1 84/131/1 83/130/1
f 84/131/1 60/132/1 61/133/1
f 83/117/5 58/118/5 60/119/5
f 58/118/5 83/117/5 85/116/5
f 28/134/1 36/45/1 86/43/1
f 36/45/1 28/134/1 27/127/1
f 36/45/1 27/127/1 35/46/1
f 86/43/1 59/135/1 28/134/1
f 59/135/1 86/43/1 62/133/1
f 62/133/1 86/43/1 87/44/1
f 31/138/6 40/137/6 29/136/6
f 40/137/6 31/138/6 39/139/6
f 47/14/5 36/15/5 38/16/5
f 36/15/5 47/14/5 86/13/5
f 83/62/2 88/65/2 85/60/2
f 88/65/2 83/62/2 84/63/2
f 50/142/6 54/141/6 49/140/6
f 54/141/6 50/142/6 72/143/6
f 88/146/6 58/145/6 85/144/6
f 58/145/6 88/146/6 63/147/6
f 57/149/6 51/140/6 30/148/6
f 51/140/6 57/149/6 64/147/6
f 51/140/6 64/147/6 52/142/6
f 53/141/6 30/148/6 51/140/6
f 30/148/6 53/141/6 32/138/6
f 32/138/6 53/141/6 73/143/6
f 47/151/2 87/64/2 86/150/2
f 87/64/2 47/151/2 48/152/2

usemtl wood

f 91/155/4 90/154/4 89/153/4
f 90/154/4 91/155/4 92/156/4
f 95/159/2 94/158/2 93/157/2
f 94/158/2 95/159/2 96/160/2
f 99/161/3 98/160/3 97/158/3
f 98/160/3 99/161/3 100/162/3
f 103/162/2 102/163/2 101/161/2
f 102/163/2 103/162/2 104/164/2
f 103/160/5 106/161/5 105/162/5
f 106/161/5 103/160/5 101/158/5
f 107/167/1 103/166/1 105/165/1
f 103/166/1 107/167/1 104/168/1
f 104/168/1 107/167/1 95/169/1
f 95/169/1 107/167/1 96/170/1
f 94/171/3 107/156/3 108/154/3
f 107/156/3 94/171/3 96/172/3
f 107/172/4 106/154/4 108/171/4
f 106/154/4 107/172/4 105/156/4
f 102/175/6 106/174/6 101/173/6
f 106/174/6 102/175/6 108/176/6
f 108/176/6 102/175/6 93/177/6
f 108/176/6 93/177/6 94/178/6
f 91/181/1 109/180/1 92/179/1
f 109/180/1 91/181/1 100/182/1
f 100/182/1 91/181/1 110/183/1
f 100/182/1 110/183/1 98/184/1
f 98/172/4 111/185/4 97/171/4
f 111/185/4 98/172/4 110/186/4
f 109/156/5 90/171/5 92/172/5
f 90/171/5 109/156/5 112/154/5
f 99/189/6 90/188/6 112/187/6
f 90/188/6 99/189/6 89/190/6
f 89/190/6 99/189/6 111/191/6
f 111/191/6 99/189/6 97/192/6
f 109/162/2 99/158/2 112/161/2
f 99/158/2 109/162/2 100/160/2

usemtl stone

f 111/191/6 102/175/6 89/190/6
f 102/175/6 111/191/6 93/177/6
f 64/77/5 50/54/5 52/53/5
f 89/171/5 50/54/5 64/77/5
f 89/171/5 72/52/5 50/54/5
f 102/158/5 72/52/5 89/171/5
f 72/52/5 102/158/5 32/70/5
f 32/70/5 102/158/5 39/57/5
f 39/57/5 102/158/5 41/58/5
f 102/158/5 27/72/5 41/58/5
f 104/160/5 27/72/5 102/158/5
f 27/72/5 104/160/5 37/16/5
f 37/16/5 104/160/5 91/172/5
f 37/16/5 91/172/5 48/14/5
f 48/14/5 91/172/5 87/13/5
f 87/13/5 91/172/5 62/73/5
f 62/73/5 91/172/5 61/119/5
f 61/119/5 91/172/5 84/117/5
f 84/117/5 91/172/5 88/116/5
f 89/171/5 88/116/5 91/172/5
f 32/70/5 39/57/5 31/55/5
f 72/52/5 32/70/5 73/51/5
f 35/15/5 27/72/5 37/16/5
f 25/56/5 41/58/5 27/72/5
f 88/116/5 64/77/5 63/118/5
f 89/171/5 64/77/5 88/116/5
f 7/72/3 34/16/3 8/15/3
f 110/160/3 34/16/3 7/72/3
f 110/160/3 33/14/3 34/16/3
f 95/172/3 33/14/3 110/160/3
f 33/14/3 95/172/3 1/73/3
f 1/73/3 95/172/3 43/117/3
f 43/117/3 95/172/3 80/116/3
f 95/172/3 71/77/3 80/116/3
f 93/171/3 71/77/3 95/172/3
f 71/77/3 93/171/3 16/54/3
f 16/54/3 93/171/3 111/158/3
f 16/54/3 111/158/3 77/52/3
f 77/52/3 111/158/3 68/51/3
f 68/51/3 111/158/3 24/70/3
f 24/70/3 111/158/3 23/55/3
f 23/55/3 111/158/3 79/57/3
f 79/57/3 111/158/3 76/58/3
f 110/160/3 76/58/3 111/158/3
f 1/73/3 43/117/3 44/119/3
f 33/14/3 1/73/3 2/13/3
f 18/53/3 71/77/3 16/54/3
f 75/118/3 80/116/3 71/77/3
f 76/58/3 7/72/3 19/56/3
f 110/160/3 7/72/3 76/58/3
f 95/169/1 91/181/1 104/168/1
f 91/181/1 95/169/1 110/183/1

