# Created by Kenney (www.kenney.nl)

mtllib wallWoodDiagonal.mtl

g wallWoodDiagonal

v -0.5 0 0.4
v -0.5 1 0.4
v -0.5 0 0.5
v -0.5 1 0.5
v -0.4 0 0.5
v -0.4 9.023893E-17 0.45
v -0.45 9.023893E-17 0.4
v -0.4 1 0.5
v 0.5 0 -0.4
v 0.45 0 -0.4
v 0.5 1 -0.4
v 0.45 1 -0.4
v -0.45 1 0.4
v -0.4 1 0.45
v 0.4 0 -0.5
v 0.4 1 -0.5
v 0.4 0 -0.45
v 0.4 1 -0.45
v 0.5 1 -0.5
v 0.5 0 -0.5

vn -1 0 0
vn 0 -1 0
vn 0 0 1
vn 0 0 -1
vn 0 1 0
vn 1 0 0
vn -0.7071068 0 -0.7071068
vn 0.7071068 0 0.7071068

vt 15.74803 3.552714E-15
vt 15.74803 39.37008
vt 19.68504 3.552714E-15
vt 19.68504 39.37008
vt -15.74803 19.68504
vt -15.74803 17.71654
vt -19.68504 19.68504
vt -17.71654 15.74803
vt -19.68504 15.74803
vt -15.74803 0
vt -19.68504 0
vt -15.74803 39.37008
vt -19.68504 39.37008
vt 19.68504 0
vt 17.71654 0
vt 17.71654 39.37008
vt 17.71654 3.552714E-15
vt 15.74803 17.71654
vt 15.74803 19.68504
vt 17.71654 15.74803
vt 19.68504 19.68504
vt 19.68504 15.74803
vt -17.71654 39.37008
vt -17.71654 3.552714E-15
vt -17.71654 0
vt 15.74803 0
vt -19.68504 -19.68504
vt -19.68504 -15.74803
vt -15.74803 -19.68504
vt -17.71654 -15.74803
vt -15.74803 -17.71654
vt 19.68504 -15.74803
vt 19.68504 -19.68504
vt 17.71654 -15.74803
vt 15.74803 -19.68504
vt 15.74803 -17.71654
vt -23.66302 6.59578E-32
vt -23.66302 39.37008
vt 23.66302 3.552714E-15
vt 23.66302 39.37008
vt 23.66302 -2.931458E-32
vt -23.66302 3.552714E-15

usemtl wood

f 3/3/1 2/2/1 1/1/1
f 2/2/1 3/3/1 4/4/1
f 3/7/2 6/6/2 5/5/2
f 6/6/2 3/7/2 7/8/2
f 7/8/2 3/7/2 1/9/2
f 8/12/3 3/11/3 5/10/3
f 3/11/3 8/12/3 4/13/3
f 11/4/3 10/15/3 9/14/3
f 10/15/3 11/4/3 12/16/3
f 2/4/4 7/17/4 1/14/4
f 7/17/4 2/4/4 13/16/4
f 13/20/5 8/19/5 14/18/5
f 8/19/5 13/20/5 4/21/5
f 4/21/5 13/20/5 2/22/5
f 8/13/6 6/24/6 14/23/6
f 6/24/6 8/13/6 5/11/6
f 17/25/1 16/13/1 15/11/1
f 16/13/1 17/25/1 18/23/1
f 11/2/6 20/14/6 19/4/6
f 20/14/6 11/2/6 9/26/6
f 16/12/4 20/11/4 15/10/4
f 20/11/4 16/12/4 19/13/4
f 16/29/5 11/28/5 19/27/5
f 11/28/5 16/29/5 12/30/5
f 12/30/5 16/29/5 18/31/5
f 10/34/2 20/33/2 9/32/2
f 20/33/2 10/34/2 15/35/2
f 15/35/2 10/34/2 17/36/2

usemtl woodDark

f 18/31/5 14/18/5 12/30/5
f 14/18/5 18/31/5 13/20/5
f 7/39/7 18/38/7 17/37/7
f 18/38/7 7/39/7 13/40/7
f 6/6/2 17/36/2 10/34/2
f 17/36/2 6/6/2 7/8/2
f 14/38/8 10/41/8 12/40/8
f 10/41/8 14/38/8 6/42/8

