# Created by Kenney (www.kenney.nl)

mtllib wallDetailDiagonal.mtl

g wallDetailDiagonal

v 0.5 0 0.5
v 0.5 0 0.4
v 0.4 0 0.5
v 0.475 0 0.4
v 0.425 0 0.4
v 0.4 0 0.4
v 0.4 1 0.4
v 0.4 1 0.5
v 0.4125 0.08003905 -0.4
v 0.425 0.08003905 -0.4
v 0.4125 1 0.3359688
v 0.425 1 0.3359688
v 0.5 1 0.4
v 0.5 1 0.5
v 0.475 0.9199609 0.4
v 0.4875 0.9199609 0.4
v 0.4875 1 0.4
v 0.4125 0.9199609 0.4
v 0.4125 1 0.4
v 0.425 0.9199609 0.4
v 0.4 0 -0.5
v 0.5 0 -0.5
v 0.4 1 -0.5
v 0.5 1 -0.5
v 0.425 1 -0.4
v 0.4 1 -0.4
v 0.4 0 -0.4
v 0.4125 -5.019541E-16 -0.4
v 0.425 -1.331024E-15 -0.3359688
v 0.4125 -1.331024E-15 -0.3359688
v 0.4875 1 0.3359688
v 0.475 1 0.3359688
v 0.4875 -4.760103E-15 -0.3359688
v 0.4875 -3.429079E-15 -0.4
v 0.475 -4.760103E-15 -0.3359688
v 0.5 0 -0.4
v 0.5 1 -0.4
v 0.475 1 -0.4
v 0.4875 0.08003905 -0.4
v 0.475 0.08003905 -0.4

vn 0 -1 0
vn -1 0 0
vn 0 0.6246951 -0.7808689
vn 1 0 0
vn 0 0 -1
vn 0 0 1
vn 0 -0.6246951 0.7808689
vn 0 1 0

vt 19.68504 19.68504
vt 19.68504 15.74803
vt 15.74803 19.68504
vt 18.70079 15.74803
vt 16.73228 15.74803
vt 15.74803 15.74803
vt 15.74803 0
vt 15.74803 39.37008
vt 19.68504 0
vt 19.68504 39.37008
vt -16.24016 -7.377088
vt -16.73228 -7.377088
vt -16.24016 39.00578
vt -16.73228 39.00578
vt -15.74803 39.37008
vt -15.74803 0
vt -19.68504 39.37008
vt -19.68504 0
vt -18.70079 -3.391417E-14
vt -19.68504 -3.391417E-14
vt -18.70079 36.21893
vt -19.19291 36.21893
vt -19.19291 39.37008
vt -15.74803 1.659725E-15
vt -16.73228 1.659725E-15
vt -16.24016 36.21893
vt -16.24016 39.37008
vt -16.73228 36.21893
vt 16.73228 3.151144
vt 16.24016 3.151144
vt 16.73228 39.37008
vt 15.74803 -7.349944E-15
vt 16.24016 -2.711191E-14
vt 16.73228 -8.262914
vt 16.24016 -8.262914
vt 16.73228 38.11995
vt 16.24016 38.11995
vt -19.19291 13.22712
vt -19.19291 15.74803
vt -18.70079 13.22712
vt -15.74803 19.68504
vt -19.68504 19.68504
vt -19.68504 15.74803
vt -16.73228 13.22712
vt -16.24016 15.74803
vt -16.24016 13.22712
vt -15.74803 15.74803
vt -15.74803 -2.594455E-14
vt -15.74803 3.151144
vt -13.22712 -5.858511E-14
vt 13.22712 39.37008
vt 15.74803 36.21893
vt 19.19291 -13.22712
vt 19.19291 -15.74803
vt 18.70079 -13.22712
vt 15.74803 -19.68504
vt 19.68504 -19.68504
vt 19.68504 -15.74803
vt 16.73228 -13.22712
vt 16.24016 -15.74803
vt 16.24016 -13.22712
vt 15.74803 -15.74803
vt -19.68504 -19.68504
vt -19.68504 -15.74803
vt -15.74803 -19.68504
vt -18.70079 -15.74803
vt -16.73228 -15.74803
vt -15.74803 -15.74803
vt 15.74803 3.151144
vt 15.74803 -1.444708E-13
vt -13.22712 39.37008
vt 13.22712 -1.968733E-13
vt -15.74803 36.21893
vt -18.70079 -7.377088
vt -19.19291 -7.377088
vt -18.70079 39.00578
vt -19.19291 39.00578
vt 19.19291 -8.262914
vt 18.70079 -8.262914
vt 19.19291 38.11995
vt 18.70079 38.11995
vt 19.19291 -1.635723E-13
vt 19.19291 3.151144
vt 19.68504 -2.856916E-14
vt 18.70079 3.151144
vt 18.70079 39.37008
vt 13.22712 -1.874056E-13
vt -15.74803 -6.188804E-29
vt 15.74803 -2.827583E-29
vt -13.22712 -5.240253E-14

usemtl wood

f 3/3/1 2/2/1 1/1/1
f 2/2/1 3/3/1 4/4/1
f 4/4/1 3/3/1 5/5/1
f 5/5/1 3/3/1 6/6/1
f 3/9/2 7/8/2 6/7/2
f 7/8/2 3/9/2 8/10/2
f 11/13/3 10/12/3 9/11/3
f 10/12/3 11/13/3 12/14/3
f 14/17/4 2/16/4 13/15/4
f 2/16/4 14/17/4 1/18/4
f 15/21/5 2/20/5 4/19/5
f 2/20/5 15/21/5 16/22/5
f 2/20/5 16/22/5 13/17/5
f 13/17/5 16/22/5 17/23/5
f 7/15/5 5/25/5 6/24/5
f 5/25/5 7/15/5 18/26/5
f 18/26/5 7/15/5 19/27/5
f 20/28/5 5/25/5 18/26/5
f 23/15/5 22/18/5 21/16/5
f 22/18/5 23/15/5 24/17/5
f 25/31/6 9/30/6 10/29/6
f 26/8/6 9/30/6 25/31/6
f 27/32/6 9/30/6 26/8/6
f 9/30/6 27/32/6 28/33/6
f 27/16/2 23/17/2 21/18/2
f 23/17/2 27/16/2 26/15/2
f 20/36/7 30/35/7 29/34/7
f 30/35/7 20/36/7 18/37/7
f 32/40/8 17/39/8 31/38/8
f 8/41/8 17/39/8 32/40/8
f 14/42/8 17/39/8 8/41/8
f 17/39/8 14/42/8 13/43/8
f 8/41/8 32/40/8 12/44/8
f 8/41/8 12/44/8 19/45/8
f 19/45/8 12/44/8 11/46/8
f 8/41/8 19/45/8 7/47/8
f 30/50/2 9/49/2 28/48/2
f 9/49/2 30/50/2 11/51/2
f 11/51/2 30/50/2 18/52/2
f 11/51/2 18/52/2 19/8/2
f 35/55/1 34/54/1 33/53/1
f 21/56/1 34/54/1 35/55/1
f 22/57/1 34/54/1 21/56/1
f 34/54/1 22/57/1 36/58/1
f 21/56/1 35/55/1 29/59/1
f 21/56/1 29/59/1 28/60/1
f 28/60/1 29/59/1 30/61/1
f 21/56/1 28/60/1 27/62/1
f 23/65/8 37/64/8 24/63/8
f 37/64/8 23/65/8 38/66/8
f 38/66/8 23/65/8 25/67/8
f 25/67/8 23/65/8 26/68/8
f 31/71/4 34/70/4 39/69/4
f 34/70/4 31/71/4 33/72/4
f 33/72/4 31/71/4 16/73/4
f 16/73/4 31/71/4 17/15/4
f 32/76/3 39/75/3 40/74/3
f 39/75/3 32/76/3 31/77/3
f 16/80/7 35/79/7 33/78/7
f 35/79/7 16/80/7 15/81/7
f 14/10/6 3/7/6 1/9/6
f 3/7/6 14/10/6 8/8/6
f 36/84/6 39/83/6 34/82/6
f 39/83/6 36/84/6 37/10/6
f 39/83/6 37/10/6 40/85/6
f 40/85/6 37/10/6 38/86/6
f 37/8/4 22/9/4 24/10/4
f 22/9/4 37/8/4 36/7/4

usemtl stone

f 12/51/2 25/15/2 10/49/2
f 25/67/8 32/40/8 38/66/8
f 32/40/8 25/67/8 12/44/8
f 4/88/4 35/87/4 15/73/4
f 20/52/2 29/90/2 5/89/2
f 4/4/1 29/59/1 35/55/1
f 29/59/1 4/4/1 5/5/1
f 32/71/4 40/69/4 38/8/4

