# Created by Kenney (www.kenney.nl)

mtllib wallWoodDetailHorizontal.mtl

g wallWoodDetailHorizontal

v 0.425 0.15 -0.4
v 0.4125 0.15 -0.4
v 0.425 0.425 -0.4
v 0.4125 0.425 -0.4
v 0.4 1 -0.4
v 0.4 0 -0.4
v 0.4125 0 -0.4
v 0.4125 0.575 -0.4
v 0.425 1 -0.4
v 0.425 0.575 -0.4
v 0.4 0 0.4
v 0.4125 0 0.4
v 0.4 1 0.4
v 0.4125 0.15 0.4
v 0.4125 0.425 0.4
v 0.425 0.15 0.4
v 0.4125 0.575 0.4
v 0.425 0.575 0.4
v 0.425 1 0.4
v 0.425 0.425 0.4
v 0.5 1 -0.5
v 0.5 1 -0.4
v 0.4 1 -0.5
v 0.475 1 -0.4
v 0.4875 0.575 -0.4
v 0.4875 0.425 -0.4
v 0.4875 0.575 0.4
v 0.4875 0.425 0.4
v 0.475 0.15 0.4
v 0.4875 0.15 0.4
v 0.475 0.425 0.4
v 0.5 1 0.4
v 0.5 0 0.4
v 0.4875 0 0.4
v 0.475 1 0.4
v 0.475 0.575 0.4
v 0.4875 0.15 -0.4
v 0.475 0.15 -0.4
v 0.475 0.575 -0.4
v 0.5 1 0.5
v 0.4 1 0.5
v 0.4 0 0.5
v 0.5 0 -0.5
v 0.5 0 -0.4
v 0.5 0 0.5
v 0.4875 0 -0.4
v 0.475 0.425 -0.4
v 0.4 0 -0.5

vn 0 0 1
vn 0 0 -1
vn 0 1 0
vn 1 0 0
vn -1 0 0
vn 0 -1 0

vt 16.73228 5.905512
vt 16.24016 5.905512
vt 16.73228 16.73228
vt 16.24016 16.73228
vt 15.74803 39.37008
vt 15.74803 -1.462564E-15
vt 16.24016 -1.462564E-15
vt 16.24016 22.63779
vt 16.73228 39.37008
vt 16.73228 22.63779
vt -15.74803 1.392919E-15
vt -16.24016 1.392919E-15
vt -15.74803 39.37008
vt -16.24016 5.905512
vt -16.24016 16.73228
vt -16.73228 5.905512
vt -16.24016 22.63779
vt -16.73228 22.63779
vt -16.73228 39.37008
vt -16.73228 16.73228
vt -19.68504 -19.68504
vt -19.68504 -15.74803
vt -15.74803 -19.68504
vt -18.70079 -15.74803
vt -16.73228 -15.74803
vt -15.74803 -15.74803
vt 15.74803 22.63779
vt 15.74803 16.73228
vt -15.74803 22.63779
vt -15.74803 16.73228
vt -18.70079 5.905512
vt -19.19291 5.905512
vt -18.70079 16.73228
vt -19.19291 16.73228
vt -19.68504 39.37008
vt -19.68504 4.993145E-15
vt -19.19291 4.993145E-15
vt -19.19291 22.63779
vt -18.70079 39.37008
vt -18.70079 22.63779
vt -19.19291 -15.74803
vt -19.19291 15.74803
vt -18.70079 15.74803
vt -15.74803 0
vt -15.74803 5.905512
vt 15.74803 0
vt 15.74803 5.905512
vt -19.68504 15.74803
vt -19.68504 19.68504
vt -15.74803 19.68504
vt -16.73228 15.74803
vt -15.74803 15.74803
vt 19.68504 0
vt 19.68504 39.37008
vt 19.68504 -4.993145E-15
vt 19.19291 -4.993145E-15
vt 19.19291 5.905512
vt 19.19291 16.73228
vt 18.70079 5.905512
vt 19.19291 22.63779
vt 18.70079 22.63779
vt 18.70079 39.37008
vt 18.70079 16.73228
vt -16.24016 -15.74803
vt -16.24016 15.74803
vt -19.68504 0
vt 19.19291 15.74803
vt 19.19291 -15.74803
vt 18.70079 15.74803
vt 18.70079 -15.74803
vt 19.68504 19.68504
vt 19.68504 15.74803
vt 15.74803 19.68504
vt 16.24016 15.74803
vt 15.74803 15.74803
vt 16.24016 -15.74803
vt 15.74803 -19.68504
vt 19.68504 -19.68504
vt 19.68504 -15.74803
vt 15.74803 -15.74803
vt 16.73228 15.74803
vt 16.73228 -15.74803

usemtl wood

f 3/3/1 2/2/1 1/1/1
f 4/4/1 2/2/1 3/3/1
f 5/5/1 2/2/1 4/4/1
f 6/6/1 2/2/1 5/5/1
f 2/2/1 6/6/1 7/7/1
f 5/5/1 4/4/1 8/8/1
f 5/5/1 8/8/1 9/9/1
f 9/9/1 8/8/1 10/10/1
f 13/13/2 12/12/2 11/11/2
f 12/12/2 13/13/2 14/14/2
f 14/14/2 13/13/2 15/15/2
f 14/14/2 15/15/2 16/16/2
f 15/15/2 13/13/2 17/17/2
f 17/17/2 13/13/2 18/18/2
f 18/18/2 13/13/2 19/19/2
f 20/20/2 16/16/2 15/15/2
f 23/23/3 22/22/3 21/21/3
f 22/22/3 23/23/3 24/24/3
f 24/24/3 23/23/3 9/25/3
f 9/25/3 23/23/3 5/26/3
f 27/29/4 26/28/4 25/27/4
f 26/28/4 27/29/4 28/30/4
f 31/33/2 30/32/2 29/31/2
f 28/34/2 30/32/2 31/33/2
f 32/35/2 30/32/2 28/34/2
f 33/36/2 30/32/2 32/35/2
f 30/32/2 33/36/2 34/37/2
f 32/35/2 28/34/2 27/38/2
f 32/35/2 27/38/2 35/39/2
f 35/39/2 27/38/2 36/40/2
f 38/24/3 30/42/3 37/41/3
f 30/42/3 38/24/3 29/43/3
f 12/46/5 2/45/5 7/44/5
f 2/45/5 12/46/5 14/47/5
f 39/24/3 27/42/3 25/41/3
f 27/42/3 39/24/3 36/43/3
f 35/43/3 40/49/3 32/48/3
f 40/49/3 35/43/3 41/50/3
f 41/50/3 35/43/3 19/51/3
f 41/50/3 19/51/3 13/52/3
f 42/53/5 13/5/5 11/46/5
f 13/5/5 42/53/5 41/54/5
f 22/5/4 43/53/4 21/54/4
f 43/53/4 22/5/4 44/46/4
f 40/54/1 42/46/1 45/53/1
f 42/46/1 40/54/1 41/5/1
f 30/45/4 46/46/4 37/47/4
f 46/46/4 30/45/4 34/44/4
f 22/54/1 46/56/1 44/55/1
f 46/56/1 22/54/1 37/57/1
f 37/57/1 22/54/1 26/58/1
f 37/57/1 26/58/1 38/59/1
f 26/58/1 22/54/1 25/60/1
f 25/60/1 22/54/1 39/61/1
f 39/61/1 22/54/1 24/62/1
f 47/63/1 38/59/1 26/58/1
f 2/64/3 16/51/3 1/25/3
f 16/51/3 2/64/3 14/65/3
f 6/44/5 23/35/5 48/66/5
f 23/35/5 6/44/5 5/13/5
f 31/69/6 26/68/6 28/67/6
f 26/68/6 31/69/6 47/70/6
f 40/35/4 33/44/4 32/13/4
f 33/44/4 40/35/4 45/66/4
f 42/73/6 33/72/6 45/71/6
f 33/72/6 42/73/6 34/67/6
f 34/67/6 42/73/6 12/74/6
f 34/67/6 12/74/6 46/68/6
f 12/74/6 42/73/6 11/75/6
f 7/76/6 46/68/6 12/74/6
f 48/77/6 46/68/6 7/76/6
f 43/78/6 46/68/6 48/77/6
f 46/68/6 43/78/6 44/79/6
f 48/77/6 7/76/6 6/80/6
f 8/64/3 18/51/3 10/25/3
f 18/51/3 8/64/3 17/65/3
f 15/74/6 3/82/6 20/81/6
f 3/82/6 15/74/6 4/76/6
f 15/28/5 8/29/5 4/30/5
f 8/29/5 15/28/5 17/27/5
f 23/13/2 43/66/2 48/44/2
f 43/66/2 23/13/2 21/35/2

usemtl woodDark

f 9/25/3 35/43/3 24/24/3
f 35/43/3 9/25/3 19/51/3
f 35/13/4 39/27/4 24/5/4
f 39/27/4 35/13/4 36/29/4
f 31/30/4 38/47/4 47/28/4
f 38/47/4 31/30/4 29/45/4
f 18/27/5 9/13/5 10/29/5
f 9/13/5 18/27/5 19/5/5
f 16/47/5 3/30/5 1/45/5
f 3/30/5 16/47/5 20/28/5

