# Created by Kenney (www.kenney.nl)

mtllib wallWoodCornerDiagonalHalf.mtl

g wallWoodCornerDiagonalHalf

v 0.5 0 -0.5
v 0.5 0 -0.4
v 0.5 1 -0.5
v 0.5 1 -0.4
v 0.4 0 -0.5
v 0.4 1 -0.5
v 0.4 0 -0.4
v 0.4 1 -0.4
v 0.425 0 -0.4
v 0.425 1 -0.4
v 0.475 0 -0.4
v 0.475 1 -0.4
v 0.425 2.255973E-17 -0.05
v 0.425 1 -0.05
v -0.05 2.255973E-17 0.425
v -0.05 1 0.425
v -0.05 0 0.475
v -0.05 1 0.475
v 0.475 1 7.219114E-16
v 0.475 0 7.219114E-16
v 0 1 0.475
v 0 0 0.475

vn 1 0 0
vn -1 0 0
vn 0 0 1
vn 0 -1 0
vn 0 1 0
vn 0 0 -1
vn 0.7071068 0 0.7071068
vn -0.7071068 0 -0.7071068

vt 19.68504 0
vt 15.74803 0
vt 19.68504 39.37008
vt 15.74803 39.37008
vt -19.68504 0
vt -19.68504 39.37008
vt -15.74803 0
vt -15.74803 39.37008
vt 16.73228 0
vt 16.73228 39.37008
vt 19.68504 -15.74803
vt 19.68504 -19.68504
vt 18.70079 -15.74803
vt 15.74803 -19.68504
vt 16.73228 -15.74803
vt 15.74803 -15.74803
vt -19.68504 -19.68504
vt -19.68504 -15.74803
vt -15.74803 -19.68504
vt -18.70079 -15.74803
vt -16.73228 -15.74803
vt -15.74803 -15.74803
vt -15.74803 -4.263256E-14
vt -19.68504 -4.263256E-14
vt 19.68504 -1.705303E-14
vt 18.70079 -1.705303E-14
vt 18.70079 39.37008
vt -1.968504 8.881784E-16
vt -1.968504 39.37008
vt 16.73228 8.881784E-16
vt 18.70079 0
vt 13.22345 39.37008
vt 13.22345 1.218254E-30
vt -13.22345 39.37008
vt -13.22345 1.218254E-30
vt -2.842171E-14 39.37008
vt -2.842171E-14 0
vt -13.22345 8.881784E-16
vt 13.22345 8.881784E-16
vt -1.890044E-12 0
vt -1.968504 0
vt -1.890044E-12 39.37008
vt -18.70079 2.842171E-14
vt -16.73228 -1.968504
vt 0 18.70079
vt 1.968504 16.73228
vt 1.968504 18.70079
vt 16.73228 -1.968504
vt 18.70079 2.842171E-14
vt -1.968504 16.73228
vt -1.968504 18.70079

usemtl wood

f 3/3/1 2/2/1 1/1/1
f 2/2/1 3/3/1 4/4/1
f 7/7/2 6/6/2 5/5/2
f 6/6/2 7/7/2 8/8/2
f 10/10/3 7/2/3 9/9/3
f 7/2/3 10/10/3 8/4/3
f 11/13/4 1/12/4 2/11/4
f 1/12/4 11/13/4 5/14/4
f 5/14/4 11/13/4 9/15/4
f 5/14/4 9/15/4 7/16/4
f 6/19/5 4/18/5 3/17/5
f 4/18/5 6/19/5 12/20/5
f 12/20/5 6/19/5 10/21/5
f 10/21/5 6/19/5 8/22/5
f 6/8/6 1/24/6 5/23/6
f 1/24/6 6/8/6 3/6/6
f 4/3/3 11/26/3 2/25/3
f 11/26/3 4/3/3 12/27/3

usemtl woodDark

f 13/28/2 10/8/2 9/7/2
f 10/8/2 13/28/2 14/29/2
f 17/31/2 16/10/2 15/30/2
f 16/10/2 17/31/2 18/27/2
f 21/34/7 20/33/7 19/32/7
f 20/33/7 21/34/7 22/35/7
f 19/36/1 11/2/1 12/4/1
f 11/2/1 19/36/1 20/37/1
f 15/39/8 14/34/8 13/38/8
f 14/34/8 15/39/8 16/32/8
f 21/42/3 17/41/3 22/40/3
f 17/41/3 21/42/3 18/29/3
f 10/21/5 19/43/5 12/20/5
f 19/43/5 10/21/5 14/44/5
f 19/43/5 14/44/5 21/45/5
f 21/45/5 14/44/5 16/46/5
f 21/45/5 16/46/5 18/47/5
f 20/49/4 13/48/4 11/13/4
f 13/48/4 20/49/4 22/45/4
f 13/48/4 22/45/4 15/50/4
f 15/50/4 22/45/4 17/51/4
f 9/15/4 11/13/4 13/48/4

