# Created by Kenney (www.kenney.nl)

mtllib wallWoodDoorwayBase.mtl

g wallWoodDoorwayBase

v 0.5 -1.639515E-19 -0.2
v 0.5 -1.639515E-19 -0.3
v 0.4 0 -0.2
v 0.475 0 -0.3
v 0.425 0 -0.3
v 0.4 0 -0.3
v 0.5 1 0.2
v 0.5 1 0.3
v 0.4 1 0.2
v 0.475 1 0.3
v 0.425 1 0.3
v 0.4 1 0.3
v 0.425 0 -0.4
v 0.4 0 -0.4
v 0.425 1 -0.4
v 0.4 1 -0.4
v 0.5 -1.639515E-19 0.3
v 0.5 -1.639515E-19 0.2
v 0.475 0 0.3
v 0.4 0 0.2
v 0.425 0 0.3
v 0.4 0 0.3
v 0.5 1 -0.3
v 0.5 1 -0.2
v 0.475 1 -0.3
v 0.4 1 -0.2
v 0.425 1 -0.3
v 0.4 1 -0.3
v 0.5 1 -0.5
v 0.5 0 -0.5
v 0.5 1 -0.4
v 0.5 0 -0.4
v 0.5 0 0.5
v 0.5 0 0.4
v 0.4 0 0.5
v 0.475 0 0.4
v 0.425 0 0.4
v 0.4 0 0.4
v 0.4 1 0.4
v 0.425 1 0.4
v 0.5 1 0.4
v 0.5 1 0.5
v 0.475 0 -0.4
v 0.4 0 -0.5
v 0.475 1 0.4
v 0.4 1 -0.5
v 0.475 1 -0.4
v 0.4 1 0.5

vn 0 -1 0
vn 0 1 0
vn 0 0 1
vn 1 0 0
vn 0 0 -1
vn -1 0 0

vt 19.68504 -7.874016
vt 19.68504 -11.81102
vt 15.74803 -7.874016
vt 18.70079 -11.81102
vt 16.73228 -11.81102
vt 15.74803 -11.81102
vt -19.68504 7.874016
vt -19.68504 11.81102
vt -15.74803 7.874016
vt -18.70079 11.81102
vt -16.73228 11.81102
vt -15.74803 11.81102
vt 16.73228 0
vt 15.74803 0
vt 16.73228 39.37008
vt 15.74803 39.37008
vt 19.68504 11.81102
vt 19.68504 7.874016
vt 18.70079 11.81102
vt 15.74803 7.874016
vt 16.73228 11.81102
vt 15.74803 11.81102
vt -19.68504 -11.81102
vt -19.68504 -7.874016
vt -18.70079 -11.81102
vt -15.74803 -7.874016
vt -16.73228 -11.81102
vt -15.74803 -11.81102
vt 19.68504 39.37008
vt 19.68504 0
vt 19.68504 19.68504
vt 19.68504 15.74803
vt 15.74803 19.68504
vt 18.70079 15.74803
vt 16.73228 15.74803
vt 15.74803 15.74803
vt -7.874016 39.37008
vt -7.874016 -6.454785E-18
vt -11.81102 39.37008
vt -11.81102 -6.454785E-18
vt -15.74803 0
vt -16.73228 0
vt -15.74803 39.37008
vt -16.73228 39.37008
vt -11.81102 0
vt -7.874016 0
vt -19.68504 39.37008
vt -19.68504 0
vt 19.68504 -15.74803
vt 19.68504 -19.68504
vt 18.70079 -15.74803
vt 15.74803 -19.68504
vt 16.73228 -15.74803
vt 15.74803 -15.74803
vt -19.68504 -6.454785E-18
vt -18.70079 0
vt -18.70079 39.37008
vt 19.68504 -6.454785E-18
vt 11.81102 39.37008
vt 11.81102 -6.454785E-18
vt 7.874016 39.37008
vt 7.874016 -6.454785E-18
vt -19.68504 -19.68504
vt -19.68504 -15.74803
vt -15.74803 -19.68504
vt -18.70079 -15.74803
vt -16.73228 -15.74803
vt -15.74803 -15.74803
vt 18.70079 0
vt 18.70079 39.37008
vt -19.68504 15.74803
vt -19.68504 19.68504
vt -18.70079 15.74803
vt -15.74803 19.68504
vt -16.73228 15.74803
vt -15.74803 15.74803
vt 7.874016 0
vt 11.81102 0

usemtl wood

f 3/3/1 2/2/1 1/1/1
f 2/2/1 3/3/1 4/4/1
f 4/4/1 3/3/1 5/5/1
f 5/5/1 3/3/1 6/6/1
f 9/9/2 8/8/2 7/7/2
f 8/8/2 9/9/2 10/10/2
f 10/10/2 9/9/2 11/11/2
f 11/11/2 9/9/2 12/12/2
f 15/15/3 14/14/3 13/13/3
f 14/14/3 15/15/3 16/16/3
f 19/19/1 18/18/1 17/17/1
f 18/18/1 19/19/1 20/20/1
f 20/20/1 19/19/1 21/21/1
f 20/20/1 21/21/1 22/22/1
f 25/25/2 24/24/2 23/23/2
f 24/24/2 25/25/2 26/26/2
f 26/26/2 25/25/2 27/27/2
f 26/26/2 27/27/2 28/28/2
f 31/16/4 30/30/4 29/29/4
f 30/30/4 31/16/4 32/14/4
f 35/33/1 34/32/1 33/31/1
f 34/32/1 35/33/1 36/34/1
f 36/34/1 35/33/1 37/35/1
f 37/35/1 35/33/1 38/36/1
f 8/39/4 18/38/4 7/37/4
f 18/38/4 8/39/4 17/40/4
f 39/43/5 37/42/5 38/41/5
f 37/42/5 39/43/5 40/44/5
f 3/46/6 28/39/6 6/45/6
f 28/39/6 3/46/6 26/37/6
f 42/47/4 34/41/4 41/43/4
f 34/41/4 42/47/4 33/48/4
f 43/51/1 30/50/1 32/49/1
f 30/50/1 43/51/1 44/52/1
f 44/52/1 43/51/1 13/53/1
f 44/52/1 13/53/1 14/54/1
f 4/56/5 23/47/5 2/55/5
f 23/47/5 4/56/5 25/57/5
f 45/57/5 34/48/5 36/56/5
f 34/48/5 45/57/5 41/47/5
f 20/41/5 7/47/5 18/55/5
f 7/47/5 20/41/5 9/43/5
f 46/43/5 30/48/5 44/41/5
f 30/48/5 46/43/5 29/47/5
f 24/29/3 3/14/3 1/58/3
f 3/14/3 24/29/3 26/16/3
f 24/61/4 2/60/4 23/59/4
f 2/60/4 24/61/4 1/62/4
f 46/65/2 31/64/2 29/63/2
f 31/64/2 46/65/2 47/66/2
f 47/66/2 46/65/2 15/67/2
f 15/67/2 46/65/2 16/68/2
f 11/15/3 22/14/3 21/13/3
f 22/14/3 11/15/3 12/16/3
f 28/43/5 5/42/5 6/41/5
f 5/42/5 28/43/5 27/44/5
f 31/29/3 43/69/3 32/30/3
f 43/69/3 31/29/3 47/70/3
f 14/41/6 46/47/6 44/48/6
f 46/47/6 14/41/6 16/43/6
f 42/29/3 35/14/3 33/30/3
f 35/14/3 42/29/3 48/16/3
f 35/30/6 39/16/6 38/14/6
f 39/16/6 35/30/6 48/29/6
f 45/73/2 42/72/2 41/71/2
f 42/72/2 45/73/2 48/74/2
f 48/74/2 45/73/2 40/75/2
f 48/74/2 40/75/2 39/76/2
f 8/29/3 19/69/3 17/58/3
f 19/69/3 8/29/3 10/70/3
f 22/78/6 9/61/6 20/77/6
f 9/61/6 22/78/6 12/59/6

usemtl woodDark

f 45/43/4 19/45/4 10/39/4
f 19/45/4 45/43/4 36/41/4
f 5/5/1 43/51/1 4/4/1
f 43/51/1 5/5/1 13/53/1
f 25/59/4 43/14/4 47/16/4
f 43/14/4 25/59/4 4/78/4
f 15/67/2 25/25/2 47/66/2
f 25/25/2 15/67/2 27/27/2
f 11/11/2 45/73/2 10/10/2
f 45/73/2 11/11/2 40/75/2
f 5/45/6 15/43/6 13/41/6
f 15/43/6 5/45/6 27/39/6
f 37/35/1 19/19/1 36/34/1
f 19/19/1 37/35/1 21/21/1
f 37/14/6 11/59/6 21/78/6
f 11/59/6 37/14/6 40/16/6

usemtl _defaultMat

f 27/39/5 4/46/5 5/37/5
f 4/39/5 27/46/5 25/37/5
f 10/16/3 21/30/3 19/29/3
f 21/16/3 10/30/3 11/29/3

