# Created by Kenney (www.kenney.nl)

mtllib wallWoodBlock.mtl

g wallWoodBlock

v 0.5 0 0.5
v 0.5 0 0.4
v 0.4 0 0.5
v 0.475 0 0.4
v 0.4 0 0.475
v 0.5 1 0.4
v 0.5 1 0.5
v -0.4 0 0.5
v -0.5 0 0.5
v -0.4 1 0.5
v -0.5 1 0.5
v -0.4 1 0.475
v -0.4 0 0.475
v -0.5 0 0.4
v -0.5 1 0.4
v 0.4 1 0.5
v 0.4 1 0.475
v -0.5 0 -0.5
v -0.5 1 -0.5
v -0.5 0 -0.4
v -0.5 1 -0.4
v -0.4 1 -0.5
v -0.4 0 -0.5
v -0.4 1 -0.475
v -0.4 0 -0.475
v -0.475 0 0.4
v 0.475 1 0.4
v -0.475 1 0.4
v 0.5 1 -0.5
v 0.5 1 -0.4
v 0.4 1 -0.5
v 0.475 1 -0.4
v 0.4 1 -0.475
v -0.475 1 -0.4
v 0.5 0 -0.5
v 0.5 0 -0.4
v 0.475 0 -0.4
v 0.4 0 -0.5
v 0.4 0 -0.475
v -0.475 0 -0.4

vn 0 -1 0
vn 1 0 0
vn 0 0 1
vn -1 0 0
vn 0 1 0
vn 0 0 -1
vn 0.7071068 0 -0.7071068

vt 19.68504 19.68504
vt 19.68504 15.74803
vt 15.74803 19.68504
vt 18.70079 15.74803
vt 15.74803 18.70079
vt -15.74803 39.37008
vt -15.74803 0
vt -19.68504 39.37008
vt -19.68504 0
vt -18.70079 39.37008
vt -18.70079 0
vt 15.74803 0
vt 15.74803 39.37008
vt 19.68504 0
vt 19.68504 39.37008
vt 18.70079 0
vt 18.70079 39.37008
vt -15.74803 19.68504
vt -15.74803 18.70079
vt -19.68504 19.68504
vt -18.70079 15.74803
vt -19.68504 15.74803
vt -19.68504 -19.68504
vt -19.68504 -15.74803
vt -15.74803 -19.68504
vt -18.70079 -15.74803
vt -15.74803 -18.70079
vt 15.74803 -19.68504
vt 15.74803 -18.70079
vt 19.68504 -19.68504
vt 18.70079 -15.74803
vt 19.68504 -15.74803

usemtl wood

f 3/3/1 2/2/1 1/1/1
f 2/2/1 3/3/1 4/4/1
f 4/4/1 3/3/1 5/5/1
f 7/8/2 2/7/2 6/6/2
f 2/7/2 7/8/2 1/9/2
f 10/6/3 9/9/3 8/7/3
f 9/9/3 10/6/3 11/8/3
f 10/8/2 13/11/2 12/10/2
f 13/11/2 10/8/2 8/9/2
f 9/14/4 15/13/4 14/12/4
f 15/13/4 9/14/4 11/15/4
f 7/15/3 3/12/3 1/14/3
f 3/12/3 7/15/3 16/13/3
f 3/14/4 17/17/4 5/16/4
f 17/17/4 3/14/4 16/15/4
f 20/7/4 19/8/4 18/9/4
f 19/8/4 20/7/4 21/6/4
f 24/17/2 23/14/2 22/15/2
f 23/14/2 24/17/2 25/16/2
f 9/20/1 13/19/1 8/18/1
f 13/19/1 9/20/1 26/21/1
f 26/21/1 9/20/1 14/22/1
f 27/21/5 7/20/5 6/22/5
f 7/20/5 27/21/5 16/18/5
f 16/18/5 27/21/5 17/19/5
f 28/4/5 10/3/5 12/5/5
f 10/3/5 28/4/5 11/1/5
f 11/1/5 28/4/5 15/2/5
f 31/25/5 30/24/5 29/23/5
f 30/24/5 31/25/5 32/26/5
f 32/26/5 31/25/5 33/27/5
f 19/15/6 23/12/6 18/14/6
f 23/12/6 19/15/6 22/13/6
f 19/30/5 24/29/5 22/28/5
f 24/29/5 19/30/5 34/31/5
f 34/31/5 19/30/5 21/32/5
f 30/13/2 35/14/2 29/15/2
f 35/14/2 30/13/2 36/12/2
f 37/31/1 35/30/1 36/32/1
f 35/30/1 37/31/1 38/28/1
f 38/28/1 37/31/1 39/29/1
f 27/10/6 2/9/6 4/11/6
f 2/9/6 27/10/6 6/8/6
f 30/15/3 37/16/3 36/14/3
f 37/16/3 30/15/3 32/17/3
f 34/10/3 20/9/3 40/11/3
f 20/9/3 34/10/3 21/8/3
f 15/15/6 26/16/6 14/14/6
f 26/16/6 15/15/6 28/17/6
f 31/6/6 35/9/6 38/7/6
f 35/9/6 31/6/6 29/8/6
f 39/11/4 31/8/4 38/9/4
f 31/8/4 39/11/4 33/10/4
f 25/27/1 18/23/1 23/25/1
f 18/23/1 25/27/1 40/26/1
f 18/23/1 40/26/1 20/24/1

usemtl woodDark

f 33/27/5 27/21/5 32/26/5
f 27/21/5 33/27/5 17/19/5
f 17/19/5 33/27/5 12/5/5
f 12/5/5 33/27/5 24/29/5
f 12/5/5 24/29/5 28/4/5
f 28/4/5 24/29/5 34/31/5
f 24/13/6 39/7/6 25/12/6
f 39/7/6 24/13/6 33/6/6
f 17/13/3 13/7/3 5/12/3
f 13/7/3 17/13/3 12/6/3
f 27/6/2 37/12/2 32/13/2
f 37/12/2 27/6/2 4/7/2
f 26/12/4 34/6/4 40/7/4
f 34/6/4 26/12/4 28/13/4
f 5/5/1 37/31/1 4/4/1
f 37/31/1 5/5/1 39/29/1
f 39/29/1 5/5/1 13/19/1
f 39/29/1 13/19/1 25/27/1
f 25/27/1 13/19/1 26/21/1
f 25/27/1 26/21/1 40/26/1

usemtl _defaultMat

f 33/12/7 37/6/7 39/7/7
f 37/12/7 33/6/7 32/7/7

