# Created by Kenney (www.kenney.nl)

mtllib wallWoodDoorwaySquareWideCurved.mtl

g wallWoodDoorwaySquareWideCurved

v 0.5 0 -0.4
v 0.5 0 -0.5
v 0.475 0 -0.4
v 0.4 0 -0.5
v 0.425 0 -0.4
v 0.4 0 -0.4
v 0.425 1 -0.4
v 0.4 1 -0.4
v 0.4 1 -0.5
v 0.5 1 -0.5
v 0.5 1 -0.4
v 0.475 1 -0.4
v 0.475 1 0.5
v 0.425 1 0.5
v 0.5 -1.639515E-19 -0.2
v 0.5 -1.639515E-19 -0.3
v 0.4 0 -0.2
v 0.475 0 -0.3
v 0.425 0 -0.3
v 0.4 0 -0.3
v 0.475 0.6761053 -0.298289
v 0.475 0.7017638 -0.2931851
v 0.475 0.7265367 -0.2847759
v 0.475 0.75 -0.2732051
v 0.475 0.7717522 -0.2586707
v 0.475 0.7914214 -0.2414214
v 0.475 0.8086706 -0.2217523
v 0.475 0.8232051 -0.2
v 0.475 0.8347759 -0.1765367
v 0.475 0.8431851 -0.1517638
v 0.475 0.65 -0.3
v 0.475 0.848289 -0.1261052
v 0.475 0.85 -0.1
v 0.475 0.85 0.5
v 0.425 0.65 -0.3
v 0.425 0.6761053 -0.298289
v 0.425 0.7017638 -0.2931851
v 0.425 0.7265367 -0.2847759
v 0.425 0.75 -0.2732051
v 0.425 0.7717522 -0.2586707
v 0.425 0.7914214 -0.2414214
v 0.425 0.8086706 -0.2217523
v 0.425 0.8232051 -0.2
v 0.425 0.8347759 -0.1765367
v 0.425 0.8431851 -0.1517638
v 0.425 0.848289 -0.1261052
v 0.425 0.85 -0.1
v 0.425 0.85 0.5
v 0.4 0.85 0.5
v 0.5 0.85 0.5
v 0.4 0.75 0.5
v 0.5 0.75 0.5
v 0.5 0.65 -0.2
v 0.4 0.65 -0.2
v 0.4 0.65 -0.3
v 0.5 0.65 -0.3
v 0.5 0.85 -0.1
v 0.5 0.75 -0.1
v 0.4 0.75 -0.1
v 0.4 0.85 -0.1
v 0.5 0.7108761 -0.1793353
v 0.4 0.7108761 -0.1793353
v 0.5 0.7207106 -0.1707107
v 0.4 0.7207106 -0.1707107
v 0.5 0.7366025 -0.15
v 0.5 0.7293353 -0.1608761
v 0.4 0.7366025 -0.15
v 0.4 0.7293353 -0.1608761
v 0.4 0.7265367 -0.2847759
v 0.4 0.75 -0.2732051
v 0.4 0.848289 -0.1261052
v 0.5 0.8232051 -0.2
v 0.5 0.8347759 -0.1765367
v 0.5 0.7717522 -0.2586707
v 0.5 0.7914214 -0.2414214
v 0.5 0.6882684 -0.192388
v 0.4 0.6882684 -0.192388
v 0.5 0.7 -0.1866025
v 0.4 0.7 -0.1866025
v 0.4 0.6761053 -0.298289
v 0.4 0.7017638 -0.2931851
v 0.4 0.7717522 -0.2586707
v 0.4 0.7914214 -0.2414214
v 0.4 0.8086706 -0.2217523
v 0.4 0.8232051 -0.2
v 0.4 0.6630526 -0.1991445
v 0.4 0.8347759 -0.1765367
v 0.4 0.6758819 -0.1965926
v 0.4 0.8431851 -0.1517638
v 0.4 0.742388 -0.1382683
v 0.4 0.7465925 -0.1258819
v 0.4 0.7491445 -0.1130526
v 0.5 0.7265367 -0.2847759
v 0.5 0.75 -0.2732051
v 0.5 0.6761053 -0.298289
v 0.5 0.7017638 -0.2931851
v 0.5 0.742388 -0.1382683
v 0.5 0.6630526 -0.1991445
v 0.5 0.6758819 -0.1965926
v 0.5 0.848289 -0.1261052
v 0.5 0.7465925 -0.1258819
v 0.5 0.8086706 -0.2217523
v 0.5 0.8431851 -0.1517638
v 0.5 0.7491445 -0.1130526

vn 0 -1 0
vn 0 0 1
vn 0 0 -1
vn -1 0 0
vn 0 1 0
vn 1 0 0
vn 0 -0.03271909 0.9994646
vn 0 0.03271909 -0.9994646
vn 0 0.9994646 -0.03271909
vn 0 -0.9994646 0.03271909
vn 0 -0.6087614 0.7933533
vn 0 -0.7071068 0.7071068
vn 0 -0.8660254 0.5
vn 0 -0.7933533 0.6087614
vn 0 0.3826834 -0.9238795
vn 0 0.5 -0.8660254
vn 0 0.9914449 -0.1305262
vn 0 0.8660254 -0.5
vn 0 0.9238795 -0.3826834
vn 0 0.6087614 -0.7933533
vn 0 0.7071068 -0.7071068
vn 0 -0.3826834 0.9238795
vn 0 -0.5 0.8660254
vn 0 0.1305262 -0.9914449
vn 0 0.258819 -0.9659258
vn 0 -0.9238795 0.3826834
vn 0 -0.1305262 0.9914449
vn 0 -0.258819 0.9659258
vn 0 -0.9659258 0.258819
vn 0 0.9659258 -0.258819
vn 0 0.7933533 -0.6087614
vn 0 -0.9914449 0.1305262

vt 19.68504 -15.74803
vt 19.68504 -19.68504
vt 18.70079 -15.74803
vt 15.74803 -19.68504
vt 16.73228 -15.74803
vt 15.74803 -15.74803
vt 16.73228 0
vt 15.74803 0
vt 16.73228 39.37008
vt 15.74803 39.37008
vt -15.74803 0
vt -19.68504 0
vt -15.74803 39.37008
vt -19.68504 39.37008
vt 19.68504 0
vt 18.70079 0
vt 19.68504 39.37008
vt 18.70079 39.37008
vt -19.68504 -19.68504
vt -19.68504 -15.74803
vt -15.74803 -19.68504
vt -18.70079 -15.74803
vt -16.73228 -15.74803
vt -15.74803 -15.74803
vt -18.70079 19.68504
vt -16.73228 19.68504
vt 19.68504 -7.874016
vt 19.68504 -11.81102
vt 15.74803 -7.874016
vt 18.70079 -11.81102
vt 16.73228 -11.81102
vt 15.74803 -11.81102
vt 15.74803 -2.358037E-12
vt 11.74366 26.61832
vt 11.54272 27.6285
vt 11.21165 28.60381
vt 10.75611 29.52756
vt 10.18388 30.38395
vt 9.504778 31.15832
vt 8.730405 31.83743
vt 7.874016 32.40965
vt 6.950263 32.86519
vt 5.974953 33.19627
vt 11.81102 25.59055
vt 4.964773 33.39721
vt 3.937008 33.46457
vt -19.68504 33.46457
vt 11.81102 -2.358037E-12
vt -15.74803 -2.173E-15
vt -11.81102 -2.173E-15
vt -11.81102 25.59055
vt -11.74366 26.61832
vt -11.54272 27.6285
vt -11.21165 28.60381
vt -10.75611 29.52756
vt -10.18388 30.38395
vt -9.504778 31.15832
vt -8.730405 31.83743
vt -7.874016 32.40965
vt -6.950263 32.86519
vt -5.974953 33.19627
vt -4.964773 33.39721
vt -3.937008 33.46457
vt 19.68504 33.46457
vt 18.70079 33.46457
vt 16.73228 33.46457
vt 15.74803 33.46457
vt 15.74803 29.52756
vt 19.68504 29.52756
vt 19.68504 -6.454785E-18
vt 19.68504 25.59055
vt 15.74803 25.59055
vt -16.73228 0
vt -15.74803 25.59055
vt -16.73228 25.59055
vt -19.68504 -6.454785E-18
vt -19.68504 25.59055
vt -18.70079 0
vt -18.70079 25.59055
vt -19.68504 -3.937008
vt -19.68504 19.68504
vt -18.70079 -3.937008
vt 19.68504 19.68504
vt 19.68504 -3.937008
vt 15.74803 19.68504
vt 15.74803 -3.937008
vt -16.73228 -3.937008
vt -15.74803 -3.937008
vt -15.74803 19.68504
vt 19.68504 16.38665
vt 15.74803 16.38665
vt 19.68504 16.90164
vt 15.74803 16.90164
vt 19.68504 11.20134
vt 19.68504 10.68635
vt 15.74803 11.20134
vt 15.74803 10.68635
vt -15.74803 20.69519
vt -16.73228 20.69519
vt -15.74803 21.72516
vt -16.73228 21.72516
vt -16.73228 -2.769862
vt -16.73228 -1.739891
vt -15.74803 -2.769862
vt -15.74803 -1.739891
vt -19.68504 7.272431
vt -19.68504 8.302402
vt -18.70079 7.272431
vt -18.70079 8.302402
vt -18.70079 16.12916
vt -19.68504 16.12916
vt -18.70079 17.15913
vt -19.68504 17.15913
vt 19.68504 20.95268
vt 15.74803 20.95268
vt 19.68504 21.46767
vt 15.74803 21.46767
vt -11.81102 -2.871451E-15
vt -7.874016 -2.871451E-15
vt -7.874016 25.59055
vt -7.840334 26.10443
vt -7.739865 26.60952
vt -7.574329 27.09718
vt -7.346557 27.55906
vt -7.060446 27.98725
vt -6.720893 28.37444
vt -6.333706 28.71399
vt -5.905512 29.0001
vt -5.443635 29.22787
vt -4.95598 29.39341
vt -4.450891 29.49388
vt -3.937008 29.52756
vt -15.74803 16.12916
vt -16.73228 16.12916
vt -15.74803 17.15913
vt -16.73228 17.15913
vt -15.74803 18.5755
vt -16.73228 18.5755
vt -15.74803 19.60547
vt -16.73228 19.60547
vt -18.70079 20.69519
vt -19.68504 20.69519
vt -18.70079 21.72516
vt -19.68504 21.72516
vt -18.70079 23.81578
vt -19.68504 23.81578
vt -18.70079 24.84575
vt -19.68504 24.84575
vt 19.68504 8.044909
vt 19.68504 7.529924
vt 15.74803 8.044909
vt 15.74803 7.529924
vt 19.68504 24.07327
vt 15.74803 24.07327
vt 19.68504 24.58826
vt 15.74803 24.58826
vt -18.70079 24.76328
vt -19.68504 24.76328
vt -18.70079 25.79325
vt -19.68504 25.79325
vt -19.68504 -2.769862
vt -19.68504 -1.739891
vt -18.70079 -2.769862
vt -18.70079 -1.739891
vt -15.74803 24.76328
vt -16.73228 24.76328
vt -15.74803 25.79325
vt -16.73228 25.79325
vt -18.70079 18.5755
vt -19.68504 18.5755
vt -18.70079 19.60547
vt -19.68504 19.60547
vt 19.68504 4.755234
vt 19.68504 4.240249
vt 15.74803 4.755234
vt 15.74803 4.240249
vt -16.73228 3.982756
vt -16.73228 5.012727
vt -15.74803 3.982756
vt -15.74803 5.012727
vt -19.68504 13.39804
vt -19.68504 14.42801
vt -18.70079 13.39804
vt -18.70079 14.42801
vt -19.68504 10.42886
vt -19.68504 11.45883
vt -18.70079 10.42886
vt -18.70079 11.45883
vt 19.68504 18.83299
vt 15.74803 18.83299
vt 19.68504 19.34797
vt 15.74803 19.34797
vt -15.74803 23.81578
vt -16.73228 23.81578
vt -15.74803 24.84575
vt -16.73228 24.84575
vt -19.68504 0.6161242
vt -19.68504 1.646095
vt -18.70079 0.6161242
vt -18.70079 1.646095
vt -18.70079 22.45197
vt -19.68504 22.45197
vt -18.70079 23.48194
vt -19.68504 23.48194
vt -16.73228 0.6161242
vt -16.73228 1.646095
vt -15.74803 0.6161242
vt -15.74803 1.646095
vt -15.74803 22.45197
vt -16.73228 22.45197
vt -15.74803 23.48194
vt -16.73228 23.48194
vt -16.73228 10.42886
vt -16.73228 11.45883
vt -15.74803 10.42886
vt -15.74803 11.45883
vt 19.68504 1.388602
vt 19.68504 0.8736169
vt 15.74803 1.388602
vt 15.74803 0.8736169
vt 19.68504 25.02077
vt 15.74803 25.02077
vt 19.68504 25.53576
vt 15.74803 25.53576
vt -19.68504 3.982756
vt -19.68504 5.012727
vt -18.70079 3.982756
vt -18.70079 5.012727
vt -16.73228 7.272431
vt -16.73228 8.302402
vt -15.74803 7.272431
vt -15.74803 8.302402
vt 19.68504 22.70946
vt 15.74803 22.70946
vt 19.68504 23.22445
vt 15.74803 23.22445
vt 19.68504 14.17052
vt 19.68504 13.65553
vt 15.74803 14.17052
vt 15.74803 13.65553
vt -16.73228 13.39804
vt -16.73228 14.42801
vt -15.74803 13.39804
vt -15.74803 14.42801
vt 7.874016 25.59055
vt 7.840334 26.10443
vt 7.739865 26.60952
vt 7.574329 27.09718
vt 7.346557 27.55906
vt 7.060446 27.98725
vt 6.720893 28.37444
vt 6.333706 28.71399
vt 5.905512 29.0001
vt 5.443635 29.22787
vt 4.95598 29.39341
vt 4.450891 29.49388
vt 3.937008 29.52756
vt -19.68504 29.52756
vt 11.81102 -6.454785E-18
vt 7.874016 -6.454785E-18
vt 19.68504 -1.997384
vt 19.68504 -2.512369
vt 15.74803 -1.997384
vt 15.74803 -2.512369

usemtl wood

f 3/3/1 2/2/1 1/1/1
f 2/2/1 3/3/1 4/4/1
f 4/4/1 3/3/1 5/5/1
f 4/4/1 5/5/1 6/6/1
f 7/9/2 6/8/2 5/7/2
f 6/8/2 7/9/2 8/10/2
f 9/13/3 2/12/3 4/11/3
f 2/12/3 9/13/3 10/14/3
f 11/17/2 3/16/2 1/15/2
f 3/16/2 11/17/2 12/18/2
f 6/11/4 9/14/4 4/12/4
f 9/14/4 6/11/4 8/13/4
f 9/21/5 11/20/5 10/19/5
f 11/20/5 9/21/5 12/22/5
f 12/22/5 9/21/5 7/23/5
f 7/23/5 9/21/5 8/24/5
f 11/10/6 2/15/6 10/17/6
f 2/15/6 11/10/6 1/8/6

usemtl woodDark

f 7/23/5 13/25/5 12/22/5
f 13/25/5 7/23/5 14/26/5
f 17/29/1 16/28/1 15/27/1
f 16/28/1 17/29/1 18/30/1
f 18/30/1 17/29/1 3/3/1
f 3/3/1 17/29/1 19/31/1
f 19/31/1 17/29/1 20/32/1
f 5/5/1 3/3/1 19/31/1
f 12/10/6 21/34/6 3/33/6
f 21/34/6 12/10/6 22/35/6
f 22/35/6 12/10/6 23/36/6
f 23/36/6 12/10/6 24/37/6
f 24/37/6 12/10/6 25/38/6
f 25/38/6 12/10/6 26/39/6
f 26/39/6 12/10/6 27/40/6
f 27/40/6 12/10/6 28/41/6
f 28/41/6 12/10/6 29/42/6
f 29/42/6 12/10/6 30/43/6
f 30/43/6 12/10/6 13/14/6
f 3/33/6 21/34/6 31/44/6
f 30/43/6 13/14/6 32/45/6
f 32/45/6 13/14/6 33/46/6
f 33/46/6 13/14/6 34/47/6
f 18/48/6 3/33/6 31/44/6
f 19/50/4 7/13/4 5/49/4
f 7/13/4 19/50/4 35/51/4
f 7/13/4 35/51/4 36/52/4
f 7/13/4 36/52/4 37/53/4
f 7/13/4 37/53/4 38/54/4
f 7/13/4 38/54/4 39/55/4
f 7/13/4 39/55/4 40/56/4
f 7/13/4 40/56/4 41/57/4
f 7/13/4 41/57/4 42/58/4
f 7/13/4 42/58/4 43/59/4
f 7/13/4 43/59/4 44/60/4
f 7/13/4 44/60/4 45/61/4
f 7/13/4 45/61/4 14/17/4
f 14/17/4 45/61/4 46/62/4
f 14/17/4 46/62/4 47/63/4
f 14/17/4 47/63/4 48/64/4
f 13/18/2 48/66/2 34/65/2
f 48/66/2 13/18/2 14/9/2
f 49/67/2 34/65/2 48/66/2
f 49/67/2 50/64/2 34/65/2
f 51/68/2 50/64/2 49/67/2
f 50/64/2 51/68/2 52/69/2

usemtl stoneDark

f 53/71/7 17/8/2 15/70/2
f 17/8/2 53/71/7 54/72/7
f 55/74/8 19/73/3 20/11/3
f 19/73/3 55/74/8 35/75/8
f 18/78/3 56/77/8 16/76/3
f 56/77/8 18/78/3 31/79/8
f 33/82/9 50/81/5 57/80/9
f 50/81/5 33/82/9 34/25/5
f 51/85/1 58/84/10 52/83/1
f 58/84/10 51/85/1 59/86/10
f 60/88/9 48/26/5 47/87/9
f 48/26/5 60/88/9 49/89/5
f 63/92/12 62/91/11 61/90/11
f 62/91/11 63/92/12 64/93/12
f 67/96/13 66/95/14 65/94/13
f 66/95/14 67/96/13 68/97/14
f 70/100/16 38/99/15 69/98/15
f 38/99/15 70/100/16 39/101/16
f 71/104/17 47/103/9 46/102/17
f 47/103/9 71/104/17 60/105/9
f 28/108/18 73/107/19 72/106/18
f 73/107/19 28/108/18 29/109/19
f 26/112/21 74/111/20 25/110/20
f 74/111/20 26/112/21 75/113/21
f 78/116/23 77/115/22 76/114/22
f 77/115/22 78/116/23 79/117/23
f 17/119/4 55/51/4 20/118/4
f 55/51/4 17/119/4 80/52/4
f 80/52/4 17/119/4 81/53/4
f 81/53/4 17/119/4 69/54/4
f 69/54/4 17/119/4 70/55/4
f 70/55/4 17/119/4 82/56/4
f 82/56/4 17/119/4 83/57/4
f 83/57/4 17/119/4 84/58/4
f 84/58/4 17/119/4 85/59/4
f 85/59/4 17/119/4 54/120/4
f 85/59/4 54/120/4 86/121/4
f 85/59/4 86/121/4 87/60/4
f 87/60/4 86/121/4 88/122/4
f 87/60/4 88/122/4 77/123/4
f 87/60/4 77/123/4 79/124/4
f 87/60/4 79/124/4 62/125/4
f 87/60/4 62/125/4 64/126/4
f 87/60/4 64/126/4 89/61/4
f 89/61/4 64/126/4 68/127/4
f 89/61/4 68/127/4 67/128/4
f 89/61/4 67/128/4 71/62/4
f 71/62/4 67/128/4 90/129/4
f 71/62/4 90/129/4 91/130/4
f 71/62/4 91/130/4 60/63/4
f 60/63/4 91/130/4 92/131/4
f 60/63/4 92/131/4 59/132/4
f 60/63/4 59/132/4 51/69/4
f 60/63/4 51/69/4 49/64/4
f 83/135/21 40/134/20 82/133/20
f 40/134/20 83/135/21 41/136/21
f 82/139/20 39/138/16 70/137/16
f 39/138/16 82/139/20 40/140/20
f 24/143/16 93/142/15 23/141/15
f 93/142/15 24/143/16 94/144/16
f 22/147/25 95/146/24 21/145/24
f 95/146/24 22/147/25 96/148/25
f 90/151/26 65/150/13 97/149/26
f 65/150/13 90/151/26 67/152/13
f 99/155/28 86/154/27 98/153/27
f 86/154/27 99/155/28 88/156/28
f 21/159/24 56/158/8 31/157/8
f 56/158/8 21/159/24 95/160/24
f 32/163/17 57/162/9 100/161/17
f 57/162/9 32/163/17 33/164/9
f 80/167/24 35/166/8 55/165/8
f 35/166/8 80/167/24 36/168/24
f 25/171/20 94/170/16 24/169/16
f 94/170/16 25/171/20 74/172/20
f 91/175/29 97/174/26 101/173/29
f 97/174/26 91/175/29 90/176/26
f 87/179/19 45/178/30 44/177/19
f 45/178/30 87/179/19 89/180/30
f 26/183/21 102/182/31 75/181/21
f 102/182/31 26/183/21 27/184/31
f 27/187/31 72/186/18 102/185/31
f 72/186/18 27/187/31 28/188/18
f 61/191/11 79/190/23 78/189/23
f 79/190/23 61/191/11 62/192/11
f 81/195/25 36/194/24 80/193/24
f 36/194/24 81/195/25 37/196/25
f 30/199/30 100/198/17 103/197/30
f 100/198/17 30/199/30 32/200/17
f 23/203/15 96/202/25 22/201/25
f 96/202/25 23/203/15 93/204/15
f 89/207/30 46/206/17 45/205/30
f 46/206/17 89/207/30 71/208/17
f 69/211/15 37/210/25 81/209/25
f 37/210/25 69/211/15 38/212/15
f 84/215/31 43/214/18 42/213/31
f 43/214/18 84/215/31 85/216/18
f 92/219/32 101/218/29 104/217/32
f 101/218/29 92/219/32 91/220/29
f 98/223/27 54/222/7 53/221/7
f 54/222/7 98/223/27 86/224/27
f 29/227/19 103/226/30 73/225/19
f 103/226/30 29/227/19 30/228/30
f 85/231/18 44/230/19 43/229/18
f 44/230/19 85/231/18 87/232/19
f 76/235/22 88/234/28 99/233/28
f 88/234/28 76/235/22 77/236/22
f 68/239/14 63/238/12 66/237/14
f 63/238/12 68/239/14 64/240/12
f 83/243/21 42/242/31 41/241/21
f 42/242/31 83/243/21 84/244/31
f 72/41/6 98/246/6 53/245/6
f 98/246/6 72/41/6 73/42/6
f 98/246/6 73/42/6 99/247/6
f 99/247/6 73/42/6 76/248/6
f 76/248/6 73/42/6 78/249/6
f 78/249/6 73/42/6 61/250/6
f 61/250/6 73/42/6 63/251/6
f 63/251/6 73/42/6 103/43/6
f 63/251/6 103/43/6 66/252/6
f 66/252/6 103/43/6 65/253/6
f 65/253/6 103/43/6 100/45/6
f 65/253/6 100/45/6 97/254/6
f 97/254/6 100/45/6 101/255/6
f 101/255/6 100/45/6 57/46/6
f 101/255/6 57/46/6 104/256/6
f 104/256/6 57/46/6 58/257/6
f 58/257/6 57/46/6 50/47/6
f 58/257/6 50/47/6 52/258/6
f 95/34/6 16/259/6 56/44/6
f 16/259/6 95/34/6 15/260/6
f 15/260/6 95/34/6 96/35/6
f 15/260/6 96/35/6 93/36/6
f 15/260/6 93/36/6 94/37/6
f 15/260/6 94/37/6 74/38/6
f 15/260/6 74/38/6 75/39/6
f 15/260/6 75/39/6 102/40/6
f 15/260/6 102/40/6 72/41/6
f 15/260/6 72/41/6 53/245/6
f 59/263/10 104/262/32 58/261/10
f 104/262/32 59/263/10 92/264/32

