# Created by Kenney (www.kenney.nl)

mtllib wallCornerEdge.mtl

g wallCornerEdge

v -0.5 0 0.4
v -0.4 0 0.4
v -0.5 1 0.4
v -0.4 1 0.4
v -0.4 1 0.475
v -0.4 0 0.475
v -0.4 1 0.5
v -0.4 0 0.5
v -0.5 0 0.5
v -0.4 0 0.425
v -0.5 1 0.5
v -0.4 1 0.425
v 0.5 1 -0.5
v 0.5 0 -0.5
v 0.5 1 -0.4
v 0.5 0 -0.4
v 0.4 0 -0.5
v 0.4 1 -0.5
v 0.475 1 -0.4
v 0.425 1 -0.4
v 0.4 1 -0.4
v 0.425 0 -0.4
v 0.4 0 -0.4
v 0.475 0 -0.4
v 0.2187184 1 0.2187184
v 0.1833631 1 0.1833631
v 0.1833631 0 0.1833631
v 0.2187184 0 0.2187184

vn 0 0 -1
vn 1 0 0
vn 0 -1 0
vn 0 0 1
vn 0 1 0
vn -1 0 0
vn -0.3826834 0 -0.9238795
vn -0.9238795 0 -0.3826834
vn 0.9238795 0 0.3826834
vn 0.3826834 0 0.9238795

vt 19.68504 0
vt 15.74803 0
vt 19.68504 39.37008
vt 15.74803 39.37008
vt -18.70079 39.37008
vt -18.70079 0
vt -19.68504 39.37008
vt -19.68504 0
vt -15.74803 19.68504
vt -15.74803 18.70079
vt -19.68504 19.68504
vt -15.74803 16.73228
vt -15.74803 15.74803
vt -19.68504 15.74803
vt -15.74803 9.947598E-13
vt -19.68504 9.947598E-13
vt -15.74803 39.37008
vt 15.74803 19.68504
vt 19.68504 19.68504
vt 15.74803 18.70079
vt 15.74803 16.73228
vt 15.74803 15.74803
vt 19.68504 15.74803
vt 15.74803 7.105427E-15
vt 19.68504 7.105427E-15
vt -15.74803 0
vt -16.73228 39.37008
vt -16.73228 0
vt -19.68504 -19.68504
vt -19.68504 -15.74803
vt -15.74803 -19.68504
vt -18.70079 -15.74803
vt -16.73228 -15.74803
vt -15.74803 -15.74803
vt 16.73228 0
vt 16.73228 39.37008
vt 19.68504 -15.74803
vt 19.68504 -19.68504
vt 18.70079 -15.74803
vt 15.74803 -19.68504
vt 16.73228 -15.74803
vt 15.74803 -15.74803
vt 18.70079 0
vt 18.70079 39.37008
vt -8.610962 8.610962
vt -7.219019 7.219019
vt 20.95245 0
vt -3.906905 0
vt 20.95245 39.37008
vt -3.906905 39.37008
vt -20.95245 0
vt -20.95245 39.37008
vt 3.906905 0
vt 3.906905 39.37008
vt 21.70576 39.37008
vt 21.70576 0
vt -4.660219 39.37008
vt -4.660219 0
vt 4.660219 0
vt -21.70576 0
vt 4.660219 39.37008
vt -21.70576 39.37008
vt 8.610962 8.610962
vt 7.219019 7.219019

usemtl wood

f 3/3/1 2/2/1 1/1/1
f 2/2/1 3/3/1 4/4/1
f 7/7/2 6/6/2 5/5/2
f 6/6/2 7/7/2 8/8/2
f 9/11/3 6/10/3 8/9/3
f 6/10/3 9/11/3 10/12/3
f 10/12/3 9/11/3 2/13/3
f 2/13/3 9/11/3 1/14/3
f 7/17/4 9/16/4 8/15/4
f 9/16/4 7/17/4 11/7/4
f 5/20/5 11/19/5 7/18/5
f 11/19/5 5/20/5 12/21/5
f 11/19/5 12/21/5 4/22/5
f 11/19/5 4/22/5 3/23/5
f 9/25/6 3/4/6 1/24/6
f 3/4/6 9/25/6 11/3/6
f 15/4/2 14/1/2 13/3/2
f 14/1/2 15/4/2 16/2/2
f 18/17/1 14/8/1 17/26/1
f 14/8/1 18/17/1 13/7/1
f 12/27/2 2/26/2 4/17/2
f 2/26/2 12/27/2 10/28/2
f 18/31/5 15/30/5 13/29/5
f 15/30/5 18/31/5 19/32/5
f 19/32/5 18/31/5 20/33/5
f 20/33/5 18/31/5 21/34/5
f 20/36/4 23/2/4 22/35/4
f 23/2/4 20/36/4 21/4/4
f 23/26/6 18/7/6 17/8/6
f 18/7/6 23/26/6 21/17/6
f 24/39/3 14/38/3 16/37/3
f 14/38/3 24/39/3 17/40/3
f 17/40/3 24/39/3 22/41/3
f 17/40/3 22/41/3 23/42/3
f 15/3/4 24/43/4 16/1/4
f 24/43/4 15/3/4 19/44/4

usemtl stone

f 20/33/5 25/45/5 19/32/5
f 25/45/5 20/33/5 26/46/5
f 25/45/5 26/46/5 5/20/5
f 5/20/5 26/46/5 12/21/5
f 12/49/7 27/48/7 10/47/7
f 27/48/7 12/49/7 26/50/7
f 27/53/8 20/52/8 22/51/8
f 20/52/8 27/53/8 26/54/8
f 25/57/9 24/56/9 19/55/9
f 24/56/9 25/57/9 28/58/9
f 25/61/10 6/60/10 28/59/10
f 6/60/10 25/61/10 5/62/10
f 28/63/3 22/41/3 24/39/3
f 22/41/3 28/63/3 27/64/3
f 27/64/3 28/63/3 6/10/3
f 27/64/3 6/10/3 10/12/3

