# Created by Kenney (www.kenney.nl)

mtllib wallWood.mtl

g wallWood

v 0.4 0 -0.5
v 0.4 1 -0.5
v 0.4 0 -0.4
v 0.4 1 -0.4
v 0.5 0 0.5
v 0.4 0 0.5
v 0.5 1 0.5
v 0.4 1 0.5
v 0.425 0 -0.4
v 0.425 1 -0.4
v 0.5 0 -0.4
v 0.5 0 -0.5
v 0.475 0 -0.4
v 0.4 0 0.4
v 0.4 1 0.4
v 0.5 1 -0.5
v 0.5 1 -0.4
v 0.5 0 0.4
v 0.475 0 0.4
v 0.425 0 0.4
v 0.475 1 0.4
v 0.5 1 0.4
v 0.425 1 0.4
v 0.475 1 -0.4

vn -1 0 0
vn 0 0 1
vn 0 -1 0
vn 0 0 -1
vn 1 0 0
vn 0 1 0

vt -19.68504 0
vt -19.68504 39.37008
vt -15.74803 0
vt -15.74803 39.37008
vt 19.68504 0
vt 15.74803 0
vt 19.68504 39.37008
vt 15.74803 39.37008
vt 16.73228 0
vt 16.73228 39.37008
vt 19.68504 -15.74803
vt 19.68504 -19.68504
vt 18.70079 -15.74803
vt 15.74803 -19.68504
vt 16.73228 -15.74803
vt 15.74803 -15.74803
vt 19.68504 19.68504
vt 19.68504 15.74803
vt 15.74803 19.68504
vt 18.70079 15.74803
vt 16.73228 15.74803
vt 15.74803 15.74803
vt -18.70079 0
vt -18.70079 39.37008
vt -19.68504 15.74803
vt -19.68504 19.68504
vt -18.70079 15.74803
vt -15.74803 19.68504
vt -16.73228 15.74803
vt -15.74803 15.74803
vt 18.70079 0
vt 18.70079 39.37008
vt -16.73228 0
vt -16.73228 39.37008
vt -19.68504 -19.68504
vt -19.68504 -15.74803
vt -15.74803 -19.68504
vt -18.70079 -15.74803
vt -16.73228 -15.74803
vt -15.74803 -15.74803

usemtl wood

f 3/3/1 2/2/1 1/1/1
f 2/2/1 3/3/1 4/4/1
f 7/7/2 6/6/2 5/5/2
f 6/6/2 7/7/2 8/8/2
f 10/10/2 3/6/2 9/9/2
f 3/6/2 10/10/2 4/8/2
f 13/13/3 12/12/3 11/11/3
f 12/12/3 13/13/3 1/14/3
f 1/14/3 13/13/3 9/15/3
f 1/14/3 9/15/3 3/16/3
f 6/5/1 15/8/1 14/6/1
f 15/8/1 6/5/1 8/7/1
f 2/4/4 12/1/4 1/3/4
f 12/1/4 2/4/4 16/2/4
f 17/8/5 12/5/5 16/7/5
f 12/5/5 17/8/5 11/6/5
f 6/19/3 18/18/3 5/17/3
f 18/18/3 6/19/3 19/20/3
f 19/20/3 6/19/3 20/21/3
f 20/21/3 6/19/3 14/22/3
f 21/24/4 18/1/4 19/23/4
f 18/1/4 21/24/4 22/2/4
f 21/27/6 7/26/6 22/25/6
f 7/26/6 21/27/6 8/28/6
f 8/28/6 21/27/6 23/29/6
f 8/28/6 23/29/6 15/30/6
f 17/7/2 13/31/2 11/5/2
f 13/31/2 17/7/2 24/32/2
f 15/4/4 20/33/4 14/3/4
f 20/33/4 15/4/4 23/34/4
f 7/2/5 18/3/5 22/4/5
f 18/3/5 7/2/5 5/1/5
f 2/37/6 17/36/6 16/35/6
f 17/36/6 2/37/6 24/38/6
f 24/38/6 2/37/6 10/39/6
f 10/39/6 2/37/6 4/40/6

usemtl woodDark

f 10/39/6 21/27/6 24/38/6
f 21/27/6 10/39/6 23/29/6
f 20/6/1 10/4/1 9/3/1
f 10/4/1 20/6/1 23/8/1
f 20/21/3 13/13/3 19/20/3
f 13/13/3 20/21/3 9/15/3
f 21/4/5 13/6/5 24/8/5
f 13/6/5 21/4/5 19/3/5

