# Created by Kenney (www.kenney.nl)

mtllib wallDiagonal.mtl

g wallDiagonal

v -0.5 0 0.4
v -0.45 9.023893E-17 0.4
v -0.5 1 0.4
v -0.45 1 0.4
v -0.4 0 0.5
v -0.4 9.023893E-17 0.45
v -0.5 0 0.5
v -0.4 1 0.45
v -0.4 1 0.5
v 0.4 0 -0.5
v 0.4 1 -0.5
v 0.4 0 -0.45
v 0.4 1 -0.45
v 0.5 0 -0.5
v 0.5 1 -0.5
v 0.5 1 -0.4
v 0.45 1 -0.4
v -0.5 1 0.5
v 0.5 0 -0.4
v 0.45 0 -0.4

vn 0 0 -1
vn 0 -1 0
vn 1 0 0
vn -1 0 0
vn 0 1 0
vn 0 0 1
vn -0.7071068 0 -0.7071068
vn 0.7071068 0 0.7071068

vt 19.68504 0
vt 17.71654 3.552714E-15
vt 19.68504 39.37008
vt 17.71654 39.37008
vt -15.74803 19.68504
vt -15.74803 17.71654
vt -19.68504 19.68504
vt -17.71654 15.74803
vt -19.68504 15.74803
vt -17.71654 39.37008
vt -17.71654 3.552714E-15
vt -19.68504 39.37008
vt -19.68504 0
vt -17.71654 0
vt -15.74803 0
vt -15.74803 39.37008
vt -19.68504 -19.68504
vt -19.68504 -15.74803
vt -15.74803 -19.68504
vt -17.71654 -15.74803
vt -15.74803 -17.71654
vt 15.74803 17.71654
vt 15.74803 19.68504
vt 17.71654 15.74803
vt 19.68504 19.68504
vt 19.68504 15.74803
vt 19.68504 -15.74803
vt 19.68504 -19.68504
vt 17.71654 -15.74803
vt 15.74803 -19.68504
vt 15.74803 -17.71654
vt 15.74803 39.37008
vt 15.74803 0
vt 17.71654 0
vt -23.66302 6.59578E-32
vt -23.66302 39.37008
vt 23.66302 3.552714E-15
vt 23.66302 39.37008
vt 23.66302 -2.931458E-32
vt -23.66302 3.552714E-15

usemtl wood

f 3/3/1 2/2/1 1/1/1
f 2/2/1 3/3/1 4/4/1
f 7/7/2 6/6/2 5/5/2
f 6/6/2 7/7/2 2/8/2
f 2/8/2 7/7/2 1/9/2
f 9/12/3 6/11/3 8/10/3
f 6/11/3 9/12/3 5/13/3
f 12/14/4 11/12/4 10/13/4
f 11/12/4 12/14/4 13/10/4
f 11/16/1 14/13/1 10/15/1
f 14/13/1 11/16/1 15/12/1
f 11/19/5 16/18/5 15/17/5
f 16/18/5 11/19/5 17/20/5
f 17/20/5 11/19/5 13/21/5
f 4/24/5 9/23/5 8/22/5
f 9/23/5 4/24/5 18/25/5
f 18/25/5 4/24/5 3/26/5
f 20/29/2 14/28/2 19/27/2
f 14/28/2 20/29/2 10/30/2
f 10/30/2 20/29/2 12/31/2
f 16/32/3 14/1/3 15/3/3
f 14/1/3 16/32/3 19/33/3
f 16/3/6 20/34/6 19/1/6
f 20/34/6 16/3/6 17/4/6
f 7/1/4 3/32/4 1/33/4
f 3/32/4 7/1/4 18/3/4
f 9/16/6 7/13/6 5/15/6
f 7/13/6 9/16/6 18/12/6

usemtl stone

f 6/6/2 12/31/2 20/29/2
f 12/31/2 6/6/2 2/8/2
f 13/21/5 8/22/5 17/20/5
f 8/22/5 13/21/5 4/24/5
f 2/37/7 13/36/7 12/35/7
f 13/36/7 2/37/7 4/38/7
f 8/36/8 20/39/8 17/38/8
f 20/39/8 8/36/8 6/40/8

