# Created by Kenney (www.kenney.nl)

mtllib wallWoodWindowGlass.mtl

g wallWoodWindowGlass

v 0.4 0 -0.5
v 0.4 1 -0.5
v 0.4 0 -0.4
v 0.4 1 -0.4
v 0.5 0 -0.4
v 0.5 0 -0.5
v 0.475 0 -0.4
v 0.425 0 -0.4
v 0.5 0 0.5
v 0.4 0 0.5
v 0.5 1 0.5
v 0.4 1 0.5
v 0.5 1 -0.4
v 0.475 1 -0.4
v 0.4 0 0.4
v 0.425 0 0.4
v 0.4 1 0.4
v 0.425 1 0.4
v 0.425 1 -0.4
v 0.5 1 -0.5
v 0.5 1 0.4
v 0.5 0 0.4
v 0.475 0 0.4
v 0.475 1 0.4
v 0.425 0.25 0.15
v 0.425 0.25 -0.15
v 0.4 0.25 0.15
v 0.4 0.25 -0.15
v 0.5 0.3 0.1
v 0.425 0.475 0.1
v 0.4 0.3 0.1
v 0.4 0.7 0.1
v 0.425 0.525 0.1
v 0.475 0.525 0.1
v 0.475 0.475 0.1
v 0.5 0.7 0.1
v 0.475 0.2 -0.2
v 0.475 0.75 -0.15
v 0.475 0.8 -0.2
v 0.475 0.8 0.2
v 0.475 0.75 0.15
v 0.475 0.25 0.15
v 0.475 0.25 -0.15
v 0.475 0.2 0.2
v 0.475 0.25 0.2
v 0.5 0.3 -0.1
v 0.475 0.475 -0.1
v 0.5 0.7 -0.1
v 0.475 0.525 -0.1
v 0.425 0.525 -0.1
v 0.4 0.7 -0.1
v 0.425 0.475 -0.1
v 0.4 0.3 -0.1
v 0.5 0.25 -0.15
v 0.5 0.75 -0.15
v 0.425 0.75 0.15
v 0.4 0.75 0.15
v 0.5 0.75 0.15
v 0.425 0.75 -0.15
v 0.4 0.75 -0.15
v 0.425 0.8 -0.2
v 0.425 0.2 -0.2
v 0.425 0.2 0.2
v 0.425 0.8 0.2
v 0.425 0.25 0.2
v 0.5 0.25 0.15

vn -1 0 0
vn 0 -1 0
vn 0 0 1
vn 0 0 -1
vn 0 1 0
vn 1 0 0

vt -19.68504 0
vt -19.68504 39.37008
vt -15.74803 0
vt -15.74803 39.37008
vt 19.68504 -15.74803
vt 19.68504 -19.68504
vt 18.70079 -15.74803
vt 15.74803 -19.68504
vt 16.73228 -15.74803
vt 15.74803 -15.74803
vt 19.68504 1.776357E-15
vt 15.74803 1.776357E-15
vt 19.68504 39.37008
vt 15.74803 39.37008
vt 19.68504 0
vt 18.70079 0
vt 18.70079 39.37008
vt -16.73228 0
vt -16.73228 39.37008
vt 16.73228 0
vt 15.74803 0
vt 16.73228 39.37008
vt -19.68504 -19.68504
vt -19.68504 -15.74803
vt -15.74803 -19.68504
vt -18.70079 -15.74803
vt -16.73228 -15.74803
vt -15.74803 -15.74803
vt 19.68504 19.68504
vt 19.68504 15.74803
vt 15.74803 19.68504
vt 18.70079 15.74803
vt 16.73228 15.74803
vt 15.74803 15.74803
vt -18.70079 0
vt -18.70079 39.37008
vt -19.68504 15.74803
vt -19.68504 19.68504
vt -18.70079 15.74803
vt -15.74803 19.68504
vt -16.73228 15.74803
vt -15.74803 15.74803
vt 16.73228 5.905512
vt 16.73228 -5.905512
vt 15.74803 5.905512
vt 15.74803 -5.905512
vt -19.68504 11.81102
vt -16.73228 18.70079
vt -15.74803 11.81102
vt -15.74803 27.55906
vt -16.73228 20.66929
vt -18.70079 20.66929
vt -18.70079 18.70079
vt -19.68504 27.55906
vt 7.874016 7.874016
vt 5.905512 29.52756
vt 7.874016 31.49606
vt -7.874016 31.49606
vt -5.905512 29.52756
vt -5.905512 9.84252
vt 5.905512 9.84252
vt -7.874016 7.874016
vt -7.874016 9.84252
vt 19.68504 11.81102
vt 18.70079 18.70079
vt 19.68504 27.55906
vt 18.70079 20.66929
vt 16.73228 20.66929
vt 15.74803 27.55906
vt 16.73228 18.70079
vt 15.74803 11.81102
vt -18.70079 9.84252
vt -19.68504 9.84252
vt -18.70079 29.52756
vt -19.68504 29.52756
vt 16.73228 9.84252
vt 15.74803 9.84252
vt 16.73228 29.52756
vt 15.74803 29.52756
vt -19.68504 -5.905512
vt -19.68504 5.905512
vt -18.70079 -5.905512
vt -18.70079 5.905512
vt -18.70079 -3.937008
vt -18.70079 3.937008
vt -16.73228 -3.937008
vt -16.73228 3.937008
vt -19.68504 -3.937008
vt -19.68504 3.937008
vt -15.74803 -3.937008
vt -15.74803 3.937008
vt -3.937008 20.66929
vt 3.937008 20.66929
vt -3.937008 18.70079
vt 3.937008 18.70079
vt 18.70079 3.937008
vt 18.70079 -3.937008
vt 16.73228 3.937008
vt 16.73228 -3.937008
vt 19.68504 3.937008
vt 19.68504 -3.937008
vt 15.74803 3.937008
vt 15.74803 -3.937008
vt -16.73228 9.84252
vt -16.73228 29.52756
vt -15.74803 9.84252
vt -15.74803 29.52756
vt 7.874016 9.84252
vt 18.70079 9.84252
vt 18.70079 29.52756
vt 19.68504 9.84252
vt 19.68504 29.52756
vt 3.937008 27.55906
vt -3.937008 27.55906
vt -3.937008 11.81102
vt 3.937008 11.81102
vt -16.73228 -5.905512
vt -16.73228 5.905512
vt -15.74803 -5.905512
vt -15.74803 5.905512
vt 19.68504 5.905512
vt 19.68504 -5.905512
vt 18.70079 5.905512
vt 18.70079 -5.905512

usemtl wood

f 3/3/1 2/2/1 1/1/1
f 2/2/1 3/3/1 4/4/1
f 7/7/2 6/6/2 5/5/2
f 6/6/2 7/7/2 1/8/2
f 1/8/2 7/7/2 8/9/2
f 1/8/2 8/9/2 3/10/2
f 11/13/3 10/12/3 9/11/3
f 10/12/3 11/13/3 12/14/3
f 13/13/3 7/16/3 5/15/3
f 7/16/3 13/13/3 14/17/3
f 17/4/4 16/18/4 15/3/4
f 16/18/4 17/4/4 18/19/4
f 19/22/3 3/21/3 8/20/3
f 3/21/3 19/22/3 4/14/3
f 2/25/5 13/24/5 20/23/5
f 13/24/5 2/25/5 14/26/5
f 14/26/5 2/25/5 19/27/5
f 19/27/5 2/25/5 4/28/5
f 13/14/6 6/15/6 20/13/6
f 6/15/6 13/14/6 5/21/6
f 11/2/6 22/3/6 21/4/6
f 22/3/6 11/2/6 9/1/6
f 10/15/1 17/14/1 15/21/1
f 17/14/1 10/15/1 12/13/1
f 10/31/2 22/30/2 9/29/2
f 22/30/2 10/31/2 23/32/2
f 23/32/2 10/31/2 16/33/2
f 16/33/2 10/31/2 15/34/2
f 24/36/4 22/1/4 23/35/4
f 22/1/4 24/36/4 21/2/4
f 24/39/5 11/38/5 21/37/5
f 11/38/5 24/39/5 12/40/5
f 12/40/5 24/39/5 18/41/5
f 12/40/5 18/41/5 17/42/5
f 2/4/4 6/1/4 1/3/4
f 6/1/4 2/4/4 20/2/4
f 27/45/2 26/44/2 25/43/2
f 26/44/2 27/45/2 28/46/2
f 31/49/4 30/48/4 29/47/4
f 30/48/4 31/49/4 32/50/4
f 30/48/4 32/50/4 33/51/4
f 33/51/4 32/50/4 34/52/4
f 35/53/4 29/47/4 30/48/4
f 29/47/4 35/53/4 36/54/4
f 36/54/4 35/53/4 34/52/4
f 36/54/4 34/52/4 32/50/4
f 39/57/6 38/56/6 37/55/6
f 38/56/6 39/57/6 40/58/6
f 38/56/6 40/58/6 41/59/6
f 41/59/6 40/58/6 42/60/6
f 43/61/6 37/55/6 38/56/6
f 37/55/6 43/61/6 44/62/6
f 44/62/6 43/61/6 42/60/6
f 44/62/6 42/60/6 40/58/6
f 44/62/6 40/58/6 45/63/6
f 48/66/3 47/65/3 46/64/3
f 47/65/3 48/66/3 49/67/3
f 49/67/3 48/66/3 50/68/3
f 50/68/3 48/66/3 51/69/3
f 52/70/3 46/64/3 47/65/3
f 51/69/3 52/70/3 50/68/3
f 53/71/3 52/70/3 51/69/3
f 52/70/3 53/71/3 46/64/3
f 38/74/4 54/73/4 43/72/4
f 54/73/4 38/74/4 55/75/4
f 56/78/3 27/77/3 25/76/3
f 27/77/3 56/78/3 57/79/3
f 38/82/5 58/81/5 55/80/5
f 58/81/5 38/82/5 41/83/5
f 50/86/5 34/85/5 49/84/5
f 34/85/5 50/86/5 33/87/5
f 53/90/5 29/89/5 46/88/5
f 29/89/5 53/90/5 31/91/5
f 52/94/1 33/93/1 50/92/1
f 33/93/1 52/94/1 30/95/1
f 30/98/2 47/97/2 35/96/2
f 47/97/2 30/98/2 52/99/2
f 34/92/6 47/95/6 49/93/6
f 47/95/6 34/92/6 35/94/6
f 32/102/2 48/101/2 36/100/2
f 48/101/2 32/102/2 51/103/2
f 28/106/4 59/105/4 26/104/4
f 59/105/4 28/106/4 60/107/4
f 62/62/1 26/60/1 61/58/1
f 26/60/1 62/62/1 63/55/1
f 26/60/1 63/55/1 25/61/1
f 25/61/1 63/55/1 56/56/1
f 59/59/1 61/58/1 26/60/1
f 61/58/1 59/59/1 64/57/1
f 64/57/1 59/59/1 56/56/1
f 64/57/1 56/56/1 63/55/1
f 64/57/1 63/55/1 65/108/1
f 66/111/3 41/110/3 42/109/3
f 41/110/3 66/111/3 58/112/3
f 55/56/6 48/113/6 54/61/6
f 48/113/6 55/56/6 58/59/6
f 48/113/6 58/59/6 36/114/6
f 36/114/6 58/59/6 29/115/6
f 46/116/6 54/61/6 48/113/6
f 54/61/6 46/116/6 66/60/6
f 66/60/6 46/116/6 29/115/6
f 66/60/6 29/115/6 58/59/6
f 28/60/1 53/115/1 60/59/1
f 53/115/1 28/60/1 27/61/1
f 53/115/1 27/61/1 31/116/1
f 31/116/1 27/61/1 32/113/1
f 51/114/1 60/59/1 53/115/1
f 60/59/1 51/114/1 57/56/1
f 57/56/1 51/114/1 32/113/1
f 57/56/1 32/113/1 27/61/1
f 60/119/5 56/118/5 59/117/5
f 56/118/5 60/119/5 57/120/5
f 42/123/2 54/122/2 66/121/2
f 54/122/2 42/123/2 43/124/2

usemtl woodDark

f 19/27/5 24/39/5 14/26/5
f 24/39/5 19/27/5 18/41/5
f 16/33/2 7/7/2 23/32/2
f 7/7/2 16/33/2 8/9/2
f 8/3/1 62/62/1 19/4/1
f 62/62/1 8/3/1 16/21/1
f 62/62/1 16/21/1 63/55/1
f 63/55/1 16/21/1 65/108/1
f 65/108/1 16/21/1 64/57/1
f 61/58/1 19/4/1 62/62/1
f 19/4/1 61/58/1 18/14/1
f 18/14/1 61/58/1 64/57/1
f 18/14/1 64/57/1 16/21/1
f 14/14/6 39/57/6 7/21/6
f 39/57/6 14/14/6 24/4/6
f 39/57/6 24/4/6 40/58/6
f 40/58/6 24/4/6 45/63/6
f 45/63/6 24/4/6 44/62/6
f 37/55/6 7/21/6 39/57/6
f 7/21/6 37/55/6 23/3/6
f 23/3/6 37/55/6 44/62/6
f 23/3/6 44/62/6 24/4/6

