# Created by Kenney (www.kenney.nl)

mtllib wallCornerDetail.mtl

g wallCornerDetail

v 0.37 0.8 0.4
v 0.37 1 0.4
v 0.37 0.8 0.5
v 0.37 1 0.5
v 0.53 2.52669E-15 0.475
v 0.5 2.52669E-15 0.475
v 0.53 2.52669E-15 0.5
v 0.5 2.52669E-15 0.53
v 0.5 0 0.5
v 0.4 2.52669E-15 0.53
v 0.4 2.52669E-15 0.5
v 0.37 1.263345E-15 0.5
v 0.37 1.263345E-15 0.4
v 0.4 1.263345E-15 0.4
v 0.4 1.263345E-15 0.37
v 0.425 1.263345E-15 0.4
v 0.425 1.263345E-15 0.37
v 0.515 0.6 0.5
v 0.5 0.6 0.515
v 0.515 0.8 0.5
v 0.5 0.8 0.515
v 0.4 0.6 0.515
v 0.4 0.8 0.515
v 0.425 1 0.37
v 0.425 0.8 0.37
v 0.425 1 0.4
v 0.425 0.8 0.385
v 0.425 0.6 0.385
v 0.425 0.4 0.385
v 0.425 0.2 0.385
v 0.425 0.2 0.37
v 0.425 0.4 0.37
v 0.425 0.6 0.37
v 0.37 0.4 0.5
v 0.37 0.6 0.5
v 0.4 0.4 0.53
v 0.4 0.6 0.53
v 0.4 1 0.4
v 0.53 0.4 0.5
v 0.5 0.4 0.53
v 0.53 0.6 0.5
v 0.5 0.6 0.53
v 0.4 1 0.37
v 0.4 1 0.5
v 0.4 1 0.53
v 0.5 1 0.53
v 0.5 1 0.5
v 0.5 1 0.475
v 0.53 1 0.5
v 0.53 1 0.475
v 0.5 0.8 0.53
v 0.4 0.8 0.53
v 0.53 0.2 0.475
v 0.53 0.2 0.5
v 0.53 0.6 0.475
v 0.53 0.4 0.475
v 0.37 0.2 0.5
v 0.4 0.2 0.53
v 0.385 0.2 0.4
v 0.385 0.2 0.5
v 0.37 0.2 0.4
v 0.4 0.2 0.515
v 0.5 0.2 0.53
v 0.5 0.2 0.515
v 0.515 0.2 0.5
v 0.515 0.2 0.475
v 0.4 0.2 0.385
v 0.4 0.2 0.37
v 0.53 0.8 0.5
v 0.4 0.8 0.37
v 0.385 0.6 0.4
v 0.4 0.6 0.385
v 0.385 0.8 0.4
v 0.4 0.8 0.385
v 0.385 0.6 0.5
v 0.385 0.8 0.5
v 0.5 0.4 0.515
v 0.4 0.4 0.515
v 0.4 0.4 0.37
v 0.4 0.4 0.385
v 0.385 0.4 0.4
v 0.37 0.4 0.4
v 0.385 0.4 0.5
v 0.515 0.4 0.5
v 0.515 0.4 0.475
v 0.37 0.6 0.4
v 0.515 0.6 0.475
v 0.4 0.6 0.37
v 0.515 0.8 0.475
v 0.53 0.8 0.475

vn -1 0 0
vn 0 -1 0
vn 0.7071068 0 0.7071068
vn 0 0 1
vn 1 0 0
vn -0.7071068 0 0.7071068
vn 0 1 0
vn 0 0 -1
vn -0.7071068 0 -0.7071068

vt 15.74803 31.49606
vt 15.74803 39.37008
vt 19.68504 31.49606
vt 19.68504 39.37008
vt 20.86614 18.70079
vt 19.68504 18.70079
vt 20.86614 19.68504
vt 19.68504 20.86614
vt 19.68504 19.68504
vt 15.74803 20.86614
vt 15.74803 19.68504
vt 14.56693 19.68504
vt 14.56693 15.74803
vt 15.74803 15.74803
vt 15.74803 14.56693
vt 16.73228 15.74803
vt 16.73228 14.56693
vt 0.417583 23.62205
vt -0.4175825 23.62205
vt 0.417583 31.49606
vt -0.4175825 31.49606
vt 19.68504 23.62205
vt 15.74803 23.62205
vt -14.56693 39.37008
vt -14.56693 31.49606
vt -15.74803 39.37008
vt -15.15748 31.49606
vt -15.15748 23.62205
vt -15.15748 15.74803
vt -15.15748 7.874016
vt -15.74803 4.863988E-14
vt -14.56693 4.863988E-14
vt -14.56693 7.874016
vt -14.56693 15.74803
vt -14.56693 23.62205
vt 24.2198 15.74803
vt 24.2198 23.62205
vt 25.89013 15.74803
vt 25.89013 23.62205
vt 16.73228 4.973799E-14
vt 15.74803 4.973799E-14
vt 16.73228 39.37008
vt 0.8351657 15.74803
vt -0.8351653 15.74803
vt 0.8351657 23.62205
vt -0.8351653 23.62205
vt -16.73228 14.56693
vt -16.73228 15.74803
vt -15.74803 14.56693
vt -15.74803 15.74803
vt -15.74803 19.68504
vt -14.56693 19.68504
vt -15.74803 20.86614
vt -19.68504 20.86614
vt -19.68504 19.68504
vt -19.68504 18.70079
vt -20.86614 19.68504
vt -20.86614 18.70079
vt -18.70079 7.874016
vt -18.70079 9.947598E-14
vt -19.68504 7.874016
vt -19.68504 9.947598E-14
vt -18.70079 23.62205
vt -18.70079 15.74803
vt -19.68504 23.62205
vt -19.68504 15.74803
vt 24.2198 4.973799E-14
vt 24.2198 7.874016
vt 25.89013 9.947598E-14
vt 25.89013 7.874016
vt -19.68504 -4.263256E-14
vt -19.68504 39.37008
vt -15.74803 5.684342E-14
vt -15.15748 19.68504
vt -15.74803 20.27559
vt -19.68504 20.27559
vt -20.27559 19.68504
vt -20.27559 18.70079
vt -15.74803 15.15748
vt -16.73228 15.15748
vt 15.74803 7.874016
vt 19.68504 4.973799E-14
vt 19.68504 7.874016
vt 0.8351657 31.49606
vt -0.8351653 31.49606
vt 0.8351657 39.37008
vt -0.8351653 39.37008
vt -15.74803 31.49606
vt -16.73228 31.49606
vt -16.73228 39.37008
vt 0.4175827 23.62205
vt -0.4175828 23.62205
vt 0.4175827 31.49606
vt -0.4175828 31.49606
vt -15.74803 3.836931E-14
vt -19.68504 8.81073E-14
vt -15.74803 23.62205
vt -16.73228 23.62205
vt 0.8351654 31.49606
vt -0.8351656 31.49606
vt 0.8351654 39.37008
vt -0.8351656 39.37008
vt 24.63738 23.62205
vt 24.63738 31.49606
vt 25.47255 23.62205
vt 25.47255 31.49606
vt 24.2198 31.49606
vt 24.2198 39.37008
vt 25.89013 31.49606
vt 25.89013 39.37008
vt 19.68504 15.74803
vt -15.74803 4.973799E-14
vt -16.73228 4.973799E-14
vt -15.74803 7.874016
vt -16.73228 7.874016
vt 16.73228 15.15748
vt 15.74803 15.15748
vt 15.15748 15.74803
vt 15.15748 19.68504
vt 15.74803 20.27559
vt 19.68504 20.27559
vt 20.27559 19.68504
vt 20.27559 18.70079
vt 0.417583 7.874016
vt -0.4175825 7.874016
vt 0.417583 15.74803
vt -0.4175825 15.74803
vt 0.8351654 4.973799E-14
vt -0.8351656 4.973799E-14
vt 0.8351654 7.874016
vt -0.8351656 7.874016
vt -20.86614 9.947598E-14
vt -20.27559 7.874016
vt -20.27559 15.74803
vt -20.27559 23.62205
vt -20.86614 23.62205
vt -20.27559 31.49606
vt -20.86614 39.37008
vt -20.86614 31.49606
vt -20.86614 15.74803
vt -20.86614 7.874016
vt 19.68504 9.947598E-14
vt 15.74803 9.947598E-14
vt 18.70079 1.466688E-08
vt 18.70079 39.37008
vt 19.68504 1.466678E-08
vt 19.68504 39.37008
vt 0.4175827 7.874016
vt -0.4175828 7.874016
vt 0.4175827 15.74803
vt -0.4175828 15.74803
vt 0.8351657 9.947598E-14
vt -0.8351653 9.947598E-14
vt 0.8351657 7.874016
vt -0.8351653 7.874016
vt 0.8351654 15.74803
vt -0.8351656 15.74803
vt 0.8351654 23.62205
vt -0.8351656 23.62205
vt 24.63738 7.874016
vt 24.63738 15.74803
vt 25.47255 7.874016
vt 25.47255 15.74803
vt -18.70079 31.49606
vt -19.68504 31.49606
vt -18.70079 39.37008

usemtl stoneDark

f 3/3/1 2/2/1 1/1/1
f 2/2/1 3/3/1 4/4/1
f 7/7/2 6/6/2 5/5/2
f 6/6/2 7/7/2 8/8/2
f 6/6/2 8/8/2 9/9/2
f 9/9/2 8/8/2 10/10/2
f 9/9/2 10/10/2 11/11/2
f 11/11/2 10/10/2 12/12/2
f 13/13/2 11/11/2 12/12/2
f 13/13/2 14/14/2 11/11/2
f 15/15/2 14/14/2 13/13/2
f 15/15/2 16/16/2 14/14/2
f 16/16/2 15/15/2 17/17/2
f 20/20/3 19/19/3 18/18/3
f 19/19/3 20/20/3 21/21/3
f 21/3/4 22/23/4 19/22/4
f 22/23/4 21/3/4 23/1/4
f 26/26/5 25/25/5 24/24/5
f 25/25/5 26/26/5 27/27/5
f 27/27/5 26/26/5 28/28/5
f 28/28/5 26/26/5 29/29/5
f 29/29/5 26/26/5 30/30/5
f 16/31/5 30/30/5 26/26/5
f 17/32/5 30/30/5 16/31/5
f 30/30/5 17/32/5 31/33/5
f 32/34/5 28/28/5 29/29/5
f 28/28/5 32/34/5 33/35/5
f 36/38/6 35/37/6 34/36/6
f 35/37/6 36/38/6 37/39/6
f 26/42/4 14/41/4 16/40/4
f 14/41/4 26/42/4 38/2/4
f 41/45/3 40/44/3 39/43/3
f 40/44/3 41/45/3 42/46/3
f 43/49/7 26/48/7 24/47/7
f 26/48/7 43/49/7 38/50/7
f 38/50/7 43/49/7 2/34/7
f 38/50/7 2/34/7 44/51/7
f 4/52/7 44/51/7 2/34/7
f 45/53/7 44/51/7 4/52/7
f 46/54/7 44/51/7 45/53/7
f 46/54/7 47/55/7 44/51/7
f 46/54/7 48/56/7 47/55/7
f 49/57/7 48/56/7 46/54/7
f 48/56/7 49/57/7 50/58/7
f 46/4/4 52/1/4 51/3/4
f 52/1/4 46/4/4 45/2/4
f 54/61/5 5/60/5 53/59/5
f 5/60/5 54/61/5 7/62/5
f 41/65/5 56/64/5 55/63/5
f 56/64/5 41/65/5 39/66/5
f 10/69/6 57/68/6 12/67/6
f 57/68/6 10/69/6 58/70/6
f 11/73/8 47/72/8 9/71/8
f 47/72/8 11/73/8 44/26/8
f 61/34/7 60/74/7 59/29/7
f 57/52/7 60/74/7 61/34/7
f 58/53/7 60/74/7 57/52/7
f 58/53/7 62/75/7 60/74/7
f 63/54/7 62/75/7 58/53/7
f 63/54/7 64/76/7 62/75/7
f 63/54/7 65/77/7 64/76/7
f 54/57/7 65/77/7 63/54/7
f 54/57/7 66/78/7 65/77/7
f 66/78/7 54/57/7 53/58/7
f 67/79/7 61/34/7 59/29/7
f 67/79/7 68/49/7 61/34/7
f 30/80/7 68/49/7 67/79/7
f 68/49/7 30/80/7 31/47/7
f 12/82/1 61/81/1 13/41/1
f 61/81/1 12/82/1 57/83/1
f 49/86/3 51/85/3 69/84/3
f 51/85/3 49/86/3 46/87/3
f 43/26/8 25/89/8 70/88/8
f 25/89/8 43/26/8 24/90/8
f 73/93/9 72/92/9 71/91/9
f 72/92/9 73/93/9 74/94/9
f 44/72/5 14/95/5 38/26/5
f 14/95/5 44/72/5 11/96/5
f 74/88/8 28/98/8 72/97/8
f 28/98/8 74/88/8 27/89/8
f 2/101/9 70/100/9 1/99/9
f 70/100/9 2/101/9 43/102/9
f 22/105/6 76/104/6 75/103/6
f 76/104/6 22/105/6 23/106/6
f 52/109/6 4/108/6 3/107/6
f 4/108/6 52/109/6 45/110/6
f 77/111/4 62/81/4 64/83/4
f 62/81/4 77/111/4 78/14/4
f 68/114/8 17/113/8 15/112/8
f 17/113/8 68/114/8 31/115/8
f 29/116/2 79/15/2 32/17/2
f 79/15/2 29/116/2 80/117/2
f 79/15/2 80/117/2 81/118/2
f 79/15/2 81/118/2 82/13/2
f 81/118/2 34/12/2 82/13/2
f 83/119/2 34/12/2 81/118/2
f 78/120/2 34/12/2 83/119/2
f 78/120/2 36/10/2 34/12/2
f 77/121/2 36/10/2 78/120/2
f 77/121/2 40/8/2 36/10/2
f 84/122/2 40/8/2 77/121/2
f 84/122/2 39/7/2 40/8/2
f 85/123/2 39/7/2 84/122/2
f 39/7/2 85/123/2 56/5/2
f 60/83/1 81/14/1 59/81/1
f 81/14/1 60/83/1 83/111/1
f 86/34/7 75/74/7 71/29/7
f 35/52/7 75/74/7 86/34/7
f 37/53/7 75/74/7 35/52/7
f 37/53/7 22/75/7 75/74/7
f 42/54/7 22/75/7 37/53/7
f 42/54/7 19/76/7 22/75/7
f 42/54/7 18/77/7 19/76/7
f 41/57/7 18/77/7 42/54/7
f 41/57/7 87/78/7 18/77/7
f 87/78/7 41/57/7 55/58/7
f 72/79/7 86/34/7 71/29/7
f 72/79/7 88/49/7 86/34/7
f 28/80/7 88/49/7 72/79/7
f 88/49/7 28/80/7 33/47/7
f 27/116/2 70/15/2 25/17/2
f 70/15/2 27/116/2 74/117/2
f 70/15/2 74/117/2 73/118/2
f 70/15/2 73/118/2 1/13/2
f 73/118/2 3/12/2 1/13/2
f 76/119/2 3/12/2 73/118/2
f 23/120/2 3/12/2 76/119/2
f 23/120/2 52/10/2 3/12/2
f 21/121/2 52/10/2 23/120/2
f 21/121/2 51/8/2 52/10/2
f 20/122/2 51/8/2 21/121/2
f 20/122/2 69/7/2 51/8/2
f 89/123/2 69/7/2 20/122/2
f 69/7/2 89/123/2 90/5/2
f 34/111/1 86/23/1 82/14/1
f 86/23/1 34/111/1 35/22/1
f 84/126/3 64/125/3 65/124/3
f 64/125/3 84/126/3 77/127/3
f 84/66/5 66/59/5 85/64/5
f 66/59/5 84/66/5 65/61/5
f 42/22/4 36/14/4 40/111/4
f 36/14/4 42/22/4 37/23/4
f 61/130/9 15/129/9 13/128/9
f 15/129/9 61/130/9 68/131/9
f 6/62/8 66/133/8 5/132/8
f 66/133/8 6/62/8 48/72/8
f 66/133/8 48/72/8 85/134/8
f 85/134/8 48/72/8 87/135/8
f 85/134/8 87/135/8 55/136/8
f 87/135/8 48/72/8 89/137/8
f 50/138/8 89/137/8 48/72/8
f 89/137/8 50/138/8 90/139/8
f 55/136/8 56/140/8 85/134/8
f 53/141/8 5/132/8 66/133/8
f 63/83/4 10/143/4 8/142/4
f 10/143/4 63/83/4 58/81/4
f 9/146/1 48/145/1 6/144/1
f 48/145/1 9/146/1 47/147/1
f 80/50/8 30/115/8 67/114/8
f 30/115/8 80/50/8 29/48/8
f 81/150/9 67/149/9 59/148/9
f 67/149/9 81/150/9 80/151/9
f 54/154/3 8/153/3 7/152/3
f 8/153/3 54/154/3 63/155/3
f 88/97/8 32/48/8 79/50/8
f 32/48/8 88/97/8 33/98/8
f 86/158/9 79/157/9 82/156/9
f 79/157/9 86/158/9 88/159/9
f 75/22/1 73/1/1 71/23/1
f 73/1/1 75/22/1 76/3/1
f 62/162/6 83/161/6 60/160/6
f 83/161/6 62/162/6 78/163/6
f 20/165/5 87/63/5 89/164/5
f 87/63/5 20/165/5 18/65/5
f 49/72/5 90/164/5 50/166/5
f 90/164/5 49/72/5 69/165/5

