# Created by Kenney (www.kenney.nl)

mtllib wallWoodDetailDiagonal.mtl

g wallWoodDetailDiagonal

v 0.4875 0 -0.4
v 0.4875 0.1 -0.3359688
v 0.4875 0.1720351 -0.4
v 0.4875 1 0.3359688
v 0.4875 0.9279649 0.4
v 0.4875 1 0.4
v 0.4875 0 0.4
v 0.4875 0.1 0.4
v 0.5 1 -0.5
v 0.5 0 -0.5
v 0.5 1 -0.4
v 0.5 0 -0.4
v 0.5 0 0.5
v 0.5 0 0.4
v 0.4 0 0.5
v 0.4125 0 0.4
v 0.4 0 0.4
v 0.4 0 -0.5
v 0.4 1 -0.5
v 0.475 0.1 -0.3359688
v 0.475 0.1 0.4
v 0.5 1 0.5
v 0.4 1 0.5
v 0.425 0.1720351 -0.4
v 0.4125 0.1720351 -0.4
v 0.425 1 -0.4
v 0.4 1 -0.4
v 0.4 0 -0.4
v 0.4125 0 -0.4
v 0.4 1 0.4
v 0.425 0.1 -0.3359688
v 0.425 0.1 0.4
v 0.4125 0.1 -0.3359688
v 0.4125 0.1 0.4
v 0.475 0.9279649 0.4
v 0.475 0.1720351 -0.4
v 0.475 1 0.3359688
v 0.425 0.9279649 0.4
v 0.4125 0.9279649 0.4
v 0.475 1 -0.4
v 0.5 1 0.4
v 0.4125 1 0.4
v 0.425 1 0.3359688
v 0.4125 1 0.3359688

vn 1 0 0
vn 0 -1 0
vn 0 0 -1
vn 0 1 0
vn 0 0 1
vn -1 0 0
vn 0 -0.6643638 0.7474093
vn 0 0.6643638 -0.7474093

vt 15.74803 6.139502E-14
vt 13.22712 3.937008
vt 15.74803 6.773037
vt -13.22712 39.37008
vt -15.74803 36.53405
vt -15.74803 39.37008
vt -15.74803 6.139502E-14
vt -15.74803 3.937008
vt 19.68504 39.37008
vt 19.68504 0
vt 15.74803 39.37008
vt 15.74803 0
vt 19.68504 19.68504
vt 19.68504 15.74803
vt 15.74803 19.68504
vt 19.19291 15.74803
vt 16.24016 15.74803
vt 15.74803 15.74803
vt -15.74803 0
vt -19.68504 0
vt -19.68504 39.37008
vt -19.19291 -13.22712
vt -19.19291 15.74803
vt -18.70079 -13.22712
vt -18.70079 15.74803
vt 16.73228 6.773037
vt 16.24016 6.773037
vt 16.73228 39.37008
vt 15.74803 -2.392751E-13
vt 16.24016 -2.392751E-13
vt -16.73228 -13.22712
vt -16.73228 15.74803
vt -16.24016 -13.22712
vt -16.24016 15.74803
vt 19.19291 -5.845061
vt 18.70079 -5.845061
vt 19.19291 37.76831
vt 18.70079 37.76831
vt -18.70079 -5.400191
vt -19.19291 -5.400191
vt -18.70079 38.21318
vt -19.19291 38.21318
vt 16.73228 -5.845061
vt 16.24016 -5.845061
vt 16.73228 37.76831
vt 16.24016 37.76831
vt 19.68504 -2.175864E-13
vt 19.19291 -2.175864E-13
vt 19.19291 6.773037
vt 18.70079 6.773037
vt 18.70079 39.37008
vt -15.74803 -2.050381E-13
vt -16.24016 -2.050381E-13
vt -16.24016 3.937008
vt -16.73228 3.937008
vt -16.24016 36.53405
vt -16.24016 39.37008
vt -16.73228 36.53405
vt 19.68504 -15.74803
vt 19.68504 -19.68504
vt 19.19291 -15.74803
vt 15.74803 -19.68504
vt 16.24016 -15.74803
vt 15.74803 -15.74803
vt -19.19291 13.22712
vt -18.70079 13.22712
vt -15.74803 19.68504
vt -19.68504 19.68504
vt -19.68504 15.74803
vt -16.73228 13.22712
vt -16.24016 13.22712
vt -15.74803 15.74803
vt -18.70079 3.937008
vt -19.19291 3.937008
vt -18.70079 36.53405
vt -19.19291 36.53405
vt -19.68504 -3.252797E-13
vt -19.19291 -3.252797E-13
vt -19.19291 39.37008
vt -13.22712 3.937008
vt 15.74803 3.937008
vt -15.74803 6.773037
vt 13.22712 39.37008
vt 15.74803 36.53405
vt -16.24016 -5.400191
vt -16.73228 -5.400191
vt -16.24016 38.21318
vt -16.73228 38.21318
vt -19.68504 -19.68504
vt -19.68504 -15.74803
vt -15.74803 -19.68504
vt -18.70079 -15.74803
vt -16.73228 -15.74803
vt -15.74803 -15.74803

usemtl wood

f 3/3/1 2/2/1 1/1/1
f 2/2/1 3/3/1 4/4/1
f 2/2/1 4/4/1 5/5/1
f 5/5/1 4/4/1 6/6/1
f 2/2/1 7/7/1 1/1/1
f 7/7/1 2/2/1 8/8/1
f 11/11/1 10/10/1 9/9/1
f 10/10/1 11/11/1 12/12/1
f 15/15/2 14/14/2 13/13/2
f 14/14/2 15/15/2 7/16/2
f 7/16/2 15/15/2 16/17/2
f 16/17/2 15/15/2 17/18/2
f 19/6/3 10/20/3 18/19/3
f 10/20/3 19/6/3 9/21/3
f 20/24/4 8/23/4 2/22/4
f 8/23/4 20/24/4 21/25/4
f 22/9/5 15/12/5 13/10/5
f 15/12/5 22/9/5 23/11/5
f 26/28/5 25/27/5 24/26/5
f 27/11/5 25/27/5 26/28/5
f 28/29/5 25/27/5 27/11/5
f 25/27/5 28/29/5 29/30/5
f 15/10/6 30/11/6 17/12/6
f 30/11/6 15/10/6 23/9/6
f 33/33/4 32/32/4 31/31/4
f 32/32/4 33/33/4 34/34/4
f 5/37/7 20/36/7 2/35/7
f 20/36/7 5/37/7 35/38/7
f 37/41/8 3/40/8 36/39/8
f 3/40/8 37/41/8 4/42/8
f 38/45/7 33/44/7 31/43/7
f 33/44/7 38/45/7 39/46/7
f 11/9/5 1/48/5 12/47/5
f 1/48/5 11/9/5 3/49/5
f 3/49/5 11/9/5 36/50/5
f 36/50/5 11/9/5 40/51/5
f 22/21/1 14/19/1 41/6/1
f 14/19/1 22/21/1 13/20/1
f 30/6/3 16/53/3 17/52/3
f 16/53/3 30/6/3 34/54/3
f 34/54/3 30/6/3 32/55/3
f 32/55/3 30/6/3 39/56/3
f 39/56/3 30/6/3 42/57/3
f 38/58/3 32/55/3 39/56/3
f 1/61/2 10/60/2 12/59/2
f 10/60/2 1/61/2 18/62/2
f 18/62/2 1/61/2 29/63/2
f 18/62/2 29/63/2 28/64/2
f 28/19/6 19/21/6 18/20/6
f 19/21/6 28/19/6 27/6/6
f 37/66/4 6/23/4 4/65/4
f 23/67/4 6/23/4 37/66/4
f 22/68/4 6/23/4 23/67/4
f 6/23/4 22/68/4 41/69/4
f 23/67/4 37/66/4 43/70/4
f 23/67/4 43/70/4 42/34/4
f 42/34/4 43/70/4 44/71/4
f 23/67/4 42/34/4 30/72/4
f 35/75/3 8/74/3 21/73/3
f 5/76/3 8/74/3 35/75/3
f 41/21/3 8/74/3 5/76/3
f 14/77/3 8/74/3 41/21/3
f 8/74/3 14/77/3 7/78/3
f 41/21/3 5/76/3 6/79/3
f 16/12/6 33/80/6 29/19/6
f 33/80/6 16/12/6 34/81/6
f 33/80/6 25/82/6 29/19/6
f 25/82/6 33/80/6 44/83/6
f 44/83/6 33/80/6 39/84/6
f 44/83/6 39/84/6 42/11/6
f 44/87/8 24/86/8 25/85/8
f 24/86/8 44/87/8 43/88/8
f 19/91/4 11/90/4 9/89/4
f 11/90/4 19/91/4 40/92/4
f 40/92/4 19/91/4 26/93/4
f 26/93/4 19/91/4 27/94/4

usemtl woodDark

f 26/93/4 37/66/4 40/92/4
f 37/66/4 26/93/4 43/70/4
f 43/83/6 26/6/6 24/82/6
f 21/8/1 20/2/1 35/5/1
f 16/17/2 1/61/2 7/16/2
f 1/61/2 16/17/2 29/63/2
f 32/81/6 38/84/6 31/80/6
f 37/4/1 36/3/1 40/11/1

