# Created by Kenney (www.kenney.nl)

mtllib wallCornerDiagonal.mtl

g wallCornerDiagonal

v -0.4 0 0.5
v -0.4 0 0.475
v -0.5 0 0.5
v -0.4 0 0.425
v -0.4 0 0.4
v -0.5 0 0.4
v 0.5 1 -0.5
v 0.5 1 -0.4
v 0.4 1 -0.5
v 0.475 1 -0.4
v 0.425 1 -0.4
v 0.4 1 -0.4
v -0.5 1 0.4
v -0.4 1 0.4
v -0.4 1 0.5
v -0.5 1 0.5
v -0.4 1 0.475
v -0.4 1 0.425
v 0.5 0 -0.4
v 0.475 0 -0.4
v 0.5 0 -0.5
v 0.4 0 -0.5
v 0.425 0 -0.4
v 0.4 0 -0.4
v 0.475 1 -1.443823E-15
v 0.425 1 -0.05
v -1.443823E-15 1 0.475
v -0.05 1 0.425
v -1.443823E-15 0 0.475
v -0.05 2.255973E-17 0.425
v 0.475 0 -1.443823E-15
v 0.425 2.255973E-17 -0.05

vn 0 -1 0
vn 0 1 0
vn 0 0 -1
vn 0 0 1
vn 1 0 0
vn -1 0 0
vn -0.7071068 0 -0.7071068
vn 0.7071068 0 0.7071068

vt -15.74803 19.68504
vt -15.74803 18.70079
vt -19.68504 19.68504
vt -15.74803 16.73228
vt -15.74803 15.74803
vt -19.68504 15.74803
vt -19.68504 -19.68504
vt -19.68504 -15.74803
vt -15.74803 -19.68504
vt -18.70079 -15.74803
vt -16.73228 -15.74803
vt -15.74803 -15.74803
vt 19.68504 0
vt 15.74803 0
vt 19.68504 39.37008
vt 15.74803 39.37008
vt 15.74803 19.68504
vt 19.68504 19.68504
vt 15.74803 18.70079
vt 15.74803 16.73228
vt 15.74803 15.74803
vt 19.68504 15.74803
vt -15.74803 9.521273E-13
vt -19.68504 9.521273E-13
vt -15.74803 39.37008
vt -19.68504 39.37008
vt 18.70079 0
vt 18.70079 39.37008
vt -15.74803 0
vt -19.68504 0
vt -18.70079 39.37008
vt -18.70079 0
vt 15.74803 9.623669E-26
vt 19.68504 9.623669E-26
vt 19.68504 -15.74803
vt 19.68504 -19.68504
vt 18.70079 -15.74803
vt 15.74803 -19.68504
vt 16.73228 -15.74803
vt 15.74803 -15.74803
vt 16.73228 0
vt 16.73228 39.37008
vt -16.73228 39.37008
vt -16.73228 0
vt -18.70079 -5.684342E-14
vt -16.73228 -1.968504
vt 5.684342E-14 18.70079
vt 1.968504 16.73228
vt -1.885171E-12 -3.085785E-15
vt -15.74803 -3.085785E-15
vt -1.885171E-12 39.37008
vt 15.74803 -2.887609E-30
vt 1.968504 8.881784E-16
vt 1.968504 39.37008
vt 5.684342E-14 39.37008
vt 5.684342E-14 0
vt -1.968504 8.881784E-16
vt -1.968504 39.37008
vt 16.73228 -1.968504
vt 18.70079 -5.684342E-14
vt -5.684342E-14 18.70079
vt -1.968504 16.73228
vt -13.22345 1.023537E-15
vt -13.22345 39.37008
vt 13.22345 1.023537E-15
vt 13.22345 39.37008
vt 13.22345 1.218254E-30
vt -13.22345 1.218254E-30

usemtl wood

f 3/3/1 2/2/1 1/1/1
f 2/2/1 3/3/1 4/4/1
f 4/4/1 3/3/1 5/5/1
f 5/5/1 3/3/1 6/6/1
f 9/9/2 8/8/2 7/7/2
f 8/8/2 9/9/2 10/10/2
f 10/10/2 9/9/2 11/11/2
f 11/11/2 9/9/2 12/12/2
f 13/15/3 5/14/3 6/13/3
f 5/14/3 13/15/3 14/16/3
f 17/19/2 16/18/2 15/17/2
f 16/18/2 17/19/2 18/20/2
f 16/18/2 18/20/2 14/21/2
f 16/18/2 14/21/2 13/22/2
f 15/25/4 3/24/4 1/23/4
f 3/24/4 15/25/4 16/26/4
f 8/15/4 20/27/4 19/13/4
f 20/27/4 8/15/4 10/28/4
f 8/16/5 21/13/5 7/15/5
f 21/13/5 8/16/5 19/14/5
f 9/25/3 21/30/3 22/29/3
f 21/30/3 9/25/3 7/26/3
f 15/26/5 2/32/5 17/31/5
f 2/32/5 15/26/5 1/30/5
f 3/34/6 13/16/6 6/33/6
f 13/16/6 3/34/6 16/15/6
f 20/37/1 21/36/1 19/35/1
f 21/36/1 20/37/1 22/38/1
f 22/38/1 20/37/1 23/39/1
f 22/38/1 23/39/1 24/40/1
f 11/42/4 24/14/4 23/41/4
f 24/14/4 11/42/4 12/16/4
f 18/43/5 5/29/5 14/25/5
f 5/29/5 18/43/5 4/44/5
f 24/29/6 9/26/6 22/30/6
f 9/26/6 24/29/6 12/25/6

usemtl stone

f 11/11/2 25/45/2 10/10/2
f 25/45/2 11/11/2 26/46/2
f 25/45/2 26/46/2 27/47/2
f 27/47/2 26/46/2 28/48/2
f 27/47/2 28/48/2 17/19/2
f 17/19/2 28/48/2 18/20/2
f 27/51/4 2/50/4 29/49/4
f 2/50/4 27/51/4 17/25/4
f 18/16/3 30/53/3 4/52/3
f 30/53/3 18/16/3 28/54/3
f 25/55/5 20/14/5 10/16/5
f 20/14/5 25/55/5 31/56/5
f 32/57/6 11/25/6 23/29/6
f 11/25/6 32/57/6 26/58/6
f 31/60/1 32/59/1 20/37/1
f 32/59/1 31/60/1 29/61/1
f 32/59/1 29/61/1 30/62/1
f 30/62/1 29/61/1 2/2/1
f 30/62/1 2/2/1 4/4/1
f 23/39/1 20/37/1 32/59/1
f 30/65/7 26/64/7 32/63/7
f 26/64/7 30/65/7 28/66/7
f 27/64/8 31/67/8 25/66/8
f 31/67/8 27/64/8 29/68/8

