# Created by Kenney (www.kenney.nl)

mtllib wallDoorwaySquare.mtl

g wallDoorwaySquare

v 0.425 0 0.3
v 0.425 0.85 0.3
v 0.425 0 0.4
v 0.425 1 0.4
v 0.425 0.85 -0.3
v 0.425 1 -0.4
v 0.425 0 -0.3
v 0.425 0 -0.4
v 0.475 0 -0.3
v 0.475 0 -0.4
v 0.475 0.85 -0.3
v 0.475 1 -0.4
v 0.475 1 0.4
v 0.475 0.85 0.3
v 0.475 0 0.3
v 0.475 0 0.4
v 0.5 -1.639515E-19 -0.2
v 0.4 0 -0.2
v 0.5 0.75 -0.2
v 0.4 0.75 -0.2
v 0.5 1 0.4
v 0.5 1 0.5
v 0.4 1 0.5
v 0.4 1 0.4
v 0.4 0 -0.5
v 0.4 1 -0.5
v 0.4 0 -0.4
v 0.4 1 -0.4
v 0.5 0.85 -0.3
v 0.5 0.85 0.3
v 0.5 -1.639515E-19 -0.3
v 0.4 0 -0.3
v 0.5 0 0.4
v 0.5 0 0.5
v 0.4 0 0.2
v 0.4 0.75 0.2
v 0.4 0 0.3
v 0.4 0.85 0.3
v 0.4 0.85 -0.3
v 0.5 0 -0.4
v 0.5 1 -0.4
v 0.4 0 0.5
v 0.4 0 0.4
v 0.5 -1.639515E-19 0.2
v 0.5 0.75 0.2
v 0.5 0 -0.5
v 0.5 -1.639515E-19 0.3
v 0.5 1 -0.5

vn -1 0 0
vn 0 -1 0
vn 1 0 0
vn 0 1 0
vn 0 0 1
vn 0 0 -1

vt 11.81102 0
vt 11.81102 33.46457
vt 15.74803 0
vt 15.74803 39.37008
vt -11.81102 33.46457
vt -15.74803 39.37008
vt -11.81102 0
vt -15.74803 0
vt 18.70079 -11.81102
vt 18.70079 -15.74803
vt 16.73228 -11.81102
vt 16.73228 -15.74803
vt 15.74803 4.163336E-16
vt -11.81102 4.163336E-16
vt -15.74803 4.163336E-16
vt 11.81102 4.163336E-16
vt -18.70079 -15.74803
vt -18.70079 15.74803
vt -16.73228 -15.74803
vt -16.73228 15.74803
vt 18.70079 15.74803
vt 18.70079 11.81102
vt 16.73228 15.74803
vt 16.73228 11.81102
vt 19.68504 -6.454785E-18
vt 19.68504 29.52756
vt 15.74803 29.52756
vt -19.68504 15.74803
vt -19.68504 19.68504
vt -15.74803 19.68504
vt -15.74803 15.74803
vt -19.68504 0
vt -19.68504 39.37008
vt -19.68504 -11.81102
vt -19.68504 11.81102
vt -18.70079 -11.81102
vt -18.70079 11.81102
vt 19.68504 -11.81102
vt 19.68504 -7.874016
vt 15.74803 -7.874016
vt 15.74803 -11.81102
vt 7.874016 0
vt 7.874016 29.52756
vt -7.874016 29.52756
vt -7.874016 0
vt 19.68504 0
vt 18.70079 0
vt 19.68504 39.37008
vt 18.70079 39.37008
vt -18.70079 0
vt -18.70079 39.37008
vt 16.73228 0
vt 16.73228 33.46457
vt 15.74803 33.46457
vt 19.68504 19.68504
vt 19.68504 15.74803
vt 15.74803 19.68504
vt 15.74803 15.74803
vt -16.73228 0
vt -15.74803 33.46457
vt -16.73228 33.46457
vt -16.73228 39.37008
vt -19.68504 -6.454785E-18
vt -19.68504 29.52756
vt -15.74803 29.52756
vt -16.73228 -11.81102
vt -16.73228 11.81102
vt -15.74803 -11.81102
vt -15.74803 11.81102
vt 19.68504 -15.74803
vt 19.68504 -19.68504
vt 15.74803 -19.68504
vt 15.74803 -15.74803
vt 19.68504 11.81102
vt 19.68504 7.874016
vt 15.74803 7.874016
vt 15.74803 11.81102
vt 19.68504 7.105427E-15
vt 15.74803 7.105427E-15
vt -19.68504 -19.68504
vt -19.68504 -15.74803
vt -15.74803 -19.68504
vt -15.74803 -15.74803
vt 11.81102 2.689494E-16
vt -7.874016 2.689494E-16
vt -11.81102 2.689494E-16
vt 7.874016 2.689494E-16
vt -19.68504 33.46457
vt -18.70079 33.46457
vt 19.68504 33.46457
vt 18.70079 33.46457
vt 16.73228 39.37008

usemtl stone

f 3/3/1 2/2/1 1/1/1
f 4/4/1 2/2/1 3/3/1
f 4/4/1 5/5/1 2/2/1
f 6/6/1 5/5/1 4/4/1
f 6/6/1 7/7/1 5/5/1
f 7/7/1 6/6/1 8/8/1
f 7/11/2 10/10/2 9/9/2
f 10/10/2 7/11/2 8/12/2
f 12/4/3 11/2/3 10/13/3
f 11/2/3 12/4/3 13/6/3
f 11/2/3 13/6/3 14/5/3
f 14/5/3 13/6/3 15/14/3
f 15/14/3 13/6/3 16/15/3
f 9/16/3 10/13/3 11/2/3
f 6/19/4 13/18/4 12/17/4
f 13/18/4 6/19/4 4/20/4
f 3/23/2 15/22/2 16/21/2
f 15/22/2 3/23/2 1/24/2

usemtl wood

f 19/26/5 18/3/5 17/25/5
f 18/3/5 19/26/5 20/27/5
f 13/18/4 22/29/4 21/28/4
f 22/29/4 13/18/4 23/30/4
f 23/30/4 13/18/4 4/20/4
f 23/30/4 4/20/4 24/31/4
f 27/8/1 26/33/1 25/32/1
f 26/33/1 27/8/1 28/6/1
f 11/36/4 30/35/4 29/34/4
f 30/35/4 11/36/4 14/37/4
f 17/39/2 9/9/2 31/38/2
f 9/9/2 17/39/2 18/40/2
f 9/9/2 18/40/2 7/11/2
f 7/11/2 18/40/2 32/41/2
f 22/33/3 33/8/3 21/6/3
f 33/8/3 22/33/3 34/32/3
f 37/1/1 36/43/1 35/42/1
f 38/2/1 36/43/1 37/1/1
f 38/2/1 20/44/1 36/43/1
f 39/5/1 20/44/1 38/2/1
f 39/5/1 18/45/1 20/44/1
f 18/45/1 39/5/1 32/7/1
f 41/48/5 10/47/5 40/46/5
f 10/47/5 41/48/5 12/49/5
f 13/51/6 33/32/6 16/50/6
f 33/32/6 13/51/6 21/33/6
f 2/53/5 37/3/5 1/52/5
f 37/3/5 2/53/5 38/54/5
f 42/57/2 33/56/2 34/55/2
f 33/56/2 42/57/2 16/21/2
f 16/21/2 42/57/2 3/23/2
f 3/23/2 42/57/2 43/58/2
f 39/60/6 7/59/6 32/8/6
f 7/59/6 39/60/6 5/61/6
f 24/6/6 3/59/6 43/8/6
f 3/59/6 24/6/6 4/62/6
f 35/8/6 45/64/6 44/63/6
f 45/64/6 35/8/6 36/65/6
f 39/68/4 2/67/4 5/66/4
f 2/67/4 39/68/4 38/69/4
f 10/10/2 46/71/2 40/70/2
f 46/71/2 10/10/2 25/72/2
f 25/72/2 10/10/2 8/12/2
f 25/72/2 8/12/2 27/73/2
f 15/22/2 44/75/2 47/74/2
f 44/75/2 15/22/2 35/76/2
f 35/76/2 15/22/2 1/24/2
f 35/76/2 1/24/2 37/77/2
f 22/48/5 42/79/5 34/78/5
f 42/79/5 22/48/5 23/4/5
f 42/46/1 24/4/1 43/3/1
f 24/4/1 42/46/1 23/48/1
f 36/76/2 19/39/2 45/75/2
f 19/39/2 36/76/2 20/40/2
f 26/82/4 41/81/4 48/80/4
f 41/81/4 26/82/4 12/17/4
f 12/17/4 26/82/4 6/19/4
f 6/19/4 26/82/4 28/83/4
f 29/2/3 19/43/3 31/84/3
f 19/43/3 29/2/3 30/5/3
f 19/43/3 30/5/3 45/44/3
f 45/44/3 30/5/3 44/85/3
f 44/85/3 30/5/3 47/86/3
f 17/87/3 31/84/3 19/43/3
f 9/50/6 29/88/6 31/63/6
f 29/88/6 9/50/6 11/89/6
f 41/4/3 46/46/3 48/48/3
f 46/46/3 41/4/3 40/3/3
f 30/90/5 15/47/5 47/25/5
f 15/47/5 30/90/5 14/91/5
f 6/92/5 27/3/5 8/52/5
f 27/3/5 6/92/5 28/4/5
f 26/6/6 46/32/6 25/8/6
f 46/32/6 26/6/6 48/33/6

