# Created by Kenney (www.kenney.nl)

mtllib wallBroken.mtl

g wallBroken

v 0.475 0 0.4
v 0.475 0 -0.5
v 0.425 0 0.4
v 0.425 0 -0.5
v 0.425 0.08333334 -0.5
v 0.475 0.08333334 -0.5
v 0.425 0.08333334 -0.425
v 0.475 0.08333334 -0.425
v 0.425 0.1666667 -0.425
v 0.475 0.1666667 -0.425
v 0.475 0.1666667 -0.35
v 0.425 0.1666667 -0.35
v 0.475 0.25 -0.1745092
v 0.475 0.25 -0.08486027
v 0.440752 0.25 -0.1653325
v 0.425 0.25 -0.08486027
v 0.425 0.25 -0.2241199
v 0.425 0.25 -0.35
v 0.475 0.25 -0.35
v 0.425 0.3333333 -0.2
v 0.475 0.3333333 -0.2
v 0.425 0.4166667 -0.2
v 0.475 0.4166667 -0.2
v 0.475 0.4166667 -0.1052782
v 0.475 0.4166667 -0.05
v 0.4329213 0.4166667 -0.06319948
v 0.425 0.4166667 -0.05
v 0.425 0.4166667 -0.07112078
v 0.425 0.5948657 -0.05
v 0.475 0.5948657 -0.05
v 0.425 0.6666667 -0.05
v 0.475 0.6666667 -0.05
v 0.475 0.25 -0.2307025
v 0.475 0.3333333 -0.08486027
v 0.475 0.4166667 -0.1759889
v 0.475 0.4977836 0.01
v 0.475 0.4977836 -0.05
v 0.475 0.6666667 0.07265788
v 0.475 0.5948657 0.01
v 0.475 0.6666667 0.1526579
v 0.475 0.6666667 0.175
v 0.475 0.75 0.325
v 0.475 0.75 0.175
v 0.475 0.9166666 0.4
v 0.475 0.9166666 0.325
v 0.425 0.4977836 0.01
v 0.425 0.5948657 0.01
v 0.4651996 0.7183333 0.03608245
v 0.4651996 0.6666667 0.03608245
v 0.495 0.7183333 0.1472989
v 0.495 0.6666667 0.1472989
v 0.459248 0.3016666 -0.2894899
v 0.459248 0.25 -0.2894899
v 0.4890483 0.3016666 -0.1782734
v 0.4890483 0.25 -0.1782734
v 0.4109516 0.25 -0.2765489
v 0.4109516 0.3016666 -0.2765489
v 0.440752 0.3016666 -0.1653325
v 0.5143374 0.4166667 -0.1446156
v 0.4789821 0.4166667 -0.1799709
v 0.425 0.6666667 0.04685391
v 0.425 0.75 0.325
v 0.425 0.9166666 0.325
v 0.4467037 0.6666667 0.1602399
v 0.425 0.6666667 0.175
v 0.425 0.6666667 0.07924051
v 0.4169033 0.6666667 0.0490234
v 0.397566 0.4166667 -0.09855482
v 0.397566 0.4683333 -0.09855482
v 0.4329213 0.4683333 -0.06319948
v 0.425 0.4166667 -0.1259889
v 0.425 0.3333333 -0.08486027
v 0.425 0.4977836 -0.05
v 0.425 0.75 0.175
v 0.425 0.25 -0.2803131
v 0.425 0.9166666 0.4
v 0.4467037 0.7183333 0.1602399
v 0.4169033 0.7183333 0.0490234
v 0.4789821 0.4683333 -0.1799709
v 0.5143374 0.4683333 -0.1446156
v 0.4 0 0.4
v 0.4 1 0.4
v 0.475 1 0.4
v 0.5 1 0.4
v 0.5 0 0.4
v 0.5 1 0.5
v 0.5 0 0.5
v 0.4 0 0.5
v 0.4 1 0.5

vn 0 -1 0
vn 0 0 -1
vn 0 1 0
vn 1 0 0
vn 0.9659258 0 -0.258819
vn -0.9659258 0 0.258819
vn -0.7071068 0 0.7071068
vn -1 0 0
vn 0.258819 0 0.9659258
vn -0.258819 0 -0.9659258
vn -0.7071068 0 -0.7071068
vn 0.7071068 0 -0.7071068
vn 0.7071068 0 0.7071068
vn 0 0 1

vt 18.70079 15.74803
vt 18.70079 -19.68504
vt 16.73228 15.74803
vt 16.73228 -19.68504
vt -16.73228 -6.82121E-13
vt -18.70079 -6.82121E-13
vt -16.73228 3.28084
vt -18.70079 3.28084
vt -16.73228 6.56168
vt -18.70079 6.56168
vt -18.70079 -16.73228
vt -18.70079 -13.77953
vt -16.73228 -16.73228
vt -16.73228 -13.77953
vt -18.70079 -6.87044
vt -18.70079 -3.340955
vt -17.35244 -6.509153
vt -16.73228 -3.340955
vt -16.73228 -8.823617
vt -18.70079 -19.68504
vt -16.73228 -19.68504
vt -16.73228 9.84252
vt -18.70079 9.84252
vt -16.73228 13.12336
vt -18.70079 13.12336
vt -16.73228 16.4042
vt -18.70079 16.4042
vt -18.70079 -4.14481
vt -18.70079 -1.968504
vt -17.04415 -2.488168
vt -16.73228 -1.968504
vt -16.73228 -2.800031
vt -16.73228 23.41991
vt -18.70079 23.41991
vt -16.73228 26.24672
vt -18.70079 26.24672
vt 16.73228 6.56168
vt 16.73228 3.28084
vt 13.77953 6.56168
vt -15.74803 -3.272658E-15
vt 19.68504 3.28084
vt 19.68504 -3.272658E-15
vt 9.082775 9.84252
vt 13.77953 9.84252
vt 6.87044 9.84252
vt 3.340955 9.84252
vt 1.968504 16.4042
vt 3.340955 13.12336
vt 4.14481 16.4042
vt 6.928695 16.4042
vt 7.874016 13.12336
vt 7.874016 16.4042
vt -0.3937008 19.59778
vt 1.968504 19.59778
vt -2.860547 26.24672
vt -0.3937008 23.41991
vt 1.968504 23.41991
vt 1.968504 26.24672
vt -6.010153 26.24672
vt -6.889764 26.24672
vt -12.79528 29.52756
vt -6.889764 29.52756
vt -15.74803 36.08924
vt -12.79528 36.08924
vt -16.73228 19.59778
vt -18.70079 19.59778
vt -6.112422 28.28084
vt -6.112422 26.24672
vt -10.64548 28.28084
vt -7.603196 26.24672
vt -10.64548 26.24672
vt 6.329277 11.87664
vt 6.329277 9.84252
vt 1.796216 11.87664
vt 3.933167 9.84252
vt 1.796216 9.84252
vt -6.329277 9.84252
vt -6.329277 11.87664
vt -4.192326 9.84252
vt -1.796216 11.87664
vt -1.796216 9.84252
vt 20.2495 -5.693526
vt 18.85756 -7.085469
vt 18.70079 -4.14481
vt 18.70079 -6.928695
vt -18.70079 2.860547
vt -18.31495 1.420569
vt -16.73228 1.844642
vt 18.70079 6.010153
vt 19.48819 5.799169
vt 18.70079 2.860547
vt -16.73228 29.52756
vt -18.70079 29.52756
vt -16.73228 36.08924
vt -18.70079 36.08924
vt -18.70079 6.010153
vt -18.70079 6.889764
vt -17.58676 6.308656
vt -16.73228 6.889764
vt -16.73228 3.119705
vt 16.73228 3.119705
vt 16.73228 1.844642
vt 16.41352 1.930055
vt 8.324126 16.4042
vt 8.324126 18.43832
vt 9.85159 16.4042
vt 10.29263 18.43832
vt 10.29263 16.4042
vt 16.73228 -2.800031
vt 16.73228 -4.960191
vt 15.6522 -3.880111
vt -18.70079 0.3937008
vt -16.73228 0.3937008
vt -18.70079 12.79528
vt -16.73228 12.79528
vt 18.70079 -6.87044
vt 19.25387 -7.018639
vt 18.70079 -9.082775
vt -19.68504 6.019899E-15
vt -19.68504 3.28084
vt 15.74803 6.019899E-15
vt -13.77953 6.56168
vt -13.77953 9.84252
vt -11.03595 9.84252
vt -8.823617 9.84252
vt -3.340955 9.84252
vt -3.340955 13.12336
vt -2.800031 16.4042
vt -1.968504 16.4042
vt -1.968504 19.59778
vt 0.3937008 19.59778
vt 0.3937008 23.41991
vt 1.844642 26.24672
vt 3.119705 26.24672
vt 6.889764 26.24672
vt 6.889764 29.52756
vt 12.79528 29.52756
vt 12.79528 36.08924
vt 15.74803 36.08924
vt -1.968504 26.24672
vt -1.968504 23.41991
vt -4.960191 16.4042
vt -7.874016 16.4042
vt -7.874016 13.12336
vt 18.70079 -3.340955
vt 18.70079 -7.874016
vt 16.73228 -3.340955
vt 16.73228 -7.874016
vt 16.50803 26.24672
vt 15.35471 26.24672
vt 17.32321 26.24672
vt 15.35471 28.28084
vt 17.32321 28.28084
vt -15.35471 26.24672
vt -15.68472 26.24672
vt -15.35471 28.28084
vt -17.32321 26.24672
vt -17.32321 28.28084
vt -19.25387 -7.018639
vt -18.08063 -11.39724
vt -16.1792 -10.88775
vt -13.81143 16.4042
vt -15.3389 16.4042
vt -13.81143 18.43832
vt -18.12278 16.4042
vt -18.34449 16.4042
vt -18.34449 18.43832
vt -18.70079 -9.082775
vt -16.73228 -11.03595
vt 16.73228 -8.823617
vt 16.73228 -11.03595
vt 16.1792 -10.88775
vt -18.70079 15.74803
vt -16.73228 15.74803
vt 6.112422 26.24672
vt 6.112422 28.28084
vt 7.344037 26.24672
vt 10.64548 28.28084
vt 10.64548 26.24672
vt -19.48819 5.799169
vt -16.41352 1.930055
vt 18.44587 9.84252
vt 18.44587 11.87664
vt 19.84177 9.84252
vt 20.41437 9.84252
vt 20.41437 11.87664
vt -20.2495 -5.693526
vt -18.85756 -7.085469
vt -15.6522 -3.880111
vt -18.70079 -7.874016
vt -18.70079 -6.928695
vt -16.73228 -7.874016
vt -16.73228 -4.960191
vt -8.324126 18.43832
vt -8.324126 16.4042
vt -10.29263 18.43832
vt -10.29263 16.4042
vt 16.15428 16.4042
vt 13.81143 16.4042
vt 18.34449 16.4042
vt 18.34449 18.43832
vt 13.81143 18.43832
vt 18.70079 0.3937008
vt 18.70079 -1.968504
vt 16.73228 0.3937008
vt 16.73228 -1.968504
vt -18.44587 9.84252
vt -19.01846 9.84252
vt -18.44587 11.87664
vt -20.41437 9.84252
vt -20.41437 11.87664
vt -15.74803 1.948917E-14
vt -16.73228 1.948917E-14
vt -15.74803 39.37008
vt -18.70079 39.37008
vt -19.68504 39.37008
vt -19.68504 1.132151E-14
vt -18.70079 1.132151E-14
vt -15.74803 0
vt -19.68504 0
vt 15.74803 0
vt 15.74803 39.37008
vt 19.68504 0
vt 19.68504 39.37008
vt 19.68504 19.68504
vt 19.68504 15.74803
vt 15.74803 19.68504
vt 15.74803 15.74803
vt -19.68504 15.74803
vt -19.68504 19.68504
vt -15.74803 19.68504
vt -15.74803 15.74803

usemtl stone

f 3/3/1 2/2/1 1/1/1
f 2/2/1 3/3/1 4/4/1
f 5/7/2 2/6/2 4/5/2
f 2/6/2 5/7/2 6/8/2
f 9/9/2 8/8/2 7/7/2
f 8/8/2 9/9/2 10/10/2
f 9/13/3 11/12/3 10/11/3
f 11/12/3 9/13/3 12/14/3
f 15/17/3 14/16/3 13/15/3
f 14/16/3 15/17/3 16/18/3
f 16/18/3 15/17/3 17/19/3
f 5/21/3 8/11/3 6/20/3
f 8/11/3 5/21/3 7/13/3
f 18/22/2 11/10/2 12/9/2
f 11/10/2 18/22/2 19/23/2
f 22/26/2 21/25/2 20/24/2
f 21/25/2 22/26/2 23/27/2
f 26/30/3 25/29/3 24/28/3
f 25/29/3 26/30/3 27/31/3
f 27/31/3 26/30/3 28/32/3
f 31/35/2 30/34/2 29/33/2
f 30/34/2 31/35/2 32/36/2
f 11/39/4 8/38/4 10/37/4
f 1/40/4 8/38/4 11/39/4
f 1/40/4 6/41/4 8/38/4
f 6/41/4 1/40/4 2/42/4
f 1/40/4 11/39/4 33/43/4
f 33/43/4 11/39/4 19/44/4
f 1/40/4 33/43/4 13/45/4
f 1/40/4 13/45/4 14/46/4
f 1/40/4 14/46/4 25/47/4
f 34/48/4 25/47/4 14/46/4
f 34/48/4 24/49/4 25/47/4
f 34/48/4 35/50/4 24/49/4
f 21/51/4 35/50/4 34/48/4
f 35/50/4 21/51/4 23/52/4
f 1/40/4 25/47/4 36/53/4
f 36/53/4 25/47/4 37/54/4
f 1/40/4 36/53/4 38/55/4
f 39/56/4 38/55/4 36/53/4
f 30/57/4 38/55/4 39/56/4
f 38/55/4 30/57/4 32/58/4
f 1/40/4 38/55/4 40/59/4
f 1/40/4 40/59/4 41/60/4
f 1/40/4 41/60/4 42/61/4
f 42/61/4 41/60/4 43/62/4
f 42/61/4 44/63/4 1/40/4
f 44/63/4 42/61/4 45/64/4
f 47/33/2 36/66/2 46/65/2
f 36/66/2 47/33/2 39/34/2
f 50/69/5 49/68/5 48/67/5
f 49/68/5 50/69/5 38/70/5
f 38/70/5 50/69/5 51/71/5
f 54/74/5 53/73/5 52/72/5
f 53/73/5 54/74/5 33/75/5
f 33/75/5 54/74/5 55/76/5
f 17/79/6 57/78/6 56/77/6
f 57/78/6 17/79/6 58/80/6
f 58/80/6 17/79/6 15/81/6
f 24/84/1 60/83/1 59/82/1
f 60/83/1 24/84/1 35/85/1
f 32/29/3 49/87/3 38/86/3
f 49/87/3 32/29/3 31/31/3
f 49/87/3 31/31/3 61/88/3
f 38/91/1 51/90/1 40/89/1
f 63/94/2 42/93/2 62/92/2
f 42/93/2 63/94/2 45/95/2
f 64/98/3 41/97/3 40/96/3
f 41/97/3 64/98/3 65/99/3
f 65/99/3 64/98/3 66/100/3
f 67/103/1 61/102/1 66/101/1
f 28/106/7 69/105/7 68/104/7
f 69/105/7 28/106/7 70/107/7
f 70/107/7 28/106/7 26/108/7
f 68/111/1 71/110/1 28/109/1
f 72/24/2 14/23/2 16/22/2
f 14/23/2 72/24/2 34/25/2
f 73/31/3 36/112/3 37/29/3
f 36/112/3 73/31/3 46/113/3
f 74/99/3 42/114/3 43/97/3
f 42/114/3 74/99/3 62/115/3
f 73/65/2 25/27/2 27/26/2
f 25/27/2 73/65/2 37/66/2
f 33/118/1 55/117/1 13/116/1
f 3/121/8 5/120/8 4/119/8
f 5/120/8 3/121/8 7/7/8
f 7/7/8 3/121/8 9/9/8
f 9/9/8 3/121/8 12/122/8
f 12/122/8 3/121/8 18/123/8
f 18/123/8 3/121/8 75/124/8
f 75/124/8 3/121/8 17/125/8
f 17/125/8 3/121/8 16/126/8
f 16/126/8 3/121/8 72/127/8
f 72/127/8 3/121/8 28/128/8
f 28/128/8 3/121/8 27/129/8
f 27/129/8 3/121/8 73/130/8
f 73/130/8 3/121/8 46/131/8
f 46/131/8 3/121/8 47/132/8
f 47/132/8 3/121/8 61/133/8
f 61/133/8 3/121/8 66/134/8
f 66/134/8 3/121/8 65/135/8
f 65/135/8 3/121/8 74/136/8
f 74/136/8 3/121/8 62/137/8
f 62/137/8 3/121/8 63/138/8
f 63/138/8 3/121/8 76/139/8
f 31/140/8 47/132/8 61/133/8
f 47/132/8 31/140/8 29/141/8
f 71/142/8 72/127/8 28/128/8
f 22/143/8 72/127/8 71/142/8
f 72/127/8 22/143/8 20/144/8
f 72/147/1 21/146/1 34/145/1
f 21/146/1 72/147/1 20/148/1
f 74/92/2 41/36/2 65/35/2
f 41/36/2 74/92/2 43/93/2
f 51/151/9 64/150/9 40/149/9
f 64/150/9 51/151/9 77/152/9
f 77/152/9 51/151/9 50/153/9
f 78/156/10 61/155/10 67/154/10
f 61/155/10 78/156/10 49/157/10
f 49/157/10 78/156/10 48/158/10
f 52/160/3 58/17/3 54/159/3
f 58/17/3 52/160/3 57/161/3
f 69/164/11 71/163/11 68/162/11
f 71/163/11 69/164/11 35/165/11
f 35/165/11 69/164/11 60/166/11
f 60/166/11 69/164/11 79/167/11
f 19/12/3 53/160/3 33/168/3
f 53/160/3 19/12/3 18/14/3
f 53/160/3 18/14/3 75/169/3
f 56/172/1 75/171/1 17/170/1
f 63/115/3 44/173/3 45/114/3
f 44/173/3 63/115/3 76/174/3
f 66/177/6 78/176/6 67/175/6
f 78/176/6 66/177/6 77/178/6
f 77/178/6 66/177/6 64/179/6
f 48/87/3 77/98/3 50/180/3
f 77/98/3 48/87/3 78/181/3
f 13/184/9 58/183/9 15/182/9
f 58/183/9 13/184/9 55/185/9
f 58/183/9 55/185/9 54/186/9
f 79/188/3 70/30/3 80/187/3
f 70/30/3 79/188/3 69/189/3
f 22/192/3 35/191/3 23/190/3
f 35/191/3 22/192/3 71/193/3
f 80/196/12 60/195/12 79/194/12
f 60/195/12 80/196/12 59/197/12
f 59/200/13 26/199/13 24/198/13
f 26/199/13 59/200/13 80/201/13
f 26/199/13 80/201/13 70/202/13
f 47/205/1 30/204/1 39/203/1
f 30/204/1 47/205/1 29/206/1
f 57/209/10 75/208/10 56/207/10
f 75/208/10 57/209/10 53/210/10
f 53/210/10 57/209/10 52/211/10

usemtl wood

f 82/214/2 3/213/2 81/212/2
f 3/213/2 82/214/2 76/94/2
f 76/94/2 82/214/2 44/95/2
f 44/95/2 82/214/2 83/215/2
f 84/216/2 44/95/2 83/215/2
f 85/217/2 44/95/2 84/216/2
f 44/95/2 85/217/2 1/218/2
f 86/216/4 85/219/4 84/214/4
f 85/219/4 86/216/4 87/220/4
f 88/223/8 82/222/8 81/221/8
f 82/222/8 88/223/8 89/224/8
f 88/227/1 85/226/1 87/225/1
f 85/226/1 88/227/1 1/1/1
f 1/1/1 88/227/1 3/3/1
f 3/3/1 88/227/1 81/228/1
f 83/173/3 86/230/3 84/229/3
f 86/230/3 83/173/3 89/231/3
f 89/231/3 83/173/3 82/232/3
f 86/224/14 88/221/14 87/223/14
f 88/221/14 86/224/14 89/222/14

