# Created by Kenney (www.kenney.nl)

mtllib tile153.mtl

g tile153

v 0.5 0.3666667 0.25
v 0.5 0.3666667 0.375
v -0.5 0.3666667 0.25
v -0.5 0.3666667 0.375
v 0.5 0.3566667 -0.25
v -0.5 0.3566667 -0.25
v 0.5 0.3666667 -0.25
v -0.5 0.3666667 -0.25
v -0.07272727 0.1566667 0.375
v -0.07272727 0.1566667 -0.375
v -0.5 2.075495E-14 0.375
v -0.5 0 -0.375
v -0.5 0.3566667 0.25
v 0.5 0.3566667 0.25
v -0.5 0.3666667 -0.375
v 0.5 0.1566667 -0.375
v 0.5 0.3666667 -0.375
v -0.5 0.2566667 -0.25
v -0.5 0.2566667 0.25
v 0.5 0.2566667 0.25
v 0.5 0.1566667 0.375
v 0.5 0.2566667 -0.25

vn 0 0.3333333 0
vn 0 0 0.3333333
vn 0.1147515 -0.3129588 0
vn 0 0 -0.3333333
vn -0.3333333 0 0
vn 0.3333333 0 0
vn 0 -0.3333333 0

vt -59.05512 29.52756
vt -59.05512 44.29134
vt 59.05512 29.52756
vt 59.05512 44.29134
vt 59.05512 42.12598
vt -59.05512 42.12598
vt 59.05512 43.30709
vt -59.05512 43.30709
vt -44.29134 -1.694727
vt 44.29134 -1.694727
vt -44.29134 -55.44545
vt 44.29134 -55.44545
vt 59.05512 7.007209E-13
vt 8.589835 18.50394
vt -59.05512 18.50394
vt -59.05512 -44.29134
vt -59.05512 -29.52756
vt 59.05512 -44.29134
vt 59.05512 -29.52756
vt -44.29134 1.898987E-12
vt -29.52756 30.31496
vt 44.29134 4.350359E-12
vt 29.52756 30.31496
vt 29.52756 42.12598
vt 29.52756 43.30709
vt 44.29134 43.30709
vt -29.52756 43.30709
vt -44.29134 43.30709
vt -29.52756 42.12598
vt -44.29134 18.50394
vt 44.29134 18.50394
vt -8.589835 -44.29134
vt -8.589835 44.29134
vt 59.05512 18.50394
vt -8.589835 18.50394
vt -59.05512 1.750651E-12

usemtl pavement

f 3/3/1 2/2/1 1/1/1
f 2/2/1 3/3/1 4/4/1
f 7/7/2 6/6/2 5/5/2
f 6/6/2 7/7/2 8/8/2
f 11/11/3 10/10/3 9/9/3
f 10/10/3 11/11/3 12/12/3
f 3/7/4 14/6/4 13/5/4
f 14/6/4 3/7/4 1/8/4
f 15/7/4 10/14/4 12/13/4
f 10/14/4 15/7/4 16/15/4
f 16/15/4 15/7/4 17/8/4
f 15/18/1 7/17/1 17/16/1
f 7/17/1 15/18/1 8/19/1
f 11/22/5 18/21/5 12/20/5
f 18/21/5 11/22/5 19/23/5
f 19/23/5 11/22/5 13/24/5
f 13/24/5 11/22/5 3/25/5
f 3/25/5 11/22/5 4/26/5
f 8/27/5 12/20/5 18/21/5
f 12/20/5 8/27/5 15/28/5
f 8/27/5 18/21/5 6/29/5
f 2/28/6 14/29/6 1/27/6
f 14/29/6 2/28/6 20/21/6
f 21/30/6 20/21/6 2/28/6
f 21/30/6 22/23/6 20/21/6
f 16/31/6 22/23/6 21/30/6
f 16/31/6 7/25/6 22/23/6
f 7/25/6 16/31/6 17/26/6
f 22/23/6 7/25/6 5/24/6
f 21/4/7 10/32/7 16/18/7
f 10/32/7 21/4/7 9/33/7
f 2/7/2 9/35/2 21/34/2
f 4/8/2 9/35/2 2/7/2
f 9/35/2 4/8/2 11/36/2

usemtl asphalt

f 19/23/5 6/29/5 18/21/5
f 6/29/5 19/23/5 13/24/5
f 5/17/1 13/3/1 14/1/1
f 13/3/1 5/17/1 6/19/1
f 14/29/6 22/23/6 5/24/6
f 22/23/6 14/29/6 20/21/6

