# Created by Kenney (www.kenney.nl)

mtllib tile123.mtl

g tile123

v -0.5000001 0.1516667 -0.4999999
v -0.5000001 0 -0.4999999
v 0.25 0.1516667 -0.5000001
v 0.25 2.427427E-14 -0.5000001
v -0.5 0 0.5000001
v -0.5 0.1516667 0.5000001
v 0.2500001 0.1516667 0.5
v 0.2500001 2.409379E-14 0.5
v 0.3750001 2.813199E-14 0.5
v 0.3750001 0.1833333 0.5
v 0.5000001 3.214762E-14 0.4999999
v 0.5000001 0.1833333 0.4999999
v 0.5 0.1833333 -0.5000001
v 0.375 0.1833333 -0.5000001
v 0.5 3.23281E-14 -0.5000001
v 0.375 2.831246E-14 -0.5000001
v 0.2500001 0.21 0.5
v 0.25 0.21 -0.5000001
v 0.375 0.21 -0.5000001
v 0.3750001 0.21 0.5

vn -1.192093E-07 0 -1
vn -1 0 1.192093E-07
vn 0 1 0
vn 1.192093E-07 0 1
vn 1 0 -1.192093E-07
vn 0 -1 0

vt 19.68504 5.971128
vt 19.68504 -4.321906E-12
vt -9.84252 5.971128
vt -9.84252 -3.366226E-12
vt 19.68504 5.134587E-14
vt -19.68504 5.134587E-14
vt -19.68504 5.971128
vt -19.68504 -19.68504
vt -19.68504 9.84252
vt 19.68504 -19.68504
vt 19.68504 9.84252
vt -19.68504 1.79445E-12
vt 9.84252 2.743024E-12
vt 9.84252 5.971128
vt 14.76378 1.727668E-12
vt 14.76378 7.217848
vt 19.68504 1.885764E-12
vt 19.68504 7.217848
vt -19.68504 19.68504
vt 19.68504 19.68504
vt -19.68504 14.76378
vt 19.68504 14.76378
vt -19.68504 -3.832208E-12
vt -19.68504 7.217848
vt 19.68504 -3.825103E-12
vt -14.76378 7.217848
vt -14.76378 -6.055703E-12
vt -19.68504 -7.098726E-12
vt 19.68504 8.267716
vt -19.68504 8.267716
vt -9.84252 8.267716
vt -14.76378 8.267716
vt 14.76378 8.267716
vt 9.84252 8.267716

usemtl water

f 3/3/1 2/2/1 1/1/1
f 2/2/1 3/3/1 4/4/1
f 6/1/2 2/6/2 5/5/2
f 2/6/2 6/1/2 1/7/2
f 6/10/3 3/9/3 1/8/3
f 3/9/3 6/10/3 7/11/3
f 8/13/4 6/7/4 5/12/4
f 6/7/4 8/13/4 7/14/4

usemtl grass

f 11/17/4 10/16/4 9/15/4
f 10/16/4 11/17/4 12/18/4
f 14/21/3 12/20/3 13/19/3
f 12/20/3 14/21/3 10/22/3
f 15/25/5 12/24/5 11/23/5
f 12/24/5 15/25/5 13/18/5
f 11/19/6 16/22/6 15/20/6
f 16/22/6 11/19/6 4/11/6
f 4/11/6 11/19/6 2/10/6
f 2/10/6 11/19/6 5/8/6
f 5/8/6 11/19/6 9/21/6
f 5/8/6 9/21/6 8/9/6
f 13/24/1 16/27/1 14/26/1
f 16/27/1 13/24/1 15/28/1

usemtl pavement

f 17/29/2 3/7/2 7/1/2
f 3/7/2 17/29/2 18/30/2
f 19/32/1 3/3/1 18/31/1
f 3/3/1 19/32/1 4/4/1
f 4/4/1 19/32/1 14/26/1
f 4/4/1 14/26/1 16/27/1
f 18/9/3 20/22/3 19/21/3
f 20/22/3 18/9/3 17/11/3
f 14/18/5 20/30/5 10/24/5
f 20/30/5 14/18/5 19/29/5
f 9/15/4 7/14/4 8/13/4
f 7/14/4 9/15/4 20/33/4
f 20/33/4 9/15/4 10/16/4
f 20/33/4 17/34/4 7/14/4

