# Created by Kenney (www.kenney.nl)

mtllib tile011.mtl

g tile011

v -0.5 0.1 0.2500001
v -0.5000001 0.1 -0.2499999
v -0.5 0.2 0.2500001
v -0.5000001 0.2 -0.2499999
v -0.2500001 0.2 -0.5
v -0.2500001 0.1 -0.5
v 0.25 0.2 -0.5000001
v 0.25 0.1 -0.5000001
v -0.25 0.1 0.5000001
v -0.25 0.2 0.5000001
v 0.2500001 0.1 0.5
v 0.2500001 0.2 0.5
v -0.2500001 0.2 -0.25
v -0.25 0.2 0.2500001
v -0.5 0.21 0.5000001
v -0.5 2.48157E-16 0.5000001
v 0.5000001 3.23281E-14 0.4999999
v 0.2500001 0.21 0.5
v 0.5000001 0.21 0.4999999
v -0.25 0.21 0.5000001
v -0.2500001 0.21 -0.5
v -0.2500001 0.21 -0.25
v -0.5000001 0.21 -0.4999999
v -0.5000001 0.21 -0.2499999
v -0.5 0.21 0.2500001
v -0.25 0.21 0.2500001
v -0.5000001 0 -0.4999999
v 0.5 0.21 -0.5000001
v 0.25 0.21 -0.5000001
v 0.5 3.237322E-14 -0.5000001

vn -1 0 1.192093E-07
vn -1.192093E-07 0 -1
vn 1.192093E-07 0 1
vn 0 1 0
vn 1 0 -1.192093E-07
vn 0 -1 0

vt 9.84252 3.937008
vt -9.84252 3.937008
vt 9.84252 7.874016
vt -9.84252 7.874016
vt -9.84252 -19.68504
vt -9.84252 -9.84252
vt 9.84252 -19.68504
vt 9.84252 -9.84252
vt 19.68504 9.84252
vt -19.68504 -9.84252
vt -19.68504 9.84252
vt 19.68504 -9.84252
vt -19.68504 8.267716
vt -19.68504 6.166398E-12
vt 19.68504 7.429387E-12
vt 9.84252 8.267716
vt 19.68504 8.267716
vt -9.84252 8.267716
vt -19.68504 -19.68504
vt -19.68504 7.874016
vt 19.68504 7.874016
vt 19.68504 -19.68504
vt 19.68504 3.717871E-13
vt -19.68504 3.620171E-13
vt -19.68504 19.68504
vt 19.68504 19.68504
vt -19.68504 -3.825103E-12
vt 19.68504 -3.823326E-12
vt -19.68504 -4.297927E-12
vt 19.68504 -5.572463E-12

usemtl asphalt

f 3/3/1 2/2/1 1/1/1
f 2/2/1 3/3/1 4/4/1
f 7/4/2 6/1/2 5/3/2
f 6/1/2 7/4/2 8/2/2
f 11/1/3 10/4/3 9/2/3
f 10/4/3 11/1/3 12/3/3
f 3/7/4 13/6/4 4/5/4
f 14/8/4 13/6/4 3/7/4
f 12/9/4 13/6/4 14/8/4
f 12/9/4 5/10/4 13/6/4
f 5/10/4 12/9/4 7/11/4
f 12/9/4 14/8/4 10/12/4

usemtl pavement

f 16/14/3 9/2/3 15/13/3
f 9/2/3 16/14/3 17/15/3
f 9/2/3 17/15/3 11/1/3
f 11/1/3 17/15/3 12/3/3
f 12/3/3 17/15/3 18/16/3
f 18/16/3 17/15/3 19/17/3
f 9/2/3 20/18/3 15/13/3
f 20/18/3 9/2/3 10/4/3
f 23/19/4 22/6/4 21/10/4
f 22/6/4 23/19/4 24/5/4
f 13/4/3 24/13/3 4/20/3
f 24/13/3 13/4/3 22/18/3
f 21/17/5 13/3/5 5/21/5
f 13/3/5 21/17/5 22/16/5
f 15/22/4 26/8/4 25/7/4
f 26/8/4 15/22/4 20/12/4
f 15/17/1 1/1/1 16/23/1
f 1/1/1 15/17/1 3/3/1
f 3/3/1 15/17/1 25/16/1
f 2/2/1 16/23/1 1/1/1
f 2/2/1 27/24/1 16/23/1
f 27/24/1 2/2/1 23/13/1
f 23/13/1 2/2/1 4/4/1
f 23/13/1 4/4/1 24/18/1
f 26/18/5 10/20/5 14/4/5
f 10/20/5 26/18/5 20/13/5
f 25/17/2 14/3/2 3/21/2
f 14/3/2 25/17/2 26/16/2
f 29/11/4 19/26/4 28/25/4
f 19/26/4 29/11/4 18/9/4
f 30/28/5 19/13/5 17/27/5
f 19/13/5 30/28/5 28/17/5
f 18/17/1 7/20/1 12/21/1
f 7/20/1 18/17/1 29/13/1
f 17/25/6 27/22/6 30/26/6
f 27/22/6 17/25/6 16/19/6
f 28/13/2 7/4/2 29/18/2
f 7/4/2 28/13/2 8/2/2
f 30/29/2 8/2/2 28/13/2
f 30/29/2 6/1/2 8/2/2
f 27/30/2 6/1/2 30/29/2
f 27/30/2 21/16/2 6/1/2
f 21/16/2 27/30/2 23/17/2
f 6/1/2 21/16/2 5/3/2

