# Created by Kenney (www.kenney.nl)

mtllib tile281.mtl

g tile281

v 0.5000001 0 -0.4999999
v 0.5000001 0.21 -0.4999999
v -0.5 0 -0.5000001
v -0.5 0.21 -0.5000001
v 0.5 0.21 0.5000001
v 0.5 0 0.5000001
v 0.1875 0.21 0.5000001
v 0.1875 0.19 0.5000001
v -0.5000001 0 0.4999999
v 0.125 0.19 0.5000001
v -0.1250001 0.19 0.5000001
v -0.1250001 0.21 0.5000001
v 0.125 0.21 0.5000001
v -0.1875001 0.19 0.5
v -0.5000001 0.21 0.4999999
v -0.1875001 0.21 0.5
v -0.5000001 0.19 0.1874999
v -0.5000001 0.19 0.1249999
v -0.5000001 0.21 0.1874999
v -0.5 0.19 -0.1875001
v -0.5000001 0.19 -0.1250001
v -0.5000001 0.21 0.1249999
v -0.5000001 0.21 -0.1250001
v -0.5 0.21 -0.1875001
v 0.1816183 0.21 0.4102633
v 0.164074 0.21 0.322062
v 0.1351672 0.21 0.2369052
v 0.09539247 0.21 0.15625
v 0.04543042 0.21 0.08147652
v -0.01386409 0.21 0.01386409
v -0.08147652 0.21 -0.04543043
v -0.15625 0.21 -0.0953925
v -0.2369051 0.21 -0.1351672
v -0.3220619 0.21 -0.164074
v -0.4102633 0.21 -0.1816184
v -0.1901736 0.21 0.4592106
v -0.1981483 0.21 0.4191191
v -0.2112877 0.21 0.3804114
v -0.2293671 0.21 0.34375
v -0.2520771 0.21 0.3097621
v -0.2790292 0.21 0.2790291
v -0.3097621 0.21 0.2520771
v -0.3437501 0.21 0.229367
v -0.3804115 0.21 0.2112876
v -0.4191191 0.21 0.1981482
v -0.4592107 0.21 0.1901734
v 0.119653 0.21 0.4184212
v -0.1282082 0.21 0.4510527
v -0.1377779 0.21 0.4029429
v 0.1037036 0.21 0.3382381
v -0.1535452 0.21 0.3564937
v -0.1752405 0.21 0.3125
v 0.07742471 0.21 0.2608229
v -0.2024925 0.21 0.2717144
v -0.234835 0.21 0.2348349
v 0.04126588 0.21 0.1875
v -0.2717145 0.21 0.2024925
v -0.3125001 0.21 0.1752404
v -0.004154161 0.21 0.1195241
v -0.3564937 0.21 0.1535451
v -0.4029429 0.21 0.1377777
v -0.4510527 0.21 0.1282081
v -0.05805826 0.21 0.05805825
v -0.1195241 0.21 0.004154131
v -0.1875 0.21 -0.0412659
v -0.2608229 0.21 -0.07742476
v -0.3382381 0.21 -0.1037037
v -0.4184211 0.21 -0.1196531
v 0.1816183 0.19 0.4102633
v 0.119653 0.19 0.4184212
v 0.1037036 0.19 0.3382381
v 0.164074 0.19 0.322062
v 0.07742471 0.19 0.2608229
v 0.1351672 0.19 0.2369052
v 0.04126588 0.19 0.1875
v 0.09539247 0.19 0.15625
v -0.004154161 0.19 0.1195241
v 0.04543042 0.19 0.08147652
v -0.05805826 0.19 0.05805825
v -0.01386409 0.19 0.01386409
v -0.1195241 0.19 0.004154131
v -0.08147652 0.19 -0.04543043
v -0.1875 0.19 -0.0412659
v -0.2608229 0.19 -0.07742476
v -0.15625 0.19 -0.0953925
v -0.3382381 0.19 -0.1037037
v -0.2369051 0.19 -0.1351672
v -0.4184211 0.19 -0.1196531
v -0.3220619 0.19 -0.164074
v -0.4102633 0.19 -0.1816184
v -0.1282082 0.19 0.4510527
v -0.1901736 0.19 0.4592106
v -0.1981483 0.19 0.4191191
v -0.1377779 0.19 0.4029429
v -0.2112877 0.19 0.3804114
v -0.1535452 0.19 0.3564937
v -0.2293671 0.19 0.34375
v -0.1752405 0.19 0.3125
v -0.2520771 0.19 0.3097621
v -0.2024925 0.19 0.2717144
v -0.2790292 0.19 0.2790291
v -0.3097621 0.19 0.2520771
v -0.234835 0.19 0.2348349
v -0.3437501 0.19 0.229367
v -0.2717145 0.19 0.2024925
v -0.3804115 0.19 0.2112876
v -0.4191191 0.19 0.1981482
v -0.3125001 0.19 0.1752404
v -0.4592107 0.19 0.1901734
v -0.3564937 0.19 0.1535451
v -0.4029429 0.19 0.1377777
v -0.4510527 0.19 0.1282081

vn 1.192093E-07 0 -1
vn -1.192093E-07 0 1
vn 1 0 1.192093E-07
vn -1 0 -1.192093E-07
vn 0 1 0
vn 0 -1 0
vn -0.9978591 0 0.06540304
vn -0.991445 0 0.1305261
vn -0.9659259 0 0.258819
vn -0.9238797 0 0.3826834
vn -0.8660256 0 0.4999999
vn -0.7933535 0 0.6087614
vn -0.7071069 0 0.7071068
vn -0.6087616 0 0.7933534
vn -0.5000002 0 0.8660255
vn -0.3826836 0 0.9238795
vn -0.2588192 0 0.9659259
vn -0.1305263 0 0.9914449
vn -0.06540325 0 0.9978591
vn 0.1305263 0 -0.9914449
vn 0.06540325 0 -0.9978591
vn 0.2588192 0 -0.9659259
vn 0.3826836 0 -0.9238795
vn 0.5000002 0 -0.8660255
vn 0.6087616 0 -0.7933534
vn 0.7071069 0 -0.7071068
vn 0.7933535 0 -0.6087614
vn 0.8660256 0 -0.4999999
vn 0.9238797 0 -0.3826834
vn 0.9659259 0 -0.258819
vn 0.991445 0 -0.1305261
vn 0.9978591 0 -0.06540304

vt -19.68504 0
vt -19.68504 8.267716
vt 19.68504 0
vt 19.68504 8.267716
vt 19.68504 4.812141E-13
vt 7.38189 8.267716
vt 7.38189 7.480315
vt -19.68504 4.812141E-13
vt 4.921261 7.480315
vt -4.921259 7.480315
vt -4.921259 8.267716
vt 4.921261 8.267716
vt -7.38189 7.480315
vt -7.38189 8.267716
vt 19.68504 -3.31818E-29
vt -19.68504 -3.31818E-29
vt 19.68504 -5.413659E-13
vt -19.68504 -5.413659E-13
vt 4.921259 7.480315
vt -4.921261 7.480315
vt 4.921259 8.267716
vt -4.921261 8.267716
vt -19.68504 -7.38189
vt -16.1521 -7.150329
vt -19.68504 -19.68504
vt 19.68504 -19.68504
vt -12.6796 -6.459607
vt -9.326974 -5.321542
vt -6.151575 -3.755609
vt -3.207737 -1.788599
vt -0.5458302 0.5458302
vt 1.788599 3.207737
vt 3.755609 6.151575
vt 5.321542 9.326974
vt 6.459607 12.6796
vt 7.150329 16.1521
vt 7.38189 19.68504
vt 19.68504 19.68504
vt -19.68504 19.68504
vt -7.38189 19.68504
vt -19.68504 7.38189
vt -18.07916 7.487145
vt -16.50075 7.801109
vt -14.97683 8.318411
vt -13.53346 9.030199
vt -12.19536 9.924294
vt -10.9854 10.9854
vt -9.924294 12.19536
vt -9.030199 13.53346
vt -8.318411 14.97683
vt -7.801109 16.50075
vt -7.487145 18.07916
vt -19.68504 -4.921261
vt -19.68504 4.921259
vt -16.47327 -4.710751
vt -17.75798 5.047565
vt -15.86389 5.424323
vt -13.31646 -4.082821
vt -14.03518 6.045085
vt -12.30315 6.89923
vt -10.26862 -3.048218
vt -10.69742 7.972145
vt -9.24547 9.24547
vt -7.381889 -1.624642
vt -7.972145 10.69742
vt -6.89923 12.30315
vt -4.705673 0.163549
vt -6.045085 14.03518
vt -5.424323 15.86389
vt -5.047565 17.75798
vt -4.921259 19.68504
vt 4.921261 19.68504
vt -2.285758 2.285758
vt -0.163549 4.705673
vt 1.624642 7.381889
vt 3.048218 10.26862
vt 4.082821 13.31646
vt 4.710751 16.47327
vt 20.12569 7.480315
vt 16.58517 7.480315
vt 20.12569 8.267716
vt 16.58517 8.267716
vt 17.2367 7.480315
vt 13.69617 7.480315
vt 17.2367 8.267716
vt 13.69617 8.267716
vt 14.08307 7.480315
vt 10.54255 7.480315
vt 14.08307 8.267716
vt 10.54255 8.267716
vt 10.71877 7.480315
vt 7.178243 7.480315
vt 10.71877 8.267716
vt 7.178243 8.267716
vt 7.201352 7.480315
vt 3.660828 7.480315
vt 7.201352 8.267716
vt 3.660828 8.267716
vt 3.59101 7.480315
vt 0.05048602 7.480315
vt 3.59101 8.267716
vt 0.05048602 8.267716
vt -0.05048602 8.267716
vt -0.05048602 7.480315
vt -3.59101 8.267716
vt -3.59101 7.480315
vt -3.660828 8.267716
vt -3.660828 7.480315
vt -7.201352 8.267716
vt -7.201352 7.480315
vt -7.178243 8.267716
vt -7.178243 7.480315
vt -10.71877 8.267716
vt -10.71877 7.480315
vt -10.54255 8.267716
vt -10.54255 7.480315
vt -14.08307 8.267716
vt -14.08307 7.480315
vt -13.69617 8.267716
vt -13.69617 7.480315
vt -17.2367 8.267716
vt -17.2367 7.480315
vt -16.58517 8.267716
vt -16.58517 7.480315
vt -20.12569 8.267716
vt -20.12569 7.480315
vt 16.7461 7.480315
vt 16.7461 8.267716
vt 19.96476 7.480315
vt 19.96476 8.267716
vt 13.85711 7.480315
vt 13.85711 8.267716
vt 17.07577 7.480315
vt 17.07577 8.267716
vt 10.70348 7.480315
vt 10.70348 8.267716
vt 13.92214 7.480315
vt 13.92214 8.267716
vt 7.339176 7.480315
vt 7.339176 8.267716
vt 10.55783 7.480315
vt 10.55783 8.267716
vt 3.821761 7.480315
vt 3.821761 8.267716
vt 7.040419 7.480315
vt 7.040419 8.267716
vt 0.2114189 7.480315
vt 0.2114189 8.267716
vt 3.430077 7.480315
vt 3.430077 8.267716
vt -0.2114189 7.480315
vt -3.430077 7.480315
vt -0.2114189 8.267716
vt -3.430077 8.267716
vt -3.821761 7.480315
vt -7.040419 7.480315
vt -3.821761 8.267716
vt -7.040419 8.267716
vt -7.339176 7.480315
vt -10.55783 7.480315
vt -7.339176 8.267716
vt -10.55783 8.267716
vt -10.70348 7.480315
vt -13.92214 7.480315
vt -10.70348 8.267716
vt -13.92214 8.267716
vt -13.85711 7.480315
vt -17.07577 7.480315
vt -13.85711 8.267716
vt -17.07577 8.267716
vt -16.7461 7.480315
vt -19.96476 7.480315
vt -16.7461 8.267716
vt -19.96476 8.267716
vt 17.38983 7.480315
vt 17.38983 8.267716
vt 19.32103 7.480315
vt 19.32103 8.267716
vt 14.50084 7.480315
vt 14.50084 8.267716
vt 16.43203 7.480315
vt 16.43203 8.267716
vt 11.34721 7.480315
vt 11.34721 8.267716
vt 13.27841 7.480315
vt 13.27841 8.267716
vt 7.982907 7.480315
vt 7.982907 8.267716
vt 9.914103 7.480315
vt 9.914103 8.267716
vt 4.465493 7.480315
vt 4.465493 8.267716
vt 6.396688 7.480315
vt 6.396688 8.267716
vt 0.8551505 7.480315
vt 0.8551505 8.267716
vt 2.786345 7.480315
vt 2.786345 8.267716
vt -0.8551505 8.267716
vt -0.8551505 7.480315
vt -2.786345 8.267716
vt -2.786345 7.480315
vt -4.465493 8.267716
vt -4.465493 7.480315
vt -6.396688 8.267716
vt -6.396688 7.480315
vt -7.982907 8.267716
vt -7.982907 7.480315
vt -9.914103 8.267716
vt -9.914103 7.480315
vt -11.34721 8.267716
vt -11.34721 7.480315
vt -13.27841 8.267716
vt -13.27841 7.480315
vt -14.50084 8.267716
vt -14.50084 7.480315
vt -16.43203 8.267716
vt -16.43203 7.480315
vt -17.38983 8.267716
vt -17.38983 7.480315
vt -19.32103 8.267716
vt -19.32103 7.480315
vt 17.55076 8.267716
vt 19.16009 8.267716
vt 17.55076 7.480315
vt 19.16009 7.480315
vt 14.66177 8.267716
vt 16.2711 8.267716
vt 14.66177 7.480315
vt 16.2711 7.480315
vt 11.50814 8.267716
vt 13.11747 8.267716
vt 11.50814 7.480315
vt 13.11747 7.480315
vt 8.143841 8.267716
vt 9.753169 8.267716
vt 8.143841 7.480315
vt 9.753169 7.480315
vt 4.626426 7.480315
vt 4.626426 8.267716
vt 6.235754 7.480315
vt 6.235754 8.267716
vt 1.016083 7.480315
vt 1.016083 8.267716
vt 2.625412 7.480315
vt 2.625412 8.267716
vt -1.016083 7.480315
vt -2.625412 7.480315
vt -1.016083 8.267716
vt -2.625412 8.267716
vt -4.626426 7.480315
vt -6.235754 7.480315
vt -4.626426 8.267716
vt -6.235754 8.267716
vt -8.143841 7.480315
vt -9.753169 7.480315
vt -8.143841 8.267716
vt -9.753169 8.267716
vt -11.50814 7.480315
vt -13.11747 7.480315
vt -11.50814 8.267716
vt -13.11747 8.267716
vt -14.66177 7.480315
vt -16.2711 7.480315
vt -14.66177 8.267716
vt -16.2711 8.267716
vt -17.55076 7.480315
vt -19.16009 7.480315
vt -17.55076 8.267716
vt -19.16009 8.267716

usemtl pavement

f 3/3/1 2/2/1 1/1/1
f 2/2/1 3/3/1 4/4/1
f 7/6/2 6/5/2 5/4/2
f 6/5/2 7/6/2 8/7/2
f 8/7/2 9/8/2 6/5/2
f 9/8/2 8/7/2 10/9/2
f 9/8/2 10/9/2 11/10/2
f 11/10/2 10/9/2 12/11/2
f 12/11/2 10/9/2 13/12/2
f 9/8/2 11/10/2 14/13/2
f 9/8/2 14/13/2 15/2/2
f 15/2/2 14/13/2 16/14/2
f 2/4/3 6/16/3 1/15/3
f 6/16/3 2/4/3 5/2/3
f 15/4/4 3/18/4 9/17/4
f 3/18/4 15/4/4 17/7/4
f 3/18/4 17/7/4 18/19/4
f 17/7/4 15/4/4 19/6/4
f 20/13/4 3/18/4 18/19/4
f 3/18/4 20/13/4 4/2/4
f 20/13/4 18/19/4 21/20/4
f 22/21/4 21/20/4 18/19/4
f 21/20/4 22/21/4 23/22/4
f 4/2/4 20/13/4 24/14/4
f 5/25/5 25/24/5 7/23/5
f 25/24/5 5/25/5 2/26/5
f 25/24/5 2/26/5 26/27/5
f 26/27/5 2/26/5 27/28/5
f 27/28/5 2/26/5 28/29/5
f 28/29/5 2/26/5 29/30/5
f 29/30/5 2/26/5 30/31/5
f 30/31/5 2/26/5 31/32/5
f 31/32/5 2/26/5 32/33/5
f 32/33/5 2/26/5 33/34/5
f 33/34/5 2/26/5 34/35/5
f 34/35/5 2/26/5 35/36/5
f 35/36/5 2/26/5 24/37/5
f 24/37/5 2/26/5 4/38/5
f 3/39/6 6/26/6 9/38/6
f 6/26/6 3/39/6 1/25/6
f 16/41/5 19/40/5 15/39/5
f 19/40/5 16/41/5 36/42/5
f 19/40/5 36/42/5 37/43/5
f 19/40/5 37/43/5 38/44/5
f 19/40/5 38/44/5 39/45/5
f 19/40/5 39/45/5 40/46/5
f 19/40/5 40/46/5 41/47/5
f 19/40/5 41/47/5 42/48/5
f 19/40/5 42/48/5 43/49/5
f 19/40/5 43/49/5 44/50/5
f 19/40/5 44/50/5 45/51/5
f 19/40/5 45/51/5 46/52/5
f 47/55/5 12/54/5 13/53/5
f 12/54/5 47/55/5 48/56/5
f 48/56/5 47/55/5 49/57/5
f 49/57/5 47/55/5 50/58/5
f 49/57/5 50/58/5 51/59/5
f 51/59/5 50/58/5 52/60/5
f 52/60/5 50/58/5 53/61/5
f 52/60/5 53/61/5 54/62/5
f 54/62/5 53/61/5 55/63/5
f 55/63/5 53/61/5 56/64/5
f 55/63/5 56/64/5 57/65/5
f 57/65/5 56/64/5 58/66/5
f 58/66/5 56/64/5 59/67/5
f 58/66/5 59/67/5 60/68/5
f 60/68/5 59/67/5 61/69/5
f 61/69/5 59/67/5 62/70/5
f 62/70/5 59/67/5 22/71/5
f 22/71/5 59/67/5 23/72/5
f 23/72/5 59/67/5 63/73/5
f 23/72/5 63/73/5 64/74/5
f 23/72/5 64/74/5 65/75/5
f 23/72/5 65/75/5 66/76/5
f 23/72/5 66/76/5 67/77/5
f 23/72/5 67/77/5 68/78/5

usemtl metal

f 69/24/5 10/53/5 8/23/5
f 10/53/5 69/24/5 70/55/5
f 70/55/5 69/24/5 71/58/5
f 71/58/5 69/24/5 72/27/5
f 71/58/5 72/27/5 73/61/5
f 73/61/5 72/27/5 74/28/5
f 73/61/5 74/28/5 75/64/5
f 75/64/5 74/28/5 76/29/5
f 75/64/5 76/29/5 77/67/5
f 77/67/5 76/29/5 78/30/5
f 77/67/5 78/30/5 79/73/5
f 79/73/5 78/30/5 80/31/5
f 79/73/5 80/31/5 81/74/5
f 81/74/5 80/31/5 82/32/5
f 81/74/5 82/32/5 83/75/5
f 83/75/5 82/32/5 84/76/5
f 84/76/5 82/32/5 85/33/5
f 84/76/5 85/33/5 86/77/5
f 86/77/5 85/33/5 87/34/5
f 86/77/5 87/34/5 88/78/5
f 88/78/5 87/34/5 21/72/5
f 21/72/5 87/34/5 20/37/5
f 20/37/5 87/34/5 89/35/5
f 20/37/5 89/35/5 90/36/5
f 7/81/7 69/80/8 8/79/7
f 69/80/8 7/81/7 25/82/8
f 25/85/8 72/84/9 69/83/8
f 72/84/9 25/85/8 26/86/9
f 26/89/9 74/88/10 72/87/9
f 74/88/10 26/89/9 27/90/10
f 27/93/10 76/92/11 74/91/10
f 76/92/11 27/93/10 28/94/11
f 28/97/11 78/96/12 76/95/11
f 78/96/12 28/97/11 29/98/12
f 29/101/12 80/100/13 78/99/12
f 80/100/13 29/101/12 30/102/13
f 31/105/14 80/104/13 30/103/13
f 80/104/13 31/105/14 82/106/14
f 32/109/15 82/108/14 31/107/14
f 82/108/14 32/109/15 85/110/15
f 33/113/16 85/112/15 32/111/15
f 85/112/15 33/113/16 87/114/16
f 34/117/17 87/116/16 33/115/16
f 87/116/16 34/117/17 89/118/17
f 35/121/18 89/120/17 34/119/17
f 89/120/17 35/121/18 90/122/18
f 24/125/19 90/124/18 35/123/18
f 90/124/18 24/125/19 20/126/19
f 21/129/21 68/128/20 88/127/20
f 68/128/20 21/129/21 23/130/21
f 88/133/20 67/132/22 86/131/22
f 67/132/22 88/133/20 68/134/20
f 86/137/22 66/136/23 84/135/23
f 66/136/23 86/137/22 67/138/22
f 84/141/23 65/140/24 83/139/24
f 65/140/24 84/141/23 66/142/23
f 83/145/24 64/144/25 81/143/25
f 64/144/25 83/145/24 65/146/24
f 81/149/25 63/148/26 79/147/26
f 63/148/26 81/149/25 64/150/25
f 63/153/26 77/152/27 79/151/26
f 77/152/27 63/153/26 59/154/27
f 59/157/27 75/156/28 77/155/27
f 75/156/28 59/157/27 56/158/28
f 56/161/28 73/160/29 75/159/28
f 73/160/29 56/161/28 53/162/29
f 53/165/29 71/164/30 73/163/29
f 71/164/30 53/165/29 50/166/30
f 50/169/30 70/168/31 71/167/30
f 70/168/31 50/169/30 47/170/31
f 47/173/31 10/172/32 70/171/31
f 10/172/32 47/173/31 13/174/32
f 91/56/5 14/41/5 11/54/5
f 14/41/5 91/56/5 92/42/5
f 92/42/5 91/56/5 93/43/5
f 93/43/5 91/56/5 94/57/5
f 93/43/5 94/57/5 95/44/5
f 95/44/5 94/57/5 96/59/5
f 95/44/5 96/59/5 97/45/5
f 97/45/5 96/59/5 98/60/5
f 97/45/5 98/60/5 99/46/5
f 99/46/5 98/60/5 100/62/5
f 99/46/5 100/62/5 101/47/5
f 101/47/5 100/62/5 102/48/5
f 102/48/5 100/62/5 103/63/5
f 102/48/5 103/63/5 104/49/5
f 104/49/5 103/63/5 105/65/5
f 104/49/5 105/65/5 106/50/5
f 106/50/5 105/65/5 107/51/5
f 107/51/5 105/65/5 108/66/5
f 107/51/5 108/66/5 109/52/5
f 109/52/5 108/66/5 17/40/5
f 17/40/5 108/66/5 18/71/5
f 18/71/5 108/66/5 110/68/5
f 18/71/5 110/68/5 111/69/5
f 18/71/5 111/69/5 112/70/5
f 11/177/7 48/176/8 91/175/8
f 48/176/8 11/177/7 12/178/7
f 91/181/8 49/180/9 94/179/9
f 49/180/9 91/181/8 48/182/8
f 94/185/9 51/184/10 96/183/10
f 51/184/10 94/185/9 49/186/9
f 96/189/10 52/188/11 98/187/11
f 52/188/11 96/189/10 51/190/10
f 98/193/11 54/192/12 100/191/12
f 54/192/12 98/193/11 52/194/11
f 100/197/12 55/196/13 103/195/13
f 55/196/13 100/197/12 54/198/12
f 57/201/14 103/200/13 55/199/13
f 103/200/13 57/201/14 105/202/14
f 58/205/15 105/204/14 57/203/14
f 105/204/14 58/205/15 108/206/15
f 60/209/16 108/208/15 58/207/15
f 108/208/15 60/209/16 110/210/16
f 61/213/17 110/212/16 60/211/16
f 110/212/16 61/213/17 111/214/17
f 62/217/18 111/216/17 61/215/17
f 111/216/17 62/217/18 112/218/18
f 22/221/19 112/220/18 62/219/18
f 112/220/18 22/221/19 18/222/19
f 109/225/20 19/224/21 46/223/20
f 19/224/21 109/225/20 17/226/21
f 107/229/22 46/228/20 45/227/22
f 46/228/20 107/229/22 109/230/20
f 106/233/23 45/232/22 44/231/23
f 45/232/22 106/233/23 107/234/22
f 104/237/24 44/236/23 43/235/24
f 44/236/23 104/237/24 106/238/23
f 104/241/24 42/240/25 102/239/25
f 42/240/25 104/241/24 43/242/24
f 102/245/25 41/244/26 101/243/26
f 41/244/26 102/245/25 42/246/25
f 41/249/26 99/248/27 101/247/26
f 99/248/27 41/249/26 40/250/27
f 40/253/27 97/252/28 99/251/27
f 97/252/28 40/253/27 39/254/28
f 39/257/28 95/256/29 97/255/28
f 95/256/29 39/257/28 38/258/29
f 38/261/29 93/260/30 95/259/29
f 93/260/30 38/261/29 37/262/30
f 37/265/30 92/264/31 93/263/30
f 92/264/31 37/265/30 36/266/31
f 36/269/31 14/268/32 92/267/31
f 14/268/32 36/269/31 16/270/32

