# Created by Kenney (www.kenney.nl)

mtllib tile042.mtl

g tile042

v -0.5 0 0.3125
v -0.5 0.1833333 0.3125
v -0.5 0 0.5
v -0.5 0.1833333 0.5
v 0.5 0.1833333 -0.5
v 0.5 0 -0.5
v 0.5 0.1833333 -0.3125
v 0.5 0 -0.3125
v 0.5 0 0.5
v 0.5 0.1833333 0.5
v -0.5 0 -0.5
v -0.3125 0 -0.5
v -0.5 0.1833333 -0.5
v -0.3125 0.1833333 -0.5
v 0.5 0 0.3125
v 0.3125 0 -0.5
v -0.5 0 -0.3125
v 0.3125 0.1833333 -0.5
v 0.3055489 0.1833333 -0.3939475
v 0.289348 0.1833333 -0.3125
v 0.5 0.1833333 0.3125
v -0.3141041 0.1833333 -0.4755263
v -0.3188889 0.1833333 -0.4514714
v -0.3267726 0.1833333 -0.4282469
v -0.3376202 0.1833333 -0.40625
v -0.3512463 0.1833333 -0.3858572
v -0.3674175 0.1833333 -0.3674175
v -0.3858572 0.1833333 -0.3512463
v -0.40625 0.1833333 -0.3376202
v -0.4282469 0.1833333 -0.3267726
v -0.4514714 0.1833333 -0.3188889
v -0.4755263 0.1833333 -0.3141041
v -0.5 0.1833333 -0.3125
v 0.3125 0.21 -0.5
v 0.3055489 0.21 -0.3939475
v 0.125 0.21 -0.5
v 0.289348 0.21 -0.3125
v 0.119653 0.21 -0.4184211
v 0.1037036 0.21 -0.3382381
v 0.07742469 0.21 -0.2608229
v 0.04126586 0.21 -0.1875
v -0.0004952987 0.21 -0.125
v 0.5 0.21 -0.125
v 0.5 0.21 -0.3125
v 0.09496671 0.21 -0.3125
v -0.125 0.21 -0.5
v -0.1282082 0.21 -0.4510527
v -0.3125 0.21 -0.5
v -0.1377778 0.21 -0.4029429
v -0.1535452 0.21 -0.3564937
v -0.1752405 0.21 -0.3125
v -0.2024925 0.21 -0.2717145
v -0.234835 0.21 -0.234835
v -0.2717145 0.21 -0.2024925
v -0.3125 0.21 -0.1752405
v -0.3141041 0.21 -0.4755263
v -0.3564937 0.21 -0.1535452
v -0.3188889 0.21 -0.4514714
v -0.3267726 0.21 -0.4282469
v -0.3376202 0.21 -0.40625
v -0.3512463 0.21 -0.3858572
v -0.3674175 0.21 -0.3674175
v -0.4029429 0.21 -0.1377778
v -0.3858572 0.21 -0.3512463
v -0.40625 0.21 -0.3376202
v -0.4510527 0.21 -0.1282082
v -0.4282469 0.21 -0.3267726
v -0.4514714 0.21 -0.3188889
v -0.5 0.21 -0.125
v -0.4755263 0.21 -0.3141041
v -0.5 0.21 -0.3125
v 0.04126586 0.2 -0.1875
v -0.0004952987 0.2 -0.125
v 0.07742469 0.2 -0.2608229
v 0.1037036 0.2 -0.3382381
v 0.119653 0.2 -0.4184211
v 0.125 0.2 -0.5
v -0.125 0.2 -0.5
v -0.1282082 0.2 -0.4510527
v -0.1377778 0.2 -0.4029429
v -0.1535452 0.2 -0.3564937
v -0.1752405 0.2 -0.3125
v -0.2024925 0.2 -0.2717145
v -0.234835 0.2 -0.234835
v -0.2717145 0.2 -0.2024925
v -0.3125 0.2 -0.1752405
v -0.3564937 0.2 -0.1535452
v -0.4029429 0.2 -0.1377778
v -0.4510527 0.2 -0.1282082
v -0.5 0.2 -0.125
v 0.5 0.2 -0.125
v -0.5 0.2 0.125
v 0.5 0.2 0.125
v -0.5 0.21 0.125
v 0.5 0.21 0.125
v 0.5 0.21 0.3125
v -0.5 0.21 0.3125
v -0.5 0.1 -0.125
v -0.5 0.1 0.125
v -0.125 0.1 -0.5
v 0.125 0.1 -0.5
v 0.5 0.1 0.125
v 0.5 0.1 -0.125

vn -1 0 0
vn 1 0 0
vn 0 0 1
vn 0 0 -1
vn 0 -1 0
vn 0 1 0
vn -0.8660254 0 -0.5
vn -0.8314696 0 -0.5555702
vn -0.9238795 0 -0.3826834
vn -0.9659258 0 -0.258819
vn -0.9469302 0 -0.3214395
vn -0.9914449 0 -0.1305262
vn -0.9978589 0 -0.06540313
vn 0.9978589 0 0.06540313
vn 0.9914449 0 0.1305262
vn 0.9659258 0 0.258819
vn 0.9238795 0 0.3826834
vn 0.8660254 0 0.5
vn 0.7933533 0 0.6087614
vn 0.7071068 0 0.7071068
vn 0.6087614 0 0.7933533
vn 0.5 0 0.8660254
vn 0.3826834 0 0.9238795
vn 0.258819 0 0.9659258
vn 0.1305262 0 0.9914449
vn 0.06540313 0 0.9978589
vn 0.9807853 0 0.1950903
vn -0.06540313 0 -0.9978589
vn -0.1305262 0 -0.9914449
vn -0.258819 0 -0.9659258
vn -0.3826834 0 -0.9238795
vn -0.5 0 -0.8660254
vn -0.6087614 0 -0.7933533
vn -0.7071068 0 -0.7071068
vn -0.7933533 0 -0.6087614

vt 12.30315 5.167584E-14
vt 12.30315 7.217848
vt 19.68504 5.167584E-14
vt 19.68504 7.217848
vt 19.68504 0
vt 12.30315 7.217848
vt 12.30315 0
vt -19.68504 0
vt -19.68504 7.217848
vt 19.68504 19.68504
vt 19.68504 12.30315
vt -19.68504 19.68504
vt 19.68504 -12.30315
vt 19.68504 -19.68504
vt 12.30315 -19.68504
vt -12.30315 -19.68504
vt -19.68504 -19.68504
vt -19.68504 12.30315
vt -19.68504 -12.30315
vt -12.30315 -19.68504
vt -12.02949 -15.50974
vt -11.39165 -12.30315
vt 12.30315 -19.68504
vt 12.3663 -18.72151
vt 12.55468 -17.77447
vt 12.86506 -16.86011
vt 13.29214 -15.99409
vt 13.82859 -15.19123
vt 14.46526 -14.46526
vt 15.19123 -13.82859
vt 15.99409 -13.29214
vt 16.86011 -12.86506
vt 17.77447 -12.55468
vt 18.72151 -12.3663
vt -19.68504 3.875688E-14
vt -12.30315 3.875688E-14
vt -12.30315 7.217848
vt -12.30315 0
vt -12.30315 7.217848
vt -4.921259 -19.68504
vt -4.710749 -16.47327
vt -4.08282 -13.31646
vt -3.048216 -10.26862
vt -1.62464 -7.38189
vt 0.01949995 -4.921261
vt -19.68504 -4.921261
vt -3.738847 -12.30315
vt 4.921261 -19.68504
vt 5.047567 -17.75798
vt 5.424324 -15.86389
vt 6.045086 -14.03519
vt 6.899232 -12.30315
vt 7.972146 -10.69742
vt 9.245471 -9.245471
vt 10.69742 -7.972146
vt 12.30315 -6.899232
vt 14.03519 -6.045086
vt 15.86389 -5.424324
vt 17.75798 -5.047567
vt 19.68504 -4.921261
vt -7.040419 7.874016
vt -7.040419 8.267716
vt -4.081045 7.874016
vt -4.081045 8.267716
vt -10.55783 7.874016
vt -10.55783 8.267716
vt -7.339176 7.874016
vt -7.339176 8.267716
vt -13.92214 7.874016
vt -13.92214 8.267716
vt -10.70348 7.874016
vt -12.85204 8.267716
vt -10.70348 8.267716
vt -17.07577 7.874016
vt -17.07577 8.267716
vt -13.85711 7.874016
vt -13.85711 8.267716
vt -19.96476 7.874016
vt -19.96476 8.267716
vt -16.7461 7.874016
vt -16.7461 8.267716
vt 19.32103 8.267716
vt 19.32103 7.874016
vt 17.38983 8.267716
vt 17.38983 7.874016
vt 16.43203 8.267716
vt 16.43203 7.874016
vt 14.50084 8.267716
vt 14.50084 7.874016
vt 13.27841 8.267716
vt 13.27841 7.874016
vt 11.34721 8.267716
vt 11.34721 7.874016
vt 9.914103 8.267716
vt 9.914103 7.874016
vt 7.982908 8.267716
vt 7.982908 7.874016
vt 6.396688 8.267716
vt 6.396688 7.874016
vt 4.465493 8.267716
vt 4.465493 7.874016
vt 2.786345 8.267716
vt 2.786345 7.874016
vt 0.8551506 8.267716
vt 0.8551506 7.874016
vt -0.8551506 7.874016
vt -2.786345 7.874016
vt -0.8551506 8.267716
vt -2.786345 8.267716
vt -4.465493 7.874016
vt -6.396688 7.874016
vt -4.465493 8.267716
vt -6.396688 8.267716
vt -7.982908 7.874016
vt -9.914103 7.874016
vt -7.982908 8.267716
vt -9.914103 8.267716
vt -11.34721 7.874016
vt -13.27841 7.874016
vt -11.34721 8.267716
vt -13.27841 8.267716
vt -14.50084 7.874016
vt -16.43203 7.874016
vt -14.50084 8.267716
vt -16.43203 8.267716
vt -17.38983 7.874016
vt -19.32103 7.874016
vt -17.38983 8.267716
vt -19.32103 8.267716
vt -0.01949995 7.874016
vt -0.01949995 8.267716
vt 19.68504 7.874016
vt 19.68504 8.267716
vt -19.68504 7.874016
vt -19.68504 8.267716
vt -19.68504 4.921259
vt 19.68504 4.921259
vt 20.44756 8.267716
vt 20.44756 7.217848
vt 16.2633 8.267716
vt 16.2633 7.217848
vt 17.55856 8.267716
vt 17.55856 7.217848
vt 14.28915 8.267716
vt 14.28915 7.217848
vt -11.39165 7.217848
vt -11.39165 8.267716
vt 18.83823 7.217848
vt 17.87263 7.217848
vt 18.83823 8.267716
vt 17.87263 8.267716
vt 15.94923 7.217848
vt 14.98364 7.217848
vt 15.94923 8.267716
vt 14.98364 8.267716
vt 12.79561 7.217848
vt 11.83001 7.217848
vt 12.79561 8.267716
vt 11.83001 8.267716
vt 9.431304 7.217848
vt 8.465706 7.217848
vt 9.431304 8.267716
vt 8.465706 8.267716
vt 5.913889 7.217848
vt 4.948291 7.217848
vt 5.913889 8.267716
vt 4.948291 8.267716
vt 2.303546 7.217848
vt 1.337949 7.217848
vt 2.303546 8.267716
vt 1.337949 8.267716
vt -2.303546 7.217848
vt -2.303546 8.267716
vt -1.337949 7.217848
vt -1.337949 8.267716
vt -5.913889 7.217848
vt -5.913889 8.267716
vt -4.948291 7.217848
vt -4.948291 8.267716
vt -9.431304 7.217848
vt -9.431304 8.267716
vt -8.465706 7.217848
vt -8.465706 8.267716
vt -12.79561 7.217848
vt -12.79561 8.267716
vt -11.83001 7.217848
vt -11.83001 8.267716
vt -15.94923 7.217848
vt -15.94923 8.267716
vt -14.98364 7.217848
vt -14.98364 8.267716
vt -18.83823 7.217848
vt -18.83823 8.267716
vt -17.87263 7.217848
vt -17.87263 8.267716
vt -4.921261 3.937008
vt -12.30315 8.267716
vt 4.921259 3.937008
vt 4.921259 7.874016
vt 4.921259 8.267716
vt 12.30315 8.267716
vt -4.921261 8.267716
vt -4.921261 7.874016
vt 4.921261 3.937008
vt 4.921261 7.874016
vt 12.30315 8.267716
vt 4.921261 8.267716
vt -4.921259 3.937008
vt -4.921259 7.874016
vt -12.30315 8.267716
vt -4.921259 8.267716

usemtl grass

f 3/3/1 2/2/1 1/1/1
f 2/2/1 3/3/1 4/4/1
f 7/6/2 6/5/2 5/4/2
f 6/5/2 7/6/2 8/7/2
f 10/4/3 3/8/3 9/5/3
f 3/8/3 10/4/3 4/9/3
f 13/4/4 12/7/4 11/5/4
f 12/7/4 13/4/4 14/6/4
f 3/12/5 15/11/5 9/10/5
f 15/11/5 3/12/5 8/13/5
f 8/13/5 3/12/5 6/14/5
f 6/14/5 3/12/5 16/15/5
f 16/15/5 3/12/5 12/16/5
f 12/16/5 3/12/5 11/17/5
f 11/17/5 3/12/5 1/18/5
f 11/17/5 1/18/5 17/19/5
f 18/20/6 7/19/6 5/17/6
f 7/19/6 18/20/6 19/21/6
f 7/19/6 19/21/6 20/22/6
f 2/11/6 10/12/6 21/18/6
f 10/12/6 2/11/6 4/10/6
f 13/14/6 22/24/6 14/23/6
f 22/24/6 13/14/6 23/25/6
f 23/25/6 13/14/6 24/26/6
f 24/26/6 13/14/6 25/27/6
f 25/27/6 13/14/6 26/28/6
f 26/28/6 13/14/6 27/29/6
f 27/29/6 13/14/6 28/30/6
f 28/30/6 13/14/6 29/31/6
f 29/31/6 13/14/6 30/32/6
f 30/32/6 13/14/6 31/33/6
f 31/33/6 13/14/6 32/34/6
f 32/34/6 13/14/6 33/13/6
f 17/36/1 13/9/1 11/35/1
f 13/9/1 17/36/1 33/37/1
f 18/39/4 6/8/4 16/38/4
f 6/8/4 18/39/4 5/9/4
f 10/9/2 15/38/2 21/39/2
f 15/38/2 10/9/2 9/8/2

usemtl pavement

f 36/40/6 35/21/6 34/20/6
f 35/21/6 36/40/6 37/22/6
f 38/41/6 37/22/6 36/40/6
f 39/42/6 37/22/6 38/41/6
f 40/43/6 37/22/6 39/42/6
f 41/44/6 37/22/6 40/43/6
f 42/45/6 37/22/6 41/44/6
f 43/46/6 37/22/6 42/45/6
f 37/22/6 43/46/6 44/19/6
f 40/43/6 39/42/6 45/47/6
f 48/23/6 47/49/6 46/48/6
f 47/49/6 48/23/6 49/50/6
f 49/50/6 48/23/6 50/51/6
f 50/51/6 48/23/6 51/52/6
f 51/52/6 48/23/6 52/53/6
f 52/53/6 48/23/6 53/54/6
f 53/54/6 48/23/6 54/55/6
f 54/55/6 48/23/6 55/56/6
f 55/56/6 48/23/6 56/24/6
f 55/56/6 56/24/6 57/57/6
f 57/57/6 56/24/6 58/25/6
f 57/57/6 58/25/6 59/26/6
f 57/57/6 59/26/6 60/27/6
f 57/57/6 60/27/6 61/28/6
f 57/57/6 61/28/6 62/29/6
f 57/57/6 62/29/6 63/58/6
f 63/58/6 62/29/6 64/30/6
f 63/58/6 64/30/6 65/31/6
f 63/58/6 65/31/6 66/59/6
f 66/59/6 65/31/6 67/32/6
f 66/59/6 67/32/6 68/33/6
f 66/59/6 68/33/6 69/60/6
f 69/60/6 68/33/6 70/34/6
f 69/60/6 70/34/6 71/13/6
f 73/63/8 41/62/7 72/61/7
f 41/62/7 73/63/8 42/64/8
f 72/67/7 40/66/9 74/65/9
f 40/66/9 72/67/7 41/68/7
f 74/71/9 39/70/10 75/69/10
f 39/70/10 74/71/9 45/72/11
f 45/72/11 74/71/9 40/73/9
f 75/76/10 38/75/12 76/74/12
f 38/75/12 75/76/10 39/77/10
f 76/80/12 36/79/13 77/78/13
f 36/79/13 76/80/12 38/81/12
f 47/84/15 78/83/14 46/82/14
f 78/83/14 47/84/15 79/85/15
f 49/88/16 79/87/15 47/86/15
f 79/87/15 49/88/16 80/89/16
f 50/92/17 80/91/16 49/90/16
f 80/91/16 50/92/17 81/93/17
f 51/96/18 81/95/17 50/94/17
f 81/95/17 51/96/18 82/97/18
f 52/100/19 82/99/18 51/98/18
f 82/99/18 52/100/19 83/101/19
f 53/104/20 83/103/19 52/102/19
f 83/103/19 53/104/20 84/105/20
f 53/108/20 85/107/21 84/106/20
f 85/107/21 53/108/20 54/109/21
f 54/112/21 86/111/22 85/110/21
f 86/111/22 54/112/21 55/113/22
f 55/116/22 87/115/23 86/114/22
f 87/115/23 55/116/22 57/117/23
f 57/120/23 88/119/24 87/118/23
f 88/119/24 57/120/23 63/121/24
f 63/124/24 89/123/25 88/122/24
f 89/123/25 63/124/24 66/125/25
f 66/128/25 90/127/26 89/126/25
f 90/127/26 66/128/25 69/129/26
f 91/132/3 42/131/3 73/130/3
f 42/131/3 91/132/3 43/133/3
f 94/133/4 93/134/4 92/132/4
f 93/134/4 94/133/4 95/135/4
f 94/137/6 96/18/6 95/136/6
f 96/18/6 94/137/6 97/11/6
f 35/140/15 18/139/14 34/138/14
f 18/139/14 35/140/15 19/141/15
f 37/144/27 19/143/15 35/142/15
f 19/143/15 37/144/27 20/145/27
f 37/147/4 7/9/4 20/146/4
f 7/9/4 37/147/4 44/135/4
f 96/133/3 2/9/3 21/4/3
f 2/9/3 96/133/3 97/135/3
f 71/150/28 32/149/29 33/148/28
f 32/149/29 71/150/28 70/151/29
f 70/154/29 31/153/30 32/152/29
f 31/153/30 70/154/29 68/155/30
f 68/158/30 30/157/31 31/156/30
f 30/157/31 68/158/30 67/159/31
f 67/162/31 29/161/32 30/160/31
f 29/161/32 67/162/31 65/163/32
f 65/166/32 28/165/33 29/164/32
f 28/165/33 65/166/32 64/167/33
f 64/170/33 27/169/34 28/168/33
f 27/169/34 64/170/33 62/171/34
f 27/174/34 61/173/35 26/172/35
f 61/173/35 27/174/34 62/175/34
f 26/178/35 60/177/7 25/176/7
f 60/177/7 26/178/35 61/179/35
f 25/182/7 59/181/9 24/180/9
f 59/181/9 25/182/7 60/183/7
f 24/186/9 58/185/10 23/184/10
f 58/185/10 24/186/9 59/187/9
f 23/190/10 56/189/12 22/188/12
f 56/189/12 23/190/10 58/191/10
f 22/194/12 48/193/13 14/192/13
f 48/193/13 22/194/12 56/195/12
f 17/36/1 98/196/1 33/37/1
f 98/196/1 17/36/1 1/1/1
f 33/37/1 98/196/1 71/197/1
f 98/196/1 1/1/1 99/198/1
f 99/198/1 1/1/1 92/199/1
f 92/199/1 1/1/1 94/200/1
f 94/200/1 1/1/1 97/201/1
f 97/201/1 1/1/1 2/2/1
f 98/196/1 69/202/1 71/197/1
f 69/202/1 98/196/1 90/203/1
f 12/7/4 100/204/4 16/38/4
f 100/204/4 12/7/4 14/6/4
f 100/204/4 14/6/4 78/205/4
f 78/205/4 14/6/4 48/206/4
f 78/205/4 48/206/4 46/207/4
f 101/208/4 16/38/4 100/204/4
f 16/38/4 101/208/4 18/39/4
f 18/39/4 101/208/4 77/209/4
f 18/39/4 77/209/4 34/210/4
f 34/210/4 77/209/4 36/211/4
f 96/210/2 93/209/2 95/211/2
f 93/209/2 96/210/2 102/208/2
f 15/38/2 102/208/2 96/210/2
f 15/38/2 103/204/2 102/208/2
f 8/7/2 103/204/2 15/38/2
f 8/7/2 43/207/2 103/204/2
f 7/6/2 43/207/2 8/7/2
f 43/207/2 7/6/2 44/206/2
f 103/204/2 43/207/2 91/205/2
f 15/38/2 96/210/2 21/39/2

usemtl asphalt

f 78/48/6 76/41/6 77/40/6
f 76/41/6 78/48/6 75/42/6
f 75/42/6 78/48/6 74/43/6
f 74/43/6 78/48/6 72/44/6
f 72/44/6 78/48/6 73/45/6
f 79/49/6 73/45/6 78/48/6
f 80/50/6 73/45/6 79/49/6
f 81/51/6 73/45/6 80/50/6
f 82/52/6 73/45/6 81/51/6
f 83/53/6 73/45/6 82/52/6
f 92/137/6 73/45/6 83/53/6
f 93/136/6 73/45/6 92/137/6
f 73/45/6 93/136/6 91/46/6
f 92/137/6 83/53/6 84/54/6
f 92/137/6 84/54/6 85/55/6
f 92/137/6 85/55/6 86/56/6
f 92/137/6 86/56/6 87/57/6
f 92/137/6 87/57/6 88/58/6
f 92/137/6 88/58/6 89/59/6
f 92/137/6 89/59/6 90/60/6
f 78/205/4 101/208/4 100/204/4
f 101/208/4 78/205/4 77/209/4
f 99/198/1 90/203/1 98/196/1
f 90/203/1 99/198/1 92/199/1
f 93/209/2 103/204/2 91/205/2
f 103/204/2 93/209/2 102/208/2

