# Created by Kenney (www.kenney.nl)

mtllib tile022.mtl

g tile022

v -0.5 0.21 -0.5
v -0.5 0.1 -0.125
v -0.5 0 -0.5
v -0.5 0 0.5
v -0.5 0.1 0.125
v -0.5 0.2 0.125
v -0.5 0.21 0.125
v -0.5 0.21 0.5
v -0.5 0.21 -0.125
v -0.5 0.2 -0.125
v 0.5 0.21 0.125
v 0.5 0.2 0.125
v 0.5 0.21 0.5
v 0.5 0.1 0.125
v 0.5 0 0.5
v 0.5 0.1 -0.125
v 0.5 0 -0.5
v 0.5 0.21 -0.125
v 0.5 0.21 -0.5
v 0.5 0.2 -0.125
v 0.125 0.21 -0.5
v 0.119653 0.21 -0.4184211
v 0.1037036 0.21 -0.3382381
v 0.07742469 0.21 -0.2608229
v 0.04126586 0.21 -0.1875
v -0.0004952987 0.21 -0.125
v -0.125 0.21 -0.5
v -0.1282082 0.21 -0.4510527
v -0.1377778 0.21 -0.4029429
v -0.1535452 0.21 -0.3564937
v -0.1752405 0.21 -0.3125
v -0.2024925 0.21 -0.2717145
v -0.234835 0.21 -0.234835
v -0.2717145 0.21 -0.2024925
v -0.3125 0.21 -0.1752405
v -0.3564937 0.21 -0.1535452
v -0.4029429 0.21 -0.1377778
v -0.4510527 0.21 -0.1282082
v 0.04126586 0.2 -0.1875
v -0.0004952987 0.2 -0.125
v 0.07742469 0.2 -0.2608229
v 0.1037036 0.2 -0.3382381
v 0.119653 0.2 -0.4184211
v 0.125 0.2 -0.5
v -0.125 0.2 -0.5
v -0.1282082 0.2 -0.4510527
v -0.1377778 0.2 -0.4029429
v -0.1535452 0.2 -0.3564937
v -0.1752405 0.2 -0.3125
v -0.2024925 0.2 -0.2717145
v -0.234835 0.2 -0.234835
v -0.2717145 0.2 -0.2024925
v -0.3125 0.2 -0.1752405
v -0.3564937 0.2 -0.1535452
v -0.4029429 0.2 -0.1377778
v -0.4510527 0.2 -0.1282082
v -0.125 0.1 -0.5
v 0.125 0.1 -0.5

vn -1 0 0
vn 1 0 0
vn 0 0 1
vn 0 1 0
vn -0.8660254 0 -0.5
vn -0.8314696 0 -0.5555702
vn -0.9238795 0 -0.3826834
vn -0.9659258 0 -0.258819
vn -0.9914449 0 -0.1305262
vn -0.9978589 0 -0.06540313
vn 0.9978589 0 0.06540313
vn 0.9914449 0 0.1305262
vn 0.9659258 0 0.258819
vn 0.9238795 0 0.3826834
vn 0.8660254 0 0.5
vn 0.7933533 0 0.6087614
vn 0.7071068 0 0.7071068
vn 0.6087614 0 0.7933533
vn 0.5 0 0.8660254
vn 0.3826834 0 0.9238795
vn 0.258819 0 0.9659258
vn 0.1305262 0 0.9914449
vn 0.06540313 0 0.9978589
vn 0 0 -1
vn 0 -1 0

vt -19.68504 8.267716
vt -4.921261 3.937008
vt -19.68504 1.525924E-13
vt 19.68504 1.525924E-13
vt 4.921259 3.937008
vt 4.921259 7.874016
vt 4.921259 8.267716
vt 19.68504 8.267716
vt -4.921261 8.267716
vt -4.921261 7.874016
vt -4.921259 8.267716
vt -4.921259 7.874016
vt -4.921259 3.937008
vt -19.68504 0
vt 4.921261 3.937008
vt 19.68504 0
vt 4.921261 8.267716
vt 4.921261 7.874016
vt -19.68504 -19.68504
vt -19.68504 -4.921261
vt -4.921259 -19.68504
vt -4.710749 -16.47327
vt -4.08282 -13.31646
vt -3.048216 -10.26862
vt -1.62464 -7.38189
vt 0.01949995 -4.921261
vt 4.921261 -19.68504
vt 5.047567 -17.75798
vt 19.68504 -19.68504
vt 5.424324 -15.86389
vt 6.045086 -14.03519
vt 6.899232 -12.30315
vt 7.972146 -10.69742
vt 9.245471 -9.245471
vt 10.69742 -7.972146
vt 12.30315 -6.899232
vt 14.03519 -6.045086
vt 15.86389 -5.424324
vt 17.75798 -5.047567
vt 19.68504 -4.921261
vt -7.040419 7.874016
vt -7.040419 8.267716
vt -4.081045 7.874016
vt -4.081045 8.267716
vt -10.55783 7.874016
vt -10.55783 8.267716
vt -7.339176 7.874016
vt -7.339176 8.267716
vt -13.92214 7.874016
vt -13.92214 8.267716
vt -10.70348 7.874016
vt -10.70348 8.267716
vt -17.07577 7.874016
vt -17.07577 8.267716
vt -13.85711 7.874016
vt -13.85711 8.267716
vt -19.96476 7.874016
vt -19.96476 8.267716
vt -16.7461 7.874016
vt -16.7461 8.267716
vt 19.32103 8.267716
vt 19.32103 7.874016
vt 17.38983 8.267716
vt 17.38983 7.874016
vt 16.43203 8.267716
vt 16.43203 7.874016
vt 14.50084 8.267716
vt 14.50084 7.874016
vt 13.27841 8.267716
vt 13.27841 7.874016
vt 11.34721 8.267716
vt 11.34721 7.874016
vt 9.914103 8.267716
vt 9.914103 7.874016
vt 7.982908 8.267716
vt 7.982908 7.874016
vt 6.396688 8.267716
vt 6.396688 7.874016
vt 4.465493 8.267716
vt 4.465493 7.874016
vt 2.786345 8.267716
vt 2.786345 7.874016
vt 0.8551506 8.267716
vt 0.8551506 7.874016
vt -0.8551506 7.874016
vt -2.786345 7.874016
vt -0.8551506 8.267716
vt -2.786345 8.267716
vt -4.465493 7.874016
vt -6.396688 7.874016
vt -4.465493 8.267716
vt -6.396688 8.267716
vt -7.982908 7.874016
vt -9.914103 7.874016
vt -7.982908 8.267716
vt -9.914103 8.267716
vt -11.34721 7.874016
vt -13.27841 7.874016
vt -11.34721 8.267716
vt -13.27841 8.267716
vt -14.50084 7.874016
vt -16.43203 7.874016
vt -14.50084 8.267716
vt -16.43203 8.267716
vt -17.38983 7.874016
vt -19.32103 7.874016
vt -17.38983 8.267716
vt -19.32103 8.267716
vt 19.68504 19.68504
vt -19.68504 19.68504
vt -19.68504 4.921259
vt 19.68504 4.921259
vt -0.01949995 7.874016
vt -0.01949995 8.267716
vt 19.68504 7.874016
vt -19.68504 7.874016

usemtl pavement

f 3/3/1 2/2/1 1/1/1
f 2/2/1 3/3/1 4/4/1
f 2/2/1 4/4/1 5/5/1
f 5/5/1 4/4/1 6/6/1
f 6/6/1 4/4/1 7/7/1
f 7/7/1 4/4/1 8/8/1
f 2/2/1 9/9/1 1/1/1
f 9/9/1 2/2/1 10/10/1
f 13/1/2 12/12/2 11/11/2
f 12/12/2 13/1/2 14/13/2
f 15/14/2 14/13/2 13/1/2
f 15/14/2 16/15/2 14/13/2
f 17/16/2 16/15/2 15/14/2
f 17/16/2 18/17/2 16/15/2
f 18/17/2 17/16/2 19/8/2
f 16/15/2 18/17/2 20/18/2
f 13/8/3 4/14/3 15/16/3
f 4/14/3 13/8/3 8/1/3
f 21/21/4 18/20/4 19/19/4
f 18/20/4 21/21/4 22/22/4
f 18/20/4 22/22/4 23/23/4
f 18/20/4 23/23/4 24/24/4
f 18/20/4 24/24/4 25/25/4
f 18/20/4 25/25/4 26/26/4
f 1/29/4 28/28/4 27/27/4
f 28/28/4 1/29/4 29/30/4
f 29/30/4 1/29/4 30/31/4
f 30/31/4 1/29/4 31/32/4
f 31/32/4 1/29/4 32/33/4
f 32/33/4 1/29/4 33/34/4
f 33/34/4 1/29/4 34/35/4
f 34/35/4 1/29/4 35/36/4
f 35/36/4 1/29/4 36/37/4
f 36/37/4 1/29/4 37/38/4
f 37/38/4 1/29/4 38/39/4
f 38/39/4 1/29/4 9/40/4
f 40/43/6 25/42/5 39/41/5
f 25/42/5 40/43/6 26/44/6
f 39/47/5 24/46/7 41/45/7
f 24/46/7 39/47/5 25/48/5
f 41/51/7 23/50/8 42/49/8
f 23/50/8 41/51/7 24/52/7
f 42/55/8 22/54/9 43/53/9
f 22/54/9 42/55/8 23/56/8
f 43/59/9 21/58/10 44/57/10
f 21/58/10 43/59/9 22/60/9
f 28/63/12 45/62/11 27/61/11
f 45/62/11 28/63/12 46/64/12
f 29/67/13 46/66/12 28/65/12
f 46/66/12 29/67/13 47/68/13
f 30/71/14 47/70/13 29/69/13
f 47/70/13 30/71/14 48/72/14
f 31/75/15 48/74/14 30/73/14
f 48/74/14 31/75/15 49/76/15
f 32/79/16 49/78/15 31/77/15
f 49/78/15 32/79/16 50/80/16
f 33/83/17 50/82/16 32/81/16
f 50/82/16 33/83/17 51/84/17
f 33/87/17 52/86/18 51/85/17
f 52/86/18 33/87/17 34/88/18
f 34/91/18 53/90/19 52/89/18
f 53/90/19 34/91/18 35/92/19
f 35/95/19 54/94/20 53/93/19
f 54/94/20 35/95/19 36/96/20
f 36/99/20 55/98/21 54/97/20
f 55/98/21 36/99/20 37/100/21
f 37/103/21 56/102/22 55/101/21
f 56/102/22 37/103/21 38/104/22
f 38/107/22 10/106/23 56/105/22
f 10/106/23 38/107/22 9/108/23
f 3/16/24 57/15/24 17/14/24
f 57/15/24 3/16/24 1/8/24
f 57/15/24 1/8/24 45/18/24
f 45/18/24 1/8/24 27/17/24
f 58/13/24 17/14/24 57/15/24
f 17/14/24 58/13/24 19/1/24
f 19/1/24 58/13/24 44/12/24
f 19/1/24 44/12/24 21/11/24
f 4/110/25 17/29/25 15/109/25
f 17/29/25 4/110/25 3/19/25
f 7/112/4 13/110/4 11/111/4
f 13/110/4 7/112/4 8/109/4
f 20/115/3 26/114/3 40/113/3
f 26/114/3 20/115/3 18/8/3
f 7/8/24 12/116/24 6/115/24
f 12/116/24 7/8/24 11/1/24

usemtl asphalt

f 45/27/4 43/22/4 44/21/4
f 43/22/4 45/27/4 42/23/4
f 42/23/4 45/27/4 41/24/4
f 41/24/4 45/27/4 39/25/4
f 39/25/4 45/27/4 40/26/4
f 46/28/4 40/26/4 45/27/4
f 47/30/4 40/26/4 46/28/4
f 48/31/4 40/26/4 47/30/4
f 49/32/4 40/26/4 48/31/4
f 50/33/4 40/26/4 49/32/4
f 6/112/4 40/26/4 50/33/4
f 12/111/4 40/26/4 6/112/4
f 40/26/4 12/111/4 20/20/4
f 6/112/4 50/33/4 51/34/4
f 6/112/4 51/34/4 52/35/4
f 6/112/4 52/35/4 53/36/4
f 6/112/4 53/36/4 54/37/4
f 6/112/4 54/37/4 55/38/4
f 6/112/4 55/38/4 56/39/4
f 6/112/4 56/39/4 10/40/4
f 45/18/24 58/13/24 57/15/24
f 58/13/24 45/18/24 44/12/24
f 5/5/1 10/10/1 2/2/1
f 10/10/1 5/5/1 6/6/1
f 12/12/2 16/15/2 20/18/2
f 16/15/2 12/12/2 14/13/2

