# Created by Kenney (www.kenney.nl)

mtllib tile145.mtl

g tile145

v 0.5000001 1.353584E-16 -0.4999999
v 0.5000001 0.1833333 -0.4999999
v -0.5 1.353584E-16 -0.5000001
v -0.5 0.1833333 -0.5000001
v -0.5 0.1516667 -0.5000001
v 0.5 0.1833333 0.5000001
v 0.5 1.353584E-16 0.5000001
v -0.5000001 0.1833333 0.4999999
v -0.5000001 1.353584E-16 0.4999999
v -0.5000001 0.1516667 0.4999999
v 0.5000001 0 -0.2499999
v 0.5000001 0.1516667 -0.2499999
v 0.5000001 0.1833333 -0.2499999
v 0.5 0 0.2500001
v 0.5 0.1833333 0.2500001
v -0.4978614 0.1833333 0.4673685
v -0.4914815 0.1833333 0.4352952
v -0.48097 0.1833333 0.4043292
v -0.4665065 0.1833333 0.375
v -0.4483384 0.1833333 0.3478096
v -0.4267768 0.1833333 0.3232232
v -0.4021904 0.1833333 0.3016616
v -0.3750001 0.1833333 0.2834936
v -0.3456709 0.1833333 0.2690302
v -0.3147048 0.1833333 0.2585185
v -0.2826316 0.1833333 0.2521388
v -0.2500001 0.1833333 0.25
v 0.5 0.1516667 0.2500001
v -0.2500001 0.1516667 0.25
v -0.25 0.1833333 -0.2500001
v -0.2826315 0.1833333 -0.2521388
v -0.3147048 0.1833333 -0.2585186
v -0.3456708 0.1833333 -0.2690302
v -0.375 0.1833333 -0.2834937
v -0.4021904 0.1833333 -0.3016618
v -0.4267767 0.1833333 -0.3232234
v -0.4483384 0.1833333 -0.3478097
v -0.4665064 0.1833333 -0.3750001
v -0.4809698 0.1833333 -0.4043293
v -0.4914814 0.1833333 -0.4352953
v -0.4978612 0.1833333 -0.4673686
v -0.2826315 0.1516667 -0.2521388
v -0.3147048 0.1516667 -0.2585186
v -0.3456708 0.1516667 -0.2690302
v -0.375 0.1516667 -0.2834937
v -0.4021904 0.1516667 -0.3016618
v -0.4267767 0.1516667 -0.3232234
v -0.4483384 0.1516667 -0.3478097
v -0.4665064 0.1516667 -0.3750001
v -0.4809698 0.1516667 -0.4043293
v -0.4914814 0.1516667 -0.4352953
v -0.4978612 0.1516667 -0.4673686
v -0.4978614 0.1516667 0.4673685
v -0.4914815 0.1516667 0.4352952
v -0.48097 0.1516667 0.4043292
v -0.4665065 0.1516667 0.375
v -0.4483384 0.1516667 0.3478096
v -0.4267768 0.1516667 0.3232232
v -0.4021904 0.1516667 0.3016616
v -0.3750001 0.1516667 0.2834936
v -0.3456709 0.1516667 0.2690302
v -0.3147048 0.1516667 0.2585185
v -0.2826316 0.1516667 0.2521388
v -0.25 0.1516667 -0.2500001

vn 1.192093E-07 0 -1
vn -1.192093E-07 0 1
vn 1 0 1.192093E-07
vn 0 -1 0
vn 0 1 0
vn -0.03271897 0 -0.9994647
vn -0.1305263 0 0.9914449
vn -0.2588192 0 0.9659259
vn -0.3826836 0 0.9238795
vn -0.5000002 0 0.8660255
vn -0.6087616 0 0.7933534
vn -0.7071069 0 0.7071068
vn -0.7933535 0 0.6087614
vn -0.8660256 0 0.4999999
vn -0.9238797 0 0.3826834
vn -0.9659259 0 0.258819
vn -0.991445 0 0.1305261
vn -0.9978591 0 0.06540304
vn -0.9978591 0 -0.06540328
vn -0.991445 0 -0.1305263
vn -0.9659259 0 -0.2588192
vn -0.9238796 0 -0.3826836
vn -0.8660255 0 -0.5000002
vn -0.7933534 0 -0.6087616
vn -0.7071068 0 -0.7071069
vn -0.6087614 0 -0.7933535
vn -0.4999999 0 -0.8660256
vn -0.3826834 0 -0.9238797
vn -0.258819 0 -0.9659259
vn -0.1305261 0 -0.991445
vn -0.03271921 0 0.9994647
vn -1 0 -1.192093E-07

vt -19.68504 5.329071E-15
vt -19.68504 7.217848
vt 19.68504 5.329071E-15
vt 19.68504 7.217848
vt 19.68504 5.971128
vt -19.68504 5.971128
vt 9.84252 1.033627E-30
vt 9.84252 5.971128
vt 9.84252 7.217848
vt 19.68504 19.68504
vt 19.68504 -19.68504
vt -19.68504 19.68504
vt 9.84252 -19.68504
vt -9.84252 -19.68504
vt -19.68504 -19.68504
vt -18.40033 19.60084
vt -17.13761 19.34966
vt -15.91847 18.93582
vt -14.76378 18.36639
vt -13.69329 17.65112
vt -12.72533 16.80223
vt -11.87644 15.83427
vt -11.16117 14.76378
vt -10.59174 13.60909
vt -10.1779 12.38995
vt -9.926723 11.12723
vt -9.84252 9.84252
vt -9.84252 -8.682464E-29
vt -9.84252 5.971128
vt -9.84252 7.217848
vt 9.84252 9.84252
vt 9.926723 11.12723
vt 10.1779 12.38995
vt 10.59174 13.60909
vt 11.16117 14.76378
vt 11.87644 15.83427
vt 12.72533 16.80223
vt 13.69329 17.65112
vt 14.76378 18.36639
vt 15.91847 18.93582
vt 17.13761 19.34966
vt 18.40033 19.60084
vt -12.85003 7.217848
vt -12.85003 5.971128
vt -14.13749 7.217848
vt -14.13749 5.971128
vt -15.00399 7.217848
vt -15.00399 5.971128
vt -16.29146 7.217848
vt -16.29146 5.971128
vt -16.89023 7.217848
vt -16.89023 5.971128
vt -18.17769 7.217848
vt -18.17769 5.971128
vt -18.47645 7.217848
vt -18.47645 5.971128
vt -19.76391 7.217848
vt -19.76391 5.971128
vt -19.73552 7.217848
vt -19.73552 5.971128
vt -21.02298 7.217848
vt -21.02298 5.971128
vt -20.64589 5.971128
vt -21.93335 5.971128
vt -20.64589 7.217848
vt -21.93335 7.217848
vt -21.19199 5.971128
vt -22.47945 5.971128
vt -21.19199 7.217848
vt -22.47945 7.217848
vt -21.36448 5.971128
vt -22.65194 5.971128
vt -21.36448 7.217848
vt -22.65194 7.217848
vt -21.1604 5.971128
vt -22.44786 5.971128
vt -21.1604 7.217848
vt -22.44786 7.217848
vt -20.58325 5.971128
vt -21.87071 5.971128
vt -20.58325 7.217848
vt -21.87071 7.217848
vt -19.64289 5.971128
vt -20.93036 5.971128
vt -19.64289 7.217848
vt -20.93036 7.217848
vt 20.93036 5.971128
vt 19.64289 5.971128
vt 20.93036 7.217848
vt 19.64289 7.217848
vt 21.87071 5.971128
vt 20.58325 5.971128
vt 21.87071 7.217848
vt 20.58325 7.217848
vt 22.44786 5.971128
vt 21.1604 5.971128
vt 22.44786 7.217848
vt 21.1604 7.217848
vt 22.65194 5.971128
vt 21.36448 5.971128
vt 22.65194 7.217848
vt 21.36448 7.217848
vt 22.47945 5.971128
vt 21.19199 5.971128
vt 22.47945 7.217848
vt 21.19199 7.217848
vt 21.93335 5.971128
vt 20.64589 5.971128
vt 21.93335 7.217848
vt 20.64589 7.217848
vt 19.73552 5.971128
vt 19.73552 7.217848
vt 21.02298 5.971128
vt 21.02298 7.217848
vt 18.47645 5.971128
vt 18.47645 7.217848
vt 19.76391 5.971128
vt 19.76391 7.217848
vt 16.89023 5.971128
vt 16.89023 7.217848
vt 18.17769 5.971128
vt 18.17769 7.217848
vt 15.00399 5.971128
vt 15.00399 7.217848
vt 16.29146 5.971128
vt 16.29146 7.217848
vt 12.85003 5.971128
vt 12.85003 7.217848
vt 14.13749 5.971128
vt 14.13749 7.217848
vt 10.46518 5.971128
vt 10.46518 7.217848
vt 11.75264 5.971128
vt 11.75264 7.217848
vt -10.46518 7.217848
vt -10.46518 5.971128
vt -11.75264 7.217848
vt -11.75264 5.971128
vt 19.68504 2.551903E-13
vt -19.68504 2.551903E-13

usemtl grass

f 3/3/1 2/2/1 1/1/1
f 2/2/1 3/3/1 4/4/1
f 4/4/1 3/3/1 5/5/1
f 8/2/2 7/3/2 6/4/2
f 7/3/2 8/2/2 9/1/2
f 9/1/2 8/2/2 10/6/2
f 1/3/3 12/8/3 11/7/3
f 12/8/3 1/3/3 2/4/3
f 12/8/3 2/4/3 13/9/3
f 3/12/4 7/11/4 9/10/4
f 7/11/4 3/12/4 14/13/4
f 14/13/4 3/12/4 11/14/4
f 11/14/4 3/12/4 1/15/4
f 15/14/5 8/12/5 6/15/5
f 8/12/5 15/14/5 16/16/5
f 16/16/5 15/14/5 17/17/5
f 17/17/5 15/14/5 18/18/5
f 18/18/5 15/14/5 19/19/5
f 19/19/5 15/14/5 20/20/5
f 20/20/5 15/14/5 21/21/5
f 21/21/5 15/14/5 22/22/5
f 22/22/5 15/14/5 23/23/5
f 23/23/5 15/14/5 24/24/5
f 24/24/5 15/14/5 25/25/5
f 25/25/5 15/14/5 26/26/5
f 26/26/5 15/14/5 27/27/5
f 29/8/6 15/2/1 28/6/1
f 15/2/1 29/8/6 27/9/6
f 28/29/3 7/1/3 14/28/3
f 7/1/3 28/29/3 6/2/3
f 6/2/3 28/29/3 15/30/3
f 2/11/5 30/31/5 13/13/5
f 30/31/5 2/11/5 31/32/5
f 31/32/5 2/11/5 32/33/5
f 32/33/5 2/11/5 33/34/5
f 33/34/5 2/11/5 34/35/5
f 34/35/5 2/11/5 35/36/5
f 35/36/5 2/11/5 36/37/5
f 36/37/5 2/11/5 37/38/5
f 37/38/5 2/11/5 38/39/5
f 38/39/5 2/11/5 39/40/5
f 39/40/5 2/11/5 40/41/5
f 40/41/5 2/11/5 41/42/5
f 41/42/5 2/11/5 4/10/5
f 32/45/8 42/44/7 31/43/7
f 42/44/7 32/45/8 43/46/8
f 33/49/9 43/48/8 32/47/8
f 43/48/8 33/49/9 44/50/9
f 34/53/10 44/52/9 33/51/9
f 44/52/9 34/53/10 45/54/10
f 35/57/11 45/56/10 34/55/10
f 45/56/10 35/57/11 46/58/11
f 36/61/12 46/60/11 35/59/11
f 46/60/11 36/61/12 47/62/12
f 36/65/12 48/64/13 47/63/12
f 48/64/13 36/65/12 37/66/13
f 37/69/13 49/68/14 48/67/13
f 49/68/14 37/69/13 38/70/14
f 38/73/14 50/72/15 49/71/14
f 50/72/15 38/73/14 39/74/15
f 39/77/15 51/76/16 50/75/15
f 51/76/16 39/77/15 40/78/16
f 40/81/16 52/80/17 51/79/16
f 52/80/17 40/81/16 41/82/17
f 41/85/17 5/84/18 52/83/17
f 5/84/18 41/85/17 4/86/18
f 8/89/19 53/88/20 10/87/19
f 53/88/20 8/89/19 16/90/20
f 16/93/20 54/92/21 53/91/20
f 54/92/21 16/93/20 17/94/21
f 17/97/21 55/96/22 54/95/21
f 55/96/22 17/97/21 18/98/22
f 18/101/22 56/100/23 55/99/22
f 56/100/23 18/101/22 19/102/23
f 19/105/23 57/104/24 56/103/23
f 57/104/24 19/105/23 20/106/24
f 20/109/24 58/108/25 57/107/24
f 58/108/25 20/109/24 21/110/25
f 58/113/25 22/112/26 59/111/26
f 22/112/26 58/113/25 21/114/25
f 59/117/26 23/116/27 60/115/27
f 23/116/27 59/117/26 22/118/26
f 60/121/27 24/120/28 61/119/28
f 24/120/28 60/121/27 23/122/27
f 61/125/28 25/124/29 62/123/29
f 25/124/29 61/125/28 24/126/28
f 62/129/29 26/128/30 63/127/30
f 26/128/30 62/129/29 25/130/29
f 63/133/30 27/132/6 29/131/6
f 27/132/6 63/133/30 26/134/30
f 31/137/7 64/136/31 30/135/31
f 64/136/31 31/137/7 42/138/7
f 30/30/31 12/5/2 13/4/2
f 12/5/2 30/30/31 64/29/31

usemtl water

f 12/13/5 29/27/5 28/14/5
f 64/31/5 29/27/5 12/13/5
f 42/32/5 29/27/5 64/31/5
f 43/33/5 29/27/5 42/32/5
f 44/34/5 29/27/5 43/33/5
f 45/35/5 29/27/5 44/34/5
f 46/36/5 29/27/5 45/35/5
f 47/37/5 29/27/5 46/36/5
f 48/38/5 29/27/5 47/37/5
f 49/39/5 29/27/5 48/38/5
f 50/40/5 29/27/5 49/39/5
f 50/40/5 63/26/5 29/27/5
f 51/41/5 63/26/5 50/40/5
f 51/41/5 62/25/5 63/26/5
f 51/41/5 61/24/5 62/25/5
f 51/41/5 60/23/5 61/24/5
f 52/42/5 60/23/5 51/41/5
f 52/42/5 59/22/5 60/23/5
f 52/42/5 58/21/5 59/22/5
f 52/42/5 57/20/5 58/21/5
f 5/10/5 57/20/5 52/42/5
f 5/10/5 56/19/5 57/20/5
f 5/10/5 55/18/5 56/19/5
f 5/10/5 54/17/5 55/18/5
f 5/10/5 53/16/5 54/17/5
f 53/16/5 5/10/5 10/12/5
f 12/8/3 14/28/3 11/7/3
f 14/28/3 12/8/3 28/29/3
f 10/5/32 3/140/32 9/139/32
f 3/140/32 10/5/32 5/6/32

