# Created by Kenney (www.kenney.nl)

mtllib tile092.mtl

g tile092

v -0.3662787 8.337772E-15 -0.5
v -0.3662787 0.1833333 -0.5
v -0.5 9.625486E-15 -0.5
v -0.5 0.21 -0.5
v -0.3662787 0.21 -0.5
v 0.5 0.21 -0.5
v 0.5 0 -0.5
v 0.5 0.21 -0.3662787
v 0.5 1.450418E-15 -0.3662787
v 0.5 0.1833333 -0.3662787
v -0.5 2.225519E-15 0.3662787
v -0.5 0.1833333 0.3662787
v -0.5 1.082867E-15 0.5
v -0.5 0.21 0.3662787
v -0.5 0.21 0.5
v 0.5 0.21 0.3662787
v 0.5 0.21 0.5
v 0.4419417 0.21 0.4419417
v 0.3662787 0.21 0.5
v 0.5 1.088883E-14 0.5
v 0.3662787 1.323504E-13 0.5
v 0.3662787 0.1833333 0.5
v -0.3662787 1.331325E-13 0.5
v -0.3662787 0.1833333 0.5
v -0.3662787 0.21 0.5
v 0.4419417 0.21 -0.4419417
v 0.3662787 0.21 -0.5
v -0.4419417 0.21 -0.4419417
v -0.5 0.21 -0.3662787
v -0.4419417 0.21 0.4419417
v 0.4419417 0.1833333 0.4419417
v 0.5 0.1833333 0.3662787
v -0.4419417 0.1833333 0.4419417
v -0.4419417 0.1833333 -0.4419417
v -0.5 0.1833333 -0.3662787
v 0.4419417 0.1833333 -0.4419417
v 0.3662787 0.1833333 -0.5
v -0.5 8.482807E-15 -0.3662787
v 0.5 9.438885E-15 0.3662787
v 0.3662787 1.320358E-15 -0.5

vn 0 0 -0.3333333
vn 0.3333333 0 0
vn -0.3333333 0 0
vn 0 0.3333333 0
vn 0 0 0.3333333
vn -0.2357023 0 -0.2357023
vn -0.2029205 0 -0.2644511
vn -0.2644511 0 -0.2029205
vn 0.2644511 0 -0.2029205
vn 0.2357023 0 -0.2357023
vn 0.2029205 0 -0.2644511
vn 0.2357023 0 0.2357023
vn 0.2029205 0 0.2644511
vn 0.2644511 0 0.2029205
vn -0.2357023 0 0.2357023
vn -0.2644511 0 0.2029205
vn -0.2029205 0 0.2644511
vn 0 -0.3333333 0

vt 43.26127 5.665957E-11
vt 43.26127 21.65354
vt 59.05512 5.681166E-11
vt 59.05512 24.80315
vt 43.26127 24.80315
vt 59.05512 -2.304318E-11
vt 43.26127 -2.287187E-11
vt 43.26127 1.155247E-11
vt 59.05512 1.141751E-11
vt -59.05512 43.26127
vt -59.05512 59.05512
vt -52.19784 52.19784
vt -43.26127 59.05512
vt 59.05512 1.286082E-12
vt 43.26127 1.563194E-11
vt -59.05512 1.278977E-13
vt -59.05512 24.80315
vt -43.26127 1.572431E-11
vt -43.26127 21.65354
vt -43.26127 24.80315
vt -59.05512 -43.26127
vt -52.19784 -52.19784
vt -59.05512 -59.05512
vt -43.26127 -59.05512
vt 43.26127 -59.05512
vt 52.19784 -52.19784
vt 59.05512 -59.05512
vt 59.05512 -43.26127
vt 43.26127 59.05512
vt 59.05512 59.05512
vt 52.19784 52.19784
vt 59.05512 43.26127
vt -9.6353 21.65354
vt -9.6353 24.80315
vt 1.629006 21.65354
vt 1.629006 24.80315
vt -1.629006 21.65354
vt -1.629006 24.80315
vt 9.6353 21.65354
vt 9.6353 24.80315
vt -59.05512 2.557191E-11
vt -43.26127 2.543695E-11
vt -43.26127 1.037503E-12
vt -59.05512 1.208756E-12
vt -59.05512 3.216766E-11
vt -43.26127 3.232361E-11

usemtl pavement

f 3/3/1 2/2/1 1/1/1
f 2/2/1 3/3/1 4/4/1
f 2/2/1 4/4/1 5/5/1
f 8/5/2 7/6/2 6/4/2
f 7/6/2 8/5/2 9/7/2
f 9/7/2 8/5/2 10/2/2
f 13/9/3 12/2/3 11/8/3
f 12/2/3 13/9/3 14/5/3
f 14/5/3 13/9/3 15/4/3
f 18/12/4 17/11/4 16/10/4
f 17/11/4 18/12/4 19/13/4
f 17/4/5 21/15/5 20/14/5
f 21/15/5 17/4/5 22/2/5
f 22/2/5 17/4/5 19/5/5
f 23/18/5 15/17/5 13/16/5
f 15/17/5 23/18/5 24/19/5
f 15/17/5 24/19/5 25/20/5
f 6/23/4 26/22/4 8/21/4
f 26/22/4 6/23/4 27/24/4
f 4/27/4 28/26/4 5/25/4
f 28/26/4 4/27/4 29/28/4
f 30/31/4 15/30/4 25/29/4
f 15/30/4 30/31/4 14/32/4
f 22/35/7 18/34/6 31/33/6
f 18/34/6 22/35/7 19/36/7
f 31/39/6 16/38/8 32/37/8
f 16/38/8 31/39/6 18/40/6
f 30/34/10 12/35/9 14/36/9
f 12/35/9 30/34/10 33/33/10
f 33/39/10 25/38/11 24/37/11
f 25/38/11 33/39/10 30/40/10
f 2/35/13 28/34/12 34/33/12
f 28/34/12 2/35/13 5/36/13
f 29/38/14 34/39/12 28/40/12
f 34/39/12 29/38/14 35/37/14
f 10/35/16 26/34/15 36/33/15
f 26/34/15 10/35/16 8/36/16
f 26/40/15 37/37/17 36/39/15
f 37/37/17 26/40/15 27/38/17
f 38/42/3 4/17/3 3/41/3
f 4/17/3 38/42/3 29/20/3
f 29/20/3 38/42/3 35/19/3
f 17/17/2 32/19/2 16/20/2
f 32/19/2 17/17/2 39/43/2
f 39/43/2 17/17/2 20/44/2
f 40/46/1 6/17/1 7/45/1
f 6/17/1 40/46/1 37/19/1
f 6/17/1 37/19/1 27/20/1

usemtl grass

f 22/2/5 23/18/5 21/15/5
f 23/18/5 22/2/5 24/19/5
f 9/28/18 40/25/18 7/27/18
f 40/25/18 9/28/18 39/32/18
f 40/25/18 39/32/18 20/30/18
f 40/25/18 20/30/18 21/29/18
f 40/25/18 21/29/18 23/13/18
f 40/25/18 23/13/18 1/24/18
f 1/24/18 23/13/18 3/23/18
f 3/23/18 23/13/18 11/10/18
f 11/10/18 23/13/18 13/11/18
f 3/23/18 11/10/18 38/21/18
f 10/21/4 31/12/4 32/10/4
f 31/12/4 10/21/4 36/22/4
f 31/12/4 36/22/4 22/13/4
f 22/13/4 36/22/4 37/24/4
f 22/13/4 37/24/4 24/29/4
f 24/29/4 37/24/4 2/25/4
f 24/29/4 2/25/4 34/26/4
f 24/29/4 34/26/4 33/31/4
f 33/31/4 34/26/4 12/32/4
f 12/32/4 34/26/4 35/28/4
f 11/8/3 35/19/3 38/42/3
f 35/19/3 11/8/3 12/2/3
f 32/19/2 9/7/2 10/2/2
f 9/7/2 32/19/2 39/43/2
f 1/1/1 37/19/1 40/46/1
f 37/19/1 1/1/1 2/2/1

