# Created by Kenney (www.kenney.nl)

mtllib tile255.mtl

g tile255

v -0.5000001 0.5666667 0.2499999
v -0.5 0.5666667 -0.2500001
v 0.5 0.5666667 0.2500001
v 0.5000001 0.5666667 -0.2499999
v -0.5000001 0.4666667 0.2499999
v -0.5 0.4666667 -0.2500001
v 0.5000001 0.4666667 -0.2499999
v 0.5 0.4666667 0.2500001
v 0.5 0.3666667 0.5000001
v 0.5000001 0.3666667 -0.4999999
v 0.5000001 0.5766667 -0.4999999
v 0.5000001 0.5766667 -0.2499999
v 0.5 0.5766667 0.5000001
v 0.5 0.5766667 0.2500001
v -0.5000001 6.790479E-15 0.4999999
v -0.5000001 0.5766667 0.4999999
v -0.5000001 0.5766667 0.2499999
v -0.5 0.5766667 -0.5000001
v -0.5 6.429523E-15 -0.5000001
v -0.5 0.5766667 -0.2500001
v 0.4521405 0.3635298 -0.5
v 0.4050998 0.3541728 -0.5
v 0.3596828 0.3387558 -0.5
v 0.3166668 0.3175426 -0.5
v 0.2767875 0.2908962 -0.5
v 0.2407276 0.2592725 -0.5
v 0.2091039 0.2232125 -0.5
v 0.1824574 0.1833333 -0.5
v 0.1612442 0.1403173 -0.5
v 0.1458273 0.09490032 -0.5
v 0.1364703 0.0478596 -0.5
v 0.1333334 0 -0.5000001
v 0.1333333 1.976233E-14 0.5000001
v 0.4521404 0.3635298 0.5000001
v 0.4050997 0.3541728 0.5000001
v 0.3596827 0.3387558 0.5000001
v 0.3166666 0.3175426 0.5000001
v 0.2767874 0.2908962 0.5000001
v 0.2407275 0.2592725 0.5000001
v 0.2091037 0.2232125 0.5000001
v 0.1824573 0.1833333 0.5000001
v 0.1612441 0.1403173 0.5000001
v 0.1458271 0.09490032 0.5000001
v 0.1364702 0.0478596 0.5000001

vn 0 1 0
vn -1 0 -1.192093E-07
vn 1 0 1.192093E-07
vn 1.192093E-07 0 -1
vn -1.192093E-07 0 1
vn 0 -1 0
vn 0.1305262 -0.9914449 1.490116E-08
vn 0.06540313 -0.9978589 7.450581E-09
vn 0.2588191 -0.9659258 2.980232E-08
vn 0.3826835 -0.9238795 5.960464E-08
vn 0.5000001 -0.8660254 5.960464E-08
vn 0.6087615 -0.7933533 5.960464E-08
vn 0.7071068 -0.7071068 5.960464E-08
vn 0.7933534 -0.6087614 1.192093E-07
vn 0.8660256 -0.5 1.192093E-07
vn 0.9238796 -0.3826834 1.192093E-07
vn 0.9659259 -0.258819 1.192093E-07
vn 0.991445 -0.1305262 1.192093E-07
vn 0.9978591 -0.06540313 1.192093E-07

vt -9.84252 19.68504
vt 9.84252 19.68504
vt -9.84252 -19.68504
vt 9.84252 -19.68504
vt 9.84252 18.3727
vt -9.84252 18.3727
vt 9.84252 22.30971
vt -9.84252 22.30971
vt -19.68504 14.4357
vt 19.68504 14.4357
vt 19.68504 22.70341
vt 9.84252 22.70341
vt -19.68504 22.70341
vt -9.84252 22.70341
vt 19.68504 1.820669E-13
vt -19.68504 1.67856E-13
vt -19.68504 19.68504
vt -19.68504 -19.68504
vt -19.68504 22.30971
vt 19.68504 22.30971
vt 19.68504 19.68504
vt 19.68504 -19.68504
vt -17.8008 14.3122
vt -15.94881 13.94381
vt -14.16074 13.33684
vt -12.46719 12.50168
vt -10.89714 11.45261
vt -9.477461 10.20758
vt -8.232432 8.787894
vt -7.18336 7.217848
vt -6.348196 5.524302
vt -5.741228 3.736233
vt -5.372843 1.884236
vt -5.249344 2.405722E-13
vt 19.68504 4.93703E-13
vt 19.68504 -5.249344
vt -19.68504 -5.249344
vt 17.8008 14.3122
vt 15.94881 13.94381
vt 14.16074 13.33684
vt 12.46719 12.50168
vt 10.89714 11.45261
vt 9.477461 10.20758
vt 8.232432 8.787894
vt 7.18336 7.217848
vt 6.348196 5.524302
vt 5.741228 3.736233
vt 5.372843 1.884236
vt 5.249344 8.562381E-13
vt -19.68504 3.455355E-13
vt -19.68504 18.69875
vt -19.68504 20.58703
vt 19.68504 18.69875
vt 19.68504 20.58703
vt -19.68504 20.25094
vt 19.68504 20.25094
vt -19.68504 18.36266
vt 19.68504 18.36266
vt -19.68504 17.69622
vt -19.68504 19.5845
vt 19.68504 17.69622
vt 19.68504 19.5845
vt -19.68504 16.71084
vt -19.68504 18.59912
vt 19.68504 16.71084
vt 19.68504 18.59912
vt -19.68504 15.42337
vt -19.68504 17.31165
vt 19.68504 15.42337
vt 19.68504 17.31165
vt -19.68504 13.85586
vt -19.68504 15.74414
vt 19.68504 13.85586
vt 19.68504 15.74414
vt 19.68504 12.03511
vt -19.68504 12.03511
vt 19.68504 13.92339
vt -19.68504 13.92339
vt 19.68504 9.992282
vt -19.68504 9.992282
vt 19.68504 11.88056
vt -19.68504 11.88056
vt 19.68504 7.762331
vt -19.68504 7.762331
vt 19.68504 9.65061
vt -19.68504 9.65061
vt 19.68504 5.383409
vt -19.68504 5.383409
vt 19.68504 7.271688
vt -19.68504 7.271688
vt 19.68504 2.896221
vt -19.68504 2.896221
vt 19.68504 4.7845
vt -19.68504 4.7845
vt 19.68504 0.3433235
vt -19.68504 0.3433235
vt 19.68504 2.231603
vt -19.68504 2.231603

usemtl asphalt

f 3/3/1 2/2/1 1/1/1
f 2/2/1 3/3/1 4/4/1
f 1/7/2 6/6/2 5/5/2
f 6/6/2 1/7/2 2/8/2
f 4/7/3 8/6/3 7/5/3
f 8/6/3 4/7/3 3/8/3

usemtl pavement

f 10/10/3 7/5/3 9/9/3
f 7/5/3 10/10/3 11/11/3
f 7/5/3 11/11/3 4/7/3
f 4/7/3 11/11/3 12/12/3
f 8/6/3 9/9/3 7/5/3
f 9/9/3 8/6/3 13/13/3
f 13/13/3 8/6/3 3/8/3
f 13/13/3 3/8/3 14/14/3
f 16/11/2 5/5/2 15/15/2
f 5/5/2 16/11/2 1/7/2
f 1/7/2 16/11/2 17/12/2
f 6/6/2 15/15/2 5/5/2
f 18/13/2 15/15/2 6/6/2
f 15/15/2 18/13/2 19/16/2
f 18/13/2 6/6/2 2/8/2
f 18/13/2 2/8/2 20/14/2
f 13/18/1 17/1/1 16/17/1
f 17/1/1 13/18/1 14/3/1
f 1/20/4 14/13/4 3/19/4
f 14/13/4 1/20/4 17/11/4
f 12/4/1 18/21/1 20/2/1
f 18/21/1 12/4/1 11/22/1
f 21/23/4 11/13/4 10/9/4
f 11/13/4 21/23/4 18/11/4
f 18/11/4 21/23/4 22/24/4
f 18/11/4 22/24/4 23/25/4
f 18/11/4 23/25/4 24/26/4
f 18/11/4 24/26/4 25/27/4
f 18/11/4 25/27/4 26/28/4
f 18/11/4 26/28/4 27/29/4
f 18/11/4 27/29/4 28/30/4
f 18/11/4 28/30/4 29/31/4
f 18/11/4 29/31/4 30/32/4
f 18/11/4 30/32/4 31/33/4
f 18/11/4 31/33/4 32/34/4
f 18/11/4 32/34/4 19/35/4
f 20/13/5 4/20/5 12/11/5
f 4/20/5 20/13/5 2/19/5
f 19/17/6 33/36/6 15/21/6
f 33/36/6 19/17/6 32/37/6
f 16/13/5 9/10/5 13/11/5
f 9/10/5 16/13/5 34/38/5
f 34/38/5 16/13/5 35/39/5
f 35/39/5 16/13/5 36/40/5
f 36/40/5 16/13/5 37/41/5
f 37/41/5 16/13/5 38/42/5
f 38/42/5 16/13/5 39/43/5
f 39/43/5 16/13/5 40/44/5
f 40/44/5 16/13/5 41/45/5
f 41/45/5 16/13/5 42/46/5
f 42/46/5 16/13/5 43/47/5
f 43/47/5 16/13/5 44/48/5
f 44/48/5 16/13/5 33/49/5
f 33/49/5 16/13/5 15/50/5
f 21/53/7 9/52/8 34/51/7
f 9/52/8 21/53/7 10/54/8
f 35/57/9 21/56/7 34/55/7
f 21/56/7 35/57/9 22/58/9
f 23/61/10 35/60/9 36/59/10
f 35/60/9 23/61/10 22/62/9
f 24/65/11 36/64/10 37/63/11
f 36/64/10 24/65/11 23/66/10
f 25/69/12 37/68/11 38/67/12
f 37/68/11 25/69/12 24/70/11
f 26/73/13 38/72/12 39/71/13
f 38/72/12 26/73/13 25/74/12
f 26/77/13 40/76/14 27/75/14
f 40/76/14 26/77/13 39/78/13
f 27/81/14 41/80/15 28/79/15
f 41/80/15 27/81/14 40/82/14
f 28/85/15 42/84/16 29/83/16
f 42/84/16 28/85/15 41/86/15
f 29/89/16 43/88/17 30/87/17
f 43/88/17 29/89/16 42/90/16
f 30/93/17 44/92/18 31/91/18
f 44/92/18 30/93/17 43/94/17
f 31/97/18 33/96/19 32/95/19
f 33/96/19 31/97/18 44/98/18

