# Created by Kenney (www.kenney.nl)

mtllib tile133.mtl

g tile133

v -0.375 1.353584E-16 -0.5000001
v -0.375 0.1833333 -0.5000001
v -0.5 1.353584E-16 -0.5000001
v -0.375 0.21 -0.5000001
v -0.5 0.21 -0.5000001
v -0.5 0.1516667 -0.5000001
v 0.5 0.1516667 0.2500001
v 0.5 0.21 0.2500001
v -0.2500001 0.1516667 0.25
v -0.2500001 0.21 0.25
v 0.5 0 0.2500001
v 0.5 9.023893E-17 0.3750001
v 0.5 0.1833333 0.3750001
v 0.5 0.21 0.3750001
v -0.2826315 0.21 -0.2521388
v -0.2826315 0.1516667 -0.2521388
v -0.3147048 0.21 -0.2585186
v -0.3147048 0.1516667 -0.2585186
v -0.3456708 0.21 -0.2690302
v -0.3456708 0.1516667 -0.2690302
v -0.375 0.21 -0.2834937
v -0.375 0.1516667 -0.2834937
v -0.4021904 0.21 -0.3016618
v -0.4021904 0.1516667 -0.3016618
v -0.4267767 0.21 -0.3232234
v -0.4267767 0.1516667 -0.3232234
v -0.4483384 0.1516667 -0.3478097
v -0.4483384 0.21 -0.3478097
v -0.4665064 0.1516667 -0.3750001
v -0.4665064 0.21 -0.3750001
v -0.4809698 0.1516667 -0.4043293
v -0.4809698 0.21 -0.4043293
v -0.4914814 0.1516667 -0.4352953
v -0.4914814 0.21 -0.4352953
v -0.4978612 0.1516667 -0.4673686
v -0.4978612 0.21 -0.4673686
v -0.5000001 0.1516667 0.4999999
v -0.4978614 0.1516667 0.4673685
v -0.5000001 0.21 0.4999999
v -0.4978614 0.21 0.4673685
v -0.4914815 0.1516667 0.4352952
v -0.4914815 0.21 0.4352952
v -0.48097 0.1516667 0.4043292
v -0.48097 0.21 0.4043292
v -0.4665065 0.1516667 0.375
v -0.4665065 0.21 0.375
v -0.4483384 0.1516667 0.3478096
v -0.4483384 0.21 0.3478096
v -0.4267768 0.1516667 0.3232232
v -0.4267768 0.21 0.3232232
v -0.4021904 0.1516667 0.3016616
v -0.4021904 0.21 0.3016616
v -0.3750001 0.1516667 0.2834936
v -0.3750001 0.21 0.2834936
v -0.3456709 0.1516667 0.2690302
v -0.3456709 0.21 0.2690302
v -0.3147048 0.1516667 0.2585185
v -0.3147048 0.21 0.2585185
v -0.2826316 0.1516667 0.2521388
v -0.2826316 0.21 0.2521388
v -0.25 0.21 -0.2500001
v -0.25 0.1516667 -0.2500001
v 0.5000001 0.21 -0.2499999
v 0.5000001 0.1516667 -0.2499999
v -0.2500001 0.21 0.375
v -0.2663158 0.21 0.3760695
v -0.2823525 0.21 0.3792593
v -0.2978355 0.21 0.384515
v -0.3125001 0.21 0.3917468
v -0.3260953 0.21 0.4008309
v -0.3383884 0.21 0.4116117
v -0.3491693 0.21 0.4239048
v -0.3582533 0.21 0.4375
v -0.365485 0.21 0.4521646
v -0.3707408 0.21 0.4676476
v -0.3739307 0.21 0.4836842
v -0.3750001 0.21 0.5
v -0.2500001 0.1833333 0.375
v -0.2663158 0.1833333 0.3760695
v -0.3739307 0.1833333 0.4836842
v -0.3750001 0.1833333 0.5
v -0.3707408 0.1833333 0.4676476
v -0.365485 0.1833333 0.4521646
v -0.3582533 0.1833333 0.4375
v -0.3491693 0.1833333 0.4239048
v -0.3383884 0.1833333 0.4116117
v -0.3260953 0.1833333 0.4008309
v -0.3125001 0.1833333 0.3917468
v -0.2978355 0.1833333 0.384515
v -0.2823525 0.1833333 0.3792593
v 0.5000001 0.21 -0.375
v -0.25 0.21 -0.3750001
v -0.2663157 0.21 -0.3760695
v -0.2823524 0.21 -0.3792593
v -0.2978354 0.21 -0.3845151
v -0.3125 0.21 -0.3917469
v -0.3260952 0.21 -0.4008309
v -0.3383883 0.21 -0.4116117
v -0.3491691 0.21 -0.4239049
v -0.3582532 0.21 -0.4375001
v -0.3654849 0.21 -0.4521646
v -0.3707407 0.21 -0.4676477
v -0.3739306 0.21 -0.4836843
v 0.5000001 0.1833333 -0.375
v -0.25 0.1833333 -0.3750001
v -0.2663157 0.1833333 -0.3760695
v -0.2823524 0.1833333 -0.3792593
v -0.2978354 0.1833333 -0.3845151
v -0.3125 0.1833333 -0.3917469
v -0.3260952 0.1833333 -0.4008309
v -0.3383883 0.1833333 -0.4116117
v -0.3491691 0.1833333 -0.4239049
v -0.3582532 0.1833333 -0.4375001
v -0.3654849 0.1833333 -0.4521646
v -0.3707407 0.1833333 -0.4676477
v -0.3739306 0.1833333 -0.4836843
v -0.3750001 1.353584E-16 0.5
v -0.5000001 1.353584E-16 0.4999999
v 0.5000001 0 -0.2499999
v 0.5000001 9.023893E-17 -0.375
v 0.5 0.1833333 0.5000001
v 0.5 1.353584E-16 0.5000001
v 0.5000001 1.353584E-16 -0.4999999
v 0.5000001 0.1833333 -0.4999999

vn 1.192093E-07 0 -1
vn -0.03271897 0 -0.9994647
vn 1 0 1.192093E-07
vn -0.1305263 0 0.9914449
vn -0.2588192 0 0.9659259
vn -0.3826836 0 0.9238795
vn -0.5000002 0 0.8660255
vn -0.6087616 0 0.7933534
vn -0.7071069 0 0.7071068
vn -0.7933535 0 0.6087614
vn -0.8660256 0 0.4999999
vn -0.9238797 0 0.3826834
vn -0.9659259 0 0.258819
vn -0.991445 0 0.1305261
vn -0.9978591 0 0.06540304
vn -0.9978591 0 -0.06540328
vn -0.991445 0 -0.1305263
vn -0.9659259 0 -0.2588192
vn -0.9238796 0 -0.3826836
vn -0.8660255 0 -0.5000002
vn -0.7933534 0 -0.6087616
vn -0.7071068 0 -0.7071069
vn -0.6087614 0 -0.7933535
vn -0.4999999 0 -0.8660256
vn -0.3826834 0 -0.9238797
vn -0.258819 0 -0.9659259
vn -0.1305261 0 -0.991445
vn -0.03271921 0 0.9994647
vn -1.192093E-07 0 1
vn 0 1 0
vn 0.03271897 0 0.9994647
vn 0.1305261 0 0.991445
vn 0.991445 0 0.1305263
vn 0.9978591 0 0.06540328
vn 0.9659259 0 0.2588192
vn 0.9238796 0 0.3826836
vn 0.8660255 0 0.5000002
vn 0.7933534 0 0.6087616
vn 0.7071068 0 0.7071069
vn 0.6087614 0 0.7933535
vn 0.4999999 0 0.8660256
vn 0.3826834 0 0.9238797
vn 0.258819 0 0.9659259
vn 0.03271921 0 -0.9994647
vn 0.1305263 0 -0.9914449
vn 0.2588192 0 -0.9659259
vn 0.3826836 0 -0.9238795
vn 0.5000002 0 -0.8660255
vn 0.6087616 0 -0.7933534
vn 0.7071069 0 -0.7071068
vn 0.7933535 0 -0.6087614
vn 0.8660256 0 -0.4999999
vn 0.9238797 0 -0.3826834
vn 0.9659259 0 -0.258819
vn 0.991445 0 -0.1305261
vn 0.9978591 0 -0.06540304
vn 0 -1 0
vn -1 0 -1.192093E-07

vt 14.76378 5.329071E-15
vt 14.76378 7.217848
vt 19.68504 5.329071E-15
vt 14.76378 8.267716
vt 19.68504 8.267716
vt 19.68504 5.971128
vt -19.68504 5.971128
vt -19.68504 8.267716
vt 9.84252 5.971128
vt 9.84252 8.267716
vt -9.84252 -4.494701E-30
vt -14.76378 3.552714E-15
vt -9.84252 5.971128
vt -14.76378 7.217848
vt -9.84252 8.267716
vt -14.76378 8.267716
vt -12.85003 8.267716
vt -12.85003 5.971128
vt -14.13749 8.267716
vt -14.13749 5.971128
vt -15.00399 8.267716
vt -15.00399 5.971128
vt -16.29146 8.267716
vt -16.29146 5.971128
vt -16.89023 8.267716
vt -16.89023 5.971128
vt -18.17769 8.267716
vt -18.17769 5.971128
vt -18.47645 8.267716
vt -18.47645 5.971128
vt -19.76391 8.267716
vt -19.76391 5.971128
vt -19.73552 8.267716
vt -19.73552 5.971128
vt -21.02298 8.267716
vt -21.02298 5.971128
vt -20.64589 5.971128
vt -21.93335 5.971128
vt -20.64589 8.267716
vt -21.93335 8.267716
vt -21.19199 5.971128
vt -22.47945 5.971128
vt -21.19199 8.267716
vt -22.47945 8.267716
vt -21.36448 5.971128
vt -22.65194 5.971128
vt -21.36448 8.267716
vt -22.65194 8.267716
vt -21.1604 5.971128
vt -22.44786 5.971128
vt -21.1604 8.267716
vt -22.44786 8.267716
vt -20.58325 5.971128
vt -21.87071 5.971128
vt -20.58325 8.267716
vt -21.87071 8.267716
vt -19.64289 5.971128
vt -20.93036 5.971128
vt -19.64289 8.267716
vt -20.93036 8.267716
vt 20.93036 5.971128
vt 19.64289 5.971128
vt 20.93036 8.267716
vt 19.64289 8.267716
vt 21.87071 5.971128
vt 20.58325 5.971128
vt 21.87071 8.267716
vt 20.58325 8.267716
vt 22.44786 5.971128
vt 21.1604 5.971128
vt 22.44786 8.267716
vt 21.1604 8.267716
vt 22.65194 5.971128
vt 21.36448 5.971128
vt 22.65194 8.267716
vt 21.36448 8.267716
vt 22.47945 5.971128
vt 21.19199 5.971128
vt 22.47945 8.267716
vt 21.19199 8.267716
vt 21.93335 5.971128
vt 20.64589 5.971128
vt 21.93335 8.267716
vt 20.64589 8.267716
vt 19.73552 5.971128
vt 19.73552 8.267716
vt 21.02298 5.971128
vt 21.02298 8.267716
vt 18.47645 5.971128
vt 18.47645 8.267716
vt 19.76391 5.971128
vt 19.76391 8.267716
vt 16.89023 5.971128
vt 16.89023 8.267716
vt 18.17769 5.971128
vt 18.17769 8.267716
vt 15.00399 5.971128
vt 15.00399 8.267716
vt 16.29146 5.971128
vt 16.29146 8.267716
vt 12.85003 5.971128
vt 12.85003 8.267716
vt 14.13749 5.971128
vt 14.13749 8.267716
vt 10.46518 5.971128
vt 10.46518 8.267716
vt 11.75264 5.971128
vt 11.75264 8.267716
vt -10.46518 8.267716
vt -10.46518 5.971128
vt -11.75264 8.267716
vt -11.75264 5.971128
vt -14.76378 -19.68504
vt -14.76378 9.84252
vt -9.84252 -19.68504
vt -14.76378 18.36639
vt -13.69329 17.65112
vt -12.72533 16.80223
vt -11.87644 15.83427
vt -11.16117 14.76378
vt -10.59174 13.60909
vt -10.1779 12.38995
vt -9.926723 11.12723
vt -9.84252 9.84252
vt -14.80588 10.48487
vt -14.93147 11.11624
vt -15.13839 11.7258
vt -15.4231 12.30315
vt -15.78074 12.83839
vt -15.91847 18.93582
vt -16.20518 13.32238
vt -16.68917 13.74682
vt -17.13761 19.34966
vt -17.22441 14.10446
vt -17.80175 14.38917
vt -18.40033 19.60084
vt -18.41132 14.59609
vt -19.04269 14.72168
vt -19.68504 19.68504
vt -19.68504 14.76378
vt -10.78704 8.267716
vt -10.78704 7.217848
vt -11.43077 8.267716
vt -11.43077 7.217848
vt 19.68504 7.217848
vt -9.84252 7.217848
vt -19.96476 7.217848
vt -20.60849 7.217848
vt -19.96476 8.267716
vt -20.60849 8.267716
vt -20.90511 7.217848
vt -21.54884 7.217848
vt -20.90511 8.267716
vt -21.54884 8.267716
vt -21.48227 7.217848
vt -22.126 7.217848
vt -21.48227 8.267716
vt -22.126 8.267716
vt -21.68634 7.217848
vt -22.33008 7.217848
vt -21.68634 8.267716
vt -22.33008 8.267716
vt -21.51386 7.217848
vt -22.15759 7.217848
vt -21.51386 8.267716
vt -22.15759 8.267716
vt -20.96775 7.217848
vt -21.61149 7.217848
vt -20.96775 8.267716
vt -21.61149 8.267716
vt -20.05738 8.267716
vt -20.05738 7.217848
vt -20.70111 8.267716
vt -20.70111 7.217848
vt -18.79831 8.267716
vt -18.79831 7.217848
vt -19.44204 8.267716
vt -19.44204 7.217848
vt -17.21209 8.267716
vt -17.21209 7.217848
vt -17.85582 8.267716
vt -17.85582 7.217848
vt -15.32586 8.267716
vt -15.32586 7.217848
vt -15.96959 8.267716
vt -15.96959 7.217848
vt -13.17189 8.267716
vt -13.17189 7.217848
vt -13.81563 8.267716
vt -13.81563 7.217848
vt 9.84252 -19.68504
vt 9.84252 9.84252
vt 14.76378 -19.68504
vt 9.926723 11.12723
vt 10.1779 12.38995
vt 10.59174 13.60909
vt 11.16117 14.76378
vt 11.87644 15.83427
vt 12.72533 16.80223
vt 13.69329 17.65112
vt 14.76378 9.84252
vt 14.76378 18.36639
vt 14.80588 10.48487
vt 15.91847 18.93582
vt 14.93147 11.11624
vt 15.13839 11.7258
vt 15.4231 12.30315
vt 15.78074 12.83839
vt 16.20518 13.32238
vt 17.13761 19.34966
vt 16.68917 13.74682
vt 17.22441 14.10446
vt 18.40033 19.60084
vt 17.80175 14.38917
vt 18.41132 14.59609
vt 19.68504 19.68504
vt 19.04269 14.72168
vt 19.68504 14.76378
vt -19.68504 7.217848
vt 9.84252 7.217848
vt 10.78704 7.217848
vt 10.78704 8.267716
vt 11.43077 7.217848
vt 11.43077 8.267716
vt 13.17189 7.217848
vt 13.17189 8.267716
vt 13.81563 7.217848
vt 13.81563 8.267716
vt 15.32586 7.217848
vt 15.32586 8.267716
vt 15.96959 7.217848
vt 15.96959 8.267716
vt 17.21209 7.217848
vt 17.21209 8.267716
vt 17.85582 7.217848
vt 17.85582 8.267716
vt 18.79831 7.217848
vt 18.79831 8.267716
vt 19.44204 7.217848
vt 19.44204 8.267716
vt 20.05738 7.217848
vt 20.05738 8.267716
vt 20.70111 7.217848
vt 20.70111 8.267716
vt 21.61149 7.217848
vt 20.96775 7.217848
vt 21.61149 8.267716
vt 20.96775 8.267716
vt 22.15759 7.217848
vt 21.51386 7.217848
vt 22.15759 8.267716
vt 21.51386 8.267716
vt 22.33008 7.217848
vt 21.68634 7.217848
vt 22.33008 8.267716
vt 21.68634 8.267716
vt 22.126 7.217848
vt 21.48227 7.217848
vt 22.126 8.267716
vt 21.48227 8.267716
vt 21.54884 7.217848
vt 20.90511 7.217848
vt 21.54884 8.267716
vt 20.90511 8.267716
vt 20.60849 7.217848
vt 19.96476 7.217848
vt 20.60849 8.267716
vt 19.96476 8.267716
vt -14.76378 -2.013743E-13
vt -19.68504 -1.948432E-13
vt 9.84252 4.736689E-29
vt 14.76378 3.552714E-15
vt 19.68504 -2.013743E-13
vt -19.68504 -19.68504
vt 19.68504 -19.68504
vt -19.68504 5.329071E-15
vt 19.68504 2.551903E-13
vt -19.68504 2.551903E-13

usemtl pavement

f 3/3/1 2/2/1 1/1/1
f 2/2/1 3/3/1 4/4/1
f 4/4/1 3/3/1 5/5/1
f 5/5/1 3/3/1 6/6/1
f 9/9/2 8/8/1 7/7/1
f 8/8/1 9/9/2 10/10/2
f 7/13/3 12/12/3 11/11/3
f 12/12/3 7/13/3 13/14/3
f 13/14/3 7/13/3 8/15/3
f 13/14/3 8/15/3 14/16/3
f 17/19/5 16/18/4 15/17/4
f 16/18/4 17/19/5 18/20/5
f 19/23/6 18/22/5 17/21/5
f 18/22/5 19/23/6 20/24/6
f 21/27/7 20/26/6 19/25/6
f 20/26/6 21/27/7 22/28/7
f 23/31/8 22/30/7 21/29/7
f 22/30/7 23/31/8 24/32/8
f 25/35/9 24/34/8 23/33/8
f 24/34/8 25/35/9 26/36/9
f 25/39/9 27/38/10 26/37/9
f 27/38/10 25/39/9 28/40/10
f 28/43/10 29/42/11 27/41/10
f 29/42/11 28/43/10 30/44/11
f 30/47/11 31/46/12 29/45/11
f 31/46/12 30/47/11 32/48/12
f 32/51/12 33/50/13 31/49/12
f 33/50/13 32/51/12 34/52/13
f 34/55/13 35/54/14 33/53/13
f 35/54/14 34/55/13 36/56/14
f 36/59/14 6/58/15 35/57/14
f 6/58/15 36/59/14 5/60/15
f 39/63/16 38/62/17 37/61/16
f 38/62/17 39/63/16 40/64/17
f 40/67/17 41/66/18 38/65/17
f 41/66/18 40/67/17 42/68/18
f 42/71/18 43/70/19 41/69/18
f 43/70/19 42/71/18 44/72/19
f 44/75/19 45/74/20 43/73/19
f 45/74/20 44/75/19 46/76/20
f 46/79/20 47/78/21 45/77/20
f 47/78/21 46/79/20 48/80/21
f 48/83/21 49/82/22 47/81/21
f 49/82/22 48/83/21 50/84/22
f 49/87/22 52/86/23 51/85/23
f 52/86/23 49/87/22 50/88/22
f 51/91/23 54/90/24 53/89/24
f 54/90/24 51/91/23 52/92/23
f 53/95/24 56/94/25 55/93/25
f 56/94/25 53/95/24 54/96/24
f 55/99/25 58/98/26 57/97/26
f 58/98/26 55/99/25 56/100/25
f 57/103/26 60/102/27 59/101/27
f 60/102/27 57/103/26 58/104/26
f 59/107/27 10/106/2 9/105/2
f 10/106/2 59/107/27 60/108/27
f 15/111/4 62/110/28 61/109/28
f 62/110/28 15/111/4 16/112/4
f 61/15/28 64/6/29 63/5/29
f 64/6/29 61/15/28 62/13/28
f 8/115/30 65/114/30 14/113/30
f 65/114/30 8/115/30 46/116/30
f 46/116/30 8/115/30 48/117/30
f 48/117/30 8/115/30 50/118/30
f 50/118/30 8/115/30 52/119/30
f 52/119/30 8/115/30 54/120/30
f 54/120/30 8/115/30 56/121/30
f 56/121/30 8/115/30 58/122/30
f 58/122/30 8/115/30 60/123/30
f 60/123/30 8/115/30 10/124/30
f 46/116/30 66/125/30 65/114/30
f 46/116/30 67/126/30 66/125/30
f 46/116/30 68/127/30 67/126/30
f 46/116/30 69/128/30 68/127/30
f 46/116/30 70/129/30 69/128/30
f 44/130/30 70/129/30 46/116/30
f 44/130/30 71/131/30 70/129/30
f 44/130/30 72/132/30 71/131/30
f 42/133/30 72/132/30 44/130/30
f 42/133/30 73/134/30 72/132/30
f 42/133/30 74/135/30 73/134/30
f 40/136/30 74/135/30 42/133/30
f 40/136/30 75/137/30 74/135/30
f 40/136/30 76/138/30 75/137/30
f 39/139/30 76/138/30 40/136/30
f 76/138/30 39/139/30 77/140/30
f 66/143/32 78/142/31 65/141/31
f 78/142/31 66/143/32 79/144/32
f 65/15/31 13/145/29 14/5/29
f 13/145/29 65/15/31 78/146/31
f 76/149/33 81/148/34 80/147/33
f 81/148/34 76/149/33 77/150/34
f 75/153/35 80/152/33 82/151/35
f 80/152/33 75/153/35 76/154/33
f 74/157/36 82/156/35 83/155/36
f 82/156/35 74/157/36 75/158/35
f 73/161/37 83/160/36 84/159/37
f 83/160/36 73/161/37 74/162/36
f 72/165/38 84/164/37 85/163/38
f 84/164/37 72/165/38 73/166/37
f 71/169/39 85/168/38 86/167/39
f 85/168/38 71/169/39 72/170/38
f 71/173/39 87/172/40 70/171/40
f 87/172/40 71/173/39 86/174/39
f 70/177/40 88/176/41 69/175/41
f 88/176/41 70/177/40 87/178/40
f 69/181/41 89/180/42 68/179/42
f 89/180/42 69/181/41 88/182/41
f 68/185/42 90/184/43 67/183/43
f 90/184/43 68/185/42 89/186/42
f 67/189/43 79/188/32 66/187/32
f 79/188/32 67/189/43 90/190/43
f 91/193/30 61/192/30 63/191/30
f 61/192/30 91/193/30 15/194/30
f 15/194/30 91/193/30 17/195/30
f 17/195/30 91/193/30 19/196/30
f 19/196/30 91/193/30 21/197/30
f 21/197/30 91/193/30 23/198/30
f 23/198/30 91/193/30 25/199/30
f 25/199/30 91/193/30 28/200/30
f 28/200/30 91/193/30 92/201/30
f 28/200/30 92/201/30 30/202/30
f 30/202/30 92/201/30 93/203/30
f 30/202/30 93/203/30 32/204/30
f 32/204/30 93/203/30 94/205/30
f 32/204/30 94/205/30 95/206/30
f 32/204/30 95/206/30 96/207/30
f 32/204/30 96/207/30 97/208/30
f 32/204/30 97/208/30 98/209/30
f 32/204/30 98/209/30 34/210/30
f 34/210/30 98/209/30 99/211/30
f 34/210/30 99/211/30 100/212/30
f 34/210/30 100/212/30 36/213/30
f 36/213/30 100/212/30 101/214/30
f 36/213/30 101/214/30 102/215/30
f 36/213/30 102/215/30 5/216/30
f 5/216/30 102/215/30 103/217/30
f 5/216/30 103/217/30 4/218/30
f 105/220/44 91/8/1 104/219/1
f 91/8/1 105/220/44 92/10/44
f 106/223/45 92/222/44 105/221/44
f 92/222/44 106/223/45 93/224/45
f 107/227/46 93/226/45 106/225/45
f 93/226/45 107/227/46 94/228/46
f 108/231/47 94/230/46 107/229/46
f 94/230/46 108/231/47 95/232/47
f 109/235/48 95/234/47 108/233/47
f 95/234/47 109/235/48 96/236/48
f 110/239/49 96/238/48 109/237/48
f 96/238/48 110/239/49 97/240/49
f 111/243/50 97/242/49 110/241/49
f 97/242/49 111/243/50 98/244/50
f 99/247/51 111/246/50 112/245/51
f 111/246/50 99/247/51 98/248/50
f 100/251/52 112/250/51 113/249/52
f 112/250/51 100/251/52 99/252/51
f 101/255/53 113/254/52 114/253/53
f 113/254/52 101/255/53 100/256/52
f 102/259/54 114/258/53 115/257/54
f 114/258/53 102/259/54 101/260/53
f 103/263/55 115/262/54 116/261/55
f 115/262/54 103/263/55 102/264/54
f 4/267/56 116/266/55 2/265/56
f 116/266/55 4/267/56 103/268/55
f 39/8/29 81/14/29 77/16/29
f 81/14/29 39/8/29 117/269/29
f 117/269/29 39/8/29 118/270/29
f 118/270/29 39/8/29 37/7/29
f 120/272/3 64/9/3 119/271/3
f 64/9/3 120/272/3 104/2/3
f 64/9/3 104/2/3 63/10/3
f 63/10/3 104/2/3 91/4/3

usemtl grass

f 81/14/29 122/273/29 121/145/29
f 122/273/29 81/14/29 117/269/29
f 123/3/3 104/2/3 120/272/3
f 104/2/3 123/3/3 124/145/3
f 123/274/57 120/113/57 1/140/57
f 120/113/57 3/139/57 1/140/57
f 119/115/57 3/139/57 120/113/57
f 11/191/57 3/139/57 119/115/57
f 12/193/57 3/139/57 11/191/57
f 122/275/57 3/139/57 12/193/57
f 122/275/57 118/216/57 3/139/57
f 118/216/57 122/275/57 117/218/57
f 13/113/30 81/140/30 121/274/30
f 81/140/30 13/113/30 80/138/30
f 80/138/30 13/113/30 82/137/30
f 82/137/30 13/113/30 83/135/30
f 83/135/30 13/113/30 84/134/30
f 84/134/30 13/113/30 85/132/30
f 85/132/30 13/113/30 86/131/30
f 86/131/30 13/113/30 87/129/30
f 87/129/30 13/113/30 88/128/30
f 88/128/30 13/113/30 89/127/30
f 89/127/30 13/113/30 90/126/30
f 90/126/30 13/113/30 79/125/30
f 79/125/30 13/113/30 78/114/30
f 124/275/30 105/201/30 104/193/30
f 105/201/30 124/275/30 106/203/30
f 106/203/30 124/275/30 107/205/30
f 107/205/30 124/275/30 108/206/30
f 108/206/30 124/275/30 109/207/30
f 109/207/30 124/275/30 110/208/30
f 110/208/30 124/275/30 111/209/30
f 111/209/30 124/275/30 112/211/30
f 112/211/30 124/275/30 113/212/30
f 113/212/30 124/275/30 114/214/30
f 114/214/30 124/275/30 115/215/30
f 115/215/30 124/275/30 116/217/30
f 116/217/30 124/275/30 2/218/30
f 1/1/1 124/219/1 123/276/1
f 124/219/1 1/1/1 2/2/1
f 13/14/3 122/276/3 12/12/3
f 122/276/3 13/14/3 121/219/3

usemtl water

f 64/191/30 9/124/30 7/115/30
f 62/192/30 9/124/30 64/191/30
f 16/194/30 9/124/30 62/192/30
f 18/195/30 9/124/30 16/194/30
f 20/196/30 9/124/30 18/195/30
f 22/197/30 9/124/30 20/196/30
f 24/198/30 9/124/30 22/197/30
f 26/199/30 9/124/30 24/198/30
f 27/200/30 9/124/30 26/199/30
f 29/202/30 9/124/30 27/200/30
f 31/204/30 9/124/30 29/202/30
f 31/204/30 59/123/30 9/124/30
f 33/210/30 59/123/30 31/204/30
f 33/210/30 57/122/30 59/123/30
f 33/210/30 55/121/30 57/122/30
f 33/210/30 53/120/30 55/121/30
f 35/213/30 53/120/30 33/210/30
f 35/213/30 51/119/30 53/120/30
f 35/213/30 49/118/30 51/119/30
f 35/213/30 47/117/30 49/118/30
f 6/216/30 47/117/30 35/213/30
f 6/216/30 45/116/30 47/117/30
f 6/216/30 43/130/30 45/116/30
f 6/216/30 41/133/30 43/130/30
f 6/216/30 38/136/30 41/133/30
f 38/136/30 6/216/30 37/139/30
f 64/9/3 11/11/3 119/271/3
f 11/11/3 64/9/3 7/13/3
f 37/6/58 3/278/58 118/277/58
f 3/278/58 37/6/58 6/7/58

