# Created by Kenney (www.kenney.nl)

mtllib tile256.mtl

g tile256

v 0.3125 0.2 -0.3125
v -0.4375 0.2 -0.3125
v 0.3125 0.21 -0.3125
v -0.4375 0.21 -0.3125
v 0.3125 0.2 0.4375
v 0.3125 0.21 0.4375
v 0.4375 1.564141E-15 -0.4375
v -0.4375 2.045416E-15 -0.4375
v 0.4375 0 0.4375
v -0.4375 7.219115E-16 0.4375
v -0.4375 0.21 -0.4375
v -0.4375 0.1 -0.3125
v -0.4375 0.1 0.4375
v 0.4375 0.21 0.4375
v 0.4375 0.21 -0.4375
v 0.3125 0.1 0.4375
v -0.4375 0.2 0.4375

vn 0 0 0.3333333
vn -0.3333333 0 0
vn 0 -0.3333333 0
vn 0 0.3333333 0
vn 0 0 -0.3333333
vn 0.3333333 0 0

vt 36.90945 23.62205
vt -51.67323 23.62205
vt 36.90945 24.80315
vt -51.67323 24.80315
vt -36.90945 23.62205
vt -36.90945 24.80315
vt 51.67323 23.62205
vt 51.67323 24.80315
vt 51.67323 -51.67323
vt -51.67323 -51.67323
vt 51.67323 51.67323
vt -51.67323 51.67323
vt -36.90945 11.81102
vt -51.67323 2.305558E-12
vt 51.67323 2.149239E-12
vt 51.67323 11.81102
vt -36.90945 -36.90945
vt 51.67323 -36.90945
vt -36.90945 51.67323
vt -51.67323 1.847411E-13
vt 51.67323 2.415845E-13
vt 51.67323 1.847411E-13
vt -51.67323 1.006357E-28
vt -51.67323 2.155483E-12
vt 36.90945 11.81102
vt 51.67323 2.070218E-12
vt -51.67323 11.81102

usemtl pavement

f 3/3/1 2/2/1 1/1/1
f 2/2/1 3/3/1 4/4/1
f 5/7/2 3/6/2 1/5/2
f 3/6/2 5/7/2 6/8/2
f 9/11/3 8/10/3 7/9/3
f 8/10/3 9/11/3 10/12/3
f 8/14/2 12/13/2 11/4/2
f 12/13/2 8/14/2 10/15/2
f 12/13/2 10/15/2 13/16/2
f 12/13/2 4/6/2 11/4/2
f 4/6/2 12/13/2 2/5/2
f 15/10/4 3/17/4 14/12/4
f 3/17/4 15/10/4 11/9/4
f 3/17/4 11/9/4 4/18/4
f 6/19/4 14/12/4 3/17/4
f 8/21/5 15/4/5 7/20/5
f 15/4/5 8/21/5 11/8/5
f 14/4/6 7/22/6 15/8/6
f 7/22/6 14/4/6 9/23/6
f 9/26/1 16/25/1 10/24/1
f 16/25/1 9/26/1 14/8/1
f 16/25/1 14/8/1 5/1/1
f 5/1/1 14/8/1 6/3/1
f 13/27/1 10/24/1 16/25/1

usemtl asphalt

f 2/18/4 5/19/4 1/17/4
f 5/19/4 2/18/4 17/11/4
f 13/16/2 2/5/2 12/13/2
f 2/5/2 13/16/2 17/7/2
f 5/1/1 13/27/1 16/25/1
f 13/27/1 5/1/1 17/2/1

