# Created by Kenney (www.kenney.nl)

mtllib tile280.mtl

g tile280

v 0.5 0 0.5
v 0.5 0 -0.5
v 0.3694738 0 0.4914449
v -0.5 0 -0.5
v 0.241181 0 0.4659258
v 0.1173166 0 0.4238796
v 5.45425E-09 0 0.3660254
v -0.1087614 0 0.2933533
v -0.2071068 0 0.2071068
v -0.2933533 0 0.1087614
v -0.3660254 0 1.290493E-08
v -0.4238795 0 -0.1173166
v -0.4659258 0 -0.2411809
v -0.4914449 0 -0.3694738
v -0.1087614 0.1833333 0.2933533
v -0.2071068 0.1833333 0.2071068
v -0.4659258 0.1833333 -0.2411809
v -0.4238795 0.1833333 -0.1173166
v 0.1173166 0.1833333 0.4238796
v 5.45425E-09 0.1833333 0.3660254
v -0.4914449 0.1833333 -0.3694738
v -0.5 0.1833333 -0.5
v 0.5 0.5500001 -0.5
v 0.241181 0.1833333 0.4659258
v 0.3694738 0.1833333 0.4914449
v -0.2933533 0.1833333 0.1087614
v -0.3660254 0.1833333 1.290493E-08
v 0.5 0.1833333 0.5

vn 0 -0.3333333 0
vn -0.2029205 0 0.2644511
vn -0.2357023 0 0.2357023
vn -0.3219753 0 0.08627303
vn -0.3079599 0 0.1275612
vn -0.1275611 0 0.3079599
vn -0.1666667 0 0.2886752
vn -0.3304816 0 0.04350873
vn 0 0 -0.3333333
vn -0.08627301 0 0.3219753
vn -0.07407776 0.3164428 0.07407776
vn -0.01497808 0.3129588 0.1137698
vn -0.02969988 0.3129588 0.1108415
vn -0.09103852 0.3129588 0.06985632
vn -0.09937775 0.3129588 0.05737577
vn 0.3333333 0 0
vn -0.2644511 0 0.2029205
vn -0.1060166 0.3129588 0.04391351
vn -0.1108415 0.3129588 0.02969989
vn -0.2886752 0 0.1666667
vn -0.1137698 0.3129588 0.01497808
vn -0.02180104 0 0.3326197
vn -0.04350872 0 0.3304816
vn -0.3326197 0 0.02180105
vn -0.0811416 0.3129588 0.0811416
vn -0.05737577 0.3129588 0.09937775
vn -0.06985632 0.3129588 0.09103852
vn -0.007519298 0.3128791 0.1147223
vn -0.1147223 0.3128791 0.007519301
vn -0.04391351 0.3129588 0.1060166

vt 59.05512 59.05512
vt 59.05512 -59.05512
vt 43.63864 58.04467
vt -59.05512 -59.05511
vt 28.48594 55.03061
vt 13.85629 50.06451
vt 6.442028E-07 43.23135
vt -12.84584 34.64803
vt -24.46143 24.46143
vt -34.64803 12.84584
vt -43.23135 1.524205E-06
vt -50.06451 -13.85629
vt -55.03061 -28.48594
vt -58.04467 -43.63864
vt 13.18702 0
vt -2.262535 0
vt 13.18702 21.65354
vt -2.262535 21.65354
vt -44.6632 0
vt -44.6632 21.65354
vt -29.21365 0
vt -29.21365 21.65354
vt 34.57029 0
vt 19.12074 0
vt 34.57029 21.65354
vt 19.12074 21.65354
vt -54.12409 0
vt -54.12409 21.65354
vt -38.67453 0
vt -38.67453 21.65354
vt 59.05512 1.488264E-12
vt -59.05512 1.488264E-12
vt 59.05512 21.65354
vt -59.05512 64.96063
vt 44.6632 0
vt 29.21365 0
vt 44.6632 21.65354
vt 29.21365 21.65354
vt 46.39931 87.58564
vt 54.12409 -37.97653
vt 38.67453 -37.97653
vt -16.29327 99.29076
vt -8.568491 -26.27141
vt -24.01805 -26.27141
vt 59.05512 64.96063
vt 59.05512 -1.86033E-13
vt -59.05512 21.65354
vt -59.05512 -1.86033E-13
vt -13.18702 0
vt -13.18702 21.65354
vt 2.262536 0
vt 2.262536 21.65354
vt -36.93842 92.71271
vt -29.21365 -32.84946
vt -44.6632 -32.84946
vt -34.57029 0
vt -34.57029 21.65354
vt -19.12074 0
vt -19.12074 21.65354
vt -46.39931 87.58564
vt -38.67453 -37.97653
vt -54.12409 -37.97653
vt -26.84551 96.6368
vt -19.12074 -28.92538
vt -34.57029 -28.92538
vt 62.79107 0
vt 47.34151 0
vt 62.79107 21.65354
vt 47.34151 21.65354
vt -62.79107 0
vt -62.79107 21.65354
vt -47.34151 0
vt -47.34151 21.65354
vt -24.01805 0
vt -24.01805 21.65354
vt -8.568491 0
vt -8.568491 21.65354
vt -5.462243 100.6292
vt 2.262536 -24.93298
vt -13.18702 -24.93298
vt 16.29327 99.29076
vt 24.01805 -26.27141
vt 8.568492 -26.27141
vt 55.06629 81.34332
vt 62.79107 -44.21885
vt 47.34151 -44.21885
vt -55.06629 81.34332
vt -47.34151 -44.21885
vt -62.79107 -44.21885
vt 54.12409 0
vt 38.67453 0
vt 54.12409 21.65354
vt 38.67453 21.65354
vt 24.01805 0
vt 8.568492 0
vt 24.01805 21.65354
vt 8.568492 21.65354
vt 26.84551 96.6368
vt 34.57029 -28.92538
vt 19.12074 -28.92538
vt 5.462244 100.6292
vt 13.18702 -24.93298
vt -2.262535 -24.93298
vt 36.93843 92.71271
vt 44.6632 -32.84946
vt 29.21365 -32.84946

usemtl pavement

f 3/3/1 2/2/1 1/1/1
f 2/2/1 3/3/1 4/4/1
f 4/4/1 3/3/1 5/5/1
f 4/4/1 5/5/1 6/6/1
f 4/4/1 6/6/1 7/7/1
f 4/4/1 7/7/1 8/8/1
f 4/4/1 8/8/1 9/9/1
f 4/4/1 9/9/1 10/10/1
f 4/4/1 10/10/1 11/11/1
f 4/4/1 11/11/1 12/12/1
f 4/4/1 12/12/1 13/13/1
f 4/4/1 13/13/1 14/14/1
f 15/17/2 9/16/3 8/15/2
f 9/16/3 15/17/2 16/18/3
f 12/21/5 17/20/4 13/19/4
f 17/20/4 12/21/5 18/22/5
f 19/25/6 7/24/7 6/23/6
f 7/24/7 19/25/6 20/26/7
f 13/29/4 21/28/8 14/27/8
f 21/28/8 13/29/4 17/30/4
f 22/33/9 2/32/9 4/31/9
f 2/32/9 22/33/9 23/34/9
f 24/37/10 6/36/6 5/35/10
f 6/36/6 24/37/10 19/38/6
f 24/41/13 25/40/12 23/39/11
f 27/44/15 26/43/14 23/42/11
f 28/47/16 2/46/16 23/45/16
f 2/46/16 28/47/16 1/48/16
f 9/51/3 26/50/17 10/49/17
f 26/50/17 9/51/3 16/52/3
f 17/55/19 18/54/18 23/53/11
f 11/58/20 18/57/5 12/56/5
f 18/57/5 11/58/20 27/59/20
f 21/62/21 17/61/19 23/60/11
f 18/65/18 27/64/15 23/63/11
f 28/68/22 3/67/23 1/66/22
f 3/67/23 28/68/22 25/69/23
f 14/72/8 22/71/24 4/70/24
f 22/71/24 14/72/8 21/73/8
f 10/76/17 27/75/20 11/74/20
f 27/75/20 10/76/17 26/77/17
f 26/80/14 16/79/25 23/78/11
f 15/83/27 20/82/26 23/81/11
f 25/86/12 28/85/28 23/84/11
f 22/89/29 21/88/21 23/87/11
f 25/92/23 5/91/10 3/90/23
f 5/91/10 25/92/23 24/93/10
f 20/96/7 8/95/2 7/94/7
f 8/95/2 20/96/7 15/97/2
f 20/100/26 19/99/30 23/98/11
f 16/103/25 15/102/27 23/101/11
f 19/106/30 24/105/13 23/104/11

