# Created by Kenney (www.kenney.nl)

mtllib tile233.mtl

g tile233

v 0.5 3.38396E-16 0.5000001
v 0.5000001 0.1 -0.2499999
v 0.5000001 2.707168E-16 -0.4999999
v 0.5000001 0.1833333 -0.4999999
v 0.5000001 0.1516667 -0.2499999
v 0.5000001 0.1833333 -0.2499999
v 0.5 0.1 0.2500001
v 0.5 0.1833333 0.5000001
v 0.5 0.1516667 0.2500001
v 0.5 0.1833333 0.2500001
v -0.5000001 3.38396E-16 0.4999999
v -0.5000001 0.1 0.2499999
v -0.5000001 0.1833333 0.4999999
v -0.5000001 0.1516667 0.2499999
v -0.5000001 0.1833333 0.2499999
v -0.5 0.1 -0.2500001
v -0.5 0 -0.5000001
v -0.5 0.1833333 -0.5000001
v -0.5 0.1516667 -0.2500001
v -0.5 0.1833333 -0.2500001
v 0.2500001 0.06833334 -0.25
v -0.25 0.06833334 -0.2500001
v 0.25 0.06833334 0.2500001
v -0.2500001 0.06833334 0.25

vn 1 0 1.192093E-07
vn -1 0 -1.192093E-07
vn -1.192093E-07 0 1
vn 1.192093E-07 0 -1
vn 0 -1 0
vn 0 1 0
vn -0.1601823 0.9870875 -1.490116E-08
vn 0.1601823 0.9870875 1.490116E-08
vn -0.3162278 0.9486833 -2.980232E-08
vn 0.3162278 0.9486833 2.980232E-08

vt -19.68504 -3.583577E-13
vt 9.84252 3.937008
vt 19.68504 -3.610222E-13
vt 19.68504 7.217848
vt 9.84252 5.971128
vt 9.84252 7.217848
vt -9.84252 3.937008
vt -19.68504 7.217848
vt -9.84252 5.971128
vt -9.84252 7.217848
vt 19.68504 4.478078E-13
vt -19.68504 4.344851E-13
vt 19.68504 1.332268E-14
vt -19.68504 1.332268E-14
vt -19.68504 1.065814E-14
vt 19.68504 2.20223E-29
vt 19.68504 19.68504
vt 19.68504 -19.68504
vt -19.68504 19.68504
vt -19.68504 -19.68504
vt 9.84252 19.68504
vt 9.84252 -19.68504
vt -9.84252 19.68504
vt -9.84252 -19.68504
vt 19.68504 5.971128
vt 9.84252 2.690289
vt -9.84252 2.690289
vt -19.68504 5.971128
vt -9.84252 -9.84252
vt -9.84252 9.84252
vt 9.84252 -9.84252
vt 9.84252 9.84252
vt 9.84252 10.18818
vt -9.84252 10.18818
vt 9.84252 20.5631
vt -9.84252 20.5631

usemtl grass

f 3/3/1 2/2/1 1/1/1
f 2/2/1 3/3/1 4/4/1
f 2/2/1 4/4/1 5/5/1
f 5/5/1 4/4/1 6/6/1
f 7/7/1 1/1/1 2/2/1
f 1/1/1 7/7/1 8/8/1
f 8/8/1 7/7/1 9/9/1
f 8/8/1 9/9/1 10/10/1
f 13/4/2 12/2/2 11/11/2
f 12/2/2 13/4/2 14/5/2
f 14/5/2 13/4/2 15/6/2
f 16/7/2 11/11/2 12/2/2
f 16/7/2 17/12/2 11/11/2
f 17/12/2 16/7/2 18/8/2
f 18/8/2 16/7/2 19/9/2
f 18/8/2 19/9/2 20/10/2
f 13/8/3 1/13/3 8/4/3
f 1/13/3 13/8/3 11/14/3
f 17/16/4 4/8/4 3/15/4
f 4/8/4 17/16/4 18/4/4
f 17/19/5 1/18/5 11/17/5
f 1/18/5 17/19/5 3/20/5
f 6/22/6 18/17/6 20/21/6
f 18/17/6 6/22/6 4/18/6
f 8/20/6 15/23/6 13/19/6
f 15/23/6 8/20/6 10/24/6

usemtl dirt

f 14/5/2 16/7/2 12/2/2
f 16/7/2 14/5/2 19/9/2
f 5/5/1 7/7/1 2/2/1
f 7/7/1 5/5/1 9/9/1
f 20/8/3 5/25/3 6/4/3
f 5/25/3 20/8/3 21/26/3
f 21/26/3 20/8/3 22/27/3
f 22/27/3 20/8/3 19/28/3
f 23/27/4 10/8/4 9/28/4
f 10/8/4 23/27/4 15/4/4
f 15/4/4 23/27/4 24/26/4
f 15/4/4 24/26/4 14/25/4
f 21/31/7 24/30/8 23/29/7
f 24/30/8 21/31/7 22/32/8
f 9/35/9 21/34/7 23/33/7
f 21/34/7 9/35/9 5/36/9
f 24/34/8 19/35/10 14/36/10
f 19/35/10 24/34/8 22/33/8

