# Created by Kenney (www.kenney.nl)

mtllib tile020.mtl

g tile020

v 0.5000001 0 -0.4999999
v 0.5000001 0.21 -0.4999999
v -0.5 1.466383E-15 -0.5000001
v -0.5 0.21 -0.5000001
v 0.5 9.429968E-15 0.5000001
v 0.5 0.21 0.5000001
v -0.5000001 6.632561E-15 0.4999999
v -0.06797794 0.21 0.5
v -0.1116317 0.21 0.4346676
v -0.2625632 0.21 0.2625632
v -0.4346676 0.21 0.1116316
v -0.5000001 0.21 0.06797785
v -0.5000001 0.1 0.06797785
v -0.5000001 0.1 0.4999999
v -0.5000001 0.2 0.06797785
v -0.06797794 0.2 0.5
v -0.06797794 0.1 0.5
v -0.4346676 0.2 0.1116316
v -0.1116317 0.2 0.4346676
v -0.2625632 0.2 0.2625632
v -0.5000001 0.2 0.4999999

vn 1.192093E-07 0 -1
vn 1 0 1.192093E-07
vn 0 -1 0
vn 0 1 0
vn -1 0 -1.192093E-07
vn -1.192093E-07 0 1
vn -0.6087616 0 0.7933534
vn -0.5555704 0 0.8314696
vn -0.8314698 0 0.5555702
vn -0.7933535 0 0.6087614
vn -0.7071069 0 0.7071068

vt -19.68504 9.022765E-14
vt -19.68504 8.267716
vt 19.68504 1.479592E-13
vt 19.68504 8.267716
vt 19.68504 3.358142E-29
vt -19.68504 3.712586E-13
vt 19.68504 19.68504
vt 19.68504 -19.68504
vt -19.68504 19.68504
vt -19.68504 -19.68504
vt -19.68504 2.676294
vt -17.11289 4.394947
vt -10.33713 10.33713
vt -4.394947 17.11289
vt -2.676294 19.68504
vt -19.68504 -8.209664E-14
vt 19.68504 1.212962E-13
vt 2.676294 3.937008
vt 19.68504 3.937008
vt 2.676294 7.874016
vt 2.676294 8.267716
vt 19.68504 4.77844E-13
vt -2.676294 8.267716
vt -2.676294 7.874016
vt -2.676294 3.937008
vt -19.68504 3.677099E-13
vt -19.68504 3.937008
vt -11.78715 8.267716
vt -11.78715 7.874016
vt -14.88064 8.267716
vt -14.88064 7.874016
vt 14.88064 7.874016
vt 11.78715 7.874016
vt 14.88064 8.267716
vt 11.78715 8.267716
vt 9.968365 7.874016
vt 0.9561225 7.874016
vt 9.968365 8.267716
vt 0.9561225 8.267716
vt -0.9561225 8.267716
vt -0.9561225 7.874016
vt -9.968365 8.267716
vt -9.968365 7.874016
vt 19.68504 7.874016
vt -19.68504 7.874016

usemtl pavement

f 3/3/1 2/2/1 1/1/1
f 2/2/1 3/3/1 4/4/1
f 2/4/2 5/6/2 1/5/2
f 5/6/2 2/4/2 6/2/2
f 3/9/3 5/8/3 7/7/3
f 5/8/3 3/9/3 1/10/3
f 6/10/4 9/12/4 8/11/4
f 9/12/4 6/10/4 2/8/4
f 9/12/4 2/8/4 10/13/4
f 10/13/4 2/8/4 11/14/4
f 11/14/4 2/8/4 12/15/4
f 12/15/4 2/8/4 4/7/4
f 7/17/5 4/2/5 3/16/5
f 4/2/5 7/17/5 13/18/5
f 13/18/5 7/17/5 14/19/5
f 4/2/5 13/18/5 15/20/5
f 4/2/5 15/20/5 12/21/5
f 8/23/6 5/22/6 6/4/6
f 5/22/6 8/23/6 16/24/6
f 5/22/6 16/24/6 17/25/6
f 5/22/6 17/25/6 7/26/6
f 7/26/6 17/25/6 14/27/6
f 12/30/8 18/29/7 11/28/7
f 18/29/7 12/30/8 15/31/8
f 8/34/9 19/33/10 16/32/9
f 19/33/10 8/34/9 9/35/10
f 9/38/10 20/37/11 19/36/10
f 20/37/11 9/38/10 10/39/11
f 11/42/7 20/41/11 10/40/11
f 20/41/11 11/42/7 18/43/7

usemtl asphalt

f 21/44/5 13/18/5 14/19/5
f 13/18/5 21/44/5 15/20/5
f 19/12/4 21/9/4 16/11/4
f 21/9/4 19/12/4 15/15/4
f 15/15/4 19/12/4 20/13/4
f 15/15/4 20/13/4 18/14/4
f 21/45/6 17/25/6 16/24/6
f 17/25/6 21/45/6 14/27/6

