# Created by Kenney (www.kenney.nl)

mtllib tile139.mtl

g tile139

v 0.5 0.2 0.25
v -0.5 0.2 0.25
v 0.5 0.2 -0.25
v -0.5 0.2 -0.25
v -0.5 0.1 -0.25
v -0.5 0.1 0.25
v 0.5 0.1 -0.25
v 0.5 0.1 0.25
v -0.28 0.42 0.25
v 0.5 0.42 0.25
v 0.5 0.42 -0.375
v 0.5 0.42 -0.25
v -0.28 0.42 -0.375
v -0.28 0.42 -0.25
v 0.5 0 -0.375
v -0.5 6.497203E-15 -0.375
v 0.5 6.858159E-15 0.375
v -0.5 7.760548E-15 0.375
v 0.5 0.42 0.375
v -0.28 0.42 0.375
v -0.5 0.2 0.375
v -0.5 0.2 -0.375

vn 0 0.3333333 0
vn -0.3333333 0 0
vn 0.3333333 0 0
vn 0 0 -0.3333333
vn 0 0 0.3333333
vn 0 -0.3333333 0
vn -0.2357023 0.2357023 0

vt -59.05512 29.52756
vt 59.05512 29.52756
vt -59.05512 -29.52756
vt 59.05512 -29.52756
vt -29.52756 11.81102
vt -29.52756 23.62205
vt 29.52756 11.81102
vt 29.52756 23.62205
vt 59.05512 23.62205
vt -59.05512 23.62205
vt 33.07087 49.6063
vt -59.05512 49.6063
vt -59.05512 -44.29134
vt 33.07087 -44.29134
vt 33.07087 -29.52756
vt 59.05512 49.6063
vt -33.07087 49.6063
vt 59.05512 -44.29134
vt 59.05512 44.29134
vt -59.05512 44.29134
vt 33.07087 29.52756
vt 33.07087 44.29134
vt 59.05512 -5.975552E-13
vt -59.05512 -4.909738E-13
vt -44.29134 1.95593E-12
vt 44.29134 2.105144E-12
vt 44.29134 23.62205
vt -44.29134 23.62205
vt 29.52756 11.69232
vt 44.29134 11.69232
vt 29.52756 -25.05496
vt 44.29134 -25.05496
vt -29.52756 11.69232
vt -29.52756 -25.05496
vt -44.29134 11.69232
vt -44.29134 -25.05496
vt -29.52756 49.6063
vt -44.29134 49.6063
vt -44.29134 5.864325E-13
vt 44.29134 -2.235862E-13
vt 29.52756 49.6063
vt 44.29134 49.6063
vt -59.05512 6.104207E-13
vt 59.05512 1.377807E-12

usemtl asphalt

f 3/3/1 2/2/1 1/1/1
f 2/2/1 3/3/1 4/4/1
f 6/7/2 4/6/2 5/5/2
f 4/6/2 6/7/2 2/8/2
f 1/6/3 7/7/3 3/8/3
f 7/7/3 1/6/3 8/5/3

usemtl pavement

f 9/11/4 1/10/4 2/9/4
f 1/10/4 9/11/4 10/12/4
f 13/14/1 12/3/1 11/13/1
f 12/3/1 13/14/1 14/15/1
f 12/16/5 4/10/5 3/9/5
f 4/10/5 12/16/5 14/17/5
f 17/19/6 16/13/6 15/18/6
f 16/13/6 17/19/6 18/20/6
f 9/21/1 19/20/1 10/1/1
f 19/20/1 9/21/1 20/22/1
f 19/16/5 18/24/5 17/23/5
f 18/24/5 19/16/5 21/10/5
f 21/10/5 19/16/5 20/17/5
f 18/26/2 5/5/2 16/25/2
f 5/5/2 18/26/2 6/7/2
f 6/7/2 18/26/2 2/8/2
f 2/8/2 18/26/2 21/27/2
f 4/6/2 16/25/2 5/5/2
f 16/25/2 4/6/2 22/28/2
f 2/31/7 20/30/7 9/29/7
f 20/30/7 2/31/7 21/32/7
f 13/35/7 4/34/7 14/33/7
f 4/34/7 13/35/7 22/36/7
f 19/38/3 1/6/3 10/37/3
f 1/6/3 19/38/3 8/5/3
f 17/39/3 8/5/3 19/38/3
f 17/39/3 7/7/3 8/5/3
f 15/40/3 7/7/3 17/39/3
f 15/40/3 12/41/3 7/7/3
f 12/41/3 15/40/3 11/42/3
f 7/7/3 12/41/3 3/8/3
f 16/44/4 11/12/4 15/43/4
f 11/12/4 16/44/4 22/9/4
f 11/12/4 22/9/4 13/11/4

