# Created by Kenney (www.kenney.nl)

mtllib tile155.mtl

g tile155

v -0.125 4.060752E-16 -0.5000001
v -0.125 0.1516667 -0.5000001
v -0.5 5.414336E-16 -0.5000001
v -0.5 0.1516667 -0.5000001
v -0.5000001 5.414336E-16 0.4999999
v -0.5000001 0.1516667 0.4999999
v 0.5 0.1516667 0.5000001
v 0.5 0 0.5000001
v 0.1195241 0.1516667 -0.004154146
v 0.1875 0.1516667 0.0412659
v 0.2608229 0.1516667 0.07742473
v 0.3382381 0.1516667 0.1037037
v 0.4184211 0.1516667 0.1196531
v 0.5000001 0.1516667 0.1250001
v 0.05805827 0.1516667 -0.05805826
v 0.004154177 0.1516667 -0.1195241
v -0.04126585 0.1516667 -0.1875
v -0.07742468 0.1516667 -0.2608229
v -0.1037036 0.1516667 -0.3382381
v -0.119653 0.1516667 -0.4184212
v 0.5000001 4.511946E-17 0.1250001
v 0.5000001 1.353584E-16 -0.2499999
v 0.5000001 0.1516667 -0.2499999
v 0.4673685 0.1516667 -0.2521387
v 0.4352953 0.1516667 -0.2585185
v 0.4043292 0.1516667 -0.2690301
v 0.3750001 0.1516667 -0.2834936
v 0.3478097 0.1516667 -0.3016617
v 0.3232234 0.1516667 -0.3232233
v 0.3016617 0.1516667 -0.3478096
v 0.2834937 0.1516667 -0.375
v 0.2690302 0.1516667 -0.4043292
v 0.2585186 0.1516667 -0.4352952
v 0.2521389 0.1516667 -0.4673685
v 0.2500001 0.1516667 -0.5
v 0.2500001 2.255973E-16 -0.5
v 0.5000001 1.353584E-16 -0.4999999
v 0.5000001 1.353584E-16 -0.375
v 0.5000001 0.1833333 -0.4999999
v 0.5000001 0.1833333 -0.375
v 0.3750001 2.255973E-16 -0.5
v 0.4836844 0.1833333 -0.3760694
v 0.4676477 0.1833333 -0.3792592
v 0.4521647 0.1833333 -0.3845151
v 0.4375001 0.1833333 -0.3917468
v 0.423905 0.1833333 -0.4008309
v 0.4116118 0.1833333 -0.4116116
v 0.400831 0.1833333 -0.4239049
v 0.3917469 0.1833333 -0.4375
v 0.3845152 0.1833333 -0.4521646
v 0.3792594 0.1833333 -0.4676476
v 0.3760695 0.1833333 -0.4836843
v 0.3750001 0.1833333 -0.5
v 0.3750001 0.21 -0.5
v 0.2500001 0.21 -0.5
v 0.2521389 0.21 -0.4673685
v 0.2585186 0.21 -0.4352952
v 0.2690302 0.21 -0.4043292
v 0.2834937 0.21 -0.375
v 0.3016617 0.21 -0.3478096
v 0.3232234 0.21 -0.3232233
v 0.3478097 0.21 -0.3016617
v 0.3750001 0.21 -0.2834936
v 0.4043292 0.21 -0.2690301
v 0.4352953 0.21 -0.2585185
v 0.4673685 0.21 -0.2521387
v 0.5000001 0.21 -0.2499999
v 0.5000001 0.21 -0.375
v 0.4836844 0.21 -0.3760694
v 0.4676477 0.21 -0.3792592
v 0.4521647 0.21 -0.3845151
v 0.4375001 0.21 -0.3917468
v 0.423905 0.21 -0.4008309
v 0.4116118 0.21 -0.4116116
v 0.400831 0.21 -0.4239049
v 0.3917469 0.21 -0.4375
v 0.3845152 0.21 -0.4521646
v 0.3792594 0.21 -0.4676476
v 0.3760695 0.21 -0.4836843

vn 1.192093E-07 0 -1
vn -1 0 -1.192093E-07
vn -1.192093E-07 0 1
vn 0 1 0
vn 1 0 1.192093E-07
vn 0 -1 0
vn -0.9978591 0 0.06540304
vn -0.991445 0 0.1305261
vn -0.9659259 0 0.258819
vn -0.9238797 0 0.3826834
vn -0.8660256 0 0.4999999
vn -0.7933535 0 0.6087614
vn -0.7071069 0 0.7071068
vn -0.6087616 0 0.7933534
vn -0.5000002 0 0.8660255
vn -0.3826836 0 0.9238795
vn -0.2588192 0 0.9659259
vn -0.1305263 0 0.9914449
vn -0.06540325 0 0.9978591
vn 0.06540325 0 -0.9978591
vn 0.1305263 0 -0.9914449
vn 0.2588192 0 -0.9659259
vn 0.3826836 0 -0.9238795
vn 0.5000002 0 -0.8660255
vn 0.6087616 0 -0.7933534
vn 0.7071069 0 -0.7071068
vn 0.7933535 0 -0.6087614
vn 0.8660256 0 -0.4999999
vn 0.9238797 0 -0.3826834
vn 0.9659259 0 -0.258819
vn 0.991445 0 -0.1305261
vn 0.9978591 0 -0.06540304

vt 4.92126 -8.849733E-11
vt 4.92126 5.971128
vt 19.68504 -8.849201E-11
vt 19.68504 5.971128
vt 19.68504 2.131628E-14
vt -19.68504 2.131628E-14
vt -19.68504 5.971128
vt 19.68504 -9.994448E-13
vt -19.68504 -9.781285E-13
vt -19.68504 19.68504
vt 19.68504 19.68504
vt -19.68504 -19.68504
vt 0.1635497 -4.705674
vt -1.624641 -7.38189
vt -3.048217 -10.26862
vt -4.08282 -13.31646
vt -4.71075 -16.47327
vt -4.92126 -19.68504
vt 2.285758 -2.285758
vt 4.705674 -0.1635497
vt 7.38189 1.624641
vt 10.26862 3.048217
vt 13.31646 4.08282
vt 16.47327 4.71075
vt 19.68504 4.92126
vt -19.68504 8.457801E-11
vt -4.92126 8.495458E-11
vt -4.92126 5.971128
vt 9.84252 8.495813E-11
vt 9.84252 5.971128
vt 9.84252 -19.68504
vt 9.926723 -18.40033
vt 10.1779 -17.13761
vt 10.59174 -15.91847
vt 11.16117 -14.76378
vt 11.87644 -13.69329
vt 12.72533 -12.72533
vt 13.69329 -11.87644
vt 14.76378 -11.16117
vt 15.91847 -10.59174
vt 17.13761 -10.1779
vt 18.40033 -9.926723
vt 19.68504 -9.84252
vt -9.84252 1.513567E-12
vt -9.84252 5.971128
vt 19.68504 5.329071E-15
vt 14.76378 5.329071E-15
vt 19.68504 7.217848
vt 14.76378 7.217848
vt 19.68504 -19.68504
vt 4.92126 -19.68504
vt -9.84252 -19.68504
vt -14.76378 -19.68504
vt -19.68504 -9.84252
vt -19.68504 -14.76378
vt -19.68504 4.92126
vt 14.76378 -19.68504
vt 14.80588 -19.04269
vt 14.93147 -18.41132
vt 15.13839 -17.80175
vt 15.4231 -17.22441
vt 15.78074 -16.68917
vt 16.20518 -16.20518
vt 16.68917 -15.78074
vt 17.22441 -15.4231
vt 17.80175 -15.13839
vt 18.41132 -14.93147
vt 19.04269 -14.80588
vt 19.68504 -14.76378
vt -19.68504 4.187358E-13
vt -19.68504 7.217848
vt -14.76378 1.513567E-12
vt -14.76378 7.217848
vt -14.76378 8.267716
vt -9.84252 8.267716
vt -18.99916 5.971128
vt -18.99916 8.267716
vt -17.7117 5.971128
vt -17.7117 8.267716
vt -16.11017 5.971128
vt -16.11017 8.267716
vt -14.8227 5.971128
vt -14.8227 8.267716
vt -12.95654 5.971128
vt -12.95654 8.267716
vt -11.66908 5.971128
vt -11.66908 8.267716
vt -8.304773 5.971128
vt -9.592237 5.971128
vt -8.304773 8.267716
vt -9.592237 8.267716
vt -4.787359 5.971128
vt -6.074822 5.971128
vt -4.787359 8.267716
vt -6.074822 8.267716
vt -1.177016 5.971128
vt -2.464479 5.971128
vt -1.177016 8.267716
vt -2.464479 8.267716
vt 2.464479 8.267716
vt 2.464479 5.971128
vt 1.177016 8.267716
vt 1.177016 5.971128
vt 6.074822 8.267716
vt 6.074822 5.971128
vt 4.787359 8.267716
vt 4.787359 5.971128
vt 9.592237 8.267716
vt 9.592237 5.971128
vt 8.304773 8.267716
vt 8.304773 5.971128
vt 12.95654 8.267716
vt 12.95654 5.971128
vt 11.66908 8.267716
vt 11.66908 5.971128
vt 16.11017 8.267716
vt 16.11017 5.971128
vt 14.8227 8.267716
vt 14.8227 5.971128
vt 18.99916 8.267716
vt 18.99916 5.971128
vt 17.7117 8.267716
vt 17.7117 5.971128
vt -18.6773 7.217848
vt -18.6773 8.267716
vt -18.03356 7.217848
vt -18.03356 8.267716
vt -15.7883 7.217848
vt -15.7883 8.267716
vt -15.14457 7.217848
vt -15.14457 8.267716
vt -12.63467 7.217848
vt -12.63467 8.267716
vt -11.99094 7.217848
vt -11.99094 8.267716
vt -9.27037 7.217848
vt -9.27037 8.267716
vt -8.626639 7.217848
vt -8.626639 8.267716
vt -5.752956 7.217848
vt -5.752956 8.267716
vt -5.109224 7.217848
vt -5.109224 8.267716
vt -2.142614 7.217848
vt -2.142614 8.267716
vt -1.498882 7.217848
vt -1.498882 8.267716
vt 2.142614 7.217848
vt 1.498882 7.217848
vt 2.142614 8.267716
vt 1.498882 8.267716
vt 5.752956 7.217848
vt 5.109224 7.217848
vt 5.752956 8.267716
vt 5.109224 8.267716
vt 9.27037 7.217848
vt 8.626639 7.217848
vt 9.27037 8.267716
vt 8.626639 8.267716
vt 12.63467 7.217848
vt 11.99094 7.217848
vt 12.63467 8.267716
vt 11.99094 8.267716
vt 15.7883 7.217848
vt 15.14457 7.217848
vt 15.7883 8.267716
vt 15.14457 8.267716
vt 18.6773 7.217848
vt 18.03356 7.217848
vt 18.6773 8.267716
vt 18.03356 8.267716
vt 9.84252 8.267716
vt 14.76378 8.267716

usemtl water

f 3/3/1 2/2/1 1/1/1
f 2/2/1 3/3/1 4/4/1
f 6/4/2 3/6/2 5/5/2
f 3/6/2 6/4/2 4/7/2
f 6/7/3 8/8/3 7/4/3
f 8/8/3 6/7/3 5/9/3
f 7/12/4 4/11/4 6/10/4
f 4/11/4 7/12/4 9/13/4
f 9/13/4 7/12/4 10/14/4
f 10/14/4 7/12/4 11/15/4
f 11/15/4 7/12/4 12/16/4
f 12/16/4 7/12/4 13/17/4
f 13/17/4 7/12/4 14/18/4
f 4/11/4 9/13/4 15/19/4
f 4/11/4 15/19/4 16/20/4
f 4/11/4 16/20/4 17/21/4
f 4/11/4 17/21/4 18/22/4
f 4/11/4 18/22/4 19/23/4
f 4/11/4 19/23/4 20/24/4
f 4/11/4 20/24/4 2/25/4
f 21/27/5 7/7/5 8/26/5
f 7/7/5 21/27/5 14/28/5

usemtl sand

f 22/29/5 14/28/5 21/27/5
f 14/28/5 22/29/5 23/30/5
f 23/31/4 13/17/4 14/18/4
f 13/17/4 23/31/4 12/16/4
f 12/16/4 23/31/4 11/15/4
f 11/15/4 23/31/4 10/14/4
f 10/14/4 23/31/4 9/13/4
f 9/13/4 23/31/4 15/19/4
f 15/19/4 23/31/4 16/20/4
f 16/20/4 23/31/4 17/21/4
f 17/21/4 23/31/4 18/22/4
f 18/22/4 23/31/4 24/32/4
f 18/22/4 24/32/4 25/33/4
f 18/22/4 25/33/4 26/34/4
f 18/22/4 26/34/4 19/23/4
f 19/23/4 26/34/4 27/35/4
f 19/23/4 27/35/4 28/36/4
f 19/23/4 28/36/4 29/37/4
f 19/23/4 29/37/4 30/38/4
f 19/23/4 30/38/4 20/24/4
f 20/24/4 30/38/4 31/39/4
f 20/24/4 31/39/4 32/40/4
f 20/24/4 32/40/4 33/41/4
f 20/24/4 33/41/4 2/25/4
f 2/25/4 33/41/4 34/42/4
f 2/25/4 34/42/4 35/43/4
f 1/1/1 35/45/1 36/44/1
f 35/45/1 1/1/1 2/2/1

usemtl grass

f 39/48/5 38/47/5 37/46/5
f 38/47/5 39/48/5 40/49/5
f 3/10/6 8/50/6 5/11/6
f 8/50/6 3/10/6 21/51/6
f 21/51/6 3/10/6 22/52/6
f 22/52/6 3/10/6 38/53/6
f 38/53/6 3/10/6 36/54/6
f 38/53/6 36/54/6 41/55/6
f 38/53/6 41/55/6 37/12/6
f 36/54/6 3/10/6 1/56/6
f 39/50/4 42/58/4 40/57/4
f 42/58/4 39/50/4 43/59/4
f 43/59/4 39/50/4 44/60/4
f 44/60/4 39/50/4 45/61/4
f 45/61/4 39/50/4 46/62/4
f 46/62/4 39/50/4 47/63/4
f 47/63/4 39/50/4 48/64/4
f 48/64/4 39/50/4 49/65/4
f 49/65/4 39/50/4 50/66/4
f 50/66/4 39/50/4 51/67/4
f 51/67/4 39/50/4 52/68/4
f 52/68/4 39/50/4 53/69/4
f 41/72/1 39/71/1 37/70/1
f 39/71/1 41/72/1 53/73/1

usemtl pavement

f 36/44/1 53/73/1 41/72/1
f 53/73/1 36/44/1 54/74/1
f 54/74/1 36/44/1 55/75/1
f 55/75/1 36/44/1 35/45/1
f 34/78/8 55/77/7 35/76/7
f 55/77/7 34/78/8 56/79/8
f 33/82/9 56/81/8 34/80/8
f 56/81/8 33/82/9 57/83/9
f 32/86/10 57/85/9 33/84/9
f 57/85/9 32/86/10 58/87/10
f 59/90/11 32/89/10 31/88/11
f 32/89/10 59/90/11 58/91/10
f 60/94/12 31/93/11 30/92/12
f 31/93/11 60/94/12 59/95/11
f 61/98/13 30/97/12 29/96/13
f 30/97/12 61/98/13 60/99/12
f 61/102/13 28/101/14 62/100/14
f 28/101/14 61/102/13 29/103/13
f 62/106/14 27/105/15 63/104/15
f 27/105/15 62/106/14 28/107/14
f 63/110/15 26/109/16 64/108/16
f 26/109/16 63/110/15 27/111/15
f 64/114/16 25/113/17 65/112/17
f 25/113/17 64/114/16 26/115/16
f 65/118/17 24/117/18 66/116/18
f 24/117/18 65/118/17 25/119/17
f 66/122/18 23/121/19 67/120/19
f 23/121/19 66/122/18 24/123/18
f 68/57/4 66/32/4 67/31/4
f 66/32/4 68/57/4 65/33/4
f 65/33/4 68/57/4 64/34/4
f 64/34/4 68/57/4 63/35/4
f 63/35/4 68/57/4 62/36/4
f 62/36/4 68/57/4 61/37/4
f 61/37/4 68/57/4 60/38/4
f 60/38/4 68/57/4 59/39/4
f 59/39/4 68/57/4 69/58/4
f 59/39/4 69/58/4 58/40/4
f 58/40/4 69/58/4 70/59/4
f 58/40/4 70/59/4 71/60/4
f 58/40/4 71/60/4 72/61/4
f 58/40/4 72/61/4 73/62/4
f 58/40/4 73/62/4 74/63/4
f 58/40/4 74/63/4 57/41/4
f 57/41/4 74/63/4 75/64/4
f 57/41/4 75/64/4 76/65/4
f 57/41/4 76/65/4 56/42/4
f 56/42/4 76/65/4 77/66/4
f 56/42/4 77/66/4 78/67/4
f 56/42/4 78/67/4 55/43/4
f 55/43/4 78/67/4 79/68/4
f 55/43/4 79/68/4 54/69/4
f 42/126/21 68/125/20 40/124/20
f 68/125/20 42/126/21 69/127/21
f 43/130/22 69/129/21 42/128/21
f 69/129/21 43/130/22 70/131/22
f 44/134/23 70/133/22 43/132/22
f 70/133/22 44/134/23 71/135/23
f 45/138/24 71/137/23 44/136/23
f 71/137/23 45/138/24 72/139/24
f 46/142/25 72/141/24 45/140/24
f 72/141/24 46/142/25 73/143/25
f 47/146/26 73/145/25 46/144/25
f 73/145/25 47/146/26 74/147/26
f 75/150/27 47/149/26 48/148/27
f 47/149/26 75/150/27 74/151/26
f 76/154/28 48/153/27 49/152/28
f 48/153/27 76/154/28 75/155/27
f 77/158/29 49/157/28 50/156/29
f 49/157/28 77/158/29 76/159/28
f 78/162/30 50/161/29 51/160/30
f 50/161/29 78/162/30 77/163/29
f 79/166/31 51/165/30 52/164/31
f 51/165/30 79/166/31 78/167/30
f 54/170/32 52/169/31 53/168/32
f 52/169/31 54/170/32 79/171/31
f 40/49/5 22/29/5 38/47/5
f 22/29/5 40/49/5 23/30/5
f 23/30/5 40/49/5 67/172/5
f 67/172/5 40/49/5 68/173/5

