# Created by Kenney (www.kenney.nl)

mtllib tile070.mtl

g tile070

v 0.125 0.2 0.5000001
v 0.125 0.105 0.5000001
v -0.1250001 0.2 0.5000001
v -0.1250001 0.105 0.5000001
v 0.1250001 0.2 -0.5000001
v -0.125 0.2 -0.5000001
v 0.1250001 0.105 -0.5000001
v -0.125 0.105 -0.5000001
v -0.5000001 0.1 0.1249999
v -0.5000001 0.1 -0.1250001
v -0.5000001 0.2 0.1249999
v -0.5000001 0.2 -0.1250001
v 0.5000001 0.1 -0.125
v 0.5000001 0.1 0.1250001
v 0.5000001 0.2 -0.125
v 0.5000001 0.2 0.1250001
v 0.125 0.2 -0.125
v -0.125 0.2 -0.1250001
v -0.125 0.2 0.125
v 0.125 0.2 0.125
v 0.5 0 0.5000001
v 0.5000001 0 -0.4999999
v 0.5000001 0.21 -0.4999999
v 0.5000001 0.21 -0.125
v 0.5 0.21 0.5000001
v 0.5000001 0.21 0.1250001
v 0.125 0.21 0.5000001
v 0.125 0.21 0.125
v -0.5 0 -0.5000001
v -0.5000001 0 0.4999999
v -0.5000001 0.21 0.4999999
v -0.5000001 0.21 0.1249999
v -0.5 0.21 -0.5000001
v -0.5000001 0.21 -0.1250001
v -0.125 0.21 -0.1250001
v -0.125 0.21 -0.5000001
v 0.125 0.21 -0.125
v 0.1250001 0.21 -0.5000001
v -0.1250001 0.21 0.5000001
v -0.125 0.21 0.125

vn -1.192093E-07 0 1
vn 1.192093E-07 0 -1
vn -1 0 -1.192093E-07
vn 1 0 1.192093E-07
vn 0 1 0
vn 0 -1 0

vt 4.92126 7.874016
vt 4.92126 4.133858
vt -4.92126 7.874016
vt -4.92126 4.133858
vt 4.921259 3.937008
vt -4.921261 3.937008
vt 4.921259 7.874016
vt -4.921261 7.874016
vt 4.921261 3.937008
vt -4.921259 3.937008
vt 4.921261 7.874016
vt -4.921259 7.874016
vt 4.921261 -4.92126
vt 4.921261 4.92126
vt 19.68504 -4.92126
vt 19.68504 4.92126
vt 4.921261 -19.68504
vt -4.921259 19.68504
vt -4.921259 4.92126
vt -4.921259 -4.92126
vt -4.921259 -19.68504
vt 4.921261 19.68504
vt -19.68504 -4.92126
vt -19.68504 4.92126
vt -19.68504 0
vt 19.68504 0
vt 19.68504 8.267716
vt 4.921261 8.267716
vt -19.68504 8.267716
vt -4.921259 8.267716
vt -19.68504 -19.68504
vt 4.921259 8.267716
vt -4.921261 8.267716
vt 19.68504 19.68504
vt 19.68504 -19.68504
vt -19.68504 19.68504
vt 4.92126 8.267716
vt 19.68504 7.874016
vt -19.68504 7.874016
vt -4.92126 8.267716
vt -19.68504 -2.806053E-13
vt 19.68504 -2.806053E-13
vt -19.68504 -1.291896E-13
vt 19.68504 -1.291896E-13

usemtl asphalt

f 3/3/1 2/2/1 1/1/1
f 2/2/1 3/3/1 4/4/1
f 7/4/2 6/1/2 5/3/2
f 6/1/2 7/4/2 8/2/2
f 11/7/3 10/6/3 9/5/3
f 10/6/3 11/7/3 12/8/3
f 15/11/4 14/10/4 13/9/4
f 14/10/4 15/11/4 16/12/4
f 5/15/5 18/14/5 17/13/5
f 18/14/5 5/15/5 6/16/5
f 18/14/5 15/17/5 17/13/5
f 11/18/5 15/17/5 18/14/5
f 19/19/5 15/17/5 11/18/5
f 20/20/5 15/17/5 19/19/5
f 15/17/5 20/20/5 16/21/5
f 11/18/5 18/14/5 12/22/5
f 19/19/5 1/23/5 20/20/5
f 1/23/5 19/19/5 3/24/5

usemtl pavement

f 22/26/4 13/9/4 21/25/4
f 13/9/4 22/26/4 23/27/4
f 13/9/4 23/27/4 15/11/4
f 15/11/4 23/27/4 24/28/4
f 14/10/4 21/25/4 13/9/4
f 21/25/4 14/10/4 25/29/4
f 25/29/4 14/10/4 16/12/4
f 25/29/4 16/12/4 26/30/4
f 26/21/5 27/23/5 25/31/5
f 27/23/5 26/21/5 28/20/5
f 30/26/3 9/5/3 29/25/3
f 9/5/3 30/26/3 31/27/3
f 9/5/3 31/27/3 11/7/3
f 11/7/3 31/27/3 32/32/3
f 10/6/3 29/25/3 9/5/3
f 29/25/3 10/6/3 33/29/3
f 33/29/3 10/6/3 12/8/3
f 33/29/3 12/8/3 34/33/3
f 36/16/5 34/22/5 35/14/5
f 34/22/5 36/16/5 33/34/5
f 29/36/6 21/35/6 30/34/6
f 21/35/6 29/36/6 22/31/6
f 23/35/5 37/13/5 24/17/5
f 37/13/5 23/35/5 38/15/5
f 40/19/5 31/36/5 39/24/5
f 31/36/5 40/19/5 32/18/5
f 11/38/2 40/37/2 19/1/2
f 40/37/2 11/38/2 32/27/2
f 40/30/4 3/39/4 19/12/4
f 3/39/4 40/30/4 39/29/4
f 1/38/3 28/32/3 20/7/3
f 28/32/3 1/38/3 27/27/3
f 20/3/2 26/29/2 16/39/2
f 26/29/2 20/3/2 28/40/2
f 37/37/1 15/38/1 24/27/1
f 15/38/1 37/37/1 17/1/1
f 37/33/3 5/39/3 17/8/3
f 5/39/3 37/33/3 38/29/3
f 36/27/4 18/11/4 6/38/4
f 18/11/4 36/27/4 35/28/4
f 34/29/1 18/3/1 35/40/1
f 18/3/1 34/29/1 12/39/1
f 22/41/2 7/4/2 23/29/2
f 7/4/2 22/41/2 29/42/2
f 23/29/2 7/4/2 5/3/2
f 7/4/2 29/42/2 8/2/2
f 33/27/2 8/2/2 29/42/2
f 36/37/2 8/2/2 33/27/2
f 8/2/2 36/37/2 6/1/2
f 38/40/2 23/29/2 5/3/2
f 31/29/1 3/3/1 39/40/1
f 3/3/1 31/29/1 4/4/1
f 30/43/1 4/4/1 31/29/1
f 30/43/1 2/2/1 4/4/1
f 21/44/1 2/2/1 30/43/1
f 21/44/1 1/1/1 2/2/1
f 21/44/1 27/37/1 1/1/1
f 27/37/1 21/44/1 25/27/1

