# Created by Kenney (www.kenney.nl)

mtllib tile180.mtl

g tile180

v -0.5000001 0.1 -0.4999999
v -0.5000001 0 -0.4999999
v 0.5 0.1 -0.5000001
v 0.5 3.235065E-14 -0.5000001
v -0.5 0 0.5000001
v -0.5 0.1 0.5000001
v 0.5000001 0.5766667 0.2499999
v 0.5000001 0.5766667 0.375
v 0.2500001 0.5766667 0.25
v 0.3750001 0.5766667 0.375
v 0.2500001 0.5766667 0.5
v 0.3750001 0.5766667 0.5
v 0.2500001 0.2 0.25
v 0.5000001 0.2 0.2499999
v 0.2500001 0.2 0.5
v 0.5000001 0.1 0.2499999
v 0.5000001 3.226042E-14 0.375
v 0.5000001 0.55 0.375
v 0.3750001 0.55 0.375
v 0.3750001 0.55 0.5
v 0.3750001 2.815455E-14 0.5
v 0.2500001 0.1 0.5
v -0.5 0.2 0.5000001
v -0.5000001 0.2 -0.4999999
v 0.5 0.2 -0.5000001
v 0.5000001 0.55 0.4999999
v 0.5000001 3.212506E-14 0.4999999

vn -1.192093E-07 0 -1
vn -1 0 1.192093E-07
vn 0 1 0
vn 1 0 -1.192093E-07
vn 1.192093E-07 0 1
vn 0 -1 0

vt 19.68504 3.937008
vt 19.68504 -7.761023E-12
vt -19.68504 3.937008
vt -19.68504 -6.487375E-12
vt 19.68504 3.789561E-13
vt -19.68504 3.789561E-13
vt 9.84252 19.68504
vt 14.76378 19.68504
vt 9.84252 9.84252
vt 14.76378 14.76378
vt 19.68504 9.84252
vt 19.68504 14.76378
vt -9.84252 22.70341
vt -9.84252 7.874016
vt -19.68504 22.70341
vt -19.68504 7.874016
vt 19.68504 7.874016
vt 9.84252 7.874016
vt 19.68504 22.70341
vt 9.84252 22.70341
vt 19.68504 -9.357845E-13
vt -9.84252 3.937008
vt -14.76378 -9.393373E-13
vt -14.76378 21.65354
vt -14.76378 22.70341
vt 14.76378 21.65354
vt 14.76378 22.70341
vt 19.68504 21.65354
vt -19.68504 21.65354
vt -19.68504 1.337115E-12
vt 14.76378 1.521853E-12
vt 9.84252 3.937008
vt -19.68504 -19.68504
vt -19.68504 19.68504
vt 19.68504 -19.68504
vt 19.68504 1.678173E-12
vt 19.68504 19.68504
vt -14.76378 19.68504
vt -19.68504 14.76378
vt -19.68504 9.54711E-13

usemtl pavement

f 3/3/1 2/2/1 1/1/1
f 2/2/1 3/3/1 4/4/1
f 6/1/2 2/6/2 5/5/2
f 2/6/2 6/1/2 1/3/2
f 9/9/3 8/8/3 7/7/3
f 8/8/3 9/9/3 10/10/3
f 10/10/3 9/9/3 11/11/3
f 10/10/3 11/11/3 12/12/3
f 7/15/1 13/14/1 9/13/1
f 13/14/1 7/15/1 14/16/1
f 11/19/2 13/18/2 15/17/2
f 13/18/2 11/19/2 9/20/2
f 3/1/4 16/22/4 4/21/4
f 16/22/4 17/23/4 4/21/4
f 17/23/4 16/22/4 18/24/4
f 18/24/4 16/22/4 14/14/4
f 18/24/4 14/14/4 7/13/4
f 18/24/4 7/13/4 8/25/4
f 18/28/5 10/27/5 19/26/5
f 10/27/5 18/28/5 8/19/5
f 19/24/4 12/15/4 20/29/4
f 12/15/4 19/24/4 10/25/4
f 21/31/5 6/3/5 5/30/5
f 6/3/5 21/31/5 22/32/5
f 22/32/5 21/31/5 15/18/5
f 15/18/5 21/31/5 20/26/5
f 12/27/5 15/18/5 20/26/5
f 15/18/5 12/27/5 11/20/5

usemtl asphalt

f 23/17/2 1/3/2 6/1/2
f 1/3/2 23/17/2 24/16/2
f 3/1/4 14/14/4 16/22/4
f 14/14/4 3/1/4 25/17/4
f 25/16/1 1/1/1 24/17/1
f 1/1/1 25/16/1 3/3/1
f 23/35/3 25/34/3 24/33/3
f 25/34/3 23/35/3 13/9/3
f 25/34/3 13/9/3 14/7/3
f 13/9/3 23/35/3 15/11/3
f 22/32/5 23/16/5 6/3/5
f 23/16/5 22/32/5 15/18/5

usemtl grass

f 21/31/5 26/28/5 20/26/5
f 26/28/5 21/31/5 27/36/5
f 17/38/6 2/35/6 4/37/6
f 2/35/6 17/38/6 5/33/6
f 5/33/6 17/38/6 27/34/6
f 5/33/6 27/34/6 21/39/6
f 19/10/3 26/37/3 18/8/3
f 26/37/3 19/10/3 20/12/3
f 17/23/4 26/29/4 27/40/4
f 26/29/4 17/23/4 18/24/4

