# Created by Kenney (www.kenney.nl)

mtllib tile263.mtl

g tile263

v -0.5 0.2 0.1875
v 0.5 0.2 0.1875
v -0.5 0.2 0.5
v 0.5 0.2 0.5
v 0.5 0.1 0.5
v -0.5 0.1 0.5
v -0.5 0.2 0.125
v -0.5 0.2 -0.125
v 0.5 0.2 0.125
v 0.5 0.2 -0.125
v -0.5 0.19 0.125
v -0.5 0.19 -0.125
v -0.5 0.1 -0.25
v -0.5 0.19 0.1875
v -0.5 0.19 -0.1875
v -0.5 0.2 -0.25
v -0.5 0.2 -0.1875
v 0.5 0.2 -0.249229
v 0.5 0.2 -0.1875
v 0.5 0.1 -0.249229
v 0.5 0.19 0.1875
v 0.5 0.19 0.125
v 0.5 0.19 -0.125
v 0.5 0.19 -0.1875
v -0.5 0.21 -0.25
v -0.5 0.21 -0.5
v -0.5 3.609557E-16 -0.5
v -0.5 3.609557E-16 0.5
v 0.5 2.255973E-16 0.5
v 0.5 0 -0.5
v 0.5 0.21 -0.249229
v 0.5 0.21 -0.5

vn 0 1 0
vn -9.251858E-16 0 1
vn -1 0 -9.251858E-16
vn 1 0 9.251858E-16
vn 0 -1 0
vn 9.251858E-16 0 -1
vn -0.0007709665 0 0.9999998

vt -19.68504 -7.38189
vt 19.68504 -7.38189
vt -19.68504 -19.68504
vt 19.68504 -19.68504
vt 19.68504 3.937008
vt -19.68504 3.937008
vt 19.68504 7.874016
vt -19.68504 7.874016
vt -19.68504 -4.92126
vt -19.68504 4.921259
vt 19.68504 -4.92126
vt 19.68504 4.921259
vt 4.92126 7.874016
vt 4.92126 7.480315
vt -4.921259 7.874016
vt -4.92126 7.480315
vt -9.84252 3.937008
vt 7.38189 7.480315
vt 7.38189 7.874016
vt -7.38189 7.480315
vt -9.84252 7.874016
vt -7.38189 7.874016
vt -19.68504 9.84252
vt 19.68504 9.812166
vt -19.68504 7.38189
vt 19.68504 7.38189
vt 9.812166 3.937008
vt -4.921261 7.480315
vt -4.92126 7.874016
vt 4.921259 7.480315
vt 9.812166 7.874016
vt 4.921259 7.874016
vt -9.84252 8.267716
vt -19.68504 8.267716
vt -19.68504 -1.662562E-11
vt 19.68504 -1.662562E-11
vt -19.68504 9.661902E-13
vt 19.68504 9.573085E-13
vt 9.812166 8.267716
vt 19.68504 8.267716
vt 19.68504 19.68504
vt -19.68504 19.68504
vt 19.68504 -7.490304E-13
vt -19.68504 -7.437014E-13
vt -19.68504 4.627623E-25
vt 19.68504 1.421085E-14
vt 19.67747 7.874016
vt -19.69262 7.874016
vt 19.67747 8.267716
vt -19.69262 8.267716
vt -19.68504 7.480315
vt 19.68504 7.480315
vt 19.68504 -4.921261
vt -19.68504 4.92126
vt 19.68504 4.921259

usemtl asphalt

f 3/3/1 2/2/1 1/1/1
f 2/2/1 3/3/1 4/4/1
f 4/7/2 6/6/2 5/5/2
f 6/6/2 4/7/2 3/8/2
f 9/11/1 8/10/1 7/9/1
f 8/10/1 9/11/1 10/12/1
f 8/15/3 11/14/3 7/13/3
f 12/16/3 11/14/3 8/15/3
f 13/17/3 11/14/3 12/16/3
f 13/17/3 14/18/3 11/14/3
f 6/5/3 14/18/3 13/17/3
f 6/5/3 1/19/3 14/18/3
f 1/19/3 6/5/3 3/7/3
f 13/17/3 12/16/3 15/20/3
f 13/17/3 15/20/3 16/21/3
f 16/21/3 15/20/3 17/22/3
f 17/25/1 18/24/1 16/23/1
f 18/24/1 17/25/1 19/26/1
f 20/27/4 4/8/4 5/6/4
f 4/8/4 20/27/4 21/20/4
f 21/20/4 20/27/4 22/28/4
f 22/28/4 20/27/4 9/29/4
f 9/29/4 20/27/4 23/30/4
f 23/30/4 20/27/4 24/18/4
f 24/18/4 20/27/4 19/19/4
f 19/19/4 20/27/4 18/31/4
f 10/32/4 9/29/4 23/30/4
f 2/22/4 4/8/4 21/20/4

usemtl pavement

f 26/34/3 16/21/3 25/33/3
f 16/21/3 26/34/3 13/17/3
f 27/35/3 13/17/3 26/34/3
f 28/36/3 13/17/3 27/35/3
f 13/17/3 28/36/3 6/5/3
f 30/38/4 5/6/4 29/37/4
f 5/6/4 30/38/4 20/27/4
f 20/27/4 30/38/4 18/31/4
f 18/31/4 30/38/4 31/39/4
f 31/39/4 30/38/4 32/40/4
f 30/42/5 28/4/5 27/41/5
f 28/4/5 30/42/5 29/3/5
f 5/5/2 28/44/2 29/43/2
f 28/44/2 5/5/2 6/6/2
f 27/46/6 32/34/6 30/45/6
f 32/34/6 27/46/6 26/40/6
f 31/24/1 26/42/1 25/23/1
f 26/42/1 31/24/1 32/41/1
f 31/49/7 16/48/7 18/47/7
f 16/48/7 31/49/7 25/50/7

usemtl metal

f 14/52/6 2/8/6 21/51/6
f 2/8/6 14/52/6 1/7/6
f 21/2/1 11/9/1 14/1/1
f 11/9/1 21/2/1 22/53/1
f 9/7/2 11/51/2 22/52/2
f 11/51/2 9/7/2 7/8/2
f 19/7/2 15/51/2 24/52/2
f 15/51/2 19/7/2 17/8/2
f 23/55/1 15/25/1 12/54/1
f 15/25/1 23/55/1 24/26/1
f 12/52/6 10/8/6 23/51/6
f 10/8/6 12/52/6 8/7/6

