# Created by Kenney (www.kenney.nl)

mtllib tile208.mtl

g tile208

v -0.5 3.007964E-17 -0.5
v -0.5 0.21 -0.5
v -0.5 0 0.5
v -0.5 0.21 0.5
v 0.5 3.007964E-17 -0.5
v 0.5 0 0.5
v 0.5 0.21 -0.5
v 0.5 0.1 0.5
v 0.06797787 0.1 0.5
v 0.06797787 0.2 0.5
v 0.06797787 0.21 0.5
v 0.5 0.21 0.06797787
v 0.5 0.1 0.06797787
v 0.5 0.2 0.06797787
v 0.4346675 0.21 0.1116317
v 0.2625631 0.21 0.2625631
v 0.1116316 0.21 0.4346675
v 0.1116316 0.2 0.4346675
v 0.2625631 0.2 0.2625631
v 0.4346675 0.2 0.1116317
v 0.5 0.2 0.5

vn -0.3333333 0 0
vn 0 -0.3333333 0
vn 0 0 -0.3333333
vn 0 0 0.3333333
vn 0.3333333 0 0
vn 0 0.3333333 0
vn 0.2644511 0 0.2029205
vn 0.2771565 0 0.1851901
vn 0.2357023 0 0.2357023
vn 0.2029205 0 0.2644511
vn 0.1851901 0 0.2771565

vt -59.05512 3.552714E-15
vt -59.05512 24.80315
vt 59.05512 1.258434E-26
vt 59.05512 24.80315
vt 59.05512 -59.05512
vt -59.05512 -59.05512
vt 59.05512 59.05512
vt -59.05512 59.05512
vt 59.05512 3.552714E-15
vt 59.05512 1.28796E-13
vt -59.05512 1.28796E-13
vt 59.05512 11.81102
vt 8.028882 11.81102
vt 8.028882 23.62205
vt 8.028882 24.80315
vt 59.05512 1.217791E-10
vt -8.028882 24.80315
vt -8.028882 11.81102
vt -59.05512 1.217756E-10
vt -8.028882 23.62205
vt -59.05512 11.81102
vt -59.05512 8.028882
vt -51.33868 13.18484
vt -31.01139 31.01139
vt -13.18484 51.33868
vt -8.028882 59.05512
vt -35.36145 24.80315
vt -35.36145 23.62205
vt -44.64193 24.80315
vt -44.64193 23.62205
vt -2.868368 24.80315
vt -2.868368 23.62205
vt -29.90509 24.80315
vt -29.90509 23.62205
vt 2.868367 23.62205
vt 2.868367 24.80315
vt 29.90509 23.62205
vt 29.90509 24.80315
vt 44.64193 23.62205
vt 35.36145 23.62205
vt 44.64193 24.80315
vt 35.36145 24.80315
vt -59.05512 23.62205
vt 59.05512 23.62205

usemtl pavement

f 3/3/1 2/2/1 1/1/1
f 2/2/1 3/3/1 4/4/1
f 6/7/2 1/6/2 5/5/2
f 1/6/2 6/7/2 3/8/2
f 2/4/3 5/1/3 1/9/3
f 5/1/3 2/4/3 7/2/3
f 8/12/4 3/11/4 6/10/4
f 3/11/4 8/12/4 9/13/4
f 3/11/4 9/13/4 4/2/4
f 4/2/4 9/13/4 10/14/4
f 4/2/4 10/14/4 11/15/4
f 12/17/5 5/16/5 7/4/5
f 5/16/5 12/17/5 13/18/5
f 5/16/5 13/18/5 6/19/5
f 13/18/5 12/17/5 14/20/5
f 6/19/5 13/18/5 8/21/5
f 7/6/6 15/23/6 12/22/6
f 15/23/6 7/6/6 2/5/6
f 15/23/6 2/5/6 16/24/6
f 16/24/6 2/5/6 17/25/6
f 17/25/6 2/5/6 11/26/6
f 11/26/6 2/5/6 4/7/6
f 11/29/8 18/28/7 17/27/7
f 18/28/7 11/29/8 10/30/8
f 17/33/7 19/32/9 16/31/9
f 19/32/9 17/33/7 18/34/7
f 20/37/10 16/36/9 19/35/9
f 16/36/9 20/37/10 15/38/10
f 12/41/11 20/40/10 14/39/11
f 20/40/10 12/41/11 15/42/10

usemtl asphalt

f 20/23/6 21/8/6 14/22/6
f 21/8/6 20/23/6 10/26/6
f 10/26/6 20/23/6 19/24/6
f 10/26/6 19/24/6 18/25/6
f 21/43/5 13/18/5 14/20/5
f 13/18/5 21/43/5 8/21/5
f 21/44/4 9/13/4 8/12/4
f 9/13/4 21/44/4 10/14/4

