# Created by Kenney (www.kenney.nl)

mtllib tile019.mtl

g tile019

v 0.5000001 2.188294E-15 -0.4999999
v 0.5000001 0.21 -0.4999999
v -0.5 0 -0.5000001
v -0.5 0.21 -0.5000001
v -0.5000001 0.21 0.4999999
v -0.5000001 0.21 0.2499999
v 0.2485175 0.21 0.5000001
v 0.125 0.21 0.4174683
v -0.02164574 0.21 0.3451506
v -0.1764762 0.21 0.2925927
v -0.3368423 0.21 0.2606939
v 0.5000001 0.21 0.06797794
v 0.3750001 0.21 -0.01554438
v 0.169696 0.21 -0.1167892
v -0.04706665 0.21 -0.1903702
v -0.2715791 0.21 -0.2350286
v -0.5 0.21 -0.2500001
v 0.5 6.813039E-15 0.5000001
v 0.5000001 0.1 0.06797794
v 0.5 0.1 0.5000001
v 0.5000001 0.2 0.06797794
v 0.2485175 0.2 0.5000001
v 0.2485175 0.1 0.5000001
v -0.5000001 5.797851E-15 0.4999999
v 0.3750001 0.2 -0.01554438
v 0.169696 0.2 -0.1167892
v -0.04706665 0.2 -0.1903702
v -0.2715791 0.2 -0.2350286
v -0.5 0.2 -0.2500001
v -0.3368423 0.2 0.2606939
v -0.5000001 0.2 0.2499999
v -0.1764762 0.2 0.2925927
v -0.02164574 0.2 0.3451506
v 0.125 0.2 0.4174683
v -0.5 0.1 -0.2500001
v -0.5000001 0.1 0.2499999
v 0.5 0.2 0.5000001

vn 1.192093E-07 0 -1
vn 0 1 0
vn 1 0 1.192093E-07
vn -1.192093E-07 0 1
vn 0 -1 0
vn -0.5555704 0 0.8314696
vn -0.5000002 0 0.8660255
vn -0.3826836 0 0.9238795
vn -0.2588192 0 0.9659259
vn -0.1305263 0 0.9914449
vn -0.06540325 0 0.9978591
vn 0.1305263 0 -0.9914449
vn 0.06540325 0 -0.9978591
vn 0.2588192 0 -0.9659259
vn 0.3826836 0 -0.9238795
vn 0.5000002 0 -0.8660255
vn 0.5555704 0 -0.8314696
vn -1 0 -1.192093E-07

vt -19.68504 8.615331E-14
vt -19.68504 8.267716
vt 19.68504 1.000826E-29
vt 19.68504 8.267716
vt -19.68504 19.68504
vt -9.84252 19.68504
vt -19.68504 -9.784154
vt -16.43576 -4.92126
vt -13.58861 0.8521933
vt -11.5194 6.947882
vt -10.26354 13.26151
vt -2.676294 -19.68504
vt 0.6119865 -14.76378
vt 19.68504 -19.68504
vt 4.597999 -6.680945
vt 7.49489 1.853019
vt 9.253091 10.69209
vt 9.84252 19.68504
vt 19.68504 19.68504
vt 19.68504 3.371649E-13
vt -19.68504 5.192414E-13
vt -2.676294 3.937008
vt -19.68504 3.937008
vt -2.676294 7.874016
vt -2.676294 8.267716
vt 9.784154 8.267716
vt 9.784154 7.874016
vt 9.784154 3.937008
vt -19.68504 1.688203E-13
vt 19.68504 2.087883E-13
vt 19.68504 3.937008
vt -19.68504 -19.68504
vt 17.85438 8.267716
vt 17.85438 7.874016
vt 11.93563 8.267716
vt 11.93563 7.874016
vt 12.97056 8.267716
vt 12.97056 7.874016
vt 3.958314 8.267716
vt 3.958314 7.874016
vt 4.84841 8.267716
vt 4.84841 7.874016
vt -4.163832 8.267716
vt -4.163832 7.874016
vt -3.279594 8.267716
vt -3.279594 7.874016
vt -12.29184 8.267716
vt -12.29184 7.874016
vt -11.27438 8.267716
vt -11.27438 7.874016
vt -20.28662 8.267716
vt -20.28662 7.874016
vt 12.56184 7.874016
vt 12.56184 8.267716
vt 18.99916 7.874016
vt 18.99916 8.267716
vt 4.567057 7.874016
vt 4.567057 8.267716
vt 11.00437 7.874016
vt 11.00437 8.267716
vt -3.560947 7.874016
vt -3.560947 8.267716
vt 2.876369 7.874016
vt 2.876369 8.267716
vt -11.68309 7.874016
vt -11.68309 8.267716
vt -5.245778 7.874016
vt -5.245778 8.267716
vt -19.07165 7.874016
vt -19.07165 8.267716
vt -13.2231 7.874016
vt -13.2231 8.267716
vt -9.84252 3.937008
vt 9.84252 3.937008
vt 19.68504 7.047015E-13
vt 9.84252 7.874016
vt 9.84252 8.267716
vt -19.68504 4.764396E-13
vt -9.84252 7.874016
vt -9.84252 8.267716
vt 19.68504 7.874016
vt -19.68504 7.874016

usemtl pavement

f 3/3/1 2/2/1 1/1/1
f 2/2/1 3/3/1 4/4/1
f 7/7/2 6/6/2 5/5/2
f 6/6/2 7/7/2 8/8/2
f 6/6/2 8/8/2 9/9/2
f 6/6/2 9/9/2 10/10/2
f 6/6/2 10/10/2 11/11/2
f 2/14/2 13/13/2 12/12/2
f 13/13/2 2/14/2 14/15/2
f 14/15/2 2/14/2 15/16/2
f 15/16/2 2/14/2 16/17/2
f 16/17/2 2/14/2 17/18/2
f 17/18/2 2/14/2 4/19/2
f 2/4/3 18/21/3 1/20/3
f 18/21/3 2/4/3 19/22/3
f 18/21/3 19/22/3 20/23/3
f 19/22/3 2/4/3 21/24/3
f 21/24/3 2/4/3 12/25/3
f 5/2/4 22/27/4 7/26/4
f 22/27/4 5/2/4 23/28/4
f 24/29/4 23/28/4 5/2/4
f 18/30/4 23/28/4 24/29/4
f 23/28/4 18/30/4 20/31/4
f 3/5/5 18/14/5 24/19/5
f 18/14/5 3/5/5 1/32/5
f 13/35/7 21/34/6 12/33/6
f 21/34/6 13/35/7 25/36/7
f 14/39/8 25/38/7 13/37/7
f 25/38/7 14/39/8 26/40/8
f 15/43/9 26/42/8 14/41/8
f 26/42/8 15/43/9 27/44/9
f 16/47/10 27/46/9 15/45/9
f 27/46/9 16/47/10 28/48/10
f 17/51/11 28/50/10 16/49/10
f 28/50/10 17/51/11 29/52/11
f 31/55/13 11/54/12 30/53/12
f 11/54/12 31/55/13 6/56/13
f 30/59/12 10/58/14 32/57/14
f 10/58/14 30/59/12 11/60/12
f 32/63/14 9/62/15 33/61/15
f 9/62/15 32/63/14 10/64/14
f 33/67/15 8/66/16 34/65/16
f 8/66/16 33/67/15 9/68/15
f 34/71/16 7/70/17 22/69/17
f 7/70/17 34/71/16 8/72/16
f 24/75/18 36/74/18 35/73/18
f 36/74/18 24/75/18 5/4/18
f 36/74/18 5/4/18 31/76/18
f 31/76/18 5/4/18 6/77/18
f 35/73/18 3/78/18 24/75/18
f 3/78/18 35/73/18 4/2/18
f 4/2/18 35/73/18 29/79/18
f 4/2/18 29/79/18 17/80/18

usemtl asphalt

f 36/74/18 29/79/18 35/73/18
f 29/79/18 36/74/18 31/76/18
f 22/27/4 20/31/4 37/81/4
f 20/31/4 22/27/4 23/28/4
f 21/12/2 22/7/2 37/32/2
f 22/7/2 21/12/2 34/8/2
f 34/8/2 21/12/2 33/9/2
f 33/9/2 21/12/2 32/10/2
f 32/10/2 21/12/2 30/11/2
f 30/11/2 21/12/2 31/6/2
f 31/6/2 21/12/2 29/18/2
f 29/18/2 21/12/2 25/13/2
f 29/18/2 25/13/2 26/15/2
f 29/18/2 26/15/2 27/16/2
f 29/18/2 27/16/2 28/17/2
f 19/22/3 37/82/3 20/23/3
f 37/82/3 19/22/3 21/24/3

