# Created by Kenney (www.kenney.nl)

mtllib tile014.mtl

g tile014

v -0.5000001 0.2 0.2499999
v -0.5 0.2 -0.2500001
v 0.5 0.5666667 0.2500001
v 0.5000001 0.5666667 -0.2499999
v -0.5000001 0.1 0.2499999
v -0.5 0.1 -0.2500001
v 0.5000001 0.4666667 -0.2499999
v 0.5 0.4666667 0.2500001
v 0.5 0.3666667 0.5000001
v 0.5000001 0.3666667 -0.4999999
v 0.5000001 0.5766667 -0.4999999
v 0.5000001 0.5766667 -0.2499999
v 0.5 0.5766667 0.5000001
v 0.5 0.5766667 0.2500001
v -0.5000001 0.21 0.4999999
v -0.5000001 0.21 0.2499999
v -0.5 0.21 -0.2500001
v -0.5 0.21 -0.5000001
v 5.960465E-08 0 -0.5000001
v -0.5 4.511946E-17 -0.5000001
v -0.5000001 3.158362E-16 0.4999999
v -5.960464E-08 1.18213E-14 0.5000001

vn -0.3442546 0.9388763 -2.980232E-08
vn -1 0 -1.192093E-07
vn 1 0 1.192093E-07
vn 1.192093E-07 0 -1
vn -1.192093E-07 0 1
vn 0.5913637 -0.806405 5.960464E-08
vn 0 -1 0

vt 9.84252 -15.77115
vt -9.84252 -15.77115
vt 9.84252 26.16204
vt -9.84252 26.16204
vt 9.84252 3.937008
vt -9.84252 3.937008
vt 9.84252 7.874016
vt -9.84252 7.874016
vt 9.84252 18.3727
vt -9.84252 18.3727
vt 9.84252 22.30971
vt -9.84252 22.30971
vt -19.68504 14.4357
vt 19.68504 14.4357
vt 19.68504 22.70341
vt 9.84252 22.70341
vt -19.68504 22.70341
vt -9.84252 22.70341
vt 19.68504 -15.63562
vt 9.84252 -15.63562
vt 19.68504 26.29757
vt 9.84252 26.29757
vt -19.68504 22.30971
vt 19.68504 7.874016
vt 19.68504 8.267716
vt -9.84252 -15.63562
vt -19.68504 -15.63562
vt -9.84252 26.29757
vt -19.68504 26.29757
vt -3.646951E-13 8.890707E-14
vt 19.68504 9.068342E-14
vt 19.68504 22.30971
vt -19.68504 8.267716
vt -19.68504 7.874016
vt 19.68504 5.847775E-15
vt 9.84252 8.267716
vt -19.68504 -4.810366E-15
vt -9.84252 8.267716
vt 1.070522E-13 4.851626E-13
vt -19.68504 3.219162E-14
vt -19.68504 7.166986E-13
vt -19.68504 24.41086
vt 19.68504 8.567168E-14
vt 19.68504 24.41086
vt 19.68504 19.68504
vt 19.68504 -3.410605E-13
vt -19.68504 19.68504
vt -19.68504 -3.126388E-13

usemtl asphalt

f 3/3/1 2/2/1 1/1/1
f 2/2/1 3/3/1 4/4/1
f 1/7/2 6/6/2 5/5/2
f 6/6/2 1/7/2 2/8/2
f 4/11/3 8/10/3 7/9/3
f 8/10/3 4/11/3 3/12/3

usemtl pavement

f 10/14/3 7/9/3 9/13/3
f 7/9/3 10/14/3 11/15/3
f 7/9/3 11/15/3 4/11/3
f 4/11/3 11/15/3 12/16/3
f 8/10/3 9/13/3 7/9/3
f 9/13/3 8/10/3 13/17/3
f 13/17/3 8/10/3 3/12/3
f 13/17/3 3/12/3 14/18/3
f 13/21/1 16/20/1 15/19/1
f 16/20/1 13/21/1 14/22/1
f 1/24/4 14/17/4 3/23/4
f 14/17/4 1/24/4 16/25/4
f 12/28/1 18/27/1 17/26/1
f 18/27/1 12/28/1 11/29/1
f 19/30/4 11/17/4 10/13/4
f 11/17/4 19/30/4 18/25/4
f 18/25/4 19/30/4 20/31/4
f 17/33/5 4/32/5 12/15/5
f 4/32/5 17/33/5 2/34/5
f 15/25/2 5/5/2 21/35/2
f 5/5/2 15/25/2 1/7/2
f 1/7/2 15/25/2 16/36/2
f 6/6/2 21/35/2 5/5/2
f 6/6/2 20/37/2 21/35/2
f 20/37/2 6/6/2 18/33/2
f 18/33/2 6/6/2 2/8/2
f 18/33/2 2/8/2 17/38/2
f 15/33/5 9/14/5 13/15/5
f 9/14/5 15/33/5 22/39/5
f 22/39/5 15/33/5 21/40/5
f 19/43/6 9/42/6 22/41/6
f 9/42/6 19/43/6 10/44/6
f 20/47/7 22/46/7 21/45/7
f 22/46/7 20/47/7 19/48/7

