# Created by Kenney (www.kenney.nl)

mtllib tile079.mtl

g tile079

v -0.5000001 0.2 0.2499999
v -0.5 0.2 -0.2500001
v 0.5 0.5666667 0.2500001
v 0.5000001 0.5666667 -0.2499999
v -0.5000001 0.1 0.2499999
v -0.5 0.1 -0.2500001
v 0.5000001 0.4666667 -0.2499999
v 0.5 0.4666667 0.2500001
v -0.5000001 0.21 0.375
v -0.5000001 0.21 0.2499999
v 0.5 0.5766667 0.3750001
v 0.5 0.5766667 0.2500001
v -0.5 0.21 -0.2500001
v -0.5 0.21 -0.3750001
v 0.5000001 0.5766667 -0.2499999
v 0.5000001 0.5766667 -0.375
v 0.302836 9.565326E-15 0.2500001
v 0.302836 0.2943732 0.2500001
v 0.3028359 1.109939E-14 0.3750001
v 0.3028359 0.2943732 0.3750001
v 0.5000001 0.3666667 -0.2499999
v 0.5000001 3.158362E-15 -0.2499999
v 0.302836 0.2943732 -0.25
v 0.302836 3.158362E-15 -0.25
v 0.5 0.3666667 0.2500001
v 0.5 9.565326E-15 0.2500001
v -0.5000001 1.299441E-14 0.375
v -0.5000001 0.1833333 0.375
v -0.5 1.281393E-14 -0.3750001
v -0.5 0.1833333 -0.3750001
v 0.5000001 1.624301E-15 -0.375
v 0.5000001 0.55 -0.375
v 0.5 0.55 0.3750001
v 0.5 1.109939E-14 0.3750001
v 0.3028361 1.624301E-15 -0.3750001
v 0.3028361 0.2943732 -0.3750001
v -0.5000001 1.299441E-14 0.4999999
v -0.5000001 0.1833333 0.4999999
v 0.5000001 0 -0.4999999
v 0.3028361 0 -0.5000001
v 0.5000001 0.55 -0.4999999
v 0.3028359 0.2943732 0.5000001
v 0.3028361 0.2943732 -0.5000001
v -0.5 1.281393E-14 -0.5000001
v 0.5 1.281393E-14 0.5000001
v 0.3028359 1.281393E-14 0.5000001
v -0.5 0.1833333 -0.5000001
v 0.5 0.55 0.5000001

vn -0.3442546 0.9388763 -2.980232E-08
vn -1 0 -1.192093E-07
vn 1 0 1.192093E-07
vn 1.192093E-07 0 -1
vn -1.192093E-07 0 1
vn 0 -1 0
vn 0.3442546 -0.9388763 2.980232E-08

vt 9.84252 -15.77115
vt -9.84252 -15.77115
vt 9.84252 26.16204
vt -9.84252 26.16204
vt 9.84252 3.937008
vt -9.84252 3.937008
vt 9.84252 7.874016
vt -9.84252 7.874016
vt 9.84252 18.3727
vt -9.84252 18.3727
vt 9.84252 22.30971
vt -9.84252 22.30971
vt 14.76378 -15.63562
vt 9.84252 -15.63562
vt 14.76378 26.29757
vt 9.84252 26.29757
vt -19.68504 22.30971
vt -19.68504 22.70341
vt 19.68504 7.874016
vt 19.68504 8.267716
vt -9.84252 -15.63562
vt -14.76378 -15.63562
vt -9.84252 26.29757
vt -14.76378 26.29757
vt 19.68504 22.70341
vt 19.68504 22.30971
vt -19.68504 8.267716
vt -19.68504 7.874016
vt 9.84252 3.765876E-13
vt 9.84252 11.5895
vt 14.76378 4.369838E-13
vt 14.76378 11.5895
vt 19.68504 14.4357
vt 19.68504 1.117314E-13
vt 11.92268 11.5895
vt 11.92268 1.117314E-13
vt -19.68504 14.4357
vt -11.92268 11.5895
vt -19.68504 3.892012E-13
vt -11.92268 3.892012E-13
vt 14.76378 3.565633E-13
vt 14.76378 7.217848
vt 14.76378 8.267716
vt 9.84252 8.267716
vt -14.76378 -1.931384E-13
vt -14.76378 7.217848
vt -14.76378 8.267716
vt -9.84252 8.267716
vt 14.76378 1.856454E-12
vt 9.84252 6.481945E-13
vt 14.76378 21.65354
vt 9.84252 14.4357
vt -9.84252 14.4357
vt 14.76378 22.70341
vt 9.84252 22.70341
vt -14.76378 21.65354
vt -14.76378 6.872886E-13
vt -9.84252 9.004372E-13
vt -14.76378 22.70341
vt -9.84252 22.70341
vt -14.76378 6.394885E-14
vt -14.76378 11.5895
vt -9.84252 1.24345E-13
vt -9.84252 11.5895
vt -19.68504 21.65354
vt 19.68504 7.217848
vt 19.68504 21.65354
vt -19.68504 7.217848
vt 19.68504 3.565633E-13
vt -9.84252 -11.92268
vt -9.84252 -19.68504
vt -14.76378 -11.92268
vt -14.76378 -19.68504
vt -19.68504 -19.68504
vt -19.68504 -11.92268
vt 19.68504 1.792505E-12
vt -19.68504 -18.48182
vt -19.68504 15.18366
vt -14.76378 -18.48182
vt -14.76378 15.18366
vt 14.76378 -18.48182
vt -9.84252 15.18366
vt 9.84252 15.18366
vt 14.76378 15.18366
vt 19.68504 15.18366
vt 19.68504 -18.48182
vt 9.84252 23.45137
vt -9.84252 23.45137
vt 19.68504 -19.68504
vt 14.76378 -19.68504
vt 19.68504 -11.92268
vt 14.76378 -11.92268
vt 9.84252 -19.68504
vt 9.84252 -11.92268
vt -19.68504 -3.441805E-31
vt -19.68504 11.5895
vt -19.68504 -1.931384E-13
vt -19.68504 7.547902E-13
vt 19.68504 5.044853E-13
vt 19.68504 11.5895
vt 19.68504 1.121075E-13
vt -19.68504 1.192129E-13
vt 11.92268 1.121075E-13
vt -19.68504 8.14146E-13
vt -11.92268 8.14146E-13
vt 19.68504 1.318631E-12
vt -14.76378 -15.99704
vt -19.68504 -15.99704
vt -14.76378 25.93615
vt -19.68504 25.93615
vt 19.68504 -15.99704
vt 14.76378 -15.99704
vt 19.68504 25.93615
vt 14.76378 25.93615

usemtl asphalt

f 3/3/1 2/2/1 1/1/1
f 2/2/1 3/3/1 4/4/1
f 1/7/2 6/6/2 5/5/2
f 6/6/2 1/7/2 2/8/2
f 4/11/3 8/10/3 7/9/3
f 8/10/3 4/11/3 3/12/3

usemtl pavement

f 11/15/1 10/14/1 9/13/1
f 10/14/1 11/15/1 12/16/1
f 1/19/4 12/18/4 3/17/4
f 12/18/4 1/19/4 10/20/4
f 15/23/1 14/22/1 13/21/1
f 14/22/1 15/23/1 16/24/1
f 13/27/5 4/26/5 15/25/5
f 4/26/5 13/27/5 2/28/5
f 19/31/2 18/30/2 17/29/2
f 18/30/2 19/31/2 20/32/2
f 23/35/5 22/34/5 21/33/5
f 22/34/5 23/35/5 24/36/5
f 26/39/4 18/38/4 25/37/4
f 18/38/4 26/39/4 17/40/4
f 28/42/2 5/5/2 27/41/2
f 5/5/2 28/42/2 1/7/2
f 1/7/2 28/42/2 9/43/2
f 1/7/2 9/43/2 10/44/2
f 6/6/2 27/41/2 5/5/2
f 6/6/2 29/45/2 27/41/2
f 29/45/2 6/6/2 30/46/2
f 30/46/2 6/6/2 2/8/2
f 30/46/2 2/8/2 14/47/2
f 14/47/2 2/8/2 13/48/2
f 32/51/3 22/50/3 31/49/3
f 22/50/3 32/51/3 21/52/3
f 21/52/3 32/51/3 7/9/3
f 21/52/3 7/9/3 25/53/3
f 7/9/3 32/51/3 4/11/3
f 4/11/3 32/51/3 16/54/3
f 4/11/3 16/54/3 15/55/3
f 8/10/3 25/53/3 7/9/3
f 33/56/3 25/53/3 8/10/3
f 34/57/3 25/53/3 33/56/3
f 25/53/3 34/57/3 26/58/3
f 33/56/3 8/10/3 3/12/3
f 33/56/3 3/12/3 11/59/3
f 11/59/3 3/12/3 12/60/3
f 24/63/2 36/62/2 35/61/2
f 36/62/2 24/63/2 23/64/2
f 30/66/4 16/18/4 32/65/4
f 16/18/4 30/66/4 14/20/4
f 9/27/5 33/67/5 11/25/5
f 33/67/5 9/27/5 28/68/5

usemtl grass

f 38/66/2 27/41/2 37/69/2
f 27/41/2 38/66/2 28/42/2
f 35/72/6 22/71/6 24/70/6
f 22/71/6 35/72/6 31/73/6
f 31/73/6 35/72/6 39/74/6
f 39/74/6 35/72/6 40/75/6
f 41/67/3 31/49/3 39/76/3
f 31/49/3 41/67/3 32/51/3
f 27/79/7 42/78/7 37/77/7
f 42/78/7 27/79/7 20/80/7
f 20/80/7 27/79/7 29/81/7
f 20/80/7 29/81/7 18/82/7
f 18/82/7 29/81/7 23/83/7
f 23/83/7 29/81/7 36/84/7
f 36/84/7 29/81/7 43/85/7
f 43/85/7 29/81/7 44/86/7
f 21/87/7 18/82/7 23/83/7
f 18/82/7 21/87/7 25/88/7
f 46/91/6 34/90/6 45/89/6
f 34/90/6 46/91/6 19/92/6
f 34/90/6 19/92/6 26/93/6
f 26/93/6 19/92/6 17/94/6
f 35/61/2 43/96/2 40/95/2
f 43/96/2 35/61/2 36/62/2
f 30/46/2 44/97/2 29/45/2
f 44/97/2 30/46/2 47/68/2
f 33/56/3 45/98/3 34/57/3
f 45/98/3 33/56/3 48/65/3
f 46/99/2 20/32/2 19/31/2
f 20/32/2 46/99/2 42/100/2
f 48/67/5 42/35/5 45/101/5
f 42/35/5 48/67/5 38/68/5
f 42/35/5 38/68/5 37/102/5
f 46/103/5 45/101/5 42/35/5
f 41/65/4 43/38/4 47/66/4
f 43/38/4 41/65/4 39/104/4
f 43/38/4 39/104/4 40/105/4
f 47/66/4 43/38/4 44/106/4
f 32/109/1 47/108/1 30/107/1
f 47/108/1 32/109/1 41/110/1
f 48/113/1 28/112/1 38/111/1
f 28/112/1 48/113/1 33/114/1

