# Created by Kenney (www.kenney.nl)

mtllib tile154.mtl

g tile154

v 0.5 0.5766667 -0.25
v 0.5 0.4666667 -0.25
v 0.5 0.5766667 0.25
v 0.5 0.4666667 0.25
v -0.5 0.1 -0.25
v -0.5 0.2 -0.25
v -0.5 0.1 0.25
v -0.5 0.2 0.25
v -0.5 0.5766667 0.25
v 0.5 7.820707E-16 -0.375
v -0.5 5.414336E-16 -0.375
v 0.5 7.820707E-16 0.375
v -0.5 0 0.375
v -0.5 0.5766667 -0.25
v 0.5 0.5766667 0.375
v -0.5 0.5766667 0.375
v 0.5 0.5766667 -0.375
v -0.5 0.5766667 -0.375

vn 0.3333333 0 0
vn -0.3333333 0 0
vn -0.1174968 0.3119385 0
vn 0 0 -0.3333333
vn 0 -0.3333333 0
vn 0 0 0.3333333
vn 0 0.3333333 0

vt 29.52756 68.11024
vt 29.52756 55.11811
vt -29.52756 68.11024
vt -29.52756 55.11811
vt -29.52756 11.81102
vt -29.52756 23.62205
vt 29.52756 11.81102
vt 29.52756 23.62205
vt 29.52756 79.2729
vt 29.52756 -46.93814
vt -29.52756 79.2729
vt -29.52756 -46.93814
vt 59.05512 68.11024
vt 59.05512 23.62205
vt -59.05512 68.11024
vt 59.05512 -44.29134
vt -59.05512 -44.29134
vt 59.05512 44.29134
vt -59.05512 44.29134
vt -59.05512 23.62205
vt -59.05512 29.52756
vt 59.05512 29.52756
vt -59.05512 -29.52756
vt 59.05512 -29.52756
vt -59.05512 1.480797E-31
vt 59.05512 9.237056E-14
vt -44.29134 68.11024
vt -44.29134 -2.619086E-13
vt 44.29134 -2.619086E-13
vt 44.29134 68.11024
vt 59.05512 6.394885E-14
vt -59.05512 9.237056E-14
vt -44.29134 1.795832E-13
vt 44.29134 1.156344E-13

usemtl asphalt

f 3/3/1 2/2/1 1/1/1
f 2/2/1 3/3/1 4/4/1
f 7/7/2 6/6/2 5/5/2
f 6/6/2 7/7/2 8/8/2
f 1/11/3 8/10/3 3/9/3
f 8/10/3 1/11/3 6/12/3

usemtl pavement

f 3/15/4 8/14/4 9/13/4
f 12/18/5 11/17/5 10/16/5
f 11/17/5 12/18/5 13/19/5
f 14/15/6 6/20/6 1/13/6
f 9/22/7 15/19/7 3/21/7
f 15/19/7 9/22/7 16/18/7
f 18/16/7 1/23/7 17/17/7
f 1/23/7 18/16/7 14/24/7
f 12/26/6 16/15/6 13/25/6
f 16/15/6 12/26/6 15/13/6
f 15/27/1 4/4/1 3/3/1
f 12/28/1 4/4/1 15/27/1
f 12/28/1 2/2/1 4/4/1
f 10/29/1 2/2/1 12/28/1
f 10/29/1 1/1/1 2/2/1
f 1/1/1 10/29/1 17/30/1
f 18/13/4 10/32/4 11/31/4
f 10/32/4 18/13/4 17/15/4
f 11/33/2 5/5/2 18/27/2
f 5/5/2 11/33/2 13/34/2
f 5/5/2 13/34/2 7/7/2
f 7/7/2 13/34/2 8/8/2
f 8/8/2 13/34/2 9/1/2
f 9/1/2 13/34/2 16/30/2
f 5/5/2 14/3/2 18/27/2
f 14/3/2 5/5/2 6/6/2

