# Created by Kenney (www.kenney.nl)

mtllib tile108.mtl

g tile108

v 0.21875 0.21 -0.125
v 0.21875 0.2 -0.125
v 0.21875 0.21 0.125
v 0.21875 0.2 0.125
v -0.40625 0 -0.3125
v 0.40625 0 -0.3125
v -0.40625 0.21 -0.3125
v 0.40625 0.21 -0.3125
v -0.40625 0.1 -0.125
v -0.40625 0 0.3125
v -0.40625 0.1 0.125
v -0.40625 0.2 0.125
v -0.40625 0.21 0.125
v -0.40625 0.21 0.3125
v -0.40625 0.21 -0.125
v -0.40625 0.2 -0.125
v 0.40625 0 0.3125
v 0.40625 0.21 0.3125

vn 0.3333333 0 0
vn -0.3333333 0 0
vn 0 0 -0.3333333
vn 0 0 0.3333333
vn 0 0.3333333 0
vn 0 -0.3333333 0

vt 14.76378 24.80315
vt 14.76378 23.62205
vt -14.76378 24.80315
vt -14.76378 23.62205
vt 47.98228 -2.204663E-41
vt -47.98228 -2.204663E-41
vt 47.98228 24.80315
vt -47.98228 24.80315
vt -36.90945 24.80315
vt -14.76378 11.81102
vt -36.90945 -1.305325E-19
vt 36.90945 -1.305325E-19
vt 14.76378 11.81102
vt 14.76378 23.62205
vt 14.76378 24.80315
vt 36.90945 24.80315
vt -14.76378 24.80315
vt -14.76378 23.62205
vt 47.98228 -2.572223E-41
vt -47.98228 -2.572223E-41
vt -47.98228 36.90945
vt -25.83662 -14.76378
vt -47.98228 -36.90945
vt 47.98228 -36.90945
vt 47.98228 -14.76378
vt -25.83662 14.76378
vt 47.98228 36.90945
vt 47.98228 14.76378
vt 47.98228 23.62205
vt -25.83662 23.62205
vt -25.83662 24.80315
vt 25.83662 23.62205
vt -47.98228 23.62205
vt 25.83662 24.80315
vt 36.90945 0
vt -36.90945 0

usemtl _defaultMat

f 3/3/1 2/2/1 1/1/1
f 2/2/1 3/3/1 4/4/1

usemtl pavement

f 1/1/2 2/2/2 3/3/2
f 4/4/2 3/3/2 2/2/2
f 7/7/3 6/6/3 5/5/3
f 6/6/3 7/7/3 8/8/3
f 5/11/2 9/10/2 7/9/2
f 9/10/2 5/11/2 10/12/2
f 9/10/2 10/12/2 11/13/2
f 11/13/2 10/12/2 12/14/2
f 12/14/2 10/12/2 13/15/2
f 13/15/2 10/12/2 14/16/2
f 9/10/2 15/17/2 7/9/2
f 15/17/2 9/10/2 16/18/2
f 18/7/4 10/20/4 17/19/4
f 10/20/4 18/7/4 14/8/4
f 8/23/5 1/22/5 18/21/5
f 1/22/5 8/23/5 7/24/5
f 1/22/5 7/24/5 15/25/5
f 3/26/5 18/21/5 1/22/5
f 18/21/5 3/26/5 14/27/5
f 14/27/5 3/26/5 13/28/5
f 13/7/3 4/30/3 12/29/3
f 4/30/3 13/7/3 3/31/3
f 17/27/6 5/23/6 6/24/6
f 5/23/6 17/27/6 10/21/6
f 1/34/4 16/33/4 2/32/4
f 16/33/4 1/34/4 15/8/4
f 18/9/1 6/35/1 8/16/1
f 6/35/1 18/9/1 17/36/1

usemtl asphalt

f 11/13/2 16/18/2 9/10/2
f 16/18/2 11/13/2 12/14/2
f 16/25/5 4/26/5 2/22/5
f 4/26/5 16/25/5 12/28/5

