# Created by Kenney (www.kenney.nl)

mtllib tile053.mtl

g tile053

v -0.5 5.414336E-16 -0.5
v -0.5 0.1516667 -0.5
v -0.5 5.188738E-16 0.5
v -0.5 0.1516667 0.5
v 0.5 0 0.5
v 0.5 0.1516667 0.5
v 0.5 0.1516667 -0.5
v 0.5 2.255973E-16 -0.5

vn -1.142857 0 -2.379461E-13
vn -2.379461E-13 0 1.142857
vn 0 1 0
vn 2.379461E-13 0 -1.142857
vn 1.142857 0 2.379461E-13
vn 0 -1 0

vt -17.22441 8.265247E-12
vt -17.22441 5.971128
vt 17.22441 8.264359E-12
vt 17.22441 5.971128
vt 17.22441 -1.965584E-14
vt -17.22441 7.722629E-16
vt -17.22441 -17.22441
vt -17.22441 17.22441
vt 17.22441 -17.22441
vt 17.22441 17.22441
vt -17.22441 8.881784E-15
vt 17.22441 2.131628E-14
vt 17.22441 8.881784E-15
vt -17.22441 -1.976039E-27

usemtl water

f 3/3/1 2/2/1 1/1/1
f 2/2/1 3/3/1 4/4/1
f 6/4/2 3/6/2 5/5/2
f 3/6/2 6/4/2 4/2/2
f 2/9/3 6/8/3 7/7/3
f 6/8/3 2/9/3 4/10/3
f 1/12/4 7/2/4 8/11/4
f 7/2/4 1/12/4 2/4/4
f 6/2/5 8/13/5 7/4/5
f 8/13/5 6/2/5 5/14/5
f 3/8/6 8/9/6 5/10/6
f 8/9/6 3/8/6 1/7/6

