# Created by Kenney (www.kenney.nl)

mtllib tile273.mtl

g tile273

v -0.5000001 0.5666667 0.2499999
v -0.5 0.5666667 -0.2500001
v 0.5 0.5666667 0.2500001
v 0.5000001 0.5666667 -0.2499999
v -0.5000001 0.4666667 0.2499999
v -0.5 0.4666667 -0.2500001
v 0.5000001 0.4666667 -0.2499999
v 0.5 0.4666667 0.2500001
v 0.5000001 0.3666667 -0.375
v 0.5000001 0.5766667 -0.375
v 0.5000001 0.5766667 -0.2499999
v 0.5 0.3666667 0.3750001
v 0.5 0.5766667 0.3750001
v 0.5 0.5766667 0.2500001
v 0.5 2.061959E-14 0.3750001
v 0.5000001 1.71454E-15 -0.375
v -0.5 1.71454E-15 -0.3750001
v -0.5000001 0 0.375
v -0.5000001 0.5766667 0.375
v -0.5000001 0.5766667 0.2499999
v -0.5 0.5766667 -0.3750001
v -0.5 0.5766667 -0.2500001

vn 0 1 0
vn -1 0 -1.192093E-07
vn 1 0 1.192093E-07
vn 1.192093E-07 0 -1
vn -1.192093E-07 0 1
vn 0 -1 0

vt -9.84252 19.68504
vt 9.84252 19.68504
vt -9.84252 -19.68504
vt 9.84252 -19.68504
vt 9.84252 18.3727
vt -9.84252 18.3727
vt 9.84252 22.30971
vt -9.84252 22.30971
vt 14.76378 14.4357
vt 14.76378 22.70341
vt 9.84252 22.70341
vt -14.76378 14.4357
vt -14.76378 22.70341
vt -9.84252 22.70341
vt -14.76378 1.91685E-13
vt 14.76378 -5.526085E-13
vt -14.76378 -1.942391E-13
vt 14.76378 -2.617407E-13
vt -19.68504 22.30971
vt -19.68504 22.70341
vt 19.68504 22.30971
vt 19.68504 22.70341
vt 14.76378 19.68504
vt 14.76378 -19.68504
vt -19.68504 1.382342E-13
vt -19.68504 14.4357
vt 19.68504 1.382342E-13
vt 19.68504 14.4357
vt -19.68504 -1.322718E-14
vt 19.68504 7.985679E-13
vt -14.76378 19.68504
vt -14.76378 -19.68504

usemtl asphalt

f 3/3/1 2/2/1 1/1/1
f 2/2/1 3/3/1 4/4/1
f 1/7/2 6/6/2 5/5/2
f 6/6/2 1/7/2 2/8/2
f 4/7/3 8/6/3 7/5/3
f 8/6/3 4/7/3 3/8/3

usemtl pavement

f 10/10/3 7/5/3 9/9/3
f 7/5/3 10/10/3 4/7/3
f 4/7/3 10/10/3 11/11/3
f 8/6/3 9/9/3 7/5/3
f 8/6/3 12/12/3 9/9/3
f 12/12/3 8/6/3 13/13/3
f 13/13/3 8/6/3 3/8/3
f 13/13/3 3/8/3 14/14/3
f 15/15/3 9/9/3 12/12/3
f 9/9/3 15/15/3 16/16/3
f 18/18/2 5/5/2 17/17/2
f 5/5/2 18/18/2 19/10/2
f 5/5/2 19/10/2 1/7/2
f 1/7/2 19/10/2 20/11/2
f 6/6/2 17/17/2 5/5/2
f 17/17/2 6/6/2 21/13/2
f 21/13/2 6/6/2 2/8/2
f 21/13/2 2/8/2 22/14/2
f 1/21/4 14/20/4 3/19/4
f 14/20/4 1/21/4 20/22/4
f 11/4/1 21/23/1 22/2/1
f 21/23/1 11/4/1 10/24/1
f 17/27/4 9/26/4 16/25/4
f 9/26/4 17/27/4 10/20/4
f 10/20/4 17/27/4 21/22/4
f 22/20/5 4/21/5 11/22/5
f 4/21/5 22/20/5 2/19/5
f 19/20/5 12/28/5 13/22/5
f 18/29/5 12/28/5 19/20/5
f 12/28/5 18/29/5 15/30/5
f 17/31/6 15/24/6 18/23/6
f 15/24/6 17/31/6 16/32/6
f 13/32/1 20/1/1 19/31/1
f 20/1/1 13/32/1 14/3/1

