# Created by Kenney (www.kenney.nl)

mtllib tile171.mtl

g tile171

v -0.5 8.572698E-16 -0.25
v -0.5 0.1516667 -0.25
v -0.5 8.121503E-16 0.5
v -0.5 0.1516667 0.5
v 0.25 1.804779E-16 0.5
v 0.25 0.1516667 0.5
v 0.2435836 0.1516667 0.4021053
v 0.2244444 0.1516667 0.3058857
v 0.1929097 0.1516667 0.2129874
v 0.1495191 0.1516667 0.125
v 0.09501501 0.1516667 0.04342893
v 0.0303301 0.1516667 -0.03033009
v -0.04342892 0.1516667 -0.095015
v -0.125 0.1516667 -0.149519
v -0.2129874 0.1516667 -0.1929096
v -0.3058857 0.1516667 -0.2244444
v -0.4021053 0.1516667 -0.2435836
v 0.5 1.804779E-16 -0.5
v 0.5 0.1833333 -0.5
v -0.5 8.572698E-16 -0.5
v -0.5 0.1833333 -0.5
v 0.5 0.1833333 0.5
v 0.5 0 0.5
v 0.375 9.023893E-17 0.5
v -0.5 8.572698E-16 -0.375
v 0.375 0.1833333 0.5
v 0.3675143 0.1833333 0.3857896
v 0.3451851 0.1833333 0.2735333
v 0.3083946 0.1833333 0.165152
v 0.2577722 0.1833333 0.0625
v 0.1941842 0.1833333 -0.03266625
v 0.1187184 0.1833333 -0.1187184
v 0.03266626 0.1833333 -0.1941842
v -0.06249999 0.1833333 -0.2577722
v -0.165152 0.1833333 -0.3083946
v -0.2735333 0.1833333 -0.3451851
v -0.3857896 0.1833333 -0.3675143
v -0.5 0.1833333 -0.375
v -0.5 0.21 -0.375
v -0.5 0.21 -0.25
v -0.3857896 0.21 -0.3675143
v -0.2735333 0.21 -0.3451851
v -0.165152 0.21 -0.3083946
v -0.06249999 0.21 -0.2577722
v 0.03266626 0.21 -0.1941842
v 0.1187184 0.21 -0.1187184
v 0.1941842 0.21 -0.03266625
v 0.2577722 0.21 0.0625
v 0.3083946 0.21 0.165152
v 0.3451851 0.21 0.2735333
v 0.3675143 0.21 0.3857896
v 0.375 0.21 0.5
v 0.25 0.21 0.5
v 0.2435836 0.21 0.4021053
v 0.2244444 0.21 0.3058857
v 0.1929097 0.21 0.2129874
v 0.1495191 0.21 0.125
v 0.09501501 0.21 0.04342893
v 0.0303301 0.21 -0.03033009
v -0.04342892 0.21 -0.095015
v -0.125 0.21 -0.149519
v -0.2129874 0.21 -0.1929096
v -0.3058857 0.21 -0.2244444
v -0.4021053 0.21 -0.2435836

vn -1 0 0
vn 0 0 1
vn 0 1 0
vn 0 0 -1
vn 1 0 0
vn 0 -1 0
vn 0.06540313 0 -0.9978589
vn 0.1305262 0 -0.9914449
vn 0.258819 0 -0.9659258
vn 0.3826834 0 -0.9238795
vn 0.5 0 -0.8660254
vn 0.6087614 0 -0.7933533
vn 0.7071068 0 -0.7071068
vn 0.7933533 0 -0.6087614
vn 0.8660254 0 -0.5
vn 0.9238795 0 -0.3826834
vn 0.9659258 0 -0.258819
vn 0.9914449 0 -0.1305262
vn 0.9978589 0 -0.06540313
vn -0.06540313 0 0.9978589
vn -0.1305262 0 0.9914449
vn -0.258819 0 0.9659258
vn -0.3826834 0 0.9238795
vn -0.5 0 0.8660254
vn -0.6087614 0 0.7933533
vn -0.7071068 0 0.7071068
vn -0.7933533 0 0.6087614
vn -0.8660254 0 0.5
vn -0.9238795 0 0.3826834
vn -0.9659258 0 0.258819
vn -0.9914449 0 0.1305262
vn -0.9978589 0 0.06540313

vt -9.84252 5.155905E-12
vt -9.84252 5.971128
vt 19.68504 5.154128E-12
vt 19.68504 5.971128
vt 9.84252 7.105427E-15
vt -19.68504 3.197442E-14
vt 9.84252 5.971128
vt -19.68504 5.971128
vt -9.84252 19.68504
vt 19.68504 19.68504
vt -9.589908 15.83092
vt -8.836393 12.04274
vt -7.594869 8.385332
vt -5.886577 4.92126
vt -3.740749 1.7098
vt -1.194098 -1.194098
vt 1.7098 -3.740748
vt 4.921259 -5.886577
vt 8.385331 -7.594868
vt 12.04274 -8.836392
vt 15.83092 -9.589908
vt 19.68504 -9.84252
vt -19.68504 7.105427E-15
vt -19.68504 7.217848
vt 19.68504 3.375078E-14
vt 19.68504 7.217848
vt 19.68504 5.221925E-14
vt -19.68504 4.511382E-14
vt 19.68504 -19.68504
vt 14.76378 19.68504
vt -19.68504 -19.68504
vt 9.84252 19.68504
vt -19.68504 19.68504
vt -19.68504 -9.84252
vt -19.68504 -14.76378
vt 19.68504 -1.293715E-19
vt 14.76378 3.552584E-15
vt 14.76378 7.217848
vt -14.76378 19.68504
vt -14.46907 15.18857
vt -13.58996 10.76903
vt -12.14152 6.502047
vt -10.14851 2.46063
vt -7.645047 -1.286073
vt -4.673954 -4.673954
vt -1.286073 -7.645046
vt 2.460629 -10.14851
vt 6.502047 -12.14152
vt 10.76903 -13.58996
vt 15.18857 -14.46906
vt 19.68504 -14.76378
vt -19.68504 1.419293E-11
vt -14.76378 9.711996E-12
vt -14.76378 7.217848
vt -14.76378 8.267716
vt -9.84252 8.267716
vt 20.60849 7.217848
vt 16.10237 7.217848
vt 20.60849 8.267716
vt 16.10237 8.267716
vt 17.7195 7.217848
vt 13.21338 7.217848
vt 17.7195 8.267716
vt 13.21338 8.267716
vt 14.56587 7.217848
vt 10.05975 7.217848
vt 14.56587 8.267716
vt 10.05975 8.267716
vt 11.20156 7.217848
vt 6.695444 7.217848
vt 11.20156 8.267716
vt 6.695444 8.267716
vt 7.68415 7.217848
vt 3.178029 7.217848
vt 7.68415 8.267716
vt 3.178029 8.267716
vt 4.073808 7.217848
vt -0.432313 7.217848
vt 4.073808 8.267716
vt -0.432313 8.267716
vt 0.4323124 8.267716
vt 0.4323124 7.217848
vt -4.073809 8.267716
vt -4.073809 7.217848
vt -3.17803 8.267716
vt -3.17803 7.217848
vt -7.684151 8.267716
vt -7.684151 7.217848
vt -6.695445 8.267716
vt -6.695445 7.217848
vt -11.20157 8.267716
vt -11.20157 7.217848
vt -10.05975 8.267716
vt -10.05975 7.217848
vt -14.56587 8.267716
vt -14.56587 7.217848
vt -13.21338 8.267716
vt -13.21338 7.217848
vt -17.7195 8.267716
vt -17.7195 7.217848
vt -16.10237 8.267716
vt -16.10237 7.217848
vt -20.60849 8.267716
vt -20.60849 7.217848
vt -20.28662 5.971128
vt -20.28662 8.267716
vt -16.42423 5.971128
vt -16.42423 8.267716
vt -13.53524 5.971128
vt -17.39763 5.971128
vt -13.53524 8.267716
vt -17.39763 8.267716
vt -10.38161 5.971128
vt -14.244 5.971128
vt -10.38161 8.267716
vt -14.244 8.267716
vt -7.01731 5.971128
vt -10.8797 5.971128
vt -7.01731 8.267716
vt -10.8797 8.267716
vt -3.499895 5.971128
vt -7.362285 5.971128
vt -3.499895 8.267716
vt -7.362285 8.267716
vt 0.1104472 5.971128
vt -3.751942 5.971128
vt 0.1104472 8.267716
vt -3.751942 8.267716
vt -0.1104466 5.971128
vt -0.1104466 8.267716
vt 3.751943 5.971128
vt 3.751943 8.267716
vt 3.499896 5.971128
vt 3.499896 8.267716
vt 7.362285 5.971128
vt 7.362285 8.267716
vt 7.017311 5.971128
vt 7.017311 8.267716
vt 10.8797 5.971128
vt 10.8797 8.267716
vt 10.38161 5.971128
vt 10.38161 8.267716
vt 14.244 5.971128
vt 14.244 8.267716
vt 13.53524 5.971128
vt 13.53524 8.267716
vt 17.39763 5.971128
vt 17.39763 8.267716
vt 16.42423 5.971128
vt 16.42423 8.267716
vt 20.28662 5.971128
vt 20.28662 8.267716
vt 9.84252 8.267716
vt 14.76378 8.267716

usemtl water

f 3/3/1 2/2/1 1/1/1
f 2/2/1 3/3/1 4/4/1
f 6/7/2 3/6/2 5/5/2
f 3/6/2 6/7/2 4/8/2
f 7/11/3 4/10/3 6/9/3
f 4/10/3 7/11/3 8/12/3
f 4/10/3 8/12/3 9/13/3
f 4/10/3 9/13/3 10/14/3
f 4/10/3 10/14/3 11/15/3
f 4/10/3 11/15/3 12/16/3
f 4/10/3 12/16/3 13/17/3
f 4/10/3 13/17/3 14/18/3
f 4/10/3 14/18/3 15/19/3
f 4/10/3 15/19/3 16/20/3
f 4/10/3 16/20/3 17/21/3
f 4/10/3 17/21/3 2/22/3

usemtl grass

f 20/25/4 19/24/4 18/23/4
f 19/24/4 20/25/4 21/26/4
f 22/24/5 18/27/5 19/26/5
f 18/27/5 22/24/5 23/28/5
f 24/30/6 18/29/6 23/10/6
f 18/29/6 24/30/6 20/31/6
f 20/31/6 24/30/6 5/32/6
f 20/31/6 5/32/6 3/33/6
f 20/31/6 3/33/6 1/34/6
f 20/31/6 1/34/6 25/35/6
f 22/26/2 24/37/2 23/36/2
f 24/37/2 22/26/2 26/38/2
f 19/31/3 26/39/3 22/33/3
f 26/39/3 19/31/3 27/40/3
f 27/40/3 19/31/3 28/41/3
f 28/41/3 19/31/3 29/42/3
f 29/42/3 19/31/3 30/43/3
f 30/43/3 19/31/3 31/44/3
f 31/44/3 19/31/3 32/45/3
f 32/45/3 19/31/3 33/46/3
f 33/46/3 19/31/3 34/47/3
f 34/47/3 19/31/3 21/29/3
f 34/47/3 21/29/3 35/48/3
f 35/48/3 21/29/3 36/49/3
f 36/49/3 21/29/3 37/50/3
f 37/50/3 21/29/3 38/51/3
f 25/53/1 21/24/1 20/52/1
f 21/24/1 25/53/1 38/54/1

usemtl pavement

f 1/1/1 38/54/1 25/53/1
f 38/54/1 1/1/1 39/55/1
f 39/55/1 1/1/1 40/56/1
f 40/56/1 1/1/1 2/2/1
f 39/59/7 37/58/8 38/57/7
f 37/58/8 39/59/7 41/60/8
f 41/63/8 36/62/9 37/61/8
f 36/62/9 41/63/8 42/64/9
f 42/67/9 35/66/10 36/65/9
f 35/66/10 42/67/9 43/68/10
f 43/71/10 34/70/11 35/69/10
f 34/70/11 43/71/10 44/72/11
f 44/75/11 33/74/12 34/73/11
f 33/74/12 44/75/11 45/76/12
f 45/79/12 32/78/13 33/77/12
f 32/78/13 45/79/12 46/80/13
f 47/83/14 32/82/13 46/81/13
f 32/82/13 47/83/14 31/84/14
f 48/87/15 31/86/14 47/85/14
f 31/86/14 48/87/15 30/88/15
f 49/91/16 30/90/15 48/89/15
f 30/90/15 49/91/16 29/92/16
f 50/95/17 29/94/16 49/93/16
f 29/94/16 50/95/17 28/96/17
f 51/99/18 28/98/17 50/97/17
f 28/98/17 51/99/18 27/100/18
f 52/103/19 27/102/18 51/101/18
f 27/102/18 52/103/19 26/104/19
f 51/40/3 53/9/3 52/39/3
f 53/9/3 51/40/3 50/41/3
f 53/9/3 50/41/3 49/42/3
f 53/9/3 49/42/3 48/43/3
f 53/9/3 48/43/3 54/11/3
f 54/11/3 48/43/3 47/44/3
f 54/11/3 47/44/3 55/12/3
f 55/12/3 47/44/3 56/13/3
f 56/13/3 47/44/3 46/45/3
f 56/13/3 46/45/3 57/14/3
f 57/14/3 46/45/3 58/15/3
f 58/15/3 46/45/3 45/46/3
f 58/15/3 45/46/3 59/16/3
f 59/16/3 45/46/3 44/47/3
f 59/16/3 44/47/3 60/17/3
f 60/17/3 44/47/3 61/18/3
f 61/18/3 44/47/3 43/48/3
f 61/18/3 43/48/3 62/19/3
f 62/19/3 43/48/3 42/49/3
f 62/19/3 42/49/3 63/20/3
f 63/20/3 42/49/3 41/50/3
f 63/20/3 41/50/3 64/21/3
f 64/21/3 41/50/3 39/51/3
f 64/21/3 39/51/3 40/22/3
f 17/107/21 40/106/20 2/105/20
f 40/106/20 17/107/21 64/108/21
f 63/111/22 17/110/21 16/109/22
f 17/110/21 63/111/22 64/112/21
f 62/115/23 16/114/22 15/113/23
f 16/114/22 62/115/23 63/116/22
f 61/119/24 15/118/23 14/117/24
f 15/118/23 61/119/24 62/120/23
f 60/123/25 14/122/24 13/121/25
f 14/122/24 60/123/25 61/124/24
f 59/127/26 13/126/25 12/125/26
f 13/126/25 59/127/26 60/128/25
f 11/131/27 59/130/26 12/129/26
f 59/130/26 11/131/27 58/132/27
f 10/135/28 58/134/27 11/133/27
f 58/134/27 10/135/28 57/136/28
f 9/139/29 57/138/28 10/137/28
f 57/138/28 9/139/29 56/140/29
f 8/143/30 56/142/29 9/141/29
f 56/142/29 8/143/30 55/144/30
f 7/147/31 55/146/30 8/145/30
f 55/146/30 7/147/31 54/148/31
f 6/151/32 54/150/31 7/149/31
f 54/150/31 6/151/32 53/152/32
f 26/38/2 5/5/2 24/37/2
f 5/5/2 26/38/2 6/7/2
f 6/7/2 26/38/2 53/153/2
f 53/153/2 26/38/2 52/154/2

