# Created by Kenney (www.kenney.nl)

mtllib tile207.mtl

g tile207

v 0.5 0 0.5
v -0.375 0 0.5
v 0.5 0.1 0.5
v -0.25 0.1 0.5
v -0.375 0.1833333 0.5
v -0.25 0.2 0.5
v -0.375 0.21 0.5
v -0.25 0.21 0.5
v 0.5 0.1 -0.5
v 0.5 0 -0.5
v 0.06797787 0.21 -0.5
v 0.06797787 0.2 -0.5
v -0.01554446 0.21 -0.375
v -0.01554446 0.2 -0.375
v -0.3111109 0.1833333 0.01471429
v -0.3111109 0.21 0.01471429
v -0.3589591 0.1833333 0.2552634
v -0.3589591 0.21 0.2552634
v -0.08203647 0.1833333 -0.5
v -0.08203647 0.21 -0.5
v -0.1237976 0.1833333 -0.4375
v -0.1237976 0.21 -0.4375
v -0.2322741 0.1833333 -0.2175314
v -0.2322741 0.21 -0.2175314
v -0.2350285 0.21 0.2715791
v -0.2350285 0.2 0.2715791
v -0.1903702 0.21 0.04706667
v -0.1903702 0.2 0.04706667
v -0.1167892 0.21 -0.169696
v -0.1167892 0.2 -0.169696
v -0.08203647 9.926282E-16 -0.5
v 0.06797787 0.1 -0.5
v -0.5 0 0.5
v -0.5 0.1833333 0.5
v -0.5 0 -0.5
v -0.5 0.1833333 -0.5
v 0.5 0.2 0.5
v 0.5 0.2 -0.5

vn 0 0 0.3333333
vn 0.3333333 0 0
vn 0.2771565 0 0.1851901
vn 0.2886752 0 0.1666667
vn -0.3219753 0 -0.08627301
vn -0.3304816 0 -0.04350873
vn -0.2771565 0 -0.1851901
vn -0.2886752 0 -0.1666667
vn -0.3079599 0 -0.1275612
vn 0.3304816 0 0.04350873
vn 0.3326197 0 0.02180104
vn 0.3219753 0 0.08627301
vn 0 0.3333333 0
vn 0.3079599 0 0.1275612
vn -0.3326197 0 -0.02180104
vn 0 0 -0.3333333
vn 0 -0.3333333 0
vn -0.3333333 0 0

vt 59.05512 -5.970869E-10
vt -44.29134 -5.970869E-10
vt 59.05512 11.81102
vt -29.52756 11.81102
vt -44.29134 21.65354
vt -29.52756 23.62205
vt -44.29134 24.80315
vt -29.52756 24.80315
vt 59.05512 0
vt -59.05512 11.81102
vt -59.05512 0
vt 53.56314 24.80315
vt 53.56314 23.62205
vt 35.8069 24.80315
vt 35.8069 23.62205
vt 8.873184 21.65354
vt 8.873184 24.80315
vt 37.84111 21.65354
vt 37.84111 24.80315
vt -43.71943 21.65354
vt -43.71943 24.80315
vt -34.8413 21.65354
vt -34.8413 24.80315
vt -15.51083 21.65354
vt -15.51083 24.80315
vt 13.45709 21.65354
vt 13.45709 24.80315
vt -33.82314 24.80315
vt -33.82314 23.62205
vt -60.85987 24.80315
vt -60.85987 23.62205
vt -9.838781 24.80315
vt -9.838781 23.62205
vt -36.87551 24.80315
vt -36.87551 23.62205
vt -8.028882 -59.05512
vt 1.83596 -44.29134
vt 9.689347 -59.05512
vt 13.794 -20.04284
vt 14.62177 -51.67323
vt 22.48467 5.559055
vt 27.43395 -25.69269
vt 27.75927 32.07628
vt 36.74538 1.737908
vt 29.52756 59.05512
vt 44.29134 59.05512
vt 42.39675 30.14922
vt 14.54523 24.80315
vt 14.54523 23.62205
vt -12.4915 24.80315
vt -12.4915 23.62205
vt 38.91167 24.80315
vt 38.91167 23.62205
vt 11.87494 24.80315
vt 11.87494 23.62205
vt -39.87727 21.65354
vt -39.87727 24.80315
vt -10.90935 21.65354
vt -10.90935 24.80315
vt 32.85755 21.65354
vt 32.85755 24.80315
vt 61.82547 21.65354
vt 61.82547 24.80315
vt -59.05512 6.277447E-14
vt 9.689347 1.172396E-13
vt -8.028882 11.81102
vt 9.689347 21.65354
vt -8.028882 23.62205
vt 9.689347 24.80315
vt -8.028882 24.80315
vt -59.05512 -2.554853E-10
vt -59.05512 21.65354
vt 59.05512 4.936227E-29
vt 59.05512 21.65354
vt 59.05512 59.05512
vt 59.05512 -59.05512
vt -44.29134 59.05512
vt -9.689347 -59.05512
vt -59.05512 -59.05512
vt -59.05512 59.05512
vt -59.05512 -1.240196E-28
vt 59.05512 -1.240196E-28
vt -59.05512 23.62205
vt 59.05512 23.62205

usemtl pavement

f 3/3/1 2/2/1 1/1/1
f 2/2/1 3/3/1 4/4/1
f 4/4/1 5/5/1 2/2/1
f 5/5/1 4/4/1 6/6/1
f 5/5/1 6/6/1 7/7/1
f 7/7/1 6/6/1 8/8/1
f 3/10/2 10/9/2 9/3/2
f 10/9/2 3/10/2 1/11/2
f 13/14/4 12/13/3 11/12/3
f 12/13/3 13/14/4 14/15/4
f 17/18/6 16/17/5 15/16/5
f 16/17/5 17/18/6 18/19/6
f 21/22/8 20/21/7 19/20/7
f 20/21/7 21/22/8 22/23/8
f 15/26/5 24/25/9 23/24/9
f 24/25/9 15/26/5 16/27/5
f 8/30/11 26/29/10 25/28/10
f 26/29/10 8/30/11 6/31/11
f 25/34/10 28/33/12 27/32/12
f 28/33/12 25/34/10 26/35/10
f 20/38/13 13/37/13 11/36/13
f 13/37/13 20/38/13 29/39/13
f 29/39/13 20/38/13 22/40/13
f 29/39/13 22/40/13 27/41/13
f 27/41/13 22/40/13 24/42/13
f 27/41/13 24/42/13 25/43/13
f 25/43/13 24/42/13 16/44/13
f 25/43/13 16/44/13 8/45/13
f 8/45/13 16/44/13 7/46/13
f 7/46/13 16/44/13 18/47/13
f 27/50/12 30/49/14 29/48/14
f 30/49/14 27/50/12 28/51/12
f 29/54/14 14/53/4 13/52/4
f 14/53/4 29/54/14 30/55/14
f 23/58/9 22/57/8 21/56/8
f 22/57/8 23/58/9 24/59/9
f 5/62/15 18/61/6 17/60/6
f 18/61/6 5/62/15 7/63/15
f 31/65/16 9/10/16 10/64/16
f 9/10/16 31/65/16 32/66/16
f 32/66/16 31/65/16 19/67/16
f 32/66/16 19/67/16 12/68/16
f 12/68/16 19/67/16 20/69/16
f 12/68/16 20/69/16 11/70/16

usemtl grass

f 5/5/1 33/71/1 2/2/1
f 33/71/1 5/5/1 34/72/1
f 36/74/16 31/65/16 35/73/16
f 31/65/16 36/74/16 19/67/16
f 2/77/17 10/76/17 1/75/17
f 10/76/17 2/77/17 31/78/17
f 31/78/17 2/77/17 35/79/17
f 35/79/17 2/77/17 33/80/17
f 33/82/18 36/72/18 35/81/18
f 36/72/18 33/82/18 34/74/18
f 36/76/13 21/40/13 19/38/13
f 21/40/13 36/76/13 23/42/13
f 23/42/13 36/76/13 15/44/13
f 15/44/13 36/76/13 17/47/13
f 17/47/13 36/76/13 5/46/13
f 5/46/13 36/76/13 34/75/13

usemtl asphalt

f 38/79/13 6/45/13 37/80/13
f 6/45/13 38/79/13 12/36/13
f 6/45/13 12/36/13 14/37/13
f 6/45/13 14/37/13 30/39/13
f 6/45/13 30/39/13 28/41/13
f 6/45/13 28/41/13 26/43/13
f 32/66/16 38/83/16 9/10/16
f 38/83/16 32/66/16 12/68/16
f 3/3/1 6/6/1 4/4/1
f 6/6/1 3/3/1 37/84/1
f 37/83/2 9/3/2 38/84/2
f 9/3/2 37/83/2 3/10/2

