# Created by Kenney (www.kenney.nl)

mtllib tile023.mtl

g tile023

v 0.5000001 7.264233E-15 -0.4999999
v 0.5 4.065263E-14 0.5000001
v 0.5000001 0.21 -0.4999999
v 0.5 0.21 0.5000001
v -0.5000001 0 0.4999999
v -0.5 4.331469E-15 -0.5000001
v 0.1343084 0.21 0.5000001
v 0.2074073 0.21 0.3235239
v 0.25 0.21 2.980232E-08
v 0.2074074 0.21 -0.3235238
v 0.1343085 0.21 -0.5000001
v -0.4463969 0.21 0.5
v -0.5000001 0.21 0.4999999
v -0.350481 0.21 0.375
v -0.5 0.21 -0.5000001
v -0.2755557 0.21 0.1941143
v -0.25 0.21 -2.980232E-08
v -0.2755556 0.21 -0.1941143
v -0.3504809 0.21 -0.3750001
v -0.4463968 0.21 -0.5000001
v 0.1343085 0.105 -0.5000001
v -0.4463968 0.105 -0.5000001
v -0.4463968 0.2 -0.5000001
v 0.1343085 0.2 -0.5000001
v -0.4463969 0.2 0.5
v -0.4463969 0.105 0.5
v 0.1343084 0.105 0.5000001
v 0.1343084 0.2 0.5000001
v -0.350481 0.2 0.375
v 0.2074073 0.2 0.3235239
v 0.25 0.2 2.980232E-08
v 0.2074074 0.2 -0.3235238
v -0.3504809 0.2 -0.3750001
v -0.2755556 0.2 -0.1941143
v -0.25 0.2 -2.980232E-08
v -0.2755557 0.2 0.1941143

vn 3 0 4.768372E-07
vn 0 -1 0
vn 0 1 0
vn -3 0 -4.768372E-07
vn 4.768372E-07 0 -3
vn -4.768372E-07 0 3
vn 2.38006 0 1.826285
vn 2.598076 0 1.5
vn -2.771638 0 -1.148051
vn -2.897778 0 -0.7764575
vn -2.897778 0 0.7764571
vn -2.771639 0 1.14805
vn 2.38006 0 -1.826284
vn 2.598077 0 -1.5
vn 2.897778 0 -0.7764571
vn 2.897778 0 0.7764575

vt 6.56168 2.659429E-13
vt -6.56168 1.580447E-12
vt 6.56168 8.267716
vt -6.56168 8.267716
vt 6.56168 -6.56168
vt -6.56168 -6.56168
vt 6.56168 6.56168
vt -6.56168 6.56168
vt -6.56168 -1.762578
vt -4.245719 -2.72188
vt 2.366046E-11 -3.28084
vt 4.245719 -2.72188
vt 6.56168 -1.762578
vt -6.56168 5.858226
vt -4.92126 4.599487
vt -2.547431 3.616216
vt 2.370122E-11 3.28084
vt 2.547431 3.616216
vt 4.92126 4.599487
vt 6.56168 5.858226
vt 6.56168 -5.489683E-29
vt -6.56168 1.705303E-13
vt -1.762578 4.133858
vt -6.56168 2.800346E-13
vt 6.56168 1.645715E-13
vt 5.858226 4.133858
vt 5.858226 7.874016
vt 5.858226 8.267716
vt -1.762578 8.267716
vt -1.762578 7.874016
vt -5.858226 8.267716
vt -5.858226 7.874016
vt -5.858226 4.133858
vt -6.56168 1.495517E-13
vt 1.762578 4.133858
vt 6.56168 1.750049E-12
vt 1.762578 8.267716
vt 1.762578 7.874016
vt -8.771993 7.874016
vt -8.771993 8.267716
vt -6.704288 7.874016
vt -6.704288 8.267716
vt 5.387692 7.874016
vt 2.880915 7.874016
vt 5.387692 8.267716
vt 2.880915 8.267716
vt 3.85412 7.874016
vt -0.4282355 7.874016
vt 3.85412 8.267716
vt -0.4282355 8.267716
vt 0.4282355 7.874016
vt -3.85412 7.874016
vt 0.4282355 8.267716
vt -3.85412 8.267716
vt -5.387692 7.874016
vt -5.387692 8.267716
vt -2.880915 7.874016
vt -2.880915 8.267716
vt 8.771993 7.874016
vt 6.704288 7.874016
vt 8.771993 8.267716
vt 6.704288 8.267716
vt 6.306799 7.874016
vt 3.737386 7.874016
vt 6.306799 8.267716
vt 3.737386 8.267716
vt 2.997649 7.874016
vt 2.997649 8.267716
vt -2.997649 7.874016
vt -2.997649 8.267716
vt -3.737386 7.874016
vt -6.306799 7.874016
vt -3.737386 8.267716
vt -6.306799 8.267716
vt 2.366017E-11 -3.28084
vt 2.366017E-11 3.28084

usemtl pavement

f 3/3/1 2/2/1 1/1/1
f 2/2/1 3/3/1 4/4/1
f 5/7/2 1/6/2 2/5/2
f 1/6/2 5/7/2 6/8/2
f 4/6/3 8/10/3 7/9/3
f 8/10/3 4/6/3 3/5/3
f 8/10/3 3/5/3 9/11/3
f 9/11/3 3/5/3 10/12/3
f 10/12/3 3/5/3 11/13/3
f 14/15/3 13/8/3 12/14/3
f 13/8/3 14/15/3 15/7/3
f 15/7/3 14/15/3 16/16/3
f 15/7/3 16/16/3 17/17/3
f 15/7/3 17/17/3 18/18/3
f 15/7/3 18/18/3 19/19/3
f 15/7/3 19/19/3 20/20/3
f 13/3/4 6/22/4 5/21/4
f 6/22/4 13/3/4 15/4/4
f 1/24/5 21/23/5 3/4/5
f 21/23/5 1/24/5 6/25/5
f 21/23/5 6/25/5 22/26/5
f 22/26/5 6/25/5 23/27/5
f 23/27/5 6/25/5 20/28/5
f 20/28/5 6/25/5 15/3/5
f 21/23/5 11/29/5 3/4/5
f 11/29/5 21/23/5 24/30/5
f 13/4/6 25/32/6 12/31/6
f 25/32/6 13/4/6 26/33/6
f 5/34/6 26/33/6 13/4/6
f 5/34/6 27/35/6 26/33/6
f 2/36/6 27/35/6 5/34/6
f 27/35/6 2/36/6 4/3/6
f 27/35/6 4/3/6 7/37/6
f 27/35/6 7/37/6 28/38/6
f 29/41/8 12/40/7 25/39/7
f 12/40/7 29/41/8 14/42/8
f 7/45/9 30/44/10 28/43/9
f 30/44/10 7/45/9 8/46/10
f 8/49/10 31/48/4 30/47/10
f 31/48/4 8/49/10 9/50/4
f 9/53/4 32/52/11 31/51/4
f 32/52/11 9/53/4 10/54/11
f 32/57/11 11/56/12 24/55/12
f 11/56/12 32/57/11 10/58/11
f 20/61/13 33/60/14 23/59/13
f 33/60/14 20/61/13 19/62/14
f 19/65/14 34/64/15 33/63/14
f 34/64/15 19/65/14 18/66/15
f 18/68/15 35/51/1 34/67/15
f 35/51/1 18/68/15 17/53/1
f 17/50/1 36/69/16 35/48/1
f 36/69/16 17/50/1 16/70/16
f 16/73/16 29/72/8 36/71/16
f 29/72/8 16/73/16 14/74/8

usemtl asphalt

f 22/26/5 24/30/5 21/23/5
f 24/30/5 22/26/5 23/27/5
f 25/32/6 27/35/6 28/38/6
f 27/35/6 25/32/6 26/33/6
f 30/10/3 25/14/3 28/9/3
f 25/14/3 30/10/3 29/15/3
f 29/15/3 30/10/3 36/16/3
f 36/16/3 30/10/3 31/75/3
f 36/16/3 31/75/3 35/76/3
f 35/76/3 31/75/3 32/12/3
f 35/76/3 32/12/3 34/18/3
f 34/18/3 32/12/3 33/19/3
f 33/19/3 32/12/3 24/13/3
f 33/19/3 24/13/3 23/20/3

