# Created by Kenney (www.kenney.nl)

mtllib tile193.mtl

g tile193

v 0.5 0.1 -0.5
v 0.5 0.2 -0.5
v -0.25 0.1 -0.5
v -0.25 0.2 -0.5
v 0.5 0.2 0.5
v 0.5 0.1 0.5
v -0.25 0.1 0.5
v -0.25 0.2 0.5
v -0.25 0.2 -0.25
v -0.25 0.2 0.25
v -0.5 0.2 0.25
v -0.5 0.2 -0.25
v -0.5 0.1 -0.25
v -0.5 0.1 0.25
v -0.25 0.21 0.5
v -0.375 0.21 0.5
v -0.25 0.21 0.25
v -0.375 0.21 0.375
v -0.5 0.21 0.25
v -0.5 0.21 0.375
v -0.25 0.21 -0.5
v -0.25 0.21 -0.25
v -0.5 0.21 -0.25
v -0.375 0 0.375
v -0.375 2.105575E-15 -0.375
v -0.5 0 0.375
v -0.5 1.985256E-15 -0.375
v -0.375 2.165734E-15 0.5
v 0.5 2.586849E-15 0.5
v -0.375 2.045416E-15 -0.5
v 0.5 2.586849E-15 -0.5
v -0.375 0.21 -0.375
v -0.375 0.21 -0.5
v -0.5 0.21 -0.375

vn 0 0 -0.3333333
vn 0.3333333 0 0
vn 0 0 0.3333333
vn 0 0.3333333 0
vn -0.3333333 0 0
vn 0 -0.3333333 0

vt -59.05512 11.81102
vt -59.05512 23.62205
vt 29.52756 11.81102
vt 29.52756 23.62205
vt 59.05512 23.62205
vt 59.05512 11.81102
vt -29.52756 11.81102
vt -29.52756 23.62205
vt -59.05512 -59.05512
vt -59.05512 59.05512
vt 29.52756 -59.05512
vt 29.52756 -29.52756
vt 29.52756 29.52756
vt 29.52756 59.05512
vt 59.05512 29.52756
vt 59.05512 -29.52756
vt 44.29134 59.05512
vt 44.29134 44.29134
vt 59.05512 44.29134
vt 59.05512 24.80315
vt 29.52756 24.80315
vt -29.52756 24.80315
vt -59.05512 24.80315
vt -44.29134 44.29134
vt -44.29134 -44.29134
vt -59.05512 44.29134
vt -59.05512 -44.29134
vt -44.29134 59.05512
vt 59.05512 59.05512
vt -44.29134 -59.05512
vt 59.05512 -59.05512
vt 59.05512 3.055334E-13
vt -59.05512 3.055334E-13
vt 44.29134 -44.29134
vt 44.29134 -59.05512
vt 59.05512 -44.29134
vt -44.29134 24.80315
vt -44.29134 2.588539E-12
vt 59.05512 2.638277E-12
vt -44.29134 2.542393E-13
vt 44.29134 1.976017E-14
vt 44.29134 24.80315
vt -59.05512 -2.953247E-12
vt 44.29134 -3.017196E-12
vt -44.29134 0
vt -59.05512 0
vt 44.29134 6.94788E-30
vt 59.05512 2.557954E-13
vt 59.05512 1.858577E-12
vt 44.29134 1.872788E-12
vt -59.05512 4.445968E-13
vt -44.29134 4.517022E-13

usemtl asphalt

f 3/3/1 2/2/1 1/1/1
f 2/2/1 3/3/1 4/4/1
f 5/2/2 1/6/2 2/5/2
f 1/6/2 5/2/2 6/1/2
f 5/5/3 7/7/3 6/6/3
f 7/7/3 5/5/3 8/8/3
f 4/11/4 5/10/4 2/9/4
f 5/10/4 4/11/4 9/12/4
f 5/10/4 9/12/4 10/13/4
f 5/10/4 10/13/4 8/14/4
f 9/12/4 11/15/4 10/13/4
f 11/15/4 9/12/4 12/16/4
f 13/7/5 11/4/5 12/8/5
f 11/4/5 13/7/5 14/3/5

usemtl pavement

f 17/13/4 16/17/4 15/14/4
f 16/17/4 17/13/4 18/18/4
f 18/18/4 17/13/4 19/15/4
f 18/18/4 19/15/4 20/19/4
f 19/20/1 10/4/1 11/5/1
f 10/4/1 19/20/1 17/21/1
f 22/21/2 4/5/2 21/20/2
f 4/5/2 22/21/2 9/4/2
f 22/22/3 12/2/3 9/8/3
f 12/2/3 22/22/3 23/23/3
f 15/23/2 10/8/2 17/22/2
f 10/8/2 15/23/2 8/2/2
f 26/26/6 25/25/6 24/24/6
f 25/25/6 26/26/6 27/27/6
f 25/25/6 28/28/6 24/24/6
f 25/25/6 29/29/6 28/28/6
f 30/30/6 29/29/6 25/25/6
f 29/29/6 30/30/6 31/31/6
f 1/6/2 29/33/2 31/32/2
f 29/33/2 1/6/2 6/1/2
f 33/35/4 32/34/4 21/11/4
f 32/34/4 22/12/4 21/11/4
f 22/12/4 32/34/4 23/16/4
f 23/16/4 32/34/4 34/36/4
f 28/38/3 7/7/3 16/37/3
f 7/7/3 28/38/3 29/39/3
f 7/7/3 29/39/3 6/6/3
f 16/37/3 7/7/3 8/8/3
f 16/37/3 8/8/3 15/22/3
f 27/40/5 13/7/5 12/8/5
f 13/7/5 27/40/5 26/41/5
f 13/7/5 26/41/5 14/3/5
f 14/3/5 26/41/5 11/4/5
f 11/4/5 26/41/5 19/21/5
f 19/21/5 26/41/5 20/42/5
f 23/22/5 27/40/5 12/8/5
f 27/40/5 23/22/5 34/37/5
f 30/44/1 3/3/1 31/43/1
f 3/3/1 30/44/1 33/42/1
f 31/43/1 3/3/1 1/1/1
f 3/3/1 33/42/1 4/4/1
f 4/4/1 33/42/1 21/21/1
f 18/37/3 26/46/3 24/45/3
f 26/46/3 18/37/3 20/23/3
f 28/48/5 18/42/5 24/47/5
f 18/42/5 28/48/5 16/20/5
f 34/20/1 25/50/1 27/49/1
f 25/50/1 34/20/1 32/42/1
f 25/52/5 33/23/5 30/51/5
f 33/23/5 25/52/5 32/37/5

