# Created by Kenney (www.kenney.nl)

mtllib tile027.mtl

g tile027

v -0.5 0.1 0.2500001
v -0.5000001 0.1 -0.2499999
v -0.5 0.2 0.2500001
v -0.5000001 0.2 -0.2499999
v -0.2500001 0.2 -0.5
v -0.2500001 0.1 -0.5
v 0.25 0.2 -0.5000001
v 0.25 0.1 -0.5000001
v -0.25 0.1 0.5000001
v -0.25 0.2 0.5000001
v 0.2500001 0.1 0.5
v 0.2500001 0.2 0.5
v -0.2500001 0.2 -0.25
v -0.25 0.2 0.2500001
v 0.3750001 2.842526E-14 0.5
v 0.3750001 0.1833333 0.5
v 0.5000001 3.239577E-14 0.4999999
v 0.5000001 0.1833333 0.4999999
v -0.5 3.158362E-16 0.5000001
v -0.5 3.158362E-16 0.3750001
v -0.5 0.1833333 0.5000001
v -0.5 0.1833333 0.3750001
v 0.5 3.244089E-14 -0.5000001
v 0.5 0.1833333 -0.5000001
v 0.375 2.833502E-14 -0.5000001
v -0.3750001 4.105871E-15 -0.5
v -0.5000001 9.023893E-17 -0.4999999
v -0.5000001 0 -0.375
v -0.375 4.286349E-15 0.5000001
v -0.5000001 0.1833333 -0.4999999
v -0.3750001 0.1833333 -0.5
v -0.375 0.1833333 0.3750001
v -0.375 0.1833333 0.5000001
v -0.3750001 0.1833333 -0.375
v -0.5000001 0.1833333 -0.375
v 0.375 0.1833333 -0.5000001
v -0.2500001 0.21 -0.5
v -0.2500001 0.21 -0.25
v -0.3750001 0.21 -0.5
v -0.3750001 0.21 -0.375
v -0.5000001 0.21 -0.375
v -0.5000001 0.21 -0.2499999
v -0.5 0.21 0.2500001
v -0.25 0.21 0.2500001
v -0.5 0.21 0.3750001
v -0.375 0.21 0.3750001
v -0.25 0.21 0.5000001
v -0.375 0.21 0.5000001
v 0.2500001 0.21 0.5
v 0.25 0.21 -0.5000001
v 0.375 0.21 -0.5000001
v 0.3750001 0.21 0.5

vn -1 0 1.192093E-07
vn -1.192093E-07 0 -1
vn 1.192093E-07 0 1
vn 0 1 0
vn 1 0 -1.192093E-07
vn 0 -1 0

vt 9.84252 3.937008
vt -9.84252 3.937008
vt 9.84252 7.874016
vt -9.84252 7.874016
vt -9.84252 -19.68504
vt -9.84252 -9.84252
vt 9.84252 -19.68504
vt 9.84252 -9.84252
vt 19.68504 9.84252
vt -19.68504 -9.84252
vt -19.68504 9.84252
vt 19.68504 -9.84252
vt 14.76378 2.359325E-12
vt 14.76378 7.217848
vt 19.68504 2.515644E-12
vt 19.68504 7.217848
vt 19.68504 4.258412E-13
vt 14.76378 4.258412E-13
vt -19.68504 -3.822438E-12
vt -19.68504 7.217848
vt 19.68504 -3.820662E-12
vt 19.68504 19.68504
vt 19.68504 14.76378
vt -19.68504 19.68504
vt 19.68504 -14.76378
vt 19.68504 -19.68504
vt 14.76378 -19.68504
vt -14.76378 -19.68504
vt -19.68504 -19.68504
vt -19.68504 14.76378
vt -19.68504 -14.76378
vt 19.68504 8.303661E-13
vt 14.76378 9.884618E-13
vt 14.76378 -14.76378
vt -14.76378 -14.76378
vt -19.68504 1.076101E-11
vt -14.76378 1.091733E-11
vt -14.76378 7.217848
vt -14.76378 5.929212E-13
vt -19.68504 3.552714E-15
vt -14.76378 -6.635055E-13
vt -19.68504 -4.510493E-12
vt -19.68504 7.874016
vt -19.68504 8.267716
vt -9.84252 8.267716
vt 19.68504 7.874016
vt 19.68504 8.267716
vt 9.84252 8.267716
vt 14.76378 8.267716
vt -14.76378 8.267716

usemtl asphalt

f 3/3/1 2/2/1 1/1/1
f 2/2/1 3/3/1 4/4/1
f 7/4/2 6/1/2 5/3/2
f 6/1/2 7/4/2 8/2/2
f 11/1/3 10/4/3 9/2/3
f 10/4/3 11/1/3 12/3/3
f 3/7/4 13/6/4 4/5/4
f 14/8/4 13/6/4 3/7/4
f 12/9/4 13/6/4 14/8/4
f 12/9/4 5/10/4 13/6/4
f 5/10/4 12/9/4 7/11/4
f 12/9/4 14/8/4 10/12/4

usemtl grass

f 17/15/3 16/14/3 15/13/3
f 16/14/3 17/15/3 18/16/3
f 21/16/1 20/18/1 19/17/1
f 20/18/1 21/16/1 22/14/1
f 23/21/5 18/20/5 17/19/5
f 18/20/5 23/21/5 24/16/5
f 17/24/6 25/23/6 23/22/6
f 25/23/6 17/24/6 26/25/6
f 26/25/6 17/24/6 27/26/6
f 27/26/6 17/24/6 28/27/6
f 28/27/6 17/24/6 20/28/6
f 20/28/6 17/24/6 19/29/6
f 19/29/6 17/24/6 15/30/6
f 19/29/6 15/30/6 29/31/6
f 31/14/2 27/32/2 30/16/2
f 27/32/2 31/14/2 26/33/2
f 22/27/4 33/25/4 32/34/4
f 33/25/4 22/27/4 21/26/4
f 30/29/4 34/35/4 31/31/4
f 34/35/4 30/29/4 35/28/4
f 36/30/4 18/22/4 24/24/4
f 18/22/4 36/30/4 16/23/4
f 29/37/3 21/20/3 19/36/3
f 21/20/3 29/37/3 33/38/3
f 35/38/1 27/40/1 28/39/1
f 27/40/1 35/38/1 30/20/1
f 24/20/2 25/41/2 36/38/2
f 25/41/2 24/20/2 23/42/2

usemtl pavement

f 39/31/4 38/6/4 37/10/4
f 38/6/4 39/31/4 40/35/4
f 38/6/4 40/35/4 41/28/4
f 38/6/4 41/28/4 42/5/4
f 13/4/3 42/44/3 4/43/3
f 42/44/3 13/4/3 38/45/3
f 37/47/5 13/3/5 5/46/5
f 13/3/5 37/47/5 38/48/5
f 45/27/4 44/8/4 43/7/4
f 44/8/4 45/27/4 46/34/4
f 46/34/4 47/12/4 44/8/4
f 47/12/4 46/34/4 48/25/4
f 44/45/5 10/43/5 14/4/5
f 10/43/5 44/45/5 47/44/5
f 43/47/2 14/3/2 3/46/2
f 14/3/2 43/47/2 44/48/2
f 49/47/1 7/43/1 12/46/1
f 7/43/1 49/47/1 50/44/1
f 50/11/4 52/23/4 51/30/4
f 52/23/4 50/11/4 49/9/4
f 48/47/1 32/14/1 33/16/1
f 32/14/1 48/47/1 46/49/1
f 32/38/3 45/44/3 22/20/3
f 45/44/3 32/38/3 46/50/3
f 40/49/2 35/16/2 41/47/2
f 35/16/2 40/49/2 34/14/2
f 34/38/1 39/44/1 31/20/1
f 39/44/1 34/38/1 40/50/1
f 36/16/5 52/44/5 16/20/5
f 52/44/5 36/16/5 51/47/5
f 29/37/3 9/2/3 33/38/3
f 9/2/3 29/37/3 15/13/3
f 33/38/3 9/2/3 48/50/3
f 9/2/3 15/13/3 11/1/3
f 11/1/3 15/13/3 12/3/3
f 12/3/3 15/13/3 49/48/3
f 49/48/3 15/13/3 52/49/3
f 52/49/3 15/13/3 16/14/3
f 9/2/3 47/45/3 48/50/3
f 47/45/3 9/2/3 10/4/3
f 22/14/1 1/1/1 20/18/1
f 1/1/1 22/14/1 3/3/1
f 3/3/1 22/14/1 45/49/1
f 3/3/1 45/49/1 43/48/1
f 2/2/1 20/18/1 1/1/1
f 2/2/1 28/39/1 20/18/1
f 28/39/1 2/2/1 35/38/1
f 35/38/1 2/2/1 4/4/1
f 35/38/1 4/4/1 41/50/1
f 41/50/1 4/4/1 42/45/1
f 51/50/2 7/4/2 50/45/2
f 7/4/2 51/50/2 8/2/2
f 25/41/2 8/2/2 51/50/2
f 25/41/2 6/1/2 8/2/2
f 26/33/2 6/1/2 25/41/2
f 26/33/2 37/48/2 6/1/2
f 31/14/2 37/48/2 26/33/2
f 37/48/2 31/14/2 39/49/2
f 6/1/2 37/48/2 5/3/2
f 25/41/2 51/50/2 36/38/2

