# Created by Kenney (www.kenney.nl)

mtllib tile220.mtl

g tile220

v -0.5 0 -0.5
v -0.5 0.21 -0.5
v -0.5 0 0.5
v -0.5 0.21 0.5
v 0.5 0 0.5
v 0.5 0.1 0.5
v -0.25 0.1 0.5
v -0.25 0.2 0.5
v -0.25 0.21 0.5
v 0.5 0 -0.5
v 0.06797787 0.1 -0.5
v 0.5 0.1 -0.5
v 0.06797787 0.2 -0.5
v 0.06797787 0.21 -0.5
v -0.01554446 0.21 -0.375
v -0.1167892 0.21 -0.169696
v -0.1903702 0.21 0.04706667
v -0.2350285 0.21 0.2715791
v -0.2350285 0.2 0.2715791
v -0.1903702 0.2 0.04706667
v -0.1167892 0.2 -0.169696
v -0.01554446 0.2 -0.375
v 0.5 0.2 -0.5
v 0.5 0.2 0.5

vn -0.3333333 0 0
vn 0 0 0.3333333
vn 0 0 -0.3333333
vn 0.3333333 0 0
vn 0 0.3333333 0
vn 0.3304816 0 0.04350873
vn 0.3326197 0 0.02180104
vn 0.3219753 0 0.08627301
vn 0.3079599 0 0.1275612
vn 0.2886752 0 0.1666667
vn 0.2771565 0 0.1851901
vn 0 -0.3333333 0

vt -59.05512 -1.641437E-29
vt -59.05512 24.80315
vt 59.05512 -1.641437E-29
vt 59.05512 24.80315
vt 59.05512 -8.601508E-10
vt -59.05512 -8.601508E-10
vt 59.05512 11.81102
vt -29.52756 11.81102
vt -29.52756 23.62205
vt -29.52756 24.80315
vt 59.05512 -1.28796E-13
vt -59.05512 -1.28796E-13
vt -8.028882 11.81102
vt -59.05512 11.81102
vt -8.028882 23.62205
vt -8.028882 24.80315
vt 59.05512 0
vt -59.05512 0
vt -8.028882 -59.05512
vt 1.83596 -44.29134
vt 59.05512 -59.05512
vt 13.794 -20.04284
vt 22.48467 5.559055
vt 27.75927 32.07628
vt 29.52756 59.05512
vt 59.05512 59.05512
vt -33.82314 24.80315
vt -33.82314 23.62205
vt -60.85987 24.80315
vt -60.85987 23.62205
vt -9.838781 24.80315
vt -9.838781 23.62205
vt -36.87551 24.80315
vt -36.87551 23.62205
vt 14.54523 24.80315
vt 14.54523 23.62205
vt -12.4915 24.80315
vt -12.4915 23.62205
vt 38.91167 24.80315
vt 38.91167 23.62205
vt 11.87494 24.80315
vt 11.87494 23.62205
vt 53.56314 24.80315
vt 53.56314 23.62205
vt 35.8069 24.80315
vt 35.8069 23.62205
vt 59.05512 23.62205
vt -59.05512 23.62205
vt -59.05512 59.05512
vt -59.05512 -59.05512

usemtl pavement

f 3/3/1 2/2/1 1/1/1
f 2/2/1 3/3/1 4/4/1
f 6/7/2 3/6/2 5/5/2
f 3/6/2 6/7/2 7/8/2
f 7/8/2 4/2/2 3/6/2
f 4/2/2 7/8/2 8/9/2
f 4/2/2 8/9/2 9/10/2
f 2/4/3 10/12/3 1/11/3
f 10/12/3 2/4/3 11/13/3
f 10/12/3 11/13/3 12/14/3
f 11/13/3 2/4/3 13/15/3
f 13/15/3 2/4/3 14/16/3
f 6/14/4 10/17/4 12/7/4
f 10/17/4 6/14/4 5/18/4
f 2/21/5 15/20/5 14/19/5
f 15/20/5 2/21/5 16/22/5
f 16/22/5 2/21/5 17/23/5
f 17/23/5 2/21/5 18/24/5
f 18/24/5 2/21/5 9/25/5
f 9/25/5 2/21/5 4/26/5
f 9/29/7 19/28/6 18/27/6
f 19/28/6 9/29/7 8/30/7
f 18/33/6 20/32/8 17/31/8
f 20/32/8 18/33/6 19/34/6
f 17/37/8 21/36/9 16/35/9
f 21/36/9 17/37/8 20/38/8
f 16/41/9 22/40/10 15/39/10
f 22/40/10 16/41/9 21/42/9
f 15/45/10 13/44/11 14/43/11
f 13/44/11 15/45/10 22/46/10

usemtl asphalt

f 24/48/4 12/7/4 23/47/4
f 12/7/4 24/48/4 6/14/4
f 6/7/2 8/9/2 7/8/2
f 8/9/2 6/7/2 24/47/2
f 23/50/5 8/25/5 24/49/5
f 8/25/5 23/50/5 13/19/5
f 8/25/5 13/19/5 22/20/5
f 8/25/5 22/20/5 21/22/5
f 8/25/5 21/22/5 20/23/5
f 8/25/5 20/23/5 19/24/5
f 11/13/3 23/48/3 12/14/3
f 23/48/3 11/13/3 13/15/3

usemtl _defaultMat

f 3/25/12 10/23/12 5/24/12
f 10/25/12 3/23/12 1/24/12

