# Created by Kenney (www.kenney.nl)

mtllib tile065.mtl

g tile065

v -0.5000001 0.2 0.2499999
v -0.5 0.2 -0.2500001
v 0.5 0.2 0.2500001
v 0.5000001 0.2 -0.2499999
v -0.5000001 0.1 0.2499999
v -0.5 0.1 -0.2500001
v 0.5000001 0.1 -0.2499999
v 0.5 0.1 0.2500001
v 0.5000001 2.707168E-16 -0.4999999
v 0.5000001 2.707168E-16 -0.375
v 0.5000001 0.1833333 -0.4999999
v 0.5000001 0.1833333 -0.375
v -0.5000001 2.707168E-16 0.375
v -0.5000001 0.1833333 0.375
v -0.5000001 3.609557E-16 0.4999999
v -0.5000001 0.1833333 0.4999999
v -0.5 0 -0.5000001
v -0.5 0.1833333 -0.5000001
v 0.5 3.609557E-16 0.5000001
v 0.5 3.609557E-16 0.3750001
v -0.5 0 -0.3750001
v 0.5 0.1833333 0.5000001
v -0.5 0.1833333 -0.3750001
v 0.5 0.1833333 0.3750001
v 0.5 0.42 0.3750001
v -0.2800001 0.42 0.3750001
v 0.5 0.42 0.2500001
v -0.2800001 0.42 0.25
v -0.28 0.42 -0.2500001
v -0.28 0.42 -0.3750001
v 0.5000001 0.42 -0.2499999
v 0.5000001 0.42 -0.375
v -0.5000001 0.2 0.375
v -0.5 0.2 -0.3750001

vn 0 1 0
vn -1 0 -1.192093E-07
vn 1 0 1.192093E-07
vn 1.192093E-07 0 -1
vn 0 -1 0
vn -1.192093E-07 0 1
vn -0.7071068 0.7071068 -5.960464E-08

vt -9.84252 19.68504
vt 9.84252 19.68504
vt -9.84252 -19.68504
vt 9.84252 -19.68504
vt 9.84252 3.937008
vt -9.84252 3.937008
vt 9.84252 7.874016
vt -9.84252 7.874016
vt 19.68504 5.802766E-14
vt 14.76378 5.802766E-14
vt 19.68504 7.217848
vt 14.76378 7.217848
vt 14.76378 -9.841017E-13
vt 19.68504 -9.80549E-13
vt -19.68504 -3.68298E-13
vt -19.68504 7.217848
vt 19.68504 -3.789561E-13
vt 19.68504 19.68504
vt 19.68504 -19.68504
vt 14.76378 19.68504
vt 14.76378 -19.68504
vt -14.76378 19.68504
vt -14.76378 -19.68504
vt -19.68504 -19.68504
vt -19.68504 19.68504
vt 19.68504 2.036889E-13
vt -19.68504 2.036889E-13
vt -14.76378 1.98952E-12
vt -19.68504 1.98952E-12
vt -14.76378 7.217848
vt -14.76378 -5.817452E-14
vt -19.68504 -8.052817E-14
vt -14.76378 11.02362
vt -9.84252 11.02362
vt -19.68504 7.874016
vt -19.68504 16.53543
vt 19.68504 7.874016
vt 11.02362 16.53543
vt 9.84252 11.02362
vt 14.76378 11.02362
vt 19.68504 16.53543
vt -11.02362 16.53543
vt 14.76378 -8.351655
vt 9.84252 -8.351655
vt 14.76378 3.897439
vt 9.84252 3.897439
vt -9.84252 3.897439
vt -9.84252 -8.351655
vt -14.76378 3.897439
vt -14.76378 -8.351655
vt 14.76378 7.874016
vt -14.76378 7.874016
vt 14.76378 16.53543
vt 9.84252 16.53543
vt -14.76378 16.53543
vt -9.84252 16.53543

usemtl asphalt

f 3/3/1 2/2/1 1/1/1
f 2/2/1 3/3/1 4/4/1
f 1/7/2 6/6/2 5/5/2
f 6/6/2 1/7/2 2/8/2
f 4/7/3 8/6/3 7/5/3
f 8/6/3 4/7/3 3/8/3

usemtl grass

f 11/11/3 10/10/3 9/9/3
f 10/10/3 11/11/3 12/12/3
f 15/14/2 14/12/2 13/13/2
f 14/12/2 15/14/2 16/11/2
f 17/17/4 11/16/4 9/15/4
f 11/16/4 17/17/4 18/11/4
f 13/20/5 19/19/5 15/18/5
f 19/19/5 13/20/5 20/21/5
f 20/21/5 13/20/5 21/22/5
f 20/21/5 21/22/5 10/23/5
f 10/23/5 21/22/5 9/24/5
f 9/24/5 21/22/5 17/25/5
f 16/16/6 19/26/6 22/11/6
f 19/26/6 16/16/6 15/27/6
f 23/30/2 17/29/2 21/28/2
f 17/29/2 23/30/2 18/16/2
f 24/30/3 19/32/3 20/31/3
f 19/32/3 24/30/3 22/16/3
f 11/19/1 23/20/1 12/21/1
f 23/20/1 11/19/1 18/18/1
f 22/24/1 14/22/1 16/25/1
f 14/22/1 22/24/1 24/23/1

usemtl pavement

f 27/3/1 26/33/1 25/23/1
f 26/33/1 27/3/1 28/34/1
f 1/37/4 27/36/4 3/35/4
f 27/36/4 1/37/4 28/38/4
f 31/4/1 30/40/1 29/39/1
f 30/40/1 31/4/1 32/21/1
f 29/42/6 4/37/6 31/41/6
f 4/37/6 29/42/6 2/35/6
f 26/45/7 1/44/7 33/43/7
f 1/44/7 26/45/7 28/46/7
f 30/49/7 2/48/7 29/47/7
f 2/48/7 30/49/7 34/50/7
f 23/11/4 32/36/4 12/16/4
f 32/36/4 23/11/4 30/38/4
f 30/38/4 23/11/4 34/37/4
f 26/42/6 24/11/6 25/41/6
f 24/11/6 26/42/6 14/16/6
f 14/16/6 26/42/6 33/35/6
f 14/12/2 5/5/2 13/13/2
f 5/5/2 14/12/2 1/7/2
f 1/7/2 14/12/2 33/51/2
f 6/6/2 13/13/2 5/5/2
f 6/6/2 21/28/2 13/13/2
f 21/28/2 6/6/2 23/30/2
f 23/30/2 6/6/2 2/8/2
f 23/30/2 2/8/2 34/52/2
f 10/10/3 7/5/3 20/31/3
f 7/5/3 10/10/3 12/12/3
f 7/5/3 12/12/3 4/7/3
f 4/7/3 12/12/3 32/53/3
f 4/7/3 32/53/3 31/54/3
f 8/6/3 20/31/3 7/5/3
f 20/31/3 8/6/3 24/30/3
f 24/30/3 8/6/3 3/8/3
f 24/30/3 3/8/3 25/55/3
f 25/55/3 3/8/3 27/56/3

