# Created by Kenney (www.kenney.nl)

mtllib tile038.mtl

g tile038

v 0.5000001 0.5766667 -0.4999999
v -0.5 0.21 -0.5000001
v 0.5000001 0 -0.4999999
v -0.5 0 -0.5000001
v 0.5 0.5766667 0.5000001
v 0.5 0 0.5000001
v -0.5000001 0.21 0.4999999
v -0.5000001 0 0.4999999
v -0.5000001 0.21 0.2499999
v 0.5 0.5766667 0.2500001
v 0.5000001 0.5766667 -0.2499999
v -0.5 0.21 -0.2500001
v 0.5000001 0.2 -0.2499999
v -0.5 0.2 -0.2500001
v 0.5 0.2 0.2500001
v -0.5000001 0.2 0.2499999
v 0.5000001 0.1 -0.2499999
v 0.5 0.1 0.2500001
v -0.5000001 0.1 0.2499999
v -0.5 0.1 -0.2500001

vn 1.192093E-07 0 -1
vn -1.192093E-07 0 1
vn -0.3442546 0.9388763 -2.980232E-08
vn 0 -1 0
vn 1 0 1.192093E-07
vn -1 0 -1.192093E-07
vn 0 1 0

vt -19.68504 22.70341
vt 19.68504 8.267716
vt -19.68504 1.305463E-13
vt 19.68504 1.305463E-13
vt 19.68504 22.70341
vt 19.68504 -1.305463E-13
vt -19.68504 8.267716
vt -19.68504 -1.305463E-13
vt 19.68504 -15.63562
vt 9.84252 -15.63562
vt 19.68504 26.29757
vt 9.84252 26.29757
vt 19.68504 19.68504
vt 19.68504 -19.68504
vt -19.68504 19.68504
vt -19.68504 -19.68504
vt -9.84252 26.29757
vt -9.84252 -15.63562
vt -19.68504 26.29757
vt -19.68504 -15.63562
vt 19.68504 7.874016
vt -19.68504 7.874016
vt -19.68504 -8.865733E-14
vt 9.84252 3.937008
vt 19.68504 -8.865733E-14
vt 9.84252 7.874016
vt 9.84252 22.70341
vt -9.84252 3.937008
vt -9.84252 7.874016
vt -9.84252 22.70341
vt -19.68504 -4.522883E-13
vt 19.68504 -4.522883E-13
vt 9.84252 8.267716
vt -9.84252 8.267716
vt -9.84252 -19.68504
vt -9.84252 19.68504
vt 9.84252 -19.68504
vt 9.84252 19.68504

usemtl pavement

f 3/3/1 2/2/1 1/1/1
f 2/2/1 3/3/1 4/4/1
f 7/7/2 6/6/2 5/5/2
f 6/6/2 7/7/2 8/8/2
f 5/11/3 9/10/3 7/9/3
f 9/10/3 5/11/3 10/12/3
f 4/15/4 6/14/4 8/13/4
f 6/14/4 4/15/4 3/16/4
f 1/19/3 12/18/3 11/17/3
f 12/18/3 1/19/3 2/20/3
f 11/5/2 14/22/2 13/21/2
f 14/22/2 11/5/2 12/7/2
f 16/21/1 10/1/1 15/22/1
f 10/1/1 16/21/1 9/2/1
f 3/25/5 17/24/5 6/23/5
f 17/24/5 3/25/5 1/5/5
f 17/24/5 1/5/5 13/26/5
f 13/26/5 1/5/5 11/27/5
f 18/28/5 6/23/5 17/24/5
f 6/23/5 18/28/5 5/1/5
f 5/1/5 18/28/5 15/29/5
f 5/1/5 15/29/5 10/30/5
f 8/32/6 19/24/6 4/31/6
f 19/24/6 8/32/6 7/2/6
f 4/31/6 19/24/6 20/28/6
f 19/24/6 7/2/6 16/26/6
f 16/26/6 7/2/6 9/33/6
f 20/28/6 2/7/6 4/31/6
f 2/7/6 20/28/6 14/29/6
f 2/7/6 14/29/6 12/34/6

usemtl asphalt

f 13/26/5 18/28/5 17/24/5
f 18/28/5 13/26/5 15/29/5
f 19/24/6 14/29/6 20/28/6
f 14/29/6 19/24/6 16/26/6
f 13/37/7 16/36/7 15/35/7
f 16/36/7 13/37/7 14/38/7

