# Created by Kenney (www.kenney.nl)

mtllib tile194.mtl

g tile194

v 0.375 0.1516667 0.25
v 0.5 0.1516667 0.25
v 0.375 0.21 0.25
v 0.5 0.21 0.25
v 0.5 0.1516667 -0.25
v 0.375 0.1516667 -0.25
v 0.5 0.21 -0.25
v 0.375 0.21 -0.25
v -0.5 0.1516667 0.25
v -0.375 0.1516667 0.25
v -0.5 0.21 0.25
v -0.375 0.21 0.25
v 0.5 1.203186E-16 0.375
v 0.5 0.1833333 0.375
v 0.5 1.203186E-16 0.25
v 0.5 0.21 0.375
v -0.375 0.1516667 -0.25
v -0.5 0.1516667 -0.25
v -0.375 0.21 -0.25
v -0.5 0.21 -0.25
v -0.5 0.21 -0.375
v -0.5 1.203186E-16 -0.25
v -0.5 1.203186E-16 -0.375
v -0.5 0.1833333 -0.375
v 0.25 0.21 -0.5
v 0.375 0.21 -0.5
v 0.25 0.21 0.5
v 0.375 0.21 0.5
v 0.375 0.21 0.375
v 0.375 0.21 -0.375
v 0.5 0.21 -0.375
v 0.375 0.1833333 -0.375
v 0.375 0.1833333 -0.5
v -0.375 0.21 0.5
v -0.375 0.1833333 0.5
v -0.375 0.21 0.375
v -0.375 0.1833333 0.375
v -0.375 2.406371E-16 -0.5
v -0.375 0 0.5
v 0.375 3.609557E-16 -0.5
v 0.375 3.609557E-16 0.5
v -0.25 0.2 0.5
v -0.25 0.21 0.5
v -0.25 0.2 -0.5
v -0.25 0.21 -0.5
v -0.375 0.21 -0.375
v -0.375 0.21 -0.5
v -0.5 0.21 0.375
v 0.25 0.2 0.5
v 0.25 0.2 -0.5
v -0.25 0.1 -0.5
v -0.375 0.1833333 -0.5
v 0.25 0.1 -0.5
v 0.25 0.1 0.5
v 0.375 0.1833333 0.5
v -0.25 0.1 0.5
v 0.5 1.203186E-16 -0.25
v 0.5 1.203186E-16 -0.375
v 0.5 0.1833333 -0.375
v -0.5 0.1833333 0.375
v -0.5 1.203186E-16 0.375
v -0.5 1.203186E-16 0.25
v -0.375 0.1833333 -0.375
v 0.375 0.1833333 0.375
v 0.5 0.1833333 0.5
v -0.5 0.1833333 -0.5
v 0.5 1.203186E-16 -0.5
v 0.5 0.1833333 -0.5
v -0.5 0.1833333 0.5
v -0.5 1.203186E-16 0.5
v -0.5 1.203186E-16 -0.5
v 0.5 1.203186E-16 0.5

vn -5.577483E-14 0 -0.3333333
vn 5.577483E-14 0 0.3333333
vn 0.3333333 0 -5.577483E-14
vn -0.3333333 0 5.577483E-14
vn 0 0.3333333 0
vn 0 -0.3333333 0

vt -44.29134 17.91339
vt -59.05512 17.91339
vt -44.29134 24.80315
vt -59.05512 24.80315
vt 59.05512 17.91339
vt 44.29134 17.91339
vt 59.05512 24.80315
vt 44.29134 24.80315
vt -44.29134 1.298055E-12
vt -44.29134 21.65354
vt -29.52756 1.298055E-12
vt -29.52756 24.80315
vt -29.52756 17.91339
vt -29.52756 1.421085E-14
vt -44.29134 1.421085E-14
vt 29.52756 59.05512
vt 44.29134 59.05512
vt 29.52756 -59.05512
vt 44.29134 -59.05512
vt 44.29134 29.52756
vt 44.29134 -29.52756
vt 44.29134 -44.29134
vt 59.05512 -29.52756
vt 59.05512 -44.29134
vt 44.29134 44.29134
vt 59.05512 29.52756
vt 59.05512 44.29134
vt 44.29134 21.65354
vt 59.05512 21.65354
vt -44.29134 59.05512
vt -44.29134 -59.05512
vt -59.05512 23.62205
vt 59.05512 23.62205
vt -59.05512 44.29134
vt -44.29134 44.29134
vt -59.05512 29.52756
vt -44.29134 29.52756
vt -29.52756 59.05512
vt -44.29134 -29.52756
vt -44.29134 -44.29134
vt -59.05512 -29.52756
vt -59.05512 -44.29134
vt -29.52756 -59.05512
vt -44.29134 -1.275101E-12
vt 29.52756 11.81102
vt 44.29134 1.501183E-12
vt 29.52756 23.62205
vt 29.52756 24.80315
vt -29.52756 11.81102
vt -29.52756 23.62205
vt 44.29134 4.871056E-13
vt -44.29134 -1.24022E-12
vt 29.52756 3.262406E-12
vt 29.52756 17.91339
vt 44.29134 6.343209E-13
vt 44.29134 1.421085E-14
vt 29.52756 1.421085E-14
vt -59.05512 21.65354
vt 59.05512 -59.05512
vt -59.05512 59.05512
vt 59.05512 6.343209E-13
vt -59.05512 -1.303523E-12
vt 59.05512 1.421085E-14
vt 59.05512 59.05512
vt -59.05512 -1.226009E-12
vt 59.05512 1.486972E-12
vt -59.05512 -59.05512
vt 59.05512 1.331945E-12
vt -59.05512 6.343209E-13
vt -59.05512 1.421085E-14

usemtl pavement

f 3/3/1 2/2/1 1/1/1
f 2/2/1 3/3/1 4/4/1
f 7/7/2 6/6/2 5/5/2
f 6/6/2 7/7/2 8/8/2
f 11/7/1 10/6/1 9/5/1
f 10/6/1 11/7/1 12/8/1
f 15/11/3 14/10/3 13/9/3
f 14/10/3 15/11/3 16/3/3
f 16/3/3 15/11/3 4/12/3
f 4/12/3 15/11/3 2/13/3
f 19/3/2 18/2/2 17/1/2
f 18/2/2 19/3/2 20/4/2
f 21/3/4 18/13/4 20/12/4
f 18/13/4 21/3/4 22/14/4
f 22/14/4 21/3/4 23/15/4
f 23/15/4 21/3/4 24/10/4
f 27/18/5 26/17/5 25/16/5
f 26/17/5 27/18/5 28/19/5
f 26/17/5 28/19/5 8/20/5
f 8/20/5 28/19/5 3/21/5
f 3/21/5 28/19/5 29/22/5
f 29/22/5 4/23/5 3/21/5
f 4/23/5 29/22/5 16/24/5
f 8/20/5 30/25/5 26/17/5
f 30/25/5 8/20/5 7/26/5
f 30/25/5 7/26/5 31/27/5
f 33/29/3 30/8/3 32/28/3
f 30/8/3 33/29/3 26/7/3
f 36/8/4 35/29/4 34/7/4
f 35/29/4 36/8/4 37/28/4
f 40/30/6 39/19/6 38/17/6
f 39/19/6 40/30/6 41/31/6
f 44/33/3 43/4/3 42/32/3
f 43/4/3 44/33/3 45/7/3
f 20/36/5 46/35/5 21/34/5
f 46/35/5 20/36/5 19/37/5
f 45/38/5 46/35/5 19/37/5
f 46/35/5 45/38/5 47/30/5
f 45/38/5 19/37/5 12/39/5
f 45/38/5 12/39/5 36/40/5
f 11/41/5 36/40/5 12/39/5
f 36/40/5 11/41/5 48/42/5
f 45/38/5 36/40/5 34/31/5
f 45/38/5 34/31/5 43/43/5
f 25/4/4 49/33/4 27/7/4
f 49/33/4 25/4/4 50/32/4
f 38/46/1 51/45/1 40/44/1
f 51/45/1 38/46/1 52/28/1
f 51/45/1 52/28/1 44/47/1
f 44/47/1 52/28/1 47/8/1
f 44/47/1 47/8/1 45/48/1
f 53/49/1 40/44/1 51/45/1
f 40/44/1 53/49/1 33/10/1
f 33/10/1 53/49/1 50/50/1
f 33/10/1 50/50/1 26/3/1
f 26/3/1 50/50/1 25/12/1
f 55/28/2 54/45/2 41/51/2
f 54/45/2 55/28/2 49/47/2
f 49/47/2 55/28/2 28/8/2
f 49/47/2 28/8/2 27/48/2
f 56/49/2 41/51/2 54/45/2
f 56/49/2 39/52/2 41/51/2
f 39/52/2 56/49/2 35/10/2
f 35/10/2 56/49/2 42/50/2
f 35/10/2 42/50/2 34/3/2
f 34/3/2 42/50/2 43/12/2
f 58/55/3 5/54/3 57/53/3
f 5/54/3 58/55/3 7/48/3
f 7/48/3 58/55/3 31/8/3
f 31/8/3 58/55/3 59/28/3
f 11/48/4 60/28/4 48/8/4
f 60/28/4 11/48/4 61/56/4
f 61/56/4 11/48/4 62/57/4
f 62/57/4 11/48/4 9/54/4
f 21/7/1 63/28/1 24/29/1
f 63/28/1 21/7/1 46/8/1
f 47/4/4 63/10/4 46/3/4
f 63/10/4 47/4/4 52/58/4
f 36/3/2 60/58/2 37/10/2
f 60/58/2 36/3/2 48/4/2
f 19/12/4 10/54/4 12/48/4
f 10/54/4 19/12/4 17/13/4
f 16/7/2 64/28/2 14/29/2
f 64/28/2 16/7/2 29/8/2
f 64/10/3 28/4/3 55/58/3
f 28/4/3 64/10/3 29/3/3
f 30/3/1 59/58/1 32/10/1
f 59/58/1 30/3/1 31/4/1
f 6/54/3 3/12/3 1/13/3
f 3/12/3 6/54/3 8/48/3

usemtl grass

f 55/19/5 14/24/5 64/22/5
f 14/24/5 55/19/5 65/59/5
f 63/35/5 66/60/5 24/34/5
f 66/60/5 63/35/5 52/30/5
f 67/61/3 59/28/3 58/55/3
f 59/28/3 67/61/3 68/29/3
f 40/44/1 68/58/1 67/62/1
f 68/58/1 40/44/1 33/10/1
f 60/28/4 70/63/4 69/29/4
f 70/63/4 60/28/4 61/56/4
f 38/17/6 23/27/6 71/64/6
f 23/27/6 38/17/6 22/26/6
f 22/26/6 38/17/6 62/23/6
f 62/23/6 38/17/6 61/24/6
f 61/24/6 38/17/6 70/59/6
f 70/59/6 38/17/6 39/19/6
f 35/10/2 70/65/2 39/52/2
f 70/65/2 35/10/2 69/58/2
f 66/29/1 38/46/1 71/66/1
f 38/46/1 66/29/1 52/28/1
f 67/60/6 41/31/6 40/30/6
f 41/31/6 67/60/6 72/67/6
f 72/67/6 67/60/6 58/34/6
f 72/67/6 58/34/6 57/36/6
f 72/67/6 57/36/6 15/41/6
f 72/67/6 15/41/6 13/42/6
f 65/29/2 41/51/2 72/68/2
f 41/51/2 65/29/2 55/28/2
f 35/31/5 60/42/5 69/67/5
f 60/42/5 35/31/5 37/40/5
f 32/25/5 68/64/5 33/17/5
f 68/64/5 32/25/5 59/27/5
f 13/9/3 65/58/3 72/69/3
f 65/58/3 13/9/3 14/10/3
f 66/58/4 23/15/4 24/10/4
f 23/15/4 66/58/4 71/70/4

usemtl water

f 9/41/5 17/37/5 18/36/5
f 17/37/5 9/41/5 10/39/5
f 1/21/5 5/26/5 6/20/5
f 5/26/5 1/21/5 2/23/5
f 18/13/4 62/57/4 9/54/4
f 62/57/4 18/13/4 22/14/4
f 57/53/3 2/13/3 15/11/3
f 2/13/3 57/53/3 5/54/3

usemtl asphalt

f 42/43/5 50/16/5 44/38/5
f 50/16/5 42/43/5 49/18/5
f 49/47/2 56/49/2 54/45/2
f 56/49/2 49/47/2 42/50/2
f 44/47/1 53/49/1 51/45/1
f 53/49/1 44/47/1 50/50/1

