# Created by Kenney (www.kenney.nl)

mtllib tile253.mtl

g tile253

v 0.5 0 0.5
v -0.5 0 0.5
v 0.5 0.5500001 0.5
v -0.5 0.5500001 0.5
v -0.5 0 -0.5
v 0.5 0 -0.5
v -0.5 0.5500001 -0.5
v 0.5 0.5500001 -0.5
v 0.5 0.21 0.25
v 0.5 0.2 0.25
v 0.5 0.21 0.375
v 0.5 0.1 0.25
v 0.5 0.1 -0.25
v 0.5 0.21 -0.375
v 0.5 0.2824074 -0.3391835
v 0.5 0.3461528 -0.2895632
v 0.5 0.3986419 -0.2281584
v 0.5 0.4377386 -0.1574682
v 0.5 0.4618518 -0.08036952
v 0.5 0.47 -7.71269E-09
v 0.5 0.4618518 0.0803695
v 0.5 0.4377386 0.1574682
v 0.5 0.425 0.1805007
v 0.5 0.3986419 0.2281584
v 0.5 0.3799716 0.25
v 0.5 0.3461528 0.2895631
v 0.5 0.2824074 0.3391835
v 0.5 0.3799716 -0.25
v 0.5 0.425 -0.1805007
v 0.5 0.21 -0.25
v 0.5 0.2 -0.25
v -0.5 0.21 -0.375
v -0.5 0.1 -0.25
v -0.5 0.21 -0.25
v -0.5 0.1 0.25
v -0.5 0.2 0.25
v -0.5 0.21 0.375
v -0.5 0.2824074 -0.3391835
v -0.5 0.3461528 -0.2895632
v -0.5 0.3986419 -0.2281584
v -0.5 0.4377386 -0.1574682
v -0.5 0.4618518 -0.08036952
v -0.5 0.47 -7.4513E-09
v -0.5 0.4618518 0.0803695
v -0.5 0.4377386 0.1574682
v -0.5 0.425 0.1805007
v -0.5 0.3986419 0.2281584
v -0.5 0.3799716 0.25
v -0.5 0.3461528 0.2895631
v -0.5 0.2824074 0.3391835
v -0.5 0.21 0.25
v -0.5 0.3799716 -0.25
v -0.5 0.425 -0.1805007
v -0.5 0.2 -0.25

vn 0 0 0.3333333
vn 0 0 -0.3333333
vn 0 -0.3333333 0
vn 0 0.3333333 0
vn 0.3333333 0 0
vn -0.3333333 0 0
vn 0 4.671384E-07 0.3333333
vn 0 -4.671385E-07 -0.3333333
vn 0 -0.1477917 -0.2987787
vn 0 -0.1771751 -0.2823475
vn 0 -0.2302388 -0.2410419
vn 0 -0.2533779 -0.2165889
vn 0 -0.2739325 -0.1899265
vn 0 -0.2916929 -0.1613269
vn 0 -0.3064779 -0.1310817
vn 0 -0.3064779 -0.1310817
vn 0 -0.3265505 -0.06690223
vn 0 -0.3265505 0.06690223
vn 0 -0.3064779 0.1310817
vn 0 -0.3064779 0.1310817
vn 0 -0.2916929 0.1613269
vn 0 -0.2739325 0.1899265
vn 0 -0.2533779 0.2165889
vn 0 -0.2302388 0.2410419
vn 0 -0.1771751 0.2823475
vn 0 -0.1477917 0.2987787

vt 59.05512 -9.91979E-13
vt -59.05512 -9.91979E-13
vt 59.05512 64.96063
vt -59.05512 64.96063
vt 59.05512 1.026246E-12
vt -59.05512 1.026246E-12
vt 59.05512 59.05512
vt 59.05512 -59.05512
vt -59.05512 59.05512
vt -59.05512 -59.05512
vt -29.52756 24.80315
vt -29.52756 23.62205
vt -44.29134 24.80315
vt -29.52756 11.81102
vt -59.05512 1.777649E-08
vt 29.52756 11.81102
vt 59.05512 1.777649E-08
vt 44.29134 24.80315
vt 40.06104 33.3552
vt 34.20037 40.88419
vt 26.94784 47.08369
vt 18.59861 51.70141
vt 9.492462 54.54942
vt 4.073081E-08 55.51181
vt -9.492462 54.54942
vt -18.59861 51.70141
vt -21.31898 50.19685
vt -26.94784 47.08369
vt -29.52756 44.87853
vt -34.20037 40.88419
vt -40.06104 33.3552
vt 29.52756 44.87853
vt 21.31898 50.19685
vt 29.52756 24.80315
vt 29.52756 23.62205
vt 29.52756 23.62205
vt -29.52756 11.81103
vt -59.05512 -8.362787E-07
vt 59.05512 -8.362787E-07
vt -29.52756 24.80315
vt 29.52756 11.81103
vt 29.52756 23.62205
vt 44.29134 24.80315
vt -34.20037 40.88419
vt -9.492464 54.54942
vt -1.268722E-06 55.51181
vt 9.492461 54.54942
vt 18.59861 51.70141
vt 26.94784 47.08369
vt 29.52756 44.87853
vt 40.06104 33.3552
vt 29.52756 24.80315
vt -29.52756 44.87853
vt -21.31898 50.19685
vt -29.52756 23.62205
vt -59.05512 -44.29134
vt -59.05512 -29.52756
vt 59.05511 -44.29134
vt 59.05511 -29.52756
vt -59.05512 23.62209
vt -59.05511 24.80319
vt 59.05512 23.62209
vt 59.05512 24.80319
vt 59.05512 23.62201
vt -59.05512 23.62201
vt 59.05511 24.80311
vt -59.05512 24.80311
vt -59.05512 44.29134
vt 59.05511 44.29134
vt -59.05512 29.52756
vt 59.05511 29.52756
vt -59.05512 2.594283
vt -59.05512 12.13541
vt 59.05511 2.594285
vt 59.05511 12.13541
vt -59.05512 1.713236
vt -59.05512 11.25436
vt 59.05511 1.713238
vt 59.05511 11.25436
vt -59.05512 0.5683164
vt -59.05512 6.71567
vt 59.05511 0.5683185
vt 59.05512 6.715672
vt 59.05511 10.10944
vt -59.05512 10.10944
vt -59.05512 -0.7938811
vt -59.05512 5.638525
vt 59.05511 -0.7938783
vt 59.05512 5.638528
vt 59.05511 8.747246
vt -59.05512 8.747243
vt -59.05512 -2.317919
vt -59.05512 7.223205
vt 59.05511 -2.317914
vt 59.05511 7.223209
vt -59.05512 -3.941777
vt -59.05512 5.599347
vt 59.05511 -3.941763
vt 59.05511 5.59936
vt 59.05512 5.599345
vt 59.05512 -3.941778
vt -59.05511 5.599359
vt -59.05511 -3.941765
vt 59.05512 7.223203
vt 59.05512 -2.317921
vt -59.05511 7.223207
vt -59.05511 -2.317916
vt 59.05512 8.747241
vt 59.05512 5.638523
vt -59.05511 8.747244
vt -59.05512 5.638526
vt -59.05511 -0.7938798
vt 59.05512 -0.7938827
vt 59.05512 10.10944
vt 59.05512 6.715673
vt -59.05511 10.10944
vt -59.05512 6.715675
vt -59.05511 0.5683171
vt 59.05512 0.568315
vt 59.05512 1.713235
vt -59.05511 1.713237
vt 59.05512 11.25436
vt -59.05511 11.25436
vt 59.05512 2.594282
vt -59.05511 2.594284
vt 59.05512 12.13541
vt -59.05511 12.13541
vt -59.05512 29.52756
vt 59.05512 29.52756
vt 59.05512 -29.52756

usemtl pavement

f 3/3/1 2/2/1 1/1/1
f 2/2/1 3/3/1 4/4/1
f 7/3/2 6/6/2 5/5/2
f 6/6/2 7/3/2 8/4/2
f 2/9/3 6/8/3 1/7/3
f 6/8/3 2/9/3 5/10/3
f 8/10/4 4/7/4 3/9/4
f 4/7/4 8/10/4 7/8/4
f 11/13/5 10/12/5 9/11/5
f 10/12/5 11/13/5 12/14/5
f 1/15/5 12/14/5 11/13/5
f 1/15/5 13/16/5 12/14/5
f 13/16/5 10/12/5 12/14/5
f 6/17/5 13/16/5 1/15/5
f 13/16/5 6/17/5 14/18/5
f 6/17/5 15/19/5 14/18/5
f 8/3/5 15/19/5 6/17/5
f 15/19/5 8/3/5 16/20/5
f 16/20/5 8/3/5 17/21/5
f 17/21/5 8/3/5 18/22/5
f 18/22/5 8/3/5 19/23/5
f 19/23/5 8/3/5 3/4/5
f 1/15/5 11/13/5 3/4/5
f 19/23/5 3/4/5 20/24/5
f 20/24/5 3/4/5 21/25/5
f 21/25/5 3/4/5 22/26/5
f 22/26/5 3/4/5 23/27/5
f 23/27/5 3/4/5 24/28/5
f 24/28/5 3/4/5 25/29/5
f 25/29/5 3/4/5 26/30/5
f 26/30/5 3/4/5 27/31/5
f 27/31/5 3/4/5 11/13/5
f 16/20/5 17/21/5 28/32/5
f 17/21/5 18/22/5 29/33/5
f 13/16/5 14/18/5 30/34/5
f 13/16/5 30/34/5 31/35/5
f 10/12/5 13/16/5 31/36/5
f 5/38/6 33/37/6 32/13/6
f 33/37/6 5/38/6 2/39/6
f 32/13/6 33/37/6 34/40/6
f 33/37/6 2/39/6 35/41/6
f 35/41/6 2/39/6 36/42/6
f 36/42/6 2/39/6 37/43/6
f 38/31/6 5/38/6 32/13/6
f 38/31/6 7/4/6 5/38/6
f 39/44/6 7/4/6 38/31/6
f 40/28/6 7/4/6 39/44/6
f 41/26/6 7/4/6 40/28/6
f 42/45/6 7/4/6 41/26/6
f 7/4/6 42/45/6 4/3/6
f 4/3/6 37/43/6 2/39/6
f 4/3/6 42/45/6 43/46/6
f 4/3/6 43/46/6 44/47/6
f 4/3/6 44/47/6 45/48/6
f 4/3/6 45/48/6 46/33/6
f 4/3/6 46/33/6 47/49/6
f 4/3/6 47/49/6 48/50/6
f 4/3/6 48/50/6 49/20/6
f 4/3/6 49/20/6 50/51/6
f 4/3/6 50/51/6 37/43/6
f 37/43/6 51/52/6 36/42/6
f 40/28/6 39/44/6 52/53/6
f 41/26/6 40/28/6 53/54/6
f 54/55/6 34/40/6 33/37/6
f 32/58/4 30/57/4 14/56/4
f 30/57/4 32/58/4 34/59/4
f 31/62/7 34/61/7 54/60/7
f 34/61/7 31/62/7 30/63/7
f 51/66/8 10/65/8 36/64/8
f 10/65/8 51/66/8 9/67/8
f 9/70/4 37/69/4 11/68/4
f 37/69/4 9/70/4 51/71/4
f 37/74/9 27/73/10 11/72/9
f 27/73/10 37/74/9 50/75/10
f 50/78/10 26/77/11 27/76/10
f 26/77/11 50/78/10 49/79/11
f 49/82/11 25/81/12 26/80/11
f 25/81/12 49/82/11 48/83/12
f 47/84/13 25/81/12 48/83/12
f 25/81/12 47/84/13 24/85/13
f 47/88/13 23/87/14 24/86/13
f 23/87/14 47/88/13 46/89/14
f 45/90/15 23/87/14 46/89/14
f 23/87/14 45/90/15 22/91/16
f 45/94/15 21/93/17 22/92/16
f 21/93/17 45/94/15 44/95/17
f 44/98/17 20/97/3 21/96/17
f 20/97/3 44/98/17 43/99/3
f 43/102/3 19/101/18 20/100/3
f 19/101/18 43/102/3 42/103/18
f 42/106/18 18/105/19 19/104/18
f 18/105/19 42/106/18 41/107/20
f 41/110/20 29/109/21 18/108/19
f 29/109/21 41/110/20 53/111/21
f 40/112/22 29/109/21 53/111/21
f 29/109/21 40/112/22 17/113/22
f 40/116/22 28/115/23 17/114/22
f 28/115/23 40/116/22 52/117/23
f 39/118/24 28/115/23 52/117/23
f 28/115/23 39/118/24 16/119/24
f 16/122/24 38/121/25 15/120/25
f 38/121/25 16/122/24 39/123/24
f 15/126/25 32/125/26 14/124/26
f 32/125/26 15/126/25 38/127/25

usemtl asphalt

f 35/41/6 54/55/6 33/37/6
f 54/55/6 35/41/6 36/42/6
f 10/12/5 13/16/5 31/36/5
f 13/16/5 10/12/5 12/14/5
f 31/57/4 36/129/4 10/128/4
f 36/129/4 31/57/4 54/130/4

