# Created by Kenney (www.kenney.nl)

mtllib tile285.mtl

g tile285

v -0.25 0.2 0.1875
v 0.5 0.2 0.1875
v -0.25 0.2 0.5
v 0.5 0.2 0.5
v -0.25 0.1 0.5
v 0.5 0.1 0.5
v 0.5 0.1 -0.5
v 0.5 0.19 0.1875
v 0.5 0.19 0.125
v 0.5 0.2 0.125
v 0.5 0.19 -0.125
v 0.5 0.19 -0.1875
v 0.5 0.2 -0.1875
v 0.5 0.2 -0.5
v 0.5 0.2 -0.125
v -0.25 0.2 -0.5
v -0.25 0.2 -0.1875
v -0.25 0.2 0.125
v -0.25 0.2 -0.125
v -0.25 0.1 -0.5
v -0.5 3.609557E-16 -0.5
v -0.5 0.21 -0.5
v -0.25 0.21 -0.5
v 0.5 0 -0.5
v -0.5 0.21 0.5
v -0.5 0.21 0.1875
v -0.25 0.21 0.5
v -0.25 0.21 0.1875
v -0.5 0.21 0.125
v -0.5 0.19 0.125
v -0.5 0.21 -0.125
v -0.5 0.19 -0.125
v -0.5 0.19 0.1875
v -0.5 3.609557E-16 0.5
v -0.5 0.19 -0.1875
v -0.5 0.21 -0.1875
v 0.5 2.255973E-16 0.5
v -0.25 0.21 0.125
v -0.25 0.21 -0.125
v -0.25 0.21 -0.1875

vn 0 1 0
vn -9.251858E-16 0 1
vn 1 0 9.251858E-16
vn 9.251858E-16 0 -1
vn -1 0 -9.251858E-16
vn 0 -1 0

vt -9.84252 -7.38189
vt 19.68504 -7.38189
vt -9.84252 -19.68504
vt 19.68504 -19.68504
vt -9.84252 3.937008
vt -9.84252 7.874016
vt 19.68504 3.937008
vt 19.68504 7.874016
vt -19.68504 3.937008
vt -19.68504 7.874016
vt -7.38189 7.480315
vt -4.921261 7.480315
vt -4.92126 7.874016
vt 4.921259 7.480315
vt 7.38189 7.480315
vt 7.38189 7.874016
vt 4.921259 7.874016
vt -7.38189 7.874016
vt -9.84252 19.68504
vt 19.68504 19.68504
vt -9.84252 7.38189
vt 19.68504 7.38189
vt -9.84252 -4.92126
vt -9.84252 4.921259
vt 19.68504 -4.92126
vt 19.68504 4.921259
vt 9.84252 3.937008
vt 9.84252 7.874016
vt 19.68504 -2.135674E-13
vt 19.68504 8.267716
vt 9.84252 8.267716
vt -19.68504 -2.277782E-13
vt -19.68504 -19.68504
vt -19.68504 -7.38189
vt 4.92126 8.267716
vt 4.92126 7.480315
vt -4.92126 8.267716
vt -4.92126 7.480315
vt -19.68504 1.421085E-14
vt 19.68504 1.421085E-14
vt 7.38189 8.267716
vt -19.68504 8.267716
vt -7.38189 8.267716
vt -19.68504 19.68504
vt -19.68504 -4.92126
vt -19.68504 4.92126
vt -19.68504 7.38189
vt -4.92126 7.874016
vt 4.921259 8.267716
vt 19.68504 1.298065E-13
vt -19.68504 1.351356E-13
vt -9.84252 8.267716
vt -19.68504 -1.506943E-12
vt 19.68504 -1.515824E-12
vt 19.68504 7.480315
vt -19.68504 7.480315
vt 19.68504 -4.921261
vt 19.68504 4.921259

usemtl asphalt

f 3/3/1 2/2/1 1/1/1
f 2/2/1 3/3/1 4/4/1
f 6/7/2 3/6/2 5/5/2
f 3/6/2 6/7/2 4/8/2
f 7/7/3 4/10/3 6/9/3
f 4/10/3 7/7/3 8/11/3
f 8/11/3 7/7/3 9/12/3
f 9/12/3 7/7/3 10/13/3
f 10/13/3 7/7/3 11/14/3
f 11/14/3 7/7/3 12/15/3
f 12/15/3 7/7/3 13/16/3
f 13/16/3 7/7/3 14/8/3
f 15/17/3 10/13/3 11/14/3
f 2/18/3 4/10/3 8/11/3
f 17/21/1 14/20/1 16/19/1
f 14/20/1 17/21/1 13/22/1
f 10/25/1 19/24/1 18/23/1
f 19/24/1 10/25/1 15/26/1
f 16/28/4 7/9/4 20/27/4
f 7/9/4 16/28/4 14/10/4

usemtl pavement

f 22/30/4 20/27/4 21/29/4
f 20/27/4 22/30/4 16/28/4
f 16/28/4 22/30/4 23/31/4
f 7/9/4 21/29/4 20/27/4
f 21/29/4 7/9/4 24/32/4
f 27/3/1 26/34/1 25/33/1
f 26/34/1 27/3/1 28/1/1
f 31/37/5 30/36/5 29/35/5
f 32/38/5 30/36/5 31/37/5
f 21/39/5 30/36/5 32/38/5
f 21/39/5 33/15/5 30/36/5
f 34/40/5 33/15/5 21/39/5
f 34/40/5 26/41/5 33/15/5
f 26/41/5 34/40/5 25/30/5
f 21/39/5 32/38/5 35/11/5
f 21/39/5 35/11/5 22/42/5
f 22/42/5 35/11/5 36/43/5
f 24/44/6 34/4/6 21/20/6
f 34/4/6 24/44/6 37/33/6
f 38/23/1 31/46/1 29/45/1
f 31/46/1 38/23/1 39/24/1
f 36/47/1 23/19/1 22/44/1
f 23/19/1 36/47/1 40/21/1
f 19/17/3 38/37/3 18/48/3
f 38/37/3 19/17/3 39/49/3
f 1/18/3 27/42/3 3/10/3
f 27/42/3 1/18/3 28/43/3
f 16/8/3 40/41/3 17/16/3
f 40/41/3 16/8/3 23/30/3
f 6/7/2 34/51/2 37/50/2
f 34/51/2 6/7/2 5/5/2
f 5/5/2 25/42/2 34/51/2
f 25/42/2 5/5/2 3/6/2
f 25/42/2 3/6/2 27/52/2
f 24/54/3 6/9/3 37/53/3
f 6/9/3 24/54/3 7/7/3

usemtl metal

f 26/30/4 1/28/4 33/55/4
f 1/28/4 26/30/4 28/31/4
f 2/10/4 33/55/4 1/28/4
f 33/55/4 2/10/4 8/56/4
f 8/2/1 30/45/1 33/34/1
f 30/45/1 8/2/1 9/57/1
f 10/8/2 30/56/2 9/55/2
f 30/56/2 10/8/2 18/6/2
f 30/56/2 18/6/2 29/42/2
f 29/42/2 18/6/2 38/52/2
f 13/8/2 35/56/2 12/55/2
f 35/56/2 13/8/2 17/6/2
f 35/56/2 17/6/2 36/42/2
f 36/42/2 17/6/2 40/52/2
f 11/58/1 35/47/1 32/46/1
f 35/47/1 11/58/1 12/22/1
f 32/55/4 15/10/4 11/56/4
f 15/10/4 32/55/4 19/28/4
f 19/28/4 32/55/4 31/30/4
f 19/28/4 31/30/4 39/31/4

