# Created by Kenney (www.kenney.nl)

mtllib tile165.mtl

g tile165

v 0.2500001 0.4666667 -0.5
v 0.2500001 0.5666666 -0.5
v -0.25 0.4666667 -0.5000001
v -0.25 0.5666666 -0.5000001
v 0.25 0.5666667 0.5000001
v -0.2500001 0.5666667 0.5
v 0.25 0.4666667 0.5000001
v -0.2500001 0.4666667 0.5
v -0.3750001 0.55 0.5
v -0.3750001 0.3666666 0.5
v -0.5000001 0.55 0.4999999
v -0.5000001 4.511946E-17 0.4999999
v 0.375 0.3666666 0.5000001
v 0.5 4.511946E-17 0.5000001
v 0.375 0.55 0.5000001
v 0.5 0.55 0.5000001
v 0.5000001 4.511946E-17 -0.4999999
v 0.5000001 4.511946E-17 -0.375
v 0.5000001 0.55 -0.4999999
v 0.5000001 0.55 -0.375
v -0.5000001 4.511946E-17 0.375
v -0.5000001 0.55 0.375
v -0.375 0.55 -0.3750001
v -0.5 0.55 -0.3750001
v -0.375 0.55 -0.5000001
v -0.5 0.55 -0.5000001
v 0.5 4.511946E-17 0.3750001
v -0.5000001 0 0.2499999
v 0.5 0 0.2500001
v -0.5 0 -0.2500001
v 0.5000001 0 -0.2499999
v -0.5 4.511946E-17 -0.3750001
v -0.5 4.511946E-17 -0.5000001
v 0.5 0.55 0.3750001
v 0.375 0.55 0.3750001
v 0.3750001 0.3666666 -0.5
v -0.375 0.3666666 -0.5000001
v 0.3750001 0.55 -0.5
v -0.3750001 0.55 0.375
v 0.3750001 0.55 -0.375
v -0.5000001 0.1516667 0.2499999
v -0.5 0.1516667 -0.2500001
v 0.5 0.1516667 0.2500001
v 0.5000001 0.1516667 -0.2499999
v 0.5000001 0.5766667 -0.2499999
v 0.375 0.3666666 -0.25
v 0.375 0.5766667 -0.25
v -0.375 0.3666666 -0.2500001
v -0.5 0.5766667 -0.2500001
v -0.375 0.5766667 -0.2500001
v 0.5 0.5766667 0.2500001
v 0.5 0.5766667 0.3750001
v -0.5 0.5766667 -0.3750001
v -0.25 0.5766666 -0.5000001
v -0.2500001 0.5766667 0.5
v -0.3750001 0.5766667 0.5
v -0.3750001 0.5766667 0.375
v -0.3750001 0.5766667 0.2499999
v -0.5000001 0.5766667 0.2499999
v -0.375 0.5766666 -0.3750001
v -0.375 0.5766666 -0.5000001
v -0.5000001 0.5766667 0.375
v 0.375 0.5766667 0.3750001
v 0.375 0.5766667 0.2500001
v 0.2500001 0.5766666 -0.5
v 0.25 0.5766667 0.5000001
v 0.375 0.5766667 0.5000001
v 0.3750001 0.5766666 -0.375
v 0.5000001 0.5766667 -0.375
v 0.3750001 0.5766666 -0.5
v -0.3750001 0.3666666 0.2499999
v 0.375 0.3666666 0.2500001

vn 1.192093E-07 0 -1
vn 0 1 0
vn -1.192093E-07 0 1
vn 1 0 1.192093E-07
vn -1 0 -1.192093E-07
vn 3.990577E-07 1 5.684342E-14
vn 0 -1 0
vn -3.990576E-07 1 -5.684342E-14

vt -9.842519 18.3727
vt -9.842519 22.30971
vt 9.84252 18.3727
vt 9.84252 22.30971
vt -19.68504 -9.84252
vt -19.68504 9.84252
vt 19.68504 -9.842519
vt 19.68504 9.84252
vt 9.84252 22.30971
vt -9.84252 22.30971
vt -9.84252 18.3727
vt -14.76378 21.65354
vt -14.76378 14.43569
vt -19.68504 21.65354
vt -19.68504 -1.333312E-07
vt 14.76378 14.43569
vt 19.68504 -1.333312E-07
vt 14.76378 21.65354
vt 19.68504 21.65354
vt 19.68504 1.776357E-15
vt 14.76378 1.776357E-15
vt 19.68504 7.067747E-14
vt 14.76378 7.067747E-14
vt 14.76378 14.76379
vt 14.76378 19.68505
vt 19.68504 14.76379
vt 19.68504 19.68505
vt 19.68504 19.68504
vt 19.68504 -19.68504
vt 14.76378 19.68504
vt 14.76378 -19.68504
vt 9.84252 19.68504
vt 9.84252 -19.68504
vt -9.84252 19.68504
vt -9.84252 -19.68504
vt -14.76378 19.68504
vt -14.76378 -19.68504
vt -19.68504 19.68504
vt -19.68504 -19.68504
vt -19.68504 -14.76378
vt -14.76378 -14.76378
vt -14.76378 14.43569
vt -19.68504 8.826462E-08
vt 19.68504 8.826462E-08
vt 14.76378 21.65354
vt -14.76378 21.65354
vt -19.68504 14.76378
vt -14.76378 14.76378
vt 14.76378 -19.68505
vt 14.76378 -14.76379
vt 19.68504 -19.68505
vt 19.68504 -14.76379
vt -14.76378 1.776357E-15
vt -19.68504 1.776357E-15
vt -14.76378 1.151763E-13
vt 9.84252 4.736689E-29
vt -9.84252 3.56845E-30
vt 9.84252 5.971128
vt -9.84252 5.971128
vt 9.84252 1.082732E-12
vt -9.84252 1.134E-13
vt 19.68504 22.70341
vt 14.76378 14.43569
vt 14.76378 22.70341
vt 19.68504 5.971128
vt -19.68504 5.971128
vt -19.68504 22.70341
vt -14.76378 22.70341
vt -9.84252 22.70341
vt 19.68504 22.30971
vt -19.68504 22.30971
vt 19.68504 22.70341
vt -19.68504 22.70341
vt -19.68504 14.76378
vt -14.76378 14.76378
vt -19.68504 9.842521
vt 19.68504 9.842522
vt -9.842521 14.76378
vt -9.842521 19.68504
vt 9.842519 14.76378
vt 14.76378 14.76378
vt 19.68504 14.76378
vt 14.76378 19.68504
vt 9.842519 19.68504
vt -14.76378 19.68504
vt 14.76378 22.70341
vt -14.76378 -19.68504
vt -14.76378 -14.76378
vt -9.842521 -19.68504
vt -9.842521 -14.76378
vt 19.68504 -9.842521
vt -19.68504 -9.842522
vt -19.68504 -14.76378
vt 9.842519 -14.76378
vt 14.76378 -14.76378
vt 9.842519 -19.68504
vt 14.76378 -19.68504
vt 19.68504 -14.76378
vt -19.68504 22.30971
vt -19.68504 22.70341
vt 19.68504 22.30971
vt 19.68504 22.70341
vt -14.76378 22.70341
vt 9.84252 22.70341
vt 14.76378 22.70341
vt 14.76378 21.65354
vt -9.84252 22.70341
vt -9.84252 22.30971
vt -9.84252 22.70341
vt -14.76378 22.70341
vt 9.84252 22.70341
vt 14.76378 22.70341
vt 19.68504 21.65354
vt 19.68504 22.70341
vt 14.76378 22.70341
vt 9.842521 14.76378
vt 9.842521 -14.76378
vt -9.842519 14.76378
vt -9.842519 -14.76378
vt 9.84252 22.70341
vt -19.68504 21.65354
vt -19.68504 22.70341
vt -14.76378 21.65354
vt -14.76378 22.70341
vt -9.84252 14.43569
vt 9.84252 14.43569
vt 14.76378 21.65354
vt 14.76378 22.70341
vt -19.68504 22.70341
vt -14.76378 21.65354
vt -14.76378 22.70341
vt 9.842519 14.43569
vt -9.842521 14.43569

usemtl asphalt

f 3/3/1 2/2/1 1/1/1
f 2/2/1 3/3/1 4/4/1
f 2/7/2 6/6/2 5/5/2
f 6/6/2 2/7/2 4/8/2
f 6/10/3 7/3/3 5/9/3
f 7/3/3 6/10/3 8/11/3

usemtl grass

f 11/14/3 10/13/3 9/12/3
f 12/15/3 10/13/3 11/14/3
f 12/15/3 13/16/3 10/13/3
f 14/17/3 13/16/3 12/15/3
f 14/17/3 15/18/3 13/16/3
f 15/18/3 14/17/3 16/19/3
f 19/19/4 18/21/4 17/20/4
f 18/21/4 19/19/4 20/18/4
f 11/19/5 21/23/5 12/22/5
f 21/23/5 11/19/5 22/18/5
f 25/26/6 24/25/6 23/24/6
f 24/25/6 25/26/6 26/27/6
f 21/30/7 14/29/7 12/28/7
f 14/29/7 21/30/7 27/31/7
f 27/31/7 21/30/7 28/32/7
f 27/31/7 28/32/7 29/33/7
f 29/33/7 28/32/7 30/34/7
f 29/33/7 30/34/7 31/35/7
f 31/35/7 30/34/7 32/36/7
f 31/35/7 32/36/7 18/37/7
f 18/37/7 32/36/7 33/38/7
f 18/37/7 33/38/7 17/39/7
f 34/37/2 15/40/2 16/39/2
f 15/40/2 34/37/2 35/41/2
f 17/43/1 36/42/1 19/14/1
f 36/42/1 17/43/1 33/44/1
f 36/42/1 33/44/1 37/16/1
f 37/16/1 33/44/1 25/45/1
f 25/45/1 33/44/1 26/19/1
f 38/46/1 19/14/1 36/42/1
f 9/47/2 22/36/2 11/38/2
f 22/36/2 9/47/2 39/48/2
f 19/51/8 40/50/8 20/49/8
f 40/50/8 19/51/8 38/52/8
f 34/12/4 14/54/4 27/53/4
f 14/54/4 34/12/4 16/14/4
f 24/12/5 33/54/5 32/55/5
f 33/54/5 24/12/5 26/14/5

usemtl water

f 43/35/2 42/32/2 41/34/2
f 42/32/2 43/35/2 44/33/2
f 44/58/4 29/57/4 31/56/4
f 29/57/4 44/58/4 43/59/4
f 41/58/5 30/61/5 28/60/5
f 30/61/5 41/58/5 42/59/5

usemtl pavement

f 47/64/3 46/63/3 45/62/3
f 46/63/3 44/65/3 45/62/3
f 44/65/3 46/63/3 42/66/3
f 42/66/3 46/63/3 48/13/3
f 42/66/3 48/13/3 49/67/3
f 49/67/3 48/13/3 50/68/3
f 43/59/4 27/53/4 29/57/4
f 27/53/4 43/59/4 34/12/4
f 34/12/4 43/59/4 51/69/4
f 34/12/4 51/69/4 52/68/4
f 42/59/5 32/55/5 30/61/5
f 32/55/5 42/59/5 24/12/5
f 24/12/5 42/59/5 49/69/5
f 24/12/5 49/69/5 53/68/5
f 54/72/4 6/71/4 4/70/4
f 6/71/4 54/72/4 55/73/4
f 55/76/2 57/75/2 56/74/2
f 57/75/2 55/76/2 54/77/2
f 57/75/2 54/77/2 58/78/2
f 57/75/2 58/78/2 59/79/2
f 58/78/2 54/77/2 50/80/2
f 50/80/2 54/77/2 60/81/2
f 60/81/2 54/77/2 61/82/2
f 53/83/2 50/80/2 60/81/2
f 50/80/2 53/83/2 49/84/2
f 59/79/2 62/85/2 57/75/2
f 9/19/5 57/86/5 39/18/5
f 57/86/5 9/19/5 56/62/5
f 51/89/2 63/88/2 52/87/2
f 63/88/2 51/89/2 64/90/2
f 65/91/2 63/88/2 64/90/2
f 66/92/2 63/88/2 65/91/2
f 63/88/2 66/92/2 67/93/2
f 65/91/2 64/90/2 47/94/2
f 65/91/2 47/94/2 68/95/2
f 68/95/2 47/94/2 45/96/2
f 68/95/2 45/96/2 69/97/2
f 65/91/2 68/95/2 70/98/2
f 5/101/5 65/100/5 2/99/5
f 65/100/5 5/101/5 66/102/5
f 36/42/1 1/1/1 38/46/1
f 1/1/1 36/42/1 37/16/1
f 38/46/1 1/1/1 70/103/1
f 1/1/1 37/16/1 3/3/1
f 3/3/1 37/16/1 4/4/1
f 4/4/1 37/16/1 54/104/1
f 54/104/1 37/16/1 61/105/1
f 61/105/1 37/16/1 25/106/1
f 1/1/1 65/107/1 70/103/1
f 65/107/1 1/1/1 2/108/1
f 56/110/3 6/10/3 55/109/3
f 6/10/3 56/110/3 8/11/3
f 10/13/3 8/11/3 56/110/3
f 10/13/3 7/3/3 8/11/3
f 13/16/3 7/3/3 10/13/3
f 13/16/3 66/111/3 7/3/3
f 15/18/3 66/111/3 13/16/3
f 66/111/3 15/18/3 67/112/3
f 7/3/3 66/111/3 5/9/3
f 10/13/3 56/110/3 9/12/3
f 70/114/4 40/106/4 38/113/4
f 40/106/4 70/114/4 68/115/4
f 48/118/7 72/117/7 71/116/7
f 72/117/7 48/118/7 46/119/7
f 43/66/1 72/13/1 51/67/1
f 72/13/1 43/66/1 41/65/1
f 72/13/1 41/65/1 71/16/1
f 71/16/1 41/65/1 59/62/1
f 59/62/1 58/86/1 71/16/1
f 64/68/1 51/67/1 72/13/1
f 18/21/4 44/58/4 31/56/4
f 44/58/4 18/21/4 20/18/4
f 44/58/4 20/18/4 45/120/4
f 45/120/4 20/18/4 69/86/4
f 21/23/5 41/58/5 28/60/5
f 41/58/5 21/23/5 22/18/5
f 41/58/5 22/18/5 59/120/5
f 59/120/5 22/18/5 62/86/5
f 23/18/1 53/102/1 60/86/1
f 53/102/1 23/18/1 24/19/1
f 23/123/5 61/122/5 25/121/5
f 61/122/5 23/123/5 60/124/5
f 62/67/3 39/12/3 57/68/3
f 39/12/3 62/67/3 22/14/3
f 71/126/5 50/69/5 48/125/5
f 50/69/5 71/126/5 58/120/5
f 52/62/3 35/127/3 34/19/3
f 35/127/3 52/62/3 63/128/3
f 63/68/4 15/14/4 35/12/4
f 15/14/4 63/68/4 67/67/4
f 40/130/1 69/129/1 20/14/1
f 69/129/1 40/130/1 68/131/1
f 47/120/4 72/133/4 46/132/4
f 72/133/4 47/120/4 64/69/4

