# Created by Kenney (www.kenney.nl)

mtllib tile160.mtl

g tile160

v -0.5 9.023893E-17 0.5000001
v -0.5 9.023893E-17 0.2500001
v -0.5 0.1833333 0.5000001
v -0.5 0.1516667 0.2500001
v -0.5 0.1833333 0.2500001
v 0.5 2.707168E-16 -0.2500001
v 0.5 0.1516667 -0.2500001
v 0.5 4.511947E-16 -0.5000001
v 0.5 0.1833333 -0.5000001
v 0.5 0.1833333 -0.2500001
v -0.5000001 5.414336E-16 -0.4999999
v -0.2500001 4.511947E-16 -0.5
v -0.5000001 0.1833333 -0.4999999
v -0.2500001 0.1833333 -0.5
v -0.2500001 0.1516667 -0.5
v 0.2500001 0 0.5
v 0.2500001 0.1516667 0.5
v 0.5000001 2.255973E-17 0.4999999
v 0.2500001 0.1833333 0.5
v 0.5000001 0.1833333 0.4999999
v -0.2521389 0.1833333 -0.4673685
v -0.5000001 0.1833333 -0.2499999
v -0.2585186 0.1833333 -0.4352952
v -0.2690302 0.1833333 -0.4043292
v -0.2834937 0.1833333 -0.375
v -0.3016617 0.1833333 -0.3478096
v -0.3232234 0.1833333 -0.3232233
v -0.3478097 0.1833333 -0.3016617
v -0.3750001 0.1833333 -0.2834936
v -0.4043292 0.1833333 -0.2690301
v -0.4352953 0.1833333 -0.2585185
v -0.4673685 0.1833333 -0.2521387
v 0.5000001 0.1833333 0.2499999
v 0.4673685 0.1833333 0.2521387
v 0.4352953 0.1833333 0.2585185
v 0.4043292 0.1833333 0.2690301
v 0.3750001 0.1833333 0.2834936
v 0.3478097 0.1833333 0.3016617
v 0.3232234 0.1833333 0.3232233
v 0.3016617 0.1833333 0.3478096
v 0.2834937 0.1833333 0.375
v 0.2690302 0.1833333 0.4043292
v 0.2585186 0.1833333 0.4352952
v 0.2521389 0.1833333 0.4673685
v 0.25 4.511947E-16 -0.5000001
v -0.5000001 3.835154E-16 -0.2499999
v 0.5000001 9.023893E-17 0.2499999
v -0.25 2.255973E-17 0.5000001
v -0.25 0.1833333 0.5000001
v -0.25 0.1516667 0.5000001
v 0.5000001 0.1516667 0.2499999
v 0.25 0.1833333 -0.5000001
v 0.25 0.1516667 -0.5000001
v -0.5000001 0.1516667 -0.2499999
v -0.4673685 0.1833333 0.2521389
v -0.4352953 0.1833333 0.2585186
v -0.4043292 0.1833333 0.2690302
v -0.375 0.1833333 0.2834937
v -0.3478096 0.1833333 0.3016617
v -0.3232233 0.1833333 0.3232234
v -0.3016617 0.1833333 0.3478097
v -0.2834936 0.1833333 0.3750001
v -0.2690301 0.1833333 0.4043292
v -0.2585185 0.1833333 0.4352953
v -0.2521387 0.1833333 0.4673685
v 0.2521387 0.1833333 -0.4673685
v 0.2585185 0.1833333 -0.4352953
v 0.2690301 0.1833333 -0.4043292
v 0.2834936 0.1833333 -0.3750001
v 0.3016617 0.1833333 -0.3478097
v 0.3232233 0.1833333 -0.3232234
v 0.3478096 0.1833333 -0.3016617
v 0.375 0.1833333 -0.2834937
v 0.4043292 0.1833333 -0.2690302
v 0.4352953 0.1833333 -0.2585186
v 0.4673685 0.1833333 -0.2521389
v -0.2521389 0.1516667 -0.4673685
v -0.2585186 0.1516667 -0.4352952
v -0.2690302 0.1516667 -0.4043292
v -0.2834937 0.1516667 -0.375
v -0.3016617 0.1516667 -0.3478096
v -0.3232234 0.1516667 -0.3232233
v -0.3478097 0.1516667 -0.3016617
v -0.3750001 0.1516667 -0.2834936
v -0.4043292 0.1516667 -0.2690301
v -0.4352953 0.1516667 -0.2585185
v -0.4673685 0.1516667 -0.2521387
v 0.4673685 0.1516667 -0.2521389
v 0.4352953 0.1516667 -0.2585186
v 0.4043292 0.1516667 -0.2690302
v 0.375 0.1516667 -0.2834937
v 0.3478096 0.1516667 -0.3016617
v 0.3232233 0.1516667 -0.3232234
v 0.3016617 0.1516667 -0.3478097
v 0.2834936 0.1516667 -0.3750001
v 0.2690301 0.1516667 -0.4043292
v 0.2585185 0.1516667 -0.4352953
v 0.2521387 0.1516667 -0.4673685
v 0.2521389 0.1516667 0.4673685
v 0.2585186 0.1516667 0.4352952
v 0.2690302 0.1516667 0.4043292
v 0.2834937 0.1516667 0.375
v 0.3016617 0.1516667 0.3478096
v 0.3232234 0.1516667 0.3232233
v 0.3478097 0.1516667 0.3016617
v 0.3750001 0.1516667 0.2834936
v 0.4043292 0.1516667 0.2690301
v 0.4352953 0.1516667 0.2585185
v 0.4673685 0.1516667 0.2521387
v -0.4673685 0.1516667 0.2521389
v -0.4352953 0.1516667 0.2585186
v -0.4043292 0.1516667 0.2690302
v -0.375 0.1516667 0.2834937
v -0.3478096 0.1516667 0.3016617
v -0.3232233 0.1516667 0.3232234
v -0.3016617 0.1516667 0.3478097
v -0.2834936 0.1516667 0.3750001
v -0.2690301 0.1516667 0.4043292
v -0.2585185 0.1516667 0.4352953
v -0.2521387 0.1516667 0.4673685

vn -1 0 1.192093E-07
vn 1 0 -1.192093E-07
vn -1.192093E-07 0 -1
vn 1.192093E-07 0 1
vn 0 1 0
vn 0 -1 0
vn 0.991445 0 0.1305261
vn 0.9978591 0 0.06540304
vn 0.9659259 0 0.258819
vn 0.9238797 0 0.3826834
vn 0.8660256 0 0.4999999
vn 0.7933535 0 0.6087614
vn 0.7071069 0 0.7071068
vn 0.6087616 0 0.7933534
vn 0.5000002 0 0.8660255
vn 0.3826836 0 0.9238795
vn 0.2588192 0 0.9659259
vn 0.1305263 0 0.9914449
vn 0.06540325 0 0.9978591
vn -0.1305261 0 0.991445
vn -0.06540301 0 0.9978591
vn -0.258819 0 0.9659259
vn -0.3826834 0 0.9238797
vn -0.4999999 0 0.8660256
vn -0.6087614 0 0.7933535
vn -0.7071068 0 0.7071069
vn -0.7933534 0 0.6087616
vn -0.8660255 0 0.5000002
vn -0.9238796 0 0.3826836
vn -0.9659259 0 0.2588192
vn -0.991445 0 0.1305263
vn -0.9978591 0 0.06540328
vn -0.9978591 0 -0.06540304
vn -0.991445 0 -0.1305261
vn -0.9659259 0 -0.258819
vn -0.9238797 0 -0.3826834
vn -0.8660256 0 -0.4999999
vn -0.7933535 0 -0.6087614
vn -0.7071069 0 -0.7071068
vn -0.6087616 0 -0.7933534
vn -0.5000002 0 -0.8660255
vn -0.3826836 0 -0.9238795
vn -0.2588192 0 -0.9659259
vn -0.1305263 0 -0.9914449
vn -0.06540325 0 -0.9978591
vn 0.06540301 0 -0.9978591
vn 0.1305261 0 -0.991445
vn 0.258819 0 -0.9659259
vn 0.3826834 0 -0.9238797
vn 0.4999999 0 -0.8660256
vn 0.6087614 0 -0.7933535
vn 0.7071068 0 -0.7071069
vn 0.7933534 0 -0.6087616
vn 0.8660255 0 -0.5000002
vn 0.9238796 0 -0.3826836
vn 0.9659259 0 -0.2588192
vn 0.991445 0 -0.1305263
vn 0.9978591 0 -0.06540328

vt 19.68504 -1.05404E-12
vt 9.84252 -1.05404E-12
vt 19.68504 7.217848
vt 9.84252 5.971128
vt 9.84252 7.217848
vt 9.84252 1.185761E-12
vt 19.68504 1.192867E-12
vt 19.68504 -9.619403E-14
vt 9.84252 -9.974674E-14
vt 9.84252 3.525309E-13
vt 19.68504 3.534191E-13
vt -19.68504 -9.84252
vt -18.40033 -9.926723
vt -19.68504 -19.68504
vt -9.84252 -19.68504
vt -17.13761 -10.1779
vt -15.91847 -10.59174
vt -14.76378 -11.16117
vt -13.69329 -11.87644
vt -12.72533 -12.72533
vt -11.87644 -13.69329
vt -11.16117 -14.76378
vt -10.59174 -15.91847
vt -10.1779 -17.13761
vt -9.926723 -18.40033
vt 9.84252 19.68504
vt 19.68504 19.68504
vt 9.926723 18.40033
vt 10.1779 17.13761
vt 10.59174 15.91847
vt 11.16117 14.76378
vt 11.87644 13.69329
vt 12.72533 12.72533
vt 13.69329 11.87644
vt 14.76378 11.16117
vt 15.91847 10.59174
vt 17.13761 10.1779
vt 18.40033 9.926723
vt 19.68504 9.84252
vt 19.68504 -9.84252
vt 19.68504 -19.68504
vt 9.84252 -19.68504
vt -9.84252 19.68504
vt -19.68504 19.68504
vt -19.68504 9.84252
vt -19.68504 1.413676E-12
vt -19.68504 7.217848
vt -9.84252 1.411012E-12
vt -9.84252 7.217848
vt -9.84252 5.971128
vt -19.68504 3.534191E-13
vt -9.84252 3.560836E-13
vt -19.68504 -1.585019E-13
vt -9.84252 -1.585019E-13
vt -9.84252 -1.373978E-12
vt -19.68504 -1.367761E-12
vt 9.926723 -18.40033
vt 10.1779 -17.13761
vt 10.59174 -15.91847
vt 11.16117 -14.76378
vt 11.87644 -13.69329
vt 12.72533 -12.72533
vt 13.69329 -11.87644
vt 14.76378 -11.16117
vt 15.91847 -10.59174
vt 17.13761 -10.1779
vt 18.40033 -9.926723
vt -18.40033 9.926723
vt -17.13761 10.1779
vt -15.91847 10.59174
vt -14.76378 11.16117
vt -13.69329 11.87644
vt -12.72533 12.72533
vt -11.87644 13.69329
vt -11.16117 14.76378
vt -10.59174 15.91847
vt -10.1779 17.13761
vt -9.926723 18.40033
vt 17.7117 5.971128
vt 17.7117 7.217848
vt 18.99916 5.971128
vt 18.99916 7.217848
vt 16.11017 5.971128
vt 14.8227 5.971128
vt 16.11017 7.217848
vt 14.8227 7.217848
vt 12.95654 5.971128
vt 11.66908 5.971128
vt 12.95654 7.217848
vt 11.66908 7.217848
vt 9.592237 5.971128
vt 8.304773 5.971128
vt 9.592237 7.217848
vt 8.304773 7.217848
vt 6.074822 5.971128
vt 4.787359 5.971128
vt 6.074822 7.217848
vt 4.787359 7.217848
vt 2.464479 5.971128
vt 1.177016 5.971128
vt 2.464479 7.217848
vt 1.177016 7.217848
vt -2.464479 5.971128
vt -2.464479 7.217848
vt -1.177016 5.971128
vt -1.177016 7.217848
vt -6.074822 5.971128
vt -6.074822 7.217848
vt -4.787359 5.971128
vt -4.787359 7.217848
vt -9.592237 5.971128
vt -9.592237 7.217848
vt -8.304773 5.971128
vt -8.304773 7.217848
vt -12.95654 5.971128
vt -12.95654 7.217848
vt -11.66908 5.971128
vt -11.66908 7.217848
vt -16.11017 5.971128
vt -16.11017 7.217848
vt -14.8227 5.971128
vt -14.8227 7.217848
vt -18.99916 5.971128
vt -18.99916 7.217848
vt -17.7117 5.971128
vt -17.7117 7.217848

usemtl grass

f 3/3/1 2/2/1 1/1/1
f 2/2/1 3/3/1 4/4/1
f 4/4/1 3/3/1 5/5/1
f 8/7/2 7/4/2 6/6/2
f 7/4/2 8/7/2 9/3/2
f 7/4/2 9/3/2 10/5/2
f 13/3/3 12/9/3 11/8/3
f 12/9/3 13/3/3 14/5/3
f 12/9/3 14/5/3 15/4/3
f 18/11/4 17/4/4 16/10/4
f 17/4/4 18/11/4 19/5/4
f 19/5/4 18/11/4 20/3/4
f 13/14/5 21/13/5 14/12/5
f 21/13/5 13/14/5 22/15/5
f 21/13/5 22/15/5 23/16/5
f 23/16/5 22/15/5 24/17/5
f 24/17/5 22/15/5 25/18/5
f 25/18/5 22/15/5 26/19/5
f 26/19/5 22/15/5 27/20/5
f 27/20/5 22/15/5 28/21/5
f 28/21/5 22/15/5 29/22/5
f 29/22/5 22/15/5 30/23/5
f 30/23/5 22/15/5 31/24/5
f 31/24/5 22/15/5 32/25/5
f 34/28/5 20/27/5 33/26/5
f 20/27/5 34/28/5 35/29/5
f 20/27/5 35/29/5 36/30/5
f 20/27/5 36/30/5 37/31/5
f 20/27/5 37/31/5 38/32/5
f 20/27/5 38/32/5 39/33/5
f 20/27/5 39/33/5 40/34/5
f 20/27/5 40/34/5 41/35/5
f 20/27/5 41/35/5 42/36/5
f 20/27/5 42/36/5 43/37/5
f 20/27/5 43/37/5 44/38/5
f 20/27/5 44/38/5 19/39/5
f 6/26/6 45/39/6 8/27/6
f 45/39/6 6/26/6 12/40/6
f 12/40/6 6/26/6 11/41/6
f 11/41/6 6/26/6 46/42/6
f 46/42/6 6/26/6 47/43/6
f 46/42/6 47/43/6 2/15/6
f 2/15/6 47/43/6 18/44/6
f 2/15/6 18/44/6 16/45/6
f 2/15/6 16/45/6 1/14/6
f 1/14/6 16/45/6 48/12/6
f 48/48/4 3/47/4 1/46/4
f 3/47/4 48/48/4 49/49/4
f 49/49/4 48/48/4 50/50/4
f 47/52/2 20/47/2 18/51/2
f 20/47/2 47/52/2 51/50/2
f 20/47/2 51/50/2 33/49/2
f 9/47/3 53/50/3 52/49/3
f 8/53/3 53/50/3 9/47/3
f 53/50/3 8/53/3 45/54/3
f 54/50/1 11/56/1 46/55/1
f 11/56/1 54/50/1 13/47/1
f 13/47/1 54/50/1 22/49/1
f 3/41/5 55/57/5 5/42/5
f 55/57/5 3/41/5 56/58/5
f 56/58/5 3/41/5 57/59/5
f 57/59/5 3/41/5 58/60/5
f 58/60/5 3/41/5 59/61/5
f 59/61/5 3/41/5 60/62/5
f 60/62/5 3/41/5 61/63/5
f 61/63/5 3/41/5 62/64/5
f 62/64/5 3/41/5 63/65/5
f 63/65/5 3/41/5 64/66/5
f 64/66/5 3/41/5 65/67/5
f 65/67/5 3/41/5 49/40/5
f 52/45/5 10/43/5 9/44/5
f 10/43/5 52/45/5 66/68/5
f 10/43/5 66/68/5 67/69/5
f 10/43/5 67/69/5 68/70/5
f 10/43/5 68/70/5 69/71/5
f 10/43/5 69/71/5 70/72/5
f 10/43/5 70/72/5 71/73/5
f 10/43/5 71/73/5 72/74/5
f 10/43/5 72/74/5 73/75/5
f 10/43/5 73/75/5 74/76/5
f 10/43/5 74/76/5 75/77/5
f 10/43/5 75/77/5 76/78/5
f 15/81/8 21/80/7 77/79/7
f 21/80/7 15/81/8 14/82/8
f 21/85/7 78/84/9 77/83/7
f 78/84/9 21/85/7 23/86/9
f 23/89/9 79/88/10 78/87/9
f 79/88/10 23/89/9 24/90/10
f 24/93/10 80/92/11 79/91/10
f 80/92/11 24/93/10 25/94/11
f 25/97/11 81/96/12 80/95/11
f 81/96/12 25/97/11 26/98/12
f 26/101/12 82/100/13 81/99/12
f 82/100/13 26/101/12 27/102/13
f 82/105/13 28/104/14 83/103/14
f 28/104/14 82/105/13 27/106/13
f 83/109/14 29/108/15 84/107/15
f 29/108/15 83/109/14 28/110/14
f 84/113/15 30/112/16 85/111/16
f 30/112/16 84/113/15 29/114/15
f 85/117/16 31/116/17 86/115/17
f 31/116/17 85/117/16 30/118/16
f 86/121/17 32/120/18 87/119/18
f 32/120/18 86/121/17 31/122/17
f 87/125/18 22/124/19 54/123/19
f 22/124/19 87/125/18 32/126/18
f 7/81/21 76/80/20 88/79/20
f 76/80/20 7/81/21 10/82/21
f 88/83/20 75/86/22 89/84/22
f 75/86/22 88/83/20 76/85/20
f 89/87/22 74/90/23 90/88/23
f 74/90/23 89/87/22 75/89/22
f 90/91/23 73/94/24 91/92/24
f 73/94/24 90/91/23 74/93/23
f 91/95/24 72/98/25 92/96/25
f 72/98/25 91/95/24 73/97/24
f 92/99/25 71/102/26 93/100/26
f 71/102/26 92/99/25 72/101/25
f 71/106/26 94/103/27 93/105/26
f 94/103/27 71/106/26 70/104/27
f 70/110/27 95/107/28 94/109/27
f 95/107/28 70/110/27 69/108/28
f 69/114/28 96/111/29 95/113/28
f 96/111/29 69/114/28 68/112/29
f 68/118/29 97/115/30 96/117/29
f 97/115/30 68/118/29 67/116/30
f 67/122/30 98/119/31 97/121/30
f 98/119/31 67/122/30 66/120/31
f 66/126/31 53/123/32 98/125/31
f 53/123/32 66/126/31 52/124/32
f 19/82/33 99/79/34 17/81/33
f 99/79/34 19/82/33 44/80/34
f 44/85/34 100/84/35 99/83/34
f 100/84/35 44/85/34 43/86/35
f 43/89/35 101/88/36 100/87/35
f 101/88/36 43/89/35 42/90/36
f 42/93/36 102/92/37 101/91/36
f 102/92/37 42/93/36 41/94/37
f 41/97/37 103/96/38 102/95/37
f 103/96/38 41/97/37 40/98/38
f 40/101/38 104/100/39 103/99/38
f 104/100/39 40/101/38 39/102/39
f 38/104/40 104/105/39 39/106/39
f 104/105/39 38/104/40 105/103/40
f 37/108/41 105/109/40 38/110/40
f 105/109/40 37/108/41 106/107/41
f 36/112/42 106/113/41 37/114/41
f 106/113/41 36/112/42 107/111/42
f 35/116/43 107/117/42 36/118/42
f 107/117/42 35/116/43 108/115/43
f 34/120/44 108/121/43 35/122/43
f 108/121/43 34/120/44 109/119/44
f 33/124/45 109/125/44 34/126/44
f 109/125/44 33/124/45 51/123/45
f 55/80/47 4/81/46 5/82/46
f 4/81/46 55/80/47 110/79/47
f 56/86/48 110/83/47 55/85/47
f 110/83/47 56/86/48 111/84/48
f 57/90/49 111/87/48 56/89/48
f 111/87/48 57/90/49 112/88/49
f 58/94/50 112/91/49 57/93/49
f 112/91/49 58/94/50 113/92/50
f 59/98/51 113/95/50 58/97/50
f 113/95/50 59/98/51 114/96/51
f 60/102/52 114/99/51 59/101/51
f 114/99/51 60/102/52 115/100/52
f 115/105/52 61/104/53 116/103/53
f 61/104/53 115/105/52 60/106/52
f 61/110/53 117/107/54 116/109/53
f 117/107/54 61/110/53 62/108/54
f 117/113/54 63/112/55 118/111/55
f 63/112/55 117/113/54 62/114/54
f 63/118/55 119/115/56 118/117/55
f 119/115/56 63/118/55 64/116/56
f 119/121/56 65/120/57 120/119/57
f 65/120/57 119/121/56 64/122/56
f 120/125/57 49/124/58 50/123/58
f 49/124/58 120/125/57 65/126/57

usemtl water

f 16/10/4 50/50/4 48/48/4
f 50/50/4 16/10/4 17/4/4
f 6/6/2 51/50/2 47/52/2
f 51/50/2 6/6/2 7/4/2
f 15/4/3 45/54/3 12/9/3
f 45/54/3 15/4/3 53/50/3
f 4/4/1 46/55/1 2/2/1
f 46/55/1 4/4/1 54/50/1
f 15/12/5 98/68/5 53/45/5
f 98/68/5 15/12/5 77/13/5
f 98/68/5 77/13/5 97/69/5
f 97/69/5 77/13/5 78/16/5
f 97/69/5 78/16/5 96/70/5
f 96/70/5 78/16/5 79/17/5
f 96/70/5 79/17/5 95/71/5
f 95/71/5 79/17/5 80/18/5
f 95/71/5 80/18/5 94/72/5
f 94/72/5 80/18/5 81/19/5
f 94/72/5 81/19/5 93/73/5
f 93/73/5 81/19/5 82/20/5
f 93/73/5 82/20/5 92/74/5
f 92/74/5 82/20/5 83/21/5
f 92/74/5 83/21/5 84/22/5
f 92/74/5 84/22/5 91/75/5
f 91/75/5 84/22/5 85/23/5
f 91/75/5 85/23/5 90/76/5
f 90/76/5 85/23/5 86/24/5
f 90/76/5 86/24/5 89/77/5
f 89/77/5 86/24/5 87/25/5
f 89/77/5 87/25/5 88/78/5
f 88/78/5 87/25/5 54/15/5
f 88/78/5 54/15/5 7/43/5
f 7/43/5 54/15/5 51/26/5
f 51/26/5 54/15/5 4/42/5
f 51/26/5 4/42/5 109/28/5
f 109/28/5 4/42/5 110/57/5
f 109/28/5 110/57/5 111/58/5
f 109/28/5 111/58/5 108/29/5
f 108/29/5 111/58/5 112/59/5
f 108/29/5 112/59/5 107/30/5
f 107/30/5 112/59/5 106/31/5
f 106/31/5 112/59/5 113/60/5
f 106/31/5 113/60/5 105/32/5
f 105/32/5 113/60/5 114/61/5
f 105/32/5 114/61/5 104/33/5
f 104/33/5 114/61/5 115/62/5
f 104/33/5 115/62/5 103/34/5
f 103/34/5 115/62/5 116/63/5
f 103/34/5 116/63/5 102/35/5
f 102/35/5 116/63/5 117/64/5
f 102/35/5 117/64/5 101/36/5
f 101/36/5 117/64/5 118/65/5
f 101/36/5 118/65/5 100/37/5
f 100/37/5 118/65/5 119/66/5
f 100/37/5 119/66/5 99/38/5
f 99/38/5 119/66/5 120/67/5
f 99/38/5 120/67/5 17/39/5
f 17/39/5 120/67/5 50/40/5

