# Created by Kenney (www.kenney.nl)

mtllib tile274.mtl

g tile274

v 0.5000001 0 -0.4999999
v 0.5000001 0.21 -0.4999999
v -0.5 0 -0.5000001
v -0.5 0.21 -0.5000001
v 0.5 0.21 0.5000001
v 0.5 0 0.5000001
v -0.5000001 0.21 0.4999999
v -0.5000001 0 0.4999999
v -0.5000001 0.19 0.1874999
v -0.5000001 0.19 -0.1250001
v -0.5000001 0.21 0.1874999
v -0.5000001 0.19 0.1249999
v -0.5000001 0.21 -0.1250001
v -0.5000001 0.21 0.1249999
v -0.5 0.19 -0.1875001
v -0.5 0.21 -0.1875001
v -2.980264E-08 0.21 0.1875
v -1.490148E-08 0.21 0.125
v 1.490101E-08 0.21 -0.125
v 2.980233E-08 0.21 -0.1875
v -2.980264E-08 0.19 0.1875
v -1.490148E-08 0.19 0.125
v 1.490101E-08 0.19 -0.125
v 2.980217E-08 0.19 -0.1875

vn 1.192093E-07 0 -1
vn -1.192093E-07 0 1
vn 1 0 1.192093E-07
vn -1 0 -1.192093E-07
vn 0 1 0
vn 0 -1 0

vt -19.68504 0
vt -19.68504 8.267716
vt 19.68504 0
vt 19.68504 8.267716
vt 19.68504 6.933192E-13
vt -19.68504 6.933192E-13
vt 19.68504 -4.111697E-29
vt -19.68504 -4.111697E-29
vt 7.38189 7.480315
vt -4.92126 7.480315
vt 7.38189 8.267716
vt 4.92126 7.480315
vt -4.92126 8.267716
vt 4.92126 8.267716
vt -7.38189 7.480315
vt -7.38189 8.267716
vt -19.68504 19.68504
vt -7.38189 19.68504
vt -19.68504 -19.68504
vt -7.38189 1.259811E-11
vt 19.68504 -19.68504
vt -4.921259 1.259811E-11
vt 4.921261 6.004276E-12
vt 4.92126 19.68504
vt 7.38189 -1.348136E-13
vt 7.38189 19.68504
vt 19.68504 19.68504
vt -4.92126 19.68504
vt -7.38189 1.28996E-11
vt -4.921259 1.267222E-11
vt 1.249822E-11 8.267716
vt 1.272559E-11 7.480315
vt 19.68504 7.480315
vt -1.037204E-07 8.267716
vt -1.037204E-07 7.480315
vt -19.68504 7.480315
vt 4.921261 6.078385E-12
vt 7.38189 6.078385E-12
vt 2.768831E-13 8.267716
vt -5.862206E-12 7.480315
vt -1.037021E-07 7.480315
vt -1.037021E-07 8.267716
vt -4.921261 7.480315
vt -4.921261 8.267716
vt 4.921259 7.480315
vt 4.921259 8.267716

usemtl pavement

f 3/3/1 2/2/1 1/1/1
f 2/2/1 3/3/1 4/4/1
f 7/2/2 6/3/2 5/4/2
f 6/3/2 7/2/2 8/1/2
f 2/4/3 6/6/3 1/5/3
f 6/6/3 2/4/3 5/2/3
f 7/4/4 3/8/4 8/7/4
f 3/8/4 7/4/4 9/9/4
f 3/8/4 9/9/4 10/10/4
f 9/9/4 7/4/4 11/11/4
f 12/12/4 10/10/4 9/9/4
f 10/10/4 12/12/4 13/13/4
f 13/13/4 12/12/4 14/14/4
f 15/15/4 3/8/4 10/10/4
f 3/8/4 15/15/4 4/2/4
f 4/2/4 15/15/4 16/16/4
f 5/19/5 11/18/5 7/17/5
f 11/18/5 5/19/5 17/20/5
f 2/21/5 17/20/5 5/19/5
f 17/20/5 2/21/5 18/22/5
f 18/22/5 2/21/5 19/23/5
f 18/22/5 19/23/5 13/24/5
f 19/23/5 2/21/5 20/25/5
f 20/25/5 2/21/5 16/26/5
f 16/26/5 2/21/5 4/27/5
f 13/24/5 14/28/5 18/22/5
f 3/17/6 6/21/6 8/27/6
f 6/21/6 3/17/6 1/19/6

usemtl metal

f 22/30/5 9/18/5 21/29/5
f 9/18/5 22/30/5 12/28/5
f 21/32/1 11/4/1 17/31/1
f 11/4/1 21/32/1 9/33/1
f 14/2/2 22/35/2 18/34/2
f 22/35/2 14/2/2 12/36/2
f 23/37/5 15/26/5 10/24/5
f 15/26/5 23/37/5 24/38/5
f 16/2/2 24/40/2 20/39/2
f 24/40/2 16/2/2 15/36/2
f 10/33/1 19/42/1 23/41/1
f 19/42/1 10/33/1 13/4/1
f 19/44/4 24/15/4 23/43/4
f 24/15/4 19/44/4 20/16/4
f 21/9/4 18/46/4 22/45/4
f 18/46/4 21/9/4 17/11/4

