# Created by Kenney (www.kenney.nl)

mtllib tile275.mtl

g tile275

v -0.25 0.2 0.1875
v 0.25 0.2 0.1875
v -0.25 0.2 0.5
v 0.25 0.2 0.5
v -0.25 0.1 -0.5
v 0.25 0.1 -0.5
v -0.25 0.2 -0.5
v 0.25 0.2 -0.5
v 0.25 0.1 0.5
v -0.25 0.1 0.5
v -0.25 0.2 0.125
v -0.25 0.2 -0.125
v 0.25 0.2 0.125
v 0.25 0.2 -0.125
v -0.25 0.2 -0.1875
v 0.25 0.2 -0.1875
v -0.5 3.609557E-16 0.5
v 0.5 2.707168E-16 0.5
v 0.5 0.21 0.5
v 0.25 0.21 0.5
v -0.5 0.21 0.5
v -0.25 0.21 0.5
v -0.5 3.609557E-16 -0.5
v -0.5 0.21 -0.5
v -0.25 0.21 -0.5
v 0.5 0 -0.5
v 0.5 0.21 -0.5
v 0.25 0.21 -0.5
v -0.5 0.21 0.1875
v -0.25 0.21 0.1875
v -0.5 0.21 0.125
v -0.5 0.19 0.125
v -0.5 0.21 -0.125
v -0.5 0.19 -0.125
v -0.5 0.19 0.1875
v -0.5 0.19 -0.1875
v -0.5 0.21 -0.1875
v -0.25 0.21 -0.1875
v 0.25 0.21 0.1875
v 0.5 0.21 0.1875
v 0.5 0.19 0.1875
v 0.5 0.19 0.125
v 0.5 0.21 0.125
v 0.5 0.19 -0.125
v 0.5 0.21 -0.125
v 0.5 0.19 -0.1875
v 0.5 0.21 -0.1875
v 0.25 0.21 0.125
v 0.25 0.21 -0.125
v -0.25 0.21 0.125
v -0.25 0.21 -0.125
v 0.25 0.21 -0.1875

vn 0 1 0
vn 9.251858E-16 0 -1
vn -9.251858E-16 0 1
vn -1 0 -9.251858E-16
vn 1 0 9.251858E-16
vn 0 -1 0

vt -9.84252 -7.38189
vt 9.84252 -7.38189
vt -9.84252 -19.68504
vt 9.84252 -19.68504
vt 9.84252 3.937008
vt -9.84252 3.937008
vt 9.84252 7.874016
vt -9.84252 7.874016
vt -9.84252 -4.92126
vt -9.84252 4.921259
vt 9.84252 -4.92126
vt 9.84252 4.921259
vt -9.84252 7.38189
vt -9.84252 19.68504
vt 9.84252 7.38189
vt 9.84252 19.68504
vt -19.68504 -3.990471E-14
vt 19.68504 -4.345743E-14
vt 19.68504 8.267716
vt 9.84252 8.267716
vt -19.68504 8.267716
vt -9.84252 8.267716
vt 19.68504 7.589686E-14
vt -19.68504 6.168601E-14
vt -19.68504 -19.68504
vt -19.68504 -7.38189
vt 4.92126 8.267716
vt 4.92126 7.480315
vt -4.92126 8.267716
vt -4.92126 7.480315
vt -19.68504 1.421085E-14
vt 7.38189 7.480315
vt 19.68504 1.421085E-14
vt 7.38189 8.267716
vt -7.38189 7.480315
vt -7.38189 8.267716
vt 7.38189 7.874016
vt 19.68504 7.874016
vt 19.68504 -7.38189
vt 19.68504 -19.68504
vt -19.68504 1.065814E-14
vt 19.68504 2.20223E-29
vt -4.921261 7.480315
vt -4.921261 8.267716
vt 4.921259 7.480315
vt 4.921259 8.267716
vt 19.68504 19.68504
vt -19.68504 19.68504
vt 19.68504 -4.921261
vt 19.68504 4.921259
vt -19.68504 -4.92126
vt -19.68504 4.92126
vt -19.68504 7.38189
vt 19.68504 7.38189
vt 4.92126 7.874016
vt -4.921259 7.874016
vt 4.92126 8.267716
vt -4.921259 8.267716
vt -4.92126 7.874016
vt 4.921259 7.874016
vt 4.921259 8.267716
vt -19.68504 7.874016
vt -7.38189 7.874016
vt 19.68504 7.480315
vt -19.68504 7.480315

usemtl asphalt

f 3/3/1 2/2/1 1/1/1
f 2/2/1 3/3/1 4/4/1
f 7/7/2 6/6/2 5/5/2
f 6/6/2 7/7/2 8/8/2
f 4/7/3 10/6/3 9/5/3
f 10/6/3 4/7/3 3/8/3
f 13/11/1 12/10/1 11/9/1
f 12/10/1 13/11/1 14/12/1
f 16/15/1 7/14/1 15/13/1
f 7/14/1 16/15/1 8/16/1

usemtl pavement

f 18/18/3 9/5/3 17/17/3
f 9/5/3 18/18/3 19/19/3
f 9/5/3 19/19/3 4/7/3
f 4/7/3 19/19/3 20/20/3
f 10/6/3 17/17/3 9/5/3
f 17/17/3 10/6/3 21/21/3
f 21/21/3 10/6/3 3/8/3
f 21/21/3 3/8/3 22/22/3
f 24/19/2 5/5/2 23/23/2
f 5/5/2 24/19/2 7/7/2
f 7/7/2 24/19/2 25/20/2
f 6/6/2 23/23/2 5/5/2
f 6/6/2 26/24/2 23/23/2
f 26/24/2 6/6/2 27/21/2
f 27/21/2 6/6/2 8/8/2
f 27/21/2 8/8/2 28/22/2
f 22/3/1 29/26/1 21/25/1
f 29/26/1 22/3/1 30/1/1
f 33/29/4 32/28/4 31/27/4
f 34/30/4 32/28/4 33/29/4
f 23/31/4 32/28/4 34/30/4
f 23/31/4 35/32/4 32/28/4
f 17/33/4 35/32/4 23/31/4
f 17/33/4 29/34/4 35/32/4
f 29/34/4 17/33/4 21/19/4
f 23/31/4 34/30/4 36/35/4
f 23/31/4 36/35/4 24/21/4
f 24/21/4 36/35/4 37/36/4
f 7/38/5 38/34/5 15/37/5
f 38/34/5 7/38/5 25/19/5
f 20/4/1 40/39/1 39/2/1
f 40/39/1 20/4/1 19/40/1
f 26/42/5 19/21/5 18/41/5
f 19/21/5 26/42/5 41/35/5
f 41/35/5 26/42/5 42/43/5
f 42/43/5 26/42/5 43/44/5
f 43/44/5 26/42/5 44/45/5
f 43/44/5 44/45/5 45/46/5
f 44/45/5 26/42/5 46/32/5
f 27/19/5 46/32/5 26/42/5
f 46/32/5 27/19/5 47/34/5
f 40/36/5 19/21/5 41/35/5
f 39/34/4 4/38/4 20/19/4
f 4/38/4 39/34/4 2/37/4
f 26/48/6 17/40/6 23/47/6
f 17/40/6 26/48/6 18/25/6
f 43/49/1 49/12/1 48/11/1
f 49/12/1 43/49/1 45/50/1
f 50/9/1 33/52/1 31/51/1
f 33/52/1 50/9/1 51/10/1
f 37/53/1 25/14/1 24/48/1
f 25/14/1 37/53/1 38/13/1
f 52/15/1 27/47/1 28/16/1
f 27/47/1 52/15/1 47/54/1
f 48/57/4 14/56/4 13/55/4
f 14/56/4 48/57/4 49/58/4
f 12/60/5 50/29/5 11/59/5
f 50/29/5 12/60/5 51/61/5
f 1/63/5 22/21/5 3/62/5
f 22/21/5 1/63/5 30/36/5
f 28/21/4 16/63/4 52/36/4
f 16/63/4 28/21/4 8/62/4

usemtl metal

f 29/19/2 1/7/2 35/64/2
f 1/7/2 29/19/2 30/20/2
f 2/8/2 35/64/2 1/7/2
f 2/8/2 41/65/2 35/64/2
f 41/65/2 2/8/2 40/21/2
f 40/21/2 2/8/2 39/22/2
f 41/39/1 32/51/1 35/26/1
f 32/51/1 41/39/1 42/49/1
f 42/64/3 13/7/3 32/65/3
f 13/7/3 42/64/3 43/19/3
f 13/7/3 43/19/3 48/20/3
f 11/8/3 32/65/3 13/7/3
f 32/65/3 11/8/3 31/21/3
f 31/21/3 11/8/3 50/22/3
f 36/65/3 15/8/3 37/21/3
f 15/8/3 36/65/3 16/7/3
f 37/21/3 15/8/3 38/22/3
f 46/64/3 16/7/3 36/65/3
f 16/7/3 46/64/3 47/19/3
f 16/7/3 47/19/3 52/20/3
f 44/50/1 36/53/1 34/52/1
f 36/53/1 44/50/1 46/54/1
f 33/19/2 12/7/2 34/64/2
f 12/7/2 33/19/2 51/20/2
f 14/8/2 34/64/2 12/7/2
f 14/8/2 44/65/2 34/64/2
f 44/65/2 14/8/2 45/21/2
f 45/21/2 14/8/2 49/22/2

