# Created by Kenney (www.kenney.nl)

mtllib tile148.mtl

g tile148

v -0.5 0.2 0.25
v 0.5 0.2 0.25
v -0.5 0.42 0.25
v 0.5 0.42 0.25
v 0.5 0.42 -0.375
v 0.5 0.42 -0.25
v -0.5 0.42 -0.375
v -0.5 0.42 -0.25
v 0.5 0.2 -0.25
v -0.5 0.2 -0.25
v 0.5 4.21115E-16 -0.375
v -0.5 0 -0.375
v 0.5 4.21115E-16 0.375
v -0.5 6.015928E-17 0.375
v 0.5 0.42 0.375
v -0.5 0.42 0.375
v 0.5 0.1 0.25
v 0.5 0.1 -0.25
v -0.5 0.1 -0.25
v -0.5 0.1 0.25

vn 0 0 -0.3333333
vn 0 0.3333333 0
vn 0 0 0.3333333
vn 0 -0.3333333 0
vn 0.3333333 0 0
vn -0.3333333 0 0

vt 59.05512 23.62205
vt -59.05512 23.62205
vt 59.05512 49.6063
vt -59.05512 49.6063
vt -59.05512 -44.29134
vt -59.05512 -29.52756
vt 59.05512 -44.29134
vt 59.05512 -29.52756
vt 59.05512 44.29134
vt -59.05512 44.29134
vt -59.05512 29.52756
vt 59.05512 29.52756
vt 59.05512 6.166367E-27
vt -59.05512 4.973799E-14
vt -59.05512 -3.98919E-13
vt 59.05512 -3.562864E-13
vt -29.52756 49.6063
vt -29.52756 23.62205
vt -44.29134 49.6063
vt -29.52756 11.81102
vt -44.29134 -1.961273E-13
vt 29.52756 11.81102
vt 44.29134 -1.961273E-13
vt 29.52756 49.6063
vt 44.29134 49.6063
vt 29.52756 23.62205
vt -44.29134 1.702756E-13
vt 44.29134 1.773811E-13

usemtl pavement

f 3/3/1 2/2/1 1/1/1
f 2/2/1 3/3/1 4/4/1
f 7/7/2 6/6/2 5/5/2
f 6/6/2 7/7/2 8/8/2
f 6/3/3 10/2/3 9/1/3
f 10/2/3 6/3/3 8/4/3
f 13/9/4 12/5/4 11/7/4
f 12/5/4 13/9/4 14/10/4
f 3/12/2 15/10/2 4/11/2
f 15/10/2 3/12/2 16/9/2
f 7/3/1 11/14/1 12/13/1
f 11/14/1 7/3/1 5/4/1
f 13/16/3 16/4/3 14/15/3
f 16/4/3 13/16/3 15/3/3
f 15/19/5 2/18/5 4/17/5
f 2/18/5 15/19/5 17/20/5
f 13/21/5 17/20/5 15/19/5
f 13/21/5 18/22/5 17/20/5
f 11/23/5 18/22/5 13/21/5
f 11/23/5 6/24/5 18/22/5
f 6/24/5 11/23/5 5/25/5
f 18/22/5 6/24/5 9/26/5
f 12/27/6 19/20/6 7/19/6
f 19/20/6 12/27/6 14/28/6
f 19/20/6 14/28/6 20/22/6
f 20/22/6 14/28/6 1/26/6
f 1/26/6 14/28/6 3/24/6
f 3/24/6 14/28/6 16/25/6
f 19/20/6 8/17/6 7/19/6
f 8/17/6 19/20/6 10/18/6

usemtl asphalt

f 2/18/5 18/22/5 9/26/5
f 18/22/5 2/18/5 17/20/5
f 20/22/6 10/18/6 19/20/6
f 10/18/6 20/22/6 1/26/6
f 9/6/2 1/12/2 2/11/2
f 1/12/2 9/6/2 10/8/2

