# Created by Kenney (www.kenney.nl)

mtllib tile161.mtl

g tile161

v -0.5 0.1833333 0.5
v -0.5 0 0.5
v -0.5 0.1833333 0.25
v -0.5 0 0.25
v -0.5 0.1516667 0.25
v 0.5 0 0.5
v 0.5 0.55 0.5
v -0.5 0 -0.5
v 0.5 0 -0.5
v -0.5 0.1833333 -0.5
v 0.5 0.55 -0.5
v 0.5 0.55 0.25
v -0.5 0 -0.25
v 0.5 6.76792E-17 0.25
v 0.5 6.76792E-17 -0.25
v 0.5 0.1516667 -0.25
v 0.5 0.55 -0.25
v -0.5 0.1833333 -0.25
v -0.5 0.1516667 -0.25
v 0.5 0.1516667 0.25

vn -1 0 1.490123E-08
vn 1.490123E-08 0 1
vn -1.490123E-08 0 -1
vn -0.3442546 0.9388763 5.129818E-09
vn 0 -1 0
vn 1 0 -1.490123E-08
vn 0 1 0

vt 19.68504 7.217847
vt 19.68504 -3.487322E-07
vt 9.84252 7.217847
vt 9.84252 -3.487322E-07
vt 9.84252 5.971128
vt 19.68504 -5.425963E-13
vt -19.68504 -5.425963E-13
vt 19.68504 21.65354
vt -19.68504 7.217848
vt 19.68504 5.425963E-13
vt -19.68504 5.425963E-13
vt 19.68504 7.217848
vt -19.68504 21.65354
vt 19.68504 -15.99704
vt 9.84252 -15.99704
vt 19.68504 25.93615
vt 9.842519 25.93615
vt 19.68504 19.68504
vt 19.68504 9.84252
vt -19.68504 19.68504
vt -19.68504 -19.68504
vt 19.68504 -9.84252
vt 19.68504 -19.68504
vt -19.68504 -9.84252
vt -19.68504 9.84252
vt 9.842519 -1.791878E-07
vt 9.842519 5.971128
vt 19.68504 -1.791878E-07
vt 9.842519 21.65354
vt -19.68504 -15.99704
vt -19.68504 25.93615
vt -9.84252 -15.99704
vt -9.842519 25.93615
vt 19.68504 5.971128
vt -19.68504 5.971128
vt -9.842521 7.217847
vt -9.842521 5.971128
vt -19.68504 7.217847
vt -9.842521 -3.410956E-07
vt -19.68504 -3.410956E-07
vt -19.68504 -2.335802E-08
vt -9.84252 -2.335801E-08
vt -9.84252 5.971128
vt -9.84252 21.65354
vt 9.84252 5.971128

usemtl grass

f 3/3/1 2/2/1 1/1/1
f 2/2/1 3/3/1 4/4/1
f 4/4/1 3/3/1 5/5/1
f 7/8/2 2/7/2 6/6/2
f 2/7/2 7/8/2 1/9/2
f 10/12/3 9/11/3 8/10/3
f 9/11/3 10/12/3 11/13/3
f 7/16/4 3/15/4 1/14/4
f 3/15/4 7/16/4 12/17/4
f 9/20/5 13/19/5 8/18/5
f 6/21/5 13/19/5 9/20/5
f 6/21/5 4/22/5 13/19/5
f 4/22/5 6/21/5 2/23/5
f 6/21/5 9/20/5 14/24/5
f 14/24/5 9/20/5 15/25/5
f 9/28/6 16/27/6 15/26/6
f 11/8/6 16/27/6 9/28/6
f 16/27/6 11/8/6 17/29/6
f 18/32/4 11/31/4 10/30/4
f 11/31/4 18/32/4 17/33/4
f 17/8/2 19/35/2 16/34/2
f 19/35/2 17/8/2 18/9/2
f 3/12/3 20/35/3 5/34/3
f 20/35/3 3/12/3 12/13/3
f 10/38/1 19/37/1 18/36/1
f 19/37/1 10/38/1 13/39/1
f 13/39/1 10/38/1 8/40/1
f 14/42/6 7/13/6 6/41/6
f 7/13/6 14/42/6 20/43/6
f 7/13/6 20/43/6 12/44/6

usemtl water

f 20/22/7 19/25/7 5/24/7
f 19/25/7 20/22/7 16/19/7
f 19/37/1 4/4/1 5/45/1
f 4/4/1 19/37/1 13/39/1
f 15/26/6 20/43/6 14/42/6
f 20/43/6 15/26/6 16/27/6

