# Created by Kenney (www.kenney.nl)

mtllib tile119.mtl

g tile119

v 0.375 0.1516667 0.25
v 0.5 0.1516667 0.25
v 0.375 0.1833333 0.25
v 0.5 0.1833333 0.25
v 0.375 0.1833333 0.5
v 0.5 0.1833333 0.5
v -0.5 0.1833333 0.25
v -0.375 0.1833333 0.25
v -0.5 0.1833333 0.5
v -0.375 0.1833333 0.5
v 0.5 0.1516667 -0.25
v 0.375 0.1516667 -0.25
v 0.5 0.1833333 -0.25
v 0.375 0.1833333 -0.25
v -0.5 0.1833333 -0.5
v -0.375 0.1833333 -0.5
v -0.5 0.1833333 -0.25
v -0.375 0.1833333 -0.25
v 0.375 0.1833333 -0.5
v 0.5 0.1833333 -0.5
v 0.5 9.023893E-17 -0.25
v 0.5 1.503982E-16 -0.5
v 0.375 3.308761E-16 -0.5
v -0.5 1.503982E-16 0.5
v -0.5 9.023893E-17 0.25
v -0.5 0.1516667 0.25
v -0.5 1.503982E-16 -0.5
v -0.5 9.023893E-17 -0.25
v -0.375 2.707168E-16 -0.5
v -0.375 0 0.5
v -0.375 0.1516667 0.25
v 0.5 1.503982E-16 0.5
v 0.5 9.023893E-17 0.25
v -0.375 0.1516667 -0.25
v -0.5 0.1516667 -0.25
v 0.375 3.308761E-16 0.5
v -0.375 0.21 -0.5
v -0.375 0.21 0.5
v 0.375 0.21 0.5
v 0.375 0.21 -0.5
v 0.25 0.21 -0.5
v 0.25 0.21 0.5
v -0.25 0.2 0.5
v -0.25 0.21 0.5
v -0.25 0.2 -0.5
v -0.25 0.21 -0.5
v 0.25 0.2 0.5
v 0.25 0.2 -0.5
v -0.25 0.1 -0.5
v 0.25 0.1 -0.5
v 0.25 0.1 0.5
v -0.25 0.1 0.5

vn -5.577483E-14 0 -0.3333333
vn 0 0.3333333 0
vn 5.577483E-14 0 0.3333333
vn 0.3333333 0 -5.577483E-14
vn -0.3333333 0 5.577483E-14
vn 0 -0.3333333 0

vt -44.29134 17.91339
vt -59.05512 17.91339
vt -44.29134 21.65354
vt -59.05512 21.65354
vt 44.29134 -29.52756
vt 59.05512 -29.52756
vt 44.29134 -59.05512
vt 59.05512 -59.05512
vt -59.05512 -29.52756
vt -44.29134 -29.52756
vt -59.05512 -59.05512
vt -44.29134 -59.05512
vt 59.05512 17.91339
vt 44.29134 17.91339
vt 59.05512 21.65354
vt 44.29134 21.65354
vt -59.05512 59.05512
vt -44.29134 59.05512
vt -59.05512 29.52756
vt -44.29134 29.52756
vt 44.29134 59.05512
vt 59.05512 59.05512
vt 44.29134 29.52756
vt 59.05512 29.52756
vt 29.52756 9.824952E-13
vt 29.52756 17.91339
vt 59.05512 9.896007E-13
vt 29.52756 21.65354
vt -59.05512 -1.29997E-12
vt -44.29134 -1.278654E-12
vt 59.05512 1.776357E-14
vt 29.52756 1.065814E-14
vt -44.29134 -1.24022E-12
vt -59.05512 -1.222456E-12
vt -59.05512 9.896007E-13
vt -29.52756 9.824952E-13
vt -29.52756 21.65354
vt -29.52756 17.91339
vt -29.52756 1.065814E-14
vt -59.05512 1.776357E-14
vt 59.05512 1.490525E-12
vt 44.29134 1.504736E-12
vt 59.05512 1.335497E-12
vt 44.29134 4.835529E-13
vt -59.05512 3.197442E-14
vt 59.05512 1.156207E-23
vt -59.05512 24.80315
vt 59.05512 24.80315
vt -59.05512 3.907985E-14
vt 59.05512 3.907985E-14
vt 29.52756 59.05512
vt 29.52756 -59.05512
vt -59.05512 23.62205
vt 59.05512 23.62205
vt -29.52756 59.05512
vt -29.52756 -59.05512
vt 29.52756 11.81102
vt 29.52756 23.62205
vt 44.29134 24.80315
vt 29.52756 24.80315
vt -29.52756 11.81102
vt -29.52756 23.62205
vt -44.29134 24.80315
vt -29.52756 24.80315

usemtl grass

f 3/3/1 2/2/1 1/1/1
f 2/2/1 3/3/1 4/4/1
f 5/7/2 4/6/2 3/5/2
f 4/6/2 5/7/2 6/8/2
f 9/11/2 8/10/2 7/9/2
f 8/10/2 9/11/2 10/12/2
f 13/15/3 12/14/3 11/13/3
f 12/14/3 13/15/3 14/16/3
f 17/19/2 16/18/2 15/17/2
f 16/18/2 17/19/2 18/20/2
f 14/23/2 20/22/2 19/21/2
f 20/22/2 14/23/2 13/24/2
f 22/27/4 11/26/4 21/25/4
f 11/26/4 22/27/4 13/28/4
f 13/28/4 22/27/4 20/15/4
f 23/30/1 20/4/1 22/29/1
f 20/4/1 23/30/1 19/3/1
f 7/28/5 24/31/5 9/15/5
f 24/31/5 7/28/5 25/32/5
f 25/32/5 7/28/5 26/26/5
f 29/21/6 28/24/6 27/22/6
f 28/24/6 29/21/6 25/6/6
f 25/6/6 29/21/6 24/8/6
f 24/8/6 29/21/6 30/7/6
f 10/3/3 24/34/3 30/33/3
f 24/34/3 10/3/3 9/4/3
f 7/15/1 31/14/1 26/13/1
f 31/14/1 7/15/1 8/16/1
f 33/36/4 6/4/4 32/35/4
f 6/4/4 33/36/4 4/37/4
f 4/37/4 33/36/4 2/38/4
f 18/3/3 35/2/3 34/1/3
f 35/2/3 18/3/3 17/4/3
f 15/4/5 35/38/5 17/37/5
f 35/38/5 15/4/5 28/39/5
f 28/39/5 15/4/5 27/40/5
f 15/15/1 29/42/1 27/41/1
f 29/42/1 15/15/1 16/16/1
f 22/17/6 36/12/6 23/18/6
f 36/12/6 22/17/6 32/11/6
f 32/11/6 22/17/6 21/19/6
f 32/11/6 21/19/6 33/9/6
f 6/15/3 36/44/3 32/43/3
f 36/44/3 6/15/3 5/16/3

usemtl pavement

f 16/4/5 34/38/5 18/37/5
f 34/38/5 16/4/5 29/45/5
f 29/45/5 31/26/5 34/38/5
f 34/38/5 31/26/5 18/37/5
f 29/45/5 10/15/5 31/26/5
f 10/15/5 29/45/5 30/46/5
f 31/26/5 10/15/5 8/28/5
f 10/15/5 37/47/5 8/28/5
f 8/28/5 37/47/5 31/26/5
f 31/26/5 37/47/5 18/37/5
f 18/37/5 37/47/5 16/4/5
f 37/47/5 10/15/5 38/48/5
f 23/50/4 1/38/4 36/49/4
f 1/38/4 23/50/4 12/26/4
f 12/26/4 23/50/4 14/28/4
f 14/28/4 23/50/4 19/15/4
f 3/37/4 36/49/4 1/38/4
f 12/26/4 3/37/4 1/38/4
f 14/28/4 3/37/4 12/26/4
f 36/49/4 3/37/4 5/4/4
f 3/37/4 39/47/4 5/4/4
f 39/47/4 3/37/4 40/48/4
f 40/48/4 3/37/4 14/28/4
f 40/48/4 14/28/4 19/15/4
f 42/52/2 40/21/2 41/51/2
f 40/21/2 42/52/2 39/7/2
f 23/18/6 30/7/6 29/21/6
f 30/7/6 23/18/6 36/12/6
f 45/54/4 44/47/4 43/53/4
f 44/47/4 45/54/4 46/48/4
f 38/12/2 46/55/2 37/18/2
f 46/55/2 38/12/2 44/56/2
f 41/47/5 47/54/5 42/48/5
f 47/54/5 41/47/5 48/53/5
f 29/42/1 49/57/1 23/30/1
f 49/57/1 29/42/1 16/16/1
f 49/57/1 16/16/1 45/58/1
f 45/58/1 16/16/1 37/59/1
f 45/58/1 37/59/1 46/60/1
f 50/61/1 23/30/1 49/57/1
f 23/30/1 50/61/1 19/3/1
f 19/3/1 50/61/1 48/62/1
f 19/3/1 48/62/1 40/63/1
f 40/63/1 48/62/1 41/64/1
f 5/16/3 51/57/3 36/44/3
f 51/57/3 5/16/3 47/58/3
f 47/58/3 5/16/3 39/59/3
f 47/58/3 39/59/3 42/60/3
f 52/61/3 36/44/3 51/57/3
f 52/61/3 30/33/3 36/44/3
f 30/33/3 52/61/3 10/3/3
f 10/3/3 52/61/3 43/62/3
f 10/3/3 43/62/3 38/63/3
f 38/63/3 43/62/3 44/64/3

usemtl water

f 26/9/2 34/20/2 35/19/2
f 34/20/2 26/9/2 31/10/2
f 1/5/2 11/24/2 12/23/2
f 11/24/2 1/5/2 2/6/2
f 35/38/5 25/32/5 26/26/5
f 25/32/5 35/38/5 28/39/5
f 21/25/4 2/38/4 33/36/4
f 2/38/4 21/25/4 11/26/4

usemtl asphalt

f 43/56/2 48/51/2 45/55/2
f 48/51/2 43/56/2 47/52/2
f 47/58/3 52/61/3 51/57/3
f 52/61/3 47/58/3 43/62/3
f 45/58/1 50/61/1 49/57/1
f 50/61/1 45/58/1 48/62/1

