# Created by Kenney (www.kenney.nl)

mtllib tile158.mtl

g tile158

v -0.5000001 0 0.4999999
v -0.5000001 3.158362E-16 0.375
v -0.5000001 0.1833333 0.4999999
v -0.5000001 0.1833333 0.375
v 0.5 0.1833333 0.5000001
v 0.5 6.76792E-17 0.5000001
v 0.375 0.1833333 0.5000001
v 0.375 6.76792E-17 0.5000001
v -0.3750001 4.511946E-17 0.5
v -0.2500001 6.76792E-17 0.5
v 0.25 6.76792E-17 0.5000001
v 0.5000001 6.76792E-17 -0.4999999
v -0.5000001 6.76792E-17 0.2499999
v -0.5 2.48157E-16 -0.2500001
v -0.5 3.158362E-16 -0.3750001
v -0.5 3.609557E-16 -0.5000001
v 0.5000001 0.1833333 -0.4999999
v -0.5 0.1833333 -0.5000001
v -0.3750001 0.1833333 0.5
v -0.3760695 0.1833333 0.4836843
v -0.3792594 0.1833333 0.4676476
v -0.3845152 0.1833333 0.4521646
v -0.3917469 0.1833333 0.4375
v -0.400831 0.1833333 0.4239049
v -0.4116118 0.1833333 0.4116116
v -0.423905 0.1833333 0.4008309
v -0.4375001 0.1833333 0.3917468
v -0.4521647 0.1833333 0.3845151
v -0.4676477 0.1833333 0.3792592
v -0.4836844 0.1833333 0.3760694
v 0.3675142 0.1833333 0.3857897
v 0.3451851 0.1833333 0.2735334
v 0.3083946 0.1833333 0.165152
v 0.2577723 0.1833333 0.06250003
v 0.1941842 0.1833333 -0.03266622
v 0.1187185 0.1833333 -0.1187184
v 0.03266628 0.1833333 -0.1941842
v -0.06249998 0.1833333 -0.2577723
v -0.165152 0.1833333 -0.3083946
v -0.2735333 0.1833333 -0.3451852
v -0.3857896 0.1833333 -0.3675143
v -0.5 0.1833333 -0.3750001
v -0.5 0.1516667 -0.2500001
v -0.5 0.21 -0.2500001
v -0.5 0.21 -0.3750001
v -0.2500001 0.21 0.5
v -0.2500001 0.1516667 0.5
v -0.3750001 0.21 0.5
v -0.2530494 0.21 0.4677131
v -0.3760695 0.21 0.4836843
v -0.3792594 0.21 0.4676476
v -0.2601218 0.21 0.4360629
v -0.3845152 0.21 0.4521646
v -0.3917469 0.21 0.4375
v -0.400831 0.21 0.4239049
v -0.2711057 0.21 0.405549
v -0.4116118 0.21 0.4116116
v -0.423905 0.21 0.4008309
v -0.2858279 0.21 0.3766525
v -0.4375001 0.21 0.3917468
v -0.4521647 0.21 0.3845151
v -0.4676477 0.21 0.3792592
v -0.4836844 0.21 0.3760694
v -0.304056 0.21 0.3498293
v -0.5000001 0.21 0.375
v -0.5000001 0.21 0.2499999
v -0.3255026 0.21 0.3255025
v -0.3498293 0.21 0.3040559
v -0.3766526 0.21 0.2858278
v -0.405549 0.21 0.2711056
v -0.436063 0.21 0.2601217
v -0.4677131 0.21 0.2530493
v -0.2530494 0.1516667 0.4677131
v -0.2601218 0.1516667 0.4360629
v -0.2711057 0.1516667 0.405549
v -0.2858279 0.1516667 0.3766525
v -0.304056 0.1516667 0.3498293
v -0.3255026 0.1516667 0.3255025
v -0.3498293 0.1516667 0.3040559
v -0.3766526 0.1516667 0.2858278
v -0.405549 0.1516667 0.2711056
v -0.436063 0.1516667 0.2601217
v -0.4677131 0.1516667 0.2530493
v -0.5000001 0.1516667 0.2499999
v 0.25 0.21 0.5000001
v 0.2477242 0.21 0.4006371
v 0.375 0.21 0.5000001
v 0.3675142 0.21 0.3857897
v 0.231739 0.21 0.3025419
v 0.3451851 0.21 0.2735334
v 0.2023512 0.21 0.207597
v 0.3083946 0.21 0.165152
v 0.1601247 0.21 0.1176242
v 0.2577723 0.21 0.06250003
v 0.1058698 0.21 0.03435002
v 0.1941842 0.21 -0.03266622
v 0.04062757 0.21 -0.04062756
v 0.1187185 0.21 -0.1187184
v -0.03434999 0.21 -0.1058698
v -0.1176242 0.21 -0.1601247
v 0.03266628 0.21 -0.1941842
v -0.207597 0.21 -0.2023512
v -0.06249998 0.21 -0.2577723
v -0.3025419 0.21 -0.2317391
v -0.4006371 0.21 -0.2477243
v -0.165152 0.21 -0.3083946
v -0.2735333 0.21 -0.3451852
v -0.3857896 0.21 -0.3675143
v -0.4006371 0.1516667 -0.2477243
v -0.3025419 0.1516667 -0.2317391
v -0.207597 0.1516667 -0.2023512
v -0.1176242 0.1516667 -0.1601247
v -0.03434999 0.1516667 -0.1058698
v 0.04062757 0.1516667 -0.04062756
v 0.1058698 0.1516667 0.03435002
v 0.1601247 0.1516667 0.1176242
v 0.2023512 0.1516667 0.207597
v 0.231739 0.1516667 0.3025419
v 0.2477242 0.1516667 0.4006371
v 0.25 0.1516667 0.5000001

vn -1 0 -1.192093E-07
vn -1.192093E-07 0 1
vn 0 -1 0
vn 1.192093E-07 0 -1
vn 1 0 1.192093E-07
vn 0 1 0
vn -0.1305263 0 0.9914449
vn -0.06540325 0 0.9978591
vn -0.2588192 0 0.9659259
vn -0.3826836 0 0.9238795
vn -0.5000002 0 0.8660255
vn -0.6087616 0 0.7933534
vn -0.7071069 0 0.7071068
vn -0.7933535 0 0.6087614
vn -0.8660256 0 0.4999999
vn -0.9238797 0 0.3826834
vn -0.9659259 0 0.258819
vn -0.991445 0 0.1305261
vn -0.9978591 0 0.06540304
vn 0.9955699 0 -0.09402651
vn 0.9877001 0 -0.1563606
vn 0.9603106 0 -0.2789337
vn 0.9177726 0 -0.3971068
vn 0.8607574 0 -0.5090156
vn 0.7901644 0 -0.6128952
vn 0.7071069 0 -0.7071068
vn 0.6128954 0 -0.7901642
vn 0.5090159 0 -0.8607572
vn 0.397107 0 -0.9177724
vn 0.278934 0 -0.9603105
vn 0.1563609 0 -0.9877001
vn 0.09402673 0 -0.9955699
vn 0.991445 0 -0.1305261
vn 0.9978591 0 -0.06540304
vn 0.9659259 0 -0.258819
vn 0.9238797 0 -0.3826834
vn 0.8660256 0 -0.4999999
vn 0.7933535 0 -0.6087614
vn 0.6087616 0 -0.7933534
vn 0.5000002 0 -0.8660255
vn 0.3826836 0 -0.9238795
vn 0.2588192 0 -0.9659259
vn 0.1305263 0 -0.9914449
vn 0.06540325 0 -0.9978591
vn -0.09208752 0 0.995751
vn -0.02289815 0 0.9997379
vn -0.2288092 0 0.9734715
vn -0.3611402 0 0.9325118
vn -0.4865412 0 0.8736579
vn -0.6026058 0 0.7980391
vn -0.7980393 0 0.6026056
vn -0.873658 0 0.4865409
vn -0.9325118 0 0.36114
vn -0.9734715 0 0.2288089
vn -0.995751 0 0.09208727
vn -0.9997379 0 0.0228979

vt 19.68504 -2.067033E-13
vt 14.76378 -1.942688E-13
vt 19.68504 7.217848
vt 14.76378 7.217848
vt 19.68504 6.203765E-12
vt 14.76378 6.203765E-12
vt 19.68504 19.68504
vt 19.68504 14.76378
vt 14.76378 19.68504
vt 19.68504 9.84252
vt 19.68504 -9.84252
vt 19.68504 -14.76378
vt 19.68504 -19.68504
vt -19.68504 -19.68504
vt 9.84252 19.68504
vt -9.84252 19.68504
vt -14.76378 19.68504
vt -19.68504 19.68504
vt -19.68504 3.077936E-15
vt -19.68504 7.217848
vt 19.68504 1.462426E-14
vt 19.68504 3.944106E-15
vt -19.68504 3.944106E-15
vt -19.68504 14.76378
vt -19.04269 14.80588
vt -18.41132 14.93147
vt -17.80175 15.13839
vt -17.22441 15.4231
vt -16.68917 15.78074
vt -16.20518 16.20518
vt -15.78074 16.68917
vt -15.4231 17.22441
vt -15.13839 17.80175
vt -14.93147 18.41132
vt -14.80588 19.04269
vt -19.68504 -14.76378
vt -15.18857 -14.46906
vt -10.76903 -13.58996
vt -6.502047 -12.14152
vt -2.46063 -10.14851
vt 1.286073 -7.645046
vt 4.673954 -4.673954
vt 7.645046 -1.286073
vt 10.14851 2.46063
vt 12.14152 6.502047
vt 13.58996 10.76903
vt 14.46906 15.18857
vt -14.76378 6.727486E-13
vt -19.68504 2.209142E-13
vt -14.76378 7.217848
vt -14.76378 4.548062E-12
vt -19.68504 1.653627E-12
vt -9.84252 6.700841E-13
vt -9.84252 5.971128
vt -9.84252 8.267716
vt -14.76378 8.267716
vt -9.84252 4.548951E-12
vt -19.68504 9.84252
vt -18.4139 9.962573
vt -17.16783 10.24101
vt -15.96649 10.67345
vt -14.82884 11.25306
vt -13.77281 11.97071
vt -12.81506 12.81506
vt -11.97071 13.77281
vt -11.25306 14.82884
vt -10.67345 15.96649
vt -10.24101 17.16783
vt -9.962573 18.4139
vt -18.03356 7.217848
vt -18.6773 7.217848
vt -18.03356 8.267716
vt -18.6773 8.267716
vt -15.14457 7.217848
vt -15.7883 7.217848
vt -15.14457 8.267716
vt -15.7883 8.267716
vt -11.99094 7.217848
vt -12.63467 7.217848
vt -11.99094 8.267716
vt -12.63467 8.267716
vt -8.626639 7.217848
vt -9.27037 7.217848
vt -8.626639 8.267716
vt -9.27037 8.267716
vt -5.109224 7.217848
vt -5.752956 7.217848
vt -5.109224 8.267716
vt -5.752956 8.267716
vt -1.498882 7.217848
vt -2.142614 7.217848
vt -1.498882 8.267716
vt -2.142614 8.267716
vt 2.142614 7.217848
vt 1.498882 7.217848
vt 2.142614 8.267716
vt 1.498882 8.267716
vt 5.752956 7.217848
vt 5.109224 7.217848
vt 5.752956 8.267716
vt 5.109224 8.267716
vt 9.27037 7.217848
vt 8.626639 7.217848
vt 9.27037 8.267716
vt 8.626639 8.267716
vt 12.63467 7.217848
vt 11.99094 7.217848
vt 12.63467 8.267716
vt 11.99094 8.267716
vt 15.7883 7.217848
vt 15.14457 7.217848
vt 15.7883 8.267716
vt 15.14457 8.267716
vt 18.03356 7.217848
vt 18.03356 8.267716
vt 18.6773 7.217848
vt 18.6773 8.267716
vt -18.67237 5.971128
vt -18.67237 8.267716
vt -17.39557 5.971128
vt -17.39557 8.267716
vt -14.52129 5.971128
vt -15.79809 5.971128
vt -14.52129 8.267716
vt -15.79809 8.267716
vt -11.40787 5.971128
vt -12.68467 5.971128
vt -11.40787 8.267716
vt -12.68467 8.267716
vt -8.104432 5.971128
vt -9.38123 5.971128
vt -8.104432 8.267716
vt -9.38123 8.267716
vt -4.663081 5.971128
vt -5.939879 5.971128
vt -4.663081 8.267716
vt -5.939879 8.267716
vt -1.138102 5.971128
vt -2.4149 5.971128
vt -1.138102 8.267716
vt -2.4149 8.267716
vt 1.138102 5.971128
vt 1.138102 8.267716
vt 2.4149 5.971128
vt 2.4149 8.267716
vt 4.663081 5.971128
vt 4.663081 8.267716
vt 5.939879 5.971128
vt 5.939879 8.267716
vt 8.104432 5.971128
vt 8.104432 8.267716
vt 9.38123 5.971128
vt 9.38123 8.267716
vt 11.40787 5.971128
vt 11.40787 8.267716
vt 12.68467 5.971128
vt 12.68467 8.267716
vt 14.52129 5.971128
vt 14.52129 8.267716
vt 15.79809 5.971128
vt 15.79809 8.267716
vt 17.39557 5.971128
vt 17.39557 8.267716
vt 18.67237 5.971128
vt 18.67237 8.267716
vt -19.68504 -9.84252
vt -15.77311 -9.752921
vt -11.9111 -9.123583
vt -8.173109 -7.966582
vt -4.630873 -6.304121
vt -1.352362 -4.168101
vt 1.59951 -1.59951
vt 4.168101 1.352362
vt 6.304121 4.630873
vt 7.966582 8.173109
vt 9.123583 11.9111
vt 9.752921 15.77311
vt -16.10237 7.217848
vt -20.60849 7.217848
vt -16.10237 8.267716
vt -20.60849 8.267716
vt -17.7195 7.217848
vt -17.7195 8.267716
vt -13.21338 7.217848
vt -13.21338 8.267716
vt -10.05975 7.217848
vt -14.56587 7.217848
vt -10.05975 8.267716
vt -14.56587 8.267716
vt -11.20157 7.217848
vt -11.20157 8.267716
vt -6.695445 7.217848
vt -6.695445 8.267716
vt -7.684151 7.217848
vt -7.684151 8.267716
vt -3.17803 7.217848
vt -3.17803 8.267716
vt -4.073809 7.217848
vt -4.073809 8.267716
vt 0.4323127 7.217848
vt 0.4323127 8.267716
vt -0.4323127 7.217848
vt -0.4323127 8.267716
vt 4.073809 7.217848
vt 4.073809 8.267716
vt 3.17803 7.217848
vt 3.17803 8.267716
vt 7.684151 7.217848
vt 7.684151 8.267716
vt 6.695445 7.217848
vt 6.695445 8.267716
vt 11.20157 7.217848
vt 11.20157 8.267716
vt 10.05975 7.217848
vt 10.05975 8.267716
vt 14.56587 7.217848
vt 14.56587 8.267716
vt 13.21338 7.217848
vt 13.21338 8.267716
vt 17.7195 7.217848
vt 17.7195 8.267716
vt 16.10237 7.217848
vt 16.10237 8.267716
vt 20.60849 7.217848
vt 20.60849 8.267716
vt -15.9923 8.267716
vt -15.9923 5.971128
vt -19.90525 8.267716
vt -19.90525 5.971128
vt -13.22342 8.267716
vt -13.22342 5.971128
vt -17.13637 8.267716
vt -17.13637 5.971128
vt -10.16325 8.267716
vt -10.16325 5.971128
vt -14.0762 8.267716
vt -14.0762 5.971128
vt -6.870512 8.267716
vt -6.870512 5.971128
vt -10.78347 8.267716
vt -10.78347 5.971128
vt -3.408392 8.267716
vt -3.408392 5.971128
vt -7.321346 8.267716
vt -7.321346 5.971128
vt 0.1566752 8.267716
vt 0.1566752 5.971128
vt -3.756279 8.267716
vt -3.756279 5.971128
vt 3.756279 5.971128
vt -0.1566752 5.971128
vt 3.756279 8.267716
vt -0.1566752 8.267716
vt 7.321346 5.971128
vt 3.408392 5.971128
vt 7.321346 8.267716
vt 3.408392 8.267716
vt 6.870512 5.971128
vt 6.870512 8.267716
vt 10.78347 5.971128
vt 10.78347 8.267716
vt 10.16325 5.971128
vt 10.16325 8.267716
vt 14.0762 5.971128
vt 14.0762 8.267716
vt 17.13637 5.971128
vt 13.22342 5.971128
vt 17.13637 8.267716
vt 13.22342 8.267716
vt 15.9923 5.971128
vt 15.9923 8.267716
vt 19.90525 5.971128
vt 19.90525 8.267716
vt 9.84252 7.522481E-13
vt 9.84252 5.971128
vt 9.84252 8.267716
vt 14.76378 8.267716
vt 9.84252 1.886718E-11

usemtl grass

f 3/3/1 2/2/1 1/1/1
f 2/2/1 3/3/1 4/4/1
f 7/4/2 6/5/2 5/3/2
f 6/5/2 7/4/2 8/6/2
f 2/9/3 9/8/3 1/7/3
f 9/8/3 2/9/3 10/10/3
f 10/10/3 2/9/3 11/11/3
f 11/11/3 2/9/3 8/12/3
f 8/12/3 2/9/3 6/13/3
f 6/13/3 2/9/3 12/14/3
f 12/14/3 2/9/3 13/15/3
f 12/14/3 13/15/3 14/16/3
f 12/14/3 14/16/3 15/17/3
f 12/14/3 15/17/3 16/18/3
f 16/21/4 17/20/4 12/19/4
f 17/20/4 16/21/4 18/3/4
f 17/3/5 6/23/5 12/22/5
f 6/23/5 17/3/5 5/20/5
f 20/25/6 3/18/6 19/24/6
f 3/18/6 20/25/6 4/17/6
f 4/17/6 20/25/6 21/26/6
f 4/17/6 21/26/6 22/27/6
f 4/17/6 22/27/6 23/28/6
f 4/17/6 23/28/6 24/29/6
f 4/17/6 24/29/6 25/30/6
f 4/17/6 25/30/6 26/31/6
f 4/17/6 26/31/6 27/32/6
f 4/17/6 27/32/6 28/33/6
f 4/17/6 28/33/6 29/34/6
f 4/17/6 29/34/6 30/35/6
f 5/14/6 31/37/6 7/36/6
f 31/37/6 5/14/6 17/13/6
f 31/37/6 17/13/6 32/38/6
f 32/38/6 17/13/6 33/39/6
f 33/39/6 17/13/6 34/40/6
f 34/40/6 17/13/6 35/41/6
f 35/41/6 17/13/6 36/42/6
f 36/42/6 17/13/6 37/43/6
f 37/43/6 17/13/6 38/44/6
f 38/44/6 17/13/6 39/45/6
f 39/45/6 17/13/6 40/46/6
f 40/46/6 17/13/6 41/47/6
f 41/47/6 17/13/6 42/9/6
f 42/9/6 17/13/6 18/7/6
f 42/50/1 16/49/1 15/48/1
f 16/49/1 42/50/1 18/20/1
f 3/20/2 9/51/2 19/50/2
f 9/51/2 3/20/2 1/52/2

usemtl pavement

f 43/54/1 15/48/1 14/53/1
f 15/48/1 43/54/1 42/50/1
f 42/50/1 43/54/1 44/55/1
f 42/50/1 44/55/1 45/56/1
f 48/56/2 47/54/2 46/55/2
f 47/54/2 48/56/2 10/57/2
f 10/57/2 48/56/2 19/50/2
f 9/51/2 10/57/2 19/50/2
f 49/59/6 48/24/6 46/58/6
f 48/24/6 49/59/6 50/25/6
f 50/25/6 49/59/6 51/26/6
f 51/26/6 49/59/6 52/60/6
f 51/26/6 52/60/6 53/27/6
f 53/27/6 52/60/6 54/28/6
f 54/28/6 52/60/6 55/29/6
f 55/29/6 52/60/6 56/61/6
f 55/29/6 56/61/6 57/30/6
f 57/30/6 56/61/6 58/31/6
f 58/31/6 56/61/6 59/62/6
f 58/31/6 59/62/6 60/32/6
f 60/32/6 59/62/6 61/33/6
f 61/33/6 59/62/6 62/34/6
f 62/34/6 59/62/6 63/35/6
f 63/35/6 59/62/6 64/63/6
f 63/35/6 64/63/6 65/17/6
f 65/17/6 64/63/6 66/16/6
f 66/16/6 64/63/6 67/64/6
f 66/16/6 67/64/6 68/65/6
f 66/16/6 68/65/6 69/66/6
f 66/16/6 69/66/6 70/67/6
f 66/16/6 70/67/6 71/68/6
f 66/16/6 71/68/6 72/69/6
f 63/72/7 4/71/8 30/70/7
f 4/71/8 63/72/7 65/73/8
f 62/76/9 30/75/7 29/74/9
f 30/75/7 62/76/9 63/77/7
f 61/80/10 29/79/9 28/78/10
f 29/79/9 61/80/10 62/81/9
f 60/84/11 28/83/10 27/82/11
f 28/83/10 60/84/11 61/85/10
f 58/88/12 27/87/11 26/86/12
f 27/87/11 58/88/12 60/89/11
f 57/92/13 26/91/12 25/90/13
f 26/91/12 57/92/13 58/93/12
f 55/96/14 25/95/13 24/94/14
f 25/95/13 55/96/14 57/97/13
f 54/100/15 24/99/14 23/98/15
f 24/99/14 54/100/15 55/101/14
f 53/104/16 23/103/15 22/102/16
f 23/103/15 53/104/16 54/105/15
f 51/108/17 22/107/16 21/106/17
f 22/107/16 51/108/17 53/109/16
f 50/112/18 21/111/17 20/110/18
f 21/111/17 50/112/18 51/113/17
f 19/116/19 50/115/18 20/114/18
f 50/115/18 19/116/19 48/117/19
f 73/120/21 46/119/20 47/118/20
f 46/119/20 73/120/21 49/121/21
f 52/124/22 73/123/21 74/122/22
f 73/123/21 52/124/22 49/125/21
f 56/128/23 74/127/22 75/126/23
f 74/127/22 56/128/23 52/129/22
f 59/132/24 75/131/23 76/130/24
f 75/131/23 59/132/24 56/133/23
f 64/136/25 76/135/24 77/134/25
f 76/135/24 64/136/25 59/137/24
f 67/140/26 77/139/25 78/138/26
f 77/139/25 67/140/26 64/141/25
f 79/144/27 67/143/26 78/142/26
f 67/143/26 79/144/27 68/145/27
f 80/148/28 68/147/27 79/146/27
f 68/147/27 80/148/28 69/149/28
f 81/152/29 69/151/28 80/150/28
f 69/151/28 81/152/29 70/153/29
f 82/156/30 70/155/29 81/154/29
f 70/155/29 82/156/30 71/157/30
f 83/160/31 71/159/30 82/158/30
f 71/159/30 83/160/31 72/161/31
f 84/164/32 72/163/31 83/162/31
f 72/163/31 84/164/32 66/165/32
f 87/36/6 86/167/6 85/166/6
f 86/167/6 87/36/6 88/37/6
f 86/167/6 88/37/6 89/168/6
f 89/168/6 88/37/6 90/38/6
f 89/168/6 90/38/6 91/169/6
f 91/169/6 90/38/6 92/39/6
f 91/169/6 92/39/6 93/170/6
f 93/170/6 92/39/6 94/40/6
f 93/170/6 94/40/6 95/171/6
f 95/171/6 94/40/6 96/41/6
f 95/171/6 96/41/6 97/172/6
f 97/172/6 96/41/6 98/42/6
f 97/172/6 98/42/6 99/173/6
f 99/173/6 98/42/6 100/174/6
f 100/174/6 98/42/6 101/43/6
f 100/174/6 101/43/6 102/175/6
f 102/175/6 101/43/6 103/44/6
f 102/175/6 103/44/6 104/176/6
f 104/176/6 103/44/6 105/177/6
f 105/177/6 103/44/6 44/15/6
f 44/15/6 103/44/6 45/9/6
f 45/9/6 103/44/6 106/45/6
f 45/9/6 106/45/6 107/46/6
f 45/9/6 107/46/6 108/47/6
f 88/180/33 7/179/34 31/178/33
f 7/179/34 88/180/33 87/181/34
f 32/184/35 88/183/33 31/182/33
f 88/183/33 32/184/35 90/185/35
f 92/188/36 32/187/35 33/186/36
f 32/187/35 92/188/36 90/189/35
f 34/192/37 92/191/36 33/190/36
f 92/191/36 34/192/37 94/193/37
f 35/196/38 94/195/37 34/194/37
f 94/195/37 35/196/38 96/197/38
f 36/200/26 96/199/38 35/198/38
f 96/199/38 36/200/26 98/201/26
f 37/204/39 98/203/26 36/202/26
f 98/203/26 37/204/39 101/205/39
f 38/208/40 101/207/39 37/206/39
f 101/207/39 38/208/40 103/209/40
f 39/212/41 103/211/40 38/210/40
f 103/211/40 39/212/41 106/213/41
f 40/216/42 106/215/41 39/214/41
f 106/215/41 40/216/42 107/217/42
f 41/220/43 107/219/42 40/218/42
f 107/219/42 41/220/43 108/221/43
f 42/224/44 108/223/43 41/222/43
f 108/223/43 42/224/44 45/225/44
f 44/228/46 109/227/45 105/226/45
f 109/227/45 44/228/46 43/229/46
f 105/232/45 110/231/47 104/230/47
f 110/231/47 105/232/45 109/233/45
f 104/236/47 111/235/48 102/234/48
f 111/235/48 104/236/47 110/237/47
f 102/240/48 112/239/49 100/238/49
f 112/239/49 102/240/48 111/241/48
f 100/244/49 113/243/50 99/242/50
f 113/243/50 100/244/49 112/245/49
f 99/248/50 114/247/13 97/246/13
f 114/247/13 99/248/50 113/249/50
f 95/252/51 114/251/13 115/250/51
f 114/251/13 95/252/51 97/253/13
f 93/256/52 115/255/51 116/254/52
f 115/255/51 93/256/52 95/257/51
f 117/260/53 93/259/52 116/258/52
f 93/259/52 117/260/53 91/261/53
f 118/264/54 91/263/53 117/262/53
f 91/263/53 118/264/54 89/265/54
f 86/268/55 118/267/54 119/266/55
f 118/267/54 86/268/55 89/269/54
f 120/272/56 86/271/55 119/270/55
f 86/271/55 120/272/56 85/273/56
f 2/2/1 84/275/1 13/274/1
f 84/275/1 2/2/1 4/4/1
f 84/275/1 4/4/1 66/276/1
f 66/276/1 4/4/1 65/277/1
f 85/276/2 7/4/2 87/277/2
f 7/4/2 85/276/2 8/6/2
f 8/6/2 85/276/2 11/278/2
f 11/278/2 85/276/2 120/275/2

usemtl water

f 84/275/1 14/53/1 13/274/1
f 14/53/1 84/275/1 43/54/1
f 47/54/2 11/278/2 120/275/2
f 11/278/2 47/54/2 10/57/2
f 119/167/6 47/58/6 120/166/6
f 47/58/6 119/167/6 73/59/6
f 73/59/6 119/167/6 74/60/6
f 74/60/6 119/167/6 75/61/6
f 75/61/6 119/167/6 76/62/6
f 76/62/6 119/167/6 118/168/6
f 76/62/6 118/168/6 77/63/6
f 77/63/6 118/168/6 78/64/6
f 78/64/6 118/168/6 79/65/6
f 79/65/6 118/168/6 80/66/6
f 80/66/6 118/168/6 117/169/6
f 80/66/6 117/169/6 81/67/6
f 81/67/6 117/169/6 82/68/6
f 82/68/6 117/169/6 83/69/6
f 83/69/6 117/169/6 84/16/6
f 84/16/6 117/169/6 43/15/6
f 43/15/6 117/169/6 116/170/6
f 43/15/6 116/170/6 115/171/6
f 43/15/6 115/171/6 114/172/6
f 43/15/6 114/172/6 113/173/6
f 43/15/6 113/173/6 112/174/6
f 43/15/6 112/174/6 111/175/6
f 43/15/6 111/175/6 110/176/6
f 43/15/6 110/176/6 109/177/6

