# Created by Kenney (www.kenney.nl)

mtllib tile216.mtl

g tile216

v -0.2448289 1.68446E-15 -0.2448289
v -0.00665356 3.116251E-14 -0.2448289
v -0.2448289 0.21 -0.2448289
v -0.00665356 0.2 -0.2448289
v -0.00665356 0.21 -0.2448289
v 0.04032407 4.812743E-16 -0.04032407
v 0.04032407 0.21 -0.04032407
v 0.1373515 4.812743E-16 0.07031445
v 0.1373515 0.21 0.07031445
v 0.2191075 2.406371E-16 0.1926711
v 0.2191075 0.21 0.1926711
v 0.2448289 0 0.2448289
v 0.2448289 0.21 0.2448289
v -0.07031445 4.812743E-16 -0.1373515
v -0.1926711 4.812743E-16 -0.2191075
v -0.07031445 0.21 -0.1373515
v -0.1926711 0.21 -0.2191075
v 0.2365206 0.21 -0.005780728
v 0.2365206 0.2 -0.005780728
v 0.2448289 0.21 0.00665356
v 0.2448289 0.2 0.00665356
v 0.2448289 2.177766E-14 0.00665356
v 0.2448289 2.292069E-14 -0.2448289
v 0.005780728 0.2 -0.2365206
v 0.005780728 0.21 -0.2365206
v 0.1287124 0.21 -0.1287124
v 0.1287124 0.2 -0.1287124
v 0.2448289 0.2 -0.2448289

vn 0 0 -0.3333333
vn -0.2357023 0 0.2357023
vn -0.2644511 0 0.2029205
vn -0.2886752 0 0.1666667
vn -0.2989576 0 0.1474296
vn -0.2029205 0 0.2644511
vn -0.1666667 0 0.2886752
vn 0.2644511 0 -0.2029205
vn 0.2771565 0 -0.1851901
vn 0 -0.3333333 0
vn 0.1851901 0 -0.2771565
vn 0.2029205 0 -0.2644511
vn 0.2357023 0 -0.2357023
vn 0 0.3333333 0
vn -0.1474296 0 0.2989576
vn 0.3333333 0 0

vt 28.9168 1.98952E-13
vt 0.7858535 3.680611E-12
vt 28.9168 24.80315
vt 0.7858535 23.62205
vt 0.7858535 24.80315
vt -0.4405198 3.8992E-14
vt -0.4405198 24.80315
vt 16.94023 3.8992E-14
vt 16.94023 24.80315
vt 31.85554 2.839931E-14
vt 31.85554 24.80315
vt 38.72427 -2.24008E-17
vt 38.72427 24.80315
vt -15.91804 2.721985E-14
vt -33.29879 2.721985E-14
vt -15.91804 24.80315
vt -33.29879 24.80315
vt -14.95244 24.80315
vt -14.95244 23.62205
vt -16.71873 24.80315
vt -16.71873 23.62205
vt 28.9168 28.9168
vt 28.9168 0.7858535
vt 25.87884 22.75642
vt 28.9168 -28.9168
vt -0.7858535 -28.9168
vt 16.22261 8.304856
vt 4.762685 -4.762685
vt -8.304856 -16.22261
vt -22.75642 -25.87884
vt -28.9168 -28.9168
vt 15.91804 3.693061E-14
vt 15.91804 24.80315
vt 33.29879 8.508901E-15
vt 33.29879 24.80315
vt 16.71873 23.62205
vt 14.95244 23.62205
vt 16.71873 24.80315
vt 14.95244 24.80315
vt 1.406117 24.80315
vt 1.406117 23.62205
vt -17.90583 24.80315
vt -17.90583 23.62205
vt 0.4405198 3.652653E-14
vt -16.94023 3.652653E-14
vt 0.4405198 24.80315
vt -16.94023 24.80315
vt -1.406117 23.62205
vt -1.406117 24.80315
vt 17.90583 23.62205
vt 17.90583 24.80315
vt -28.9168 28.9168
vt -25.87884 22.75642
vt -28.9168 0.7858535
vt -27.9355 -0.682763
vt -15.20225 -15.20225
vt -16.22261 8.304856
vt -4.762685 -4.762685
vt -0.682763 -27.9355
vt 8.304856 -16.22261
vt 0.7858535 -28.9168
vt 22.75642 -25.87884
vt -31.85554 5.67605E-14
vt -38.72427 1.988691E-13
vt -31.85554 24.80315
vt -38.72427 24.80315
vt -0.7858535 24.80315
vt -0.7858535 23.62205
vt -28.9168 24.80315
vt -0.7858535 2.554768E-12
vt -28.9168 -1.801413E-29
vt -28.9168 2.707168E-12
vt -28.9168 23.62205
vt 28.9168 23.62205
vt 28.9168 2.689772E-12

usemtl pavement

f 3/3/1 2/2/1 1/1/1
f 2/2/1 3/3/1 4/4/1
f 4/4/1 3/3/1 5/5/1
f 8/8/3 7/7/2 6/6/2
f 7/7/2 8/8/3 9/9/3
f 12/12/5 11/11/4 10/10/4
f 11/11/4 12/12/5 13/13/5
f 16/16/6 15/15/7 14/14/6
f 15/15/7 16/16/6 17/17/7
f 20/20/9 19/19/8 18/18/8
f 19/19/8 20/20/9 21/21/9
f 10/24/10 22/23/10 12/22/10
f 22/23/10 10/24/10 23/25/10
f 23/25/10 10/24/10 2/26/10
f 2/26/10 10/24/10 8/27/10
f 2/26/10 8/27/10 6/28/10
f 2/26/10 6/28/10 14/29/10
f 2/26/10 14/29/10 15/30/10
f 2/26/10 15/30/10 1/31/10
f 10/34/4 9/33/3 8/32/3
f 9/33/3 10/34/4 11/35/4
f 5/38/11 24/37/12 4/36/11
f 24/37/12 5/38/11 25/39/12
f 18/42/8 27/41/13 26/40/13
f 27/41/13 18/42/8 19/43/8
f 7/46/2 14/45/6 6/44/2
f 14/45/6 7/46/2 16/47/6
f 24/50/12 26/49/13 27/48/13
f 26/49/13 24/50/12 25/51/12
f 20/54/14 11/53/14 13/52/14
f 11/53/14 20/54/14 18/55/14
f 11/53/14 18/55/14 26/56/14
f 11/53/14 26/56/14 9/57/14
f 9/57/14 26/56/14 7/58/14
f 7/58/14 26/56/14 25/59/14
f 7/58/14 25/59/14 16/60/14
f 16/60/14 25/59/14 5/61/14
f 16/60/14 5/61/14 17/62/14
f 17/62/14 5/61/14 3/25/14
f 17/65/7 1/64/15 15/63/7
f 1/64/15 17/65/7 3/66/15
f 13/69/16 21/68/16 20/67/16
f 21/68/16 13/69/16 22/70/16
f 22/70/16 13/69/16 12/71/16

usemtl asphalt

f 2/2/1 28/73/1 23/72/1
f 28/73/1 2/2/1 4/4/1
f 28/31/14 19/55/14 21/54/14
f 19/55/14 28/31/14 27/56/14
f 27/56/14 28/31/14 24/59/14
f 24/59/14 28/31/14 4/61/14
f 21/68/16 23/75/16 28/74/16
f 23/75/16 21/68/16 22/70/16

