# Created by Kenney (www.kenney.nl)

mtllib tile126.mtl

g tile126

v -0.125 4.511947E-16 -0.5000001
v -0.125 0.1516667 -0.5000001
v -0.5 5.86553E-16 -0.5000001
v -0.5 0.1516667 -0.5000001
v -0.5000001 5.86553E-16 0.4999999
v -0.5000001 0.1516667 0.4999999
v 0.5 0.1516667 0.5000001
v 0.5 0 0.5000001
v 0.1195241 0.1516667 -0.004154146
v 0.1875 0.1516667 0.0412659
v 0.2608229 0.1516667 0.07742473
v 0.3382381 0.1516667 0.1037037
v 0.4184211 0.1516667 0.1196531
v 0.5000001 0.1516667 0.1250001
v 0.05805827 0.1516667 -0.05805826
v 0.004154177 0.1516667 -0.1195241
v -0.04126585 0.1516667 -0.1875
v -0.07742468 0.1516667 -0.2608229
v -0.1037036 0.1516667 -0.3382381
v -0.119653 0.1516667 -0.4184212
v 0.5000001 1.127987E-16 0.1250001
v 0.5000001 1.579181E-16 -0.2499999
v 0.5000001 0.1516667 -0.2499999
v 0.4673685 0.1516667 -0.2521387
v 0.4352953 0.1516667 -0.2585185
v 0.4043292 0.1516667 -0.2690301
v 0.3750001 0.1516667 -0.2834936
v 0.3478097 0.1516667 -0.3016617
v 0.3232234 0.1516667 -0.3232233
v 0.3016617 0.1516667 -0.3478096
v 0.2834937 0.1516667 -0.375
v 0.2690302 0.1516667 -0.4043292
v 0.2585186 0.1516667 -0.4352952
v 0.2521389 0.1516667 -0.4673685
v 0.2500001 0.1516667 -0.5
v 0.2500001 2.707168E-16 -0.5
v 0.5000001 1.353584E-16 -0.4999999
v 0.5000001 0.1833333 -0.4999999
v 0.5000001 0.1833333 -0.2499999
v 0.2500001 0.1833333 -0.5
v 0.4673685 0.1833333 -0.2521387
v 0.4352953 0.1833333 -0.2585185
v 0.4043292 0.1833333 -0.2690301
v 0.3750001 0.1833333 -0.2834936
v 0.3478097 0.1833333 -0.3016617
v 0.3232234 0.1833333 -0.3232233
v 0.3016617 0.1833333 -0.3478096
v 0.2834937 0.1833333 -0.375
v 0.2690302 0.1833333 -0.4043292
v 0.2585186 0.1833333 -0.4352952
v 0.2521389 0.1833333 -0.4673685

vn 1.192093E-07 0 -1
vn -1 0 -1.192093E-07
vn -1.192093E-07 0 1
vn 0 1 0
vn 1 0 1.192093E-07
vn 0 -1 0
vn -0.9978591 0 0.06540304
vn -0.991445 0 0.1305261
vn -0.9659259 0 0.258819
vn -0.9238797 0 0.3826834
vn -0.8660256 0 0.4999999
vn -0.7933535 0 0.6087614
vn -0.7071069 0 0.7071068
vn -0.6087616 0 0.7933534
vn -0.5000002 0 0.8660255
vn -0.3826836 0 0.9238795
vn -0.2588192 0 0.9659259
vn -0.1305263 0 0.9914449
vn -0.06540325 0 0.9978591

vt 4.92126 -8.849556E-11
vt 4.92126 5.971128
vt 19.68504 -8.849023E-11
vt 19.68504 5.971128
vt 19.68504 2.309264E-14
vt -19.68504 2.309264E-14
vt -19.68504 5.971128
vt 19.68504 -9.994448E-13
vt -19.68504 -9.763521E-13
vt -19.68504 19.68504
vt 19.68504 19.68504
vt -19.68504 -19.68504
vt 0.1635497 -4.705674
vt -1.624641 -7.38189
vt -3.048217 -10.26862
vt -4.08282 -13.31646
vt -4.71075 -16.47327
vt -4.92126 -19.68504
vt 2.285758 -2.285758
vt 4.705674 -0.1635497
vt 7.38189 1.624641
vt 10.26862 3.048217
vt 13.31646 4.08282
vt 16.47327 4.71075
vt 19.68504 4.92126
vt -19.68504 8.457801E-11
vt -4.92126 8.495724E-11
vt -4.92126 5.971128
vt 9.84252 8.495902E-11
vt 9.84252 5.971128
vt 9.84252 -19.68504
vt 9.926723 -18.40033
vt 10.1779 -17.13761
vt 10.59174 -15.91847
vt 11.16117 -14.76378
vt 11.87644 -13.69329
vt 12.72533 -12.72533
vt 13.69329 -11.87644
vt 14.76378 -11.16117
vt 15.91847 -10.59174
vt 17.13761 -10.1779
vt 18.40033 -9.926723
vt 19.68504 -9.84252
vt -9.84252 1.697221E-12
vt -9.84252 5.971128
vt 19.68504 5.050515E-13
vt 19.68504 7.217848
vt 9.84252 7.217848
vt 19.68504 -19.68504
vt 4.92126 -19.68504
vt -9.84252 -19.68504
vt -19.68504 -9.84252
vt -19.68504 4.92126
vt -19.68504 1.691892E-12
vt -19.68504 7.217848
vt -9.84252 7.217848
vt -18.99916 5.971128
vt -18.99916 7.217848
vt -17.7117 5.971128
vt -17.7117 7.217848
vt -16.11017 5.971128
vt -16.11017 7.217848
vt -14.8227 5.971128
vt -14.8227 7.217848
vt -12.95654 5.971128
vt -12.95654 7.217848
vt -11.66908 5.971128
vt -11.66908 7.217848
vt -9.592237 5.971128
vt -9.592237 7.217848
vt -8.304773 5.971128
vt -8.304773 7.217848
vt -4.787359 5.971128
vt -6.074822 5.971128
vt -4.787359 7.217848
vt -6.074822 7.217848
vt -1.177016 5.971128
vt -2.464479 5.971128
vt -1.177016 7.217848
vt -2.464479 7.217848
vt 2.464479 7.217848
vt 2.464479 5.971128
vt 1.177016 7.217848
vt 1.177016 5.971128
vt 6.074822 7.217848
vt 6.074822 5.971128
vt 4.787359 7.217848
vt 4.787359 5.971128
vt 9.592237 7.217848
vt 9.592237 5.971128
vt 8.304773 7.217848
vt 8.304773 5.971128
vt 12.95654 7.217848
vt 12.95654 5.971128
vt 11.66908 7.217848
vt 11.66908 5.971128
vt 16.11017 7.217848
vt 16.11017 5.971128
vt 14.8227 7.217848
vt 14.8227 5.971128
vt 18.99916 7.217848
vt 18.99916 5.971128
vt 17.7117 7.217848
vt 17.7117 5.971128

usemtl water

f 3/3/1 2/2/1 1/1/1
f 2/2/1 3/3/1 4/4/1
f 6/4/2 3/6/2 5/5/2
f 3/6/2 6/4/2 4/7/2
f 6/7/3 8/8/3 7/4/3
f 8/8/3 6/7/3 5/9/3
f 7/12/4 4/11/4 6/10/4
f 4/11/4 7/12/4 9/13/4
f 9/13/4 7/12/4 10/14/4
f 10/14/4 7/12/4 11/15/4
f 11/15/4 7/12/4 12/16/4
f 12/16/4 7/12/4 13/17/4
f 13/17/4 7/12/4 14/18/4
f 4/11/4 9/13/4 15/19/4
f 4/11/4 15/19/4 16/20/4
f 4/11/4 16/20/4 17/21/4
f 4/11/4 17/21/4 18/22/4
f 4/11/4 18/22/4 19/23/4
f 4/11/4 19/23/4 20/24/4
f 4/11/4 20/24/4 2/25/4
f 21/27/5 7/7/5 8/26/5
f 7/7/5 21/27/5 14/28/5

usemtl sand

f 22/29/5 14/28/5 21/27/5
f 14/28/5 22/29/5 23/30/5
f 23/31/4 13/17/4 14/18/4
f 13/17/4 23/31/4 12/16/4
f 12/16/4 23/31/4 11/15/4
f 11/15/4 23/31/4 10/14/4
f 10/14/4 23/31/4 9/13/4
f 9/13/4 23/31/4 15/19/4
f 15/19/4 23/31/4 16/20/4
f 16/20/4 23/31/4 17/21/4
f 17/21/4 23/31/4 18/22/4
f 18/22/4 23/31/4 24/32/4
f 18/22/4 24/32/4 25/33/4
f 18/22/4 25/33/4 26/34/4
f 18/22/4 26/34/4 19/23/4
f 19/23/4 26/34/4 27/35/4
f 19/23/4 27/35/4 28/36/4
f 19/23/4 28/36/4 29/37/4
f 19/23/4 29/37/4 30/38/4
f 19/23/4 30/38/4 20/24/4
f 20/24/4 30/38/4 31/39/4
f 20/24/4 31/39/4 32/40/4
f 20/24/4 32/40/4 33/41/4
f 20/24/4 33/41/4 2/25/4
f 2/25/4 33/41/4 34/42/4
f 2/25/4 34/42/4 35/43/4
f 1/1/1 35/45/1 36/44/1
f 35/45/1 1/1/1 2/2/1

usemtl grass

f 38/47/5 22/29/5 37/46/5
f 22/29/5 38/47/5 23/30/5
f 23/30/5 38/47/5 39/48/5
f 3/10/6 8/49/6 5/11/6
f 8/49/6 3/10/6 21/50/6
f 21/50/6 3/10/6 22/51/6
f 22/51/6 3/10/6 36/52/6
f 22/51/6 36/52/6 37/12/6
f 36/52/6 3/10/6 1/53/6
f 36/44/1 38/55/1 37/54/1
f 38/55/1 36/44/1 40/56/1
f 40/56/1 36/44/1 35/45/1
f 38/49/4 41/32/4 39/31/4
f 41/32/4 38/49/4 42/33/4
f 42/33/4 38/49/4 43/34/4
f 43/34/4 38/49/4 44/35/4
f 44/35/4 38/49/4 45/36/4
f 45/36/4 38/49/4 46/37/4
f 46/37/4 38/49/4 47/38/4
f 47/38/4 38/49/4 48/39/4
f 48/39/4 38/49/4 49/40/4
f 49/40/4 38/49/4 50/41/4
f 50/41/4 38/49/4 51/42/4
f 51/42/4 38/49/4 40/43/4
f 34/59/8 40/58/7 35/57/7
f 40/58/7 34/59/8 51/60/8
f 33/63/9 51/62/8 34/61/8
f 51/62/8 33/63/9 50/64/9
f 32/67/10 50/66/9 33/65/9
f 50/66/9 32/67/10 49/68/10
f 31/71/11 49/70/10 32/69/10
f 49/70/10 31/71/11 48/72/11
f 47/75/12 31/74/11 30/73/12
f 31/74/11 47/75/12 48/76/11
f 46/79/13 30/78/12 29/77/13
f 30/78/12 46/79/13 47/80/12
f 46/83/13 28/82/14 45/81/14
f 28/82/14 46/83/13 29/84/13
f 45/87/14 27/86/15 44/85/15
f 27/86/15 45/87/14 28/88/14
f 44/91/15 26/90/16 43/89/16
f 26/90/16 44/91/15 27/92/15
f 43/95/16 25/94/17 42/93/17
f 25/94/17 43/95/16 26/96/16
f 42/99/17 24/98/18 41/97/18
f 24/98/18 42/99/17 25/100/17
f 41/103/18 23/102/19 39/101/19
f 23/102/19 41/103/18 24/104/18

