# Created by Kenney (www.kenney.nl)

mtllib tile074.mtl

g tile074

v -0.5000001 0.1833333 -0.4999999
v -0.5000001 0 -0.4999999
v 0.5 0.1833333 -0.5000001
v 0.5 0 -0.5000001
v -0.5 0 0.5000001
v -0.5 0 0.3750001
v -0.5 0.1833333 0.5000001
v -0.5 0.1833333 0.3750001
v 0.5 0 -0.3750001
v 0.5 0.1833333 -0.3750001
v 0.5000001 0 0.4999999
v -0.375 0 0.5000001
v 0.3750001 0 0.5
v 0.5000001 0 0.375
v -0.5000001 0 -0.375
v 0.3750001 0.1833333 0.5
v 0.5000001 0.1833333 0.4999999
v -0.5000001 0.1833333 -0.375
v 0.5000001 0.1833333 0.375
v 0.3750001 0.1833333 0.375
v -0.375 0.1833333 0.3750001
v -0.375 0.1833333 0.5000001
v -0.5000001 0.2 -0.2499999
v 0.5 0.2 -0.2500001
v -0.5 0.2 0.2500001
v -0.25 0.2 0.2500001
v 0.5000001 0.2 0.2499999
v 0.2500001 0.2 0.25
v -0.5 0.1 0.2500001
v -0.5000001 0.1 -0.2499999
v 0.5 0.1 -0.2500001
v 0.5000001 0.1 0.2499999
v 0.5 0.21 -0.3750001
v 0.5 0.21 -0.2500001
v -0.5000001 0.21 -0.375
v -0.5000001 0.21 -0.2499999
v 0.2500001 0.21 0.25
v 0.5000001 0.21 0.2499999
v -0.5 0.21 0.2500001
v -0.25 0.21 0.2500001
v 0.2500001 0.21 0.5
v -0.25 0.21 0.5000001
v -0.5 0.21 0.3750001
v -0.375 0.21 0.3750001
v -0.375 0.21 0.5000001
v 0.5000001 0.21 0.375
v 0.3750001 0.21 0.375
v 0.3750001 0.21 0.5

vn -1.192093E-07 0 -1
vn -1 0 1.192093E-07
vn 1 0 -1.192093E-07
vn 0 -1 0
vn 1.192093E-07 0 1
vn 0 1 0
vn -1.862645E-09 0.9999112 -0.01332505
vn -3.72529E-09 0.999201 -0.03996805

vt 19.68504 7.217848
vt 19.68504 0
vt -19.68504 7.217848
vt -19.68504 0
vt 19.68504 -2.583792E-14
vt 14.76378 -2.583792E-14
vt 14.76378 7.217848
vt 19.68504 5.167584E-14
vt 14.76378 5.167584E-14
vt -19.68504 19.68504
vt -19.68504 -14.76378
vt -19.68504 14.76378
vt -19.68504 -19.68504
vt -14.76378 -19.68504
vt -14.76378 19.68504
vt 14.76378 -19.68504
vt 14.76378 19.68504
vt 19.68504 -19.68504
vt 19.68504 19.68504
vt 14.76378 0
vt 14.76378 14.76378
vt 19.68504 14.76378
vt 14.76378 -14.76378
vt 19.68504 -14.76378
vt -14.76378 -9.55137E-27
vt -19.68504 -9.55137E-27
vt -14.76378 7.217848
vt -14.76378 0
vt -14.76378 6.36758E-27
vt -19.68504 6.36758E-27
vt -9.84252 -19.68504
vt -9.84252 19.68504
vt 9.84252 -19.68504
vt 9.84252 -9.84252
vt 9.84252 19.68504
vt 9.84252 9.84252
vt 9.84252 3.937008
vt -9.84252 3.937008
vt 9.84252 7.874016
vt -9.84252 7.874016
vt -19.68504 7.874016
vt -19.68504 8.267716
vt 19.68504 7.874016
vt 19.68504 8.267716
vt -9.84252 8.267716
vt 9.84252 8.267716
vt 9.84252 10.14936
vt -9.84252 10.14936
vt 9.84252 19.99975
vt -9.84252 19.99975
vt 19.68504 -9.84252
vt 19.68504 9.84252
vt 14.76378 8.267716
vt -14.76378 8.267716

usemtl grass

f 3/3/1 2/2/1 1/1/1
f 2/2/1 3/3/1 4/4/1
f 7/1/2 6/6/2 5/5/2
f 6/6/2 7/1/2 8/7/2
f 3/1/3 9/9/3 4/8/3
f 9/9/3 3/1/3 10/7/3
f 13/12/4 12/11/4 11/10/4
f 5/13/4 11/10/4 12/11/4
f 6/14/4 11/10/4 5/13/4
f 6/14/4 14/15/4 11/10/4
f 15/16/4 14/15/4 6/14/4
f 15/16/4 9/17/4 14/15/4
f 2/18/4 9/17/4 15/16/4
f 9/17/4 2/18/4 4/19/4
f 11/2/5 16/7/5 13/20/5
f 16/7/5 11/2/5 17/1/5
f 18/14/6 3/10/6 1/13/6
f 3/10/6 18/14/6 10/15/6
f 20/21/6 17/19/6 19/17/6
f 17/19/6 20/21/6 16/22/6
f 8/16/6 22/24/6 21/23/6
f 22/24/6 8/16/6 7/18/6
f 18/27/2 2/26/2 15/25/2
f 2/26/2 18/27/2 1/3/2
f 12/28/5 7/3/5 5/4/5
f 7/3/5 12/28/5 22/27/5
f 19/27/3 11/30/3 14/29/3
f 11/30/3 19/27/3 17/3/3

usemtl asphalt

f 25/33/6 24/32/6 23/31/6
f 24/32/6 25/33/6 26/34/7
f 26/34/7 27/35/6 24/32/6
f 27/35/6 26/34/7 28/36/7
f 25/39/2 30/38/2 29/37/2
f 30/38/2 25/39/2 23/40/2
f 24/39/3 32/38/3 31/37/3
f 32/38/3 24/39/3 27/40/3

usemtl pavement

f 35/14/6 34/32/6 33/15/6
f 34/32/6 35/14/6 36/31/6
f 24/43/5 36/42/5 23/41/5
f 36/42/5 24/43/5 34/44/5
f 38/42/1 28/40/1 37/45/1
f 28/40/1 38/42/1 27/41/1
f 40/46/1 25/43/1 39/44/1
f 25/43/1 40/46/1 26/39/1
f 37/46/2 28/39/2 41/44/2
f 42/42/3 26/40/3 40/45/3
f 42/49/8 28/48/7 26/47/7
f 28/48/7 42/49/8 41/50/8
f 43/16/6 40/34/6 39/33/6
f 40/34/6 43/16/6 44/23/6
f 44/23/6 42/51/6 40/34/6
f 42/51/6 44/23/6 45/24/6
f 37/36/6 46/17/6 38/35/6
f 46/17/6 37/36/6 47/21/6
f 47/21/6 37/36/6 41/52/6
f 47/21/6 41/52/6 48/22/6
f 33/42/1 18/1/1 35/44/1
f 18/1/1 33/42/1 10/3/1
f 19/1/5 47/53/5 20/7/5
f 47/53/5 19/1/5 46/44/5
f 47/54/3 16/3/3 20/27/3
f 16/3/3 47/54/3 48/42/3
f 45/44/2 21/7/2 22/1/2
f 21/7/2 45/44/2 44/53/2
f 21/27/5 43/42/5 8/3/5
f 43/42/5 21/27/5 44/54/5
f 6/6/2 29/37/2 15/25/2
f 29/37/2 6/6/2 8/7/2
f 29/37/2 8/7/2 25/39/2
f 25/39/2 8/7/2 43/53/2
f 25/39/2 43/53/2 39/46/2
f 30/38/2 15/25/2 29/37/2
f 15/25/2 30/38/2 18/27/2
f 18/27/2 30/38/2 23/40/2
f 18/27/2 23/40/2 35/54/2
f 35/54/2 23/40/2 36/45/2
f 13/20/5 22/27/5 12/28/5
f 22/27/5 13/20/5 45/54/5
f 45/54/5 13/20/5 42/45/5
f 42/45/5 13/20/5 41/46/5
f 41/46/5 13/20/5 48/53/5
f 48/53/5 13/20/5 16/7/5
f 9/9/3 31/37/3 14/29/3
f 31/37/3 9/9/3 10/7/3
f 31/37/3 10/7/3 24/39/3
f 24/39/3 10/7/3 33/53/3
f 24/39/3 33/53/3 34/46/3
f 32/38/3 14/29/3 31/37/3
f 14/29/3 32/38/3 19/27/3
f 19/27/3 32/38/3 27/40/3
f 19/27/3 27/40/3 46/54/3
f 46/54/3 27/40/3 38/45/3

