# Created by Kenney (www.kenney.nl)

mtllib detail_dirt.mtl

g detail_dirt

v 0.1610728 1.538194E-18 0.3
v 0.02214552 1.538194E-18 0.2080485
v 0.1610728 0.08314877 0.237473
v 0.06938078 0.08314877 0.176785
v 0.1681558 0.1209 -0.09005503
v 0.1681558 0.1209 0.01827849
v 0.08631662 0.1209 -0.1442218
v 0.08631662 0.1209 0.07244526
v 0.02807289 0.1209 -0.1056721
v 0.02807289 0.1209 -0.0658163
v 0.004477423 0.1209 0.01827849
v 0.004477423 0.1209 -0.05019921
v 0.3 1.538194E-18 0.02414542
v 0.3 1.538194E-18 0.2080485
v 0.2527647 0.08314877 0.05540894
v 0.2527647 0.08314877 0.176785
v 0.03629576 0.07101811 -0.1341404
v 0.08631662 0.07101811 -0.1672476
v 0.2103154 9.177712E-17 -0.1179591
v 0.2103154 4.665766E-17 -0.03521397
v 0.1813202 0.08314877 0.008122079
v 0.1813202 0.08314877 0.02699159
v -0.02906588 2.158556E-16 -0.2321655
v 0.000661451 0.07101811 -0.1969928
v -0.04909412 3.399342E-16 -0.2454215
v -0.04909412 0.2002645 -0.201721
v 0.03629576 0.07101811 -0.1734075
v 0.0149899 0.2002645 -0.1593059
v -0.1179697 0.1209 -0.1734529
v -0.1262611 0.1209 -0.1679651
v -0.1760012 0.1209 -0.2118621
v -0.1262611 0.1209 -0.0658163
v -0.1760012 0.1209 0.004804906
v -0.09778127 0.1209 -0.04696639
v -0.2578404 0.1209 -0.1576954
v -0.2578404 0.1209 -0.04936185
v 0.1952896 9.177712E-17 -0.1279042
v 0.1538552 0.07101811 -0.122546
v 0.08631662 0.08314877 0.08987145
v 0.06938078 0.08314877 0.07866216
v -0.03768216 9.177712E-17 0.04618258
v 0.02214552 4.665766E-17 0.08578062
v -0.1760012 1.538194E-18 0.06061309
v -0.07555167 1.707362E-16 -0.005871275
v 0.0734236 0.07101811 -0.2451517
v 0.1538552 0.07101811 -0.1919166
v -0.3 1.538194E-18 -0.02145777
v -0.04909412 3.399342E-16 0.01164014
v -0.04909412 0.2002645 -0.03206034
v -0.1131781 0.2002645 -0.07447552
v 0.0149899 0.2002645 -0.07447552
v -0.3 1.538194E-18 -0.1855995
v -0.1760012 1.538194E-18 -0.2676703
v 0.1952896 9.177712E-17 -0.2193408
v -0.1131781 0.2002645 -0.1593059
v 0.0734236 9.177712E-17 -0.3
v -0.09574009 1.707362E-16 -0.2145481
v -0.03768216 2.158556E-16 0.004086928

vn -0.4675957 0.5312648 0.7064786
vn 0 1 0
vn 0.8694941 0.4939434 0
vn 0.4675957 0.5312648 0.7064786
vn -0.5150842 0.3592347 -0.7782278
vn 0.9442362 0.3292689 0
vn 0.5430101 0.179027 -0.8204202
vn 0.5150842 0.3592347 -0.7782278
vn -0.5150842 0.3592347 0.7782278
vn 0.5150842 0.3592347 0.7782278
vn -0.5430101 0.179027 0.8204202
vn 0.9866835 0.1626517 0
vn 0.8637407 0.5039365 0
vn -0.9866835 0.1626517 0
vn -0.464022 0.5414532 -0.7010791
vn 0.464022 0.5414532 -0.7010791
vn -0.5430101 0.179027 -0.8204202
vn 0 -1 0
vn 0.5430101 0.179027 0.8204202
vn -0.9442362 0.3292689 0
vn 0.4675957 0.5312648 -0.7064786
vn -0.8694941 0.4939434 0

vt 11.80691 -3.373058
vt 5.247817 -3.373058
vt 10.44823 0.4909074
vt 6.119232 0.4909074
vt -6.620307 -3.545474
vt -6.620307 0.7196257
vt -3.398292 -5.678023
vt -3.398292 2.852175
vt -1.105232 -4.16032
vt -1.105232 -2.591193
vt -0.1762765 0.7196257
vt -0.1762765 -1.976347
vt -0.9506071 -5.833976
vt -8.190885 -5.833976
vt -2.181454 -2.069059
vt -6.960038 -2.069059
vt 5.328354 -7.091928
vt -1.230737 -7.091928
vt 4.456938 -3.227962
vt 0.1279385 -3.227962
vt -4.106396 1.310644
vt -6.468001 1.310644
vt -3.217837 3.414967
vt -5.967664 3.414967
vt 4.64406 -2.72639
vt 1.386377 -2.72639
vt 3.545474 2.314554
vt -0.7196257 2.314554
vt -0.3197669 0.7405109
vt -1.062661 0.7405109
vt 5.999063 -1.251489
vt 4.25882 1.590413
vt 6.944644 -1.251489
vt 5.995059 6.762413
vt 2.576438 1.590413
vt 2.969497 6.762413
vt 4.644476 -6.828855
vt 4.970911 -6.612799
vt 6.929182 -8.341029
vt 4.970911 -2.591193
vt 6.929182 0.1891696
vt 3.849656 -1.84907
vt 10.1512 -6.208479
vt 10.1512 -1.94338
vt -3.632155 -3.032902
vt -4.341559 -3.032902
vt -2.388277 -0.03692388
vt -3.563782 2.0674
vt 0.8003806 -0.03692388
vt 0.3000439 2.0674
vt 4.786664 2.668909
vt 3.987082 2.668909
vt 4.408002 4.261487
vt 0.5441765 4.261487
vt -0.2336008 -0.8388146
vt 2.591008 -0.8388146
vt -7.095279 0.658998
vt -5.8826 5.7593
vt -2.352813 0.658998
vt -2.189648 5.7593
vt -2.890693 -9.651643
vt -1.428967 -6.827069
vt -0.02604138 -7.755621
vt -1.428967 -5.281117
vt -3.398292 -6.58455
vt -6.05729 -4.824645
vt -6.05729 -7.555773
vt -4.461106 -2.088718
vt -10.31539 -2.088718
vt -5.673785 3.011584
vt -9.537611 3.011584
vt -2.607972 -0.2593988
vt -4.230752 4.578606
vt -1.358847 -0.2593988
vt -2.308432 7.754503
vt -5.575354 4.578606
vt -5.333994 7.754503
vt 6.827069 2.526332
vt 5.281117 2.526332
vt 6.271884 7.683448
vt 2.932107 7.683448
vt 4.16032 4.51669
vt 2.591193 4.51669
vt 5.816157 -4.530715
vt -0.03812476 -4.530715
vt 5.03838 0.5695868
vt 1.174554 0.5695868
vt 8.635463 -3.874549
vt 5.035599 -3.874549
vt 7.555773 -0.6374798
vt 4.824645 -0.6374798
vt -9.951367 2.181454
vt -9.951367 6.960038
vt -7.138591 0.3197669
vt -7.138591 1.062661
vt -6.341447 9.349329
vt -3.398292 3.538246
vt -2.731527 6.960038
vt -2.731527 3.096935
vt -6.612799 3.887931
vt -6.271884 7.054689
vt -2.591193 3.887931
vt -2.932107 7.054689
vt -8.929349 -4.468977
vt -7.737528 -1.143313
vt -4.090573 -4.468977
vt -4.302252 -1.143313
vt 4.108295 -6.196702
vt -1.645293 -6.196702
vt 2.916474 -2.871038
vt -0.8808939 -2.871038
vt -0.5901535 -6.271884
vt -0.5901535 -2.932107
vt 1.932839 -7.941773
vt 1.932839 -1.262218
vt 4.455832 -6.271884
vt 4.455832 -2.932107
vt 5.366306 1.321342
vt 0.8809568 1.321342
vt 5.123444 2.913919
vt 1.259618 2.913919
vt -1.518815 -1.633456
vt -3.721084 -1.633456
vt 0.1039646 3.204548
vt -2.771498 6.380445
vt 0.4954233 3.204548
vt 0.2540629 6.380445
vt 11.81102 0.9506071
vt 8.280134 -1.386377
vt 11.81102 8.190885
vt 6.341447 11.81102
vt 7.688567 -5.035599
vt 8.280134 -4.64406
vt 2.890693 -11.81102
vt 7.688567 -8.635463
vt 0.8718707 8.190885
vt 0.8718707 3.37719
vt -1.144326 -9.140373
vt -1.48355 1.818212
vt -1.48355 0.1609027
vt -1.932839 -9.662265
vt -1.932839 0.4582732
vt -3.769295 -8.446774
vt -2.974475 -0.2311526
vt -6.929182 2.386342
vt -6.929182 -10.5382
vt -11.81102 -7.307066
vt -11.81102 -0.844794
vt 2.351794 4.960573
vt 1.237795 4.960573
vt 2.110433 8.13647
vt -0.9151279 8.13647
vt -1.864714 0.1225682
vt -1.325927 0.1225682
vt -1.976347 4.552458
vt 0.7196257 4.552458
vt 0.1609027 -0.4884867
vt 1.818212 -0.4884867
vt -7.307066 -3.889003
vt -6.208479 1.151942
vt -0.844794 -3.889003
vt -1.94338 1.151942
vt -10.37379 -3.042085
vt -9.502374 0.8218802
vt -6.139563 -3.042085
vt -6.129305 0.8218802
vt 3.096935 4.195572
vt 6.960038 4.195572
vt 3.37719 0.4306547
vt 8.190885 0.4306547
vt 11.59451 -1.782999
vt 7.805189 -1.782999
vt 10.38183 3.317303
vt 7.642023 3.317303

usemtl dirt

f 3/3/1 2/2/1 1/1/1
f 2/2/1 3/3/1 4/4/1
f 7/7/2 6/6/2 5/5/2
f 6/6/2 7/7/2 8/8/2
f 8/8/2 7/7/2 9/9/2
f 8/8/2 9/9/2 10/10/2
f 8/8/2 10/10/2 11/11/2
f 11/11/2 10/10/2 12/12/2
f 15/15/3 14/14/3 13/13/3
f 14/14/3 15/15/3 16/16/3
f 16/19/4 1/18/4 14/17/4
f 1/18/4 16/19/4 3/20/4
f 9/23/5 18/22/5 17/21/5
f 18/22/5 9/23/5 7/24/5
f 5/27/6 20/26/6 19/25/6
f 20/26/6 5/27/6 6/28/6
f 20/26/6 6/28/6 21/29/6
f 21/29/6 6/28/6 22/30/6
f 25/33/7 24/32/7 23/31/7
f 24/32/7 25/33/7 26/34/7
f 24/32/7 26/34/7 27/35/7
f 27/35/7 26/34/7 28/36/7
f 31/39/2 30/38/2 29/37/2
f 30/38/2 31/39/2 32/40/2
f 33/41/2 32/40/2 31/39/2
f 32/40/2 33/41/2 34/42/2
f 33/41/2 31/39/2 35/43/2
f 33/41/2 35/43/2 36/44/2
f 38/47/8 19/46/8 37/45/8
f 19/46/8 38/47/8 5/48/8
f 5/48/8 38/47/8 18/49/8
f 5/48/8 18/49/8 7/50/8
f 8/53/9 40/52/9 39/51/9
f 11/54/9 40/52/9 8/53/9
f 41/55/9 40/52/9 11/54/9
f 40/52/9 41/55/9 42/56/9
f 44/59/10 33/58/10 43/57/10
f 33/58/10 44/59/10 34/60/10
f 24/63/2 27/62/2 45/61/2
f 17/64/2 45/61/2 27/62/2
f 18/65/2 45/61/2 17/64/2
f 38/66/2 45/61/2 18/65/2
f 45/61/2 38/66/2 46/67/2
f 33/70/9 47/69/9 43/68/9
f 47/69/9 33/70/9 36/71/9
f 48/74/11 34/73/11 44/72/11
f 34/73/11 48/74/11 49/75/11
f 34/73/11 49/75/11 32/76/11
f 32/76/11 49/75/11 50/77/11
f 28/80/12 17/79/12 27/78/12
f 17/79/12 28/80/12 51/81/12
f 17/79/12 51/81/12 9/82/12
f 9/82/12 51/81/12 10/83/12
f 35/86/5 53/85/5 52/84/5
f 53/85/5 35/86/5 31/87/5
f 46/90/13 37/89/13 54/88/13
f 37/89/13 46/90/13 38/91/13
f 21/94/2 16/93/2 15/92/2
f 16/93/2 21/94/2 22/95/2
f 16/93/2 22/95/2 3/96/2
f 3/96/2 22/95/2 39/97/2
f 3/96/2 39/97/2 4/98/2
f 4/98/2 39/97/2 40/99/2
f 32/102/14 55/101/14 30/100/14
f 55/101/14 32/102/14 50/103/14
f 23/106/15 45/105/15 56/104/15
f 45/105/15 23/106/15 24/107/15
f 45/110/16 54/109/16 56/108/16
f 54/109/16 45/110/16 46/111/16
f 26/114/2 51/113/2 28/112/2
f 51/113/2 26/114/2 49/115/2
f 49/115/2 26/114/2 55/116/2
f 49/115/2 55/116/2 50/117/2
f 6/120/10 39/119/10 22/118/10
f 39/119/10 6/120/10 8/121/10
f 29/124/17 25/123/17 57/122/17
f 25/123/17 29/124/17 26/125/17
f 26/125/17 29/124/17 30/126/17
f 26/125/17 30/126/17 55/127/17
f 14/130/18 20/129/18 13/128/18
f 20/129/18 14/130/18 1/131/18
f 20/129/18 1/131/18 37/132/18
f 37/132/18 19/133/18 20/129/18
f 56/134/18 37/132/18 1/131/18
f 37/132/18 56/134/18 54/135/18
f 56/134/18 1/131/18 2/136/18
f 56/134/18 2/136/18 42/137/18
f 42/137/18 23/138/18 56/134/18
f 23/138/18 42/137/18 41/139/18
f 23/138/18 41/139/18 58/140/18
f 58/140/18 25/141/18 23/138/18
f 25/141/18 58/140/18 48/142/18
f 25/141/18 48/142/18 57/143/18
f 57/143/18 48/142/18 44/144/18
f 57/143/18 44/144/18 43/145/18
f 57/143/18 43/145/18 53/146/18
f 53/146/18 43/145/18 52/147/18
f 52/147/18 43/145/18 47/148/18
f 51/151/19 12/150/19 10/149/19
f 49/152/19 12/150/19 51/151/19
f 48/153/19 12/150/19 49/152/19
f 12/150/19 48/153/19 58/154/19
f 58/157/20 11/156/20 12/155/20
f 11/156/20 58/157/20 41/158/20
f 47/161/20 35/160/20 52/159/20
f 35/160/20 47/161/20 36/162/20
f 20/165/21 15/164/21 13/163/21
f 15/164/21 20/165/21 21/166/21
f 42/169/22 4/168/22 40/167/22
f 4/168/22 42/169/22 2/170/22
f 31/173/8 57/172/8 53/171/8
f 57/172/8 31/173/8 29/174/8

