# Created by Kenney (www.kenney.nl)

mtllib snow_tile_treeDouble.mtl

g snow_tile_treeDouble

v 0.5 0 0.5
v 0.5 0 -0.5
v -0.5 0 0.5
v -0.5 0 -0.5
v 0.5 0.1 -0.5
v 0.5 0.1 0.5
v -0.5 0.1 0.5
v -0.5 0.1 -0.5
v 0.5 0.2 -0.5
v 0.5 0.2 0.5
v -0.5 0.2 -0.5
v -0.5 0.2 0.5

vn 0 -1 0
vn 1 0 0
vn 0 0 1
vn -1 0 0
vn 0 0 -1
vn 0 1 0

vt 19.68504 19.68504
vt 19.68504 -19.68504
vt -19.68504 19.68504
vt -19.68504 -19.68504
vt 19.68504 3.937008
vt 19.68504 0
vt -19.68504 3.937008
vt -19.68504 0
vt 19.68504 7.874016
vt -19.68504 7.874016

usemtl dirt

f 3/3/1 2/2/1 1/1/1
f 2/2/1 3/3/1 4/4/1
f 6/7/2 2/6/2 5/5/2
f 2/6/2 6/7/2 1/8/2
f 6/5/3 3/8/3 1/6/3
f 3/8/3 6/5/3 7/7/3
f 3/6/4 8/7/4 4/8/4
f 8/7/4 3/6/4 7/5/4
f 8/5/5 2/8/5 4/6/5
f 2/8/5 8/5/5 5/7/5

usemtl snow

f 11/2/6 10/3/6 9/4/6
f 10/3/6 11/2/6 12/1/6
f 10/10/2 5/5/2 9/9/2
f 5/5/2 10/10/2 6/7/2
f 11/9/5 5/7/5 8/5/5
f 5/7/5 11/9/5 9/10/5
f 7/5/4 11/10/4 8/7/4
f 11/10/4 7/5/4 12/9/4
f 10/9/3 7/7/3 6/5/3
f 7/7/3 10/9/3 12/10/3

g tree

v 0.25 0.6 -0.05
v 0.1085786 0.6 -0.1085786
v 0.25 0.96 -0.218
v 0.2273726 0.96 -0.2273726
v 0.05 0.6 -0.25
v 0.218 0.96 -0.25
v 0.282 0.96 -0.25
v 0.2726274 0.96 -0.2273726
v 0.2726274 0.96 -0.2726274
v 0.25 0.96 -0.282
v 0.2273726 0.96 -0.2726274
v 0.07322331 0.4 -0.4267767
v 0.1308058 0.55 -0.3691942
v 0 0.4 -0.25
v 0.08143398 0.55 -0.25
v 0.418566 0.55 -0.25
v 0.5 0.4 -0.25
v 0.3691942 0.55 -0.1308058
v 0.4267767 0.4 -0.07322331
v 0.45 0.6 -0.25
v 0.3914214 0.6 -0.1085786
v 0.25 0.4 0
v 0.07322331 0.4 -0.07322331
v 0.25 0.55 -0.08143398
v 0.1308058 0.55 -0.1308058
v 0.1085786 0.6 -0.3914214
v 0.25 0.6 -0.45
v 0.4267767 0.4 -0.4267767
v 0.3691942 0.55 -0.3691942
v 0.25 0.4 -0.5
v 0.25 0.55 -0.418566
v 0.3914214 0.6 -0.3914214
v 0.45 0.55 -0.25
v 0.3914214 0.55 -0.1085786
v 0.05 0.55 -0.25
v 0.1085786 0.55 -0.1085786
v 0.1085786 0.55 -0.3914214
v 0.25 0.55 -0.45
v 0.5 0.35 -0.25
v 0.4267767 0.35 -0.4267767
v 0.4267767 0.35 -0.07322331
v 0.25 0.35 0
v 0.303125 0.35 -0.196875
v 0.303125 0.35 -0.303125
v 0.196875 0.35 -0.196875
v 0.07322331 0.35 -0.07322331
v 0.25 0.35 -0.5
v 0.196875 0.35 -0.303125
v 0.07322331 0.35 -0.4267767
v 0 0.35 -0.25
v 0.25 0.55 -0.05
v 0.3914214 0.55 -0.3914214
v 0.1875 0.2 -0.3125
v 0.3125 0.2 -0.3125
v 0.3125 0.2 -0.1875
v 0.1875 0.2 -0.1875

vn -0.1757067 0.197957 0.4241935
vn -0.4241935 0.197957 0.1757067
vn 0 0.5 0
vn -0.4129122 0.2241672 -0.1710338
vn 0.4129122 0.2241672 0.1710338
vn 0.4241935 0.197957 0.1757067
vn -0.1710338 0.2241672 0.4129122
vn 0.1757067 0.197957 0.4241935
vn -0.4129122 0.2241672 0.1710338
vn -0.1757067 0.197957 -0.4241935
vn 0.4129122 0.2241672 -0.1710338
vn -0.1710338 0.2241672 -0.4129122
vn 0.1757067 0.197957 -0.4241935
vn 0.1710338 0.2241672 0.4129122
vn 0.4241935 0.197957 -0.1757067
vn 0.1710338 0.2241672 -0.4129122
vn -0.4241935 0.197957 -0.1757067
vn 0.4619398 0 0.1913417
vn -0.4619398 0 0.1913417
vn -0.1913417 0 -0.4619398
vn 0 -0.5 0
vn 0.4619398 0 -0.1913417
vn 0.1913417 0 -0.4619398
vn -0.4619398 0 -0.1913417
vn -0.1913417 0 0.4619398
vn 0.1913417 0 0.4619398
vn 0 0.03118914 -0.4990263
vn 0.4990263 0.03118914 0
vn -0.4990263 0.03118914 0
vn 0 0.03118914 0.4990263

vt 6.026511 23.16218
vt -6.026511 23.16218
vt 0.9642417 54.031
vt -0.9642417 54.031
vt -2.519685 0
vt -1.781686 1.781686
vt -1.781686 -1.781686
vt 1.136868E-13 -2.519685
vt 1.136868E-13 2.519685
vt 1.781686 -1.781686
vt 1.781686 1.781686
vt 2.519685 0
vt -7.533138 5.922946
vt -5.079325 19.13636
vt 7.533138 5.922946
vt 5.079325 19.13636
vt 6.026511 31.49606
vt 6.026511 27.55906
vt -6.026511 31.49606
vt -6.026511 27.55906
vt 13.91943 -13.91943
vt 13.91943 13.91943
vt 0 19.68504
vt 4.183071 4.183071
vt 4.183071 -4.183071
vt -4.183071 4.183071
vt -13.91943 13.91943
vt 0 -19.68504
vt -4.183071 -4.183071
vt -13.91943 -13.91943
vt 7.533138 15.74803
vt 7.533138 11.81102
vt -7.533138 15.74803
vt -7.533138 11.81102
vt 15.74803 0
vt 13.27291 -5.684342E-14
vt 11.13554 11.13554
vt 9.385368 9.385368
vt -1.136868E-13 15.74803
vt 0 13.27291
vt -9.385368 9.385368
vt -11.13554 11.13554
vt -13.27291 0
vt -15.74803 0
vt 11.13554 -11.13554
vt 9.385368 -9.385368
vt -1.136868E-13 -15.74803
vt 0 -13.27291
vt -9.385368 -9.385368
vt -11.13554 -11.13554
vt 4.92126 -0.3069797
vt -4.92126 -0.3069797
vt 4.183071 11.52709
vt -4.183071 11.52709
vt 4.92126 -4.92126
vt -4.92126 -4.92126
vt 4.92126 4.92126
vt -4.92126 4.92126

usemtl snow

f 15/13/7 14/12/7 13/11/7
f 14/12/7 15/13/7 16/14/7
f 14/11/8 18/14/8 17/12/8
f 18/14/8 14/11/8 16/13/8
f 21/17/9 20/16/9 19/15/9
f 20/16/9 21/17/9 22/18/9
f 20/16/9 22/18/9 15/19/9
f 15/19/9 22/18/9 23/20/9
f 15/19/9 23/20/9 16/21/9
f 16/21/9 23/20/9 18/22/9
f 26/25/10 25/24/10 24/23/10
f 25/24/10 26/25/10 27/26/10
f 30/24/11 29/25/11 28/26/11
f 29/25/11 30/24/11 31/23/11
f 20/14/12 32/11/12 19/13/12
f 32/11/12 20/14/12 33/12/12
f 36/26/13 35/23/13 34/25/13
f 35/23/13 36/26/13 37/24/13
f 20/13/14 13/12/14 33/11/14
f 13/12/14 20/13/14 15/14/14
f 35/25/15 27/24/15 26/23/15
f 27/24/15 35/25/15 37/26/15
f 23/13/16 39/12/16 38/11/16
f 39/12/16 23/13/16 22/14/16
f 41/26/17 29/23/17 40/25/17
f 29/23/17 41/26/17 28/24/17
f 25/26/18 42/23/18 24/25/18
f 42/23/18 25/26/18 43/24/18
f 22/13/19 44/12/19 39/11/19
f 44/12/19 22/13/19 21/14/19
f 30/26/20 34/23/20 31/25/20
f 34/23/20 30/26/20 36/24/20
f 21/13/21 32/12/21 44/11/21
f 32/12/21 21/13/21 19/14/21
f 43/26/22 40/23/22 42/25/22
f 40/23/22 43/26/22 41/24/22
f 17/11/23 23/14/23 38/12/23
f 23/14/23 17/11/23 18/13/23

usemtl foliage

f 33/29/24 45/28/24 32/27/24
f 45/28/24 33/29/24 46/30/24
f 48/28/25 17/29/25 47/30/25
f 17/29/25 48/28/25 14/27/25
f 38/27/26 50/30/26 49/28/26
f 50/30/26 38/27/26 39/29/26
f 53/32/27 52/31/27 51/6/27
f 52/31/27 53/32/27 54/33/27
f 52/31/27 54/33/27 55/34/27
f 52/31/27 55/34/27 56/35/27
f 55/34/27 54/33/27 57/36/27
f 57/36/27 54/33/27 58/37/27
f 56/35/27 59/38/27 52/31/27
f 59/38/27 56/35/27 60/39/27
f 59/38/27 60/39/27 61/40/27
f 61/40/27 60/39/27 57/36/27
f 61/40/27 57/36/27 58/37/27
f 61/40/27 58/37/27 62/8/27
f 29/43/28 52/42/28 40/41/28
f 52/42/28 29/43/28 51/44/28
f 42/41/29 52/44/29 59/42/29
f 52/44/29 42/41/29 40/43/29
f 31/43/24 51/42/24 29/41/24
f 51/42/24 31/43/24 53/44/24
f 47/28/30 38/29/30 49/30/30
f 38/29/30 47/28/30 17/27/30
f 34/41/31 58/44/31 54/42/31
f 58/44/31 34/41/31 35/43/31
f 46/47/27 28/46/27 45/45/27
f 28/46/27 46/47/27 30/48/27
f 30/48/27 46/47/27 63/49/27
f 30/48/27 63/49/27 36/50/27
f 36/50/27 63/49/27 37/51/27
f 37/51/27 63/49/27 48/52/27
f 37/51/27 48/52/27 27/53/27
f 27/53/27 48/52/27 47/54/27
f 28/46/27 64/55/27 45/45/27
f 64/55/27 28/46/27 41/56/27
f 64/55/27 41/56/27 50/57/27
f 50/57/27 41/56/27 43/58/27
f 50/57/27 43/58/27 25/59/27
f 50/57/27 25/59/27 49/60/27
f 49/60/27 25/59/27 27/53/27
f 49/60/27 27/53/27 47/54/27
f 39/27/29 64/30/29 50/28/29
f 64/30/29 39/27/29 44/29/29
f 32/29/28 64/28/28 44/27/28
f 64/28/28 32/29/28 45/30/28
f 33/27/32 63/30/32 46/28/32
f 63/30/32 33/27/32 13/29/32
f 13/27/31 48/30/31 63/28/31
f 48/30/31 13/27/31 14/29/31
f 58/42/25 26/43/25 62/44/25
f 26/43/25 58/42/25 35/41/25
f 24/41/26 59/44/26 61/42/26
f 59/44/26 24/41/26 42/43/26
f 62/42/30 24/43/30 61/44/30
f 24/43/30 62/42/30 26/41/30
f 31/41/32 54/44/32 53/42/32
f 54/44/32 31/41/32 34/43/32

usemtl wood

f 60/63/33 66/62/33 65/61/33
f 66/62/33 60/63/33 56/64/33
f 56/63/34 67/62/34 66/61/34
f 67/62/34 56/63/34 55/64/34
f 68/61/35 60/64/35 65/62/35
f 60/64/35 68/61/35 57/63/35
f 55/63/36 68/62/36 67/61/36
f 68/62/36 55/63/36 57/64/36
f 67/67/27 65/66/27 66/65/27
f 65/66/27 67/67/27 68/68/27

g tree

v -0.25 0.6 0.45
v -0.3914214 0.6 0.3914214
v -0.25 0.96 0.282
v -0.2726274 0.96 0.2726274
v -0.45 0.6 0.25
v -0.282 0.96 0.25
v -0.218 0.96 0.25
v -0.2273726 0.96 0.2726274
v -0.2273726 0.96 0.2273726
v -0.25 0.96 0.218
v -0.2726274 0.96 0.2273726
v -0.4267767 0.4 0.07322331
v -0.3691942 0.55 0.1308058
v -0.5 0.4 0.25
v -0.418566 0.55 0.25
v -0.08143398 0.55 0.25
v 0 0.4 0.25
v -0.1308058 0.55 0.3691942
v -0.07322331 0.4 0.4267767
v -0.05 0.6 0.25
v -0.1085786 0.6 0.3914214
v -0.25 0.4 0.5
v -0.4267767 0.4 0.4267767
v -0.25 0.55 0.418566
v -0.3691942 0.55 0.3691942
v -0.3914214 0.6 0.1085786
v -0.25 0.6 0.05
v -0.07322331 0.4 0.07322331
v -0.1308058 0.55 0.1308058
v -0.25 0.4 0
v -0.25 0.55 0.08143398
v -0.1085786 0.6 0.1085786
v -0.05 0.55 0.25
v -0.1085786 0.55 0.3914214
v -0.45 0.55 0.25
v -0.3914214 0.55 0.3914214
v -0.3914214 0.55 0.1085786
v -0.25 0.55 0.05
v 0 0.35 0.25
v -0.07322331 0.35 0.07322331
v -0.07322331 0.35 0.4267767
v -0.25 0.35 0.5
v -0.196875 0.35 0.303125
v -0.196875 0.35 0.196875
v -0.303125 0.35 0.303125
v -0.4267767 0.35 0.4267767
v -0.25 0.35 0
v -0.303125 0.35 0.196875
v -0.4267767 0.35 0.07322331
v -0.5 0.35 0.25
v -0.25 0.55 0.45
v -0.1085786 0.55 0.1085786
v -0.3125 0.2 0.1875
v -0.1875 0.2 0.1875
v -0.1875 0.2 0.3125
v -0.3125 0.2 0.3125



usemtl snow

f 71/13/7 70/12/7 69/11/7
f 70/12/7 71/13/7 72/14/7
f 70/11/8 74/14/8 73/12/8
f 74/14/8 70/11/8 72/13/8
f 77/17/9 76/16/9 75/15/9
f 76/16/9 77/17/9 78/18/9
f 76/16/9 78/18/9 71/19/9
f 71/19/9 78/18/9 79/20/9
f 71/19/9 79/20/9 72/21/9
f 72/21/9 79/20/9 74/22/9
f 82/25/10 81/24/10 80/23/10
f 81/24/10 82/25/10 83/26/10
f 86/24/11 85/25/11 84/26/11
f 85/25/11 86/24/11 87/23/11
f 76/14/12 88/11/12 75/13/12
f 88/11/12 76/14/12 89/12/12
f 92/26/13 91/23/13 90/25/13
f 91/23/13 92/26/13 93/24/13
f 76/13/14 69/12/14 89/11/14
f 69/12/14 76/13/14 71/14/14
f 91/25/15 83/24/15 82/23/15
f 83/24/15 91/25/15 93/26/15
f 79/13/16 95/12/16 94/11/16
f 95/12/16 79/13/16 78/14/16
f 97/26/17 85/23/17 96/25/17
f 85/23/17 97/26/17 84/24/17
f 81/26/18 98/23/18 80/25/18
f 98/23/18 81/26/18 99/24/18
f 78/13/19 100/12/19 95/11/19
f 100/12/19 78/13/19 77/14/19
f 86/26/20 90/23/20 87/25/20
f 90/23/20 86/26/20 92/24/20
f 77/13/21 88/12/21 100/11/21
f 88/12/21 77/13/21 75/14/21
f 99/26/22 96/23/22 98/25/22
f 96/23/22 99/26/22 97/24/22
f 73/11/23 79/14/23 94/12/23
f 79/14/23 73/11/23 74/13/23

usemtl foliage

f 89/29/24 101/28/24 88/27/24
f 101/28/24 89/29/24 102/30/24
f 104/28/25 73/29/25 103/30/25
f 73/29/25 104/28/25 70/27/25
f 94/27/26 106/30/26 105/28/26
f 106/30/26 94/27/26 95/29/26
f 109/32/27 108/31/27 107/6/27
f 108/31/27 109/32/27 110/33/27
f 108/31/27 110/33/27 111/34/27
f 108/31/27 111/34/27 112/35/27
f 111/34/27 110/33/27 113/36/27
f 113/36/27 110/33/27 114/37/27
f 112/35/27 115/38/27 108/31/27
f 115/38/27 112/35/27 116/39/27
f 115/38/27 116/39/27 117/40/27
f 117/40/27 116/39/27 113/36/27
f 117/40/27 113/36/27 114/37/27
f 117/40/27 114/37/27 118/8/27
f 85/43/28 108/42/28 96/41/28
f 108/42/28 85/43/28 107/44/28
f 98/41/29 108/44/29 115/42/29
f 108/44/29 98/41/29 96/43/29
f 87/43/24 107/42/24 85/41/24
f 107/42/24 87/43/24 109/44/24
f 103/28/30 94/29/30 105/30/30
f 94/29/30 103/28/30 73/27/30
f 90/41/31 114/44/31 110/42/31
f 114/44/31 90/41/31 91/43/31
f 102/47/27 84/46/27 101/45/27
f 84/46/27 102/47/27 86/48/27
f 86/48/27 102/47/27 119/49/27
f 86/48/27 119/49/27 92/50/27
f 92/50/27 119/49/27 93/51/27
f 93/51/27 119/49/27 104/52/27
f 93/51/27 104/52/27 83/53/27
f 83/53/27 104/52/27 103/54/27
f 84/46/27 120/55/27 101/45/27
f 120/55/27 84/46/27 97/56/27
f 120/55/27 97/56/27 106/57/27
f 106/57/27 97/56/27 99/58/27
f 106/57/27 99/58/27 81/59/27
f 106/57/27 81/59/27 105/60/27
f 105/60/27 81/59/27 83/53/27
f 105/60/27 83/53/27 103/54/27
f 95/27/29 120/30/29 106/28/29
f 120/30/29 95/27/29 100/29/29
f 88/29/28 120/28/28 100/27/28
f 120/28/28 88/29/28 101/30/28
f 89/27/32 119/30/32 102/28/32
f 119/30/32 89/27/32 69/29/32
f 69/27/31 104/30/31 119/28/31
f 104/30/31 69/27/31 70/29/31
f 114/42/25 82/43/25 118/44/25
f 82/43/25 114/42/25 91/41/25
f 80/41/26 115/44/26 117/42/26
f 115/44/26 80/41/26 98/43/26
f 118/42/30 80/43/30 117/44/30
f 80/43/30 118/42/30 82/41/30
f 87/41/32 110/44/32 109/42/32
f 110/44/32 87/41/32 90/43/32

usemtl wood

f 116/63/33 122/62/33 121/61/33
f 122/62/33 116/63/33 112/64/33
f 112/63/34 123/62/34 122/61/34
f 123/62/34 112/63/34 111/64/34
f 124/61/35 116/64/35 121/62/35
f 116/64/35 124/61/35 113/63/35
f 111/63/36 124/62/36 123/61/36
f 124/62/36 111/63/36 113/64/36
f 123/67/27 121/66/27 122/65/27
f 121/66/27 123/67/27 124/68/27

