# Created by Kenney (www.kenney.nl)

mtllib snow_detail_crystal.mtl

g snow_detail_crystal

v 0.0801 0.285 -0.0801
v 0.0801 0.265 -0.0801
v 0.0801 0.285 0.0801
v 0.0801 0.265 0.0801
v -0.045 0 -0.045
v 0.045 0 -0.045
v -0.0801 0.265 -0.0801
v -0.0801 0.265 0.0801
v -0.045 0 0.045
v -0.0801 0.285 -0.0801
v -0.0801 0.285 0.0801
v 0.045 0 0.045
v 0.034443 0.35 0.034443
v -0.034443 0.35 0.034443
v -0.034443 0.35 -0.034443
v 0.034443 0.35 -0.034443

vn 1 0 0
vn 0 -0.131306 -0.9913419
vn -0.9913419 -0.131306 0
vn -1 0 0
vn 0 -0.131306 0.9913419
vn 0 -1 0
vn 0.9913419 -0.131306 0
vn 0 0 1
vn 0 0 -1
vn 0 0.5747881 0.8183023
vn -0.8183023 0.5747881 0
vn 0.8183023 0.5747881 0
vn 0 0.5747881 -0.8183023
vn 0 1 0

vt 3.153543 11.22047
vt 3.153543 10.43307
vt -3.153543 11.22047
vt -3.153543 10.43307
vt 1.771654 0.2326288
vt -1.771654 0.2326288
vt 3.153543 10.75682
vt -3.153543 10.75682
vt 1.771654 1.771654
vt 1.771654 -1.771654
vt -1.771654 1.771654
vt -1.771654 -1.771654
vt 3.153543 7.369119
vt -3.153543 7.369119
vt 1.356024 10.49639
vt -1.356024 10.49639
vt -1.356024 -1.356024
vt -1.356024 1.356024
vt 1.356024 -1.356024
vt 1.356024 1.356024

usemtl crystal

f 3/3/1 2/2/1 1/1/1
f 2/2/1 3/3/1 4/4/1
f 7/7/2 6/6/2 5/5/2
f 6/6/2 7/7/2 2/8/2
f 5/6/3 8/7/3 7/8/3
f 8/7/3 5/6/3 9/5/3
f 8/2/4 10/3/4 7/4/4
f 10/3/4 8/2/4 11/1/4
f 4/7/5 9/6/5 12/5/5
f 9/6/5 4/7/5 8/8/5
f 9/11/6 6/10/6 12/9/6
f 6/10/6 9/11/6 5/12/6
f 4/8/7 6/5/7 2/7/7
f 6/5/7 4/8/7 12/6/7
f 3/1/8 8/4/8 4/2/8
f 8/4/8 3/1/8 11/3/8
f 10/1/9 2/4/9 7/2/9
f 2/4/9 10/1/9 1/3/9

usemtl snow

f 13/15/10 11/14/10 3/13/10
f 11/14/10 13/15/10 14/16/10
f 11/13/11 15/16/11 10/14/11
f 15/16/11 11/13/11 14/15/11
f 16/15/12 3/14/12 1/13/12
f 3/14/12 16/15/12 13/16/12
f 15/15/13 1/14/13 10/13/13
f 1/14/13 15/15/13 16/16/13
f 15/19/14 13/18/14 16/17/14
f 13/18/14 15/19/14 14/20/14

