# Created by Kenney (www.kenney.nl)

mtllib snow_tile_endSpawn.mtl

g snow_tile_endSpawn

v -0.5 0 -0.5
v 0.5 0 -0.5
v -0.5 0.1 -0.5
v 0.5 0.1 -0.5
v 0.5 0.1 0.5
v 0.5 0 0.5
v -0.5 0 0.5
v -0.5 0.1 0.5
v 0.275 0.15 0.5
v 0.5 0.2 0.5
v -0.275 0.15 0.5
v 0.275 0.2 0.5
v -0.18125 0.15 0.5
v 0.18125 0.15 0.5
v -0.5 0.2 0.5
v -0.275 0.2 0.5
v -0.5 0.2 -0.5
v 0.5 0.2 -0.5
v 0.275 0.2 -0.275
v -0.275 0.2 -0.275
v 0.275 0.15 -0.275
v -0.275 0.15 -0.275
v 0.18125 0.15 0.18125
v 0.18125 0.15 -0.18125
v -0.18125 0.15 -0.18125
v -0.18125 0.15 0.18125
v 0.1310358 0.15 0.1310358
v 0.1310358 0.15 -0.1310358
v -0.1310358 0.15 -0.1310358
v -0.1310358 0.15 0.1310358
v 0.1048286 0.1 0.1048286
v -0.1048286 0.1 0.1048286
v 0.1048286 0.1 -0.1048286
v -0.1048286 0.1 -0.1048286

vn 0 0 -1
vn 1 0 0
vn 0 0 1
vn -1 0 0
vn 0 -1 0
vn 0 1 0
vn 0 0.4642389 0.8857101
vn -0.8857101 0.4642389 0
vn 0.8857101 0.4642389 0
vn 0 0.4642389 -0.8857101

vt 19.68504 0
vt -19.68504 0
vt 19.68504 3.937008
vt -19.68504 3.937008
vt 19.68504 19.68504
vt 19.68504 -19.68504
vt -19.68504 19.68504
vt -19.68504 -19.68504
vt 10.82677 5.905512
vt 19.68504 7.874016
vt -10.82677 5.905512
vt 10.82677 7.874016
vt -7.135827 5.905512
vt 7.135827 5.905512
vt -19.68504 7.874016
vt -10.82677 7.874016
vt -10.82677 19.68504
vt -10.82677 -10.82677
vt 10.82677 -10.82677
vt 10.82677 19.68504
vt 19.68504 5.905512
vt -19.68504 5.905512
vt -7.135827 19.68504
vt -7.135827 7.135827
vt -7.135827 -7.135827
vt 7.135827 -7.135827
vt 7.135827 7.135827
vt 7.135827 19.68504
vt -5.15889 5.15889
vt -5.15889 -5.15889
vt 5.15889 -5.15889
vt 5.15889 5.15889
vt -4.127111 4.127111
vt 4.127111 4.127111
vt -4.127111 -4.127111
vt 4.127111 -4.127111
vt 4.127111 5.403013
vt -4.127111 5.403013
vt 5.15889 7.625528
vt -5.15889 7.625528

usemtl dirt

f 3/3/1 2/2/1 1/1/1
f 2/2/1 3/3/1 4/4/1
f 5/4/2 2/1/2 4/3/2
f 2/1/2 5/4/2 6/2/2
f 5/3/3 7/2/3 6/1/3
f 7/2/3 5/3/3 8/4/3
f 7/1/4 3/4/4 1/2/4
f 3/4/4 7/1/4 8/3/4
f 7/7/5 2/6/5 6/5/5
f 2/6/5 7/7/5 1/8/5

usemtl snow

f 5/3/3 9/9/3 8/4/3
f 9/9/3 5/3/3 10/10/3
f 8/4/3 9/9/3 11/11/3
f 9/9/3 10/10/3 12/12/3
f 9/9/3 13/13/3 11/11/3
f 13/13/3 9/9/3 14/14/3
f 11/11/3 15/15/3 8/4/3
f 15/15/3 11/11/3 16/16/3
f 17/10/1 4/4/1 3/3/1
f 4/4/1 17/10/1 18/15/1
f 10/15/2 4/3/2 18/10/2
f 4/3/2 10/15/2 5/4/2
f 8/3/4 17/15/4 3/4/4
f 17/15/4 8/3/4 15/10/4
f 18/8/6 12/17/6 10/7/6
f 12/17/6 18/8/6 19/18/6
f 19/18/6 18/8/6 17/6/6
f 19/18/6 17/6/6 20/19/6
f 20/19/6 17/6/6 15/5/6
f 15/5/6 16/20/6 20/19/6

usemtl snowRoadDark

f 9/21/4 19/16/4 21/11/4
f 19/16/4 9/21/4 12/10/4
f 21/9/3 20/16/3 22/11/3
f 20/16/3 21/9/3 19/12/3
f 16/15/2 22/9/2 20/12/2
f 22/9/2 16/15/2 11/22/2
f 21/18/6 14/23/6 9/17/6
f 14/23/6 21/18/6 23/24/6
f 23/24/6 21/18/6 24/25/6
f 24/25/6 21/18/6 22/19/6
f 24/25/6 22/19/6 25/26/6
f 25/26/6 22/19/6 26/27/6
f 26/27/6 22/19/6 11/20/6
f 11/20/6 13/28/6 26/27/6

usemtl stone

f 24/25/6 28/30/6 27/29/6
f 28/30/6 24/25/6 25/26/6
f 28/30/6 25/26/6 29/31/6
f 29/31/6 25/26/6 30/32/6
f 27/29/6 23/24/6 24/25/6
f 23/24/6 27/29/6 26/27/6
f 26/27/6 27/29/6 30/32/6
f 26/27/6 30/32/6 25/26/6

usemtl snowRoad

f 23/24/6 13/28/6 14/23/6
f 13/28/6 23/24/6 26/27/6

usemtl stoneDark

f 33/35/6 32/34/6 31/33/6
f 32/34/6 33/35/6 34/36/6
f 28/39/7 34/38/7 33/37/7
f 34/38/7 28/39/7 29/40/7
f 33/38/8 27/39/8 28/40/8
f 27/39/8 33/38/8 31/37/8
f 30/40/9 34/37/9 29/39/9
f 34/37/9 30/40/9 32/38/9
f 30/39/10 31/38/10 32/37/10
f 31/38/10 30/39/10 27/40/10

