# Created by Kenney (www.kenney.nl)

mtllib snow_detail_dirt.mtl

g snow_detail_dirt

v 0.1610728 1.538194E-18 0.3
v 0.02214552 1.538194E-18 0.2080485
v 0.1610728 0.08314877 0.237473
v 0.06938078 0.08314877 0.176785
v 0.3 1.538194E-18 0.02414542
v 0.3 1.538194E-18 0.2080485
v 0.2527647 0.08314877 0.05540894
v 0.2527647 0.08314877 0.176785
v 0.03629576 0.07101811 -0.1341404
v 0.08631662 0.07101811 -0.1672476
v 0.02807289 0.1209 -0.1056721
v 0.08631662 0.1209 -0.1442218
v 0.2103154 9.177712E-17 -0.1179591
v 0.2103154 4.665766E-17 -0.03521397
v 0.1681558 0.1209 -0.09005503
v 0.1681558 0.1209 0.01827849
v 0.1813202 0.08314877 0.008122079
v 0.1813202 0.08314877 0.02699159
v -0.02906588 2.158556E-16 -0.2321655
v 0.000661451 0.07101811 -0.1969928
v -0.04909412 3.399342E-16 -0.2454215
v -0.04909412 0.2002645 -0.201721
v 0.03629576 0.07101811 -0.1734075
v 0.0149899 0.2002645 -0.1593059
v 0.1952896 9.177712E-17 -0.1279042
v 0.1538552 0.07101811 -0.122546
v 0.08631662 0.08314877 0.08987145
v 0.06938078 0.08314877 0.07866216
v 0.08631662 0.1209 0.07244526
v 0.004477423 0.1209 0.01827849
v -0.03768216 9.177712E-17 0.04618258
v 0.02214552 4.665766E-17 0.08578062
v -0.1760012 1.538194E-18 0.06061309
v -0.1760012 0.1209 0.004804906
v -0.07555167 1.707362E-16 -0.005871275
v -0.09778127 0.1209 -0.04696639
v 0.0734236 0.07101811 -0.2451517
v 0.1538552 0.07101811 -0.1919166
v -0.3 1.538194E-18 -0.02145777
v -0.2578404 0.1209 -0.04936185
v -0.04909412 3.399342E-16 0.01164014
v -0.04909412 0.2002645 -0.03206034
v -0.1262611 0.1209 -0.0658163
v -0.1131781 0.2002645 -0.07447552
v 0.0149899 0.2002645 -0.07447552
v 0.02807289 0.1209 -0.0658163
v -0.3 1.538194E-18 -0.1855995
v -0.1760012 1.538194E-18 -0.2676703
v -0.2578404 0.1209 -0.1576954
v -0.1760012 0.1209 -0.2118621
v 0.1952896 9.177712E-17 -0.2193408
v -0.1262611 0.1209 -0.1679651
v -0.1131781 0.2002645 -0.1593059
v 0.0734236 9.177712E-17 -0.3
v -0.09574009 1.707362E-16 -0.2145481
v -0.1179697 0.1209 -0.1734529
v -0.03768216 2.158556E-16 0.004086928
v 0.004477423 0.1209 -0.05019921

vn -0.4675957 0.5312648 0.7064786
vn 0.8694941 0.4939434 0
vn 0.4675957 0.5312648 0.7064786
vn -0.5150842 0.3592347 -0.7782278
vn 0.9442362 0.3292689 0
vn 0.5430101 0.179027 -0.8204202
vn 0.5150842 0.3592347 -0.7782278
vn -0.5150842 0.3592347 0.7782278
vn 0.5150842 0.3592347 0.7782278
vn 0 1 0
vn -0.5430101 0.179027 0.8204202
vn 0.9866835 0.1626517 0
vn 0.8637407 0.5039365 0
vn -0.9866835 0.1626517 0
vn -0.464022 0.5414532 -0.7010791
vn 0.464022 0.5414532 -0.7010791
vn -0.5430101 0.179027 -0.8204202
vn 0 -1 0
vn 0.5430101 0.179027 0.8204202
vn -0.9442362 0.3292689 0
vn 0.4675957 0.5312648 -0.7064786
vn -0.8694941 0.4939434 0

vt 11.80691 -3.373058
vt 5.247817 -3.373058
vt 10.44823 0.4909074
vt 6.119232 0.4909074
vt -0.9506071 -5.833976
vt -8.190885 -5.833976
vt -2.181454 -2.069059
vt -6.960038 -2.069059
vt 5.328354 -7.091928
vt -1.230737 -7.091928
vt 4.456938 -3.227962
vt 0.1279385 -3.227962
vt -4.106396 1.310644
vt -6.468001 1.310644
vt -3.217837 3.414967
vt -5.967664 3.414967
vt 4.64406 -2.72639
vt 1.386377 -2.72639
vt 3.545474 2.314554
vt -0.7196257 2.314554
vt -0.3197669 0.7405109
vt -1.062661 0.7405109
vt 5.999063 -1.251489
vt 4.25882 1.590413
vt 6.944644 -1.251489
vt 5.995059 6.762413
vt 2.576438 1.590413
vt 2.969497 6.762413
vt -3.632155 -3.032902
vt -4.341559 -3.032902
vt -2.388277 -0.03692388
vt -3.563782 2.0674
vt 0.8003806 -0.03692388
vt 0.3000439 2.0674
vt 4.786664 2.668909
vt 3.987082 2.668909
vt 4.408002 4.261487
vt 0.5441765 4.261487
vt -0.2336008 -0.8388146
vt 2.591008 -0.8388146
vt -7.095279 0.658998
vt -5.8826 5.7593
vt -2.352813 0.658998
vt -2.189648 5.7593
vt -2.890693 -9.651643
vt -1.428967 -6.827069
vt -0.02604138 -7.755621
vt -1.428967 -5.281117
vt -3.398292 -6.58455
vt -6.05729 -4.824645
vt -6.05729 -7.555773
vt -4.461106 -2.088718
vt -10.31539 -2.088718
vt -5.673785 3.011584
vt -9.537611 3.011584
vt -2.607972 -0.2593988
vt -4.230752 4.578606
vt -1.358847 -0.2593988
vt -2.308432 7.754503
vt -5.575354 4.578606
vt -5.333994 7.754503
vt 6.827069 2.526332
vt 5.281117 2.526332
vt 6.271884 7.683448
vt 2.932107 7.683448
vt 4.16032 4.51669
vt 2.591193 4.51669
vt 5.816157 -4.530715
vt -0.03812476 -4.530715
vt 5.03838 0.5695868
vt 1.174554 0.5695868
vt 8.635463 -3.874549
vt 5.035599 -3.874549
vt 7.555773 -0.6374798
vt 4.824645 -0.6374798
vt -6.612799 3.887931
vt -6.271884 7.054689
vt -2.591193 3.887931
vt -2.932107 7.054689
vt -8.929349 -4.468977
vt -7.737528 -1.143313
vt -4.090573 -4.468977
vt -4.302252 -1.143313
vt 4.108295 -6.196702
vt -1.645293 -6.196702
vt 2.916474 -2.871038
vt -0.8808939 -2.871038
vt 5.366306 1.321342
vt 0.8809568 1.321342
vt 5.123444 2.913919
vt 1.259618 2.913919
vt -1.518815 -1.633456
vt -3.721084 -1.633456
vt 0.1039646 3.204548
vt -2.771498 6.380445
vt 0.4954233 3.204548
vt 0.2540629 6.380445
vt 11.81102 0.9506071
vt 8.280134 -1.386377
vt 11.81102 8.190885
vt 6.341447 11.81102
vt 7.688567 -5.035599
vt 8.280134 -4.64406
vt 2.890693 -11.81102
vt 7.688567 -8.635463
vt 0.8718707 8.190885
vt 0.8718707 3.37719
vt -1.144326 -9.140373
vt -1.48355 1.818212
vt -1.48355 0.1609027
vt -1.932839 -9.662265
vt -1.932839 0.4582732
vt -3.769295 -8.446774
vt -2.974475 -0.2311526
vt -6.929182 2.386342
vt -6.929182 -10.5382
vt -11.81102 -7.307066
vt -11.81102 -0.844794
vt 2.351794 4.960573
vt 1.237795 4.960573
vt 2.110433 8.13647
vt -0.9151279 8.13647
vt -1.864714 0.1225682
vt -1.325927 0.1225682
vt -1.976347 4.552458
vt 0.7196257 4.552458
vt 0.1609027 -0.4884867
vt 1.818212 -0.4884867
vt -7.307066 -3.889003
vt -6.208479 1.151942
vt -0.844794 -3.889003
vt -1.94338 1.151942
vt -10.37379 -3.042085
vt -9.502374 0.8218802
vt -6.139563 -3.042085
vt -6.129305 0.8218802
vt 3.096935 4.195572
vt 6.960038 4.195572
vt 3.37719 0.4306547
vt 8.190885 0.4306547
vt 11.59451 -1.782999
vt 7.805189 -1.782999
vt 10.38183 3.317303
vt 7.642023 3.317303
vt -6.620307 -3.545474
vt -6.620307 0.7196257
vt -3.398292 -5.678023
vt -3.398292 2.852175
vt -1.105232 -4.16032
vt -1.105232 -2.591193
vt -0.1762765 0.7196257
vt -0.1762765 -1.976347
vt 4.644476 -6.828855
vt 4.970911 -6.612799
vt 6.929182 -8.341029
vt 4.970911 -2.591193
vt 6.929182 0.1891696
vt 3.849656 -1.84907
vt 10.1512 -6.208479
vt 10.1512 -1.94338
vt -9.951367 2.181454
vt -9.951367 6.960038
vt -7.138591 0.3197669
vt -7.138591 1.062661
vt -6.341447 9.349329
vt -3.398292 3.538246
vt -2.731527 6.960038
vt -2.731527 3.096935
vt -0.5901535 -6.271884
vt -0.5901535 -2.932107
vt 1.932839 -7.941773
vt 1.932839 -1.262218
vt 4.455832 -6.271884
vt 4.455832 -2.932107

usemtl dirt

f 3/3/1 2/2/1 1/1/1
f 2/2/1 3/3/1 4/4/1
f 7/7/2 6/6/2 5/5/2
f 6/6/2 7/7/2 8/8/2
f 8/11/3 1/10/3 6/9/3
f 1/10/3 8/11/3 3/12/3
f 11/15/4 10/14/4 9/13/4
f 10/14/4 11/15/4 12/16/4
f 15/19/5 14/18/5 13/17/5
f 14/18/5 15/19/5 16/20/5
f 14/18/5 16/20/5 17/21/5
f 17/21/5 16/20/5 18/22/5
f 21/25/6 20/24/6 19/23/6
f 20/24/6 21/25/6 22/26/6
f 20/24/6 22/26/6 23/27/6
f 23/27/6 22/26/6 24/28/6
f 26/31/7 13/30/7 25/29/7
f 13/30/7 26/31/7 15/32/7
f 15/32/7 26/31/7 10/33/7
f 15/32/7 10/33/7 12/34/7
f 29/37/8 28/36/8 27/35/8
f 30/38/8 28/36/8 29/37/8
f 31/39/8 28/36/8 30/38/8
f 28/36/8 31/39/8 32/40/8
f 35/43/9 34/42/9 33/41/9
f 34/42/9 35/43/9 36/44/9
f 20/47/10 23/46/10 37/45/10
f 9/48/10 37/45/10 23/46/10
f 10/49/10 37/45/10 9/48/10
f 26/50/10 37/45/10 10/49/10
f 37/45/10 26/50/10 38/51/10
f 34/54/8 39/53/8 33/52/8
f 39/53/8 34/54/8 40/55/8
f 41/58/11 36/57/11 35/56/11
f 36/57/11 41/58/11 42/59/11
f 36/57/11 42/59/11 43/60/11
f 43/60/11 42/59/11 44/61/11
f 24/64/12 9/63/12 23/62/12
f 9/63/12 24/64/12 45/65/12
f 9/63/12 45/65/12 11/66/12
f 11/66/12 45/65/12 46/67/12
f 49/70/4 48/69/4 47/68/4
f 48/69/4 49/70/4 50/71/4
f 38/74/13 25/73/13 51/72/13
f 25/73/13 38/74/13 26/75/13
f 43/78/14 53/77/14 52/76/14
f 53/77/14 43/78/14 44/79/14
f 19/82/15 37/81/15 54/80/15
f 37/81/15 19/82/15 20/83/15
f 37/86/16 51/85/16 54/84/16
f 51/85/16 37/86/16 38/87/16
f 16/90/9 27/89/9 18/88/9
f 27/89/9 16/90/9 29/91/9
f 56/94/17 21/93/17 55/92/17
f 21/93/17 56/94/17 22/95/17
f 22/95/17 56/94/17 52/96/17
f 22/95/17 52/96/17 53/97/17
f 6/100/18 14/99/18 5/98/18
f 14/99/18 6/100/18 1/101/18
f 14/99/18 1/101/18 25/102/18
f 25/102/18 13/103/18 14/99/18
f 54/104/18 25/102/18 1/101/18
f 25/102/18 54/104/18 51/105/18
f 54/104/18 1/101/18 2/106/18
f 54/104/18 2/106/18 32/107/18
f 32/107/18 19/108/18 54/104/18
f 19/108/18 32/107/18 31/109/18
f 19/108/18 31/109/18 57/110/18
f 57/110/18 21/111/18 19/108/18
f 21/111/18 57/110/18 41/112/18
f 21/111/18 41/112/18 55/113/18
f 55/113/18 41/112/18 35/114/18
f 55/113/18 35/114/18 33/115/18
f 55/113/18 33/115/18 48/116/18
f 48/116/18 33/115/18 47/117/18
f 47/117/18 33/115/18 39/118/18
f 45/121/19 58/120/19 46/119/19
f 42/122/19 58/120/19 45/121/19
f 41/123/19 58/120/19 42/122/19
f 58/120/19 41/123/19 57/124/19
f 57/127/20 30/126/20 58/125/20
f 30/126/20 57/127/20 31/128/20
f 39/131/20 49/130/20 47/129/20
f 49/130/20 39/131/20 40/132/20
f 14/135/21 7/134/21 5/133/21
f 7/134/21 14/135/21 17/136/21
f 32/139/22 4/138/22 28/137/22
f 4/138/22 32/139/22 2/140/22
f 50/143/7 55/142/7 48/141/7
f 55/142/7 50/143/7 56/144/7

usemtl snow

f 12/147/10 16/146/10 15/145/10
f 16/146/10 12/147/10 29/148/10
f 29/148/10 12/147/10 11/149/10
f 29/148/10 11/149/10 46/150/10
f 29/148/10 46/150/10 30/151/10
f 30/151/10 46/150/10 58/152/10
f 50/155/10 52/154/10 56/153/10
f 52/154/10 50/155/10 43/156/10
f 34/157/10 43/156/10 50/155/10
f 43/156/10 34/157/10 36/158/10
f 34/157/10 50/155/10 49/159/10
f 34/157/10 49/159/10 40/160/10
f 17/163/10 8/162/10 7/161/10
f 8/162/10 17/163/10 18/164/10
f 8/162/10 18/164/10 3/165/10
f 3/165/10 18/164/10 27/166/10
f 3/165/10 27/166/10 4/167/10
f 4/167/10 27/166/10 28/168/10
f 22/171/10 45/170/10 24/169/10
f 45/170/10 22/171/10 42/172/10
f 42/172/10 22/171/10 53/173/10
f 42/172/10 53/173/10 44/174/10

