# Created by Kenney (www.kenney.nl)

mtllib snow_detail_rocks.mtl

g snow_detail_rocks

v 0.2127742 4.511946E-17 -0.01442774
v 0.1834601 0.02165393 0.01816849
v 0.1738062 4.511946E-17 -0.01442774
v 0.1831175 0.03550905 0.03902498
v 0.1664937 0.03550905 0.03902498
v 0.1315398 0.155 0.01816849
v 0.07296327 0.155 0.1237456
v 0.09622605 0.03550905 0.1656739
v 0.09046522 0.0651 -0.1189537
v 0.1137729 0.0651 -0.07694443
v 0.07296327 0.155 -0.08740858
v 0.1644682 1.071587E-16 -0.03125834
v 0.02310914 0.03550905 0.1656739
v -0.03918381 0.09597042 0.1444585
v -0.05568179 0.09597042 0.1444585
v -0.04418977 0.155 0.1237456
v -0.005406352 0.01618562 0.1724544
v -0.03832272 0 0.249812
v -0.2127742 0 0.249812
v -0.06797948 0.09597042 0.1963593
v -0.1831175 0.09597042 0.1963593
v -0.2127742 0 -0.06461577
v -0.1831175 0.09597042 -0.01116305
v -0.3 0 0.0925981
v -0.2406865 0.09597042 0.0925981
v -0.1257503 0.09597042 0.01816849
v -0.1094765 0.09597042 -0.01116305
v -0.1027663 0.155 0.01816849
v -0.1171873 2.255973E-17 -0.06461577
v 0.3 4.511946E-17 0.1427861
v 0.2406865 0.03550905 0.1427861
v 0.1612972 0.0651 -0.2543139
v 0.1612972 0.0651 -0.07694443
v 0.2105014 0.0651 -0.1656292
v 0.0628886 0.0651 -0.2543139
v 0.0395809 0.0651 -0.1189537
v 0.01368433 0.0651 -0.1656292
v 0.06797948 0.03550905 0.2465473
v 0.03832272 4.511946E-17 0.3
v -0.01392272 2.255973E-17 0.2058339
v 0.2611968 1.69198E-16 -0.1656292
v 0.1866448 1.69198E-16 -0.03125834
v 0.2127742 4.511946E-17 0.3
v 0.1831175 0.03550905 0.2465473
v -0.07436555 4.511946E-17 -0.1417968
v -0.04418977 0.155 -0.08740858
v 0.03754095 1.69198E-16 -0.3
v 0.1866448 1.69198E-16 -0.3
v -0.02378824 1.071587E-16 -0.1417968
v -0.03701099 1.69198E-16 -0.1656292

vn 0 0.8329561 -0.5533392
vn 0 -0.8329561 0.5533392
vn 0.8277667 0.3223033 0.4592634
vn -0.8277667 -0.3223033 -0.4592634
vn 0.8277667 0.3223033 -0.4592634
vn -0.8277667 -0.3223033 0.4592634
vn 0 0.3310997 0.9435958
vn 0 -0.3310997 -0.9435958
vn 0 0.4865874 0.8736319
vn 0 -0.4865874 -0.8736319
vn -0.7692761 0.4754431 -0.4268115
vn 0.7692761 -0.4754431 0.4268115
vn 0 -1 0
vn -0.8277667 0.3223033 0.4592634
vn 0.8277667 -0.3223033 -0.4592634
vn -0.7692761 0.4754431 0.4268115
vn 0.7692761 -0.4754431 -0.4268115
vn 0 0.4865874 -0.8736319
vn 0 -0.4865874 0.8736319
vn 0.493986 0.825143 -0.2740745
vn -0.493986 -0.825143 0.2740745
vn -0.493986 0.825143 0.2740745
vn 0.493986 -0.825143 -0.2740745
vn 0.7227712 0.5628436 0.4010096
vn -0.7227712 -0.5628436 -0.4010096
vn 0 0.8329561 0.5533392
vn 0 -0.8329561 -0.5533392
vn 0.7692761 0.4754431 0.4268115
vn -0.7692761 -0.4754431 -0.4268115
vn -0.8277667 0.3223033 -0.4592634
vn 0.8277667 -0.3223033 0.4592634
vn 0 1 0
vn 0.7227712 0.5628436 -0.4010096
vn -0.7227712 -0.5628436 0.4010096
vn 0.493986 0.825143 0.2740745
vn -0.493986 -0.825143 -0.2740745
vn -0.7227712 0.5628436 0.4010096
vn 0.7227712 -0.5628436 -0.4010096
vn 0 0.3310997 -0.9435958
vn 0 -0.3310997 0.9435958
vn 0 0.5744415 -0.8185456
vn 0 -0.5744415 0.8185456
vn -0.7227712 0.5628436 -0.4010096
vn 0.7227712 -0.5628436 0.4010096
vn 0 0.5744415 0.8185456
vn 0 -0.5744415 -0.8185456

vt -8.376939 -0.4731367
vt -7.222837 1.06754
vt -6.842765 -0.4731367
vt -7.20935 2.053332
vt -6.554871 2.053332
vt 1.887002 4.205341
vt 2.878705 -1.340447
vt -2.866473 4.205341
vt 1.836627 -0.7642205
vt -3.865583 -0.7642205
vt 2.367212 0.6901465
vt 0.4757953 0.6901465
vt 1.615523 4.429037
vt -3.137952 4.429037
vt -2.065316 -2.017326
vt -2.823093 -2.017326
vt -4.129655 -1.116751
vt 3.788427 -0.8404887
vt 0.9098088 -0.8404887
vt 2.87257 4.145087
vt -1.54267 1.682169
vt -2.192197 1.682169
vt -1.739755 4.145087
vt -0.2128485 -1.646729
vt -1.508769 -4.785644
vt -8.376939 -4.785644
vt -2.676358 -0.4607527
vt -7.20935 -0.4607527
vt 1.839611 -4.069429
vt 3.113334 0.2254026
vt 8.917967 -4.069429
vt 7.785049 0.2254026
vt 7.20935 -0.4394903
vt 4.9508 0.7152951
vt 4.3101 -0.4394903
vt 7.20935 7.73068
vt 2.676358 7.73068
vt 2.192197 5.687345
vt 1.54267 5.687345
vt 9.475845 3.645595
vt -1.77642 2.069597
vt -1.337413 4.524604
vt 3.909631 2.069597
vt 3.416062 4.524604
vt -2.542337 -5.751234
vt -1.409419 -1.456402
vt 4.536019 -5.751234
vt 3.262296 -1.456402
vt 8.376939 -1.237843
vt 4.613673 -1.237843
vt 7.20935 3.087048
vt 4.3101 3.087048
vt -10.64576 -6.271597
vt -9.512839 -3.796937
vt -3.567402 -6.271597
vt -4.841125 -3.796937
vt -6.350282 -10.01236
vt -6.350282 -3.029308
vt -8.287457 -6.520833
vt -2.475929 -10.01236
vt -4.479249 -3.029308
vt -3.561623 -4.683218
vt -1.558303 -4.683218
vt -0.5387531 -6.520833
vt 9.786166 -1.164915
vt 11.05989 -3.639575
vt 6.144946 -1.164915
vt 6.82018 -3.639575
vt 5.833711 -2.511584
vt 9.722692 -0.1797246
vt 10.691 -3.280506
vt 5.729774 -0.1797246
vt 4.641121 -3.280506
vt 8.376939 -9.838063
vt 1.508769 -9.838063
vt 7.20935 -7.311594
vt 2.676358 -7.311594
vt -5.721612 2.653496
vt -6.040239 -0.9170035
vt -8.058375 2.653496
vt -7.352042 -1.641336
vt -9.332098 -1.641336
vt -3.461126 -1.698063
vt -2.165112 4.7483
vt 0.01385165 -1.698063
vt 2.588363 4.7483
vt 1.706754 2.293293
vt 3.02737 2.293293
vt -2.87257 -3.441283
vt -2.87257 4.871873
vt -5.178731 0.7152951
vt 1.739755 -3.441283
vt 1.739755 4.871873
vt 4.045917 0.7152951
vt 11.81102 5.621501
vt 8.376939 -0.5680212
vt 8.376939 11.81102
vt 1.508769 11.81102
vt 6.842765 -0.5680212
vt 6.475127 -1.230644
vt 1.47799 -11.81102
vt 7.348221 -11.81102
vt 7.348221 -1.230644
vt 10.28334 -6.520833
vt -0.5481386 8.103698
vt -0.9365449 -5.58255
vt -1.508769 9.835117
vt -2.927778 -5.58255
vt -8.376939 9.835117
vt -4.613673 -2.543928
vt -8.376939 -2.543928
vt -11.81102 3.645595
vt -1.457125 -6.520833
vt 6.762895 -6.841731
vt 0.7130178 -6.841731
vt 5.674243 -3.74095
vt 1.681324 -3.74095
vt 0.8145467 -10.7724
vt -6.26381 -10.7724
vt -0.3183716 -8.297742
vt -4.990087 -8.297742
vt -6.408937 1.063464
vt -5.44063 4.164245
vt -5.335913 1.063464
vt -3.339128 4.164245
vt 2.927778 -1.848381
vt 0.9365449 -1.848381
vt 1.739755 4.618755
vt -1.558303 0.867816
vt -3.561623 0.867816
vt -2.87257 4.618755
vt -1.47799 -6.784742
vt -7.348221 -6.784742
vt -2.475929 -3.653589
vt -6.350282 -3.653589
vt -7.20935 1.536416
vt -7.20935 9.706586
vt -9.475845 5.621501
vt -6.554871 1.536416
vt -2.676358 9.706586
vt -3.788427 6.522596
vt -0.9098088 6.522596
vt -11.04496 -2.497762
vt -9.956305 0.6030193
vt -4.99508 -2.497762
vt -5.963386 0.6030193
vt 6.475127 0.7069327
vt 4.479249 3.838086
vt 7.348221 0.7069327
vt 6.350282 3.838086

usemtl snowRoad

f 3/3/1 2/2/1 1/1/1
f 2/2/1 4/4/1 1/1/1
f 4/4/1 2/2/1 5/5/1
f 1/1/2 2/2/2 3/3/2
f 1/1/2 4/4/2 2/2/2
f 5/5/2 2/2/2 4/4/2
f 7/8/3 2/7/3 6/6/3
f 2/7/3 7/8/3 5/9/3
f 5/9/3 7/8/3 8/10/3
f 6/6/4 2/7/4 7/8/4
f 5/9/4 7/8/4 2/7/4
f 8/10/4 7/8/4 5/9/4
f 11/13/5 10/12/5 9/11/5
f 10/12/5 11/13/5 6/14/5
f 10/12/5 6/14/5 12/15/5
f 12/15/5 6/14/5 3/16/5
f 3/16/5 6/14/5 2/17/5
f 9/11/6 10/12/6 11/13/6
f 6/14/6 11/13/6 10/12/6
f 12/15/6 6/14/6 10/12/6
f 3/16/6 6/14/6 12/15/6
f 2/17/6 6/14/6 3/16/6
f 7/20/7 13/19/7 8/18/7
f 13/19/7 7/20/7 14/21/7
f 14/21/7 7/20/7 15/22/7
f 15/22/7 7/20/7 16/23/7
f 14/21/7 17/24/7 13/19/7
f 8/18/8 13/19/8 7/20/8
f 14/21/8 7/20/8 13/19/8
f 15/22/8 7/20/8 14/21/8
f 16/23/8 7/20/8 15/22/8
f 13/19/8 17/24/8 14/21/8
f 20/27/9 19/26/9 18/25/9
f 19/26/9 20/27/9 21/28/9
f 18/25/10 19/26/10 20/27/10
f 21/28/10 20/27/10 19/26/10
f 24/31/11 23/30/11 22/29/11
f 23/30/11 24/31/11 25/32/11
f 22/29/12 23/30/12 24/31/12
f 25/32/12 24/31/12 23/30/12
f 27/35/13 26/34/13 23/33/13
f 23/33/13 26/34/13 21/36/13
f 21/36/13 26/34/13 20/37/13
f 26/34/13 15/38/13 20/37/13
f 14/39/13 20/37/13 15/38/13
f 25/40/13 23/33/13 21/36/13
f 15/43/14 28/42/14 26/41/14
f 28/42/14 15/43/14 16/44/14
f 26/41/15 28/42/15 15/43/15
f 16/44/15 15/43/15 28/42/15
f 19/47/16 25/46/16 24/45/16
f 25/46/16 19/47/16 21/48/16
f 24/45/17 25/46/17 19/47/17
f 21/48/17 19/47/17 25/46/17
f 23/51/18 29/50/18 22/49/18
f 29/50/18 23/51/18 27/52/18
f 22/49/19 29/50/19 23/51/19
f 27/52/19 23/51/19 29/50/19
f 1/55/20 31/54/20 30/53/20
f 31/54/20 1/55/20 4/56/20
f 30/53/21 31/54/21 1/55/21
f 4/56/21 1/55/21 31/54/21
f 34/59/13 33/58/13 32/57/13
f 35/60/13 32/57/13 33/58/13
f 10/61/13 35/60/13 33/58/13
f 9/62/13 35/60/13 10/61/13
f 36/63/13 35/60/13 9/62/13
f 37/64/13 35/60/13 36/63/13
f 13/67/22 39/66/22 38/65/22
f 39/66/22 13/67/22 40/68/22
f 40/68/22 13/67/22 17/69/22
f 38/65/23 39/66/23 13/67/23
f 40/68/23 13/67/23 39/66/23
f 17/69/23 13/67/23 40/68/23
f 33/72/24 41/71/24 34/70/24
f 41/71/24 33/72/24 42/73/24
f 34/70/25 41/71/25 33/72/25
f 42/73/25 33/72/25 41/71/25
f 44/76/26 39/75/26 43/74/26
f 39/75/26 44/76/26 38/77/26
f 43/74/27 39/75/27 44/76/27
f 38/77/27 44/76/27 39/75/27
f 20/80/28 17/79/28 14/78/28
f 17/79/28 20/80/28 40/81/28
f 40/81/28 20/80/28 18/82/28
f 14/78/29 17/79/29 20/80/29
f 40/81/29 20/80/29 17/79/29
f 18/82/29 20/80/29 40/81/29
f 29/85/30 46/84/30 45/83/30
f 46/84/30 29/85/30 28/86/30
f 28/86/30 29/85/30 27/87/30
f 28/86/30 27/87/30 26/88/30
f 45/83/31 46/84/31 29/85/31
f 28/86/31 29/85/31 46/84/31
f 27/87/31 29/85/31 28/86/31
f 26/88/31 27/87/31 28/86/31
f 6/91/13 7/90/13 11/89/13
f 46/92/13 11/89/13 7/90/13
f 16/93/13 46/92/13 7/90/13
f 28/94/13 46/92/13 16/93/13
f 43/97/13 1/96/13 30/95/13
f 1/96/13 43/97/13 39/98/13
f 1/96/13 39/98/13 3/99/13
f 3/99/13 39/98/13 12/100/13
f 47/101/13 12/100/13 39/98/13
f 48/102/13 12/100/13 47/101/13
f 48/102/13 42/103/13 12/100/13
f 42/103/13 48/102/13 41/104/13
f 47/101/13 39/98/13 40/105/13
f 47/101/13 40/105/13 49/106/13
f 18/107/13 49/106/13 40/105/13
f 49/106/13 18/107/13 45/108/13
f 45/108/13 18/107/13 19/109/13
f 45/108/13 19/109/13 29/110/13
f 29/110/13 19/109/13 22/111/13
f 22/111/13 19/109/13 24/112/13
f 47/101/13 49/106/13 50/113/13
f 30/95/32 1/96/32 43/97/32
f 39/98/32 43/97/32 1/96/32
f 3/99/32 39/98/32 1/96/32
f 12/100/32 39/98/32 3/99/32
f 39/98/32 12/100/32 47/101/32
f 47/101/32 12/100/32 48/102/32
f 12/100/32 42/103/32 48/102/32
f 41/104/32 48/102/32 42/103/32
f 40/105/32 39/98/32 47/101/32
f 49/106/32 40/105/32 47/101/32
f 40/105/32 49/106/32 18/107/32
f 45/108/32 18/107/32 49/106/32
f 19/109/32 18/107/32 45/108/32
f 29/110/32 19/109/32 45/108/32
f 22/111/32 19/109/32 29/110/32
f 24/112/32 19/109/32 22/111/32
f 50/113/32 49/106/32 47/101/32
f 32/116/33 41/115/33 48/114/33
f 41/115/33 32/116/33 34/117/33
f 48/114/34 41/115/34 32/116/34
f 34/117/34 32/116/34 41/115/34
f 31/120/35 43/119/35 30/118/35
f 43/119/35 31/120/35 44/121/35
f 30/118/36 43/119/36 31/120/36
f 44/121/36 31/120/36 43/119/36
f 49/124/37 37/123/37 50/122/37
f 37/123/37 49/124/37 36/125/37
f 50/122/38 37/123/38 49/124/38
f 36/125/38 49/124/38 37/123/38
f 46/128/39 49/127/39 45/126/39
f 49/127/39 46/128/39 36/129/39
f 36/129/39 46/128/39 9/130/39
f 9/130/39 46/128/39 11/131/39
f 45/126/40 49/127/40 46/128/40
f 36/129/40 46/128/40 49/127/40
f 9/130/40 46/128/40 36/129/40
f 11/131/40 46/128/40 9/130/40
f 35/134/41 48/133/41 47/132/41
f 48/133/41 35/134/41 32/135/41
f 47/132/42 48/133/42 35/134/42
f 32/135/42 35/134/42 48/133/42
f 31/138/13 44/137/13 4/136/13
f 5/139/13 4/136/13 44/137/13
f 38/140/13 5/139/13 44/137/13
f 8/141/13 5/139/13 38/140/13
f 13/142/13 8/141/13 38/140/13
f 50/145/43 35/144/43 47/143/43
f 35/144/43 50/145/43 37/146/43
f 47/143/44 35/144/44 50/145/44
f 37/146/44 50/145/44 35/144/44
f 42/149/45 10/148/45 12/147/45
f 10/148/45 42/149/45 33/150/45
f 12/147/46 10/148/46 42/149/46
f 33/150/46 42/149/46 10/148/46

usemtl snow

f 23/33/32 26/34/32 27/35/32
f 21/36/32 26/34/32 23/33/32
f 20/37/32 26/34/32 21/36/32
f 20/37/32 15/38/32 26/34/32
f 15/38/32 20/37/32 14/39/32
f 21/36/32 23/33/32 25/40/32
f 32/57/32 33/58/32 34/59/32
f 33/58/32 32/57/32 35/60/32
f 33/58/32 35/60/32 10/61/32
f 10/61/32 35/60/32 9/62/32
f 9/62/32 35/60/32 36/63/32
f 36/63/32 35/60/32 37/64/32
f 11/89/32 7/90/32 6/91/32
f 7/90/32 11/89/32 46/92/32
f 7/90/32 46/92/32 16/93/32
f 16/93/32 46/92/32 28/94/32
f 4/136/32 44/137/32 31/138/32
f 44/137/32 4/136/32 5/139/32
f 44/137/32 5/139/32 38/140/32
f 38/140/32 5/139/32 8/141/32
f 38/140/32 8/141/32 13/142/32

