# Created by Kenney (www.kenney.nl)

mtllib snow_tile_end.mtl

g snow_tile_end

v -0.5 0 -0.5
v 0.5 0 -0.5
v -0.5 0.1 -0.5
v 0.5 0.1 -0.5
v 0.5 0.1 0.5
v 0.5 0 0.5
v -0.5 0 0.5
v -0.5 0.1 0.5
v 0.275 0.15 0.5
v 0.5 0.2 0.5
v -0.275 0.15 0.5
v 0.275 0.2 0.5
v -0.18125 0.15 0.5
v 0.18125 0.15 0.5
v -0.5 0.2 0.5
v -0.275 0.2 0.5
v -0.5 0.2 -0.5
v 0.5 0.2 -0.5
v 0.275 0.2 -0.275
v -0.275 0.2 -0.275
v 0.275 0.15 -0.275
v -0.275 0.15 -0.275
v 0.18125 0.15 -0.18125
v -0.18125 0.15 -0.18125

vn 0 0 -1
vn 1 0 0
vn 0 0 1
vn -1 0 0
vn 0 -1 0
vn 0 1 0

vt 19.68504 0
vt -19.68504 0
vt 19.68504 3.937008
vt -19.68504 3.937008
vt 19.68504 19.68504
vt 19.68504 -19.68504
vt -19.68504 19.68504
vt -19.68504 -19.68504
vt 10.82677 5.905512
vt 19.68504 7.874016
vt -10.82677 5.905512
vt 10.82677 7.874016
vt -7.135827 5.905512
vt 7.135827 5.905512
vt -19.68504 7.874016
vt -10.82677 7.874016
vt -10.82677 19.68504
vt -10.82677 -10.82677
vt 10.82677 -10.82677
vt 10.82677 19.68504
vt 19.68504 5.905512
vt -19.68504 5.905512
vt -7.135827 19.68504
vt -7.135827 -7.135827
vt 7.135827 -7.135827
vt 7.135827 19.68504

usemtl dirt

f 3/3/1 2/2/1 1/1/1
f 2/2/1 3/3/1 4/4/1
f 5/4/2 2/1/2 4/3/2
f 2/1/2 5/4/2 6/2/2
f 5/3/3 7/2/3 6/1/3
f 7/2/3 5/3/3 8/4/3
f 7/1/4 3/4/4 1/2/4
f 3/4/4 7/1/4 8/3/4
f 7/7/5 2/6/5 6/5/5
f 2/6/5 7/7/5 1/8/5

usemtl snow

f 5/3/3 9/9/3 8/4/3
f 9/9/3 5/3/3 10/10/3
f 8/4/3 9/9/3 11/11/3
f 9/9/3 10/10/3 12/12/3
f 9/9/3 13/13/3 11/11/3
f 13/13/3 9/9/3 14/14/3
f 11/11/3 15/15/3 8/4/3
f 15/15/3 11/11/3 16/16/3
f 17/10/1 4/4/1 3/3/1
f 4/4/1 17/10/1 18/15/1
f 10/15/2 4/3/2 18/10/2
f 4/3/2 10/15/2 5/4/2
f 8/3/4 17/15/4 3/4/4
f 17/15/4 8/3/4 15/10/4
f 18/8/6 12/17/6 10/7/6
f 12/17/6 18/8/6 19/18/6
f 19/18/6 18/8/6 17/6/6
f 19/18/6 17/6/6 20/19/6
f 20/19/6 17/6/6 15/5/6
f 15/5/6 16/20/6 20/19/6

usemtl snowRoadDark

f 9/21/4 19/16/4 21/11/4
f 19/16/4 9/21/4 12/10/4
f 21/9/3 20/16/3 22/11/3
f 20/16/3 21/9/3 19/12/3
f 16/15/2 22/9/2 20/12/2
f 22/9/2 16/15/2 11/22/2
f 21/18/6 14/23/6 9/17/6
f 14/23/6 21/18/6 23/24/6
f 23/24/6 21/18/6 22/19/6
f 23/24/6 22/19/6 24/25/6
f 24/25/6 22/19/6 11/20/6
f 11/20/6 13/26/6 24/25/6

usemtl snowRoad

f 23/24/6 13/26/6 14/23/6
f 13/26/6 23/24/6 24/25/6

