# Created by Kenney (www.kenney.nl)

mtllib snow_tile_spawnRound.mtl

g snow_tile_spawnRound

v 0.5 0 0.5
v 0.5 0 -0.5
v -0.5 0 0.5
v -0.5 0 -0.5
v 0.5 0.1 0.5
v -0.5 0.1 0.5
v -0.5 0.1 -0.5
v 0.5 0.1 -0.5
v -0.275 0.15 -0.5
v -0.5 0.2 -0.5
v -0.275 0.2 -0.5
v 0.275 0.15 -0.5
v 0.5 0.2 -0.5
v -0.18125 0.15 -0.5
v 0.18125 0.15 -0.5
v 0.275 0.2 -0.5
v 0.5 0.2 0.5
v -0.5 0.2 0.5
v -0.275 0.2 0.5
v 0.275 0.2 0.5
v 0.275 0.15 0.5
v -0.275 0.15 0.5
v 0.18125 0.15 0.5
v -0.18125 0.15 0.5
v 0.18125 0.15 -1.218225E-14
v -0.18125 0.15 -3.255813E-09
v 0.1750741 0.15 0.04691095
v 0.1569671 0.15 0.090625
v 0.1281631 0.15 0.1281631
v 0.090625 0.15 0.1569671
v 0.04691095 0.15 0.1750741
v -1.6279E-09 0.15 0.18125
v -0.04691095 0.15 0.1750741
v -0.090625 0.15 0.1569671
v -0.1281631 0.15 0.1281631
v -0.1569671 0.15 0.090625
v -0.1750741 0.15 0.04691095
v 0.1750741 0.15 -0.04691095
v 0.1569671 0.15 -0.090625
v 0.1281631 0.15 -0.1281631
v 0.090625 0.15 -0.1569671
v 0.04691095 0.15 -0.1750741
v 1.627901E-09 0.15 -0.18125
v -0.04691095 0.15 -0.1750741
v -0.090625 0.15 -0.1569671
v -0.1281631 0.15 -0.1281631
v -0.1569671 0.15 -0.090625
v -0.1750741 0.15 -0.04691095
v 0.1135321 0.15 -0.0655478
v 0.1266286 0.15 -0.03393004
v 0.09082571 0.1 -0.05243825
v 0.1013029 0.1 -0.02714403
v 0.09082571 0.1 0.05243824
v 0.1135321 0.15 0.0655478
v 0.07415888 0.1 0.07415888
v 0.09269859 0.15 0.09269859
v 0.05243824 0.1 0.09082571
v 0.0655478 0.15 0.1135321
v 0.1310956 0.15 -4.504737E-10
v 0.1048765 0.1 -6.859616E-10
v 0.1013029 0.1 0.02714403
v 0.1266286 0.15 0.03393004
v 0.07415888 0.1 -0.07415888
v 0.05243825 0.1 -0.09082571
v 0.0926986 0.15 -0.0926986
v 0.06554781 0.15 -0.1135321
v 0.02714403 0.1 -0.1013029
v 0.02714403 0.1 0.1013029
v 9.419485E-10 0.1 -0.1048765
v -9.419528E-10 0.1 0.1048765
v -0.02714403 0.1 -0.1013029
v -0.02714403 0.1 0.1013029
v -0.05243824 0.1 -0.09082571
v -0.05243825 0.1 0.0908257
v -0.07415888 0.1 -0.07415888
v -0.07415888 0.1 0.07415888
v -0.09082571 0.1 -0.05243825
v -0.09082571 0.1 0.05243824
v -0.1013029 0.1 -0.02714403
v -0.1013029 0.1 0.02714403
v -0.1048765 0.1 -2.569865E-09
v -0.09269859 0.15 -0.0926986
v -0.1135321 0.15 -0.06554781
v -0.1135321 0.15 0.0655478
v -0.0926986 0.15 0.09269859
v -0.06554781 0.15 0.1135321
v -0.03393004 0.15 0.1266286
v -1.177438E-09 0.15 0.1310956
v 0.03393004 0.15 0.1266286
v -0.1310956 0.15 -2.805352E-09
v -0.1266286 0.15 0.03393004
v 0.03393004 0.15 -0.1266286
v 1.177438E-09 0.15 -0.1310956
v -0.03393004 0.15 -0.1266286
v -0.1266286 0.15 -0.03393004
v -0.0655478 0.15 -0.1135321

vn 0 -1 0
vn 0 0 1
vn -1 0 0
vn 0 0 -1
vn 1 0 0
vn 0 1 0
vn -0.7669719 0.4644051 0.4428114
vn -0.855446 0.4644051 0.2292161
vn -0.7669719 0.4644051 -0.4428114
vn -0.6262299 0.4644051 -0.6262299
vn -0.4428114 0.4644051 -0.7669719
vn -0.8856229 0.4644051 0
vn -0.855446 0.4644051 -0.2292161
vn -0.6262299 0.4644051 0.6262299
vn -0.4428114 0.4644051 0.7669719
vn 0.6262299 0.4644051 0.6262299
vn 0.7669719 0.4644051 0.4428114
vn 0.7669719 0.4644051 -0.4428114
vn 0.6262299 0.4644051 -0.6262299
vn 0.4428114 0.4644051 -0.7669719
vn 0.2292161 0.4644051 -0.855446
vn 0 0.4644051 -0.8856229
vn -0.2292161 0.4644051 -0.855446
vn 0.8856229 0.4644051 0
vn 0.855446 0.4644051 -0.2292161
vn -0.2292161 0.4644051 0.855446
vn 0 0.4644051 0.8856229
vn 0.2292161 0.4644051 0.855446
vn 0.855446 0.4644051 0.2292161
vn 0.4428114 0.4644051 0.7669719

vt 19.68504 19.68504
vt 19.68504 -19.68504
vt -19.68504 19.68504
vt -19.68504 -19.68504
vt 19.68504 0
vt -19.68504 0
vt 19.68504 3.937008
vt -19.68504 3.937008
vt 10.82677 5.905512
vt 19.68504 7.874016
vt 10.82677 7.874016
vt -10.82677 5.905512
vt -19.68504 7.874016
vt 7.135827 5.905512
vt -7.135827 5.905512
vt -10.82677 7.874016
vt 10.82677 19.68504
vt 10.82677 -19.68504
vt -10.82677 19.68504
vt -10.82677 -19.68504
vt -7.135827 19.68504
vt -7.135827 -19.68504
vt -7.135827 -4.796163E-13
vt 7.135827 -19.68504
vt 7.135827 -1.281816E-07
vt 7.135827 19.68504
vt 19.68504 5.905512
vt -19.68504 5.905512
vt -6.892679 1.846888
vt -6.179807 3.567913
vt -5.045792 5.045792
vt -3.567913 6.179807
vt -1.846888 6.892679
vt 6.409056E-08 7.135827
vt 1.846888 6.892679
vt 3.567914 6.179807
vt 5.045792 5.045792
vt 6.179807 3.567913
vt 6.892679 1.846888
vt -6.892679 -1.846888
vt -6.179807 -3.567913
vt -5.045792 -5.045792
vt -3.567914 -6.179807
vt -1.846888 -6.892679
vt -6.409059E-08 -7.135827
vt 1.846888 -6.892679
vt 3.567913 -6.179807
vt 5.045792 -5.045792
vt 6.179807 -3.567914
vt 6.892679 -1.846888
vt -0.6736777 7.600104
vt 0.6736776 7.600104
vt -0.5389422 5.381458
vt 0.538942 5.381458
vt -0.6736776 7.600104
vt -0.5389421 5.381458
vt -4.128996 -2.700636E-08
vt -3.988303 1.068663
vt -3.988304 -1.068663
vt -3.575815 -2.064498
vt -3.575815 2.064498
vt -2.919641 -2.919641
vt -2.919641 2.919641
vt -2.064498 -3.575815
vt -2.064498 3.575815
vt -1.068663 -3.988304
vt -1.068663 3.988303
vt -3.708459E-08 -4.128996
vt 3.708476E-08 4.128995
vt 1.068663 -3.988304
vt 1.068663 3.988303
vt 2.064498 -3.575815
vt 2.064498 3.575815
vt 2.919641 -2.919641
vt 2.919641 2.919641
vt 3.575815 -2.064498
vt 3.575815 2.064498
vt 3.988303 -1.068663
vt 3.988304 1.068663
vt 4.128996 -1.011758E-07
vt 0.6736776 7.600104
vt 0.5389422 5.381458
vt -0.6736776 7.600104
vt -0.538942 5.381458
vt 0.5389421 5.381458
vt 0.6736777 7.600104
vt -5.161244 -1.773519E-08
vt -4.985379 -1.335828
vt -4.469769 -2.580622
vt -3.649551 -3.649551
vt -2.580622 -4.469769
vt -1.335828 -4.98538
vt -4.635584E-08 -5.161245
vt 1.335828 -4.98538
vt 2.580622 -4.469769
vt 3.649551 -3.649551
vt 4.469769 -2.580622
vt 4.985379 -1.335829
vt 5.161244 -1.104469E-07
vt 4.985379 1.335828
vt 4.469769 2.580622
vt 3.649551 3.649551
vt 2.580622 4.469769
vt 1.335828 4.985379
vt 4.635584E-08 5.161244
vt -1.335828 4.985379
vt -2.580622 4.469769
vt -3.649551 3.649551
vt -4.469769 2.580622
vt -4.985379 1.335828

usemtl dirt

f 3/3/1 2/2/1 1/1/1
f 2/2/1 3/3/1 4/4/1
f 5/7/2 3/6/2 1/5/2
f 3/6/2 5/7/2 6/8/2
f 3/5/3 7/8/3 4/6/3
f 7/8/3 3/5/3 6/7/3
f 7/7/4 2/6/4 4/5/4
f 2/6/4 7/7/4 8/8/4
f 5/8/5 2/5/5 8/7/5
f 2/5/5 5/8/5 1/6/5

usemtl snow

f 7/7/4 9/9/4 8/8/4
f 9/9/4 7/7/4 10/10/4
f 9/9/4 10/10/4 11/11/4
f 12/12/4 8/8/4 9/9/4
f 8/8/4 12/12/4 13/13/4
f 12/12/4 9/9/4 14/14/4
f 12/12/4 14/14/4 15/15/4
f 13/13/4 12/12/4 16/16/4
f 17/13/5 8/7/5 13/10/5
f 8/7/5 17/13/5 5/8/5
f 6/7/3 10/13/3 7/8/3
f 10/13/3 6/7/3 18/10/3
f 11/18/6 18/1/6 19/17/6
f 18/1/6 11/18/6 10/2/6
f 13/4/6 20/19/6 17/3/6
f 20/19/6 13/4/6 16/20/6
f 5/7/2 21/9/2 6/8/2
f 21/9/2 5/7/2 17/10/2
f 21/9/2 17/10/2 20/11/2
f 22/12/2 6/8/2 21/9/2
f 6/8/2 22/12/2 18/13/2
f 22/12/2 21/9/2 23/14/2
f 22/12/2 23/14/2 24/15/2
f 18/13/2 22/12/2 19/16/2

usemtl snowRoadDark

f 12/20/6 23/21/6 21/19/6
f 23/21/6 12/20/6 15/22/6
f 23/21/6 15/22/6 25/23/6
f 9/18/6 26/25/6 14/24/6
f 26/25/6 9/18/6 22/17/6
f 22/17/6 24/26/6 26/25/6
f 19/13/5 9/27/5 11/10/5
f 9/27/5 19/13/5 22/28/5
f 21/27/3 16/13/3 12/28/3
f 16/13/3 21/27/3 20/10/3

usemtl snowRoad

f 27/29/6 23/21/6 25/23/6
f 23/21/6 27/29/6 28/30/6
f 23/21/6 28/30/6 29/31/6
f 23/21/6 29/31/6 24/26/6
f 24/26/6 29/31/6 30/32/6
f 24/26/6 30/32/6 31/33/6
f 24/26/6 31/33/6 32/34/6
f 24/26/6 32/34/6 33/35/6
f 24/26/6 33/35/6 34/36/6
f 24/26/6 34/36/6 35/37/6
f 24/26/6 35/37/6 36/38/6
f 24/26/6 36/38/6 37/39/6
f 24/26/6 37/39/6 26/25/6
f 15/22/6 38/40/6 25/23/6
f 38/40/6 15/22/6 39/41/6
f 39/41/6 15/22/6 40/42/6
f 40/42/6 15/22/6 14/24/6
f 40/42/6 14/24/6 41/43/6
f 41/43/6 14/24/6 42/44/6
f 42/44/6 14/24/6 43/45/6
f 43/45/6 14/24/6 44/46/6
f 44/46/6 14/24/6 45/47/6
f 45/47/6 14/24/6 46/48/6
f 46/48/6 14/24/6 47/49/6
f 47/49/6 14/24/6 48/50/6
f 48/50/6 14/24/6 26/25/6

usemtl stoneDark

f 51/53/7 50/52/8 49/51/7
f 50/52/8 51/53/7 52/54/8
f 55/54/10 54/55/9 53/53/9
f 54/55/9 55/54/10 56/52/10
f 58/52/11 55/56/10 57/54/11
f 55/56/10 58/52/11 56/55/10
f 52/53/8 59/52/12 50/51/8
f 59/52/12 52/53/8 60/54/12
f 61/54/13 59/51/12 60/53/12
f 59/51/12 61/54/13 62/52/13
f 65/52/14 64/56/15 63/54/14
f 64/56/15 65/52/14 66/55/15
f 52/59/6 61/58/6 60/57/6
f 61/58/6 52/59/6 51/60/6
f 61/58/6 51/60/6 53/61/6
f 53/61/6 51/60/6 63/62/6
f 53/61/6 63/62/6 55/63/6
f 55/63/6 63/62/6 64/64/6
f 55/63/6 64/64/6 57/65/6
f 57/65/6 64/64/6 67/66/6
f 57/65/6 67/66/6 68/67/6
f 68/67/6 67/66/6 69/68/6
f 68/67/6 69/68/6 70/69/6
f 70/69/6 69/68/6 71/70/6
f 70/69/6 71/70/6 72/71/6
f 72/71/6 71/70/6 73/72/6
f 72/71/6 73/72/6 74/73/6
f 74/73/6 73/72/6 75/74/6
f 74/73/6 75/74/6 76/75/6
f 76/75/6 75/74/6 77/76/6
f 76/75/6 77/76/6 78/77/6
f 78/77/6 77/76/6 79/78/6
f 78/77/6 79/78/6 80/79/6
f 80/79/6 79/78/6 81/80/6
f 83/83/17 75/82/16 82/81/16
f 75/82/16 83/83/17 77/84/17
f 84/81/18 76/84/19 78/82/18
f 76/84/19 84/81/18 85/83/19
f 63/53/14 49/52/7 65/55/14
f 49/52/7 63/53/14 51/54/7
f 86/81/20 72/84/21 74/85/20
f 72/84/21 86/81/20 87/83/21
f 53/54/9 62/51/13 61/53/13
f 62/51/13 53/54/9 54/52/9
f 88/52/22 68/56/23 70/85/22
f 68/56/23 88/52/22 89/55/23
f 91/83/25 81/82/24 90/86/24
f 81/82/24 91/83/25 80/84/25
f 91/86/25 78/84/18 80/82/25
f 78/84/18 91/86/25 84/83/18
f 92/52/26 69/56/27 67/85/26
f 69/56/27 92/52/26 93/55/27
f 93/81/27 71/56/28 69/85/27
f 71/56/28 93/81/27 94/83/28
f 90/83/24 79/82/29 95/86/29
f 79/82/29 90/83/24 81/84/24
f 66/52/15 67/56/26 64/54/15
f 67/56/26 66/52/15 92/55/26
f 89/52/23 57/56/11 68/54/23
f 57/56/11 89/52/23 58/55/11
f 85/81/19 74/84/20 76/85/19
f 74/84/20 85/81/19 86/83/20
f 87/81/21 70/56/22 72/85/21
f 70/56/22 87/81/21 88/83/22
f 95/83/29 77/82/17 83/86/17
f 77/82/17 95/83/29 79/84/29
f 96/81/30 75/84/16 73/85/30
f 75/84/16 96/81/30 82/83/16
f 94/81/28 73/84/30 71/85/28
f 73/84/30 94/81/28 96/83/30

usemtl stone

f 38/40/6 27/29/6 25/23/6
f 27/29/6 38/40/6 39/41/6
f 27/29/6 39/41/6 28/30/6
f 28/30/6 39/41/6 40/42/6
f 28/30/6 40/42/6 59/87/6
f 59/87/6 40/42/6 50/88/6
f 50/88/6 40/42/6 41/43/6
f 50/88/6 41/43/6 49/89/6
f 49/89/6 41/43/6 65/90/6
f 65/90/6 41/43/6 66/91/6
f 66/91/6 41/43/6 42/44/6
f 66/91/6 42/44/6 92/92/6
f 92/92/6 42/44/6 43/45/6
f 92/92/6 43/45/6 93/93/6
f 93/93/6 43/45/6 44/46/6
f 93/93/6 44/46/6 94/94/6
f 94/94/6 44/46/6 96/95/6
f 96/95/6 44/46/6 45/47/6
f 96/95/6 45/47/6 82/96/6
f 82/96/6 45/47/6 46/48/6
f 82/96/6 46/48/6 83/97/6
f 83/97/6 46/48/6 95/98/6
f 95/98/6 46/48/6 90/99/6
f 90/99/6 46/48/6 47/49/6
f 36/38/6 90/99/6 47/49/6
f 35/37/6 90/99/6 36/38/6
f 35/37/6 91/100/6 90/99/6
f 35/37/6 84/101/6 91/100/6
f 35/37/6 85/102/6 84/101/6
f 34/36/6 85/102/6 35/37/6
f 34/36/6 86/103/6 85/102/6
f 33/35/6 86/103/6 34/36/6
f 33/35/6 87/104/6 86/103/6
f 32/34/6 87/104/6 33/35/6
f 32/34/6 88/105/6 87/104/6
f 32/34/6 89/106/6 88/105/6
f 31/33/6 89/106/6 32/34/6
f 31/33/6 58/107/6 89/106/6
f 30/32/6 58/107/6 31/33/6
f 30/32/6 56/108/6 58/107/6
f 30/32/6 54/109/6 56/108/6
f 30/32/6 62/110/6 54/109/6
f 29/31/6 62/110/6 30/32/6
f 29/31/6 59/87/6 62/110/6
f 59/87/6 29/31/6 28/30/6
f 36/38/6 47/49/6 48/50/6
f 36/38/6 48/50/6 37/39/6
f 37/39/6 48/50/6 26/25/6

