# Created by Kenney (www.kenney.nl)

mtllib snow_tile_wideCorner.mtl

g snow_tile_wideCorner

v 1 0.1 1
v -1 0.1 1
v 1 0.2 1
v -1 0.2 1
v 1 0.2 -1
v 1 0.1 -1
v -0.775 0.15 -1
v -1 0.1 -1
v -1 0.2 -1
v -0.775 0.2 -1
v -0.68125 0.15 -1
v 0.775 0.15 -1
v 0.68125 0.15 -1
v 0.775 0.2 -1
v -1 0.15 -0.775
v -1 0.15 -0.68125
v -1 0.15 0.68125
v -1 0.15 0.775
v -1 0.2 0.775
v -1 0.2 -0.775
v -0.7769249 0.2 -0.9706317
v -0.7826667 0.2 -0.9417657
v -0.7921271 0.2 -0.9138963
v -0.8051443 0.2 -0.8875
v -0.8214955 0.2 -0.8630287
v -0.840901 0.2 -0.840901
v -0.8630287 0.2 -0.8214955
v -0.8875 0.2 -0.8051443
v -0.9138963 0.2 -0.7921271
v -0.9417657 0.2 -0.7826667
v -0.9706317 0.2 -0.7769249
v 0.7598146 0.2 -0.768316
v 0.7145184 0.2 -0.5405962
v 0.6398862 0.2 -0.3207369
v 0.5371951 0.2 -0.1125
v 0.4082022 0.2 0.08055153
v 0.2551145 0.2 0.2551145
v 0.08055153 0.2 0.4082022
v -0.1125 0.2 0.5371951
v -0.3207369 0.2 0.6398862
v -0.5405962 0.2 0.7145184
v -0.768316 0.2 0.7598146
v -1 0 -1
v -1 0 1
v 1 0 -1
v 1 0 1
v -0.6839769 0.15 -0.9583948
v -0.6921111 0.15 -0.9175014
v -0.7055134 0.15 -0.8780196
v -0.7239544 0.15 -0.840625
v -0.7471187 0.15 -0.8059573
v -0.7746097 0.15 -0.7746097
v -0.7769249 0.15 -0.9706317
v -0.8059573 0.15 -0.7471187
v -0.7826667 0.15 -0.9417657
v -0.7921271 0.15 -0.9138963
v -0.8051443 0.15 -0.8875
v -0.8214955 0.15 -0.8630287
v -0.840625 0.15 -0.7239544
v -0.840901 0.15 -0.840901
v -0.8780196 0.15 -0.7055134
v -0.8630287 0.15 -0.8214955
v -0.8875 0.15 -0.8051443
v -0.9175014 0.15 -0.6921111
v -0.9138963 0.15 -0.7921271
v -0.9417657 0.15 -0.7826667
v -0.9583948 0.15 -0.6839769
v -0.9706317 0.15 -0.7769249
v 0.7598146 0.15 -0.768316
v 0.7145184 0.15 -0.5405962
v 0.6398862 0.15 -0.3207369
v 0.6668667 0.15 -0.7805528
v 0.6239628 0.15 -0.5648605
v 0.5371951 0.15 -0.1125
v 0.5532725 0.15 -0.3566135
v 0.4560052 0.15 -0.159375
v 0.4082022 0.15 0.08055153
v 0.3338253 0.15 0.02348015
v 0.2551145 0.15 0.2551145
v 0.1888233 0.15 0.1888233
v 0.08055153 0.15 0.4082022
v 0.02348015 0.15 0.3338253
v -0.1125 0.15 0.5371951
v -0.159375 0.15 0.4560052
v -0.3207369 0.15 0.6398862
v -0.3566135 0.15 0.5532725
v -0.5405962 0.15 0.7145184
v -0.5648605 0.15 0.6239628
v -0.768316 0.15 0.7598146
v -0.7805528 0.15 0.6668667

vn 0 0 1
vn 1 0 0
vn 0 0 -1
vn -1 0 0
vn 0 1 0
vn 0 -1 0
vn 0.1305262 0 0.9914449
vn 0.06540313 0 0.9978589
vn 0.258819 0 0.9659258
vn 0.3826834 0 0.9238795
vn 0.5 0 0.8660254
vn 0.6087614 0 0.7933533
vn 0.7071068 0 0.7071068
vn 0.7933533 0 0.6087614
vn 0.8660254 0 0.5
vn 0.9238795 0 0.3826834
vn 0.9659258 0 0.258819
vn 0.9914449 0 0.1305262
vn 0.9978589 0 0.06540313
vn -0.9978589 0 -0.06540313
vn -0.9914449 0 -0.1305262
vn -0.9659258 0 -0.258819
vn -0.9238795 0 -0.3826834
vn -0.8660254 0 -0.5
vn -0.7933533 0 -0.6087614
vn -0.7071068 0 -0.7071068
vn -0.6087614 0 -0.7933533
vn -0.5 0 -0.8660254
vn -0.3826834 0 -0.9238795
vn -0.258819 0 -0.9659258
vn -0.1305262 0 -0.9914449
vn -0.06540313 0 -0.9978589

vt 39.37008 3.937008
vt -39.37008 3.937008
vt 39.37008 7.874016
vt -39.37008 7.874016
vt 30.51181 5.905512
vt 30.51181 7.874016
vt 26.82087 5.905512
vt -30.51181 5.905512
vt -26.82087 5.905512
vt -30.51181 7.874016
vt 30.51181 -39.37008
vt 30.58759 -38.21384
vt 39.37008 -39.37008
vt 30.81365 -37.07739
vt 31.18611 -35.98017
vt 31.69859 -34.94094
vt 32.34234 -33.97751
vt 33.10634 -33.10634
vt 33.97751 -32.34234
vt 34.94094 -31.69859
vt 35.98017 -31.18611
vt 37.07739 -30.81365
vt 38.21384 -30.58759
vt 39.37008 -30.51181
vt -39.37008 -39.37008
vt -39.37008 39.37008
vt -30.51181 -39.37008
vt -29.91396 -30.24866
vt -28.13064 -21.28332
vt -25.19237 -12.62744
vt -21.14941 -4.429134
vt -16.07095 3.17132
vt -10.04388 10.04388
vt -3.17132 16.07095
vt 4.429134 21.14941
vt 39.37008 39.37008
vt 12.62744 25.19237
vt 21.28332 28.13064
vt 30.24866 29.91396
vt 39.37008 30.51181
vt -39.37008 0
vt 39.37008 0
vt 26.82087 -39.37008
vt 26.92823 -37.73208
vt 27.24847 -36.1221
vt 27.77612 -34.5677
vt 28.50214 -33.09547
vt 29.41412 -31.7306
vt 30.49644 -30.49644
vt 31.7306 -29.41412
vt 33.09547 -28.50214
vt 34.5677 -27.77612
vt 36.1221 -27.24847
vt 37.73208 -26.92823
vt 39.37008 -26.82087
vt -26.82087 -39.37008
vt -26.25459 -30.73043
vt -24.56546 -22.2386
vt -21.78238 -14.0399
vt -17.95296 -6.274606
vt -13.14273 0.9244155
vt -7.433987 7.433987
vt -0.9244155 13.14273
vt 6.274606 17.95296
vt 14.0399 21.78238
vt 22.2386 24.56546
vt 30.73043 26.25459
vt 39.37008 26.82087
vt -36.1315 5.905512
vt -37.29022 5.905512
vt -36.1315 7.874016
vt -37.29022 7.874016
vt -30.35351 5.905512
vt -31.51223 5.905512
vt -30.35351 7.874016
vt -31.51223 7.874016
vt -24.04626 5.905512
vt -25.20498 5.905512
vt -24.04626 7.874016
vt -25.20498 7.874016
vt -17.31765 5.905512
vt -18.47637 5.905512
vt -17.31765 7.874016
vt -18.47637 7.874016
vt -10.28282 5.905512
vt -11.44154 5.905512
vt -10.28282 7.874016
vt -11.44154 7.874016
vt -3.062137 5.905512
vt -4.220854 5.905512
vt -3.062137 7.874016
vt -4.220854 7.874016
vt 4.220854 7.874016
vt 4.220854 5.905512
vt 3.062137 7.874016
vt 3.062137 5.905512
vt 11.44154 7.874016
vt 11.44154 5.905512
vt 10.28282 7.874016
vt 10.28282 5.905512
vt 18.47637 7.874016
vt 18.47637 5.905512
vt 17.31765 7.874016
vt 17.31765 5.905512
vt 25.20498 7.874016
vt 25.20498 5.905512
vt 24.04626 7.874016
vt 24.04626 5.905512
vt 31.51223 7.874016
vt 31.51223 5.905512
vt 30.35351 7.874016
vt 30.35351 5.905512
vt 37.29022 7.874016
vt 37.29022 5.905512
vt 36.1315 7.874016
vt 36.1315 5.905512
vt -41.28135 5.905512
vt -41.28135 7.874016
vt -32.14037 5.905512
vt -32.14037 7.874016
vt -35.50337 5.905512
vt -35.50337 7.874016
vt -26.36238 5.905512
vt -26.36238 7.874016
vt -29.19611 5.905512
vt -29.19611 7.874016
vt -20.05512 5.905512
vt -20.05512 7.874016
vt -22.4675 5.905512
vt -22.4675 7.874016
vt -13.32652 5.905512
vt -13.32652 7.874016
vt -15.43267 5.905512
vt -15.43267 7.874016
vt -6.291686 5.905512
vt -6.291686 7.874016
vt -8.21199 5.905512
vt -8.21199 7.874016
vt 0.9289985 5.905512
vt 0.9289985 7.874016
vt -0.9289985 5.905512
vt -0.9289985 7.874016
vt 8.21199 5.905512
vt 8.21199 7.874016
vt 6.291686 5.905512
vt 6.291686 7.874016
vt 15.43267 5.905512
vt 15.43267 7.874016
vt 13.32652 5.905512
vt 13.32652 7.874016
vt 22.4675 5.905512
vt 22.4675 7.874016
vt 20.05512 5.905512
vt 20.05512 7.874016
vt 29.19611 5.905512
vt 29.19611 7.874016
vt 26.36238 5.905512
vt 26.36238 7.874016
vt 35.50337 5.905512
vt 35.50337 7.874016
vt 41.28135 5.905512
vt 32.14037 5.905512
vt 41.28135 7.874016
vt 32.14037 7.874016

usemtl snow

f 3/3/1 2/2/1 1/1/1
f 2/2/1 3/3/1 4/4/1
f 3/4/2 6/1/2 5/3/2
f 6/1/2 3/4/2 1/2/2
f 8/1/3 7/5/3 6/2/3
f 7/5/3 8/1/3 9/3/3
f 7/5/3 9/3/3 10/6/3
f 11/7/3 6/2/3 7/5/3
f 12/8/3 6/2/3 11/7/3
f 6/2/3 12/8/3 5/4/3
f 12/8/3 11/7/3 13/9/3
f 5/4/3 12/8/3 14/10/3
f 8/2/4 15/8/4 9/4/4
f 15/8/4 8/2/4 2/1/4
f 15/8/4 2/1/4 16/9/4
f 16/9/4 2/1/4 17/7/4
f 17/7/4 2/1/4 18/5/4
f 18/5/4 2/1/4 19/6/4
f 19/6/4 2/1/4 4/3/4
f 20/10/4 9/4/4 15/8/4
f 9/13/5 21/12/5 10/11/5
f 21/12/5 9/13/5 22/14/5
f 22/14/5 9/13/5 23/15/5
f 23/15/5 9/13/5 24/16/5
f 24/16/5 9/13/5 25/17/5
f 25/17/5 9/13/5 26/18/5
f 26/18/5 9/13/5 27/19/5
f 27/19/5 9/13/5 28/20/5
f 28/20/5 9/13/5 29/21/5
f 29/21/5 9/13/5 30/22/5
f 30/22/5 9/13/5 31/23/5
f 31/23/5 9/13/5 20/24/5
f 14/27/5 3/26/5 5/25/5
f 3/26/5 14/27/5 32/28/5
f 3/26/5 32/28/5 33/29/5
f 3/26/5 33/29/5 34/30/5
f 3/26/5 34/30/5 35/31/5
f 3/26/5 35/31/5 36/32/5
f 3/26/5 36/32/5 37/33/5
f 3/26/5 37/33/5 38/34/5
f 3/26/5 38/34/5 39/35/5
f 3/26/5 39/35/5 4/36/5
f 4/36/5 39/35/5 40/37/5
f 4/36/5 40/37/5 41/38/5
f 4/36/5 41/38/5 42/39/5
f 4/36/5 42/39/5 19/40/5

usemtl dirt

f 44/42/4 8/2/4 43/41/4
f 8/2/4 44/42/4 2/1/4
f 8/1/3 45/41/3 43/42/3
f 45/41/3 8/1/3 6/2/3
f 44/26/6 45/13/6 46/36/6
f 45/13/6 44/26/6 43/25/6
f 1/2/2 45/42/2 6/1/2
f 45/42/2 1/2/2 46/41/2
f 1/1/1 44/41/1 46/42/1
f 44/41/1 1/1/1 2/2/1

usemtl snowRoadDark

f 7/11/5 47/44/5 11/43/5
f 47/44/5 7/11/5 48/45/5
f 48/45/5 7/11/5 49/46/5
f 49/46/5 7/11/5 50/47/5
f 50/47/5 7/11/5 51/48/5
f 51/48/5 7/11/5 52/49/5
f 52/49/5 7/11/5 53/12/5
f 52/49/5 53/12/5 54/50/5
f 54/50/5 53/12/5 55/14/5
f 54/50/5 55/14/5 56/15/5
f 54/50/5 56/15/5 57/16/5
f 54/50/5 57/16/5 58/17/5
f 54/50/5 58/17/5 59/51/5
f 59/51/5 58/17/5 60/18/5
f 59/51/5 60/18/5 61/52/5
f 61/52/5 60/18/5 62/19/5
f 61/52/5 62/19/5 63/20/5
f 61/52/5 63/20/5 64/53/5
f 64/53/5 63/20/5 65/21/5
f 64/53/5 65/21/5 66/22/5
f 64/53/5 66/22/5 67/54/5
f 67/54/5 66/22/5 68/23/5
f 67/54/5 68/23/5 16/55/5
f 16/55/5 68/23/5 15/24/5
f 13/56/5 69/28/5 12/27/5
f 69/28/5 13/56/5 70/29/5
f 70/29/5 13/56/5 71/30/5
f 71/30/5 13/56/5 72/57/5
f 71/30/5 72/57/5 73/58/5
f 71/30/5 73/58/5 74/31/5
f 74/31/5 73/58/5 75/59/5
f 74/31/5 75/59/5 76/60/5
f 74/31/5 76/60/5 77/32/5
f 77/32/5 76/60/5 78/61/5
f 77/32/5 78/61/5 79/33/5
f 79/33/5 78/61/5 80/62/5
f 79/33/5 80/62/5 81/34/5
f 81/34/5 80/62/5 82/63/5
f 81/34/5 82/63/5 83/35/5
f 83/35/5 82/63/5 84/64/5
f 83/35/5 84/64/5 85/37/5
f 85/37/5 84/64/5 86/65/5
f 85/37/5 86/65/5 87/38/5
f 87/38/5 86/65/5 88/66/5
f 87/38/5 88/66/5 89/39/5
f 89/39/5 88/66/5 90/67/5
f 89/39/5 90/67/5 18/40/5
f 18/40/5 90/67/5 17/68/5
f 31/71/7 15/70/8 68/69/7
f 15/70/8 31/71/7 20/72/8
f 30/75/9 68/74/7 66/73/9
f 68/74/7 30/75/9 31/76/7
f 29/79/10 66/78/9 65/77/10
f 66/78/9 29/79/10 30/80/9
f 28/83/11 65/82/10 63/81/11
f 65/82/10 28/83/11 29/84/10
f 27/87/12 63/86/11 62/85/12
f 63/86/11 27/87/12 28/88/11
f 26/91/13 62/90/12 60/89/13
f 62/90/12 26/91/13 27/92/12
f 26/95/13 58/94/14 25/93/14
f 58/94/14 26/95/13 60/96/13
f 25/99/14 57/98/15 24/97/15
f 57/98/15 25/99/14 58/100/14
f 24/103/15 56/102/16 23/101/16
f 56/102/16 24/103/15 57/104/15
f 23/107/16 55/106/17 22/105/17
f 55/106/17 23/107/16 56/108/16
f 22/111/17 53/110/18 21/109/18
f 53/110/18 22/111/17 55/112/17
f 21/115/18 7/114/19 10/113/19
f 7/114/19 21/115/18 53/116/18
f 69/119/21 14/118/20 12/117/20
f 14/118/20 69/119/21 32/120/21
f 70/123/22 32/122/21 69/121/21
f 32/122/21 70/123/22 33/124/22
f 71/127/23 33/126/22 70/125/22
f 33/126/22 71/127/23 34/128/23
f 74/131/24 34/130/23 71/129/23
f 34/130/23 74/131/24 35/132/24
f 77/135/25 35/134/24 74/133/24
f 35/134/24 77/135/25 36/136/25
f 79/139/26 36/138/25 77/137/25
f 36/138/25 79/139/26 37/140/26
f 81/143/27 37/142/26 79/141/26
f 37/142/26 81/143/27 38/144/27
f 83/147/28 38/146/27 81/145/27
f 38/146/27 83/147/28 39/148/28
f 85/151/29 39/150/28 83/149/28
f 39/150/28 85/151/29 40/152/29
f 87/155/30 40/154/29 85/153/29
f 40/154/29 87/155/30 41/156/30
f 89/159/31 41/158/30 87/157/30
f 41/158/30 89/159/31 42/160/31
f 19/163/32 89/162/31 18/161/32
f 89/162/31 19/163/32 42/164/31

usemtl snowRoad

f 11/43/5 72/57/5 13/56/5
f 72/57/5 11/43/5 73/58/5
f 73/58/5 11/43/5 75/59/5
f 75/59/5 11/43/5 76/60/5
f 76/60/5 11/43/5 78/61/5
f 78/61/5 11/43/5 80/62/5
f 80/62/5 11/43/5 82/63/5
f 82/63/5 11/43/5 84/64/5
f 84/64/5 11/43/5 86/65/5
f 86/65/5 11/43/5 88/66/5
f 88/66/5 11/43/5 90/67/5
f 90/67/5 11/43/5 47/44/5
f 90/67/5 47/44/5 48/45/5
f 90/67/5 48/45/5 49/46/5
f 90/67/5 49/46/5 50/47/5
f 90/67/5 50/47/5 51/48/5
f 90/67/5 51/48/5 52/49/5
f 90/67/5 52/49/5 54/50/5
f 90/67/5 54/50/5 17/68/5
f 17/68/5 54/50/5 59/51/5
f 17/68/5 59/51/5 61/52/5
f 17/68/5 61/52/5 64/53/5
f 17/68/5 64/53/5 67/54/5
f 17/68/5 67/54/5 16/55/5

