# Created by Kenney (www.kenney.nl)

mtllib snow_detail_rocksLarge.mtl

g snow_detail_rocksLarge

v -0.2238299 0.1892477 0.0286436
v -0.1347159 0.418608 -0.1136733
v -0.1347159 0.418608 0.04666899
v 0.1687014 0.2173011 0.04256343
v 0.1861816 0.1563051 0.04275153
v 0.1578514 0.274272 0.0609729
v 0.2048939 0.1563051 0.1062511
v 0.1981016 0.274272 0.1975603
v 0.271742 0 0.1815734
v 0.297336 0 0.2684259
v 0.282057 0.04958288 0.2646435
v 0.201534 0.1563051 0.03045292
v 0.1433373 0.418608 0.01604634
v 0.1291748 0.274272 0.0609729
v -0.01480241 0.274272 0.1763114
v -0.01480241 0.418608 0.1427303
v 0.5 0 -0.001281511
v 0.377104 0.1563051 -0.03170442
v 0.003980834 0.12764 -0.256629
v 0.02290951 0.1563051 -0.2499598
v -0.0173018 0.1892477 -0.2422954
v 0.1189008 0.1563051 -0.2499598
v 0.08293333 0.418608 -0.1889326
v -0.1439885 0.1892477 -0.2422954
v -0.1125381 0.418608 -0.1889326
v -0.221339 0.03316356 -0.08875226
v -0.2305351 0.09916577 -0.01147755
v -0.2891949 0 -0.1275798
v -0.3172752 0.09916577 -0.01147755
v -0.3857022 0 -0.1275798
v -0.3683989 0.09916577 0.162009
v -0.2885723 0.09916577 0.3135558
v -0.4446414 0.04958288 0.2465818
v -0.1779399 0.1892477 -0.1270824
v -0.2438162 0.09916577 0.0335912
v 0.06891192 0 0.4514138
v 0.06891192 0.274272 0.3627861
v 0.1742881 0.274272 0.2783704
v -0.01489174 0 -0.5
v 0.005202052 0 -0.4318124
v -0.06712607 0.1892477 -0.4113723
v -0.005898023 0.06489424 -0.3783071
v -0.2972394 0 -0.5
v -0.2885723 0.03140121 -0.4852943
v -0.1698174 0.1892477 -0.4113723
v -0.04652688 0.274272 0.1508973
v -0.07499525 0.274272 0.2475037
v -0.09670873 0.09916577 0.1514373
v -0.1289542 0.09916577 0.2608612
v 0.3490354 0.04958288 -0.3909313
v 0.3359265 0.1563051 -0.1714386
v 0.2426189 0.1563051 -0.3029389
v -0.3844897 0 -0.2039193
v -0.2999727 0.1892477 -0.2248415
v 0.0385216 0.1563051 -0.3029389
v -0.03560115 0 0.3676895
v -0.08806603 0.09916577 0.2936163
v -0.2007645 0 0.5
v -0.2007645 0.09916577 0.3838977
v -0.5 0 0.2602858
v 0.3731294 0 -0.4318124
v -0.2682394 0.1892477 -0.3325276

vn -0.9469528 0.2263889 -0.2280976
vn -0.949202 0.2512338 -0.1894655
vn -0.9321167 0.3621579 0
vn 0.9251147 0.2642782 -0.2726165
vn 0.615154 0.1786585 0.7678976
vn 0.5257656 0.5411308 0.656314
vn 0 0.226607 -0.9739863
vn 0.9410774 0.1935636 -0.2773205
vn 0 0.7603896 -0.6494672
vn -0.3723618 0.9071251 0.1961398
vn -0.9410774 0.1935636 -0.2773205
vn 0.6062313 0.2445377 0.7567595
vn 0.8914909 0.3690912 -0.2627081
vn 0 0.4241116 -0.90561
vn -0.9251147 0.2642782 -0.2726165
vn 0 0.3074831 -0.9515536
vn 0.4995794 0.7904192 -0.3544826
vn -0.5872189 0.3432879 0.7330263
vn -0.7861269 0.5730084 -0.231659
vn -0.6062313 0.2445377 0.7567595
vn 0.4615487 0.6745529 0.576152
vn -0.6807062 0.7045575 -0.2005932
vn 0.7861269 0.5730084 -0.231659
vn -0.4615487 0.6745529 0.576152
vn 0 0.6361533 -0.7715627
vn -0.615154 0.1786585 0.7678976
vn -0.8914909 0.3690912 -0.2627081
vn 0.8770772 0.4048874 0.2584606
vn -0.4797017 0.6413346 -0.5988123
vn 0 1 0

vt 1.127701 3.75351
vt -4.475325 13.44107
vt 1.837362 13.44107
vt -3.484796 6.692478
vt -3.68643 4.202536
vt -4.059276 9.018111
vt -6.2927 4.202536
vt -9.665359 9.018111
vt -9.881134 -2.17806
vt -13.4459 -2.17806
vt -13.13303 -0.1540164
vt 5.442853 5.001293
vt 4.668401 5.001293
vt 4.009285 15.49704
vt 4.135925 7.441977
vt 2.468267 9.721602
vt -4.794676 9.721602
vt -3.968087 15.49704
vt 15.39482 -6.638573
vt 3.88032 -6.638573
vt 12.3675 0.6791367
vt 3.680344 0.6791367
vt -0.1567257 2.604949
vt -0.9019492 3.763637
vt 0.6811734 5.095228
vt -4.681135 3.763637
vt -3.265092 14.36634
vt 5.668838 5.095228
vt 4.430635 14.36634
vt 8.116407 4.629781
vt -3.392829 4.629781
vt 6.212013 15.15574
vt -2.201125 15.15574
vt 8.714135 -1.808963
vt 9.076186 2.192028
vt 11.38563 -3.819306
vt 12.49115 2.192028
vt 15.18513 -3.819306
vt -1.116173 -12.69406
vt 5.627351 -12.69406
vt 0.4308523 -17.33236
vt -7.547775 5.735328
vt -5.882553 14.93933
vt -2.818982 5.735328
vt -2.793616 14.93933
vt -0.8884927 -0.5281722
vt 3.572623 5.735328
vt 2.132088 2.120431
vt 3.981886 2.120431
vt 2.52889 -3.806628
vt -8.993981 -3.806628
vt 2.15252 -1.793425
vt -6.812439 7.329578
vt -1.496727 7.329578
vt 19.04797 -1.846164
vt 16.24929 -1.846164
vt 16.28229 6.170567
vt 14.35222 0.9028251
vt 9.34271 6.170567
vt 9.647164 3.560803
vt 11.70234 -8.348653
vt 0.5862892 -8.348653
vt 11.36112 -6.983531
vt 2.642759 -0.1213853
vt 6.685723 -0.1213853
vt 6.21634 10.39364
vt 10.18145 10.39364
vt 6.795186 3.245556
vt 11.28637 3.245556
vt -5.085623 11.01309
vt -6.641787 8.65595
vt -6.214624 11.01309
vt 4.600128 -14.7023
vt -2.148757 -7.843184
vt 4.19931 -7.843184
vt -12.0263 -1.097956
vt -16.83345 -1.097956
vt -8.985592 0.2921737
vt -14.75153 6.834811
vt -8.595572 6.834811
vt -14.22094 -0.4461501
vt -11.86903 3.945107
vt -9.735766 2.568075
vt -9.694557 3.945107
vt 13.22883 -2.977036
vt 7.956662 -2.977036
vt 11.04729 8.15917
vt 4.521307 1.04937
vt 3.787881 8.15917
vt 2.458699 1.04937
vt -10.14446 -7.029865
vt -18.47614 -7.029865
vt -9.933237 -1.741293
vt -15.61832 -1.741293
vt 3.097383 -5.76124
vt 10.21795 -5.76124
vt -0.525665 -11.2628
vt 14.26027 -8.51202
vt 15.39386 -11.2628
vt 12.15477 -10.82786
vt -5.515902 -10.82786
vt 10.87905 -8.445964
vt 2.735904 -3.31917
vt -2.999335 -3.31917
vt 3.280723 -8.408241
vt 6.138543 -13.69681
vt -1.148754 -8.408241
vt -8.956419 -13.69681
vt -7.592761 -11.05253
vt -0.2048052 -10.81492
vt -14.69014 -10.81492
vt 0.2322056 -7.503596
vt -13.74155 -8.28488
vt -9.551927 -2.839228
vt -1.516598 -2.839228
vt 3.885022 9.591412
vt 2.284679 9.591412
vt 3.058434 15.36685
vt -2.99061 15.36685
vt -6.172465 6.189261
vt -6.664791 2.584738
vt 0.7560557 2.584738
vt -15.57439 -6.196818
vt -15.11549 -4.866629
vt -3.422083 -6.196818
vt -9.57261 1.819913
vt -5.152752 1.819913
vt -5.256176 5.95421
vt -6.855234 -3.720276
vt -8.572938 5.95421
vt -4.907898 -5.07065
vt 0.05700921 -5.07065
vt -3.078534 -13.17014
vt -5.643202 0.6317458
vt 0.5827719 5.619302
vt -3.265092 -7.43829
vt 4.430635 -7.43829
vt 5.303774 1.837362
vt 5.303774 -4.475325
vt -7.799274 7.777966
vt -6.861738 10.95947
vt -6.214624 2.400508
vt -2.713068 14.28292
vt -5.085623 2.400508
vt 0.5827719 6.941394
vt 2.952569 9.744241
vt 1.831767 5.940838
vt 0.6811734 -9.539189
vt 5.668838 -9.539189
vt 2.642759 -16.19576
vt 6.685723 -16.19576
vt 7.005508 -5.003244
vt 10.56061 -13.09164
vt 11.80995 -8.852028
vt 9.076186 -0.4518722
vt 9.599061 1.322488
vt 12.49115 -0.4518722
vt 11.36112 12.34472
vt 14.5039 6.378307
vt 7.904113 15.11408
vt 5.076938 10.27013
vt 3.80743 5.962098
vt 3.467167 11.5597
vt -14.84661 -1.248206
vt -8.066689 4.183114
vt -13.22545 -6.749552
vt -9.551927 -11.92673
vt -7.934408 1.198934
vt -4.681135 -9.840937
vt -1.516598 -11.92673
vt -0.9019492 -9.840937
vt -7.329984 1.683131

usemtl snowRoad

f 3/3/3 2/2/2 1/1/1
f 6/6/4 5/5/4 4/4/4
f 5/5/4 6/6/4 7/7/4
f 7/7/4 6/6/4 8/8/4
f 7/7/4 8/8/4 9/9/4
f 9/9/4 8/8/4 10/10/4
f 10/10/4 8/8/4 11/11/4
f 13/14/5 5/13/5 12/12/5
f 5/13/5 13/14/5 4/15/5
f 4/15/5 13/14/5 14/16/5
f 14/16/5 13/14/5 15/17/5
f 15/17/5 13/14/5 16/18/5
f 18/21/6 9/20/6 17/19/6
f 9/20/6 18/21/6 7/22/6
f 21/25/7 20/24/7 19/23/7
f 20/24/7 21/25/7 22/26/7
f 22/26/7 21/25/7 23/27/7
f 23/27/7 21/25/7 24/28/7
f 23/27/7 24/28/7 25/29/7
f 23/32/8 12/31/8 22/30/8
f 12/31/8 23/32/8 13/33/8
f 28/36/9 27/35/9 26/34/9
f 27/35/9 28/36/9 29/37/9
f 29/37/9 28/36/9 30/38/9
f 33/41/10 32/40/10 31/39/10
f 34/44/11 25/43/11 24/42/11
f 25/43/11 34/44/11 2/45/2
f 2/45/2 34/44/11 26/46/11
f 2/45/2 26/46/11 1/47/1
f 1/47/1 26/46/11 27/48/11
f 1/47/1 27/48/11 35/49/11
f 11/52/12 36/51/12 10/50/12
f 36/51/12 11/52/12 37/53/12
f 37/53/12 11/52/12 38/54/12
f 41/57/13 40/56/13 39/55/13
f 40/56/13 41/57/13 42/58/13
f 42/58/13 41/57/13 21/59/13
f 42/58/13 21/59/13 19/60/13
f 44/63/14 39/62/14 43/61/14
f 39/62/14 44/63/14 41/64/14
f 41/64/14 44/63/14 45/65/14
f 48/68/15 47/67/15 46/66/15
f 47/67/15 48/68/15 49/69/15
f 6/72/16 4/71/16 14/70/16
f 52/75/17 51/74/17 50/73/17
f 26/78/18 53/77/18 28/76/18
f 53/77/18 26/78/18 54/79/18
f 54/79/18 26/78/18 34/80/18
f 19/83/19 55/82/19 42/81/19
f 55/82/19 19/83/19 20/84/19
f 37/87/20 56/86/20 36/85/20
f 56/86/20 37/87/20 57/88/20
f 47/89/20 57/88/20 37/87/20
f 57/88/20 47/89/20 49/90/20
f 57/93/21 58/92/21 56/91/21
f 58/92/21 57/93/21 59/94/21
f 30/97/22 31/96/22 29/95/22
f 31/96/22 30/97/22 33/98/22
f 33/98/22 30/97/22 60/99/22
f 50/102/23 17/101/23 61/100/23
f 17/101/23 50/102/23 51/103/23
f 17/101/23 51/103/23 18/104/23
f 32/107/24 58/106/24 59/105/24
f 58/106/24 32/107/24 60/108/24
f 60/108/24 32/107/24 33/109/24
f 42/112/25 61/111/25 40/110/25
f 61/111/25 42/112/25 50/113/25
f 50/113/25 42/112/25 52/114/25
f 52/114/25 42/112/25 55/115/25
f 16/118/26 46/117/26 15/116/26
f 3/119/26 46/117/26 16/118/26
f 1/120/26 46/117/26 3/119/26
f 35/121/26 46/117/26 1/120/26
f 46/117/26 35/121/26 48/122/26
f 53/125/27 44/124/27 43/123/27
f 44/124/27 53/125/27 62/126/27
f 62/126/27 53/125/27 54/127/27
f 38/130/28 11/129/28 8/128/28
f 44/133/29 62/132/29 45/131/29

usemtl snow

f 23/136/30 16/135/30 13/134/30
f 16/135/30 23/136/30 25/137/30
f 16/135/30 25/137/30 3/138/30
f 3/138/30 25/137/30 2/139/30
f 6/142/30 38/141/30 8/140/30
f 38/141/30 6/142/30 37/143/30
f 37/143/30 6/142/30 14/144/30
f 37/143/30 14/144/30 15/145/30
f 37/143/30 15/145/30 47/146/30
f 47/146/30 15/145/30 46/147/30
f 41/150/30 24/149/30 21/148/30
f 24/149/30 41/150/30 45/151/30
f 24/149/30 45/151/30 34/152/30
f 34/152/30 45/151/30 62/153/30
f 34/152/30 62/153/30 54/154/30
f 29/157/30 35/156/30 27/155/30
f 35/156/30 29/157/30 32/158/30
f 32/158/30 29/157/30 31/159/30
f 59/160/30 35/156/30 32/158/30
f 49/161/30 35/156/30 59/160/30
f 35/156/30 49/161/30 48/162/30
f 59/160/30 57/163/30 49/161/30
f 51/166/30 7/165/30 18/164/30
f 7/165/30 51/166/30 52/167/30
f 7/165/30 52/167/30 12/168/30
f 12/168/30 52/167/30 22/169/30
f 22/169/30 52/167/30 55/170/30
f 22/169/30 55/170/30 20/171/30
f 5/172/30 7/165/30 12/168/30

