# Created by Kenney (www.kenney.nl)

mtllib snow_woodStructure.mtl

g snow_woodStructure

v 0.47625 0.405 -0.405
v 0.47625 0.405 0.405
v 0.42875 0.405 -0.405
v 0.42875 0.405 0.405
v 0.405 0.405 -0.47625
v 0.405 0.405 -0.42875
v -0.405 0.405 -0.47625
v -0.405 0.405 -0.42875
v 0.405 0.405 0.42875
v 0.405 0.405 0.47625
v -0.405 0.405 0.42875
v -0.405 0.405 0.47625
v -0.42875 0.405 -0.405
v -0.42875 0.405 0.405
v -0.47625 0.405 -0.405
v -0.47625 0.405 0.405
v -0.405 0.5 -0.5
v -0.405 0.5 -0.405
v -0.5 0.5 -0.5
v -0.5 0.5 -0.405
v -0.405 0.5 0.405
v -0.405 0.5 0.5
v -0.5 0.5 0.405
v -0.5 0.5 0.5
v 0.5 0.5 -0.5
v 0.5 0.5 -0.405
v 0.405 0.5 -0.5
v 0.405 0.5 -0.405
v 0.47625 0.31 -0.405
v 0.42875 0.31 -0.405
v 0.47625 0.31 0.405
v 0.42875 0.31 0.405
v 0.405 0.31 -0.42875
v 0.405 0.31 -0.47625
v -0.405 0.31 -0.42875
v -0.405 0.31 -0.47625
v 0.405 0.31 0.42875
v -0.405 0.31 0.42875
v 0.405 0.31 0.47625
v -0.405 0.31 0.47625
v -0.47625 0.31 -0.405
v -0.47625 0.31 0.405
v -0.42875 0.31 -0.405
v -0.42875 0.31 0.405
v -0.405 0 -0.5
v -0.405 0 -0.405
v -0.5 0 -0.5
v -0.5 0 -0.405
v -0.405 0 0.405
v -0.405 0 0.5
v -0.5 0 0.405
v -0.5 0 0.5
v 0.5 0 0.5
v 0.405 0 0.5
v 0.5 0.5 0.5
v 0.405 0.5 0.5
v 0.405 0.5 0.405
v 0.405 0 0.405
v 0.5 0.5 0.405
v 0.5 0 0.405
v 0.405 0 -0.405
v 0.5 0 -0.405
v 0.405 0 -0.5
v 0.5 0 -0.5

vn 0 1 0
vn 0 -1 0
vn -1 0 0
vn 1 0 0
vn 0 0 -1
vn 0 0 1

vt -18.75 -15.94488
vt -18.75 15.94488
vt -16.87992 -15.94488
vt -16.87992 15.94488
vt -15.94488 -18.75
vt -15.94488 -16.87992
vt 15.94488 -18.75
vt 15.94488 -16.87992
vt -15.94488 16.87992
vt -15.94488 18.75
vt 15.94488 16.87992
vt 15.94488 18.75
vt 16.87992 -15.94488
vt 16.87992 15.94488
vt 18.75 -15.94488
vt 18.75 15.94488
vt 15.94488 -19.68504
vt 15.94488 -15.94488
vt 19.68504 -19.68504
vt 19.68504 -15.94488
vt 15.94488 15.94488
vt 15.94488 19.68504
vt 19.68504 15.94488
vt 19.68504 19.68504
vt -19.68504 -19.68504
vt -19.68504 -15.94488
vt -15.94488 -19.68504
vt -15.94488 -15.94488
vt -15.94488 12.20472
vt -15.94488 15.94488
vt 15.94488 12.20472
vt 19.68504 0
vt 16.87992 12.20472
vt 18.75 12.20472
vt 15.94488 0
vt -19.68504 2.842171E-14
vt -19.68504 19.68504
vt -15.94488 2.842171E-14
vt -15.94488 19.68504
vt -19.68504 0
vt -16.87992 12.20472
vt -15.94488 0
vt -18.75 12.20472
vt 15.94488 6.735945E-12
vt 19.68504 6.735945E-12
vt 19.68504 6.082246E-12
vt 15.94488 6.082246E-12
vt -19.68504 15.94488
vt -15.94488 -5.002221E-12
vt -19.68504 -5.002221E-12
vt -15.94488 -6.735945E-12
vt -19.68504 -6.735945E-12

usemtl snow

f 3/3/1 2/2/1 1/1/1
f 2/2/1 3/3/1 4/4/1
f 7/7/1 6/6/1 5/5/1
f 6/6/1 7/7/1 8/8/1
f 11/11/1 10/10/1 9/9/1
f 10/10/1 11/11/1 12/12/1
f 15/15/1 14/14/1 13/13/1
f 14/14/1 15/15/1 16/16/1
f 19/19/1 18/18/1 17/17/1
f 18/18/1 19/19/1 20/20/1
f 23/23/1 22/22/1 21/21/1
f 22/22/1 23/23/1 24/24/1
f 27/27/1 26/26/1 25/25/1
f 26/26/1 27/27/1 28/28/1

usemtl wood

f 31/16/2 30/13/2 29/15/2
f 30/13/2 31/16/2 32/14/2
f 32/31/3 3/30/3 30/29/3
f 3/30/3 32/31/3 4/21/3
f 1/21/4 31/29/4 29/31/4
f 31/29/4 1/21/4 2/30/4
f 35/6/2 34/7/2 33/8/2
f 34/7/2 35/6/2 36/5/2
f 36/31/5 5/30/5 34/29/5
f 5/30/5 36/31/5 7/21/5
f 6/21/6 35/29/6 33/31/6
f 35/29/6 6/21/6 8/30/6
f 38/31/5 9/30/5 37/29/5
f 9/30/5 38/31/5 11/21/5
f 10/21/6 40/29/6 39/31/6
f 40/29/6 10/21/6 12/30/6
f 40/10/2 37/11/2 39/12/2
f 37/11/2 40/10/2 38/9/2
f 42/31/3 15/30/3 41/29/3
f 15/30/3 42/31/3 16/21/3
f 13/21/4 44/29/4 43/31/4
f 44/29/4 13/21/4 14/30/4
f 44/4/2 41/1/2 43/3/2
f 41/1/2 44/4/2 42/2/2
f 17/24/4 7/16/4 45/32/4
f 7/16/4 17/24/4 18/22/4
f 7/16/4 18/22/4 8/14/4
f 8/14/4 18/22/4 35/33/4
f 36/34/4 45/32/4 7/16/4
f 45/32/4 36/34/4 46/35/4
f 46/35/4 36/34/4 35/33/4
f 46/35/4 35/33/4 18/22/4
f 19/24/5 45/35/5 47/32/5
f 45/35/5 19/24/5 17/22/5
f 48/38/3 19/37/3 47/36/3
f 19/37/3 48/38/3 20/39/3
f 46/42/6 43/41/6 48/40/6
f 43/41/6 46/42/6 18/39/6
f 43/41/6 18/39/6 13/4/6
f 13/4/6 18/39/6 15/2/6
f 41/43/6 48/40/6 43/41/6
f 48/40/6 41/43/6 20/37/6
f 20/37/6 41/43/6 15/2/6
f 20/37/6 15/2/6 18/39/6
f 21/39/4 11/4/4 49/42/4
f 11/4/4 21/39/4 22/37/4
f 11/4/4 22/37/4 12/2/4
f 12/2/4 22/37/4 40/43/4
f 38/41/4 49/42/4 11/4/4
f 49/42/4 38/41/4 50/40/4
f 50/40/4 38/41/4 40/43/4
f 50/40/4 40/43/4 22/37/4
f 52/45/3 23/22/3 51/44/3
f 23/22/3 52/45/3 24/24/3
f 22/39/6 52/40/6 50/42/6
f 52/40/6 22/39/6 24/37/6
f 51/32/5 42/34/5 49/35/5
f 42/34/5 51/32/5 23/24/5
f 42/34/5 23/24/5 16/16/5
f 16/16/5 23/24/5 14/14/5
f 44/33/5 49/35/5 42/34/5
f 49/35/5 44/33/5 21/22/5
f 21/22/5 44/33/5 14/14/5
f 21/22/5 14/14/5 23/24/5
f 55/24/6 54/47/6 53/46/6
f 54/47/6 55/24/6 56/22/6
f 58/35/3 37/33/3 57/22/3
f 37/33/3 58/35/3 54/32/3
f 37/33/3 54/32/3 39/34/3
f 39/34/3 54/32/3 10/16/3
f 9/14/3 57/22/3 37/33/3
f 57/22/3 9/14/3 56/24/3
f 56/24/3 9/14/3 10/16/3
f 56/24/3 10/16/3 54/32/3
f 57/30/1 55/37/1 59/48/1
f 55/37/1 57/30/1 56/39/1
f 58/42/5 32/41/5 60/40/5
f 32/41/5 58/42/5 57/39/5
f 32/41/5 57/39/5 4/4/5
f 4/4/5 57/39/5 2/2/5
f 31/43/5 60/40/5 32/41/5
f 60/40/5 31/43/5 59/37/5
f 59/37/5 31/43/5 2/2/5
f 59/37/5 2/2/5 57/39/5
f 55/37/4 60/49/4 59/39/4
f 60/49/4 55/37/4 53/50/4
f 62/32/6 29/34/6 61/35/6
f 29/34/6 62/32/6 26/24/6
f 29/34/6 26/24/6 1/16/6
f 1/16/6 26/24/6 3/14/6
f 30/33/6 61/35/6 29/34/6
f 61/35/6 30/33/6 28/22/6
f 28/22/6 30/33/6 3/14/6
f 28/22/6 3/14/6 26/24/6
f 27/39/5 64/52/5 63/51/5
f 64/52/5 27/39/5 25/37/5
f 25/24/4 62/35/4 64/32/4
f 62/35/4 25/24/4 26/22/4
f 63/40/3 34/43/3 27/37/3
f 34/43/3 63/40/3 61/42/3
f 34/43/3 61/42/3 33/41/3
f 33/41/3 61/42/3 6/4/3
f 5/2/3 27/37/3 34/43/3
f 27/37/3 5/2/3 28/39/3
f 28/39/3 5/2/3 6/4/3
f 28/39/3 6/4/3 61/42/3

usemtl _defaultMat

f 48/1/2 45/4/2 46/2/2
f 45/1/2 48/4/2 47/2/2
f 52/40/2 49/43/2 50/37/2
f 49/40/2 52/43/2 51/37/2
f 54/37/2 60/30/2 53/39/2
f 60/37/2 54/30/2 58/39/2
f 61/22/2 64/14/2 62/24/2
f 64/22/2 61/14/2 63/24/2

