# Created by Kenney (www.kenney.nl)

mtllib snow_tile_tree.mtl

g snow_tile_tree

v 0.5 0 0.5
v 0.5 0 -0.5
v -0.5 0 0.5
v -0.5 0 -0.5
v 0.5 0.1 -0.5
v 0.5 0.1 0.5
v -0.5 0.1 0.5
v -0.5 0.1 -0.5
v 0.5 0.2 -0.5
v 0.5 0.2 0.5
v -0.5 0.2 -0.5
v -0.5 0.2 0.5

vn 0 -1 0
vn 1 0 0
vn 0 0 1
vn -1 0 0
vn 0 0 -1
vn 0 1 0

vt 19.68504 19.68504
vt 19.68504 -19.68504
vt -19.68504 19.68504
vt -19.68504 -19.68504
vt 19.68504 3.937008
vt 19.68504 0
vt -19.68504 3.937008
vt -19.68504 0
vt 19.68504 7.874016
vt -19.68504 7.874016

usemtl dirt

f 3/3/1 2/2/1 1/1/1
f 2/2/1 3/3/1 4/4/1
f 6/7/2 2/6/2 5/5/2
f 2/6/2 6/7/2 1/8/2
f 6/5/3 3/8/3 1/6/3
f 3/8/3 6/5/3 7/7/3
f 3/6/4 8/7/4 4/8/4
f 8/7/4 3/6/4 7/5/4
f 8/5/5 2/8/5 4/6/5
f 2/8/5 8/5/5 5/7/5

usemtl snow

f 11/2/6 10/3/6 9/4/6
f 10/3/6 11/2/6 12/1/6
f 10/10/2 5/5/2 9/9/2
f 5/5/2 10/10/2 6/7/2
f 11/9/5 5/7/5 8/5/5
f 5/7/5 11/9/5 9/10/5
f 7/5/4 11/10/4 8/7/4
f 11/10/4 7/5/4 12/9/4
f 10/9/3 7/7/3 6/5/3
f 7/7/3 10/9/3 12/10/3

g tree

v -1.443823E-15 0.6 0.2
v -0.1414214 0.6 0.1414214
v -1.443823E-15 0.96 0.032
v -0.02262742 0.96 0.02262742
v -0.2 0.6 0
v -0.032 0.96 0
v 0.032 0.96 0
v 0.02262742 0.96 0.02262742
v 0.02262742 0.96 -0.02262742
v -1.443823E-15 0.96 -0.032
v -0.02262742 0.96 -0.02262742
v -0.1767767 0.4 -0.1767767
v -0.1191942 0.55 -0.1191942
v -0.25 0.4 0
v -0.168566 0.55 0
v 0.168566 0.55 -7.219114E-16
v 0.25 0.4 0
v 0.1191942 0.55 0.1191942
v 0.1767767 0.4 0.1767767
v 0.2 0.6 0
v 0.1414214 0.6 0.1414214
v 0 0.4 0.25
v -0.1767767 0.4 0.1767767
v 0 0.55 0.168566
v -0.1191942 0.55 0.1191942
v -0.1414214 0.6 -0.1414214
v -1.443823E-15 0.6 -0.2
v 0.1767767 0.4 -0.1767767
v 0.1191942 0.55 -0.1191942
v 0 0.4 -0.25
v 0 0.55 -0.168566
v 0.1414214 0.6 -0.1414214
v 0.2 0.55 0
v 0.1414214 0.55 0.1414214
v -0.2 0.55 0
v -0.1414214 0.55 0.1414214
v -0.1414214 0.55 -0.1414214
v -1.443823E-15 0.55 -0.2
v 0.25 0.35 0
v 0.1767767 0.35 -0.1767767
v 0.1767767 0.35 0.1767767
v 0 0.35 0.25
v 0.053125 0.35 0.053125
v 0.053125 0.35 -0.053125
v -0.053125 0.35 0.053125
v -0.1767767 0.35 0.1767767
v 0 0.35 -0.25
v -0.053125 0.35 -0.053125
v -0.1767767 0.35 -0.1767767
v -0.25 0.35 0
v -1.443823E-15 0.55 0.2
v 0.1414214 0.55 -0.1414214
v -0.0625 0.2 -0.0625
v 0.0625 0.2 -0.0625
v 0.0625 0.2 0.0625
v -0.0625 0.2 0.0625

vn -0.1757067 0.197957 0.4241935
vn -0.4241935 0.197957 0.1757067
vn 0 0.5 0
vn -0.4129122 0.2241672 -0.1710338
vn 0.4129122 0.2241672 0.1710338
vn 0.4241935 0.197957 0.1757067
vn -0.1710338 0.2241672 0.4129122
vn 0.1757067 0.197957 0.4241935
vn -0.4129122 0.2241672 0.1710338
vn -0.1757067 0.197957 -0.4241935
vn 0.4129122 0.2241672 -0.1710338
vn -0.1710338 0.2241672 -0.4129122
vn 0.1757067 0.197957 -0.4241935
vn 0.1710338 0.2241672 0.4129122
vn 0.4241935 0.197957 -0.1757067
vn 0.1710338 0.2241672 -0.4129122
vn -0.4241935 0.197957 -0.1757067
vn 0.4619398 0 0.1913417
vn -0.4619398 0 0.1913417
vn -0.1913417 0 -0.4619398
vn 0 -0.5 0
vn 0.4619398 0 -0.1913417
vn 0.1913417 0 -0.4619398
vn -0.4619398 0 -0.1913417
vn -0.1913417 0 0.4619398
vn 0.1913417 0 0.4619398
vn 0 0.03118914 -0.4990263
vn 0.4990263 0.03118914 0
vn -0.4990263 0.03118914 0
vn 0 0.03118914 0.4990263

vt 6.026511 23.16218
vt -6.026511 23.16218
vt 0.9642417 54.031
vt -0.9642417 54.031
vt -2.519685 0
vt -1.781686 1.781686
vt -1.781686 -1.781686
vt 1.136868E-13 -2.519685
vt 1.136868E-13 2.519685
vt 1.781686 -1.781686
vt 1.781686 1.781686
vt 2.519685 0
vt -7.533138 5.922946
vt -5.079325 19.13636
vt 7.533138 5.922946
vt 5.079325 19.13636
vt 6.026511 31.49606
vt 6.026511 27.55906
vt -6.026511 31.49606
vt -6.026511 27.55906
vt 13.91943 -13.91943
vt 13.91943 13.91943
vt 0 19.68504
vt 4.183071 4.183071
vt 4.183071 -4.183071
vt -4.183071 4.183071
vt -13.91943 13.91943
vt 0 -19.68504
vt -4.183071 -4.183071
vt -13.91943 -13.91943
vt 7.533138 15.74803
vt 7.533138 11.81102
vt -7.533138 15.74803
vt -7.533138 11.81102
vt 15.74803 0
vt 13.27291 -5.684342E-14
vt 11.13554 11.13554
vt 9.385368 9.385368
vt -1.136868E-13 15.74803
vt 0 13.27291
vt -9.385368 9.385368
vt -11.13554 11.13554
vt -13.27291 0
vt -15.74803 0
vt 11.13554 -11.13554
vt 9.385368 -9.385368
vt -1.136868E-13 -15.74803
vt 0 -13.27291
vt -9.385368 -9.385368
vt -11.13554 -11.13554
vt 4.92126 -0.3069797
vt -4.92126 -0.3069797
vt 4.183071 11.52709
vt -4.183071 11.52709
vt 4.92126 -4.92126
vt -4.92126 -4.92126
vt 4.92126 4.92126
vt -4.92126 4.92126

usemtl snow

f 15/13/7 14/12/7 13/11/7
f 14/12/7 15/13/7 16/14/7
f 14/11/8 18/14/8 17/12/8
f 18/14/8 14/11/8 16/13/8
f 21/17/9 20/16/9 19/15/9
f 20/16/9 21/17/9 22/18/9
f 20/16/9 22/18/9 15/19/9
f 15/19/9 22/18/9 23/20/9
f 15/19/9 23/20/9 16/21/9
f 16/21/9 23/20/9 18/22/9
f 26/25/10 25/24/10 24/23/10
f 25/24/10 26/25/10 27/26/10
f 30/24/11 29/25/11 28/26/11
f 29/25/11 30/24/11 31/23/11
f 20/14/12 32/11/12 19/13/12
f 32/11/12 20/14/12 33/12/12
f 36/26/13 35/23/13 34/25/13
f 35/23/13 36/26/13 37/24/13
f 20/13/14 13/12/14 33/11/14
f 13/12/14 20/13/14 15/14/14
f 35/25/15 27/24/15 26/23/15
f 27/24/15 35/25/15 37/26/15
f 23/13/16 39/12/16 38/11/16
f 39/12/16 23/13/16 22/14/16
f 41/26/17 29/23/17 40/25/17
f 29/23/17 41/26/17 28/24/17
f 25/26/18 42/23/18 24/25/18
f 42/23/18 25/26/18 43/24/18
f 22/13/19 44/12/19 39/11/19
f 44/12/19 22/13/19 21/14/19
f 30/26/20 34/23/20 31/25/20
f 34/23/20 30/26/20 36/24/20
f 21/13/21 32/12/21 44/11/21
f 32/12/21 21/13/21 19/14/21
f 43/26/22 40/23/22 42/25/22
f 40/23/22 43/26/22 41/24/22
f 17/11/23 23/14/23 38/12/23
f 23/14/23 17/11/23 18/13/23

usemtl foliage

f 33/29/24 45/28/24 32/27/24
f 45/28/24 33/29/24 46/30/24
f 48/28/25 17/29/25 47/30/25
f 17/29/25 48/28/25 14/27/25
f 38/27/26 50/30/26 49/28/26
f 50/30/26 38/27/26 39/29/26
f 53/32/27 52/31/27 51/6/27
f 52/31/27 53/32/27 54/33/27
f 52/31/27 54/33/27 55/34/27
f 52/31/27 55/34/27 56/35/27
f 55/34/27 54/33/27 57/36/27
f 57/36/27 54/33/27 58/37/27
f 56/35/27 59/38/27 52/31/27
f 59/38/27 56/35/27 60/39/27
f 59/38/27 60/39/27 61/40/27
f 61/40/27 60/39/27 57/36/27
f 61/40/27 57/36/27 58/37/27
f 61/40/27 58/37/27 62/8/27
f 29/43/28 52/42/28 40/41/28
f 52/42/28 29/43/28 51/44/28
f 42/41/29 52/44/29 59/42/29
f 52/44/29 42/41/29 40/43/29
f 31/43/24 51/42/24 29/41/24
f 51/42/24 31/43/24 53/44/24
f 47/28/30 38/29/30 49/30/30
f 38/29/30 47/28/30 17/27/30
f 34/41/31 58/44/31 54/42/31
f 58/44/31 34/41/31 35/43/31
f 46/47/27 28/46/27 45/45/27
f 28/46/27 46/47/27 30/48/27
f 30/48/27 46/47/27 63/49/27
f 30/48/27 63/49/27 36/50/27
f 36/50/27 63/49/27 37/51/27
f 37/51/27 63/49/27 48/52/27
f 37/51/27 48/52/27 27/53/27
f 27/53/27 48/52/27 47/54/27
f 28/46/27 64/55/27 45/45/27
f 64/55/27 28/46/27 41/56/27
f 64/55/27 41/56/27 50/57/27
f 50/57/27 41/56/27 43/58/27
f 50/57/27 43/58/27 25/59/27
f 50/57/27 25/59/27 49/60/27
f 49/60/27 25/59/27 27/53/27
f 49/60/27 27/53/27 47/54/27
f 39/27/29 64/30/29 50/28/29
f 64/30/29 39/27/29 44/29/29
f 32/29/28 64/28/28 44/27/28
f 64/28/28 32/29/28 45/30/28
f 33/27/32 63/30/32 46/28/32
f 63/30/32 33/27/32 13/29/32
f 13/27/31 48/30/31 63/28/31
f 48/30/31 13/27/31 14/29/31
f 58/42/25 26/43/25 62/44/25
f 26/43/25 58/42/25 35/41/25
f 24/41/26 59/44/26 61/42/26
f 59/44/26 24/41/26 42/43/26
f 62/42/30 24/43/30 61/44/30
f 24/43/30 62/42/30 26/41/30
f 31/41/32 54/44/32 53/42/32
f 54/44/32 31/41/32 34/43/32

usemtl wood

f 60/63/33 66/62/33 65/61/33
f 66/62/33 60/63/33 56/64/33
f 56/63/34 67/62/34 66/61/34
f 67/62/34 56/63/34 55/64/34
f 68/61/35 60/64/35 65/62/35
f 60/64/35 68/61/35 57/63/35
f 55/63/36 68/62/36 67/61/36
f 68/62/36 55/63/36 57/64/36
f 67/67/27 65/66/27 66/65/27
f 65/66/27 67/67/27 68/68/27

