# Created by Kenney (www.kenney.nl)

mtllib snow_detail_tree.mtl

g snow_detail_tree

v 0.0224 0.532 0
v 0.01583919 0.532 0.01583919
v 0.01583919 0.532 -0.01583919
v -1.443823E-15 0.532 -0.0224
v -1.443823E-15 0.532 0.0224
v -0.01583919 0.532 -0.01583919
v -0.01583919 0.532 0.01583919
v -0.0224 0.532 0
v -0.14 0.28 0
v -0.09899495 0.28 0.09899495
v 0.1179962 0.245 -1.443823E-15
v 0.175 0.14 0
v 0.08343592 0.245 0.08343592
v 0.1237437 0.14 0.1237437
v -0.1237437 0.14 -0.1237437
v -0.08343592 0.245 -0.08343592
v -0.175 0.14 0
v -0.1179962 0.245 0
v -1.443823E-15 0.28 0.14
v 0.14 0.28 0
v 0.09899495 0.28 0.09899495
v -1.443823E-15 0.14 -0.175
v 0.1237437 0.14 -0.1237437
v -1.443823E-15 0.245 -0.1179962
v 0.08343592 0.245 -0.08343592
v -0.09899495 0.28 -0.09899495
v -0.1237437 0.14 0.1237437
v -0.08343592 0.245 0.08343592
v 0.09899495 0.28 -0.09899495
v -1.443823E-15 0.14 0.175
v -1.443823E-15 0.245 0.1179962
v -1.443823E-15 0.28 -0.14
v 0.14 0.245 0
v 0.09899495 0.245 0.09899495
v 0.175 0.105 0
v 0.1237437 0.105 0.1237437
v -0.1237437 0.105 -0.1237437
v -1.443823E-15 0.105 -0.175
v 0.1237437 0.105 -0.1237437
v -0.175 0.105 0
v -1.443823E-15 0.105 0.175
v -0.1237437 0.105 0.1237437
v 0.0371875 0.105 0.0371875
v 0.0371875 0.105 -0.0371875
v -0.0371875 0.105 0.0371875
v -0.0371875 0.105 -0.0371875
v -1.443823E-15 0.245 -0.14
v 0.09899495 0.245 -0.09899495
v -0.14 0.245 0
v -0.09899495 0.245 0.09899495
v -0.09899495 0.245 -0.09899495
v -1.443823E-15 0.245 0.14
v 0.04375 0 -0.04375
v 0.04375 0 0.04375
v -0.04375 0 -0.04375
v -0.04375 0 0.04375

vn 0 1 0
vn -0.8483871 0.3959139 0.3514134
vn 0.8258243 0.4483344 0.3420676
vn -0.8258243 0.4483344 -0.3420676
vn -0.3514134 0.3959139 0.8483871
vn 0.8483871 0.3959139 0.3514134
vn 0.3420676 0.4483344 -0.8258243
vn -0.8483871 0.3959139 -0.3514134
vn -0.8258243 0.4483344 0.3420676
vn 0.8258243 0.4483344 -0.3420676
vn 0.8483871 0.3959139 -0.3514134
vn -0.3420676 0.4483344 -0.8258243
vn -0.3420676 0.4483344 0.8258243
vn -0.3514134 0.3959139 -0.8483871
vn 0.3514134 0.3959139 0.8483871
vn 0.3514134 0.3959139 -0.8483871
vn 0.3420676 0.4483344 0.8258243
vn 0.9238795 0 0.3826834
vn -0.3826834 0 -0.9238795
vn 0.3826834 0 -0.9238795
vn -0.9238795 0 -0.3826834
vn 0.3826834 0 0.9238795
vn -0.3826834 0 0.9238795
vn 0 -1 0
vn -0.9238795 0 0.3826834
vn 0.9238795 0 -0.3826834
vn 0.9980526 0.06237829 0
vn 0 0.06237829 -0.9980526
vn -0.9980526 0.06237829 0
vn 0 0.06237829 0.9980526

vt -0.8818898 0
vt -0.6235902 0.6235902
vt -0.6235902 -0.6235902
vt 5.684342E-14 -0.8818898
vt 5.684342E-14 0.8818898
vt 0.6235902 -0.6235902
vt 0.6235902 0.6235902
vt 0.8818898 0
vt -2.109279 8.106763
vt -0.3374846 18.91085
vt 2.109279 8.106763
vt 0.3374846 18.91085
vt 1.777764 6.697728
vt 2.636598 2.073031
vt -1.777764 6.697728
vt -2.636598 2.073031
vt 2.109279 11.02362
vt 2.109279 9.645669
vt -2.109279 11.02362
vt -2.109279 9.645669
vt 2.636598 5.511811
vt 2.636598 4.133858
vt -2.636598 5.511811
vt -2.636598 4.133858
vt 6.889764 0
vt 4.871799 -4.871799
vt 4.871799 4.871799
vt -5.684342E-14 6.889764
vt 1.464075 1.464075
vt 1.464075 -1.464075
vt -1.464075 1.464075
vt -4.871799 4.871799
vt -5.684342E-14 -6.889764
vt -1.464075 -1.464075
vt -4.871799 -4.871799
vt -6.889764 0
vt 5.511811 0
vt 4.64552 -5.684342E-14
vt 3.897439 3.897439
vt 3.284879 3.284879
vt -5.684342E-14 5.511811
vt -5.684342E-14 4.64552
vt -3.897439 3.897439
vt -3.284879 3.284879
vt -4.64552 0
vt -5.511811 0
vt 3.897439 -3.897439
vt 3.284879 -3.284879
vt -5.684342E-14 -5.511811
vt -5.684342E-14 -4.64552
vt -3.284879 -3.284879
vt -3.897439 -3.897439
vt 1.722441 -0.1074429
vt -1.722441 -0.1074429
vt 1.464075 4.034482
vt -1.464075 4.034482

usemtl snow

f 3/3/1 2/2/1 1/1/1
f 2/2/1 3/3/1 4/4/1
f 2/2/1 4/4/1 5/5/1
f 5/5/1 4/4/1 6/6/1
f 5/5/1 6/6/1 7/7/1
f 7/7/1 6/6/1 8/8/1
f 10/11/2 8/10/2 9/9/2
f 8/10/2 10/11/2 7/12/2
f 13/15/3 12/14/3 11/13/3
f 12/14/3 13/15/3 14/16/3
f 17/14/4 16/15/4 15/16/4
f 16/15/4 17/14/4 18/13/4
f 5/12/5 10/9/5 19/11/5
f 10/9/5 5/12/5 7/10/5
f 2/10/6 20/11/6 1/12/6
f 20/11/6 2/10/6 21/9/6
f 24/13/7 23/16/7 22/14/7
f 23/16/7 24/13/7 25/15/7
f 9/11/8 6/10/8 26/9/8
f 6/10/8 9/11/8 8/12/8
f 27/14/9 18/15/9 17/16/9
f 18/15/9 27/14/9 28/13/9
f 25/13/10 12/16/10 23/14/10
f 12/16/10 25/13/10 11/15/10
f 3/12/11 20/9/11 29/11/11
f 20/9/11 3/12/11 1/10/11
f 16/13/12 22/16/12 15/14/12
f 22/16/12 16/13/12 24/15/12
f 31/13/13 27/16/13 30/14/13
f 27/16/13 31/13/13 28/15/13
f 6/12/14 32/9/14 26/11/14
f 32/9/14 6/12/14 4/10/14
f 2/12/15 19/9/15 21/11/15
f 19/9/15 2/12/15 5/10/15
f 4/12/16 29/9/16 32/11/16
f 29/9/16 4/12/16 3/10/16
f 13/13/17 30/16/17 14/14/17
f 30/16/17 13/13/17 31/15/17

usemtl foliage

f 21/19/18 33/18/18 20/17/18
f 33/18/18 21/19/18 34/20/18
f 14/23/18 35/22/18 12/21/18
f 35/22/18 14/23/18 36/24/18
f 15/21/19 38/24/19 37/22/19
f 38/24/19 15/21/19 22/23/19
f 22/21/20 39/24/20 38/22/20
f 39/24/20 22/21/20 23/23/20
f 40/22/21 15/23/21 37/24/21
f 15/23/21 40/22/21 17/21/21
f 14/21/22 41/24/22 36/22/22
f 41/24/22 14/21/22 30/23/22
f 30/21/23 42/24/23 41/22/23
f 42/24/23 30/21/23 27/23/23
f 36/27/24 39/26/24 35/25/24
f 39/26/24 36/27/24 41/28/24
f 39/26/24 41/28/24 43/29/24
f 39/26/24 43/29/24 44/30/24
f 43/29/24 41/28/24 45/31/24
f 45/31/24 41/28/24 42/32/24
f 44/30/24 38/33/24 39/26/24
f 38/33/24 44/30/24 46/34/24
f 38/33/24 46/34/24 37/35/24
f 37/35/24 46/34/24 45/31/24
f 37/35/24 45/31/24 42/32/24
f 37/35/24 42/32/24 40/36/24
f 32/17/20 48/20/20 47/18/20
f 48/20/20 32/17/20 29/19/20
f 50/18/25 9/19/25 49/20/25
f 9/19/25 50/18/25 10/17/25
f 12/23/26 39/22/26 23/21/26
f 39/22/26 12/23/26 35/24/26
f 49/18/21 26/19/21 51/20/21
f 26/19/21 49/18/21 9/17/21
f 21/17/22 52/20/22 34/18/22
f 52/20/22 21/17/22 19/19/22
f 19/17/23 50/20/23 52/18/23
f 50/20/23 19/17/23 10/19/23
f 34/39/24 11/38/24 33/37/24
f 11/38/24 34/39/24 13/40/24
f 13/40/24 34/39/24 52/41/24
f 13/40/24 52/41/24 31/42/24
f 31/42/24 52/41/24 50/43/24
f 31/42/24 50/43/24 28/44/24
f 28/44/24 50/43/24 18/45/24
f 18/45/24 50/43/24 49/46/24
f 11/38/24 48/47/24 33/37/24
f 48/47/24 11/38/24 25/48/24
f 48/47/24 25/48/24 47/49/24
f 47/49/24 25/48/24 24/50/24
f 47/49/24 24/50/24 16/51/24
f 47/49/24 16/51/24 51/52/24
f 51/52/24 16/51/24 18/45/24
f 51/52/24 18/45/24 49/46/24
f 20/19/26 48/18/26 29/17/26
f 48/18/26 20/19/26 33/20/26
f 42/22/25 17/23/25 40/24/25
f 17/23/25 42/22/25 27/21/25
f 26/17/19 47/20/19 51/18/19
f 47/20/19 26/17/19 32/19/19

usemtl wood

f 44/55/27 54/54/27 53/53/27
f 54/54/27 44/55/27 43/56/27
f 46/55/28 53/54/28 55/53/28
f 53/54/28 46/55/28 44/56/28
f 56/53/29 46/56/29 55/54/29
f 46/56/29 56/53/29 45/55/29
f 43/55/30 56/54/30 54/53/30
f 56/54/30 43/55/30 45/56/30

usemtl _defaultMat

f 54/16/24 55/13/24 53/15/24
f 55/16/24 54/13/24 56/15/24

