# Created by Kenney (www.kenney.nl)

mtllib snow_tile_bump.mtl

g snow_tile_bump

v -0.275 0.2971869 -0.08547636
v -0.5 0.2971869 -0.08547636
v -0.275 0.2887597 -0.1705828
v -0.5 0.2887597 -0.1705828
v -0.275 0.2747549 -0.254951
v -0.5 0.2747549 -0.254951
v -0.275 0.2552331 -0.3382157
v -0.5 0.2552331 -0.3382157
v -0.275 0.2302788 -0.4200168
v -0.5 0.2302788 -0.4200168
v -0.275 0.2747549 0.254951
v -0.5 0.2747549 0.254951
v -0.275 0.2887597 0.1705828
v -0.5 0.2887597 0.1705828
v -0.275 0.2552331 0.3382157
v -0.5 0.2552331 0.3382157
v -0.275 0.2971869 0.08547636
v -0.5 0.2971869 0.08547636
v -0.275 0.2302788 0.4200168
v -0.5 0.2302788 0.4200168
v -0.275 0.3 1.804779E-15
v -0.5 0.3 4.692424E-15
v -0.275 0.2 -0.5
v -0.5 0.2 -0.5
v -0.275 0.2 0.5
v -0.5 0.2 0.5
v -0.5 0.1 0.5
v 0.275 0.15 0.5
v 0.5 0.1 0.5
v 0.5 0.2 0.5
v 0.18125 0.15 0.5
v 0.275 0.2 0.5
v -0.18125 0.15 0.5
v -0.275 0.15 0.5
v 0.5 0.1 -0.5
v -0.275 0.15 -0.5
v -0.5 0.1 -0.5
v -0.18125 0.15 -0.5
v 0.18125 0.15 -0.5
v 0.275 0.15 -0.5
v 0.5 0.2 -0.5
v 0.275 0.2 -0.5
v 0.5 0.2552331 0.3382157
v 0.275 0.2552331 0.3382157
v 0.5 0.2747549 0.254951
v 0.275 0.2747549 0.254951
v 0.5 0.2302788 0.4200168
v 0.275 0.2302788 0.4200168
v 0.5 0.2887597 0.1705828
v 0.275 0.2887597 0.1705828
v 0.5 0.2971869 0.08547636
v 0.275 0.2971869 0.08547636
v 0.5 0.3 -9.745804E-15
v 0.275 0.3 -6.858159E-15
v 0.5 0.2971869 -0.08547636
v 0.275 0.2971869 -0.08547636
v 0.5 0.2302788 -0.4200168
v 0.275 0.2302788 -0.4200168
v 0.5 0.1302788 -0.4200168
v 0.5 0.2552331 -0.3382157
v 0.5 0.1552331 -0.3382157
v 0.5 0.2747549 -0.254951
v 0.5 0.1747549 -0.254951
v 0.5 0.2887597 -0.1705828
v 0.5 0.1887597 -0.1705828
v 0.5 0.1971869 -0.08547636
v 0.5 0.2 -9.745804E-15
v 0.5 0.1971869 0.08547636
v 0.5 0.1887597 0.1705828
v 0.5 0.1747549 0.254951
v 0.5 0.1552331 0.3382157
v 0.5 0.1302788 0.4200168
v 0.275 0.2887597 -0.1705828
v 0.275 0.2747549 -0.254951
v 0.275 0.2552331 -0.3382157
v -0.5 0.1302788 -0.4200168
v -0.5 0.1552331 -0.3382157
v -0.5 0.1747549 -0.254951
v -0.5 0.1887597 -0.1705828
v -0.5 0.1971869 -0.08547636
v -0.5 0.2 4.692424E-15
v -0.5 0.1971869 0.08547636
v -0.5 0.1887597 0.1705828
v -0.5 0.1747549 0.254951
v -0.5 0.1552331 0.3382157
v -0.5 0.1302788 0.4200168
v -0.18125 0.2387597 0.1705828
v -0.275 0.2387597 0.1705828
v -0.18125 0.2471869 0.08547636
v -0.275 0.2471869 0.08547636
v -0.18125 0.25 3.104219E-14
v -0.275 0.25 1.804779E-15
v -0.18125 0.2471869 -0.08547636
v -0.275 0.2471869 -0.08547636
v -0.18125 0.2247549 0.254951
v -0.275 0.2247549 0.254951
v -0.18125 0.2387597 -0.1705828
v -0.275 0.2387597 -0.1705828
v -0.18125 0.2247549 -0.254951
v -0.275 0.2247549 -0.254951
v -0.18125 0.2052331 -0.3382157
v -0.275 0.2052331 -0.3382157
v -0.275 0.1802788 -0.4200168
v -0.275 0.2 -0.35537
v -0.275 0.2052331 0.3382157
v -0.275 0.2 0.35537
v -0.275 0.1802788 0.4200168
v -0.18125 0.1802788 -0.4200168
v -0.18125 0.1802788 0.4200168
v 0.275 0.1802788 -0.4200168
v 0.275 0.2 -0.35537
v 0.275 0.2052331 -0.3382157
v 0.275 0.2247549 -0.254951
v 0.275 0.2387597 -0.1705828
v 0.275 0.2471869 -0.08547636
v 0.275 0.25 -6.858159E-15
v 0.275 0.2471869 0.08547636
v 0.275 0.2387597 0.1705828
v 0.275 0.2247549 0.254951
v 0.275 0.2052331 0.3382157
v 0.275 0.2 0.35537
v 0.275 0.1802788 0.4200168
v -0.18125 0.2 -0.35537
v -0.18125 0.2 0.35537
v -0.18125 0.2052331 0.3382157
v 0.18125 0.2052331 0.3382157
v 0.18125 0.2 0.35537
v 0.18125 0.1802788 0.4200168
v 0.18125 0.2387597 0.1705828
v 0.18125 0.2471869 0.08547636
v 0.18125 0.2247549 0.254951
v 0.18125 0.25 6.858159E-15
v 0.18125 0.2471869 -0.08547636
v 0.18125 0.2387597 -0.1705828
v 0.18125 0.2052331 -0.3382157
v 0.18125 0.1802788 -0.4200168
v 0.18125 0.2 -0.35537
v 0.18125 0.2247549 -0.254951
v 0.5 0 0.5
v 0.5 0 -0.5
v -0.5 0 0.5
v -0.5 0 -0.5

vn 0 0.9978361 -0.06575105
vn 0 0.9913536 -0.1312176
vn 0 0.9805807 -0.1961161
vn 0 0.965564 -0.260166
vn 0 0.9463682 -0.3230898
vn 0 0.9805807 0.1961161
vn 0 0.9913536 0.1312176
vn 0 0.965564 0.260166
vn 0 0.9978361 0.06575105
vn 0 0.9463682 0.3230898
vn 0 1 0
vn 0 0.9352287 -0.3540442
vn 0 0.9352287 0.3540442
vn 0 0 1
vn 0 0 -1
vn 1 0 0
vn -1 0 0
vn 0 0.9564837 -0.2917857
vn 0 0.9564837 0.2917857
vn 0 -1 0

vt 10.82677 -2.195917
vt 19.68504 -2.195917
vt 10.82677 -5.562951
vt 19.68504 -5.562951
vt 10.82677 -4.763548
vt 19.68504 -4.763548
vt 10.82677 -8.130582
vt 19.68504 -8.130582
vt 10.82677 -7.303277
vt 19.68504 -7.303277
vt 10.82677 -10.67031
vt 19.68504 -10.67031
vt 10.82677 -9.804112
vt 19.68504 -9.804112
vt 10.82677 -13.17115
vt 19.68504 -13.17115
vt -10.82677 -8.130582
vt -19.68504 -8.130582
vt -10.82677 -4.763548
vt -19.68504 -4.763548
vt -10.82677 -10.67031
vt -19.68504 -10.67031
vt -10.82677 -7.303277
vt -19.68504 -7.303277
vt -10.82677 -5.562951
vt -19.68504 -5.562951
vt -10.82677 -2.195917
vt -19.68504 -2.195917
vt -10.82677 -13.17115
vt -19.68504 -13.17115
vt -10.82677 -9.804112
vt -19.68504 -9.804112
vt -10.82677 -2.978529
vt -19.68504 -2.978529
vt -10.82677 0.3885038
vt -19.68504 0.3885038
vt 10.82677 0.3885038
vt 19.68504 0.3885038
vt 10.82677 -2.978529
vt 19.68504 -2.978529
vt 10.82677 -12.25523
vt 19.68504 -12.25523
vt 10.82677 -15.62226
vt 19.68504 -15.62226
vt -10.82677 -15.62226
vt -19.68504 -15.62226
vt -10.82677 -12.25523
vt -19.68504 -12.25523
vt -19.68504 3.937008
vt 10.82677 5.905512
vt 19.68504 3.937008
vt 19.68504 7.874016
vt 7.135827 5.905512
vt 10.82677 7.874016
vt -7.135827 5.905512
vt -10.82677 5.905512
vt -19.68504 7.874016
vt -10.82677 7.874016
vt 16.53609 9.066094
vt 16.53609 5.129086
vt 13.31558 10.04855
vt 13.31558 6.111539
vt 10.03744 10.81712
vt 10.03744 6.880113
vt 6.715858 11.36849
vt 6.715858 7.431483
vt 3.365211 11.70027
vt 3.365211 7.763263
vt 1.023127E-13 11.81102
vt 1.023127E-13 7.874016
vt -3.365211 11.70027
vt -3.365211 7.763263
vt -6.715858 11.36849
vt -6.715858 7.431483
vt -10.03744 10.81712
vt -10.03744 6.880113
vt -13.31558 10.04855
vt -13.31558 6.111539
vt -16.53609 9.066094
vt -16.53609 5.129086
vt -9.663923E-14 7.874016
vt -9.663923E-14 11.81102
vt -7.135827 -5.756922
vt -10.82677 -5.756922
vt -7.135827 -2.389889
vt -10.82677 -2.389889
vt 7.135827 0.3237532
vt 10.82677 0.3237532
vt 7.135827 -3.04328
vt 10.82677 -3.04328
vt -7.135827 -8.452935
vt -10.82677 -8.452935
vt -7.135827 -5.085902
vt -10.82677 -5.085902
vt 7.135827 -5.085902
vt 10.82677 -5.085902
vt 7.135827 -8.452935
vt 10.82677 -8.452935
vt 7.135827 -7.752617
vt 10.82677 -7.752617
vt 7.135827 -11.11965
vt 10.82677 -11.11965
vt -7.135827 -3.04328
vt -10.82677 -3.04328
vt -7.135827 0.3237532
vt -10.82677 0.3237532
vt 7.135827 -2.389889
vt 10.82677 -2.389889
vt 7.135827 -5.756922
vt 10.82677 -5.756922
vt 19.68504 5.905512
vt 16.53609 7.09759
vt 13.99094 7.874016
vt 13.31558 8.080043
vt 10.03744 8.848618
vt 6.715858 9.399987
vt 3.365211 9.731767
vt 8.370491E-14 11.81102
vt 8.370491E-14 9.84252
vt -3.365211 9.731767
vt -6.715858 9.399987
vt -10.03744 8.848618
vt -13.31558 8.080043
vt -13.99094 7.874016
vt -16.53609 7.09759
vt -19.68504 5.905512
vt 7.135827 -12.95217
vt 10.82677 -12.95217
vt 7.135827 -16.3192
vt 10.82677 -16.3192
vt -7.135827 -16.3192
vt -10.82677 -16.3192
vt -7.135827 -12.95217
vt -10.82677 -12.95217
vt -1.15247E-13 9.84252
vt -1.15247E-13 11.81102
vt 7.135827 -10.37849
vt 10.82677 -10.37849
vt 7.135827 -11.08458
vt 7.135827 -13.74553
vt 10.82677 -13.74553
vt 10.82677 -11.08458
vt -7.135827 -13.74553
vt -10.82677 -13.74553
vt -7.135827 -11.08458
vt -7.135827 -10.37849
vt -10.82677 -11.08458
vt -10.82677 -10.37849
vt -7.135827 -11.11965
vt -10.82677 -11.11965
vt -7.135827 -7.752617
vt -10.82677 -7.752617
vt 19.68504 19.68504
vt 19.68504 -19.68504
vt -19.68504 19.68504
vt -19.68504 -19.68504
vt 19.68504 0
vt -19.68504 0

usemtl snow

f 3/3/2 2/2/1 1/1/1
f 2/2/1 3/3/2 4/4/2
f 5/7/3 4/6/2 3/5/2
f 4/6/2 5/7/3 6/8/3
f 7/11/4 6/10/3 5/9/3
f 6/10/3 7/11/4 8/12/4
f 9/15/5 8/14/4 7/13/4
f 8/14/4 9/15/5 10/16/5
f 13/19/7 12/18/6 11/17/6
f 12/18/6 13/19/7 14/20/7
f 11/23/6 16/22/8 15/21/8
f 16/22/8 11/23/6 12/24/6
f 17/27/9 14/26/7 13/25/7
f 14/26/7 17/27/9 18/28/9
f 15/31/8 20/30/10 19/29/10
f 20/30/10 15/31/8 16/32/8
f 21/35/11 18/34/9 17/33/9
f 18/34/9 21/35/11 22/36/11
f 1/39/1 22/38/11 21/37/11
f 22/38/11 1/39/1 2/40/1
f 23/43/12 10/42/5 9/41/5
f 10/42/5 23/43/12 24/44/12
f 19/47/10 26/46/13 25/45/13
f 26/46/13 19/47/10 20/48/10
f 29/51/14 28/50/14 27/49/14
f 28/50/14 29/51/14 30/52/14
f 27/49/14 28/50/14 31/53/14
f 28/50/14 30/52/14 32/54/14
f 33/55/14 27/49/14 31/53/14
f 34/56/14 27/49/14 33/55/14
f 27/49/14 34/56/14 26/57/14
f 26/57/14 34/56/14 25/58/14
f 37/51/15 36/50/15 35/49/15
f 36/50/15 37/51/15 24/52/15
f 35/49/15 36/50/15 38/53/15
f 36/50/15 24/52/15 23/54/15
f 39/55/15 35/49/15 38/53/15
f 40/56/15 35/49/15 39/55/15
f 35/49/15 40/56/15 41/57/15
f 41/57/15 40/56/15 42/58/15
f 45/10/6 44/11/8 43/12/8
f 44/11/8 45/10/6 46/9/6
f 47/42/10 32/43/13 30/44/13
f 32/43/13 47/42/10 48/41/10
f 43/14/8 48/15/10 47/16/10
f 48/15/10 43/14/8 44/13/8
f 49/6/7 46/7/6 45/8/6
f 46/7/6 49/6/7 50/5/7
f 51/2/9 50/3/7 49/4/7
f 50/3/7 51/2/9 52/1/9
f 55/34/1 54/35/11 53/36/11
f 54/35/11 55/34/1 56/33/1
f 41/46/12 58/47/5 57/48/5
f 58/47/5 41/46/12 42/45/12
f 57/59/16 35/51/16 41/52/16
f 35/51/16 57/59/16 59/60/16
f 59/60/16 57/59/16 60/61/16
f 59/60/16 60/61/16 61/62/16
f 61/62/16 60/61/16 62/63/16
f 61/62/16 62/63/16 63/64/16
f 63/64/16 62/63/16 64/65/16
f 63/64/16 64/65/16 65/66/16
f 65/66/16 64/65/16 55/67/16
f 65/66/16 55/67/16 66/68/16
f 66/68/16 55/67/16 53/69/16
f 66/68/16 53/69/16 67/70/16
f 67/70/16 53/69/16 51/71/16
f 67/70/16 51/71/16 68/72/16
f 68/72/16 51/71/16 49/73/16
f 68/72/16 49/73/16 69/74/16
f 69/74/16 49/73/16 45/75/16
f 69/74/16 45/75/16 70/76/16
f 70/76/16 45/75/16 43/77/16
f 70/76/16 43/77/16 71/78/16
f 71/78/16 43/77/16 47/79/16
f 71/78/16 47/79/16 72/80/16
f 72/80/16 47/79/16 30/57/16
f 72/80/16 30/57/16 29/49/16
f 62/18/3 73/19/2 64/20/2
f 73/19/2 62/18/3 74/17/3
f 57/30/5 75/31/4 60/32/4
f 75/31/4 57/30/5 58/29/5
f 76/80/17 24/57/17 37/49/17
f 24/57/17 76/80/17 10/79/17
f 10/79/17 76/80/17 77/78/17
f 10/79/17 77/78/17 8/77/17
f 8/77/17 77/78/17 78/76/17
f 8/77/17 78/76/17 6/75/17
f 6/75/17 78/76/17 79/74/17
f 6/75/17 79/74/17 4/73/17
f 4/73/17 79/74/17 80/72/17
f 4/73/17 80/72/17 2/71/17
f 2/71/17 80/72/17 81/81/17
f 2/71/17 81/81/17 22/82/17
f 22/82/17 81/81/17 82/68/17
f 22/82/17 82/68/17 18/67/17
f 18/67/17 82/68/17 83/66/17
f 18/67/17 83/66/17 14/65/17
f 14/65/17 83/66/17 84/64/17
f 14/65/17 84/64/17 12/63/17
f 12/63/17 84/64/17 85/62/17
f 12/63/17 85/62/17 16/61/17
f 16/61/17 85/62/17 86/60/17
f 16/61/17 86/60/17 20/59/17
f 20/59/17 86/60/17 27/51/17
f 20/59/17 27/51/17 26/52/17
f 60/22/4 74/23/3 62/24/3
f 74/23/3 60/22/4 75/21/4
f 53/38/11 52/39/9 51/40/9
f 52/39/9 53/38/11 54/37/11
f 64/26/2 56/27/1 55/28/1
f 56/27/1 64/26/2 73/25/2

usemtl snowRoadDark

f 89/85/9 88/84/7 87/83/7
f 88/84/7 89/85/9 90/86/9
f 93/89/1 92/88/11 91/87/11
f 92/88/11 93/89/1 94/90/1
f 87/93/7 96/92/6 95/91/6
f 96/92/6 87/93/7 88/94/7
f 99/97/3 98/96/2 97/95/2
f 98/96/2 99/97/3 100/98/3
f 101/101/4 100/100/3 99/99/3
f 100/100/3 101/101/4 102/102/4
f 91/105/11 90/104/9 89/103/9
f 90/104/9 91/105/11 92/106/11
f 97/109/2 94/108/1 93/107/1
f 94/108/1 97/109/2 98/110/2
f 9/59/16 36/111/16 23/52/16
f 36/111/16 9/59/16 103/112/16
f 103/112/16 9/59/16 7/61/16
f 103/112/16 7/61/16 104/113/16
f 104/113/16 7/61/16 102/114/16
f 102/114/16 7/61/16 5/63/16
f 102/114/16 5/63/16 100/115/16
f 100/115/16 5/63/16 3/65/16
f 100/115/16 3/65/16 98/116/16
f 98/116/16 3/65/16 1/67/16
f 98/116/16 1/67/16 94/117/16
f 94/117/16 1/67/16 21/118/16
f 94/117/16 21/118/16 92/119/16
f 92/119/16 21/118/16 17/71/16
f 92/119/16 17/71/16 90/120/16
f 90/120/16 17/71/16 13/73/16
f 90/120/16 13/73/16 88/121/16
f 88/121/16 13/73/16 11/75/16
f 88/121/16 11/75/16 96/122/16
f 96/122/16 11/75/16 15/77/16
f 96/122/16 15/77/16 105/123/16
f 105/123/16 15/77/16 19/79/16
f 105/123/16 19/79/16 106/124/16
f 106/124/16 19/79/16 107/125/16
f 107/125/16 19/79/16 25/57/16
f 107/125/16 25/57/16 34/126/16
f 38/129/12 103/128/5 108/127/5
f 103/128/5 38/129/12 36/130/12
f 109/133/10 34/132/13 33/131/13
f 34/132/13 109/133/10 107/134/10
f 110/125/17 42/57/17 40/126/17
f 42/57/17 110/125/17 58/79/17
f 58/79/17 110/125/17 111/124/17
f 58/79/17 111/124/17 75/77/17
f 75/77/17 111/124/17 112/123/17
f 75/77/17 112/123/17 113/122/17
f 75/77/17 113/122/17 74/75/17
f 74/75/17 113/122/17 114/121/17
f 74/75/17 114/121/17 73/73/17
f 73/73/17 114/121/17 115/120/17
f 73/73/17 115/120/17 56/71/17
f 56/71/17 115/120/17 116/135/17
f 56/71/17 116/135/17 54/136/17
f 54/136/17 116/135/17 117/117/17
f 54/136/17 117/117/17 52/67/17
f 52/67/17 117/117/17 118/116/17
f 52/67/17 118/116/17 50/65/17
f 50/65/17 118/116/17 119/115/17
f 50/65/17 119/115/17 46/63/17
f 46/63/17 119/115/17 120/114/17
f 46/63/17 120/114/17 44/61/17
f 44/61/17 120/114/17 121/113/17
f 44/61/17 121/113/17 48/59/17
f 48/59/17 121/113/17 122/112/17
f 48/59/17 122/112/17 28/111/17
f 48/59/17 28/111/17 32/52/17
f 123/139/18 102/138/4 101/137/4
f 102/138/4 123/139/18 108/140/5
f 102/138/4 108/140/5 103/141/5
f 102/138/4 103/141/5 104/142/18
f 124/145/19 107/144/10 109/143/10
f 107/144/10 124/145/19 125/146/8
f 107/144/10 125/146/8 106/147/19
f 106/147/19 125/146/8 105/148/8
f 95/151/6 105/150/8 125/149/8
f 105/150/8 95/151/6 96/152/6
f 126/137/8 121/142/19 120/138/8
f 121/142/19 126/137/8 127/139/19
f 121/142/19 127/139/19 128/140/10
f 128/140/10 122/141/10 121/142/19
f 122/128/10 31/129/13 28/130/13
f 31/129/13 122/128/10 128/127/10
f 117/108/9 129/109/7 118/110/7
f 129/109/7 117/108/9 130/107/9
f 118/96/7 131/97/6 119/98/6
f 131/97/6 118/96/7 129/95/7
f 115/104/1 132/105/11 116/106/11
f 132/105/11 115/104/1 133/103/1
f 114/84/2 133/85/1 115/86/1
f 133/85/1 114/84/2 134/83/2
f 110/144/5 112/148/4 111/147/18
f 112/148/4 110/144/5 135/146/4
f 135/146/4 110/144/5 136/143/5
f 135/146/4 136/143/5 137/145/18
f 40/132/12 136/133/5 110/134/5
f 136/133/5 40/132/12 39/131/12
f 119/100/6 126/101/8 120/102/8
f 126/101/8 119/100/6 131/99/6
f 116/88/11 130/89/9 117/90/9
f 130/89/9 116/88/11 132/87/11
f 113/92/3 134/93/2 114/94/2
f 134/93/2 113/92/3 138/91/3
f 112/150/4 138/151/3 113/152/3
f 138/151/3 112/150/4 135/149/4

usemtl dirt

f 141/155/20 140/154/20 139/153/20
f 140/154/20 141/155/20 142/156/20
f 29/51/14 141/158/14 139/157/14
f 141/158/14 29/51/14 27/49/14
f 141/157/17 37/49/17 142/158/17
f 37/49/17 141/157/17 76/80/17
f 76/80/17 141/157/17 77/78/17
f 77/78/17 141/157/17 78/76/17
f 78/76/17 141/157/17 79/74/17
f 79/74/17 141/157/17 80/72/17
f 80/72/17 141/157/17 81/81/17
f 81/81/17 141/157/17 82/68/17
f 82/68/17 141/157/17 83/66/17
f 83/66/17 141/157/17 84/64/17
f 84/64/17 141/157/17 85/62/17
f 85/62/17 141/157/17 86/60/17
f 86/60/17 141/157/17 27/51/17
f 37/51/15 140/158/15 142/157/15
f 140/158/15 37/51/15 35/49/15
f 59/60/16 140/157/16 35/51/16
f 140/157/16 59/60/16 139/158/16
f 139/158/16 59/60/16 61/62/16
f 139/158/16 61/62/16 63/64/16
f 139/158/16 63/64/16 65/66/16
f 139/158/16 65/66/16 66/68/16
f 139/158/16 66/68/16 67/70/16
f 139/158/16 67/70/16 68/72/16
f 139/158/16 68/72/16 69/74/16
f 139/158/16 69/74/16 70/76/16
f 139/158/16 70/76/16 71/78/16
f 139/158/16 71/78/16 72/80/16
f 139/158/16 72/80/16 29/49/16

usemtl snowRoad

f 130/107/9 87/83/7 129/109/7
f 87/83/7 130/107/9 89/85/9
f 133/103/1 91/87/11 132/105/11
f 91/87/11 133/103/1 93/89/1
f 138/91/3 97/95/2 134/93/2
f 97/95/2 138/91/3 99/97/3
f 135/149/4 99/99/3 138/151/3
f 99/99/3 135/149/4 101/101/4
f 131/99/6 125/149/8 126/101/8
f 125/149/8 131/99/6 95/151/6
f 129/95/7 95/91/6 131/97/6
f 95/91/6 129/95/7 87/93/7
f 127/139/19 109/143/10 128/140/10
f 109/143/10 127/139/19 126/137/8
f 109/143/10 126/137/8 124/145/19
f 124/145/19 126/137/8 125/146/8
f 128/127/10 33/131/13 31/129/13
f 33/131/13 128/127/10 109/133/10
f 134/83/2 93/107/1 133/85/1
f 93/107/1 134/83/2 97/109/2
f 39/131/12 108/127/5 136/133/5
f 108/127/5 39/131/12 38/129/12
f 137/145/18 101/137/4 135/146/4
f 101/137/4 137/145/18 136/143/5
f 101/137/4 136/143/5 108/140/5
f 101/137/4 108/140/5 123/139/18
f 132/87/11 89/103/9 130/89/9
f 89/103/9 132/87/11 91/105/11

