# Created by Kenney (www.kenney.nl)

mtllib snow_tile_cornerInner.mtl

g snow_tile_cornerInner

v 0.5 0 0.5
v 0.5 0 -0.5
v -0.5 0 0.5
v -0.5 0 -0.5
v 0.5 0.3 -0.5
v 0.5 0.3 0.5
v -0.5 0.1 0.5
v -0.5 0.3 -0.5
v -0.5 0.2 0.5
v 0.5 0.4 0.5
v -0.5 0.4 -0.5
v 0.5 0.4 -0.5

vn 0 -1 0
vn 1 0 0
vn 0 0 1
vn -1 0 0
vn 0 0 -1
vn -0.1961161 0.9805807 0
vn 0 0.9805807 0.1961161

vt 19.68504 19.68504
vt 19.68504 -19.68504
vt -19.68504 19.68504
vt -19.68504 -19.68504
vt 19.68504 11.81102
vt 19.68504 1.649474E-13
vt -19.68504 11.81102
vt -19.68504 1.649474E-13
vt 19.68504 -4.584147E-13
vt -19.68504 -4.584147E-13
vt -19.68504 3.937008
vt -19.68504 1.146037E-13
vt 19.68504 1.146037E-13
vt 19.68504 3.937008
vt 19.68504 0
vt -19.68504 0
vt -19.68504 7.874016
vt 19.68504 15.74803
vt -19.68504 15.74803
vt 19.68504 7.874016
vt -19.68504 22.39121
vt 19.68504 22.39121
vt 19.68504 -17.75855
vt -19.68504 -17.75855

usemtl dirt

f 3/3/1 2/2/1 1/1/1
f 2/2/1 3/3/1 4/4/1
f 6/7/2 2/6/2 5/5/2
f 2/6/2 6/7/2 1/8/2
f 6/5/3 3/10/3 1/9/3
f 3/10/3 6/5/3 7/11/3
f 3/13/4 8/7/4 4/12/4
f 8/7/4 3/13/4 7/14/4
f 8/5/5 2/16/5 4/15/5
f 2/16/5 8/5/5 5/7/5

usemtl snow

f 6/5/3 9/17/3 7/11/3
f 9/17/3 6/5/3 10/18/3
f 7/14/4 11/19/4 8/7/4
f 11/19/4 7/14/4 9/20/4
f 10/19/2 5/5/2 12/18/2
f 5/5/2 10/19/2 6/7/2
f 11/18/5 5/7/5 8/5/5
f 5/7/5 11/18/5 12/19/5
f 9/23/6 10/22/6 12/21/6
f 11/21/7 9/24/7 12/22/7

