# Created by Kenney (www.kenney.nl)

mtllib snow_tile_wideTransition.mtl

g snow_tile_wideTransition

v -1 0.1 0.5
v 0.775 0.15 0.5
v 1 0.1 0.5
v 1 0.2 0.5
v 0.775 0.2 0.5
v -0.775 0.15 0.5
v -1 0.2 0.5
v 0.68125 0.15 0.5
v -0.68125 0.15 0.5
v -0.775 0.2 0.5
v 1 0.2 0.3875
v 1 0.1 0.3875
v 0.5 0.1 -0.5
v -0.275 0.15 -0.5
v -0.5 0.1 -0.5
v -0.5 0.2 -0.5
v -0.275 0.2 -0.5
v 0.275 0.15 -0.5
v 0.5 0.2 -0.5
v -0.18125 0.15 -0.5
v 0.18125 0.15 -0.5
v 0.275 0.2 -0.5
v 0.5 0.2 -0.3875
v 0.275 0.2 -0.3875
v 0.775 0.2 0.3875
v 0.5 0.1 -0.3875
v -1 0.1 0.3875
v -1 0.2 0.3875
v -0.5 0.1 -0.3875
v -0.5 0.2 -0.3875
v -0.275 0.2 -0.3875
v -0.775 0.2 0.3875
v -0.5 0 -0.3875
v -1 0 0.3875
v -1 0 0.5
v 0.5 0 -0.3875
v 1 0 0.3875
v -0.5 0 -0.5
v 1 0 0.5
v 0.5 0 -0.5
v -0.775 0.15 0.3875
v -0.275 0.15 -0.3875
v 0.775 0.15 0.3875
v -0.18125 0.15 -0.3875
v -0.68125 0.15 0.3875
v 0.275 0.15 -0.3875
v 0.18125 0.15 -0.3875
v 0.68125 0.15 0.3875

vn 0 0 1
vn 1 0 0
vn 0 0 -1
vn 0 1 0
vn -1 0 0
vn -0.8402966 0 -0.5421268
vn 0.8402966 0 -0.5421268
vn 0 -1 0
vn 0.8402966 0 0.5421268
vn -0.8402966 0 0.5421268

vt -39.37008 3.937008
vt 30.51181 5.905512
vt 39.37008 3.937008
vt 39.37008 7.874016
vt 30.51181 7.874016
vt -30.51181 5.905512
vt -39.37008 7.874016
vt 26.82087 5.905512
vt -26.82087 5.905512
vt -30.51181 7.874016
vt -15.25591 7.874016
vt -15.25591 3.937008
vt -19.68504 7.874016
vt -19.68504 3.937008
vt 10.82677 5.905512
vt 19.68504 3.937008
vt 19.68504 7.874016
vt 10.82677 7.874016
vt -10.82677 5.905512
vt 7.135827 5.905512
vt -7.135827 5.905512
vt -10.82677 7.874016
vt -19.68504 -19.68504
vt -19.68504 -15.25591
vt -10.82677 -19.68504
vt -10.82677 -15.25591
vt -30.51181 15.25591
vt -39.37008 19.68504
vt -39.37008 15.25591
vt -30.51181 19.68504
vt 15.25591 7.874016
vt 15.25591 3.937008
vt -2.147697 3.937008
vt -2.147697 7.874016
vt 34.16306 3.937008
vt 34.16306 7.874016
vt 2.147697 7.874016
vt 2.147697 3.937008
vt -34.16306 7.874016
vt -34.16306 3.937008
vt 10.82677 -19.68504
vt 10.82677 -15.25591
vt 19.68504 -19.68504
vt 19.68504 -15.25591
vt 30.51181 15.25591
vt 39.37008 15.25591
vt 30.51181 19.68504
vt 39.37008 19.68504
vt -2.147697 0
vt 34.16306 0
vt 15.25591 -2.046363E-11
vt 19.68504 -2.046363E-11
vt 2.147697 0
vt -34.16306 0
vt -19.68504 0
vt -15.25591 0
vt 39.37008 5.115908E-12
vt -39.37008 5.115908E-12
vt 19.68504 0
vt 15.25591 0
vt -15.25591 5.905512
vt -19.68504 5.905512
vt 6.950003 7.874016
vt 6.950003 5.905512
vt -29.36076 7.874016
vt -29.36076 5.905512
vt 15.25591 5.905512
vt 19.68504 5.905512
vt 7.135827 -19.68504
vt 7.135827 -15.25591
vt 26.82087 15.25591
vt 26.82087 19.68504
vt -6.950003 5.905512
vt -6.950003 7.874016
vt 29.36076 5.905512
vt 29.36076 7.874016
vt -7.135827 -19.68504
vt -7.135827 -15.25591
vt -26.82087 15.25591
vt -26.82087 19.68504

usemtl snow

f 3/3/1 2/2/1 1/1/1
f 2/2/1 3/3/1 4/4/1
f 2/2/1 4/4/1 5/5/1
f 6/6/1 1/1/1 2/2/1
f 1/1/1 6/6/1 7/7/1
f 6/6/1 2/2/1 8/8/1
f 6/6/1 8/8/1 9/9/1
f 7/7/1 6/6/1 10/10/1
f 4/13/2 12/12/2 11/11/2
f 12/12/2 4/13/2 3/14/2
f 15/16/3 14/15/3 13/14/3
f 14/15/3 15/16/3 16/17/3
f 14/15/3 16/17/3 17/18/3
f 18/19/3 13/14/3 14/15/3
f 13/14/3 18/19/3 19/13/3
f 18/19/3 14/15/3 20/20/3
f 18/19/3 20/20/3 21/21/3
f 19/13/3 18/19/3 22/22/3
f 22/25/4 23/24/4 19/23/4
f 24/26/4 23/24/4 22/25/4
f 25/27/4 23/24/4 24/26/4
f 4/28/4 23/24/4 25/27/4
f 23/24/4 4/28/4 11/29/4
f 5/30/4 4/28/4 25/27/4
f 23/31/2 13/16/2 19/17/2
f 13/16/2 23/31/2 26/32/2
f 1/16/5 28/31/5 27/32/5
f 28/31/5 1/16/5 7/17/5
f 29/12/5 16/13/5 15/14/5
f 16/13/5 29/12/5 30/11/5
f 27/35/6 30/34/6 29/33/6
f 30/34/6 27/35/6 28/36/6
f 11/39/7 26/38/7 23/37/7
f 26/38/7 11/39/7 12/40/7
f 16/43/4 31/42/4 17/41/4
f 31/42/4 16/43/4 30/44/4
f 31/42/4 30/44/4 32/45/4
f 32/45/4 30/44/4 28/46/4
f 32/45/4 28/46/4 10/47/4
f 10/47/4 28/46/4 7/48/4

usemtl dirt

f 34/50/6 29/33/6 33/49/6
f 29/33/6 34/50/6 27/35/6
f 35/52/5 27/32/5 34/51/5
f 27/32/5 35/52/5 1/16/5
f 12/40/7 36/53/7 26/38/7
f 36/53/7 12/40/7 37/54/7
f 33/56/5 15/14/5 38/55/5
f 15/14/5 33/56/5 29/12/5
f 35/28/8 37/46/8 39/48/8
f 37/46/8 35/28/8 36/44/8
f 36/44/8 35/28/8 40/43/8
f 40/43/8 35/28/8 33/24/8
f 33/24/8 35/28/8 34/29/8
f 38/23/8 40/43/8 33/24/8
f 3/3/1 35/58/1 39/57/1
f 35/58/1 3/3/1 1/1/1
f 26/32/2 40/59/2 13/16/2
f 40/59/2 26/32/2 36/60/2
f 15/16/3 40/55/3 38/59/3
f 40/55/3 15/16/3 13/14/3
f 3/14/2 37/56/2 12/12/2
f 37/56/2 3/14/2 39/55/2

usemtl snowRoadDark

f 10/13/2 41/61/2 32/11/2
f 41/61/2 10/13/2 6/62/2
f 32/65/9 42/64/9 31/63/9
f 42/64/9 32/65/9 41/66/9
f 2/68/5 25/31/5 43/67/5
f 25/31/5 2/68/5 5/17/5
f 14/41/4 44/70/4 20/69/4
f 44/70/4 14/41/4 42/42/4
f 42/42/4 45/71/4 44/70/4
f 45/71/4 42/42/4 41/45/4
f 45/71/4 41/45/4 9/72/4
f 9/72/4 41/45/4 6/47/4
f 18/62/5 24/11/5 22/13/5
f 24/11/5 18/62/5 46/61/5
f 43/75/10 24/74/10 46/73/10
f 24/74/10 43/75/10 25/76/10
f 21/77/4 46/26/4 18/25/4
f 47/78/4 46/26/4 21/77/4
f 48/79/4 46/26/4 47/78/4
f 46/26/4 48/79/4 43/27/4
f 8/80/4 43/27/4 48/79/4
f 43/27/4 8/80/4 2/30/4
f 17/17/2 42/67/2 14/68/2
f 42/67/2 17/17/2 31/31/2

usemtl snowRoad

f 20/69/4 47/78/4 21/77/4
f 44/70/4 47/78/4 20/69/4
f 9/72/4 47/78/4 44/70/4
f 8/80/4 47/78/4 9/72/4
f 47/78/4 8/80/4 48/79/4
f 9/72/4 44/70/4 45/71/4

