# Created by Kenney (www.kenney.nl)

mtllib tile_endRound.mtl

g tile_endRound

v 0.5 0.2 -0.5
v 0.5 0.1 -0.5
v 0.5 0.2 0.5
v 0.5 0.1 0.5
v -0.5 0.1 -0.5
v -0.5 0.2 -0.5
v -0.5 0.1 0.5
v -0.5 0.2 0.5
v 0.375 0.15 0.5
v 0.28125 0.15 0.5
v 0.375 0.2 0.5
v -0.375 0.15 0.5
v -0.28125 0.15 0.5
v -0.375 0.2 0.5
v 0.375 0.2 -2.237925E-14
v 0.3622222 0.2 -0.09705714
v 0.3247595 0.2 -0.1875
v 0.265165 0.2 -0.265165
v 0.1875 0.2 -0.3247595
v 0.09705714 0.2 -0.3622222
v -1.732587E-14 0.2 -0.375
v -0.09705714 0.2 -0.3622222
v -0.1875 0.2 -0.3247595
v -0.265165 0.2 -0.265165
v -0.3247595 0.2 -0.1875
v -0.3622222 0.2 -0.09705714
v -0.375 0.2 1.732587E-14
v -0.1875 0.15 -0.3247595
v -0.265165 0.15 -0.265165
v -0.09705714 0.15 -0.3622222
v -1.732587E-14 0.15 -0.375
v -0.375 0.15 1.732587E-14
v 0.09705714 0.15 -0.3622222
v -0.3247595 0.15 -0.1875
v 0.375 0.15 -2.237925E-14
v 0.3622222 0.15 -0.09705714
v 0.3247595 0.15 -0.1875
v 0.28125 0.15 0.0061447
v 0.265165 0.15 -0.265165
v 0.2708852 0.15 -0.07258348
v 0.2428691 0.15 -0.1402205
v 0.1875 0.15 -0.3247595
v 0.1983017 0.15 -0.1983017
v 0.1402205 0.15 -0.2428691
v 0.07258348 0.15 -0.2708852
v -1.299441E-14 0.15 -0.280441
v -0.07258348 0.15 -0.2708852
v -0.1402205 0.15 -0.2428691
v -0.1983017 0.15 -0.1983017
v -0.2428691 0.15 -0.1402205
v -0.2708852 0.15 -0.07258348
v -0.28125 0.15 0.0061447
v -0.3622222 0.15 -0.09705714
v 0.5 0 0.5
v 0.5 0 -0.5
v -0.5 0 0.5
v -0.5 0 -0.5

vn 1 0 0
vn -1 0 0
vn 0 0 1
vn 0 0 -1
vn 0 1 0
vn 0.5 0 0.8660254
vn 0.7071068 0 0.7071068
vn 0.258819 0 0.9659258
vn -0.258819 0 0.9659258
vn 0.8660254 0 0.5
vn 0.9659258 0 0.258819
vn 0.9914449 0 0.1305262
vn -0.7071068 0 0.7071068
vn -0.5 0 0.8660254
vn -0.9659258 0 0.258819
vn -0.9914449 0 0.1305262
vn -0.8660254 0 0.5
vn 0 -1 0

vt 19.68504 7.874016
vt 19.68504 3.937008
vt -19.68504 7.874016
vt -19.68504 3.937008
vt 14.76378 5.905512
vt 11.07283 5.905512
vt 14.76378 7.874016
vt -14.76378 5.905512
vt -11.07283 5.905512
vt -14.76378 7.874016
vt -19.68504 19.68504
vt -14.76378 19.68504
vt -19.68504 -19.68504
vt -14.76378 -8.798523E-13
vt -14.26072 -3.821147
vt -12.78581 -7.38189
vt -10.43957 -10.43957
vt -7.38189 -12.78581
vt -3.821147 -14.26072
vt 19.68504 -19.68504
vt 6.835879E-13 -14.76378
vt 3.821147 -14.26072
vt 7.38189 -12.78581
vt 10.43957 -10.43957
vt 12.78581 -7.38189
vt 14.26072 -3.821147
vt 14.76378 6.833417E-13
vt 19.68504 19.68504
vt 14.76378 19.68504
vt 1.92706 5.905512
vt -1.92706 5.905512
vt 1.92706 7.874016
vt -1.92706 7.874016
vt 5.902365E-14 7.874016
vt 5.902365E-14 5.905512
vt -19.68504 5.905512
vt -11.07283 19.68504
vt -14.76378 -8.810639E-13
vt -11.07283 0.2419173
vt -10.66477 -2.857617
vt -9.561774 -5.520493
vt -7.807156 -7.807156
vt -5.520493 -9.561774
vt -2.857617 -10.66477
vt 6.813826E-13 -14.76378
vt 5.108523E-13 -11.04099
vt 2.857617 -10.66477
vt 5.520493 -9.561774
vt 7.807156 -7.807156
vt 9.561774 -5.520493
vt 10.66477 -2.857617
vt 11.07283 0.2419173
vt 11.07283 19.68504
vt 14.76378 6.821301E-13
vt -1.399283E-13 5.905512
vt -1.399283E-13 7.874016
vt 19.68504 5.905512
vt 19.68504 0
vt -19.68504 0

usemtl foliage

f 3/3/1 2/2/1 1/1/1
f 2/2/1 3/3/1 4/4/1
f 7/2/2 6/3/2 5/4/2
f 6/3/2 7/2/2 8/1/2
f 4/2/3 9/5/3 7/4/3
f 9/5/3 4/2/3 3/1/3
f 7/4/3 9/5/3 10/6/3
f 9/5/3 3/1/3 11/7/3
f 12/8/3 7/4/3 10/6/3
f 7/4/3 12/8/3 8/3/3
f 12/8/3 10/6/3 13/9/3
f 8/3/3 12/8/3 14/10/3
f 6/1/4 2/4/4 5/2/4
f 2/4/4 6/1/4 1/3/4
f 1/13/5 11/12/5 3/11/5
f 11/12/5 1/13/5 15/14/5
f 15/14/5 1/13/5 16/15/5
f 16/15/5 1/13/5 17/16/5
f 17/16/5 1/13/5 18/17/5
f 18/17/5 1/13/5 19/18/5
f 19/18/5 1/13/5 20/19/5
f 20/19/5 1/13/5 6/20/5
f 20/19/5 6/20/5 21/21/5
f 21/21/5 6/20/5 22/22/5
f 22/22/5 6/20/5 23/23/5
f 23/23/5 6/20/5 24/24/5
f 24/24/5 6/20/5 25/25/5
f 25/25/5 6/20/5 26/26/5
f 26/26/5 6/20/5 27/27/5
f 27/27/5 6/20/5 8/28/5
f 8/28/5 14/29/5 27/27/5

usemtl dirtDark

f 23/32/6 29/31/7 28/30/6
f 29/31/7 23/32/6 24/33/7
f 31/30/3 22/33/8 30/31/8
f 22/33/8 31/30/3 21/32/3
f 22/32/8 28/31/6 30/30/8
f 28/31/6 22/32/8 23/33/6
f 14/3/1 32/35/1 27/34/1
f 32/35/1 14/3/1 12/36/1
f 33/30/9 21/33/3 31/31/3
f 21/33/3 33/30/9 20/32/9
f 25/33/10 29/30/7 24/32/7
f 29/30/7 25/33/10 34/31/10
f 35/38/5 10/37/5 9/12/5
f 10/37/5 35/38/5 36/15/5
f 10/37/5 36/15/5 37/16/5
f 10/37/5 37/16/5 38/39/5
f 38/39/5 37/16/5 39/17/5
f 38/39/5 39/17/5 40/40/5
f 40/40/5 39/17/5 41/41/5
f 41/41/5 39/17/5 42/18/5
f 41/41/5 42/18/5 43/42/5
f 43/42/5 42/18/5 44/43/5
f 44/43/5 42/18/5 33/19/5
f 44/43/5 33/19/5 45/44/5
f 45/44/5 33/19/5 31/45/5
f 45/44/5 31/45/5 46/46/5
f 46/46/5 31/45/5 47/47/5
f 47/47/5 31/45/5 30/22/5
f 47/47/5 30/22/5 48/48/5
f 48/48/5 30/22/5 28/23/5
f 48/48/5 28/23/5 49/49/5
f 49/49/5 28/23/5 29/24/5
f 49/49/5 29/24/5 50/50/5
f 50/50/5 29/24/5 51/51/5
f 51/51/5 29/24/5 34/25/5
f 51/51/5 34/25/5 52/52/5
f 12/29/5 52/52/5 34/25/5
f 52/52/5 12/29/5 13/53/5
f 12/29/5 34/25/5 53/26/5
f 12/29/5 53/26/5 32/54/5
f 27/33/12 53/30/11 26/32/11
f 53/30/11 27/33/12 32/31/12
f 26/33/11 34/30/10 25/32/10
f 34/30/10 26/33/11 53/31/11
f 18/32/13 42/31/14 39/30/13
f 42/31/14 18/32/13 19/33/14
f 35/30/16 16/33/15 36/31/15
f 16/33/15 35/30/16 15/32/16
f 9/57/2 15/56/2 35/55/2
f 15/56/2 9/57/2 11/1/2
f 37/30/17 18/33/13 39/31/13
f 18/33/13 37/30/17 17/32/17
f 19/32/14 33/31/9 42/30/14
f 33/31/9 19/32/14 20/33/9
f 36/30/15 17/33/17 37/31/17
f 17/33/17 36/30/15 16/32/15

usemtl dirt

f 56/11/18 55/20/18 54/28/18
f 55/20/18 56/11/18 57/13/18
f 4/4/1 55/58/1 2/2/1
f 55/58/1 4/4/1 54/59/1
f 56/58/2 5/4/2 57/59/2
f 5/4/2 56/58/2 7/2/2
f 4/2/3 56/59/3 54/58/3
f 56/59/3 4/2/3 7/4/3
f 5/2/4 55/59/4 57/58/4
f 55/59/4 5/2/4 2/4/4
f 38/39/5 13/53/5 10/37/5
f 13/53/5 38/39/5 40/40/5
f 13/53/5 40/40/5 41/41/5
f 13/53/5 41/41/5 43/42/5
f 13/53/5 43/42/5 44/43/5
f 13/53/5 44/43/5 45/44/5
f 13/53/5 45/44/5 46/46/5
f 13/53/5 46/46/5 47/47/5
f 13/53/5 47/47/5 48/48/5
f 13/53/5 48/48/5 49/49/5
f 13/53/5 49/49/5 50/50/5
f 13/53/5 50/50/5 51/51/5
f 13/53/5 51/51/5 52/52/5

