# Created by Kenney (www.kenney.nl)

mtllib tile_straightHillLarge.mtl

g tile_straightHillLarge

v 0.375 0.35 -1
v 0.375 0.15 1
v 0.28125 0.35 -1
v 0.28125 0.15 1
v 0.375 0.4 -1
v 0.375 0.2 1
v -0.375 0.4 -1
v -0.375 0.35 -1
v -0.375 0.2 1
v -0.375 0.15 1
v -0.28125 0.35 -1
v -0.28125 0.15 1
v 0.5 0 -1
v 0.5 0.3 -1
v -0.5 1.127987E-17 -1
v -0.5 0.3 -1
v -0.5 2.255973E-17 1
v -0.5 0.1 1
v 0.5 2.255973E-17 1
v 0.5 0.1 1
v 0.5 0.2 1
v -0.5 0.2 1
v -0.5 0.4 -1
v 0.5 0.4 -1

vn 0 0.9950371 0.09950371
vn -1 0 0
vn 1 0 0
vn 0 0 -1
vn 0 -1 0
vn 0 0 1

vt 14.76378 40.54581
vt 14.76378 -38.58707
vt 11.07283 40.54581
vt 11.07283 -38.58707
vt -39.37008 13.77953
vt -39.37008 15.74803
vt 39.37008 5.905512
vt 39.37008 7.874016
vt 39.37008 15.74803
vt 39.37008 13.77953
vt -39.37008 7.874016
vt -39.37008 5.905512
vt -11.07283 40.54581
vt -11.07283 -38.58707
vt -14.76378 40.54581
vt -14.76378 -38.58707
vt -19.68504 -1.705303E-12
vt -19.68504 11.81102
vt 19.68504 -1.704858E-12
vt 19.68504 11.81102
vt -39.37008 3.964645E-14
vt -39.37008 11.81102
vt 39.37008 4.009054E-14
vt 39.37008 3.937008
vt 19.68504 -39.37008
vt -19.68504 -39.37008
vt 19.68504 39.37008
vt -19.68504 39.37008
vt 19.68504 8.881784E-16
vt -19.68504 8.881784E-16
vt 19.68504 3.937008
vt -19.68504 3.937008
vt 39.37008 11.81102
vt 39.37008 -1.229974E-12
vt -39.37008 3.937008
vt -39.37008 -1.229086E-12
vt 14.76378 5.905512
vt 19.68504 7.874016
vt 11.07283 5.905512
vt 14.76378 7.874016
vt -11.07283 5.905512
vt -14.76378 5.905512
vt -19.68504 7.874016
vt -14.76378 7.874016
vt 14.76378 13.77953
vt 19.68504 15.74803
vt 14.76378 15.74803
vt -14.76378 13.77953
vt -19.68504 15.74803
vt 11.07283 13.77953
vt -11.07283 13.77953
vt -14.76378 15.74803
vt 19.68504 40.74168
vt 19.68504 -38.3912
vt 14.76378 40.74168
vt 14.76378 -38.3912
vt -14.76378 40.74168
vt -14.76378 -38.3912
vt -19.68504 40.74168
vt -19.68504 -38.3912

usemtl dirtDark

f 3/3/1 2/2/1 1/1/1
f 2/2/1 3/3/1 4/4/1
f 2/7/2 5/6/2 1/5/2
f 5/6/2 2/7/2 6/8/2
f 9/11/3 8/10/3 7/9/3
f 8/10/3 9/11/3 10/12/3
f 8/15/1 12/14/1 11/13/1
f 12/14/1 8/15/1 10/16/1

usemtl dirt

f 11/13/1 4/4/1 3/3/1
f 4/4/1 11/13/1 12/14/1
f 15/19/4 14/18/4 13/17/4
f 14/18/4 15/19/4 16/20/4
f 17/23/2 16/22/2 15/21/2
f 16/22/2 17/23/2 18/24/2
f 19/27/5 15/26/5 13/25/5
f 15/26/5 19/27/5 17/28/5
f 20/31/6 17/30/6 19/29/6
f 17/30/6 20/31/6 18/32/6
f 20/35/3 13/34/3 14/33/3
f 13/34/3 20/35/3 19/36/3

usemtl foliage

f 20/31/6 2/37/6 18/32/6
f 2/37/6 20/31/6 21/38/6
f 18/32/6 2/37/6 4/39/6
f 2/37/6 21/38/6 6/40/6
f 12/41/6 18/32/6 4/39/6
f 10/42/6 18/32/6 12/41/6
f 18/32/6 10/42/6 22/43/6
f 22/43/6 10/42/6 9/44/6
f 16/20/4 8/45/4 14/18/4
f 8/45/4 16/20/4 23/46/4
f 8/45/4 23/46/4 7/47/4
f 1/48/4 14/18/4 8/45/4
f 14/18/4 1/48/4 24/49/4
f 1/48/4 8/45/4 11/50/4
f 1/48/4 11/50/4 3/51/4
f 24/49/4 1/48/4 5/52/4
f 18/24/2 23/6/2 16/22/2
f 23/6/2 18/24/2 22/8/2
f 21/11/3 14/33/3 24/9/3
f 14/33/3 21/11/3 20/35/3
f 5/55/1 21/54/1 24/53/1
f 21/54/1 5/55/1 6/56/1
f 23/59/1 9/58/1 7/57/1
f 9/58/1 23/59/1 22/60/1

