# Created by Kenney (www.kenney.nl)

mtllib tile_endSpawn.mtl

g tile_endSpawn

v -0.5 0 -0.5
v 0.5 0 -0.5
v -0.5 0.1 -0.5
v 0.5 0.1 -0.5
v 0.5 0.1 0.5
v 0.5 0 0.5
v -0.5 0 0.5
v -0.5 0.1 0.5
v 0.28125 0.15 0.5
v -0.28125 0.15 0.5
v 0.28125 0.15 0.28125
v -0.28125 0.15 0.28125
v 0.375 0.15 0.5
v 0.5 0.2 0.5
v 0.375 0.2 0.5
v -0.375 0.15 0.5
v -0.5 0.2 0.5
v -0.375 0.2 0.5
v -0.5 0.2 -0.5
v 0.5 0.2 -0.5
v 0.375 0.2 -0.375
v -0.375 0.2 -0.375
v 0.375 0.15 -0.375
v -0.375 0.15 -0.375
v 0.28125 0.15 -0.28125
v -0.28125 0.15 -0.28125
v 0.1803489 0.15 -0.1803489
v -0.1803489 0.15 -0.1803489
v 0.1803489 0.15 0.1803489
v -0.1803489 0.15 0.1803489
v 0.1442791 0.1 -0.1442791
v 0.1442791 0.1 0.1442791
v -0.1442791 0.1 -0.1442791
v -0.1442791 0.1 0.1442791

vn 0 0 -1
vn 1 0 0
vn 0 0 1
vn -1 0 0
vn 0 -1 0
vn 0 1 0
vn 0.8109974 0.5850499 0
vn -0.8109974 0.5850499 0
vn 0 0.5850499 -0.8109974
vn 0 0.5850499 0.8109974

vt 19.68504 0
vt -19.68504 0
vt 19.68504 3.937008
vt -19.68504 3.937008
vt 19.68504 19.68504
vt 19.68504 -19.68504
vt -19.68504 19.68504
vt -19.68504 -19.68504
vt -11.07283 19.68504
vt 11.07283 19.68504
vt -11.07283 11.07283
vt 11.07283 11.07283
vt 14.76378 5.905512
vt 19.68504 7.874016
vt 14.76378 7.874016
vt -14.76378 5.905512
vt -19.68504 7.874016
vt 11.07283 5.905512
vt -11.07283 5.905512
vt -14.76378 7.874016
vt -14.76378 19.68504
vt -14.76378 -14.76378
vt 14.76378 -14.76378
vt 14.76378 19.68504
vt 19.68504 5.905512
vt -11.07283 -11.07283
vt 11.07283 -11.07283
vt -19.68504 5.905512
vt -7.100349 -7.100349
vt 7.100349 -7.100349
vt -7.100349 7.100349
vt 7.100349 7.100349
vt -5.68028 -5.68028
vt -5.68028 5.68028
vt 5.68028 -5.68028
vt 5.68028 5.68028
vt 7.100349 8.943413
vt 5.68028 6.51615
vt -7.100349 8.943413
vt -5.68028 6.51615

usemtl dirt

f 3/3/1 2/2/1 1/1/1
f 2/2/1 3/3/1 4/4/1
f 5/4/2 2/1/2 4/3/2
f 2/1/2 5/4/2 6/2/2
f 5/3/3 7/2/3 6/1/3
f 7/2/3 5/3/3 8/4/3
f 7/1/4 3/4/4 1/2/4
f 3/4/4 7/1/4 8/3/4
f 7/7/5 2/6/5 6/5/5
f 2/6/5 7/7/5 1/8/5
f 11/11/6 10/10/6 9/9/6
f 10/10/6 11/11/6 12/12/6

usemtl foliage

f 5/3/3 13/13/3 8/4/3
f 13/13/3 5/3/3 14/14/3
f 13/13/3 14/14/3 15/15/3
f 16/16/3 8/4/3 13/13/3
f 8/4/3 16/16/3 17/17/3
f 16/16/3 13/13/3 9/18/3
f 16/16/3 9/18/3 10/19/3
f 17/17/3 16/16/3 18/20/3
f 19/14/1 4/4/1 3/3/1
f 4/4/1 19/14/1 20/17/1
f 14/17/2 4/3/2 20/14/2
f 4/3/2 14/17/2 5/4/2
f 8/3/4 19/17/4 3/4/4
f 19/17/4 8/3/4 17/14/4
f 20/8/6 15/21/6 14/7/6
f 15/21/6 20/8/6 21/22/6
f 21/22/6 20/8/6 19/6/6
f 21/22/6 19/6/6 22/23/6
f 22/23/6 19/6/6 17/5/6
f 17/5/6 18/24/6 22/23/6

usemtl dirtDark

f 13/25/4 21/20/4 23/16/4
f 21/20/4 13/25/4 15/14/4
f 21/15/3 24/16/3 23/13/3
f 24/16/3 21/15/3 22/20/3
f 23/22/6 9/9/6 13/21/6
f 9/9/6 23/22/6 25/26/6
f 25/26/6 23/22/6 24/23/6
f 25/26/6 24/23/6 26/27/6
f 26/27/6 24/23/6 16/24/6
f 16/24/6 12/12/6 26/27/6
f 12/12/6 16/24/6 10/10/6
f 11/11/6 9/9/6 25/26/6
f 18/17/2 24/13/2 22/15/2
f 24/13/2 18/17/2 16/28/2

usemtl stone

f 25/26/6 27/29/6 11/11/6
f 27/29/6 25/26/6 26/27/6
f 27/29/6 26/27/6 28/30/6
f 28/30/6 26/27/6 12/12/6
f 11/11/6 29/31/6 12/12/6
f 29/31/6 11/11/6 27/29/6
f 12/12/6 29/31/6 30/32/6
f 12/12/6 30/32/6 28/30/6

usemtl stoneDark

f 33/35/6 32/34/6 31/33/6
f 32/34/6 33/35/6 34/36/6
f 30/39/7 33/38/7 28/37/7
f 33/38/7 30/39/7 34/40/7
f 31/40/8 29/37/8 27/39/8
f 29/37/8 31/40/8 32/38/8
f 30/37/9 32/40/9 34/38/9
f 32/40/9 30/37/9 29/39/9
f 27/37/10 33/40/10 31/38/10
f 33/40/10 27/37/10 28/39/10

