# Created by Kenney (www.kenney.nl)

mtllib tile_wideTransition.mtl

g tile_wideTransition

v 0.5 0.2 -0.5
v 0.5 0.2 -0.4375
v 0.375 0.2 -0.5
v 0.375 0.2 -0.4375
v 0.875 0.2 0.4375
v 1 0.2 0.5
v 1 0.2 0.4375
v 0.875 0.2 0.5
v -0.375 0.2 -0.5
v -0.375 0.2 -0.4375
v -0.5 0.2 -0.5
v -0.5 0.2 -0.4375
v -0.875 0.2 0.4375
v -1 0.2 0.4375
v -0.875 0.2 0.5
v -1 0.2 0.5
v 1 0.1 0.4375
v 1 0.1 0.5
v 0.5 0.1 -0.5
v -0.375 0.15 -0.5
v -0.5 0.1 -0.5
v 0.375 0.15 -0.5
v -0.28125 0.15 -0.5
v 0.28125 0.15 -0.5
v -1 0.1 0.4375
v -1 0.1 0.5
v -0.5 0.1 -0.4375
v 0.875 0.15 0.5
v -0.875 0.15 0.5
v 0.78125 0.15 0.5
v -0.78125 0.15 0.5
v 0.5 0.1 -0.4375
v 0.375 0.15 -0.4375
v 0.875 0.15 0.4375
v -0.875 0.15 0.4375
v -0.375 0.15 -0.4375
v 0.28125 0.15 -0.4375
v 0.78125 0.15 0.4375
v -0.28125 0.15 -0.4375
v -0.78125 0.15 0.4375
v 1 1.240785E-16 0.5
v 1 1.240785E-16 0.4375
v -1 0 0.5
v 0.5 1.240785E-16 -0.4375
v 0.5 1.240785E-16 -0.5
v -0.5 0 -0.4375
v -1 0 0.4375
v -0.5 0 -0.5

vn 0 1 0
vn 1 0 0
vn 0 0 -1
vn -1 0 0
vn -0.8682431 0 -0.4961389
vn 0 0 1
vn 0.8682431 0 -0.4961389
vn -0.8682431 0 0.4961389
vn 0.8682431 0 0.4961389
vn 0 -1 0

vt -19.68504 -19.68504
vt -19.68504 -17.22441
vt -14.76378 -19.68504
vt -14.76378 -17.22441
vt -34.44882 17.22441
vt -39.37008 19.68504
vt -39.37008 17.22441
vt -34.44882 19.68504
vt 14.76378 -19.68504
vt 14.76378 -17.22441
vt 19.68504 -19.68504
vt 19.68504 -17.22441
vt 34.44882 17.22441
vt 39.37008 17.22441
vt 34.44882 19.68504
vt 39.37008 19.68504
vt -17.22441 7.874016
vt -17.22441 3.937008
vt -19.68504 7.874016
vt -19.68504 3.937008
vt 14.76378 5.905512
vt 19.68504 3.937008
vt 19.68504 7.874016
vt 14.76378 7.874016
vt -14.76378 5.905512
vt 11.07283 5.905512
vt -11.07283 5.905512
vt -14.76378 7.874016
vt 17.22441 3.937008
vt 17.22441 7.874016
vt -5.188461 3.937008
vt -5.188461 7.874016
vt 34.488 3.937008
vt 34.488 7.874016
vt -39.37008 3.937008
vt 34.44882 5.905512
vt 39.37008 3.937008
vt 39.37008 7.874016
vt 34.44882 7.874016
vt -34.44882 5.905512
vt -39.37008 7.874016
vt 30.75787 5.905512
vt -30.75787 5.905512
vt -34.44882 7.874016
vt 5.188461 7.874016
vt 5.188461 3.937008
vt -34.488 7.874016
vt -34.488 3.937008
vt -7.630089 7.874016
vt 32.04638 7.874016
vt -7.630089 5.905512
vt 32.04638 5.905512
vt -19.68504 5.905512
vt -17.22441 5.905512
vt 17.22441 5.905512
vt 19.68504 5.905512
vt 7.630089 7.874016
vt 7.630089 5.905512
vt -32.04638 7.874016
vt -32.04638 5.905512
vt -11.07283 -19.68504
vt -11.07283 -17.22441
vt -30.75787 17.22441
vt -30.75787 19.68504
vt 11.07283 -19.68504
vt 11.07283 -17.22441
vt 30.75787 17.22441
vt 30.75787 19.68504
vt 5.188461 4.884981E-15
vt -34.488 4.884981E-15
vt 19.68504 4.884981E-15
vt 17.22441 4.884981E-15
vt -39.37008 -7.81597E-13
vt 39.37008 -7.76712E-13
vt 19.68504 6.738987E-12
vt -19.68504 6.743872E-12
vt -19.68504 1.008971E-11
vt -17.22441 1.008971E-11
vt -17.22441 4.884981E-15
vt -19.68504 4.884981E-15
vt 17.22441 0
vt 19.68504 0
vt -5.188461 0
vt 34.488 0

usemtl foliage

f 3/3/1 2/2/1 1/1/1
f 4/4/1 2/2/1 3/3/1
f 5/5/1 2/2/1 4/4/1
f 6/6/1 2/2/1 5/5/1
f 2/2/1 6/6/1 7/7/1
f 8/8/1 6/6/1 5/5/1
f 11/11/1 10/10/1 9/9/1
f 10/10/1 11/11/1 12/12/1
f 10/10/1 12/12/1 13/13/1
f 13/13/1 12/12/1 14/14/1
f 13/13/1 14/14/1 15/15/1
f 15/15/1 14/14/1 16/16/1
f 6/19/2 17/18/2 7/17/2
f 17/18/2 6/19/2 18/20/2
f 21/22/3 20/21/3 19/20/3
f 20/21/3 21/22/3 11/23/3
f 20/21/3 11/23/3 9/24/3
f 22/25/3 19/20/3 20/21/3
f 19/20/3 22/25/3 1/19/3
f 22/25/3 20/21/3 23/26/3
f 22/25/3 23/26/3 24/27/3
f 1/19/3 22/25/3 3/28/3
f 26/22/4 14/30/4 25/29/4
f 14/30/4 26/22/4 16/23/4
f 25/33/5 12/32/5 27/31/5
f 12/32/5 25/33/5 14/34/5
f 27/18/4 11/19/4 21/20/4
f 11/19/4 27/18/4 12/17/4
f 18/37/6 28/36/6 26/35/6
f 28/36/6 18/37/6 6/38/6
f 28/36/6 6/38/6 8/39/6
f 29/40/6 26/35/6 28/36/6
f 26/35/6 29/40/6 16/41/6
f 29/40/6 28/36/6 30/42/6
f 29/40/6 30/42/6 31/43/6
f 16/41/6 29/40/6 15/44/6
f 2/30/2 19/22/2 1/23/2
f 19/22/2 2/30/2 32/29/2
f 7/47/7 32/46/7 2/45/7
f 32/46/7 7/47/7 17/48/7

usemtl dirtDark

f 33/51/8 5/50/8 4/49/8
f 5/50/8 33/51/8 34/52/8
f 22/53/4 4/17/4 3/19/4
f 4/17/4 22/53/4 33/54/4
f 15/19/2 35/54/2 13/17/2
f 35/54/2 15/19/2 29/53/2
f 28/56/4 5/30/4 34/55/4
f 5/30/4 28/56/4 8/23/4
f 13/59/9 36/58/9 10/57/9
f 36/58/9 13/59/9 35/60/9
f 9/23/2 36/55/2 20/56/2
f 36/55/2 9/23/2 10/30/2
f 24/61/1 33/4/1 22/3/1
f 37/62/1 33/4/1 24/61/1
f 38/63/1 33/4/1 37/62/1
f 28/8/1 33/4/1 38/63/1
f 33/4/1 28/8/1 34/5/1
f 30/64/1 28/8/1 38/63/1
f 20/9/1 39/66/1 23/65/1
f 39/66/1 20/9/1 36/10/1
f 36/10/1 40/67/1 39/66/1
f 40/67/1 36/10/1 35/13/1
f 40/67/1 35/13/1 31/68/1
f 31/68/1 35/13/1 29/15/1

usemtl dirt

f 43/6/10 42/14/10 41/16/10
f 42/14/10 43/6/10 44/12/10
f 44/12/10 43/6/10 45/11/10
f 45/11/10 43/6/10 46/2/10
f 46/2/10 43/6/10 47/7/10
f 48/1/10 45/11/10 46/2/10
f 17/48/7 44/69/7 32/46/7
f 44/69/7 17/48/7 42/70/7
f 32/29/2 45/71/2 19/22/2
f 45/71/2 32/29/2 44/72/2
f 41/74/6 26/35/6 43/73/6
f 26/35/6 41/74/6 18/37/6
f 23/65/1 37/62/1 24/61/1
f 39/66/1 37/62/1 23/65/1
f 31/68/1 37/62/1 39/66/1
f 30/64/1 37/62/1 31/68/1
f 37/62/1 30/64/1 38/63/1
f 31/68/1 39/66/1 40/67/1
f 21/22/3 45/76/3 48/75/3
f 45/76/3 21/22/3 19/20/3
f 48/77/4 27/18/4 21/20/4
f 27/18/4 48/77/4 46/78/4
f 18/20/2 42/79/2 17/18/2
f 42/79/2 18/20/2 41/80/2
f 43/82/4 25/29/4 47/81/4
f 25/29/4 43/82/4 26/22/4
f 47/84/5 27/31/5 46/83/5
f 27/31/5 47/84/5 25/33/5

