# Created by Kenney (www.kenney.nl)

mtllib tile_endRoundSpawn.mtl

g tile_endRoundSpawn

v 0.5 0.2 -0.5
v 0.5 0.1 -0.5
v 0.5 0.2 0.5
v 0.5 0.1 0.5
v -0.5 0.1 -0.5
v -0.5 0.2 -0.5
v -0.5 0.1 0.5
v -0.5 0.2 0.5
v 0.375 0.15 0.5
v 0.28125 0.15 0.5
v 0.375 0.2 0.5
v -0.375 0.15 0.5
v -0.28125 0.15 0.5
v -0.375 0.2 0.5
v 0.375 0.2 -2.237925E-14
v 0.3622222 0.2 -0.09705714
v 0.3247595 0.2 -0.1875
v 0.265165 0.2 -0.265165
v 0.1875 0.2 -0.3247595
v 0.09705714 0.2 -0.3622222
v -1.732587E-14 0.2 -0.375
v -0.09705714 0.2 -0.3622222
v -0.1875 0.2 -0.3247595
v -0.265165 0.2 -0.265165
v -0.3247595 0.2 -0.1875
v -0.3622222 0.2 -0.09705714
v -0.375 0.2 1.732587E-14
v -0.1875 0.15 -0.3247595
v -0.265165 0.15 -0.265165
v -0.09705714 0.15 -0.3622222
v -1.732587E-14 0.15 -0.375
v -0.375 0.15 1.732587E-14
v 0.09705714 0.15 -0.3622222
v -0.3247595 0.15 -0.1875
v 0.375 0.15 -2.237925E-14
v 0.3622222 0.15 -0.09705714
v 0.3247595 0.15 -0.1875
v 0.28125 0.15 0.0061447
v 0.265165 0.15 -0.265165
v 0.2708852 0.15 -0.07258348
v 0.2428691 0.15 -0.1402205
v 0.1875 0.15 -0.3247595
v 0.1983017 0.15 -0.1983017
v 0.1402205 0.15 -0.2428691
v 0.07258348 0.15 -0.2708852
v -1.299441E-14 0.15 -0.280441
v -0.07258348 0.15 -0.2708852
v -0.1402205 0.15 -0.2428691
v -0.1983017 0.15 -0.1983017
v -0.2428691 0.15 -0.1402205
v -0.2708852 0.15 -0.07258348
v -0.28125 0.15 0.0061447
v -0.3622222 0.15 -0.09705714
v 0.5 0 0.5
v 0.5 0 -0.5
v -0.5 0 0.5
v -0.5 0 -0.5
v 0.1402205 0.15 0.2551585
v 0.1983017 0.15 0.2105912
v 0.2428691 0.15 0.1525099
v 0.2708852 0.15 0.08487288
v 0.07258348 0.15 0.2831746
v 1.804779E-14 0.15 0.2927304
v -0.07258348 0.15 0.2831746
v -0.1402205 0.15 0.2551585
v -0.1983017 0.15 0.2105912
v -0.2428691 0.15 0.1525099
v -0.2708852 0.15 0.08487288
v 0.1811362 0.15 0.0061447
v 0.1741827 0.15 -0.04667212
v 0.156168 0.15 -0.09016361
v 0.1275106 0.15 -0.1275106
v 0.09016361 0.15 -0.156168
v 0.04667212 0.15 -0.1741827
v -7.941025E-15 0.15 -0.1803272
v -0.04667212 0.15 -0.1741827
v -0.09016361 0.15 -0.156168
v -0.1275106 0.15 -0.1275106
v -0.156168 0.15 -0.09016361
v -0.1741827 0.15 -0.04667212
v -0.1811362 0.15 0.0061447
v -0.1741827 0.15 0.05896152
v -0.156168 0.15 0.102453
v -0.1275106 0.15 0.1398
v -0.09016361 0.15 0.1684573
v -0.04667212 0.15 0.1864721
v 1.299441E-14 0.15 0.1926166
v 0.04667212 0.15 0.1864721
v 0.09016361 0.15 0.1684573
v 0.1275106 0.15 0.1398
v 0.156168 0.15 0.102453
v 0.1741827 0.15 0.05896152
v 0.1449089 0.1 0.0061447
v 0.1393462 0.1 0.04839815
v 0.1393462 0.1 -0.03610875
v 0.1249344 0.1 0.08319135
v 0.1249344 0.1 -0.07090195
v 0.1020085 0.1 0.1130689
v 0.1020085 0.1 -0.1007795
v 0.07213089 0.1 0.1359948
v 0.07213089 0.1 -0.1237054
v 0.03733769 0.1 0.1504066
v 0.03733769 0.1 -0.1381172
v 1.155058E-14 0.1 0.1553222
v -5.775291E-15 0.1 -0.1430328
v -0.03733769 0.1 0.1504066
v -0.03733769 0.1 -0.1381172
v -0.07213089 0.1 0.1359948
v -0.07213089 0.1 -0.1237054
v -0.1020085 0.1 0.1130689
v -0.1020085 0.1 -0.1007795
v -0.1249344 0.1 0.08319135
v -0.1249344 0.1 -0.07090195
v -0.1393462 0.1 0.04839815
v -0.1393462 0.1 -0.03610875
v -0.1449089 0.1 0.0061447

vn 1 0 0
vn -1 0 0
vn 0 0 1
vn 0 0 -1
vn 0 1 0
vn 0.5 0 0.8660254
vn 0.7071068 0 0.7071068
vn 0.258819 0 0.9659258
vn -0.258819 0 0.9659258
vn 0.8660254 0 0.5
vn 0.9659258 0 0.258819
vn 0.9914449 0 0.1305262
vn -0.7071068 0 0.7071068
vn -0.5 0 0.8660254
vn -0.9659258 0 0.258819
vn -0.9914449 0 0.1305262
vn -0.8660254 0 0.5
vn 0 -1 0
vn -0.2079018 0.5974551 0.7744832
vn 0 0.5978882 0.8015795
vn -0.2072409 0.5974579 0.7746581
vn -0.7814054 0.5883598 -0.2079383
vn -0.7807062 0.5884002 -0.2104356
vn -0.698909 0.591485 -0.4020841
vn -0.6977328 0.5915171 -0.4040748
vn -0.2079018 0.5974551 -0.7744832
vn -0.4020392 0.5961825 -0.6949323
vn -0.2072409 0.5974579 -0.7746581
vn -0.400889 0.596193 -0.6955875
vn -0.568137 0.5941708 0.5693693
vn -0.6977328 0.5915171 0.4040748
vn -0.5694765 0.5941496 0.5680518
vn -0.698909 0.591485 0.4020841
vn -0.5694765 0.5941496 -0.5680518
vn -0.568137 0.5941708 -0.5693693
vn -0.7807062 0.5884002 0.2104356
vn -0.7814054 0.5883598 0.2079383
vn -0.4020392 0.5961825 0.6949323
vn -0.400889 0.596193 0.6955875
vn 0.568137 0.5941708 0.5693693
vn 0.5694765 0.5941496 0.5680518
vn 0.6977328 0.5915171 0.4040748
vn 0.698909 0.591485 0.4020841
vn 0.7807062 0.5884002 0.2104356
vn 0.7814054 0.5883598 0.2079383
vn 0.8097856 0.5867259 0
vn 0.2079018 0.5974551 0.7744832
vn 0.2072409 0.5974579 0.7746581
vn 0.4020392 0.5961825 0.6949323
vn 0.400889 0.596193 0.6955875
vn 0.7814054 0.5883598 -0.2079383
vn 0.7807062 0.5884002 -0.2104356
vn 0.698909 0.591485 -0.4020841
vn 0.6977328 0.5915171 -0.4040748
vn 0.5694765 0.5941496 -0.5680518
vn 0.568137 0.5941708 -0.5693693
vn 0.4020392 0.5961825 -0.6949323
vn 0.400889 0.596193 -0.6955875
vn 0.2079018 0.5974551 -0.7744832
vn 0.2072409 0.5974579 -0.7746581
vn 0 0.5978882 -0.8015795
vn -0.8097856 0.5867259 0

vt 19.68504 7.874016
vt 19.68504 3.937008
vt -19.68504 7.874016
vt -19.68504 3.937008
vt 14.76378 5.905512
vt 11.07283 5.905512
vt 14.76378 7.874016
vt -14.76378 5.905512
vt -11.07283 5.905512
vt -14.76378 7.874016
vt -19.68504 19.68504
vt -14.76378 19.68504
vt -19.68504 -19.68504
vt -14.76378 -8.798523E-13
vt -14.26072 -3.821147
vt -12.78581 -7.38189
vt -10.43957 -10.43957
vt -7.38189 -12.78581
vt -3.821147 -14.26072
vt 19.68504 -19.68504
vt 6.835879E-13 -14.76378
vt 3.821147 -14.26072
vt 7.38189 -12.78581
vt 10.43957 -10.43957
vt 12.78581 -7.38189
vt 14.26072 -3.821147
vt 14.76378 6.833417E-13
vt 19.68504 19.68504
vt 14.76378 19.68504
vt 1.92706 5.905512
vt -1.92706 5.905512
vt 1.92706 7.874016
vt -1.92706 7.874016
vt 5.902365E-14 7.874016
vt 5.902365E-14 5.905512
vt -19.68504 5.905512
vt -11.07283 19.68504
vt -14.76378 -8.8112E-13
vt -11.07283 0.2419173
vt -10.66477 -2.857617
vt -9.561774 -5.520493
vt -7.807156 -7.807156
vt -5.520493 -9.561774
vt -2.857617 -10.66477
vt 6.813993E-13 -14.76378
vt 5.108691E-13 -11.04099
vt 2.857617 -10.66477
vt 5.520493 -9.561774
vt 7.807156 -7.807156
vt 9.561774 -5.520493
vt 10.66477 -2.857617
vt 11.07283 0.2419173
vt 11.07283 19.68504
vt 14.76378 6.82074E-13
vt -1.399283E-13 5.905512
vt -1.399283E-13 7.874016
vt 19.68504 5.905512
vt 19.68504 0
vt -19.68504 0
vt -5.520493 10.04561
vt -7.807156 8.290991
vt -9.561774 6.004327
vt -10.66477 3.341452
vt -2.857617 11.14861
vt -7.10622E-13 11.52482
vt 2.857617 11.14861
vt 5.520493 10.04561
vt 7.807156 8.290991
vt 9.561774 6.004327
vt 10.66477 3.341452
vt -7.131346 0.2419173
vt -6.857587 -1.837485
vt -6.148345 -3.549748
vt -5.020103 -5.020103
vt -3.549748 -6.148345
vt -1.837485 -6.857587
vt 3.125595E-13 -7.099497
vt 1.837485 -6.857587
vt 3.549748 -6.148345
vt 5.020103 -5.020103
vt 6.148345 -3.549748
vt 6.857587 -1.837485
vt 7.131346 0.2419173
vt 6.857587 2.32132
vt 6.148345 4.033583
vt 5.020103 5.503937
vt 3.549748 6.632179
vt 1.837485 7.341422
vt -5.116701E-13 7.583332
vt -1.837485 7.341422
vt -3.549748 6.632179
vt -5.020103 5.503937
vt -6.148345 4.033583
vt -6.857587 2.32132
vt -5.705077 0.2419173
vt -5.48607 1.905439
vt -5.48607 -1.421605
vt -4.918675 3.27525
vt -4.918675 -2.791415
vt -4.016082 4.451533
vt -4.016082 -3.967698
vt -2.839799 5.354127
vt -2.839799 -4.870292
vt -1.469988 5.921521
vt -1.469988 -5.437686
vt -4.547988E-13 6.115048
vt 2.273222E-13 -5.631214
vt 1.469988 5.921521
vt 1.469988 -5.437686
vt 2.839799 5.354127
vt 2.839799 -4.870292
vt 4.016082 4.451533
vt 4.016082 -3.967698
vt 4.918675 3.27525
vt 4.918675 -2.791415
vt 5.48607 1.905439
vt 5.48607 -1.421605
vt 5.705077 0.2419173
vt 0.7476515 6.485078
vt -0.7350209 6.485078
vt 0.9266703 8.93337
vt -0.9266703 8.93337
vt -0.3390318 6.589761
vt -0.4796654 9.020655
vt 1.143641 6.589761
vt 1.373675 9.020655
vt 0.9079762 6.750104
vt -0.5746963 6.750104
vt 1.111826 9.196454
vt -0.7415148 9.196454
vt -0.9266703 8.920083
vt 0.9266703 8.920083
vt -0.702951 6.482755
vt 0.7797214 6.482755
vt 1.006422 6.711202
vt -0.4762504 6.711202
vt 1.22121 9.153807
vt -0.6321304 9.153807
vt -0.3958696 6.656435
vt -0.5428185 9.093763
vt 1.086803 6.656435
vt 1.310522 9.093763
vt -0.9266703 8.91202
vt 0.9266703 8.91202
vt -0.6966357 6.481125
vt 0.7860367 6.481125
vt 0.7707902 6.483943
vt -0.7118822 6.483943
vt 0.9266703 8.926549
vt -0.9266703 8.926549
vt 0.7598518 6.484707
vt -0.7228207 6.484707
vt 0.9266703 8.931057
vt -0.9266703 8.931057
vt 0.702951 6.482755
vt -0.7797214 6.482755
vt 0.6966357 6.481125
vt -0.7860367 6.481125
vt 0.9266703 8.902836
vt 0.6933667 6.479079
vt -1.170675 8.902836
vt -0.9845096 6.479079
vt -0.7476515 6.485078
vt 0.7350209 6.485078
vt 0.7228207 6.484707
vt -0.7598518 6.484707
vt 0.7118822 6.483943
vt -0.7707902 6.483943
vt 0.5048143 6.515924
vt -1.173062 6.515924
vt 0.6909797 8.93968
vt -1.406366 8.93968
vt 0.3390318 6.589761
vt -1.143641 6.589761
vt 0.4796654 9.020655
vt -1.373675 9.020655
vt 0.3958696 6.656435
vt -1.086803 6.656435
vt 0.5428185 9.093763
vt -1.310522 9.093763
vt 0.4762504 6.711202
vt -1.006422 6.711202
vt 0.6321304 9.153807
vt -1.22121 9.153807
vt 0.5746963 6.750104
vt -0.9079762 6.750104
vt 0.7415148 9.196454
vt -1.111826 9.196454
vt 0.798174 6.770298
vt -0.6844984 6.770298
vt 0.9898233 9.218591
vt -0.8635172 9.218591
vt 0.6844984 6.770298
vt -0.798174 6.770298
vt 0.8635172 9.218591
vt -0.9898233 9.218591
vt -0.9266703 8.902836
vt 1.170675 8.902836
vt -0.6933667 6.479079
vt 0.9845096 6.479079
vt -0.6909797 8.93968
vt 1.406366 8.93968
vt -0.5048143 6.515924
vt 1.173062 6.515924

usemtl foliage

f 3/3/1 2/2/1 1/1/1
f 2/2/1 3/3/1 4/4/1
f 7/2/2 6/3/2 5/4/2
f 6/3/2 7/2/2 8/1/2
f 4/2/3 9/5/3 7/4/3
f 9/5/3 4/2/3 3/1/3
f 7/4/3 9/5/3 10/6/3
f 9/5/3 3/1/3 11/7/3
f 12/8/3 7/4/3 10/6/3
f 7/4/3 12/8/3 8/3/3
f 12/8/3 10/6/3 13/9/3
f 8/3/3 12/8/3 14/10/3
f 6/1/4 2/4/4 5/2/4
f 2/4/4 6/1/4 1/3/4
f 1/13/5 11/12/5 3/11/5
f 11/12/5 1/13/5 15/14/5
f 15/14/5 1/13/5 16/15/5
f 16/15/5 1/13/5 17/16/5
f 17/16/5 1/13/5 18/17/5
f 18/17/5 1/13/5 19/18/5
f 19/18/5 1/13/5 20/19/5
f 20/19/5 1/13/5 6/20/5
f 20/19/5 6/20/5 21/21/5
f 21/21/5 6/20/5 22/22/5
f 22/22/5 6/20/5 23/23/5
f 23/23/5 6/20/5 24/24/5
f 24/24/5 6/20/5 25/25/5
f 25/25/5 6/20/5 26/26/5
f 26/26/5 6/20/5 27/27/5
f 27/27/5 6/20/5 8/28/5
f 8/28/5 14/29/5 27/27/5

usemtl dirtDark

f 23/32/6 29/31/7 28/30/6
f 29/31/7 23/32/6 24/33/7
f 31/30/3 22/33/8 30/31/8
f 22/33/8 31/30/3 21/32/3
f 22/32/8 28/31/6 30/30/8
f 28/31/6 22/32/8 23/33/6
f 14/3/1 32/35/1 27/34/1
f 32/35/1 14/3/1 12/36/1
f 33/30/9 21/33/3 31/31/3
f 21/33/3 33/30/9 20/32/9
f 25/33/10 29/30/7 24/32/7
f 29/30/7 25/33/10 34/31/10
f 35/38/5 10/37/5 9/12/5
f 10/37/5 35/38/5 36/15/5
f 10/37/5 36/15/5 37/16/5
f 10/37/5 37/16/5 38/39/5
f 38/39/5 37/16/5 39/17/5
f 38/39/5 39/17/5 40/40/5
f 40/40/5 39/17/5 41/41/5
f 41/41/5 39/17/5 42/18/5
f 41/41/5 42/18/5 43/42/5
f 43/42/5 42/18/5 44/43/5
f 44/43/5 42/18/5 33/19/5
f 44/43/5 33/19/5 45/44/5
f 45/44/5 33/19/5 31/45/5
f 45/44/5 31/45/5 46/46/5
f 46/46/5 31/45/5 47/47/5
f 47/47/5 31/45/5 30/22/5
f 47/47/5 30/22/5 48/48/5
f 48/48/5 30/22/5 28/23/5
f 48/48/5 28/23/5 49/49/5
f 49/49/5 28/23/5 29/24/5
f 49/49/5 29/24/5 50/50/5
f 50/50/5 29/24/5 51/51/5
f 51/51/5 29/24/5 34/25/5
f 51/51/5 34/25/5 52/52/5
f 12/29/5 52/52/5 34/25/5
f 52/52/5 12/29/5 13/53/5
f 12/29/5 34/25/5 53/26/5
f 12/29/5 53/26/5 32/54/5
f 27/33/12 53/30/11 26/32/11
f 53/30/11 27/33/12 32/31/12
f 26/33/11 34/30/10 25/32/10
f 34/30/10 26/33/11 53/31/11
f 18/32/13 42/31/14 39/30/13
f 42/31/14 18/32/13 19/33/14
f 35/30/16 16/33/15 36/31/15
f 16/33/15 35/30/16 15/32/16
f 9/57/2 15/56/2 35/55/2
f 15/56/2 9/57/2 11/1/2
f 37/30/17 18/33/13 39/31/13
f 18/33/13 37/30/17 17/32/17
f 19/32/14 33/31/9 42/30/14
f 33/31/9 19/32/14 20/33/9
f 36/30/15 17/33/17 37/31/17
f 17/33/17 36/30/15 16/32/15

usemtl dirt

f 56/11/18 55/20/18 54/28/18
f 55/20/18 56/11/18 57/13/18
f 4/4/1 55/58/1 2/2/1
f 55/58/1 4/4/1 54/59/1
f 56/58/2 5/4/2 57/59/2
f 5/4/2 56/58/2 7/2/2
f 4/2/3 56/59/3 54/58/3
f 56/59/3 4/2/3 7/4/3
f 5/2/4 55/59/4 57/58/4
f 55/59/4 5/2/4 2/4/4
f 10/37/5 58/60/5 13/53/5
f 58/60/5 10/37/5 59/61/5
f 59/61/5 10/37/5 60/62/5
f 60/62/5 10/37/5 61/63/5
f 61/63/5 10/37/5 38/39/5
f 13/53/5 58/60/5 62/64/5
f 13/53/5 62/64/5 63/65/5
f 13/53/5 63/65/5 64/66/5
f 13/53/5 64/66/5 65/67/5
f 13/53/5 65/67/5 66/68/5
f 13/53/5 66/68/5 67/69/5
f 13/53/5 67/69/5 68/70/5
f 13/53/5 68/70/5 52/52/5

usemtl stone

f 43/42/5 70/72/5 69/71/5
f 70/72/5 43/42/5 44/43/5
f 70/72/5 44/43/5 71/73/5
f 71/73/5 44/43/5 72/74/5
f 72/74/5 44/43/5 45/44/5
f 72/74/5 45/44/5 73/75/5
f 73/75/5 45/44/5 74/76/5
f 74/76/5 45/44/5 46/46/5
f 74/76/5 46/46/5 75/77/5
f 75/77/5 46/46/5 76/78/5
f 76/78/5 46/46/5 47/47/5
f 76/78/5 47/47/5 77/79/5
f 77/79/5 47/47/5 48/48/5
f 77/79/5 48/48/5 78/80/5
f 78/80/5 48/48/5 79/81/5
f 79/81/5 48/48/5 49/49/5
f 79/81/5 49/49/5 80/82/5
f 80/82/5 49/49/5 81/83/5
f 81/83/5 49/49/5 66/68/5
f 66/68/5 49/49/5 67/69/5
f 67/69/5 49/49/5 50/50/5
f 67/69/5 50/50/5 68/70/5
f 68/70/5 50/50/5 51/51/5
f 68/70/5 51/51/5 52/52/5
f 66/68/5 82/84/5 81/83/5
f 66/68/5 83/85/5 82/84/5
f 65/67/5 83/85/5 66/68/5
f 65/67/5 84/86/5 83/85/5
f 65/67/5 85/87/5 84/86/5
f 64/66/5 85/87/5 65/67/5
f 64/66/5 86/88/5 85/87/5
f 64/66/5 87/89/5 86/88/5
f 63/65/5 87/89/5 64/66/5
f 63/65/5 88/90/5 87/89/5
f 62/64/5 88/90/5 63/65/5
f 62/64/5 89/91/5 88/90/5
f 62/64/5 90/92/5 89/91/5
f 58/60/5 90/92/5 62/64/5
f 58/60/5 91/93/5 90/92/5
f 58/60/5 92/94/5 91/93/5
f 59/61/5 92/94/5 58/60/5
f 59/61/5 69/71/5 92/94/5
f 59/61/5 43/42/5 69/71/5
f 59/61/5 41/41/5 43/42/5
f 60/62/5 41/41/5 59/61/5
f 60/62/5 40/40/5 41/41/5
f 61/63/5 40/40/5 60/62/5
f 40/40/5 61/63/5 38/39/5

usemtl stoneDark

f 95/97/5 94/96/5 93/95/5
f 94/96/5 95/97/5 96/98/5
f 96/98/5 95/97/5 97/99/5
f 96/98/5 97/99/5 98/100/5
f 98/100/5 97/99/5 99/101/5
f 98/100/5 99/101/5 100/102/5
f 100/102/5 99/101/5 101/103/5
f 100/102/5 101/103/5 102/104/5
f 102/104/5 101/103/5 103/105/5
f 102/104/5 103/105/5 104/106/5
f 104/106/5 103/105/5 105/107/5
f 104/106/5 105/107/5 106/108/5
f 106/108/5 105/107/5 107/109/5
f 106/108/5 107/109/5 108/110/5
f 108/110/5 107/109/5 109/111/5
f 108/110/5 109/111/5 110/112/5
f 110/112/5 109/111/5 111/113/5
f 110/112/5 111/113/5 112/114/5
f 112/114/5 111/113/5 113/115/5
f 112/114/5 113/115/5 114/116/5
f 114/116/5 113/115/5 115/117/5
f 114/116/5 115/117/5 116/118/5
f 74/121/21 105/120/20 103/119/19
f 105/120/20 74/121/21 75/122/20
f 96/125/24 92/124/23 94/123/22
f 92/124/23 96/125/24 91/126/25
f 88/129/28 100/128/27 102/127/26
f 100/128/27 88/129/28 89/130/29
f 99/133/32 71/132/31 72/131/30
f 71/132/31 99/133/32 97/134/33
f 89/137/29 98/136/34 100/135/27
f 98/136/34 89/137/29 90/138/35
f 98/141/34 91/140/25 96/139/24
f 91/140/25 98/141/34 90/142/35
f 97/145/33 70/144/36 71/143/31
f 70/144/36 97/145/33 95/146/37
f 72/149/30 101/148/38 99/147/32
f 101/148/38 72/149/30 73/150/39
f 73/153/39 103/152/19 101/151/38
f 103/152/19 73/153/39 74/154/21
f 79/131/42 111/155/41 78/132/40
f 111/155/41 79/131/42 113/156/43
f 80/143/44 113/157/43 79/144/42
f 113/157/43 80/143/44 115/158/45
f 81/161/46 115/160/45 80/159/44
f 115/160/45 81/161/46 116/162/46
f 105/164/20 76/122/48 107/163/47
f 76/122/48 105/164/20 75/121/20
f 76/153/48 109/166/49 107/165/47
f 109/166/49 76/153/48 77/154/50
f 77/149/50 111/168/41 109/167/49
f 111/168/41 77/149/50 78/150/40
f 81/171/46 114/170/51 116/169/46
f 114/170/51 81/171/46 82/172/52
f 82/175/52 112/174/53 114/173/51
f 112/174/53 82/175/52 83/176/54
f 83/179/54 110/178/55 112/177/53
f 110/178/55 83/179/54 84/180/56
f 84/183/56 108/182/57 110/181/55
f 108/182/57 84/183/56 85/184/58
f 85/187/58 106/186/59 108/185/57
f 106/186/59 85/187/58 86/188/60
f 87/191/61 102/190/26 104/189/61
f 102/190/26 87/191/61 88/192/28
f 86/195/60 104/194/61 106/193/59
f 104/194/61 86/195/60 87/196/61
f 95/199/37 69/198/62 70/197/36
f 69/198/62 95/199/37 93/200/62
f 93/203/62 92/202/23 69/201/62
f 92/202/23 93/203/62 94/204/22

