# Created by Kenney (www.kenney.nl)

mtllib towerSquare_topA.mtl

g towerSquare_topA

v -0.5 0.3 0.5
v 0.25 0.4 0.5
v 0.5 0.3 0.5
v 0.5 0.5 0.5
v 0.125 0.4 0.5
v -0.125 0.4 0.5
v 0.25 0.5 0.5
v -0.125 0.5 0.5
v 0.125 0.5 0.5
v -0.25 0.4 0.5
v -0.5 0.5 0.5
v -0.25 0.5 0.5
v 0.5 0.5 -0.125
v 0.5 0.4 -0.125
v 0.5 0.5 0.125
v 0.5 0.4 0.125
v 0.5 0.4 -0.25
v 0.5 0.3 -0.5
v 0.5 0.5 -0.25
v 0.5 0.5 -0.5
v 0.5 0.4 0.25
v 0.5 0.5 0.25
v -0.25 0.4 -0.5
v -0.5 0.3 -0.5
v -0.5 0.5 -0.5
v -0.125 0.4 -0.5
v 0.125 0.4 -0.5
v -0.25 0.5 -0.5
v 0.125 0.5 -0.5
v -0.125 0.5 -0.5
v 0.25 0.4 -0.5
v 0.25 0.5 -0.5
v 0.435 0 0.435
v 0.435 0 -0.435
v -0.435 0 0.435
v -0.435 0 -0.435
v -0.5 0.4 -0.25
v -0.5 0.4 -0.125
v -0.5 0.4 0.125
v -0.5 0.5 -0.125
v -0.5 0.4 0.25
v -0.5 0.5 0.25
v -0.5 0.5 0.125
v -0.5 0.5 -0.25
v -0.3995556 0.5 0.25
v -0.3995556 0.5 0.3995556
v -0.25 0.5 0.3995556
v 0.3995556 0.5 0.25
v 0.3995556 0.5 0.3995556
v 0.25 0.5 0.3995556
v 0.3995556 0.5 -0.3995556
v 0.25 0.5 -0.3995556
v 0.3995556 0.5 -0.25
v -0.25 0.5 -0.3995556
v -0.3995556 0.5 -0.3995556
v -0.3995556 0.5 -0.25
v 0.3995556 0.4 -0.25
v 0.3995556 0.4 -0.125
v 0.3995556 0.4 0.25
v -0.125 0.4 0.3995556
v -0.25 0.4 0.3995556
v 0.25 0.4 0.3995556
v -0.3995556 0.4 0.25
v -0.3995556 0.4 -0.25
v -0.3995556 0.4 -0.125
v 0.25 0.4 -0.3995556
v 0.125 0.4 -0.3995556
v -0.25 0.4 -0.3995556
v 0.3995556 0.33 -0.3995556
v 0.3995556 0.33 0.3995556
v 0.3995556 0.4 0.125
v 0.3995556 0.5 -0.125
v 0.3995556 0.5 0.125
v -0.3995556 0.33 -0.3995556
v -0.125 0.4 -0.3995556
v 0.125 0.5 -0.3995556
v -0.125 0.5 -0.3995556
v -0.3995556 0.5 -0.125
v -0.3995556 0.5 0.125
v -0.3995556 0.4 0.125
v -0.3995556 0.33 0.3995556
v 0.125 0.4 0.3995556
v -0.125 0.5 0.3995556
v 0.125 0.5 0.3995556
v -0.435 0.09 -0.435
v -0.435 0.09 0.435
v 0.435 0.09 0.435
v 0.435 0.09 -0.435
v 0.2992119 0.33 -0.2992119
v 0.2992119 0.33 0.2992119
v -0.2992119 0.33 -0.2992119
v -0.2992119 0.33 0.2992119
v 0.435 0.18 0.435
v -0.435 0.18 0.435
v 0.435 0.18 -0.435
v -0.435 0.18 -0.435

vn 0 0 1
vn 1 0 0
vn 0 0 -1
vn 0 -1 0
vn -1 0 0
vn 0 1 0
vn 0.879292 -0.4762832 0
vn -0.879292 -0.4762832 0
vn 0 -0.4762832 -0.879292
vn 0 -0.4762832 0.879292

vt -19.68504 11.81102
vt 9.84252 15.74803
vt 19.68504 11.81102
vt 19.68504 19.68504
vt 4.92126 15.74803
vt -4.92126 15.74803
vt 9.84252 19.68504
vt -4.92126 19.68504
vt 4.92126 19.68504
vt -9.84252 15.74803
vt -19.68504 19.68504
vt -9.84252 19.68504
vt 17.12598 17.12598
vt 17.12598 -17.12598
vt -17.12598 17.12598
vt -17.12598 -17.12598
vt 15.73054 9.84252
vt 15.73054 15.73054
vt 19.68504 9.84252
vt 9.84252 15.73054
vt -19.68504 9.84252
vt -15.73054 9.84252
vt -15.73054 15.73054
vt -9.84252 15.73054
vt -19.68504 -9.84252
vt -15.73054 -15.73054
vt -19.68504 -19.68504
vt -9.84252 -19.68504
vt -9.84252 -15.73054
vt -15.73054 -9.84252
vt 9.84252 -19.68504
vt 9.84252 -15.73054
vt 19.68504 -19.68504
vt 15.73054 -15.73054
vt 15.73054 -9.84252
vt 19.68504 -9.84252
vt -19.68504 -4.92126
vt -15.73054 -4.92126
vt 19.68504 15.74803
vt 15.73054 15.74803
vt 15.73054 19.68504
vt -15.73054 15.74803
vt -19.68504 15.74803
vt -15.73054 19.68504
vt 4.92126 15.73054
vt 15.73054 -4.92126
vt 19.68504 -4.92126
vt -4.92126 -19.68504
vt -4.92126 -15.73054
vt -15.73054 12.99213
vt 15.73054 12.99213
vt -17.12598 0
vt -17.12598 3.543307
vt 17.12598 0
vt 17.12598 3.543307
vt 4.92126 -19.68504
vt 4.92126 -15.73054
vt -19.68504 4.92126
vt -15.73054 4.92126
vt 15.73054 4.92126
vt 19.68504 4.92126
vt -4.92126 15.73054
vt -11.78 -11.78
vt -11.78 11.78
vt 11.78 -11.78
vt 11.78 11.78
vt 17.12598 7.086614
vt -17.12598 7.086614
vt 19.68504 19.76099
vt 17.12598 14.38802
vt -19.68504 19.76099
vt -17.12598 14.38802

usemtl stone

f 3/3/1 2/2/1 1/1/1
f 2/2/1 3/3/1 4/4/1
f 1/1/1 2/2/1 5/5/1
f 1/1/1 5/5/1 6/6/1
f 2/2/1 4/4/1 7/7/1
f 5/5/1 8/8/1 6/6/1
f 8/8/1 5/5/1 9/9/1
f 10/10/1 1/1/1 6/6/1
f 1/1/1 10/10/1 11/11/1
f 11/11/1 10/10/1 12/12/1
f 15/8/2 14/5/2 13/9/2
f 16/6/2 14/5/2 15/8/2
f 3/1/2 14/5/2 16/6/2
f 3/1/2 17/2/2 14/5/2
f 18/3/2 17/2/2 3/1/2
f 18/3/2 19/7/2 17/2/2
f 19/7/2 18/3/2 20/4/2
f 3/1/2 16/6/2 21/10/2
f 3/1/2 21/10/2 4/11/2
f 4/11/2 21/10/2 22/12/2
f 24/3/3 23/2/3 18/1/3
f 23/2/3 24/3/3 25/4/3
f 18/1/3 23/2/3 26/5/3
f 18/1/3 26/5/3 27/6/3
f 23/2/3 25/4/3 28/7/3
f 26/5/3 29/8/3 27/6/3
f 29/8/3 26/5/3 30/9/3
f 31/10/3 18/1/3 27/6/3
f 18/1/3 31/10/3 20/11/3
f 20/11/3 31/10/3 32/12/3
f 35/15/4 34/14/4 33/13/4
f 34/14/4 35/15/4 36/16/4
f 24/1/5 37/10/5 25/11/5
f 37/10/5 24/1/5 1/3/5
f 37/10/5 1/3/5 38/6/5
f 38/6/5 1/3/5 39/5/5
f 38/6/5 39/5/5 40/8/5
f 39/5/5 1/3/5 41/2/5
f 41/2/5 1/3/5 42/7/5
f 42/7/5 1/3/5 11/4/5
f 43/9/5 40/8/5 39/5/5
f 44/12/5 25/11/5 37/10/5
f 42/19/6 46/18/6 45/17/6
f 11/4/6 46/18/6 42/19/6
f 12/7/6 46/18/6 11/4/6
f 46/18/6 12/7/6 47/20/6
f 48/22/6 4/11/6 22/21/6
f 4/11/6 48/22/6 49/23/6
f 4/11/6 49/23/6 7/12/6
f 7/12/6 49/23/6 50/24/6
f 20/27/6 51/26/6 19/25/6
f 51/26/6 20/27/6 32/28/6
f 51/26/6 32/28/6 52/29/6
f 53/30/6 19/25/6 51/26/6
f 25/33/6 54/32/6 28/31/6
f 54/32/6 25/33/6 55/34/6
f 55/34/6 25/33/6 56/35/6
f 56/35/6 25/33/6 44/36/6
f 57/30/6 14/37/6 17/25/6
f 14/37/6 57/30/6 58/38/6
f 19/4/1 57/40/1 17/39/1
f 57/40/1 19/4/1 53/41/1
f 48/44/3 21/43/3 59/42/3
f 21/43/3 48/44/3 22/11/3
f 61/20/6 6/9/6 60/45/6
f 6/9/6 61/20/6 10/7/6
f 12/11/2 61/42/2 47/44/2
f 61/42/2 12/11/2 10/43/2
f 2/39/5 50/41/5 62/40/5
f 50/41/5 2/39/5 7/4/5
f 42/4/3 63/40/3 41/39/3
f 63/40/3 42/4/3 45/41/3
f 37/36/6 65/46/6 64/35/6
f 65/46/6 37/36/6 38/47/6
f 56/44/1 37/43/1 64/42/1
f 37/43/1 56/44/1 44/11/1
f 27/48/6 66/29/6 31/28/6
f 66/29/6 27/48/6 67/49/6
f 66/42/5 32/11/5 31/43/5
f 32/11/5 66/42/5 52/44/5
f 54/41/2 23/39/2 28/4/2
f 23/39/2 54/41/2 68/40/2
f 69/50/5 57/10/5 51/44/5
f 57/10/5 69/50/5 70/51/5
f 57/10/5 70/51/5 58/6/5
f 58/6/5 70/51/5 71/5/5
f 58/6/5 71/5/5 72/8/5
f 71/5/5 70/51/5 59/2/5
f 59/2/5 70/51/5 48/7/5
f 48/7/5 70/51/5 49/41/5
f 73/9/5 72/8/5 71/5/5
f 53/12/5 51/44/5 57/10/5
f 69/51/1 66/2/1 74/50/1
f 66/2/1 69/51/1 51/41/1
f 66/2/1 51/41/1 52/7/1
f 67/5/1 74/50/1 66/2/1
f 75/6/1 74/50/1 67/5/1
f 76/9/1 75/6/1 67/5/1
f 75/6/1 76/9/1 77/8/1
f 68/10/1 74/50/1 75/6/1
f 74/50/1 68/10/1 55/44/1
f 55/44/1 68/10/1 54/12/1
f 79/8/2 65/5/2 78/9/2
f 80/6/2 65/5/2 79/8/2
f 81/50/2 65/5/2 80/6/2
f 81/50/2 64/2/2 65/5/2
f 74/51/2 64/2/2 81/50/2
f 74/51/2 56/7/2 64/2/2
f 56/7/2 74/51/2 55/41/2
f 81/50/2 80/6/2 63/10/2
f 81/50/2 63/10/2 46/44/2
f 46/44/2 63/10/2 45/12/2
f 81/51/3 61/2/3 70/50/3
f 61/2/3 81/51/3 46/41/3
f 61/2/3 46/41/3 47/7/3
f 60/5/3 70/50/3 61/2/3
f 82/6/3 70/50/3 60/5/3
f 83/9/3 82/6/3 60/5/3
f 82/6/3 83/9/3 84/8/3
f 62/10/3 70/50/3 82/6/3
f 70/50/3 62/10/3 49/44/3
f 49/44/3 62/10/3 50/12/3
f 35/54/5 85/53/5 36/52/5
f 85/53/5 35/54/5 86/55/5
f 87/55/1 35/52/1 33/54/1
f 35/52/1 87/55/1 86/53/1
f 87/53/2 34/54/2 88/55/2
f 34/54/2 87/53/2 33/52/2
f 85/55/3 34/52/3 36/54/3
f 34/52/3 85/55/3 88/53/3
f 23/31/6 75/57/6 26/56/6
f 75/57/6 23/31/6 68/32/6
f 71/59/6 21/21/6 16/58/6
f 21/21/6 71/59/6 59/22/6
f 39/61/6 63/17/6 80/60/6
f 63/17/6 39/61/6 41/19/6
f 82/62/6 2/12/6 62/24/6
f 2/12/6 82/62/6 5/8/6
f 40/47/6 79/60/6 78/46/6
f 79/60/6 40/47/6 43/61/6
f 40/4/3 65/40/3 38/39/3
f 65/40/3 40/4/3 78/41/3
f 79/44/1 39/43/1 80/42/1
f 39/43/1 79/44/1 43/11/1
f 83/45/6 9/8/6 84/62/6
f 9/8/6 83/45/6 8/9/6
f 6/39/5 83/41/5 60/40/5
f 83/41/5 6/39/5 8/4/5
f 9/11/2 82/42/2 84/44/2
f 82/42/2 9/11/2 5/43/2
f 72/38/6 15/58/6 13/37/6
f 15/58/6 72/38/6 73/59/6
f 72/44/3 14/43/3 58/42/3
f 14/43/3 72/44/3 13/11/3
f 15/4/1 71/40/1 16/39/1
f 71/40/1 15/4/1 73/41/1
f 30/56/6 76/49/6 29/48/6
f 76/49/6 30/56/6 77/57/6
f 76/41/2 27/39/2 29/4/2
f 27/39/2 76/41/2 67/40/2
f 75/42/5 30/11/5 26/43/5
f 30/11/5 75/42/5 77/44/5
f 91/65/6 90/64/6 89/63/6
f 90/64/6 91/65/6 92/66/6

usemtl purple

f 93/67/1 86/53/1 87/55/1
f 86/53/1 93/67/1 94/68/1
f 3/71/7 95/70/7 18/69/7
f 95/70/7 3/71/7 93/72/7
f 96/72/8 1/69/8 24/71/8
f 1/69/8 96/72/8 94/70/8
f 86/55/5 96/68/5 85/53/5
f 96/68/5 86/55/5 94/67/5
f 96/67/3 88/53/3 85/55/3
f 88/53/3 96/67/3 95/68/3
f 24/69/9 95/72/9 96/70/9
f 95/72/9 24/69/9 18/71/9
f 3/69/10 94/72/10 93/70/10
f 94/72/10 3/69/10 1/71/10
f 93/68/2 88/55/2 95/67/2
f 88/55/2 93/68/2 87/53/2

usemtl stoneDark

f 69/26/6 89/63/6 70/23/6
f 89/63/6 69/26/6 74/34/6
f 89/63/6 74/34/6 91/65/6
f 91/65/6 74/34/6 92/66/6
f 90/64/6 70/23/6 89/63/6
f 70/23/6 90/64/6 81/18/6
f 81/18/6 90/64/6 92/66/6
f 81/18/6 92/66/6 74/34/6

