# Created by Kenney (www.kenney.nl)

mtllib towerSquare_sampleA.mtl

g towerSquare_sampleA

v -0.3995556 0.9 0.125
v -0.3995556 0.9 0.25
v -0.5 0.9 0.125
v -0.5 0.9 0.25
v 0.5 1 0.25
v 0.5 1 0.5
v 0.3995556 1 0.25
v 0.3995556 1 0.3995556
v 0.25 1 0.5
v 0.25 1 0.3995556
v 0.5 1 -0.25
v 0.3995556 1 -0.3995556
v 0.5 1 -0.5
v 0.25 1 -0.5
v 0.25 1 -0.3995556
v 0.3995556 1 -0.25
v 0.5 0.9 0.125
v 0.5 0.9 0.25
v 0.3995556 0.9 0.125
v 0.3995556 0.9 0.25
v -0.125 0.9 -0.5
v -0.125 0.9 -0.3995556
v -0.25 0.9 -0.5
v -0.25 0.9 -0.3995556
v -0.3995556 1 -0.125
v -0.3995556 0.9 -0.125
v -0.3995556 1 0.125
v -0.3995556 0.83 0.3995556
v -0.3995556 0.9 -0.25
v -0.3995556 0.83 -0.3995556
v -0.3995556 1 -0.25
v -0.3995556 1 -0.3995556
v -0.3995556 1 0.3995556
v -0.3995556 1 0.25
v 0.5 0.9 -0.25
v 0.3995556 0.9 -0.25
v -0.125 0.9 0.3995556
v -0.125 0.9 0.5
v -0.25 0.9 0.3995556
v -0.25 0.9 0.5
v 0.25 0.9 -0.5
v 0.25 0.9 -0.3995556
v 0.125 0.9 -0.5
v 0.125 0.9 -0.3995556
v -0.5 0.9 -0.25
v -0.5 0.9 -0.125
v 0.3995556 0.83 -0.3995556
v 0.3995556 0.83 0.3995556
v 0.3995556 0.9 -0.125
v 0.3995556 1 -0.125
v 0.3995556 1 0.125
v -0.25 1 0.3995556
v 0.125 0.9 0.3995556
v 0.25 0.9 0.3995556
v -0.125 1 0.3995556
v 0.125 1 0.3995556
v -0.5 1 -0.25
v -0.5 1 -0.5
v -0.5 0.8 -0.5
v -0.5 0.8 0.5
v -0.5 1 -0.125
v -0.5 1 0.25
v -0.5 1 0.5
v -0.5 1 0.125
v 0.125 1 -0.3995556
v -0.125 1 -0.3995556
v -0.25 1 -0.3995556
v -0.25 1 -0.5
v -0.25 1 0.5
v 0.435 0.59 -0.435
v 0.435 0.32 -0.435
v 0.435 0.59 0.435
v 0.435 0.32 0.435
v 0.5 0.8 -0.5
v -0.125 1 -0.5
v 0.125 1 -0.5
v -0.435 0.32 -0.435
v -0.435 0.59 -0.435
v 0.5 1 -0.125
v 0.5 0.9 -0.125
v 0.5 1 0.125
v 0.5 0.8 0.5
v 0.25 0.9 0.5
v 0.125 0.9 0.5
v 0.125 1 0.5
v -0.125 1 0.5
v -0.2992119 0.83 -0.2992119
v -0.2992119 1.08 -0.2992119
v -0.2992119 0.83 0.2992119
v -0.2992119 1.08 0.2992119
v 0.2992119 0.83 0.2992119
v 0.2992119 1.08 0.2992119
v 0.2992119 1.08 -0.2992119
v 0.2992119 0.83 -0.2992119
v -0.435 0.32 0.435
v -0.435 0.59 0.435
v 0.435 0.68 -0.435
v 0.435 0.68 0.435
v -0.435 0.68 -0.435
v -0.435 0.68 0.435
v -0.3291331 1.13 -0.3291331
v 0.3291331 1.13 -0.3291331
v 0.3291331 1.13 0.3291331
v -0.3291331 1.13 0.3291331
v 0.06582662 1.43 0.06582662
v -0.06582662 1.43 0.06582662
v 0.06582662 1.43 -0.06582662
v -0.06582662 1.43 -0.06582662
v 0.5 0.2 -0.5
v 0.5 0 -0.5
v 0.5 0.2 0.5
v 0.5 0 0.5
v -0.5 0 -0.5
v -0.5 0.2 -0.5
v -0.5 0 0.5
v -0.5 0.2 0.5

vn 0 1 0
vn 1 0 0
vn 0 0 -1
vn 0 0 1
vn -1 0 0
vn 0.879292 -0.4762832 0
vn -0.879292 -0.4762832 0
vn 0 -0.4762832 0.879292
vn 0 -0.4762832 -0.879292
vn 0 -0.5135009 -0.858089
vn 0 0.6596481 0.7515746
vn 0.7515746 0.6596481 0
vn 0 -0.5135009 0.858089
vn 0 0.6596481 -0.7515746
vn 0.858089 -0.5135009 0
vn -0.858089 -0.5135009 0
vn -0.7515746 0.6596481 0
vn 0.879292 0.4762832 0
vn 0 0.4762832 -0.879292
vn 0 -1 0
vn -0.879292 0.4762832 0
vn 0 0.4762832 0.879292

vt 15.73054 4.92126
vt 15.73054 9.84252
vt 19.68504 4.92126
vt 19.68504 9.84252
vt -19.68504 9.84252
vt -19.68504 19.68504
vt -15.73054 9.84252
vt -15.73054 15.73054
vt -9.84252 19.68504
vt -9.84252 15.73054
vt -19.68504 -9.84252
vt -15.73054 -15.73054
vt -19.68504 -19.68504
vt -9.84252 -19.68504
vt -9.84252 -15.73054
vt -15.73054 -9.84252
vt -19.68504 4.92126
vt -15.73054 4.92126
vt 4.92126 -19.68504
vt 4.92126 -15.73054
vt 9.84252 -19.68504
vt 9.84252 -15.73054
vt 4.92126 39.37008
vt 4.92126 35.43307
vt -4.92126 39.37008
vt -4.92126 35.43307
vt -15.73054 32.67717
vt 9.84252 35.43307
vt 15.73054 32.67717
vt 9.84252 39.37008
vt 15.73054 39.37008
vt -9.84252 35.43307
vt -15.73054 39.37008
vt -9.84252 39.37008
vt -15.73054 35.43307
vt -19.68504 35.43307
vt -19.68504 39.37008
vt 19.68504 35.43307
vt 15.73054 35.43307
vt 19.68504 39.37008
vt 4.92126 15.73054
vt 4.92126 19.68504
vt 9.84252 15.73054
vt 9.84252 19.68504
vt -4.92126 -19.68504
vt -4.92126 -15.73054
vt 15.73054 -9.84252
vt 15.73054 -4.92126
vt 19.68504 -9.84252
vt 19.68504 -4.92126
vt -19.68504 31.49606
vt 19.68504 31.49606
vt 19.68504 -19.68504
vt 15.73054 -15.73054
vt 17.12598 23.22835
vt 17.12598 12.59842
vt -17.12598 23.22835
vt -17.12598 12.59842
vt 15.73054 15.73054
vt 19.68504 19.68504
vt -19.68504 -4.92126
vt -15.73054 -4.92126
vt -11.78 32.67717
vt -11.78 42.51968
vt 11.78 32.67717
vt 11.78 42.51968
vt -4.92126 15.73054
vt -4.92126 19.68504
vt 19.68504 37.06989
vt 17.12598 31.69692
vt -19.68504 37.06989
vt -17.12598 31.69692
vt 17.12598 26.77165
vt -17.12598 26.77165
vt 11.78 42.53471
vt -11.78 42.53471
vt 12.958 44.82877
vt -12.958 44.82877
vt 12.958 24.88847
vt -12.958 24.88847
vt 2.591599 40.60351
vt -2.591599 40.60351
vt -2.591599 -2.591599
vt -2.591599 2.591599
vt 2.591599 -2.591599
vt 2.591599 2.591599
vt 19.68504 7.874016
vt 19.68504 0
vt -19.68504 7.874016
vt -19.68504 0
vt 19.68504 -2.452094
vt -19.68504 -2.452094
vt 17.12598 2.920876
vt -17.12598 2.920876
vt -11.78 -11.78
vt 11.78 -11.78
vt 11.78 11.78
vt -11.78 11.78

usemtl stone

f 3/3/1 2/2/1 1/1/1
f 2/2/1 3/3/1 4/4/1
f 7/7/1 6/6/1 5/5/1
f 6/6/1 7/7/1 8/8/1
f 6/6/1 8/8/1 9/9/1
f 9/9/1 8/8/1 10/10/1
f 13/13/1 12/12/1 11/11/1
f 12/12/1 13/13/1 14/14/1
f 12/12/1 14/14/1 15/15/1
f 16/16/1 11/11/1 12/12/1
f 19/18/1 18/5/1 17/17/1
f 18/5/1 19/18/1 20/7/1
f 23/21/1 22/20/1 21/19/1
f 22/20/1 23/21/1 24/22/1
f 27/25/2 26/24/2 25/23/2
f 1/26/2 26/24/2 27/25/2
f 28/27/2 26/24/2 1/26/2
f 28/27/2 29/28/2 26/24/2
f 30/29/2 29/28/2 28/27/2
f 30/29/2 31/30/2 29/28/2
f 31/30/2 30/29/2 32/31/2
f 28/27/2 1/26/2 2/32/2
f 28/27/2 2/32/2 33/33/2
f 33/33/2 2/32/2 34/34/2
f 7/33/3 18/36/3 20/35/3
f 18/36/3 7/33/3 5/37/3
f 11/40/4 36/39/4 35/38/4
f 36/39/4 11/40/4 16/31/4
f 39/43/1 38/42/1 37/41/1
f 38/42/1 39/43/1 40/44/1
f 43/45/1 42/15/1 41/14/1
f 42/15/1 43/45/1 44/46/1
f 42/35/5 14/37/5 41/36/5
f 14/37/5 42/35/5 15/33/5
f 45/49/1 26/48/1 29/47/1
f 26/48/1 45/49/1 46/50/1
f 47/27/5 36/32/5 12/33/5
f 36/32/5 47/27/5 48/29/5
f 36/32/5 48/29/5 49/26/5
f 49/26/5 48/29/5 19/24/5
f 49/26/5 19/24/5 50/25/5
f 19/24/5 48/29/5 20/28/5
f 20/28/5 48/29/5 7/30/5
f 7/30/5 48/29/5 8/31/5
f 51/23/5 50/25/5 19/24/5
f 16/34/5 12/33/5 36/32/5
f 28/29/3 39/28/3 48/27/3
f 39/28/3 28/29/3 33/31/3
f 39/28/3 33/31/3 52/30/3
f 53/26/3 48/27/3 39/28/3
f 54/32/3 48/27/3 53/26/3
f 48/27/3 54/32/3 8/33/3
f 53/26/3 39/28/3 37/24/3
f 55/23/3 53/26/3 37/24/3
f 53/26/3 55/23/3 56/25/3
f 8/33/3 54/32/3 10/34/3
f 31/33/4 45/36/4 29/35/4
f 45/36/4 31/33/4 57/37/4
f 59/51/5 45/32/5 58/37/5
f 45/32/5 59/51/5 60/52/5
f 45/32/5 60/52/5 46/26/5
f 46/26/5 60/52/5 3/24/5
f 46/26/5 3/24/5 61/25/5
f 3/24/5 60/52/5 4/28/5
f 4/28/5 60/52/5 62/30/5
f 62/30/5 60/52/5 63/40/5
f 64/23/5 61/25/5 3/24/5
f 57/34/5 58/37/5 45/32/5
f 47/29/4 42/28/4 30/27/4
f 42/28/4 47/29/4 12/31/4
f 42/28/4 12/31/4 15/30/4
f 24/32/4 30/27/4 42/28/4
f 30/27/4 24/32/4 32/33/4
f 24/32/4 42/28/4 44/24/4
f 24/32/4 44/24/4 22/26/4
f 65/23/4 22/26/4 44/24/4
f 22/26/4 65/23/4 66/25/4
f 32/33/4 24/32/4 67/34/4
f 58/53/1 67/22/1 68/21/1
f 67/22/1 58/53/1 32/54/1
f 32/54/1 58/53/1 31/47/1
f 31/47/1 58/53/1 57/49/1
f 69/37/2 39/35/2 52/33/2
f 39/35/2 69/37/2 40/36/2
f 72/57/2 71/56/2 70/55/2
f 71/56/2 72/57/2 73/58/2
f 59/52/3 23/28/3 74/51/3
f 23/28/3 59/52/3 58/40/3
f 23/28/3 58/40/3 68/30/3
f 41/32/3 74/51/3 23/28/3
f 74/51/3 41/32/3 13/37/3
f 41/32/3 23/28/3 21/24/3
f 41/32/3 21/24/3 43/26/3
f 75/23/3 43/26/3 21/24/3
f 43/26/3 75/23/3 76/25/3
f 13/37/3 41/32/3 14/34/3
f 78/55/3 71/58/3 77/56/3
f 71/58/3 78/55/3 70/57/3
f 81/25/2 80/24/2 79/23/2
f 17/26/2 80/24/2 81/25/2
f 82/51/2 80/24/2 17/26/2
f 82/51/2 35/28/2 80/24/2
f 74/52/2 35/28/2 82/51/2
f 74/52/2 11/30/2 35/28/2
f 11/30/2 74/52/2 13/40/2
f 82/51/2 17/26/2 18/32/2
f 82/51/2 18/32/2 6/37/2
f 6/37/2 18/32/2 5/34/2
f 82/52/4 83/28/4 60/51/4
f 83/28/4 82/52/4 6/40/4
f 60/51/4 83/28/4 84/24/4
f 83/28/4 6/40/4 9/30/4
f 40/32/4 60/51/4 84/24/4
f 60/51/4 40/32/4 63/37/4
f 40/32/4 84/24/4 38/26/4
f 85/23/4 38/26/4 84/24/4
f 38/26/4 85/23/4 86/25/4
f 63/37/4 40/32/4 69/34/4
f 62/4/1 33/59/1 34/2/1
f 63/60/1 33/59/1 62/4/1
f 69/44/1 33/59/1 63/60/1
f 33/59/1 69/44/1 52/43/1
f 36/16/1 80/61/1 35/11/1
f 80/61/1 36/16/1 49/62/1
f 83/38/5 10/31/5 54/39/5
f 10/31/5 83/38/5 9/40/5
f 67/31/2 23/38/2 68/40/2
f 23/38/2 67/31/2 24/39/2
f 62/40/3 2/39/3 4/38/3
f 2/39/3 62/40/3 34/31/3
f 38/38/5 55/31/5 37/39/5
f 55/31/5 38/38/5 86/40/5
f 85/37/2 53/35/2 56/33/2
f 53/35/2 85/37/2 84/36/2
f 50/33/3 80/36/3 49/35/3
f 80/36/3 50/33/3 79/37/3
f 81/40/4 19/39/4 17/38/4
f 19/39/4 81/40/4 51/31/4
f 65/31/2 43/38/2 76/40/2
f 43/38/2 65/31/2 44/39/2
f 89/65/5 88/64/5 87/63/5
f 88/64/5 89/65/5 90/66/5
f 27/33/4 3/36/4 1/35/4
f 3/36/4 27/33/4 64/37/4
f 92/66/4 89/63/4 91/65/4
f 89/63/4 92/66/4 90/64/4
f 92/64/2 94/65/2 93/66/2
f 94/65/2 92/64/2 91/63/2
f 55/41/1 85/68/1 56/67/1
f 85/68/1 55/41/1 86/42/1
f 50/62/1 81/17/1 79/61/1
f 81/17/1 50/62/1 51/18/1
f 75/19/1 65/46/1 76/45/1
f 65/46/1 75/19/1 66/20/1
f 88/66/3 94/63/3 87/65/3
f 94/63/3 88/66/3 93/64/3
f 22/35/5 75/37/5 21/36/5
f 75/37/5 22/35/5 66/33/5
f 61/40/3 26/39/3 46/38/3
f 26/39/3 61/40/3 25/31/3
f 61/50/1 27/1/1 25/48/1
f 27/1/1 61/50/1 64/3/1
f 53/67/1 83/9/1 54/10/1
f 83/9/1 53/67/1 84/68/1
f 95/56/5 78/57/5 77/58/5
f 78/57/5 95/56/5 96/55/5
f 72/55/4 95/58/4 73/56/4
f 95/58/4 72/55/4 96/57/4

usemtl purple

f 82/71/6 97/70/6 74/69/6
f 97/70/6 82/71/6 98/72/6
f 99/72/7 60/69/7 59/71/7
f 60/69/7 99/72/7 100/70/7
f 82/69/8 100/72/8 98/70/8
f 100/72/8 82/69/8 60/71/8
f 59/69/9 97/72/9 99/70/9
f 97/72/9 59/69/9 74/71/9
f 98/74/2 70/55/2 97/73/2
f 70/55/2 98/74/2 72/57/2
f 99/73/3 70/57/3 78/55/3
f 70/57/3 99/73/3 97/74/3
f 96/55/5 99/74/5 78/57/5
f 99/74/5 96/55/5 100/73/5
f 98/73/4 96/57/4 72/55/4
f 96/57/4 98/73/4 100/74/4
f 101/77/10 93/76/10 88/75/10
f 93/76/10 101/77/10 102/78/10
f 105/81/11 104/80/11 103/79/11
f 104/80/11 105/81/11 106/82/11
f 108/85/1 105/84/1 107/83/1
f 105/84/1 108/85/1 106/86/1
f 107/81/12 103/80/12 102/79/12
f 103/80/12 107/81/12 105/82/12
f 103/77/13 90/76/13 92/75/13
f 90/76/13 103/77/13 104/78/13
f 108/81/14 102/80/14 101/79/14
f 102/80/14 108/81/14 107/82/14
f 103/78/15 93/75/15 102/77/15
f 93/75/15 103/78/15 92/76/15
f 88/76/16 104/77/16 101/78/16
f 104/77/16 88/76/16 90/75/16
f 104/79/17 108/82/17 101/80/17
f 108/82/17 104/79/17 106/81/17
f 111/89/2 110/88/2 109/87/2
f 110/88/2 111/89/2 112/90/2
f 71/93/18 111/92/18 109/91/18
f 111/92/18 71/93/18 73/94/18
f 114/87/3 110/90/3 113/88/3
f 110/90/3 114/87/3 109/89/3
f 77/93/19 109/92/19 114/91/19
f 109/92/19 77/93/19 71/94/19
f 115/6/20 110/53/20 112/60/20
f 110/53/20 115/6/20 113/13/20
f 111/87/4 115/90/4 112/88/4
f 115/90/4 111/87/4 116/89/4
f 116/91/21 77/94/21 114/92/21
f 77/94/21 116/91/21 95/93/21
f 115/88/5 114/89/5 113/90/5
f 114/89/5 115/88/5 116/87/5
f 73/93/22 116/92/22 111/91/22
f 116/92/22 73/93/22 95/94/22

usemtl stoneDark

f 47/12/1 94/95/1 48/8/1
f 94/95/1 47/12/1 30/54/1
f 94/95/1 30/54/1 87/96/1
f 87/96/1 30/54/1 89/97/1
f 91/98/1 48/8/1 94/95/1
f 48/8/1 91/98/1 28/59/1
f 28/59/1 91/98/1 89/97/1
f 28/59/1 89/97/1 30/54/1

