# Created by Kenney (www.kenney.nl)

mtllib towerSquare_middleC.mtl

g towerSquare_middleC

v 0.435 -1.894529E-14 0.435
v 0.435 -1.894529E-14 -0.435
v -0.435 -1.894529E-14 0.435
v -0.435 -1.894529E-14 -0.435
v -0.435 0.5 -0.435
v -0.435 0.25 -0.1677089
v -0.435 0.125 -0.435
v -0.435 0.125 0.435
v -0.435 0.25 0.1677089
v -0.435 0.5 0.1677089
v -0.435 0.5 0.435
v -0.435 0.5 -0.1677089
v -0.1677089 0.25 0.435
v 0.1677089 0.25 0.435
v -0.1677089 0.5 0.435
v 0.435 0.125 0.435
v 0.435 0.5 0.435
v 0.1677089 0.5 0.435
v 0.435 0.5 0.1677089
v 0.435 0.25 0.1677089
v 0.435 0.25 -0.1677089
v 0.435 0.125 -0.435
v 0.435 0.5 -0.1677089
v 0.435 0.5 -0.435
v -0.1677089 0.25 -0.435
v -0.1677089 0.5 -0.435
v 0.1677089 0.25 -0.435
v 0.1677089 0.5 -0.435
v 0.3354178 0.5 -0.3354178
v 0.3354178 0.5 -0.1677089
v 0.1677089 0.5 -0.3354178
v -0.1677089 0.5 -0.3354178
v -0.3354178 0.5 -0.3354178
v -0.3354178 0.5 -0.1677089
v -0.3354178 0.5 0.1677089
v -0.3354178 0.5 0.3354178
v -0.1677089 0.5 0.3354178
v 0.3354178 0.5 0.1677089
v 0.3354178 0.5 0.3354178
v 0.1677089 0.5 0.3354178
v 0.3354178 0.1 0.3354178
v -0.1677089 0.25 0.3354178
v -0.3354178 0.1 0.3354178
v 0.1677089 0.25 0.3354178
v 0.3354178 0.25 -0.1677089
v 0.3354178 0.1 -0.3354178
v 0.3354178 0.25 0.1677089
v -0.3354178 0.1 -0.3354178
v 0.1677089 0.25 -0.3354178
v -0.1677089 0.25 -0.3354178
v -0.3354178 0.25 0.1677089
v -0.3354178 0.25 -0.1677089
v 0.2362292 0.1 -0.2362292
v 0.2362292 0.1 0.2362292
v -0.2362292 0.1 -0.2362292
v -0.2362292 0.1 0.2362292

vn 0 -1 0
vn -1 0 0
vn 0 0 1
vn 1 0 0
vn 0 0 -1
vn 0 1 0

vt 17.12598 17.12598
vt 17.12598 -17.12598
vt -17.12598 17.12598
vt -17.12598 -17.12598
vt -17.12598 19.68504
vt -6.602714 9.84252
vt -17.12598 4.92126
vt 17.12598 4.92126
vt 6.602714 9.84252
vt 6.602714 19.68504
vt 17.12598 19.68504
vt -6.602714 19.68504
vt -13.20543 -13.20543
vt -17.12598 -6.602714
vt -13.20543 -6.602714
vt -6.602714 -17.12598
vt -6.602714 -13.20543
vt 6.602714 -17.12598
vt 6.602714 -13.20543
vt 13.20543 -13.20543
vt 13.20543 -6.602714
vt 17.12598 -6.602714
vt 13.20543 6.602714
vt 13.20543 13.20543
vt 17.12598 6.602714
vt 6.602714 17.12598
vt 6.602714 13.20543
vt -17.12598 6.602714
vt -13.20543 6.602714
vt -13.20543 13.20543
vt -6.602714 17.12598
vt -6.602714 13.20543
vt -13.20543 3.937008
vt 13.20543 3.937008
vt 13.20543 19.68504
vt -13.20543 19.68504
vt -13.20543 9.84252
vt -17.12598 9.84252
vt 17.12598 9.84252
vt 13.20543 9.84252
vt -9.300363 -9.300363
vt -9.300363 9.300363
vt 9.300363 -9.300363
vt 9.300363 9.300363
vt 17.12598 -7.458776E-13
vt -17.12598 -7.458776E-13

usemtl stone

f 3/3/1 2/2/1 1/1/1
f 2/2/1 3/3/1 4/4/1
f 7/7/2 6/6/2 5/5/2
f 6/6/2 7/7/2 8/8/2
f 6/6/2 8/8/2 9/9/2
f 9/9/2 8/8/2 10/10/2
f 10/10/2 8/8/2 11/11/2
f 12/12/2 5/5/2 6/6/2
f 8/7/3 13/6/3 11/5/3
f 13/6/3 8/7/3 14/9/3
f 11/5/3 13/6/3 15/12/3
f 16/8/3 14/9/3 8/7/3
f 14/9/3 16/8/3 17/11/3
f 14/9/3 17/11/3 18/10/3
f 17/5/4 20/6/4 19/12/4
f 16/7/4 20/6/4 17/5/4
f 16/7/4 21/9/4 20/6/4
f 22/8/4 21/9/4 16/7/4
f 22/8/4 23/10/4 21/9/4
f 23/10/4 22/8/4 24/11/4
f 7/8/5 25/9/5 22/7/5
f 25/9/5 7/8/5 5/11/5
f 25/9/5 5/11/5 26/10/5
f 27/6/5 22/7/5 25/9/5
f 22/7/5 27/6/5 24/5/5
f 24/5/5 27/6/5 28/12/5
f 30/15/6 23/14/6 29/13/6
f 24/4/6 29/13/6 23/14/6
f 29/13/6 24/4/6 28/16/6
f 29/13/6 28/16/6 31/17/6
f 5/2/6 32/19/6 26/18/6
f 32/19/6 5/2/6 33/20/6
f 33/20/6 5/2/6 34/21/6
f 34/21/6 5/2/6 12/22/6
f 10/25/6 36/24/6 35/23/6
f 11/1/6 36/24/6 10/25/6
f 15/26/6 36/24/6 11/1/6
f 36/24/6 15/26/6 37/27/6
f 38/29/6 17/3/6 19/28/6
f 17/3/6 38/29/6 39/30/6
f 17/3/6 39/30/6 18/31/6
f 18/31/6 39/30/6 40/32/6
f 43/34/5 42/9/5 41/33/5
f 42/9/5 43/34/5 36/35/5
f 42/9/5 36/35/5 37/10/5
f 44/6/5 41/33/5 42/9/5
f 41/33/5 44/6/5 39/36/5
f 39/36/5 44/6/5 40/12/5
f 46/33/2 45/6/2 29/36/2
f 45/6/2 46/33/2 41/34/2
f 45/6/2 41/34/2 47/9/2
f 47/9/2 41/34/2 38/10/2
f 38/10/2 41/34/2 39/35/2
f 30/12/2 29/36/2 45/6/2
f 46/34/3 49/9/3 48/33/3
f 49/9/3 46/34/3 29/35/3
f 49/9/3 29/35/3 31/10/3
f 50/6/3 48/33/3 49/9/3
f 48/33/3 50/6/3 33/36/3
f 33/36/3 50/6/3 32/12/3
f 36/36/4 51/6/4 35/12/4
f 43/33/4 51/6/4 36/36/4
f 43/33/4 52/9/4 51/6/4
f 48/34/4 52/9/4 43/33/4
f 48/34/4 34/10/4 52/9/4
f 34/10/4 48/34/4 33/35/4
f 6/22/6 51/23/6 52/21/6
f 51/23/6 6/22/6 9/25/6
f 34/36/3 6/38/3 52/37/3
f 6/38/3 34/36/3 12/5/3
f 10/11/5 51/40/5 9/39/5
f 51/40/5 10/11/5 35/35/5
f 45/15/6 20/28/6 21/14/6
f 20/28/6 45/15/6 47/29/6
f 38/36/5 20/38/5 47/37/5
f 20/38/5 38/36/5 19/5/5
f 23/11/3 45/40/3 21/39/3
f 45/40/3 23/11/3 30/35/3
f 25/18/6 49/17/6 27/16/6
f 49/17/6 25/18/6 50/19/6
f 32/35/4 25/39/4 26/11/4
f 25/39/4 32/35/4 50/40/4
f 49/37/2 28/5/2 27/38/2
f 28/5/2 49/37/2 31/36/2
f 42/27/6 14/31/6 44/32/6
f 14/31/6 42/27/6 13/26/6
f 15/5/4 42/37/4 37/36/4
f 42/37/4 15/5/4 13/38/4
f 14/39/2 40/35/2 44/40/2
f 40/35/2 14/39/2 18/11/2
f 55/43/6 54/42/6 53/41/6
f 54/42/6 55/43/6 56/44/6

usemtl stoneDark

f 46/13/6 53/41/6 41/30/6
f 53/41/6 46/13/6 48/20/6
f 53/41/6 48/20/6 55/43/6
f 55/43/6 48/20/6 56/44/6
f 54/42/6 41/30/6 53/41/6
f 41/30/6 54/42/6 43/24/6
f 43/24/6 54/42/6 56/44/6
f 43/24/6 56/44/6 48/20/6

usemtl purple

f 16/8/3 3/46/3 1/45/3
f 3/46/3 16/8/3 8/7/3
f 16/7/4 2/45/4 22/8/4
f 2/45/4 16/7/4 1/46/4
f 7/8/5 2/46/5 4/45/5
f 2/46/5 7/8/5 22/7/5
f 3/45/2 7/7/2 4/46/2
f 7/7/2 3/45/2 8/8/2

