# Created by Kenney (www.kenney.nl)

mtllib towerRound_bottomA.mtl

g towerRound_bottomA

v 0.25 0.2 -0.4330127
v 0.3535534 0.2 -0.3535534
v 0.2175 0.32 -0.3767211
v 0.3075914 0.32 -0.3075914
v -0.1294095 1.633324E-14 -0.4829629
v 7.219114E-15 2.20183E-14 -0.5
v -0.1294095 0.2 -0.4829629
v -1.010676E-14 0.2 -0.5
v -0.4829629 9.023893E-16 0.1294095
v -0.4829629 0.2 0.1294095
v -0.4330127 3.068124E-15 0.25
v -0.4330127 0.2 0.25
v -0.1125863 0.32 -0.4201777
v -1.588205E-14 0.32 -0.435
v -0.5 0 0
v -0.5 0.2 0
v -0.1294095 0.2 0.4829629
v -0.1125863 0.32 0.4201777
v -1.010676E-14 0.2 0.5
v -1.588205E-14 0.32 0.435
v 0.25 3.293721E-14 0.4330127
v 0.25 0.2 0.4330127
v 0.3535534 3.744915E-14 0.3535534
v 0.3535534 0.2 0.3535534
v 0.1294095 2.752287E-14 -0.4829629
v 0.1294095 0.2 -0.4829629
v 0.4829629 0.2 -0.1294095
v 0.4829629 4.313421E-14 -0.1294095
v 0.5 0.2 0
v 0.5 4.385612E-14 0
v 0.4829629 4.313421E-14 0.1294095
v 0.4330127 4.096847E-14 0.25
v 0.4330127 4.096847E-14 -0.25
v 0.3535534 3.744915E-14 -0.3535534
v 0.25 3.293721E-14 -0.4330127
v 0.1294095 2.752287E-14 0.4829629
v 7.219114E-15 2.20183E-14 0.5
v -0.1294095 1.633324E-14 0.4829629
v -0.25 1.109939E-14 0.4330127
v -0.25 1.109939E-14 -0.4330127
v -0.3535534 6.406964E-15 0.3535534
v -0.3535534 6.406964E-15 -0.3535534
v -0.4330127 3.068124E-15 -0.25
v -0.4829629 9.023893E-16 -0.1294095
v 0.435 0.32 0
v 0.4201777 0.32 0.1125863
v 0.4829629 0.2 0.1294095
v -0.3535534 0.2 -0.3535534
v -0.4330127 0.2 -0.25
v 0.4330127 0.2 -0.25
v 0.1294095 0.2 0.4829629
v 0.1125863 0.32 0.4201777
v 0.2175 0.32 0.3767211
v -0.25 0.2 0.4330127
v -0.2175 0.32 0.3767211
v 0.1125863 0.32 -0.4201777
v -0.4829629 0.2 -0.1294095
v 0.4330127 0.2 0.25
v -0.4201777 0.32 -0.1125863
v -0.435 0.32 0
v 0.3767211 0.32 0.2175
v -0.25 0.2 -0.4330127
v -0.2175 0.32 -0.3767211
v -0.4201777 0.32 0.1125863
v -0.3535534 0.2 0.3535534
v -0.3075914 0.32 -0.3075914
v -0.3075914 0.32 0.3075914
v 0.3767211 0.32 -0.2175
v -0.3767211 0.32 -0.2175
v 0.3075914 0.32 0.3075914
v 0.4201777 0.32 -0.1125863
v -0.3767211 0.32 0.2175
v -0.4201777 0.5 -0.1125863
v -0.435 0.5 0
v 0.1125863 0.5 -0.4201777
v 0.2175 0.5 -0.3767211
v 0.3767211 0.5 -0.2175
v 0.4201777 0.5 -0.1125863
v -0.1125863 0.5 0.4201777
v -5.197762E-14 0.5 0.435
v -0.3075914 0.5 0.3075914
v -0.2175 0.5 0.3767211
v -0.2175 0.5 -0.3767211
v -0.1125863 0.5 -0.4201777
v -0.4201777 0.5 0.1125863
v -0.3767211 0.5 0.2175
v 0.435 0.5 0
v 0.4201777 0.5 0.1125863
v 0.3767211 0.5 0.2175
v 0.3075914 0.5 -0.3075914
v 0.3075914 0.5 0.3075914
v 0.2175 0.5 0.3767211
v 0.1125863 0.5 0.4201777
v -5.197762E-14 0.5 -0.435
v -0.3075914 0.5 -0.3075914
v -0.3767211 0.5 -0.2175

vn 0.4396459 0.4762832 -0.7614892
vn 0.6217533 0.4762832 -0.6217533
vn -0.258819 0 -0.9659258
vn 0 0 -1
vn -0.9659258 0 0.258819
vn -0.8660254 0 0.5
vn -0.2275775 0.4762832 -0.8493308
vn 0 0.4762832 -0.879292
vn -1 0 0
vn -0.2275775 0.4762832 0.8493308
vn 0 0.4762832 0.879292
vn 0.5 0 0.8660254
vn 0.7071068 0 0.7071068
vn 0.258819 0 -0.9659258
vn 0.9659258 0 -0.258819
vn 1 0 0
vn 0 -1 0
vn 0.879292 0.4762832 0
vn 0.8493308 0.4762832 0.2275775
vn -0.7071068 0 -0.7071068
vn -0.8660254 0 -0.5
vn 0.8660254 0 -0.5
vn 0.2275775 0.4762832 0.8493308
vn 0.4396459 0.4762832 0.7614892
vn -0.4396459 0.4762832 0.7614892
vn 0 0 1
vn 0.258819 0 0.9659258
vn 0.2275775 0.4762832 -0.8493308
vn -0.9659258 0 -0.258819
vn 0.5 0 -0.8660254
vn 0.9659258 0 0.258819
vn 0.8660254 0 0.5
vn -0.8493308 0.4762832 -0.2275775
vn -0.879292 0.4762832 0
vn 0.7614892 0.4762832 0.4396459
vn -0.4396459 0.4762832 -0.7614892
vn -0.5 0 -0.8660254
vn -0.8493308 0.4762832 0.2275775
vn -0.7071068 0 0.7071068
vn -0.258819 0 0.9659258
vn -0.6217533 0.4762832 -0.6217533
vn -0.6217533 0.4762832 0.6217533
vn 0.7071068 0 -0.7071068
vn 0.7614892 0.4762832 -0.4396459
vn -0.7614892 0.4762832 -0.4396459
vn 0.6217533 0.4762832 0.6217533
vn -0.5 0 0.8660254
vn 0.8493308 0.4762832 -0.2275775
vn -0.7614892 0.4762832 0.4396459
vn 0 1 0

vt 2.569413 -2.296803
vt -2.569413 -2.296803
vt 2.235389 3.065775
vt -2.235389 3.065775
vt 2.569413 7.544376E-13
vt -2.569413 9.782585E-13
vt 2.569413 7.874016
vt -2.569413 7.874016
vt -2.569413 8.240038E-13
vt 2.569413 9.092689E-13
vt -2.569413 8.461397E-13
vt 2.569413 8.816668E-13
vt -2.569413 7.771985E-13
vt 2.569413 9.548342E-13
vt 2.569413 7.554657E-13
vt -2.569413 9.721813E-13
vt 2.569413 8.520575E-13
vt -2.569413 8.804792E-13
vt 19.68504 0
vt 19.01429 -5.094863
vt 19.01429 5.094863
vt 17.04774 9.84252
vt 17.04774 -9.84252
vt 13.91943 13.91943
vt 13.91943 -13.91943
vt 9.84252 17.04774
vt 9.84252 -17.04774
vt 5.094863 19.01429
vt 5.094863 -19.01429
vt 2.842171E-13 -19.68504
vt 2.842171E-13 19.68504
vt -5.094863 19.01429
vt -5.094863 -19.01429
vt -9.84252 17.04774
vt -9.84252 -17.04774
vt -13.91943 13.91943
vt -13.91943 -13.91943
vt -17.04774 9.84252
vt -17.04774 -9.84252
vt -19.01429 5.094863
vt -19.01429 -5.094863
vt -19.68504 0
vt -2.569413 9.293229E-13
vt 2.569413 7.978725E-13
vt 2.569413 8.244554E-13
vt -2.569413 9.097204E-13
vt -2.569413 7.554657E-13
vt 2.569413 9.721813E-13
vt -2.569413 9.092689E-13
vt 2.569413 8.240038E-13
vt 2.569413 7.569799E-13
vt -2.569413 9.701428E-13
vt 2.569413 8.804792E-13
vt -2.569413 8.520575E-13
vt -2.569413 8.816668E-13
vt 2.569413 8.461397E-13
vt 2.569413 9.097204E-13
vt -2.569413 8.244554E-13
vt 2.569413 7.717847E-13
vt -2.569413 9.565258E-13
vt 2.569413 7.635815E-13
vt -2.569413 9.696389E-13
vt -2.569413 7.569799E-13
vt 2.569413 9.701428E-13
vt -2.569413 7.978725E-13
vt 2.569413 9.293229E-13
vt -2.569413 7.544376E-13
vt 2.569413 9.782585E-13
vt 2.569413 7.972959E-13
vt -2.569413 9.358518E-13
vt -2.569413 7.717847E-13
vt 2.569413 9.565258E-13
vt -2.569413 7.635815E-13
vt 2.569413 9.696389E-13
vt 2.569413 7.771985E-13
vt -2.569413 9.548342E-13
vt 2.569413 9.358518E-13
vt -2.569413 7.972959E-13
vt -2.235389 12.59842
vt -2.235389 19.68504
vt 2.235389 12.59842
vt 2.235389 19.68504
vt -17.12598 0
vt -16.54243 4.432531
vt -16.54243 -4.432531
vt -14.83154 -8.562992
vt -14.83154 8.562992
vt -12.1099 -12.1099
vt -12.1099 12.1099
vt -8.562992 -14.83154
vt -8.562992 14.83154
vt -4.432531 -16.54243
vt -4.432531 16.54243
vt 1.187697E-12 -17.12598
vt 1.187697E-12 17.12598
vt 4.432531 -16.54243
vt 4.432531 16.54243
vt 8.562992 -14.83154
vt 8.562992 14.83154
vt 12.1099 -12.1099
vt 12.1099 12.1099
vt 14.83154 -8.562992
vt 14.83154 8.562992
vt 16.54243 -4.432531
vt 16.54243 4.432531
vt 17.12598 0

usemtl red

f 3/3/1 2/2/2 1/1/1
f 2/2/2 3/3/1 4/4/2
f 7/7/3 6/6/4 5/5/3
f 6/6/4 7/7/3 8/8/4
f 11/10/6 10/8/5 9/9/5
f 10/8/5 11/10/6 12/7/6
f 13/3/7 8/2/8 7/1/7
f 8/2/8 13/3/7 14/4/8
f 9/12/5 16/8/9 15/11/9
f 16/8/9 9/12/5 10/7/5
f 19/1/11 18/4/10 17/2/10
f 18/4/10 19/1/11 20/3/11
f 23/14/13 22/8/12 21/13/12
f 22/8/12 23/14/13 24/7/13
f 8/7/4 25/16/14 6/15/4
f 25/16/14 8/7/4 26/8/14
f 29/8/16 28/17/15 27/7/15
f 28/17/15 29/8/16 30/18/16
f 31/21/17 28/20/17 30/19/17
f 28/20/17 31/21/17 32/22/17
f 28/20/17 32/22/17 33/23/17
f 33/23/17 32/22/17 23/24/17
f 33/23/17 23/24/17 34/25/17
f 34/25/17 23/24/17 21/26/17
f 34/25/17 21/26/17 35/27/17
f 35/27/17 21/26/17 36/28/17
f 35/27/17 36/28/17 25/29/17
f 25/29/17 36/28/17 6/30/17
f 6/30/17 36/28/17 37/31/17
f 6/30/17 37/31/17 38/32/17
f 6/30/17 38/32/17 5/33/17
f 5/33/17 38/32/17 39/34/17
f 5/33/17 39/34/17 40/35/17
f 40/35/17 39/34/17 41/36/17
f 40/35/17 41/36/17 42/37/17
f 42/37/17 41/36/17 11/38/17
f 42/37/17 11/38/17 43/39/17
f 43/39/17 11/38/17 9/40/17
f 43/39/17 9/40/17 44/41/17
f 44/41/17 9/40/17 15/42/17
f 46/4/19 29/1/18 45/3/18
f 29/1/18 46/4/19 47/2/19
f 43/44/21 48/8/20 42/43/20
f 48/8/20 43/44/21 49/7/21
f 27/8/15 33/45/22 50/7/22
f 33/45/22 27/8/15 28/46/15
f 22/1/24 52/4/23 51/2/23
f 52/4/23 22/1/24 53/3/24
f 17/1/10 55/4/25 54/2/25
f 55/4/25 17/1/10 18/3/10
f 36/48/27 19/8/26 37/47/26
f 19/8/26 36/48/27 51/7/27
f 56/3/28 1/2/1 26/1/28
f 1/2/1 56/3/28 3/4/1
f 44/50/29 49/8/21 43/49/21
f 49/8/21 44/50/29 57/7/29
f 26/7/14 35/52/30 25/51/14
f 35/52/30 26/7/14 1/8/30
f 47/8/31 30/53/16 29/7/16
f 30/53/16 47/8/31 31/54/31
f 15/56/9 57/8/29 44/55/29
f 57/8/29 15/56/9 16/7/9
f 58/8/32 31/57/31 47/7/31
f 31/57/31 58/8/32 32/58/32
f 16/1/34 59/4/33 57/2/33
f 59/4/33 16/1/34 60/3/34
f 61/4/35 47/1/19 46/3/19
f 47/1/19 61/4/35 58/2/35
f 63/3/36 7/2/7 62/1/36
f 7/2/7 63/3/36 13/4/7
f 48/7/20 40/60/37 42/59/20
f 40/60/37 48/7/20 62/8/37
f 62/7/37 5/62/3 40/61/37
f 5/62/3 62/7/37 7/8/3
f 10/1/38 60/4/34 16/2/34
f 60/4/34 10/1/38 64/3/38
f 21/64/12 51/8/27 36/63/27
f 51/8/27 21/64/12 22/7/12
f 51/1/23 20/4/11 19/2/11
f 20/4/11 51/1/23 52/3/23
f 41/66/39 12/8/6 11/65/6
f 12/8/6 41/66/39 65/7/39
f 37/68/26 17/8/40 38/67/40
f 17/8/40 37/68/26 19/7/26
f 66/3/41 62/2/36 48/1/41
f 62/2/36 66/3/41 63/4/36
f 54/1/25 67/4/42 65/2/42
f 67/4/42 54/1/25 55/3/25
f 50/8/22 34/69/43 2/7/43
f 34/69/43 50/8/22 33/70/22
f 4/3/2 50/2/44 2/1/2
f 50/2/44 4/3/2 68/4/44
f 49/1/45 66/4/41 48/2/41
f 66/4/41 49/1/45 69/3/45
f 70/4/46 58/1/35 61/3/35
f 58/1/35 70/4/46 24/2/46
f 39/72/47 65/8/39 41/71/39
f 65/8/39 39/72/47 54/7/47
f 38/74/40 54/8/47 39/73/47
f 54/8/47 38/74/40 17/7/40
f 1/7/30 34/76/43 35/75/30
f 34/76/43 1/7/30 2/8/43
f 68/3/44 27/2/48 50/1/44
f 27/2/48 68/3/44 71/4/48
f 10/2/38 72/3/49 64/4/38
f 72/3/49 10/2/38 12/1/49
f 71/3/48 29/2/18 27/1/48
f 29/2/18 71/3/48 45/4/18
f 24/1/46 53/4/24 22/2/24
f 53/4/24 24/1/46 70/3/46
f 57/1/33 69/4/45 49/2/45
f 69/4/45 57/1/33 59/3/33
f 24/8/13 32/77/32 58/7/32
f 32/77/32 24/8/13 23/78/13
f 14/3/8 26/2/28 8/1/8
f 26/2/28 14/3/8 56/4/28
f 12/2/49 67/3/42 72/4/49
f 67/3/42 12/2/49 65/1/42

usemtl stone

f 60/81/9 73/80/29 59/79/29
f 73/80/29 60/81/9 74/82/9
f 75/82/14 3/79/30 56/81/14
f 3/79/30 75/82/14 76/80/30
f 78/80/15 68/81/22 77/82/22
f 68/81/22 78/80/15 71/79/15
f 20/81/26 79/80/40 18/79/40
f 79/80/40 20/81/26 80/82/26
f 55/81/47 81/80/39 67/79/39
f 81/80/39 55/81/47 82/82/47
f 83/82/37 13/79/3 63/81/37
f 13/79/3 83/82/37 84/80/3
f 72/81/6 85/80/5 64/79/5
f 85/80/5 72/81/6 86/82/6
f 67/81/39 86/80/6 72/79/6
f 86/80/6 67/81/39 81/82/39
f 64/81/5 74/80/9 60/79/9
f 74/80/9 64/81/5 85/82/5
f 18/81/40 82/80/47 55/79/47
f 82/80/47 18/81/40 79/82/40
f 78/85/50 88/84/50 87/83/50
f 88/84/50 78/85/50 77/86/50
f 88/84/50 77/86/50 89/87/50
f 89/87/50 77/86/50 90/88/50
f 89/87/50 90/88/50 91/89/50
f 91/89/50 90/88/50 76/90/50
f 91/89/50 76/90/50 92/91/50
f 92/91/50 76/90/50 75/92/50
f 92/91/50 75/92/50 93/93/50
f 93/93/50 75/92/50 94/94/50
f 93/93/50 94/94/50 80/95/50
f 80/95/50 94/94/50 84/96/50
f 80/95/50 84/96/50 79/97/50
f 79/97/50 84/96/50 83/98/50
f 79/97/50 83/98/50 82/99/50
f 82/99/50 83/98/50 95/100/50
f 82/99/50 95/100/50 81/101/50
f 81/101/50 95/100/50 96/102/50
f 81/101/50 96/102/50 86/103/50
f 86/103/50 96/102/50 73/104/50
f 86/103/50 73/104/50 85/105/50
f 85/105/50 73/104/50 74/106/50
f 77/80/22 4/81/43 90/82/43
f 4/81/43 77/80/22 68/79/22
f 95/82/20 63/79/37 66/81/20
f 63/79/37 95/82/20 83/80/37
f 91/80/13 61/81/32 89/82/32
f 61/81/32 91/80/13 70/79/13
f 84/82/3 14/79/4 13/81/3
f 14/79/4 84/82/3 94/80/4
f 76/82/30 4/79/43 3/81/30
f 4/79/43 76/82/30 90/80/43
f 69/81/21 95/80/20 66/79/20
f 95/80/20 69/81/21 96/82/21
f 88/80/31 45/81/16 87/82/16
f 45/81/16 88/80/31 46/79/31
f 70/81/13 92/80/12 53/79/12
f 92/80/12 70/81/13 91/82/13
f 53/81/12 93/80/27 52/79/27
f 93/80/27 53/81/12 92/82/12
f 94/82/4 56/79/14 14/81/4
f 56/79/14 94/82/4 75/80/14
f 89/80/32 46/81/31 88/82/31
f 46/81/31 89/80/32 61/79/32
f 59/81/29 96/80/21 69/79/21
f 96/80/21 59/81/29 73/82/29
f 52/81/27 80/80/26 20/79/26
f 80/80/26 52/81/27 93/82/27
f 87/80/16 71/81/15 78/82/15
f 71/81/15 87/80/16 45/79/16

