# Created by Kenney (www.kenney.nl)

mtllib detail_treeLarge.mtl

g detail_treeLarge

v -0.2 0.4 0
v -0.032 0.76 0
v -0.1414214 0.4 0.1414214
v -0.02262742 0.76 0.02262742
v 0.032 0.76 0
v 0.02262742 0.76 0.02262742
v 0.02262742 0.76 -0.02262742
v -7.219114E-16 0.76 -0.032
v -7.219114E-16 0.76 0.032
v -0.02262742 0.76 -0.02262742
v -7.219114E-16 0.4 0.2
v 0.2 0.4 0
v 0.2 0.35 0
v 0.1414214 0.4 0.1414214
v 0.1414214 0.35 0.1414214
v -0.1767767 0.2 -0.1767767
v -0.1191942 0.35 -0.1191942
v -0.25 0.2 0
v -0.168566 0.35 0
v -0.1767767 0.2 0.1767767
v -0.1191942 0.35 0.1191942
v 0.1767767 0.2 -0.1767767
v 0.1767767 0.15 -0.1767767
v 0.25 0.2 0
v 0.25 0.15 0
v -0.2 0.35 0
v -0.1414214 0.35 0.1414214
v -0.1414214 0.4 -0.1414214
v -7.219114E-16 0.4 -0.2
v 0.168566 0.35 -7.219114E-16
v 0.1191942 0.35 0.1191942
v 0.1767767 0.2 0.1767767
v 0.1191942 0.35 -0.1191942
v -7.219114E-16 0.15 -0.25
v -7.219114E-16 0.2 -0.25
v -7.219114E-16 0.15 0.25
v -0.1767767 0.15 0.1767767
v -7.219114E-16 0.2 0.25
v -7.219114E-16 0.35 0.2
v -7.219114E-16 0.35 0.168566
v 0.1414214 0.35 -0.1414214
v -7.219114E-16 0.35 -0.2
v -7.219114E-16 0.35 -0.168566
v -0.1414214 0.35 -0.1414214
v 0.1414214 0.4 -0.1414214
v -0.25 0.15 0
v 0.1767767 0.15 0.1767767
v 0.053125 0.15 0.053125
v 0.053125 0.15 -0.053125
v -0.053125 0.15 0.053125
v -0.053125 0.15 -0.053125
v -0.1767767 0.15 -0.1767767
v -0.0625 0 -0.0625
v 0.0625 0 -0.0625
v -0.0625 0 0.0625
v 0.0625 0 0.0625

vn -0.8483871 0.3959139 0.3514134
vn 0 1 0
vn -0.3514134 0.3959139 0.8483871
vn 0.9238795 0 0.3826834
vn -0.8258243 0.4483344 -0.3420676
vn 0.3514134 0.3959139 0.8483871
vn -0.8258243 0.4483344 0.3420676
vn 0.9238795 0 -0.3826834
vn -0.9238795 0 0.3826834
vn -0.3514134 0.3959139 -0.8483871
vn 0.8258243 0.4483344 0.3420676
vn 0.8483871 0.3959139 0.3514134
vn 0.8258243 0.4483344 -0.3420676
vn 0.3826834 0 -0.9238795
vn -0.3826834 0 0.9238795
vn 0 -1 0
vn -0.3420676 0.4483344 -0.8258243
vn 0.3826834 0 0.9238795
vn 0.3514134 0.3959139 -0.8483871
vn 0.3420676 0.4483344 0.8258243
vn 0.8483871 0.3959139 -0.3514134
vn -0.3420676 0.4483344 0.8258243
vn -0.9238795 0 -0.3826834
vn -0.3826834 0 -0.9238795
vn 0.3420676 0.4483344 -0.8258243
vn -0.8483871 0.3959139 -0.3514134
vn 0 0.06237829 -0.9980526
vn -0.9980526 0.06237829 0
vn 0.9980526 0.06237829 0
vn 0 0.06237829 0.9980526

vt -3.013255 11.58109
vt -0.4821209 27.0155
vt 3.013255 11.58109
vt 0.4821209 27.0155
vt -1.259843 0
vt -0.8908432 0.8908432
vt -0.8908432 -0.8908432
vt 2.842171E-14 -1.259843
vt 2.842171E-14 1.259843
vt 0.8908432 -0.8908432
vt 0.8908432 0.8908432
vt 1.259843 0
vt 3.013255 15.74803
vt 3.013255 13.77953
vt -3.013255 15.74803
vt -3.013255 13.77953
vt -3.766569 2.961473
vt -2.539662 9.568182
vt 3.766569 2.961473
vt 2.539662 9.568182
vt 3.766569 7.874016
vt 3.766569 5.905512
vt -3.766569 7.874016
vt -3.766569 5.905512
vt 7.874016 0
vt 6.636457 -2.842171E-14
vt 5.56777 5.56777
vt 4.692684 4.692684
vt -2.842171E-14 7.874016
vt -2.842171E-14 6.636457
vt -5.56777 5.56777
vt -4.692684 4.692684
vt -6.636457 0
vt -7.874016 0
vt 5.56777 -5.56777
vt 4.692684 -4.692684
vt -2.842171E-14 -7.874016
vt -2.842171E-14 -6.636457
vt -4.692684 -4.692684
vt -5.56777 -5.56777
vt 9.84252 0
vt 6.959713 -6.959713
vt 6.959713 6.959713
vt -2.842171E-14 9.84252
vt 2.091535 2.091535
vt 2.091535 -2.091535
vt -2.091535 2.091535
vt -6.959713 6.959713
vt -2.842171E-14 -9.84252
vt -2.091535 -2.091535
vt -6.959713 -6.959713
vt -9.84252 0
vt 2.46063 -0.1534899
vt -2.46063 -0.1534899
vt 2.091535 5.763545
vt -2.091535 5.763545

usemtl foliage

f 3/3/1 2/2/1 1/1/1
f 2/2/1 3/3/1 4/4/1
f 7/7/2 6/6/2 5/5/2
f 6/6/2 7/7/2 8/8/2
f 6/6/2 8/8/2 9/9/2
f 9/9/2 8/8/2 10/10/2
f 9/9/2 10/10/2 4/11/2
f 4/11/2 10/10/2 2/12/2
f 9/4/3 3/1/3 11/3/3
f 3/1/3 9/4/3 4/2/3
f 14/15/4 13/14/4 12/13/4
f 13/14/4 14/15/4 15/16/4
f 18/19/5 17/18/5 16/17/5
f 17/18/5 18/19/5 19/20/5
f 6/4/6 11/1/6 14/3/6
f 11/1/6 6/4/6 9/2/6
f 20/19/7 19/18/7 18/17/7
f 19/18/7 20/19/7 21/20/7
f 24/23/8 23/22/8 22/21/8
f 23/22/8 24/23/8 25/24/8
f 27/14/9 1/15/9 26/16/9
f 1/15/9 27/14/9 3/13/9
f 10/4/10 29/1/10 28/3/10
f 29/1/10 10/4/10 8/2/10
f 31/18/11 24/19/11 30/20/11
f 24/19/11 31/18/11 32/17/11
f 6/2/12 12/3/12 5/4/12
f 12/3/12 6/2/12 14/1/12
f 33/20/13 24/17/13 22/19/13
f 24/17/13 33/20/13 30/18/13
f 35/21/14 23/24/14 34/22/14
f 23/24/14 35/21/14 22/23/14
f 38/21/15 37/24/15 36/22/15
f 37/24/15 38/21/15 20/23/15
f 15/27/16 30/26/16 13/25/16
f 30/26/16 15/27/16 31/28/16
f 31/28/16 15/27/16 39/29/16
f 31/28/16 39/29/16 40/30/16
f 40/30/16 39/29/16 27/31/16
f 40/30/16 27/31/16 21/32/16
f 21/32/16 27/31/16 19/33/16
f 19/33/16 27/31/16 26/34/16
f 30/26/16 41/35/16 13/25/16
f 41/35/16 30/26/16 33/36/16
f 41/35/16 33/36/16 42/37/16
f 42/37/16 33/36/16 43/38/16
f 42/37/16 43/38/16 17/39/16
f 42/37/16 17/39/16 44/40/16
f 44/40/16 17/39/16 19/33/16
f 44/40/16 19/33/16 26/34/16
f 29/13/14 41/16/14 42/14/14
f 41/16/14 29/13/14 45/15/14
f 12/15/8 41/14/8 45/13/8
f 41/14/8 12/15/8 13/16/8
f 11/13/15 27/16/15 39/14/15
f 27/16/15 11/13/15 3/15/15
f 37/22/9 18/23/9 46/24/9
f 18/23/9 37/22/9 20/21/9
f 17/20/17 35/17/17 16/19/17
f 35/17/17 17/20/17 43/18/17
f 14/13/18 39/16/18 15/14/18
f 39/16/18 14/13/18 11/15/18
f 8/4/19 45/1/19 29/3/19
f 45/1/19 8/4/19 7/2/19
f 31/20/20 38/17/20 32/19/20
f 38/17/20 31/20/20 40/18/20
f 7/4/21 12/1/21 45/3/21
f 12/1/21 7/4/21 5/2/21
f 32/23/4 25/22/4 24/21/4
f 25/22/4 32/23/4 47/24/4
f 40/20/22 20/17/22 38/19/22
f 20/17/22 40/20/22 21/18/22
f 47/43/16 23/42/16 25/41/16
f 23/42/16 47/43/16 36/44/16
f 23/42/16 36/44/16 48/45/16
f 23/42/16 48/45/16 49/46/16
f 48/45/16 36/44/16 50/47/16
f 50/47/16 36/44/16 37/48/16
f 49/46/16 34/49/16 23/42/16
f 34/49/16 49/46/16 51/50/16
f 34/49/16 51/50/16 52/51/16
f 52/51/16 51/50/16 50/47/16
f 52/51/16 50/47/16 37/48/16
f 52/51/16 37/48/16 46/52/16
f 26/14/23 28/15/23 44/16/23
f 28/15/23 26/14/23 1/13/23
f 28/13/24 42/16/24 44/14/24
f 42/16/24 28/13/24 29/15/24
f 16/21/24 34/24/24 52/22/24
f 34/24/24 16/21/24 35/23/24
f 32/21/18 36/24/18 47/22/18
f 36/24/18 32/21/18 38/23/18
f 43/20/25 22/17/25 35/19/25
f 22/17/25 43/20/25 33/18/25
f 1/3/26 10/2/26 28/1/26
f 10/2/26 1/3/26 2/4/26
f 46/22/23 16/23/23 52/24/23
f 16/23/23 46/22/23 18/21/23

usemtl wood

f 51/55/27 54/54/27 53/53/27
f 54/54/27 51/55/27 49/56/27
f 55/53/28 51/56/28 53/54/28
f 51/56/28 55/53/28 50/55/28
f 49/55/29 56/54/29 54/53/29
f 56/54/29 49/55/29 48/56/29
f 48/55/30 55/54/30 56/53/30
f 55/54/30 48/55/30 50/56/30

usemtl _defaultMat

f 56/16/16 53/13/16 54/15/16
f 53/16/16 56/13/16 55/15/16

