# Created by Kenney (www.kenney.nl)

mtllib detail_crystal.mtl

g detail_crystal

v 0.0801 0.285 -0.0801
v 0.0801 0.265 -0.0801
v 0.0801 0.285 0.0801
v 0.0801 0.265 0.0801
v -0.0801 0.285 0.0801
v 0.034443 0.35 0.034443
v -0.034443 0.35 0.034443
v -0.045 0 -0.045
v 0.045 0 -0.045
v -0.0801 0.265 -0.0801
v -0.0801 0.265 0.0801
v -0.045 0 0.045
v -0.0801 0.285 -0.0801
v 0.045 0 0.045
v -0.034443 0.35 -0.034443
v 0.034443 0.35 -0.034443

vn 1 0 0
vn 0 0.5747881 0.8183023
vn 0 -0.131306 -0.9913419
vn -0.9913419 -0.131306 0
vn -1 0 0
vn 0 -0.131306 0.9913419
vn -0.8183023 0.5747881 0
vn 0.8183023 0.5747881 0
vn 0 -1 0
vn 0 0.5747881 -0.8183023
vn 0.9913419 -0.131306 0
vn 0 0 1
vn 0 0 -1
vn 0 1 0

vt 3.153543 11.22047
vt 3.153543 10.43307
vt -3.153543 11.22047
vt -3.153543 10.43307
vt 3.153543 7.369119
vt -3.153543 7.369119
vt 1.356024 10.49639
vt -1.356024 10.49639
vt 1.771654 0.2326288
vt -1.771654 0.2326288
vt 3.153543 10.75682
vt -3.153543 10.75682
vt 1.771654 1.771654
vt 1.771654 -1.771654
vt -1.771654 1.771654
vt -1.771654 -1.771654
vt -1.356024 -1.356024
vt -1.356024 1.356024
vt 1.356024 -1.356024
vt 1.356024 1.356024

usemtl crystal

f 3/3/1 2/2/1 1/1/1
f 2/2/1 3/3/1 4/4/1
f 6/7/2 5/6/2 3/5/2
f 5/6/2 6/7/2 7/8/2
f 10/11/3 9/10/3 8/9/3
f 9/10/3 10/11/3 2/12/3
f 8/10/4 11/11/4 10/12/4
f 11/11/4 8/10/4 12/9/4
f 11/2/5 13/3/5 10/4/5
f 13/3/5 11/2/5 5/1/5
f 4/11/6 12/10/6 14/9/6
f 12/10/6 4/11/6 11/12/6
f 5/5/7 15/8/7 13/6/7
f 15/8/7 5/5/7 7/7/7
f 16/7/8 3/6/8 1/5/8
f 3/6/8 16/7/8 6/8/8
f 12/15/9 9/14/9 14/13/9
f 9/14/9 12/15/9 8/16/9
f 15/7/10 1/6/10 13/5/10
f 1/6/10 15/7/10 16/8/10
f 4/12/11 9/9/11 2/11/11
f 9/9/11 4/12/11 14/10/11
f 3/1/12 11/4/12 4/2/12
f 11/4/12 3/1/12 5/3/12
f 13/1/13 2/4/13 10/2/13
f 2/4/13 13/1/13 1/3/13
f 15/19/14 6/18/14 16/17/14
f 6/18/14 15/19/14 7/20/14

