# Created by Kenney (www.kenney.nl)

mtllib snow_tile_split.mtl

g snow_tile_split

v 0.5 0 0.5
v 0.5 0 -0.5
v -0.5 0 0.5
v -0.5 0 -0.5
v 0.5 0.1 -0.5
v 0.5 0.1 0.5
v -0.5 0.1 0.5
v -0.5 0.1 -0.5
v 0.5 0.2 0.275
v 0.5 0.15 0.275
v 0.5 0.2 0.5
v 0.5 0.15 0.18125
v 0.5 0.15 -0.18125
v 0.5 0.15 -0.275
v 0.5 0.2 -0.275
v 0.5 0.2 -0.5
v -0.5 0.2 -0.5
v -0.5 0.15 -0.275
v -0.5 0.15 -0.18125
v -0.5 0.15 0.18125
v -0.5 0.15 0.275
v -0.5 0.2 0.275
v -0.5 0.2 0.5
v -0.5 0.2 -0.275
v 0.275 0.15 0.5
v 0.275 0.2 0.5
v -0.275 0.15 0.5
v 0.18125 0.15 0.5
v -0.18125 0.15 0.5
v -0.275 0.2 0.5
v 0.4706316 0.2 0.2769249
v 0.4417657 0.2 0.2826667
v 0.4138962 0.2 0.2921271
v 0.3875 0.2 0.3051443
v 0.3630287 0.2 0.3214955
v 0.340901 0.2 0.340901
v 0.3214955 0.2 0.3630287
v 0.3051443 0.2 0.3875
v 0.2921271 0.2 0.4138962
v 0.2826667 0.2 0.4417657
v 0.2769249 0.2 0.4706316
v -0.2769249 0.2 0.4706316
v -0.2826667 0.2 0.4417657
v -0.2921271 0.2 0.4138962
v -0.3051443 0.2 0.3875
v -0.3214955 0.2 0.3630287
v -0.340901 0.2 0.340901
v -0.3630287 0.2 0.3214955
v -0.3875 0.2 0.3051443
v -0.4138962 0.2 0.2921271
v -0.4417657 0.2 0.2826667
v -0.4706316 0.2 0.2769249
v -0.1839769 0.15 0.4583948
v -0.1921111 0.15 0.4175014
v -0.2055134 0.15 0.3780197
v -0.2239544 0.15 0.340625
v -0.2471186 0.15 0.3059573
v -0.2746097 0.15 0.2746097
v -0.2769249 0.15 0.4706316
v -0.3059573 0.15 0.2471186
v -0.2826667 0.15 0.4417657
v -0.2921271 0.15 0.4138962
v -0.3051443 0.15 0.3875
v -0.3214955 0.15 0.3630287
v -0.340625 0.15 0.2239544
v -0.340901 0.15 0.340901
v -0.3780197 0.15 0.2055134
v -0.3630287 0.15 0.3214955
v -0.3875 0.15 0.3051443
v -0.4175014 0.15 0.1921111
v -0.4138962 0.15 0.2921271
v -0.4417657 0.15 0.2826667
v -0.4583948 0.15 0.1839769
v -0.4706316 0.15 0.2769249
v 0.4706316 0.15 0.2769249
v 0.4583948 0.15 0.1839769
v 0.4417657 0.15 0.2826667
v 0.4175014 0.15 0.1921111
v 0.4138962 0.15 0.2921271
v 0.3780197 0.15 0.2055134
v 0.3875 0.15 0.3051443
v 0.3630287 0.15 0.3214955
v 0.340625 0.15 0.2239544
v 0.340901 0.15 0.340901
v 0.3214955 0.15 0.3630287
v 0.3059573 0.15 0.2471186
v 0.3051443 0.15 0.3875
v 0.2746097 0.15 0.2746097
v 0.2921271 0.15 0.4138962
v 0.2826667 0.15 0.4417657
v 0.2769249 0.15 0.4706316
v 0.2471186 0.15 0.3059573
v 0.2239544 0.15 0.340625
v 0.2055134 0.15 0.3780197
v 0.1921111 0.15 0.4175014
v 0.1839769 0.15 0.4583948

vn 0 -1 0
vn 1 0 0
vn 0 0 1
vn -1 0 0
vn 0 0 -1
vn 0 1 0
vn -0.1305262 0 -0.9914449
vn -0.06540313 0 -0.9978589
vn -0.258819 0 -0.9659258
vn -0.3826834 0 -0.9238795
vn -0.5 0 -0.8660254
vn -0.6087614 0 -0.7933533
vn -0.7071068 0 -0.7071068
vn -0.7933533 0 -0.6087614
vn -0.8660254 0 -0.5
vn -0.9238795 0 -0.3826834
vn -0.9659258 0 -0.258819
vn -0.9914449 0 -0.1305262
vn -0.9978589 0 -0.06540313
vn 0.9914449 0 -0.1305262
vn 0.9978589 0 -0.06540313
vn 0.9659258 0 -0.258819
vn 0.9238795 0 -0.3826834
vn 0.8660254 0 -0.5
vn 0.7933533 0 -0.6087614
vn 0.7071068 0 -0.7071068
vn 0.6087614 0 -0.7933533
vn 0.5 0 -0.8660254
vn 0.3826834 0 -0.9238795
vn 0.258819 0 -0.9659258
vn 0.1305262 0 -0.9914449
vn 0.06540313 0 -0.9978589

vt 19.68504 19.68504
vt 19.68504 -19.68504
vt -19.68504 19.68504
vt -19.68504 -19.68504
vt 19.68504 3.937008
vt 19.68504 0
vt -19.68504 3.937008
vt -19.68504 0
vt -10.82677 7.874016
vt -10.82677 5.905512
vt -19.68504 7.874016
vt -7.135827 5.905512
vt 7.135827 5.905512
vt 10.82677 5.905512
vt 10.82677 7.874016
vt 19.68504 7.874016
vt -19.68504 10.82677
vt -18.5288 10.90256
vt -10.82677 19.68504
vt -17.39235 11.12861
vt -16.29513 11.50107
vt -15.25591 12.01355
vt -14.29247 12.6573
vt -13.4213 13.4213
vt -12.6573 14.29247
vt -12.01355 15.25591
vt -11.50107 16.29513
vt -11.12861 17.39235
vt -10.90256 18.5288
vt -19.68504 -10.82677
vt 19.68504 -10.82677
vt 10.82677 19.68504
vt 10.90256 18.5288
vt 11.12861 17.39235
vt 11.50107 16.29513
vt 12.01355 15.25591
vt 12.6573 14.29247
vt 13.4213 13.4213
vt 14.29247 12.6573
vt 15.25591 12.01355
vt 16.29513 11.50107
vt 17.39235 11.12861
vt 18.5288 10.90256
vt 19.68504 10.82677
vt 7.135827 19.68504
vt 7.243187 18.04704
vt 7.563431 16.43706
vt 8.091079 14.88266
vt 8.817102 13.41043
vt 9.729079 12.04556
vt 10.81141 10.81141
vt 12.04556 9.729079
vt 13.41043 8.817102
vt 14.88266 8.091079
vt 16.43706 7.563431
vt 18.04704 7.243187
vt 19.68504 7.135827
vt -19.68504 -7.135827
vt 19.68504 -7.135827
vt -19.68504 7.135827
vt -18.04704 7.243187
vt -16.43706 7.563431
vt -14.88266 8.091079
vt -13.41043 8.817102
vt -12.04556 9.729079
vt -10.81141 10.81141
vt -7.135827 19.68504
vt -9.729079 12.04556
vt -8.817102 13.41043
vt -8.091079 14.88266
vt -7.563431 16.43706
vt -7.243187 18.04704
vt -17.77607 5.905512
vt -18.93479 5.905512
vt -17.77607 7.874016
vt -18.93479 7.874016
vt -14.88708 5.905512
vt -16.0458 5.905512
vt -14.88708 7.874016
vt -16.0458 7.874016
vt -11.73345 5.905512
vt -12.89217 5.905512
vt -11.73345 7.874016
vt -12.89217 7.874016
vt -8.369146 5.905512
vt -9.527864 5.905512
vt -8.369146 7.874016
vt -9.527864 7.874016
vt -4.851732 5.905512
vt -6.010448 5.905512
vt -4.851732 7.874016
vt -6.010448 7.874016
vt -1.241389 5.905512
vt -2.400106 5.905512
vt -1.241389 7.874016
vt -2.400106 7.874016
vt 1.241389 5.905512
vt 1.241389 7.874016
vt 2.400106 5.905512
vt 2.400106 7.874016
vt 4.851732 5.905512
vt 4.851732 7.874016
vt 6.010448 5.905512
vt 6.010448 7.874016
vt 8.369146 5.905512
vt 8.369146 7.874016
vt 9.527864 5.905512
vt 9.527864 7.874016
vt 11.73345 5.905512
vt 11.73345 7.874016
vt 12.89217 5.905512
vt 12.89217 7.874016
vt 14.88708 5.905512
vt 14.88708 7.874016
vt 16.0458 5.905512
vt 16.0458 7.874016
vt 17.77607 5.905512
vt 17.77607 7.874016
vt 18.93479 5.905512
vt 18.93479 7.874016
vt 19.68504 5.905512
vt -19.68504 5.905512

usemtl dirt

f 3/3/1 2/2/1 1/1/1
f 2/2/1 3/3/1 4/4/1
f 6/7/2 2/6/2 5/5/2
f 2/6/2 6/7/2 1/8/2
f 6/5/3 3/8/3 1/6/3
f 3/8/3 6/5/3 7/7/3
f 3/6/4 8/7/4 4/8/4
f 8/7/4 3/6/4 7/5/4
f 8/5/5 2/8/5 4/6/5
f 2/8/5 8/5/5 5/7/5

usemtl snow

f 11/11/2 10/10/2 9/9/2
f 6/7/2 10/10/2 11/11/2
f 6/7/2 12/12/2 10/10/2
f 6/7/2 13/13/2 12/12/2
f 6/7/2 14/14/2 13/13/2
f 5/5/2 14/14/2 6/7/2
f 5/5/2 15/15/2 14/14/2
f 15/15/2 5/5/2 16/16/2
f 17/16/5 5/7/5 8/5/5
f 5/7/5 17/16/5 16/11/5
f 8/7/4 18/10/4 17/11/4
f 18/10/4 8/7/4 7/5/4
f 18/10/4 7/5/4 19/12/4
f 19/12/4 7/5/4 20/13/4
f 20/13/4 7/5/4 21/14/4
f 21/14/4 7/5/4 22/15/4
f 22/15/4 7/5/4 23/16/4
f 24/9/4 17/11/4 18/10/4
f 6/5/3 25/14/3 7/7/3
f 25/14/3 6/5/3 11/16/3
f 25/14/3 11/16/3 26/15/3
f 27/10/3 7/7/3 25/14/3
f 7/7/3 27/10/3 23/11/3
f 27/10/3 25/14/3 28/13/3
f 27/10/3 28/13/3 29/12/3
f 23/11/3 27/10/3 30/9/3
f 31/18/6 11/3/6 9/17/6
f 11/3/6 31/18/6 26/19/6
f 26/19/6 31/18/6 32/20/6
f 26/19/6 32/20/6 33/21/6
f 26/19/6 33/21/6 34/22/6
f 26/19/6 34/22/6 35/23/6
f 26/19/6 35/23/6 36/24/6
f 26/19/6 36/24/6 37/25/6
f 26/19/6 37/25/6 38/26/6
f 26/19/6 38/26/6 39/27/6
f 26/19/6 39/27/6 40/28/6
f 26/19/6 40/28/6 41/29/6
f 16/4/6 24/31/6 15/30/6
f 24/31/6 16/4/6 17/2/6
f 42/33/6 23/1/6 30/32/6
f 23/1/6 42/33/6 43/34/6
f 23/1/6 43/34/6 44/35/6
f 23/1/6 44/35/6 45/36/6
f 23/1/6 45/36/6 46/37/6
f 23/1/6 46/37/6 47/38/6
f 23/1/6 47/38/6 48/39/6
f 23/1/6 48/39/6 49/40/6
f 23/1/6 49/40/6 50/41/6
f 23/1/6 50/41/6 51/42/6
f 23/1/6 51/42/6 52/43/6
f 23/1/6 52/43/6 22/44/6

usemtl snowRoadDark

f 53/46/6 27/32/6 29/45/6
f 27/32/6 53/46/6 54/47/6
f 27/32/6 54/47/6 55/48/6
f 27/32/6 55/48/6 56/49/6
f 27/32/6 56/49/6 57/50/6
f 27/32/6 57/50/6 58/51/6
f 27/32/6 58/51/6 59/33/6
f 59/33/6 58/51/6 60/52/6
f 59/33/6 60/52/6 61/34/6
f 61/34/6 60/52/6 62/35/6
f 62/35/6 60/52/6 63/36/6
f 63/36/6 60/52/6 64/37/6
f 64/37/6 60/52/6 65/53/6
f 64/37/6 65/53/6 66/38/6
f 66/38/6 65/53/6 67/54/6
f 66/38/6 67/54/6 68/39/6
f 68/39/6 67/54/6 69/40/6
f 69/40/6 67/54/6 70/55/6
f 69/40/6 70/55/6 71/41/6
f 71/41/6 70/55/6 72/42/6
f 72/42/6 70/55/6 73/56/6
f 72/42/6 73/56/6 74/43/6
f 74/43/6 73/56/6 20/57/6
f 74/43/6 20/57/6 21/44/6
f 14/30/6 19/59/6 13/58/6
f 19/59/6 14/30/6 18/31/6
f 12/60/6 75/18/6 10/17/6
f 75/18/6 12/60/6 76/61/6
f 75/18/6 76/61/6 77/20/6
f 77/20/6 76/61/6 78/62/6
f 77/20/6 78/62/6 79/21/6
f 79/21/6 78/62/6 80/63/6
f 79/21/6 80/63/6 81/22/6
f 81/22/6 80/63/6 82/23/6
f 82/23/6 80/63/6 83/64/6
f 82/23/6 83/64/6 84/24/6
f 84/24/6 83/64/6 85/25/6
f 85/25/6 83/64/6 86/65/6
f 85/25/6 86/65/6 87/26/6
f 87/26/6 86/65/6 88/66/6
f 87/26/6 88/66/6 89/27/6
f 89/27/6 88/66/6 90/28/6
f 90/28/6 88/66/6 91/29/6
f 91/29/6 88/66/6 25/19/6
f 25/19/6 88/66/6 28/67/6
f 28/67/6 88/66/6 92/68/6
f 28/67/6 92/68/6 93/69/6
f 28/67/6 93/69/6 94/70/6
f 28/67/6 94/70/6 95/71/6
f 28/67/6 95/71/6 96/72/6
f 31/75/7 10/74/8 75/73/7
f 10/74/8 31/75/7 9/76/8
f 32/79/9 75/78/7 77/77/9
f 75/78/7 32/79/9 31/80/7
f 33/83/10 77/82/9 79/81/10
f 77/82/9 33/83/10 32/84/9
f 34/87/11 79/86/10 81/85/11
f 79/86/10 34/87/11 33/88/10
f 35/91/12 81/90/11 82/89/12
f 81/90/11 35/91/12 34/92/11
f 36/95/13 82/94/12 84/93/13
f 82/94/12 36/95/13 35/96/12
f 85/99/14 36/98/13 84/97/13
f 36/98/13 85/99/14 37/100/14
f 87/103/15 37/102/14 85/101/14
f 37/102/14 87/103/15 38/104/15
f 89/107/16 38/106/15 87/105/15
f 38/106/15 89/107/16 39/108/16
f 90/111/17 39/110/16 89/109/16
f 39/110/16 90/111/17 40/112/17
f 91/115/18 40/114/17 90/113/17
f 40/114/17 91/115/18 41/116/18
f 25/119/19 41/118/18 91/117/18
f 41/118/18 25/119/19 26/120/19
f 15/16/3 18/122/3 14/121/3
f 18/122/3 15/16/3 24/11/3
f 30/76/21 59/73/20 42/75/20
f 59/73/20 30/76/21 27/74/21
f 42/80/20 61/77/22 43/79/22
f 61/77/22 42/80/20 59/78/20
f 43/84/22 62/81/23 44/83/23
f 62/81/23 43/84/22 61/82/22
f 44/88/23 63/85/24 45/87/24
f 63/85/24 44/88/23 62/86/23
f 45/92/24 64/89/25 46/91/25
f 64/89/25 45/92/24 63/90/24
f 46/96/25 66/93/26 47/95/26
f 66/93/26 46/96/25 64/94/25
f 48/100/27 66/97/26 68/99/27
f 66/97/26 48/100/27 47/98/26
f 49/104/28 68/101/27 69/103/28
f 68/101/27 49/104/28 48/102/27
f 50/108/29 69/105/28 71/107/29
f 69/105/28 50/108/29 49/106/28
f 51/112/30 71/109/29 72/111/30
f 71/109/29 51/112/30 50/110/29
f 52/116/31 72/113/30 74/115/31
f 72/113/30 52/116/31 51/114/30
f 22/120/32 74/117/31 21/119/32
f 74/117/31 22/120/32 52/118/31

usemtl snowRoad

f 13/58/6 76/61/6 12/60/6
f 76/61/6 13/58/6 19/59/6
f 76/61/6 19/59/6 78/62/6
f 78/62/6 19/59/6 80/63/6
f 80/63/6 19/59/6 83/64/6
f 83/64/6 19/59/6 86/65/6
f 86/65/6 19/59/6 88/66/6
f 88/66/6 19/59/6 92/68/6
f 92/68/6 19/59/6 93/69/6
f 93/69/6 19/59/6 94/70/6
f 94/70/6 19/59/6 95/71/6
f 95/71/6 19/59/6 96/72/6
f 96/72/6 19/59/6 28/67/6
f 28/67/6 19/59/6 56/49/6
f 28/67/6 56/49/6 55/48/6
f 28/67/6 55/48/6 54/47/6
f 28/67/6 54/47/6 53/46/6
f 28/67/6 53/46/6 29/45/6
f 56/49/6 19/59/6 57/50/6
f 57/50/6 19/59/6 58/51/6
f 58/51/6 19/59/6 60/52/6
f 60/52/6 19/59/6 65/53/6
f 65/53/6 19/59/6 67/54/6
f 67/54/6 19/59/6 70/55/6
f 70/55/6 19/59/6 73/56/6
f 73/56/6 19/59/6 20/57/6

