# Created by Kenney (www.kenney.nl)

mtllib snow_tile_spawn.mtl

g snow_tile_spawn

v 0.5 0 0.5
v 0.5 0 -0.5
v -0.5 0 0.5
v -0.5 0 -0.5
v 0.5 0.1 0.5
v -0.5 0.1 0.5
v -0.5 0.1 -0.5
v 0.5 0.1 -0.5
v -0.275 0.15 -0.5
v -0.5 0.2 -0.5
v -0.275 0.2 -0.5
v 0.275 0.15 -0.5
v 0.5 0.2 -0.5
v -0.18125 0.15 -0.5
v 0.18125 0.15 -0.5
v 0.275 0.2 -0.5
v 0.5 0.2 0.5
v -0.5 0.2 0.5
v -0.275 0.2 0.5
v 0.275 0.2 0.5
v 0.275 0.15 0.5
v -0.275 0.15 0.5
v 0.18125 0.15 0.5
v -0.18125 0.15 0.5
v 0.18125 0.15 0.18125
v 0.18125 0.15 -0.18125
v -0.18125 0.15 -0.18125
v -0.18125 0.15 0.18125
v 0.1048286 0.1 -0.1048286
v -0.1048286 0.1 -0.1048286
v 0.1310358 0.15 -0.1310358
v -0.1310358 0.15 -0.1310358
v 0.1310358 0.15 0.1310358
v 0.1048286 0.1 0.1048286
v -0.1048286 0.1 0.1048286
v -0.1310358 0.15 0.1310358

vn 0 -1 0
vn 0 0 1
vn -1 0 0
vn 0 0 -1
vn 1 0 0
vn 0 1 0
vn 0 0.4642389 0.8857101
vn -0.8857101 0.4642389 0
vn 0.8857101 0.4642389 0
vn 0 0.4642389 -0.8857101

vt 19.68504 19.68504
vt 19.68504 -19.68504
vt -19.68504 19.68504
vt -19.68504 -19.68504
vt 19.68504 0
vt -19.68504 0
vt 19.68504 3.937008
vt -19.68504 3.937008
vt 10.82677 5.905512
vt 19.68504 7.874016
vt 10.82677 7.874016
vt -10.82677 5.905512
vt -19.68504 7.874016
vt 7.135827 5.905512
vt -7.135827 5.905512
vt -10.82677 7.874016
vt 10.82677 19.68504
vt 10.82677 -19.68504
vt -10.82677 19.68504
vt -10.82677 -19.68504
vt -7.135827 7.135827
vt -7.135827 -19.68504
vt -7.135827 -7.135827
vt -7.135827 19.68504
vt 7.135827 -19.68504
vt 7.135827 -7.135827
vt 7.135827 7.135827
vt 7.135827 19.68504
vt 19.68504 5.905512
vt -19.68504 5.905512
vt 4.127111 5.403013
vt -4.127111 5.403013
vt 5.15889 7.625528
vt -5.15889 7.625528
vt -4.127111 4.127111
vt 4.127111 4.127111
vt -4.127111 -4.127111
vt 4.127111 -4.127111
vt -5.15889 5.15889
vt -5.15889 -5.15889
vt 5.15889 -5.15889
vt 5.15889 5.15889

usemtl dirt

f 3/3/1 2/2/1 1/1/1
f 2/2/1 3/3/1 4/4/1
f 5/7/2 3/6/2 1/5/2
f 3/6/2 5/7/2 6/8/2
f 3/5/3 7/8/3 4/6/3
f 7/8/3 3/5/3 6/7/3
f 7/7/4 2/6/4 4/5/4
f 2/6/4 7/7/4 8/8/4
f 5/8/5 2/5/5 8/7/5
f 2/5/5 5/8/5 1/6/5

usemtl snow

f 7/7/4 9/9/4 8/8/4
f 9/9/4 7/7/4 10/10/4
f 9/9/4 10/10/4 11/11/4
f 12/12/4 8/8/4 9/9/4
f 8/8/4 12/12/4 13/13/4
f 12/12/4 9/9/4 14/14/4
f 12/12/4 14/14/4 15/15/4
f 13/13/4 12/12/4 16/16/4
f 17/13/5 8/7/5 13/10/5
f 8/7/5 17/13/5 5/8/5
f 6/7/3 10/13/3 7/8/3
f 10/13/3 6/7/3 18/10/3
f 11/18/6 18/1/6 19/17/6
f 18/1/6 11/18/6 10/2/6
f 13/4/6 20/19/6 17/3/6
f 20/19/6 13/4/6 16/20/6
f 5/7/2 21/9/2 6/8/2
f 21/9/2 5/7/2 17/10/2
f 21/9/2 17/10/2 20/11/2
f 22/12/2 6/8/2 21/9/2
f 6/8/2 22/12/2 18/13/2
f 22/12/2 21/9/2 23/14/2
f 22/12/2 23/14/2 24/15/2
f 18/13/2 22/12/2 19/16/2

usemtl snowRoadDark

f 15/22/6 25/21/6 12/20/6
f 25/21/6 15/22/6 26/23/6
f 23/24/6 12/20/6 25/21/6
f 12/20/6 23/24/6 21/19/6
f 9/18/6 27/26/6 14/25/6
f 27/26/6 9/18/6 28/27/6
f 28/27/6 9/18/6 22/17/6
f 22/17/6 24/28/6 28/27/6
f 19/13/5 9/29/5 11/10/5
f 9/29/5 19/13/5 22/30/5
f 21/29/3 16/13/3 12/30/3
f 16/13/3 21/29/3 20/10/3

usemtl stoneDark

f 31/33/7 30/32/7 29/31/7
f 30/32/7 31/33/7 32/34/7
f 29/32/8 33/33/8 31/34/8
f 33/33/8 29/32/8 34/31/8
f 29/37/6 35/36/6 34/35/6
f 35/36/6 29/37/6 30/38/6
f 36/34/9 30/31/9 32/33/9
f 30/31/9 36/34/9 35/32/9
f 36/33/10 34/32/10 35/31/10
f 34/32/10 36/33/10 33/34/10

usemtl stone

f 26/23/6 31/40/6 33/39/6
f 31/40/6 26/23/6 27/26/6
f 31/40/6 27/26/6 32/41/6
f 32/41/6 27/26/6 36/42/6
f 33/39/6 25/21/6 26/23/6
f 25/21/6 33/39/6 28/27/6
f 28/27/6 33/39/6 36/42/6
f 28/27/6 36/42/6 27/26/6

usemtl snowRoad

f 14/25/6 26/23/6 15/22/6
f 26/23/6 14/25/6 27/26/6
f 28/27/6 23/24/6 25/21/6
f 23/24/6 28/27/6 24/28/6

