# Created by Kenney (www.kenney.nl)

mtllib snow_tile_straightHill.mtl

g snow_tile_straightHill

v -0.5 0.3 -0.5
v -0.5 0.4 -0.5
v -0.5 0.1 0.5
v -0.5 0.2 0.5
v 0.5 0.3 -0.5
v -0.275 0.35 -0.5
v -0.275 0.4 -0.5
v 0.275 0.35 -0.5
v 0.5 0.4 -0.5
v -0.18125 0.35 -0.5
v 0.18125 0.35 -0.5
v 0.275 0.4 -0.5
v 0.5 0.1 0.5
v 0.5 0.2 0.5
v 0.275 0.2 0.5
v 0.275 0.15 0.5
v -0.275 0.15 0.5
v 0.18125 0.15 0.5
v -0.18125 0.15 0.5
v -0.275 0.2 0.5
v 0.5 0 -0.5
v 0.5 0 0.5
v -0.5 0 -0.5
v -0.5 0 0.5

vn -1 0 0
vn 0 0 -1
vn 1 0 0
vn 0 0.9805807 0.1961161
vn 0 0 1
vn 0 -1 0

vt -19.68504 11.81102
vt -19.68504 15.74803
vt 19.68504 3.937008
vt 19.68504 7.874016
vt 10.82677 13.77953
vt 19.68504 11.81102
vt 19.68504 15.74803
vt 10.82677 15.74803
vt -10.82677 13.77953
vt 7.135827 13.77953
vt -7.135827 13.77953
vt -10.82677 15.74803
vt -19.68504 3.937008
vt -19.68504 7.874016
vt 19.68504 22.39121
vt 19.68504 -17.75855
vt 10.82677 22.39121
vt 10.82677 -17.75855
vt 10.82677 5.905512
vt 10.82677 7.874016
vt -10.82677 5.905512
vt 7.135827 5.905512
vt -7.135827 5.905512
vt -10.82677 7.874016
vt -10.82677 22.39121
vt -10.82677 -17.75855
vt -19.68504 22.39121
vt -19.68504 -17.75855
vt -7.135827 22.00516
vt -7.135827 -18.1446
vt -10.82677 22.00516
vt -10.82677 -18.1446
vt 19.68504 13.77953
vt -19.68504 5.905512
vt 10.82677 22.00516
vt 10.82677 -18.1446
vt 7.135827 22.00516
vt 7.135827 -18.1446
vt -19.68504 13.77953
vt 19.68504 5.905512
vt 19.68504 0
vt -19.68504 0
vt 19.68504 -19.68504
vt -19.68504 -19.68504
vt 19.68504 19.68504
vt -19.68504 19.68504
vt 19.68504 9.473903E-14
vt -19.68504 9.473903E-14

usemtl snow

f 3/3/1 2/2/1 1/1/1
f 2/2/1 3/3/1 4/4/1
f 1/6/2 6/5/2 5/1/2
f 6/5/2 1/6/2 2/7/2
f 6/5/2 2/7/2 7/8/2
f 8/9/2 5/1/2 6/5/2
f 5/1/2 8/9/2 9/2/2
f 8/9/2 6/5/2 10/10/2
f 8/9/2 10/10/2 11/11/2
f 9/2/2 8/9/2 12/12/2
f 9/7/3 13/13/3 5/6/3
f 13/13/3 9/7/3 14/14/3
f 12/17/4 14/16/4 9/15/4
f 14/16/4 12/17/4 15/18/4
f 13/3/5 16/19/5 3/13/5
f 16/19/5 13/3/5 14/4/5
f 16/19/5 14/4/5 15/20/5
f 17/21/5 3/13/5 16/19/5
f 3/13/5 17/21/5 4/14/5
f 17/21/5 16/19/5 18/22/5
f 17/21/5 18/22/5 19/23/5
f 4/14/5 17/21/5 20/24/5
f 2/27/4 20/26/4 7/25/4
f 20/26/4 2/27/4 4/28/4

usemtl snowRoadDark

f 6/31/4 19/30/4 10/29/4
f 19/30/4 6/31/4 17/32/4
f 20/14/3 6/33/3 7/7/3
f 6/33/3 20/14/3 17/34/3
f 11/37/4 16/36/4 8/35/4
f 16/36/4 11/37/4 18/38/4
f 16/40/1 12/2/1 8/39/1
f 12/2/1 16/40/1 15/4/1

usemtl dirt

f 13/13/3 21/41/3 5/6/3
f 21/41/3 13/13/3 22/42/3
f 23/42/1 3/3/1 1/1/1
f 3/3/1 23/42/1 24/41/1
f 22/45/6 23/44/6 21/43/6
f 23/44/6 22/45/6 24/46/6
f 13/3/5 24/42/5 22/41/5
f 24/42/5 13/3/5 3/13/5
f 1/6/2 21/48/2 23/47/2
f 21/48/2 1/6/2 5/1/2

usemtl snowRoad

f 10/29/4 18/38/4 11/37/4
f 18/38/4 10/29/4 19/30/4

