# Created by Kenney (www.kenney.nl)

mtllib snow_tile_cornerSquare.mtl

g snow_tile_cornerSquare

v 0.5 0.15 -0.18125
v -0.18125 0.15 -0.18125
v 0.5 0.15 -0.275
v -0.275 0.15 -0.275
v -0.18125 0.15 0.5
v -0.275 0.15 0.5
v -0.275 0.2 -0.275
v -0.275 0.2 0.5
v 0.275 0.15 0.275
v 0.275 0.2 0.275
v 0.275 0.15 0.5
v 0.275 0.2 0.5
v 0.5 0.15 0.275
v 0.5 0.2 0.275
v 0.5 0.2 -0.275
v 0.5 0.15 0.18125
v 0.18125 0.15 0.18125
v 0.18125 0.15 0.5
v -0.5 0.1 0.5
v 0.5 0.1 0.5
v 0.5 0.2 0.5
v -0.5 0.2 0.5
v 0.5 0.1 -0.5
v 0.5 0.2 -0.5
v -0.5 0.1 -0.5
v -0.5 0.2 -0.5
v 0.5 0 -0.5
v 0.5 0 0.5
v -0.5 0 0.5
v -0.5 0 -0.5

vn 0 1 0
vn 1 0 0
vn -1 0 0
vn 0 0 -1
vn 0 0 1
vn 0 -1 0

vt -19.68504 -7.135827
vt 7.135827 -7.135827
vt -19.68504 -10.82677
vt 10.82677 -10.82677
vt 7.135827 19.68504
vt 10.82677 19.68504
vt 10.82677 7.874016
vt 10.82677 5.905512
vt -19.68504 7.874016
vt -19.68504 5.905512
vt 19.68504 5.905512
vt 19.68504 7.874016
vt -10.82677 5.905512
vt -10.82677 7.874016
vt -19.68504 7.135827
vt -19.68504 10.82677
vt -7.135827 7.135827
vt -10.82677 10.82677
vt -7.135827 19.68504
vt -10.82677 19.68504
vt -19.68504 3.937008
vt 19.68504 3.937008
vt 7.135827 5.905512
vt -7.135827 5.905512
vt -19.68504 19.68504
vt -19.68504 -19.68504
vt 19.68504 -19.68504
vt 19.68504 19.68504
vt 19.68504 0
vt -19.68504 0

usemtl snowRoadDark

f 3/3/1 2/2/1 1/1/1
f 2/2/1 3/3/1 4/4/1
f 2/2/1 4/4/1 5/5/1
f 5/5/1 4/4/1 6/6/1
f 8/9/2 4/8/2 7/7/2
f 4/8/2 8/9/2 6/10/2
f 11/11/3 10/7/3 9/8/3
f 10/7/3 11/11/3 12/12/3
f 10/14/4 13/10/4 9/13/4
f 13/10/4 10/14/4 14/9/4
f 15/12/5 4/13/5 3/11/5
f 4/13/5 15/12/5 7/14/5
f 17/17/1 13/16/1 16/15/1
f 13/16/1 17/17/1 9/18/1
f 18/19/1 9/18/1 17/17/1
f 9/18/1 18/19/1 11/20/1

usemtl snow

f 20/22/5 11/8/5 19/21/5
f 11/8/5 20/22/5 21/12/5
f 11/8/5 21/12/5 12/7/5
f 6/13/5 19/21/5 11/8/5
f 19/21/5 6/13/5 22/9/5
f 6/13/5 11/8/5 18/23/5
f 6/13/5 18/23/5 5/24/5
f 22/9/5 6/13/5 8/14/5
f 21/9/2 13/13/2 14/14/2
f 20/21/2 13/13/2 21/9/2
f 20/21/2 16/24/2 13/13/2
f 20/21/2 1/23/2 16/24/2
f 20/21/2 3/8/2 1/23/2
f 23/22/2 3/8/2 20/21/2
f 23/22/2 15/7/2 3/8/2
f 15/7/2 23/22/2 24/12/2
f 19/22/3 26/9/3 25/21/3
f 26/9/3 19/22/3 22/12/3
f 14/16/1 12/20/1 21/25/1
f 12/20/1 14/16/1 10/18/1
f 24/26/1 7/4/1 15/3/1
f 7/4/1 24/26/1 26/27/1
f 7/4/1 26/27/1 22/28/1
f 22/28/1 8/6/1 7/4/1
f 26/12/4 23/21/4 25/22/4
f 23/21/4 26/12/4 24/9/4

usemtl dirt

f 20/21/2 27/29/2 23/22/2
f 27/29/2 20/21/2 28/30/2
f 29/25/6 27/27/6 28/28/6
f 27/27/6 29/25/6 30/26/6
f 29/29/3 25/21/3 30/30/3
f 25/21/3 29/29/3 19/22/3
f 25/22/4 27/30/4 30/29/4
f 27/30/4 25/22/4 23/21/4
f 20/22/5 29/30/5 28/29/5
f 29/30/5 20/22/5 19/21/5

usemtl snowRoad

f 1/1/1 17/17/1 16/15/1
f 17/17/1 1/1/1 2/2/1
f 17/17/1 2/2/1 18/19/1
f 18/19/1 2/2/1 5/5/1

