# Created by Kenney (www.kenney.nl)

mtllib snow_tile_riverFall.mtl

g snow_tile_riverFall

v 0.25 0.3304381 -0.4603323
v -0.25 0.3304381 -0.4603323
v 0.25 0.3353553 -0.4646446
v -0.25 0.3353553 -0.4646446
v 0.25 0.35 -0.5
v 0.25 0.3495722 -0.4934737
v -0.25 0.35 -0.5
v -0.25 0.3495722 -0.4934737
v 0.25 0.3482963 -0.487059
v -0.25 0.3482963 -0.487059
v 0.25 0.3433013 -0.475
v 0.25 0.3396676 -0.4695619
v -0.25 0.3433013 -0.475
v -0.25 0.3396676 -0.4695619
v 0.25 0.346194 -0.4808658
v -0.25 0.346194 -0.4808658
v 0.25 0.15 -0.45
v -0.25 0.15 -0.45
v 0.25 0.3 -0.45
v -0.25 0.3 -0.45
v 0.25 0.15 0.5
v -0.25 0.15 0.5
v 0.25 0.1 0.5
v -0.25 0.1 0.5
v 0.25 0.3065263 -0.4504277
v -0.25 0.3065263 -0.4504277
v 0.25 0.3191342 -0.453806
v -0.25 0.3191342 -0.453806
v 0.25 0.325 -0.4566987
v -0.25 0.325 -0.4566987
v 0.25 0.312941 -0.4517037
v -0.25 0.312941 -0.4517037
v 0.5 0.2 -0.4
v 0.5 0.2 0.5
v 0.375 0.2 -0.4
v 0.375 0.2 0.5
v 0.5 0.4 -0.4
v 0.375 0.4 -0.4
v -0.5 0.4 -0.5
v -0.5 0.2 -0.4
v -0.5 0.1 -0.5
v -0.5 0.1 0.5
v -0.5 0.2 0.5
v -0.5 0.4 -0.4
v 0.5 0.4 -0.5
v 0.375 0.4 -0.5
v -0.375 0.4 -0.5
v -0.375 0.4 -0.4
v 0.5 0.1 0.5
v 0.375 0.1 0.5
v 0.5 0.1 -0.5
v -0.375 0.2 -0.4
v -0.375 0.1 0.5
v -0.375 0.2 0.5
v 0.5 0 0.5
v 0.5 0 -0.5
v -0.5 0 0.5
v -0.5 0 -0.5
v 0.25 0.2 0.5
v -0.25 0.2 0.5
v -0.25 0.4 -0.5
v 0.25 0.4 -0.5
v -0.25 0.2 -0.4
v 0.25 0.2 -0.4
v 0.25 0.4 -0.4
v -0.25 0.4 -0.4

vn 0 0.6087614 0.7933533
vn 0 0.7071068 0.7071068
vn 0 0.9978589 0.06540313
vn 0 0.9914449 0.1305262
vn 0 0.9659258 0.258819
vn 0 0.8660254 0.5
vn 0 0.7933533 0.6087614
vn 0 0.9238795 0.3826834
vn 0 0 1
vn 0 1 0
vn 0 0.06540313 0.9978589
vn 0 0.1305262 0.9914449
vn 0 0.3826834 0.9238795
vn 0 0.5 0.8660254
vn 0 0.258819 0.9659258
vn -1 0 0
vn 1 0 0
vn 0 -1 0
vn 0 0 -1

vt 9.84252 21.7305
vt -9.84252 21.7305
vt 9.84252 21.98799
vt -9.84252 21.98799
vt 9.84252 20.54412
vt 9.84252 20.28662
vt -9.84252 20.54412
vt -9.84252 20.28662
vt 9.84252 21.73976
vt 9.84252 21.48227
vt -9.84252 21.73976
vt -9.84252 21.48227
vt 9.84252 23.05811
vt 9.84252 22.80062
vt -9.84252 23.05811
vt -9.84252 22.80062
vt 9.84252 23.0076
vt 9.84252 22.75011
vt -9.84252 23.0076
vt -9.84252 22.75011
vt 9.84252 5.905512
vt -9.84252 5.905512
vt 9.84252 11.81102
vt -9.84252 11.81102
vt -9.84252 19.68504
vt 9.84252 19.68504
vt -9.84252 -17.71654
vt 9.84252 -17.71654
vt 9.84252 3.937008
vt -9.84252 3.937008
vt 9.84252 12.94445
vt -9.84252 12.94445
vt 9.84252 13.20194
vt -9.84252 13.20194
vt 9.84252 19.17071
vt -9.84252 19.17071
vt 9.84252 19.4282
vt -9.84252 19.4282
vt 9.84252 20.62818
vt -9.84252 20.62818
vt 9.84252 20.88568
vt -9.84252 20.88568
vt 9.84252 15.29569
vt -9.84252 15.29569
vt 9.84252 15.55319
vt -9.84252 15.55319
vt 9.84252 22.71629
vt 9.84252 22.4588
vt -9.84252 22.71629
vt -9.84252 22.4588
vt 9.84252 17.38302
vt -9.84252 17.38302
vt 9.84252 17.64051
vt -9.84252 17.64051
vt 9.84252 22.56563
vt 9.84252 22.30814
vt -9.84252 22.56563
vt -9.84252 22.30814
vt -19.68504 -15.74803
vt -19.68504 19.68504
vt -14.76378 -15.74803
vt -14.76378 19.68504
vt 19.68504 7.874016
vt 14.76378 7.874016
vt 19.68504 15.74803
vt 14.76378 15.74803
vt -19.68504 15.74803
vt -15.74803 7.874016
vt -19.68504 3.937008
vt 19.68504 3.937008
vt -15.74803 15.74803
vt -19.68504 -19.68504
vt -14.76378 -19.68504
vt 14.76378 -19.68504
vt 14.76378 -15.74803
vt 19.68504 -19.68504
vt 19.68504 -15.74803
vt 14.76378 3.937008
vt 15.74803 15.74803
vt 15.74803 7.874016
vt -19.68504 7.874016
vt -14.76378 7.874016
vt -14.76378 15.74803
vt -14.76378 3.937008
vt 14.76378 19.68504
vt 19.68504 19.68504
vt 9.84252 7.874016
vt -19.68504 0
vt 19.68504 0
vt -9.84252 7.874016
vt 9.84252 13.77953
vt 9.84252 15.74803
vt -9.84252 13.77953
vt -9.84252 15.74803
vt 9.84252 -15.74803
vt 19.68504 13.77953
vt 19.4281 13.76269
vt 19.17555 13.71245
vt 18.93173 13.62968
vt 18.70079 13.5158
vt 18.48669 13.37274
vt 18.2931 13.20297
vt 18.12332 13.00937
vt 17.98026 12.79528
vt 17.86638 12.56434
vt 17.78361 12.32051
vt 17.73338 12.06796
vt 17.71654 11.81102
vt 17.71654 5.905512
vt -19.68504 5.905512
vt -9.84252 -15.74803
vt -9.84252 -19.68504
vt -17.71654 11.81102
vt -17.71654 5.905512
vt 19.68504 5.905512
vt -17.73338 12.06796
vt -17.78361 12.32051
vt -17.86638 12.56434
vt -17.98026 12.79528
vt -18.12332 13.00937
vt -18.2931 13.20297
vt -18.48669 13.37274
vt -18.70079 13.5158
vt -18.93173 13.62968
vt -19.17555 13.71245
vt -19.4281 13.76269
vt -19.68504 13.77953
vt 9.84252 -19.68504

usemtl water

f 3/3/2 2/2/1 1/1/1
f 2/2/1 3/3/2 4/4/2
f 7/7/3 6/6/4 5/5/3
f 6/6/4 7/7/3 8/8/4
f 8/11/4 9/10/5 6/9/4
f 9/10/5 8/11/4 10/12/5
f 13/15/6 12/14/7 11/13/6
f 12/14/7 13/15/6 14/16/7
f 16/19/8 11/18/6 15/17/8
f 11/18/6 16/19/8 13/20/6
f 19/23/9 18/22/9 17/21/9
f 18/22/9 19/23/9 20/24/9
f 17/27/10 22/26/10 21/25/10
f 22/26/10 17/27/10 18/28/10
f 21/21/9 24/30/9 23/29/9
f 24/30/9 21/21/9 22/22/9
f 25/33/12 20/32/11 19/31/11
f 20/32/11 25/33/12 26/34/12
f 29/37/14 28/36/13 27/35/13
f 28/36/13 29/37/14 30/38/14
f 1/41/1 30/40/14 29/39/14
f 30/40/14 1/41/1 2/42/1
f 31/45/15 26/44/12 25/43/12
f 26/44/12 31/45/15 32/46/15
f 14/49/7 3/48/2 12/47/7
f 3/48/2 14/49/7 4/50/2
f 27/53/13 32/52/15 31/51/15
f 32/52/15 27/53/13 28/54/13
f 10/57/5 15/56/8 9/55/5
f 15/56/8 10/57/5 16/58/8

usemtl snow

f 35/61/10 34/60/10 33/59/10
f 34/60/10 35/61/10 36/62/10
f 37/65/9 35/64/9 33/63/9
f 35/64/9 37/65/9 38/66/9
f 41/69/16 40/68/16 39/67/16
f 40/68/16 41/69/16 42/70/16
f 40/68/16 42/70/16 43/63/16
f 44/71/16 39/67/16 40/68/16
f 46/73/10 37/59/10 45/72/10
f 37/59/10 46/73/10 38/61/10
f 39/76/10 48/75/10 47/74/10
f 48/75/10 39/76/10 44/77/10
f 34/63/9 50/78/9 49/70/9
f 50/78/9 34/63/9 36/64/9
f 37/79/17 51/70/17 45/65/17
f 51/70/17 37/79/17 33/80/17
f 51/70/17 33/80/17 49/69/17
f 49/69/17 33/80/17 34/81/17
f 48/83/9 40/81/9 52/82/9
f 40/81/9 48/83/9 44/67/9
f 54/82/9 42/69/9 53/84/9
f 42/69/9 54/82/9 43/81/9
f 52/75/10 43/86/10 54/85/10
f 43/86/10 52/75/10 40/77/10

usemtl dirt

f 57/60/18 56/76/18 55/86/18
f 56/76/18 57/60/18 58/72/18
f 36/64/9 23/29/9 50/78/9
f 23/29/9 36/64/9 21/21/9
f 21/21/9 36/64/9 59/87/9
f 42/69/9 50/78/9 23/29/9
f 42/69/9 49/70/9 50/78/9
f 57/88/9 49/70/9 42/69/9
f 49/70/9 57/88/9 55/89/9
f 42/69/9 23/29/9 24/30/9
f 42/69/9 24/30/9 53/84/9
f 22/22/9 53/84/9 24/30/9
f 53/84/9 22/22/9 54/82/9
f 54/82/9 22/22/9 60/90/9
f 41/70/19 56/88/19 58/89/19
f 56/88/19 41/70/19 51/69/19
f 51/69/19 41/70/19 39/65/19
f 51/69/19 39/65/19 7/91/19
f 7/91/19 39/65/19 61/92/19
f 61/92/19 39/65/19 47/66/19
f 5/93/19 51/69/19 7/91/19
f 51/69/19 5/93/19 45/67/19
f 45/67/19 5/93/19 62/94/19
f 45/67/19 62/94/19 46/83/19
f 63/95/10 54/85/10 60/26/10
f 54/85/10 63/95/10 52/75/10
f 38/66/9 64/87/9 35/64/9
f 64/87/9 38/66/9 65/92/9
f 49/69/17 56/89/17 51/70/17
f 56/89/17 49/69/17 55/88/17
f 57/89/16 41/69/16 58/88/16
f 41/69/16 57/89/16 42/70/16
f 66/79/17 7/96/17 61/65/17
f 7/96/17 66/79/17 8/97/17
f 8/97/17 66/79/17 10/98/17
f 10/98/17 66/79/17 16/99/17
f 16/99/17 66/79/17 13/100/17
f 13/100/17 66/79/17 14/101/17
f 14/101/17 66/79/17 4/102/17
f 4/102/17 66/79/17 2/103/17
f 2/103/17 66/79/17 30/104/17
f 30/104/17 66/79/17 28/105/17
f 28/105/17 66/79/17 32/106/17
f 32/106/17 66/79/17 26/107/17
f 26/107/17 66/79/17 20/108/17
f 20/108/17 66/79/17 18/109/17
f 18/109/17 66/79/17 63/80/17
f 18/109/17 63/80/17 22/110/17
f 22/110/17 63/80/17 60/81/17
f 64/111/10 36/62/10 35/61/10
f 36/62/10 64/111/10 59/25/10
f 46/73/10 65/111/10 38/61/10
f 65/111/10 46/73/10 62/112/10
f 66/94/9 52/82/9 63/90/9
f 52/82/9 66/94/9 48/83/9
f 17/114/16 64/68/16 19/113/16
f 64/68/16 17/114/16 21/115/16
f 64/68/16 21/115/16 59/63/16
f 65/71/16 19/113/16 64/68/16
f 65/71/16 25/116/16 19/113/16
f 65/71/16 31/117/16 25/116/16
f 65/71/16 27/118/16 31/117/16
f 65/71/16 29/119/16 27/118/16
f 65/71/16 1/120/16 29/119/16
f 65/71/16 3/121/16 1/120/16
f 65/71/16 12/122/16 3/121/16
f 65/71/16 11/123/16 12/122/16
f 65/71/16 15/124/16 11/123/16
f 65/71/16 9/125/16 15/124/16
f 65/71/16 6/126/16 9/125/16
f 62/67/16 6/126/16 65/71/16
f 6/126/16 62/67/16 5/127/16
f 47/74/10 66/95/10 61/128/10
f 66/95/10 47/74/10 48/75/10

