# Created by Kenney (www.kenney.nl)

mtllib snow_detail_treeLarge.mtl

g snow_detail_treeLarge

v -0.2 0.4 0
v -0.032 0.76 0
v -0.1414214 0.4 0.1414214
v -0.02262742 0.76 0.02262742
v 0.032 0.76 0
v 0.02262742 0.76 0.02262742
v 0.02262742 0.76 -0.02262742
v -7.219114E-16 0.76 -0.032
v -7.219114E-16 0.76 0.032
v -0.02262742 0.76 -0.02262742
v -7.219114E-16 0.4 0.2
v -0.1767767 0.2 -0.1767767
v -0.1191942 0.35 -0.1191942
v -0.25 0.2 0
v -0.168566 0.35 0
v 0.1414214 0.4 0.1414214
v -0.1767767 0.2 0.1767767
v -0.1191942 0.35 0.1191942
v -0.1414214 0.4 -0.1414214
v -7.219114E-16 0.4 -0.2
v 0.168566 0.35 -1.443823E-15
v 0.25 0.2 0
v 0.1191942 0.35 0.1191942
v 0.1767767 0.2 0.1767767
v 0.2 0.4 0
v 0.1767767 0.2 -0.1767767
v 0.1191942 0.35 -0.1191942
v -7.219114E-16 0.2 -0.25
v -7.219114E-16 0.35 -0.168566
v 0.1414214 0.4 -0.1414214
v -7.219114E-16 0.2 0.25
v -7.219114E-16 0.35 0.168566
v -0.0625 0 -0.0625
v 0.0625 0 -0.0625
v -0.053125 0.15 -0.053125
v 0.053125 0.15 -0.053125
v -0.0625 0 0.0625
v -0.053125 0.15 0.053125
v 0.0625 0 0.0625
v 0.053125 0.15 0.053125
v 0.2 0.35 0
v 0.1414214 0.35 0.1414214
v 0.1767767 0.15 -0.1767767
v 0.25 0.15 0
v -0.2 0.35 0
v -0.1414214 0.35 0.1414214
v -7.219114E-16 0.15 -0.25
v -7.219114E-16 0.15 0.25
v -0.1767767 0.15 0.1767767
v -7.219114E-16 0.35 0.2
v 0.1414214 0.35 -0.1414214
v -7.219114E-16 0.35 -0.2
v -0.1414214 0.35 -0.1414214
v -0.25 0.15 0
v 0.1767767 0.15 0.1767767
v -0.1767767 0.15 -0.1767767

vn -0.8483871 0.3959139 0.3514134
vn 0 1 0
vn -0.3514134 0.3959139 0.8483871
vn -0.8258243 0.4483344 -0.3420676
vn 0.3514134 0.3959139 0.8483871
vn -0.8258243 0.4483344 0.3420676
vn -0.3514134 0.3959139 -0.8483871
vn 0.8258243 0.4483344 0.3420676
vn 0.8483871 0.3959139 0.3514134
vn 0.8258243 0.4483344 -0.3420676
vn -0.3420676 0.4483344 -0.8258243
vn 0.3514134 0.3959139 -0.8483871
vn 0.3420676 0.4483344 0.8258243
vn 0.8483871 0.3959139 -0.3514134
vn -0.3420676 0.4483344 0.8258243
vn 0.3420676 0.4483344 -0.8258243
vn -0.8483871 0.3959139 -0.3514134
vn 0 0.06237829 -0.9980526
vn -0.9980526 0.06237829 0
vn 0.9980526 0.06237829 0
vn 0 0.06237829 0.9980526
vn 0.9238795 0 0.3826834
vn 0.9238795 0 -0.3826834
vn -0.9238795 0 0.3826834
vn 0.3826834 0 -0.9238795
vn -0.3826834 0 0.9238795
vn 0 -1 0
vn 0.3826834 0 0.9238795
vn -0.9238795 0 -0.3826834
vn -0.3826834 0 -0.9238795

vt -3.013255 11.58109
vt -0.4821209 27.0155
vt 3.013255 11.58109
vt 0.4821209 27.0155
vt -1.259843 0
vt -0.8908432 0.8908432
vt -0.8908432 -0.8908432
vt 2.842171E-14 -1.259843
vt 2.842171E-14 1.259843
vt 0.8908432 -0.8908432
vt 0.8908432 0.8908432
vt 1.259843 0
vt -3.766569 2.961473
vt -2.539662 9.568182
vt 3.766569 2.961473
vt 2.539662 9.568182
vt 2.46063 -0.1534899
vt -2.46063 -0.1534899
vt 2.091535 5.763545
vt -2.091535 5.763545
vt 3.013255 15.74803
vt 3.013255 13.77953
vt -3.013255 15.74803
vt -3.013255 13.77953
vt 3.766569 7.874016
vt 3.766569 5.905512
vt -3.766569 7.874016
vt -3.766569 5.905512
vt 7.874016 0
vt 6.636457 -5.684342E-14
vt 5.56777 5.56777
vt 4.692684 4.692684
vt -2.842171E-14 7.874016
vt -2.842171E-14 6.636457
vt -5.56777 5.56777
vt -4.692684 4.692684
vt -6.636457 0
vt -7.874016 0
vt 5.56777 -5.56777
vt 4.692684 -4.692684
vt -2.842171E-14 -7.874016
vt -2.842171E-14 -6.636457
vt -4.692684 -4.692684
vt -5.56777 -5.56777
vt 9.84252 0
vt 6.959713 -6.959713
vt 6.959713 6.959713
vt -2.842171E-14 9.84252
vt 2.091535 2.091535
vt 2.091535 -2.091535
vt -2.091535 2.091535
vt -6.959713 6.959713
vt -2.842171E-14 -9.84252
vt -2.091535 -2.091535
vt -6.959713 -6.959713
vt -9.84252 0

usemtl snow

f 3/3/1 2/2/1 1/1/1
f 2/2/1 3/3/1 4/4/1
f 7/7/2 6/6/2 5/5/2
f 6/6/2 7/7/2 8/8/2
f 6/6/2 8/8/2 9/9/2
f 9/9/2 8/8/2 10/10/2
f 9/9/2 10/10/2 4/11/2
f 4/11/2 10/10/2 2/12/2
f 9/4/3 3/1/3 11/3/3
f 3/1/3 9/4/3 4/2/3
f 14/15/4 13/14/4 12/13/4
f 13/14/4 14/15/4 15/16/4
f 6/4/5 11/1/5 16/3/5
f 11/1/5 6/4/5 9/2/5
f 17/15/6 15/14/6 14/13/6
f 15/14/6 17/15/6 18/16/6
f 10/4/7 20/1/7 19/3/7
f 20/1/7 10/4/7 8/2/7
f 23/14/8 22/15/8 21/16/8
f 22/15/8 23/14/8 24/13/8
f 6/2/9 25/3/9 5/4/9
f 25/3/9 6/2/9 16/1/9
f 27/16/10 22/13/10 26/15/10
f 22/13/10 27/16/10 21/14/10
f 13/16/11 28/13/11 12/15/11
f 28/13/11 13/16/11 29/14/11
f 8/4/12 30/1/12 20/3/12
f 30/1/12 8/4/12 7/2/12
f 23/16/13 31/13/13 24/15/13
f 31/13/13 23/16/13 32/14/13
f 7/4/14 25/1/14 30/3/14
f 25/1/14 7/4/14 5/2/14
f 32/16/15 17/13/15 31/15/15
f 17/13/15 32/16/15 18/14/15
f 29/16/16 26/13/16 28/15/16
f 26/13/16 29/16/16 27/14/16
f 1/3/17 10/2/17 19/1/17
f 10/2/17 1/3/17 2/4/17

usemtl wood

f 35/19/18 34/18/18 33/17/18
f 34/18/18 35/19/18 36/20/18
f 37/17/19 35/20/19 33/18/19
f 35/20/19 37/17/19 38/19/19
f 36/19/20 39/18/20 34/17/20
f 39/18/20 36/19/20 40/20/20
f 40/19/21 37/18/21 39/17/21
f 37/18/21 40/19/21 38/20/21

usemtl foliage

f 16/23/22 41/22/22 25/21/22
f 41/22/22 16/23/22 42/24/22
f 22/27/23 43/26/23 26/25/23
f 43/26/23 22/27/23 44/28/23
f 46/22/24 1/23/24 45/24/24
f 1/23/24 46/22/24 3/21/24
f 28/25/25 43/28/25 47/26/25
f 43/28/25 28/25/25 26/27/25
f 31/25/26 49/28/26 48/26/26
f 49/28/26 31/25/26 17/27/26
f 42/31/27 21/30/27 41/29/27
f 21/30/27 42/31/27 23/32/27
f 23/32/27 42/31/27 50/33/27
f 23/32/27 50/33/27 32/34/27
f 32/34/27 50/33/27 46/35/27
f 32/34/27 46/35/27 18/36/27
f 18/36/27 46/35/27 15/37/27
f 15/37/27 46/35/27 45/38/27
f 21/30/27 51/39/27 41/29/27
f 51/39/27 21/30/27 27/40/27
f 51/39/27 27/40/27 52/41/27
f 52/41/27 27/40/27 29/42/27
f 52/41/27 29/42/27 13/43/27
f 52/41/27 13/43/27 53/44/27
f 53/44/27 13/43/27 15/37/27
f 53/44/27 15/37/27 45/38/27
f 20/21/25 51/24/25 52/22/25
f 51/24/25 20/21/25 30/23/25
f 25/23/23 51/22/23 30/21/23
f 51/22/23 25/23/23 41/24/23
f 11/21/26 46/24/26 50/22/26
f 46/24/26 11/21/26 3/23/26
f 49/26/24 14/27/24 54/28/24
f 14/27/24 49/26/24 17/25/24
f 16/21/28 50/24/28 42/22/28
f 50/24/28 16/21/28 11/23/28
f 24/27/22 44/26/22 22/25/22
f 44/26/22 24/27/22 55/28/22
f 55/47/27 43/46/27 44/45/27
f 43/46/27 55/47/27 48/48/27
f 43/46/27 48/48/27 40/49/27
f 43/46/27 40/49/27 36/50/27
f 40/49/27 48/48/27 38/51/27
f 38/51/27 48/48/27 49/52/27
f 36/50/27 47/53/27 43/46/27
f 47/53/27 36/50/27 35/54/27
f 47/53/27 35/54/27 56/55/27
f 56/55/27 35/54/27 38/51/27
f 56/55/27 38/51/27 49/52/27
f 56/55/27 49/52/27 54/56/27
f 45/22/29 19/23/29 53/24/29
f 19/23/29 45/22/29 1/21/29
f 19/21/30 52/24/30 53/22/30
f 52/24/30 19/21/30 20/23/30
f 12/25/30 47/28/30 56/26/30
f 47/28/30 12/25/30 28/27/30
f 24/25/28 48/28/28 55/26/28
f 48/28/28 24/25/28 31/27/28
f 54/26/29 12/27/29 56/28/29
f 12/27/29 54/26/29 14/25/29

usemtl _defaultMat

f 39/24/27 33/21/27 34/23/27
f 33/24/27 39/21/27 37/23/27

