# Created by Kenney (www.kenney.nl)

mtllib snow_tile_riverTransition.mtl

g snow_tile_riverTransition

v 0.5 0 0.5
v 0.5 0 -0.5
v -0.5 0 0.5
v -0.5 0 -0.5
v 0.5 0.1 -0.5
v 0.5 0.1 0.5
v -0.5 0.1 -0.5
v -0.5 0.1 0.5
v 0.375 0.1 0.5
v -0.375 0.1 0.5
v 0.375 0.2 0.5
v -0.375 0.2 0.5
v -0.375 0.1 -0.5
v -0.25 0.1 -0.5
v -0.375 0.2 -0.5
v -0.25 0.15 -0.5
v -0.25 0.2 -0.5
v 0.25 0.1 -0.5
v 0.375 0.1 -0.5
v 0.25 0.15 -0.5
v 0.375 0.2 -0.5
v 0.25 0.2 -0.5
v -0.25 0.2 0.375
v -0.25 0.15 -0.25
v 0.25 0.15 -0.25
v 0.25 0.2 0.375
v 0.5 0.2 -0.5
v 0.5 0.2 0.5
v -0.5 0.2 -0.5
v -0.5 0.2 0.5

vn 0 -1 0
vn 1 0 0
vn -1 0 0
vn 0 0 1
vn 0 0 -1
vn 0 0.9968153 -0.07974523
vn 0 1 0

vt 19.68504 19.68504
vt 19.68504 -19.68504
vt -19.68504 19.68504
vt -19.68504 -19.68504
vt 19.68504 3.937008
vt 19.68504 0
vt -19.68504 3.937008
vt -19.68504 0
vt 14.76378 3.937008
vt -14.76378 3.937008
vt 14.76378 7.874016
vt -14.76378 7.874016
vt 9.84252 3.937008
vt 9.84252 5.905512
vt 9.84252 7.874016
vt -9.84252 3.937008
vt -9.84252 5.905512
vt -9.84252 7.874016
vt 19.68504 7.874016
vt 19.68504 5.905512
vt -19.68504 5.905512
vt -19.68504 7.874016
vt -9.84252 -9.340238
vt -9.84252 15.34468
vt 9.84252 -9.340238
vt 9.84252 15.34468
vt -14.76378 -19.68504
vt -14.76378 19.68504
vt -9.84252 -19.68504
vt -9.84252 14.76378
vt 14.76378 19.68504
vt 9.84252 14.76378
vt 9.84252 -19.68504
vt 14.76378 -19.68504
vt -9.84252 -9.84252
vt 9.84252 -9.84252

usemtl dirt

f 3/3/1 2/2/1 1/1/1
f 2/2/1 3/3/1 4/4/1
f 6/7/2 2/6/2 5/5/2
f 2/6/2 6/7/2 1/8/2
f 3/6/3 7/7/3 4/8/3
f 7/7/3 3/6/3 8/5/3
f 11/11/4 10/10/4 9/9/4
f 10/10/4 11/11/4 12/12/4
f 8/7/4 9/9/4 10/10/4
f 8/7/4 6/5/4 9/9/4
f 3/8/4 6/5/4 8/7/4
f 6/5/4 3/8/4 1/6/4
f 15/11/5 14/13/5 13/9/5
f 14/13/5 15/11/5 16/14/5
f 16/14/5 15/11/5 17/15/5
f 5/7/5 13/9/5 14/13/5
f 5/7/5 7/5/5 13/9/5
f 2/8/5 7/5/5 5/7/5
f 7/5/5 2/8/5 4/6/5
f 5/7/5 14/13/5 18/16/5
f 5/7/5 18/16/5 19/10/5
f 20/17/5 19/10/5 18/16/5
f 19/10/5 20/17/5 21/12/5
f 21/12/5 20/17/5 22/18/5
f 23/12/2 16/20/2 17/19/2
f 16/20/2 23/12/2 24/14/2
f 25/17/3 22/22/3 20/21/3
f 22/22/3 25/17/3 26/11/3
f 24/25/6 26/24/6 25/23/6
f 26/24/6 24/25/6 23/26/6
f 22/29/7 11/28/7 21/27/7
f 11/28/7 22/29/7 26/30/7
f 11/28/7 26/30/7 12/31/7
f 12/31/7 26/30/7 23/32/7
f 12/31/7 23/32/7 17/33/7
f 12/31/7 17/33/7 15/34/7

usemtl snow

f 28/22/2 5/5/2 27/19/2
f 5/5/2 28/22/2 6/7/2
f 8/5/3 29/22/3 7/7/3
f 29/22/3 8/5/3 30/19/3
f 21/27/7 28/3/7 27/4/7
f 28/3/7 21/27/7 11/28/7
f 28/19/4 9/9/4 6/5/4
f 9/9/4 28/19/4 11/11/4
f 29/19/5 13/9/5 7/5/5
f 13/9/5 29/19/5 15/11/5
f 29/2/7 12/31/7 15/34/7
f 12/31/7 29/2/7 30/1/7
f 21/12/5 5/7/5 19/10/5
f 5/7/5 21/12/5 27/22/5
f 12/12/4 8/7/4 10/10/4
f 8/7/4 12/12/4 30/22/4

usemtl water

f 16/33/7 25/35/7 20/29/7
f 25/35/7 16/33/7 24/36/7
f 16/14/5 18/16/5 14/13/5
f 18/16/5 16/14/5 20/17/5

