# Created by Kenney (www.kenney.nl)

mtllib snow_detail_crystalLarge.mtl

g crystal

v 0.2719828 0.4307846 -0.03164149
v 0.2719828 0.4307846 0.1862305
v 0.2348847 0.5322434 0.03045203
v 0.2348847 0.5322434 0.124137
v 0.1255551 0.0687467 0.1384945
v 0.1255551 0.0687467 0.01609452
v 0.007325817 0.1004262 0.1384945
v 0.007325817 0.1004262 0.01609452
v 0.06153464 0.487174 -0.03164149
v 0.144392 0.5564908 0.03045203
v 0.05449476 0.4609008 -0.03164149
v 0.05449476 0.4609008 0.1862305
v 0.2649429 0.4045114 -0.03164149
v 0.2649429 0.4045114 0.1862305
v 0.06153464 0.487174 0.1862305
v 0.144392 0.5564908 0.124137

vn 0.638646 0.2335191 0
vn -0.1759969 -0.6568295 0
vn 0.1011609 0.3775378 -0.5564455
vn -0.674252 0.08822745 0
vn -0.02310946 -0.08624569 -0.6741125
vn 0.6280332 -0.2607188 0
vn -0.02310946 -0.08624569 0.6741125
vn -0.6568295 0.1759969 0
vn 0.1759969 0.6568295 0
vn 0 0 0.68
vn 0.6568295 -0.1759969 0
vn 0 0 -0.68
vn -0.4363241 0.5215565 0
vn 0.1011609 0.3775378 0.5564455

vt 6.307086 14.73824
vt -6.307086 14.73824
vt 2.712047 20.99278
vt -2.712047 20.99278
vt 3.543307 3.543307
vt 3.543307 -3.543307
vt -3.543307 3.543307
vt -3.543307 -3.543307
vt -6.307086 21.51364
vt 6.307086 21.51364
vt -3.543307 0.4652576
vt 3.543307 0.4652576
vt -6.307086 20.86614
vt -6.307086 22.44094
vt 6.307086 20.86614
vt 6.307086 22.44094
vt -2.712047 -2.712047
vt -2.712047 2.712047
vt 2.712047 -2.712047
vt 2.712047 2.712047

usemtl crystal

f 3/3/1 2/2/1 1/1/1
f 2/2/1 3/3/1 4/4/1
f 7/7/2 6/6/2 5/5/2
f 6/6/2 7/7/2 8/8/2
f 10/3/3 1/2/3 9/1/3
f 1/2/3 10/3/3 3/4/3
f 8/11/4 12/10/4 11/9/4
f 12/10/4 8/11/4 7/12/4
f 11/10/5 6/11/5 8/12/5
f 6/11/5 11/10/5 13/9/5
f 14/9/6 6/12/6 13/10/6
f 6/12/6 14/9/6 5/11/6
f 14/10/7 7/11/7 5/12/7
f 7/11/7 14/10/7 12/9/7
f 12/15/8 9/14/8 11/13/8
f 9/14/8 12/15/8 15/16/8
f 10/19/9 4/18/9 3/17/9
f 4/18/9 10/19/9 16/20/9
f 2/16/10 12/13/10 14/15/10
f 12/13/10 2/16/10 15/14/10
f 2/14/11 13/15/11 1/16/11
f 13/15/11 2/14/11 14/13/11
f 9/16/12 13/13/12 11/15/12
f 13/13/12 9/16/12 1/14/12
f 15/1/13 10/4/13 9/2/13
f 10/4/13 15/1/13 16/3/13
f 4/3/14 15/2/14 2/1/14
f 15/2/14 4/3/14 16/4/14

g crystal

v -0.1807519 0.3274536 -0.2065862
v -0.1807519 0.3274536 -0.03882477
v -0.2445521 0.3808276 -0.1587742
v -0.2445521 0.3808276 -0.08663677
v -0.1390111 0.0296578 -0.07558149
v -0.1390111 0.0296578 -0.1698295
v -0.2300477 0.005264618 -0.07558149
v -0.2300477 0.005264618 -0.1698295
v -0.342797 0.2840338 -0.2065862
v -0.3142315 0.362157 -0.1587742
v -0.3373764 0.2638035 -0.2065862
v -0.3373764 0.2638035 -0.03882477
v -0.1753312 0.3072233 -0.2065862
v -0.1753312 0.3072233 -0.03882477
v -0.342797 0.2840338 -0.03882477
v -0.3142315 0.362157 -0.08663677

vn 0.3359696 0.4015985 0
vn 0.1355177 -0.5057588 0
vn -0.07789394 0.2907041 -0.428463
vn -0.4835855 -0.2007535 0
vn 0.01779429 -0.06640918 -0.5190666
vn 0.5191741 0.06793515 0
vn 0.01779429 -0.06640918 0.5190666
vn -0.5057588 -0.1355177 0
vn -0.1355177 0.5057588 0
vn 0 0 0.5236
vn 0.5057588 0.1355177 0
vn 0 0 -0.5236
vn -0.4917575 0.1798097 0
vn -0.07789394 0.2907041 0.428463


usemtl crystal

f 19/3/15 18/2/15 17/1/15
f 18/2/15 19/3/15 20/4/15
f 23/7/16 22/6/16 21/5/16
f 22/6/16 23/7/16 24/8/16
f 26/3/17 17/2/17 25/1/17
f 17/2/17 26/3/17 19/4/17
f 24/11/18 28/10/18 27/9/18
f 28/10/18 24/11/18 23/12/18
f 27/10/19 22/11/19 24/12/19
f 22/11/19 27/10/19 29/9/19
f 30/9/20 22/12/20 29/10/20
f 22/12/20 30/9/20 21/11/20
f 30/10/21 23/11/21 21/12/21
f 23/11/21 30/10/21 28/9/21
f 28/15/22 25/14/22 27/13/22
f 25/14/22 28/15/22 31/16/22
f 26/19/23 20/18/23 19/17/23
f 20/18/23 26/19/23 32/20/23
f 18/16/24 28/13/24 30/15/24
f 28/13/24 18/16/24 31/14/24
f 18/14/25 29/15/25 17/16/25
f 29/15/25 18/14/25 30/13/25
f 25/16/26 29/13/26 27/15/26
f 29/13/26 25/16/26 17/14/26
f 31/1/27 26/4/27 25/2/27
f 26/4/27 31/1/27 32/3/27
f 20/3/28 31/2/28 18/1/28
f 31/2/28 20/3/28 32/4/28

g crystal

v -0.283763 0.2638034 0.2747351
v -0.1494311 0.2638034 0.3752281
v -0.1900383 0.005264618 0.2108118
v -0.114571 0.005264618 0.2672686
v -0.1899413 0.3274536 0.149321
v -0.05560941 0.3274536 0.2498141
v -0.1898745 0.3808276 0.2290483
v -0.1321118 0.3808276 0.2722603
v -0.1866941 0.3072233 0.1449805
v -0.1355053 0.02965779 0.137916
v -0.05236228 0.3072233 0.2454735
v -0.06003796 0.02965779 0.1943727
v -0.2870101 0.2840337 0.2790756
v -0.2316141 0.3621571 0.2848428
v -0.1526783 0.2840337 0.3795687
v -0.1738514 0.3621571 0.3280548

vn -0.5532451 -0.3834101 0.739538
vn 0.3843654 0.7669949 -0.5137918
vn 0.5939602 0.1297463 -0.7939629
vn 0.5786123 0.258819 -0.7734471
vn -0.7443547 0.5552027 -0.3710607
vn 0.8007314 0 0.5990236
vn 0.1550387 -0.9659258 -0.2072445
vn -0.7734411 -0.1268319 -0.6210496
vn 0.8141561 -0.1268319 0.5666248
vn -0.1550387 0.9659258 0.2072445
vn -0.8007314 0 -0.5990236
vn -0.5625942 0.3434105 0.7520353
vn 0.5661259 0.5552027 0.6093041
vn -0.5786123 -0.258819 0.7734471

vt 4.810131E-17 12.39512
vt 6.604781 12.39512
vt 1.447115 1.374187
vt 5.157666 1.374187
vt 2.754791E-17 9.39955
vt -6.604781 9.39955
vt -1.882363 12.67443
vt -4.722418 12.67443
vt 8.203489E-18 11.97318
vt -1.447115 0.9522436
vt -6.604781 11.97318
vt -5.157666 0.9522436
vt 0 12.67772
vt 0 11.85315
vt -6.604781 12.67772
vt -6.604781 11.85315
vt 7.893682 8.33146
vt 1.616837 10.38678
vt 7.123882 12.02951
vt 4.424839 12.91329
vt -7.809653 10.17869
vt -8.023067 10.97516
vt -1.429925 11.88814
vt -1.643338 12.68461
vt -5.157666 0.2485598
vt -1.447115 0.2485598
vt -5.157666 -3.461991
vt -1.447115 -3.461991
vt 3.532433 -0.199007
vt -0.04957988 0.7691731
vt 7.805068 10.06256
vt 1.429085 11.78592
vt -3.758721 0.6381981
vt -8.031356 10.89976
vt -0.1767078 1.606378
vt -1.655373 12.62312
vt 1.882363 -0.1866879
vt 4.722418 -0.1866879
vt 1.882363 -3.026744
vt 4.722418 -3.026744
vt 7.809653 10.17869
vt 1.429925 11.88814
vt 8.023067 10.97516
vt 1.643338 12.68461
vt -1.32362E-16 7.552508
vt 1.882363 10.82739
vt 6.604781 7.552508
vt 4.722418 10.82739
vt -6.712306 4.723605
vt -5.942506 8.42165
vt -0.4354616 6.778927
vt -3.243463 9.305439
vt 6.604781 11.85315
vt 6.604781 12.67772

usemtl crystal

f 35/23/29 34/22/29 33/21/29
f 34/22/29 35/23/29 36/24/29
f 39/27/30 38/26/30 37/25/30
f 38/26/30 39/27/30 40/28/30
f 43/31/31 42/30/31 41/29/31
f 42/30/31 43/31/31 44/32/31
f 38/35/32 41/34/32 37/33/32
f 41/34/32 38/35/32 43/36/32
f 46/39/33 37/38/33 45/37/33
f 37/38/33 46/39/33 39/40/33
f 43/43/34 47/42/34 34/41/34
f 47/42/34 43/43/34 38/44/34
f 36/47/35 42/46/35 44/45/35
f 42/46/35 36/47/35 35/48/35
f 33/51/36 42/50/36 35/49/36
f 42/50/36 33/51/36 41/52/36
f 44/55/37 34/54/37 36/53/37
f 34/54/37 44/55/37 43/56/37
f 46/59/38 40/58/38 39/57/38
f 40/58/38 46/59/38 48/60/38
f 45/63/39 41/62/39 33/61/39
f 41/62/39 45/63/39 37/64/39
f 47/67/40 46/66/40 45/65/40
f 46/66/40 47/67/40 48/68/40
f 38/71/41 48/70/41 47/69/41
f 48/70/41 38/71/41 40/72/41
f 34/73/42 45/33/42 33/34/42
f 45/33/42 34/73/42 47/74/42

g rocks

v -0.368399 0.09916577 0.162009
v -0.2885724 0.09916577 0.3135558
v -0.4446414 0.04958288 0.2465818
v 0.297336 0 0.2684259
v 0.06891192 0 0.4514138
v 0.282057 0.04958288 0.2646435
v 0.06891192 0.274272 0.3627861
v 0.1742882 0.274272 0.2783704
v 0.1189008 0.1563051 -0.2499598
v 0.201534 0.1563051 0.03045291
v 0.08293333 0.418608 -0.1889326
v 0.1433373 0.418608 0.01604634
v -0.2238299 0.1892477 0.0286436
v -0.1347159 0.418608 -0.1136733
v -0.1347159 0.418608 0.04666898
v -0.221339 0.03316356 -0.08875226
v -0.2305351 0.09916577 -0.01147755
v -0.2891949 0 -0.1275798
v -0.3172753 0.09916577 -0.01147755
v -0.3857022 0 -0.1275798
v 0.1687014 0.2173011 0.04256343
v 0.1861816 0.1563051 0.04275153
v 0.1578514 0.274272 0.0609729
v 0.2048939 0.1563051 0.1062511
v 0.1981016 0.274272 0.1975603
v 0.271742 0 0.1815734
v -0.1439885 0.1892477 -0.2422954
v -0.1125381 0.418608 -0.1889326
v -0.1779399 0.1892477 -0.1270824
v -0.2438162 0.09916577 0.0335912
v -0.01489174 0 -0.5
v 0.005202053 0 -0.4318124
v -0.06712607 0.1892477 -0.4113723
v -0.005898023 0.06489424 -0.3783071
v -0.0173018 0.1892477 -0.2422954
v 0.003980834 0.12764 -0.256629
v -0.2972394 0 -0.5
v -0.2885724 0.03140121 -0.4852943
v -0.1698174 0.1892477 -0.4113723
v 0.1291748 0.274272 0.0609729
v -0.01480241 0.274272 0.1763114
v -0.01480241 0.418608 0.1427303
v 0.5 0 -0.001281511
v 0.377104 0.1563051 -0.03170442
v 0.02290951 0.1563051 -0.2499598
v 0.3490354 0.04958288 -0.3909313
v 0.3359265 0.1563051 -0.1714386
v 0.2426189 0.1563051 -0.3029389
v -0.03560114 0 0.3676895
v -0.08806603 0.09916577 0.2936163
v -0.07499525 0.274272 0.2475037
v -0.1289542 0.09916577 0.2608612
v -0.3844897 0 -0.2039193
v -0.2999727 0.1892477 -0.2248415
v -0.04652688 0.274272 0.1508973
v -0.09670873 0.09916577 0.1514373
v 0.0385216 0.1563051 -0.3029389
v 0.3731295 0 -0.4318124
v -0.2682394 0.1892477 -0.3325275
v -0.2007645 0 0.5
v -0.2007645 0.09916577 0.3838977
v -0.5 0 0.2602858

vn -0.3777464 0.9034636 0.2235135
vn 0.5916125 0.2342896 0.8295827
vn 0.945624 0.1909523 -0.3130242
vn -0.9528186 0.2221385 -0.2605781
vn -0.9565579 0.2502071 -0.2114504
vn -0.9418595 0.3592708 0
vn 0 0.7382714 -0.7214925
vn 0.9300035 0.2608306 -0.3078535
vn -0.945624 0.1909523 -0.3130242
vn 0.8970322 0.3646137 -0.2969392
vn 0 0.4010617 -0.9798667
vn 0.599591 0.1709634 0.8407704
vn 0.5183857 0.523807 0.7269012
vn 0 0.2125375 -1.045225
vn 0.5031656 0.7815777 -0.4010553
vn -0.5916125 0.2342896 0.8295827
vn -0.5745158 0.3297376 0.805609
vn -0.9300035 0.2608306 -0.3078535
vn -0.7931431 0.5675814 -0.2625494
vn 0 0.2891855 -1.02396
vn 0 0.6104926 -0.8471973
vn 0.7931431 0.5675814 -0.2625494
vn -0.4754847 0.6241057 -0.6667437
vn 0.8828703 0.4001304 0.2922512
vn 0.4583943 0.6577272 0.6427789
vn -0.8970322 0.3646137 -0.2969392
vn -0.6884072 0.6995364 -0.2278793
vn -0.599591 0.1709634 0.8407704
vn -0.4583943 0.6577272 0.6427789
vn 0 1 0

vt -1.798827 -12.28918
vt 4.589383 -12.28918
vt -0.5307021 -16.84305
vt 3.295923 -3.485173
vt -7.873757 -3.485173
vt 2.90438 -1.477203
vt -5.906827 7.622085
vt -0.7540487 7.622085
vt 7.398901 4.671364
vt -3.413653 4.671364
vt 5.673161 15.19183
vt -2.230709 15.19183
vt 1.054257 3.816266
vt -4.183861 13.49223
vt 1.7177 13.49223
vt 8.634325 -1.530983
vt 8.99306 2.321496
vt 11.28135 -3.466705
vt 12.37675 2.321496
vt 15.04605 -3.466705
vt -3.457292 6.742376
vt -3.667189 4.254854
vt -3.977879 9.06575
vt -6.115696 4.254854
vt -9.244613 9.06575
vt -9.539366 -2.119542
vt -12.88835 -2.119542
vt -12.57778 -0.0974653
vt -6.837872 5.782131
vt -5.328867 14.98134
vt -2.395324 5.782131
vt -2.426911 14.98134
vt -0.5439801 -0.4781047
vt 3.609381 5.782131
vt 2.27781 2.169118
vt 4.015635 2.169118
vt 17.73936 -1.798227
vt 15.11009 -1.798227
vt 15.23313 6.203302
vt 13.35941 0.9455491
vt 8.713622 6.203302
vt 8.969686 3.598487
vt 11.59516 -7.380744
vt 0.5809195 -7.380744
vt 11.25706 -6.031182
vt 2.618554 0.752749
vt 6.624491 0.752749
vt 5.595924 5.099831
vt 4.84521 5.099831
vt 4.104563 15.58103
vt 4.305398 7.53713
vt 2.66676 9.813596
vt -4.373564 9.813596
vt -3.628292 15.58103
vt 15.58852 -6.140738
vt 4.426965 -6.140738
vt 12.43916 1.083348
vt 4.018283 1.083348
vt -0.1552904 2.902865
vt -0.8936885 4.057797
vt 0.6749347 5.385073
vt -4.638262 4.057797
vt -3.235188 14.62614
vt 5.616919 5.385073
vt 4.390057 14.62614
vt 3.315994 -14.04655
vt -2.83324 -7.311046
vt 3.222696 -7.311046
vt 12.16286 -2.725637
vt 7.052287 -2.725637
vt 10.19593 8.381621
vt 3.77565 1.290303
vt 3.15903 8.381621
vt 1.776264 1.290303
vt -11.8312 -1.007794
vt -16.491 -1.007794
vt -8.857803 0.3752054
vt -14.32515 6.884284
vt -8.357882 6.884284
vt 5.842469 10.40432
vt 9.567557 10.40432
vt 6.445037 3.263184
vt 10.66436 3.263184
vt -13.22223 -0.3772322
vt -11.09095 3.993928
vt -9.062277 2.623199
vt -9.048106 3.993928
vt -5.039045 10.98572
vt -6.580957 8.642659
vt -6.157706 10.98572
vt -0.2029295 -9.702742
vt -14.55559 -9.702742
vt 0.230079 -6.476958
vt -13.6157 -7.23806
vt -9.464443 -1.933079
vt -1.502708 -1.933079
vt 10.83122 -10.57511
vt -5.769804 -10.57511
vt 9.675178 -8.20411
vt 2.116333 -3.100778
vt -3.271737 -3.100778
vt -3.844915 -4.209889
vt 0.9678108 -4.209889
vt -1.789804 -12.16344
vt -4.636908 6.077084
vt -6.017327 -3.575323
vt -7.752898 6.077084
vt -9.268114 -6.550186
vt -17.34441 -6.550186
vt -9.256909 -1.367136
vt -14.76774 -1.367136
vt -14.10939 -6.035913
vt -13.69354 -4.708247
vt -2.692686 -6.035913
vt -8.562946 1.965616
vt -4.410633 1.965616
vt 3.286567 -5.56248
vt 9.97611 -5.56248
vt 0.003402896 -11.02593
vt 13.83403 -8.294205
vt 14.95928 -11.02593
vt 3.452258 9.694544
vt 1.900967 9.694544
vt 2.706985 15.46198
vt -3.156647 15.46198
vt -6.329931 6.297111
vt -6.842104 2.697585
vt 0.3512832 2.697585
vt 2.272088 -7.579168
vt 4.848766 -12.76222
vt -2.02162 -7.579168
vt -9.783514 -12.76222
vt -8.364882 -10.17069
vt -5.591518 0.5906022
vt 0.5774345 5.253335
vt -3.235188 -6.953857
vt 4.390057 -6.953857
vt 5.255198 1.7177
vt 5.255198 -4.183861
vt -7.727844 7.271411
vt -6.798893 10.24571
vt -6.157706 2.24417
vt -2.68822 13.35271
vt -5.039045 2.24417
vt 0.5774345 6.489322
vt 2.925527 9.109629
vt 1.81499 5.55393
vt 8.99306 -0.4224431
vt 9.511147 1.236359
vt 12.37675 -0.4224431
vt 11.25706 11.54074
vt 14.37106 5.962908
vt 7.831721 14.12975
vt 5.03044 9.601266
vt 3.772559 5.573805
vt 3.435412 10.80685
vt 0.6749347 -8.917931
vt 5.616919 -8.917931
vt 2.618554 -15.14098
vt 6.624491 -15.14098
vt 6.941347 -4.677398
vt 10.46389 -12.23902
vt 11.70179 -8.275522
vt -14.71064 -1.166914
vt -7.992808 3.910681
vt -13.10433 -6.309974
vt -9.464443 -11.14998
vt -7.861739 1.120851
vt -4.638262 -9.200027
vt -1.502708 -11.14998
vt -0.8936885 -9.200027
vt -7.262851 1.573514

usemtl snowRoad

f 51/77/43 50/76/43 49/75/43
f 54/80/44 53/79/44 52/78/44
f 53/79/44 54/80/44 55/81/44
f 55/81/44 54/80/44 56/82/44
f 59/85/45 58/84/45 57/83/45
f 58/84/45 59/85/45 60/86/45
f 63/89/48 62/88/47 61/87/46
f 66/92/49 65/91/49 64/90/49
f 65/91/49 66/92/49 67/93/49
f 67/93/49 66/92/49 68/94/49
f 71/97/50 70/96/50 69/95/50
f 70/96/50 71/97/50 72/98/50
f 72/98/50 71/97/50 73/99/50
f 72/98/50 73/99/50 74/100/50
f 74/100/50 73/99/50 52/101/50
f 52/101/50 73/99/50 54/102/50
f 77/105/51 76/104/51 75/103/51
f 76/104/51 77/105/51 62/106/47
f 62/106/47 77/105/51 64/107/51
f 62/106/47 64/107/51 61/108/46
f 61/108/46 64/107/51 65/109/51
f 61/108/46 65/109/51 78/110/51
f 81/113/52 80/112/52 79/111/52
f 80/112/52 81/113/52 82/114/52
f 82/114/52 81/113/52 83/115/52
f 82/114/52 83/115/52 84/116/52
f 86/119/53 79/118/53 85/117/53
f 79/118/53 86/119/53 81/120/53
f 81/120/53 86/119/53 87/121/53
f 60/124/54 70/123/54 58/122/54
f 70/123/54 60/124/54 69/125/54
f 69/125/54 60/124/54 88/126/54
f 88/126/54 60/124/54 89/127/54
f 89/127/54 60/124/54 90/128/54
f 92/131/55 74/130/55 91/129/55
f 74/130/55 92/131/55 72/132/55
f 83/135/56 93/134/56 84/133/56
f 93/134/56 83/135/56 57/136/56
f 57/136/56 83/135/56 59/137/56
f 59/137/56 83/135/56 75/138/56
f 59/137/56 75/138/56 76/139/56
f 96/142/57 95/141/57 94/140/57
f 55/145/58 97/144/58 53/143/58
f 97/144/58 55/145/58 98/146/58
f 99/147/58 98/146/58 55/145/58
f 98/146/58 99/147/58 100/148/58
f 64/151/59 101/150/59 66/149/59
f 101/150/59 64/151/59 102/152/59
f 102/152/59 64/151/59 77/153/59
f 104/156/60 99/155/60 103/154/60
f 99/155/60 104/156/60 100/157/60
f 84/160/61 105/159/61 82/158/61
f 105/159/61 84/160/61 93/161/61
f 71/164/62 69/163/62 88/162/62
f 82/167/63 106/166/63 80/165/63
f 106/166/63 82/167/63 94/168/63
f 94/168/63 82/167/63 96/169/63
f 96/169/63 82/167/63 105/170/63
f 94/173/64 91/172/64 106/171/64
f 91/172/64 94/173/64 95/174/64
f 91/172/64 95/174/64 92/175/64
f 86/178/65 107/177/65 87/176/65
f 56/181/66 54/180/66 73/179/66
f 98/184/67 108/183/67 97/182/67
f 108/183/67 98/184/67 109/185/67
f 101/188/68 86/187/68 85/186/68
f 86/187/68 101/188/68 107/189/68
f 107/189/68 101/188/68 102/190/68
f 68/193/69 49/192/69 67/191/69
f 49/192/69 68/193/69 51/194/69
f 51/194/69 68/193/69 110/195/69
f 90/198/70 103/197/70 89/196/70
f 63/199/70 103/197/70 90/198/70
f 61/200/70 103/197/70 63/199/70
f 78/201/70 103/197/70 61/200/70
f 103/197/70 78/201/70 104/202/70
f 50/205/71 108/204/71 109/203/71
f 108/204/71 50/205/71 110/206/71
f 110/206/71 50/205/71 51/207/71

usemtl snow

f 59/210/72 90/209/72 60/208/72
f 90/209/72 59/210/72 76/211/72
f 90/209/72 76/211/72 63/212/72
f 63/212/72 76/211/72 62/213/72
f 71/216/72 56/215/72 73/214/72
f 56/215/72 71/216/72 55/217/72
f 55/217/72 71/216/72 88/218/72
f 55/217/72 88/218/72 89/219/72
f 55/217/72 89/219/72 99/220/72
f 99/220/72 89/219/72 103/221/72
f 67/224/72 78/223/72 65/222/72
f 78/223/72 67/224/72 50/225/72
f 50/225/72 67/224/72 49/226/72
f 109/227/72 78/223/72 50/225/72
f 100/228/72 78/223/72 109/227/72
f 78/223/72 100/228/72 104/229/72
f 109/227/72 98/230/72 100/228/72
f 81/233/72 75/232/72 83/231/72
f 75/232/72 81/233/72 87/234/72
f 75/232/72 87/234/72 77/235/72
f 77/235/72 87/234/72 107/236/72
f 77/235/72 107/236/72 102/237/72
f 95/240/72 72/239/72 92/238/72
f 72/239/72 95/240/72 96/241/72
f 72/239/72 96/241/72 58/242/72
f 58/242/72 96/241/72 57/243/72
f 57/243/72 96/241/72 105/244/72
f 57/243/72 105/244/72 93/245/72
f 70/246/72 72/239/72 58/242/72

