# Created by Kenney (www.kenney.nl)

mtllib tile_slope.mtl

g tile_slope

v -0.5 0 -0.5
v 0.5 0 -0.5
v -0.5 0.3 -0.5
v 0.5 0.3 -0.5
v 0.5 0 0.5
v -0.5 0 0.5
v 0.5 0.1 0.5
v -0.5 0.1 0.5
v -0.5 0.4 -0.5
v -0.5 0.2 0.5
v 0.5 0.4 -0.5
v 0.5 0.2 0.5

vn 0 0 -1
vn 0 0 1
vn 0 -1 0
vn -1 0 0
vn 1 0 0
vn 0 0.9805807 0.1961161

vt 19.68504 0
vt -19.68504 0
vt 19.68504 11.81102
vt -19.68504 11.81102
vt 19.68504 3.937008
vt -19.68504 3.937008
vt 19.68504 19.68504
vt 19.68504 -19.68504
vt -19.68504 19.68504
vt -19.68504 -19.68504
vt -19.68504 15.74803
vt 19.68504 7.874016
vt 19.68504 15.74803
vt -19.68504 7.874016
vt 19.68504 -17.75855
vt -19.68504 -17.75855
vt 19.68504 22.39121
vt -19.68504 22.39121

usemtl dirt

f 3/3/1 2/2/1 1/1/1
f 2/2/1 3/3/1 4/4/1
f 7/5/2 6/2/2 5/1/2
f 6/2/2 7/5/2 8/6/2
f 6/9/3 2/8/3 5/7/3
f 2/8/3 6/9/3 1/10/3
f 6/1/4 3/4/4 1/2/4
f 3/4/4 6/1/4 8/5/4
f 7/6/5 2/1/5 4/3/5
f 2/1/5 7/6/5 5/2/5

usemtl foliage

f 8/5/4 9/11/4 3/4/4
f 9/11/4 8/5/4 10/12/4
f 12/14/5 4/3/5 11/13/5
f 4/3/5 12/14/5 7/6/5
f 12/12/2 8/6/2 7/5/2
f 8/6/2 12/12/2 10/14/2
f 11/17/6 10/16/6 12/15/6
f 10/16/6 11/17/6 9/18/6
f 9/13/1 4/4/1 3/3/1
f 4/4/1 9/13/1 11/11/1

