# Created by Kenney (www.kenney.nl)

mtllib tile_split.mtl

g tile_split

v 0.5 0.15 0.28125
v 0.5 0.15 0.375
v 0.4714474 0.15 0.2831214
v 0.4836842 0.15 0.3760694
v 0.4676476 0.15 0.3792593
v 0.4433833 0.15 0.2887037
v 0.4521646 0.15 0.384515
v 0.4375 0.15 0.3917468
v 0.416288 0.15 0.2979013
v 0.4239048 0.15 0.4008308
v 0.4116116 0.15 0.4116116
v 0.390625 0.15 0.3105569
v 0.4008308 0.15 0.4239048
v 0.3917468 0.15 0.4375
v 0.3845151 0.15 0.4521646
v 0.3668334 0.15 0.326454
v 0.3792593 0.15 0.4676476
v 0.3760694 0.15 0.4836842
v 0.375 0.15 0.5
v 0.28125 0.15 0.5
v 0.3453204 0.15 0.3453204
v 0.326454 0.15 0.3668334
v 0.3105569 0.15 0.390625
v 0.2979014 0.15 0.416288
v 0.2887037 0.15 0.4433833
v 0.2831214 0.15 0.4714474
v 0.5 0.15 -0.375
v -0.5 0.15 -0.375
v 0.5 0.2 -0.375
v -0.5 0.2 -0.375
v 0.5 0.15 -0.28125
v -0.5 0.15 -0.28125
v -0.3760694 0.2 0.4836842
v -0.3760694 0.15 0.4836842
v -0.375 0.2 0.5
v -0.375 0.15 0.5
v -0.3792593 0.2 0.4676476
v -0.3792593 0.15 0.4676476
v -0.28125 0.15 0.5
v -0.2831214 0.15 0.4714474
v -0.2887037 0.15 0.4433833
v -0.2979013 0.15 0.416288
v -0.3105569 0.15 0.390625
v -0.326454 0.15 0.3668334
v -0.3453204 0.15 0.3453204
v -0.3668334 0.15 0.326454
v -0.390625 0.15 0.3105569
v -0.384515 0.15 0.4521646
v -0.3917468 0.15 0.4375
v -0.416288 0.15 0.2979014
v -0.4008308 0.15 0.4239048
v -0.4116116 0.15 0.4116116
v -0.4239048 0.15 0.4008308
v -0.4433833 0.15 0.2887037
v -0.4375 0.15 0.3917468
v -0.4521646 0.15 0.3845151
v -0.4714474 0.15 0.2831214
v -0.4676476 0.15 0.3792593
v -0.4836842 0.15 0.3760694
v -0.5 0.15 0.28125
v -0.5 0.15 0.375
v -0.384515 0.2 0.4521646
v -0.4008308 0.2 0.4239048
v -0.3917468 0.2 0.4375
v -0.4375 0.2 0.3917468
v -0.4239048 0.2 0.4008308
v 0.4239048 0.2 0.4008308
v 0.4375 0.2 0.3917468
v 0.3792593 0.2 0.4676476
v 0.3760694 0.2 0.4836842
v -0.4676476 0.2 0.3792593
v -0.4521646 0.2 0.3845151
v 0.4116116 0.2 0.4116116
v 0.4676476 0.2 0.3792593
v 0.4836842 0.2 0.3760694
v -0.4116116 0.2 0.4116116
v -0.4836842 0.2 0.3760694
v 0.3917468 0.2 0.4375
v 0.3845151 0.2 0.4521646
v 0.375 0.2 0.5
v 0.5 0.2 0.375
v 0.4008308 0.2 0.4239048
v 0.4521646 0.2 0.384515
v -0.5 0.2 0.375
v -0.5 0.2 0.5
v -0.5 0.1 0.5
v 0.5 0.1 0.5
v 0.5 0.2 0.5
v -0.5 0.2 -0.5
v -0.5 0.1 -0.5
v 0.5 0.1 -0.5
v 0.5 0.2 -0.5
v 0.5 0 -0.5
v 0.5 0 0.5
v -0.5 0 0.5
v -0.5 0 -0.5

vn 0 1 0
vn 0 0 1
vn 0.9914449 0 -0.1305262
vn 0.9978589 0 -0.06540314
vn 0.9659258 0 -0.2588191
vn 0.9238795 0 -0.3826834
vn 0.7933533 0 -0.6087614
vn 0.8660254 0 -0.5
vn 0.5 0 -0.8660254
vn 0.6087614 0 -0.7933533
vn -0.6087614 0 -0.7933533
vn -0.5 0 -0.8660254
vn -0.9659258 0 -0.258819
vn -0.9914449 0 -0.1305262
vn 0.258819 0 -0.9659258
vn 0.3826834 0 -0.9238795
vn -0.7071068 0 -0.7071068
vn -0.2588191 0 -0.9659258
vn -0.1305262 0 -0.9914449
vn 0.7071068 0 -0.7071068
vn 0.1305262 0 -0.9914449
vn -0.8660254 0 -0.5
vn -0.9238795 0 -0.3826834
vn -0.9978589 0 -0.06540311
vn -0.06540314 0 -0.9978589
vn -0.7933533 0 -0.6087614
vn -0.3826834 0 -0.9238795
vn 0.06540311 0 -0.9978589
vn -1 0 0
vn 0 0 -1
vn 1 0 0
vn 0 -1 0

vt -19.68504 11.07283
vt -19.68504 14.76378
vt -18.56092 11.14651
vt -19.04269 14.80588
vt -18.41132 14.93147
vt -17.45604 11.36629
vt -17.80176 15.13839
vt -17.22441 15.4231
vt -16.38929 11.7284
vt -16.68917 15.78074
vt -16.20518 16.20518
vt -15.37894 12.22665
vt -15.78074 16.68917
vt -15.4231 17.22441
vt -15.13839 17.80175
vt -14.44226 12.85252
vt -14.93147 18.41132
vt -14.80588 19.04269
vt -14.76378 19.68504
vt -11.07283 19.68504
vt -13.59529 13.59529
vt -12.85252 14.44226
vt -12.22665 15.37894
vt -11.7284 16.38929
vt -11.36629 17.45604
vt -11.14651 18.56092
vt 19.68504 5.905512
vt -19.68504 5.905512
vt 19.68504 7.874016
vt -19.68504 7.874016
vt -19.68504 -11.07283
vt 19.68504 -11.07283
vt -19.68504 -14.76378
vt 19.68504 -14.76378
vt -18.03356 7.874016
vt -18.03356 5.905512
vt -18.6773 7.874016
vt -18.6773 5.905512
vt -15.14457 7.874016
vt -15.14457 5.905512
vt -15.7883 7.874016
vt -15.7883 5.905512
vt 11.07283 19.68504
vt 14.76378 19.68504
vt 11.14651 18.56092
vt 11.36629 17.45604
vt 11.7284 16.38929
vt 12.22665 15.37894
vt 12.85252 14.44226
vt 13.59529 13.59529
vt 14.44226 12.85252
vt 14.80588 19.04269
vt 15.37894 12.22665
vt 14.93147 18.41132
vt 15.13839 17.80176
vt 15.4231 17.22441
vt 16.38929 11.7284
vt 15.78074 16.68917
vt 16.20518 16.20518
vt 16.68917 15.78074
vt 17.45604 11.36629
vt 17.22441 15.4231
vt 17.80175 15.13839
vt 18.56092 11.14651
vt 18.41132 14.93147
vt 19.04269 14.80588
vt 19.68504 11.07283
vt 19.68504 14.76378
vt -11.99094 7.874016
vt -11.99094 5.905512
vt -12.63467 7.874016
vt -12.63467 5.905512
vt -5.109224 7.874016
vt -5.109224 5.905512
vt -5.752956 7.874016
vt -5.752956 5.905512
vt -8.626639 7.874016
vt -8.626639 5.905512
vt -9.27037 7.874016
vt -9.27037 5.905512
vt 5.752956 5.905512
vt 5.109224 5.905512
vt 5.752956 7.874016
vt 5.109224 7.874016
vt 15.14457 5.905512
vt 15.14457 7.874016
vt 15.7883 5.905512
vt 15.7883 7.874016
vt 12.63467 5.905512
vt 11.99094 5.905512
vt 12.63467 7.874016
vt 11.99094 7.874016
vt -1.498882 5.905512
vt -2.142614 5.905512
vt -1.498882 7.874016
vt -2.142614 7.874016
vt 2.142614 5.905512
vt 1.498882 5.905512
vt 2.142614 7.874016
vt 1.498882 7.874016
vt 8.626639 5.905512
vt 8.626639 7.874016
vt 9.27037 5.905512
vt 9.27037 7.874016
vt 18.03356 5.905512
vt 18.03356 7.874016
vt 18.6773 5.905512
vt 18.6773 7.874016
vt 19.68504 19.68504
vt -19.68504 3.937007
vt 14.76378 5.905511
vt 19.68504 3.937007
vt 19.68504 7.874015
vt -14.76378 5.905511
vt 14.76378 7.874015
vt -11.07283 5.905511
vt 11.07283 5.905511
vt -19.68504 7.874015
vt -14.76378 7.874015
vt -14.76378 5.905512
vt -19.68504 3.937008
vt 19.68504 3.937008
vt -11.07283 5.905512
vt 11.07283 5.905512
vt 14.76378 5.905512
vt 14.76378 7.874016
vt -14.76378 7.874016
vt -19.68504 -19.68504
vt 19.68504 -19.68504
vt -19.68504 19.68504
vt 19.68504 0
vt -19.68504 0

usemtl dirtDark

f 3/3/1 2/2/1 1/1/1
f 2/2/1 3/3/1 4/4/1
f 4/4/1 3/3/1 5/5/1
f 5/5/1 3/3/1 6/6/1
f 5/5/1 6/6/1 7/7/1
f 7/7/1 6/6/1 8/8/1
f 8/8/1 6/6/1 9/9/1
f 8/8/1 9/9/1 10/10/1
f 10/10/1 9/9/1 11/11/1
f 11/11/1 9/9/1 12/12/1
f 11/11/1 12/12/1 13/13/1
f 13/13/1 12/12/1 14/14/1
f 14/14/1 12/12/1 15/15/1
f 15/15/1 12/12/1 16/16/1
f 15/15/1 16/16/1 17/17/1
f 17/17/1 16/16/1 18/18/1
f 18/18/1 16/16/1 19/19/1
f 19/19/1 16/16/1 20/20/1
f 20/20/1 16/16/1 21/21/1
f 20/20/1 21/21/1 22/22/1
f 20/20/1 22/22/1 23/23/1
f 20/20/1 23/23/1 24/24/1
f 20/20/1 24/24/1 25/25/1
f 20/20/1 25/25/1 26/26/1
f 29/29/2 28/28/2 27/27/2
f 28/28/2 29/29/2 30/30/2
f 27/33/1 32/32/1 31/31/1
f 32/32/1 27/33/1 28/34/1
f 35/37/4 34/36/3 33/35/3
f 34/36/3 35/37/4 36/38/4
f 33/41/3 38/40/5 37/39/5
f 38/40/5 33/41/3 34/42/3
f 40/45/1 36/44/1 39/43/1
f 36/44/1 40/45/1 41/46/1
f 36/44/1 41/46/1 42/47/1
f 36/44/1 42/47/1 43/48/1
f 36/44/1 43/48/1 44/49/1
f 36/44/1 44/49/1 45/50/1
f 36/44/1 45/50/1 46/51/1
f 36/44/1 46/51/1 34/52/1
f 34/52/1 46/51/1 47/53/1
f 34/52/1 47/53/1 38/54/1
f 38/54/1 47/53/1 48/55/1
f 48/55/1 47/53/1 49/56/1
f 49/56/1 47/53/1 50/57/1
f 49/56/1 50/57/1 51/58/1
f 51/58/1 50/57/1 52/59/1
f 52/59/1 50/57/1 53/60/1
f 53/60/1 50/57/1 54/61/1
f 53/60/1 54/61/1 55/62/1
f 55/62/1 54/61/1 56/63/1
f 56/63/1 54/61/1 57/64/1
f 56/63/1 57/64/1 58/65/1
f 58/65/1 57/64/1 59/66/1
f 59/66/1 57/64/1 60/67/1
f 59/66/1 60/67/1 61/68/1
f 37/71/5 48/70/6 62/69/6
f 48/70/6 37/71/5 38/72/5
f 64/75/8 51/74/7 63/73/7
f 51/74/7 64/75/8 49/76/8
f 62/79/6 49/78/8 64/77/8
f 49/78/8 62/79/6 48/80/6
f 65/83/9 53/82/10 55/81/9
f 53/82/10 65/83/9 66/84/10
f 67/73/11 8/76/12 10/74/11
f 8/76/12 67/73/11 68/75/12
f 18/87/14 69/86/13 17/85/13
f 69/86/13 18/87/14 70/88/14
f 71/91/15 56/90/16 58/89/15
f 56/90/16 71/91/15 72/92/16
f 73/95/17 10/94/11 11/93/17
f 10/94/11 73/95/17 67/96/11
f 74/39/18 4/42/19 5/40/18
f 4/42/19 74/39/18 75/41/19
f 66/99/10 52/98/20 53/97/10
f 52/98/20 66/99/10 76/100/20
f 77/88/21 58/85/15 59/87/21
f 58/85/15 77/88/21 71/86/15
f 15/103/23 78/102/22 14/101/22
f 78/102/22 15/103/23 79/104/23
f 19/107/24 70/106/14 18/105/14
f 70/106/14 19/107/24 80/108/24
f 17/89/13 79/92/23 15/90/23
f 79/92/23 17/89/13 69/91/13
f 75/35/19 2/38/25 4/36/19
f 2/38/25 75/35/19 81/37/25
f 14/81/22 82/84/26 13/82/26
f 82/84/26 14/81/22 78/83/22
f 13/97/26 73/100/17 11/98/17
f 73/100/17 13/97/26 82/99/26
f 68/77/12 7/80/27 8/78/12
f 7/80/27 68/77/12 83/79/27
f 63/96/7 52/93/20 76/95/20
f 52/93/20 63/96/7 51/94/7
f 84/108/28 59/105/21 61/107/28
f 59/105/21 84/108/28 77/106/21
f 72/104/16 55/101/9 56/103/16
f 55/101/9 72/104/16 65/102/9
f 83/69/27 5/72/18 7/70/27
f 5/72/18 83/69/27 74/71/18

usemtl foliage

f 33/52/1 85/109/1 35/44/1
f 85/109/1 33/52/1 37/54/1
f 85/109/1 37/54/1 62/55/1
f 85/109/1 62/55/1 64/56/1
f 85/109/1 64/56/1 63/58/1
f 85/109/1 63/58/1 76/59/1
f 85/109/1 76/59/1 66/60/1
f 85/109/1 66/60/1 65/62/1
f 85/109/1 65/62/1 72/63/1
f 85/109/1 72/63/1 71/65/1
f 85/109/1 71/65/1 77/66/1
f 85/109/1 77/66/1 84/68/1
f 87/112/2 19/111/2 86/110/2
f 19/111/2 87/112/2 88/113/2
f 86/110/2 19/111/2 36/114/2
f 19/111/2 88/113/2 80/115/2
f 19/111/2 39/116/2 36/114/2
f 39/116/2 19/111/2 20/117/2
f 36/114/2 85/118/2 86/110/2
f 85/118/2 36/114/2 35/119/2
f 90/121/29 28/120/29 89/30/29
f 28/120/29 90/121/29 86/122/29
f 28/120/29 86/122/29 32/123/29
f 32/123/29 86/122/29 60/124/29
f 60/124/29 86/122/29 61/125/29
f 61/125/29 86/122/29 84/126/29
f 84/126/29 86/122/29 85/29/29
f 30/127/29 89/30/29 28/120/29
f 89/29/30 91/121/30 90/122/30
f 91/121/30 89/29/30 92/30/30
f 92/128/1 30/34/1 29/33/1
f 30/34/1 92/128/1 89/129/1
f 88/30/31 2/120/31 81/127/31
f 87/121/31 2/120/31 88/30/31
f 87/121/31 1/123/31 2/120/31
f 87/121/31 31/124/31 1/123/31
f 87/121/31 27/125/31 31/124/31
f 91/122/31 27/125/31 87/121/31
f 91/122/31 29/126/31 27/125/31
f 29/126/31 91/122/31 92/29/31
f 81/2/1 80/19/1 88/130/1
f 80/19/1 81/2/1 75/4/1
f 80/19/1 75/4/1 74/5/1
f 80/19/1 74/5/1 83/7/1
f 80/19/1 83/7/1 68/8/1
f 80/19/1 68/8/1 67/10/1
f 80/19/1 67/10/1 73/11/1
f 80/19/1 73/11/1 82/13/1
f 80/19/1 82/13/1 78/14/1
f 80/19/1 78/14/1 79/15/1
f 80/19/1 79/15/1 69/17/1
f 80/19/1 69/17/1 70/18/1

usemtl dirt

f 87/121/31 93/131/31 91/122/31
f 93/131/31 87/121/31 94/132/31
f 31/31/1 3/3/1 1/1/1
f 3/3/1 31/31/1 32/32/1
f 3/3/1 32/32/1 6/6/1
f 6/6/1 32/32/1 9/9/1
f 9/9/1 32/32/1 12/12/1
f 12/12/1 32/32/1 16/16/1
f 16/16/1 32/32/1 21/21/1
f 21/21/1 32/32/1 22/22/1
f 22/22/1 32/32/1 23/23/1
f 23/23/1 32/32/1 24/24/1
f 24/24/1 32/32/1 25/25/1
f 25/25/1 32/32/1 26/26/1
f 26/26/1 32/32/1 20/20/1
f 20/20/1 32/32/1 41/46/1
f 20/20/1 41/46/1 40/45/1
f 20/20/1 40/45/1 39/43/1
f 41/46/1 32/32/1 42/47/1
f 42/47/1 32/32/1 43/48/1
f 43/48/1 32/32/1 44/49/1
f 44/49/1 32/32/1 45/50/1
f 45/50/1 32/32/1 46/51/1
f 46/51/1 32/32/1 47/53/1
f 47/53/1 32/32/1 50/57/1
f 50/57/1 32/32/1 54/61/1
f 54/61/1 32/32/1 57/64/1
f 57/64/1 32/32/1 60/67/1
f 87/112/2 95/132/2 94/131/2
f 95/132/2 87/112/2 86/110/2
f 90/122/30 93/132/30 96/131/30
f 93/132/30 90/122/30 91/121/30
f 95/130/32 93/129/32 94/109/32
f 93/129/32 95/130/32 96/128/32
f 95/131/29 90/121/29 96/132/29
f 90/121/29 95/131/29 86/122/29

