# Created by Kenney (www.kenney.nl)

mtllib tile_riverBridge.mtl

g tile_riverBridge

v 0.5 0.25 0.375
v 0.375 0.3 0.375
v 0.5 0.25 0.308125
v 0.375 0.3 0.308125
v -0.375 0.3 0.375
v -0.375 0.3 0.308125
v 0.5 0.15 0.308125
v 0.5 0.15 0.375
v 0.5 0.2 0.375
v -0.5 0.25 0.375
v -0.5 0.25 0.308125
v -0.375 0.2 -0.308125
v -0.375 0.2 0.308125
v -0.5 0.15 -0.308125
v -0.5 0.15 0.308125
v 0.375 0.2 0.308125
v 0.5 0.15 -0.308125
v 0.375 0.2 -0.308125
v -0.5 0.2 -0.375
v -0.375 0.2 -0.375
v -0.5 0.25 -0.375
v -0.25 0.2 -0.375
v 0.25 0.2 -0.375
v 0.375 0.2 -0.375
v 0.5 0.2 -0.375
v 0.5 0.25 -0.375
v -0.375 0.3 -0.375
v 0.375 0.3 -0.375
v 0.25 0.15 -0.375
v -0.25 0.15 -0.375
v 0.375 0.3 -0.308125
v -0.375 0.3 -0.308125
v -0.5 0.25 -0.308125
v -0.5 0.15 -0.375
v 0.5 0.25 -0.308125
v 0.5 0.15 -0.375
v 0.375 0.2 0.375
v 0.25 0.2 0.375
v -0.25 0.2 0.375
v -0.375 0.2 0.375
v -0.5 0.2 0.375
v -0.25 0.15 0.375
v 0.25 0.15 0.375
v -0.5 0.15 0.375
v 0.25 0.15 0.5
v -0.25 0.15 0.5
v -0.25 0.1 -0.5
v 0.25 0.1 -0.5
v -0.25 0.15 -0.5
v 0.25 0.15 -0.5
v 0.25 0.1 0.5
v -0.25 0.1 0.5
v 0.5 0 0.5
v 0.5 0 -0.5
v -0.5 0 0.5
v -0.5 0 -0.5
v -0.25 0.2 0.5
v -0.375 0.2 0.5
v 0.5 0.1 -0.5
v 0.5 0.1 0.5
v -0.5 0.1 -0.5
v -0.5 0.1 0.5
v 0.375 0.2 0.5
v 0.25 0.2 0.5
v -0.25 0.2 -0.5
v 0.375 0.1 0.5
v -0.375 0.1 0.5
v -0.375 0.1 -0.5
v -0.375 0.2 -0.5
v 0.375 0.1 -0.5
v 0.375 0.2 -0.5
v 0.25 0.2 -0.5
v 0.5 0.2 0.5
v -0.5 0.2 -0.5
v -0.5 0.2 0.5
v 0.5 0.2 -0.5

vn 0.3713907 0.9284766 0
vn 0 1 0
vn 1 0 0
vn -0.3713907 0.9284766 0
vn 0 0 -1
vn -1 0 0
vn 0 0 1
vn 0 -1 0

vt -14.76378 -14.62168
vt -14.76378 -9.321321
vt -12.13091 -14.62168
vt -12.13091 -9.321321
vt -14.76378 14.76378
vt 14.76378 14.76378
vt -14.76378 12.13091
vt 14.76378 12.13091
vt -12.13091 9.84252
vt -12.13091 5.905512
vt -14.76378 9.84252
vt -14.76378 5.905512
vt -14.76378 7.874016
vt 14.76378 -9.321321
vt 14.76378 -14.62168
vt 12.13091 -9.321321
vt 12.13091 -14.62168
vt -12.13091 -10.78349
vt 12.13091 -10.78349
vt -12.13091 -16.08385
vt 12.13091 -16.08385
vt 19.68504 5.905512
vt 14.76378 7.874016
vt 19.68504 9.84252
vt -19.68504 9.84252
vt -19.68504 5.905512
vt 14.76378 11.81102
vt -14.76378 11.81102
vt 12.13091 -10.78349
vt -12.13091 -10.78349
vt -14.76378 -12.13091
vt 14.76378 -12.13091
vt 14.76378 12.13091
vt 19.68504 7.874016
vt 14.76378 7.874016
vt 9.84252 7.874016
vt -9.84252 7.874016
vt -14.76378 7.874016
vt -19.68504 7.874016
vt -9.84252 5.905512
vt 9.84252 5.905512
vt -14.76378 -14.76378
vt 14.76378 -14.76378
vt -12.13091 -9.321321
vt -12.13091 -14.62168
vt -14.76378 -9.321321
vt -14.76378 -14.62168
vt -14.76378 5.905511
vt -14.76378 7.874015
vt -12.13091 5.905511
vt -12.13091 9.84252
vt 12.13091 -14.62168
vt 12.13091 -9.321321
vt 14.76378 -14.62168
vt 14.76378 -9.321321
vt 14.76378 9.84252
vt 12.13091 9.84252
vt 14.76378 5.905512
vt 12.13091 5.905512
vt 19.68504 5.905512
vt -19.68504 5.905512
vt 12.13091 5.905511
vt 14.76378 5.905511
vt 14.76378 9.84252
vt 14.76378 7.874015
vt -9.84252 19.68504
vt 9.84252 19.68504
vt -9.84252 14.76378
vt 9.84252 14.76378
vt 9.84252 3.937008
vt -9.84252 3.937008
vt -9.84252 -19.68504
vt -9.84252 -14.76378
vt 9.84252 -19.68504
vt 9.84252 -14.76378
vt 19.68504 19.68504
vt 19.68504 -19.68504
vt -19.68504 19.68504
vt -19.68504 -19.68504
vt 14.76378 19.68504
vt -14.76378 7.874016
vt -14.76378 5.905512
vt 19.68504 3.937008
vt 19.68504 0
vt -19.68504 3.937008
vt -19.68504 0
vt -14.76378 19.68504
vt 14.76378 3.937008
vt -14.76378 3.937008
vt 14.76378 -19.68504
vt -14.76378 -19.68504
vt -14.76378 5.905512
vt -19.68504 14.76378
vt -19.68504 7.874015
vt 19.68504 7.874015
vt 19.68504 14.76378
vt 19.68504 -14.76378
vt -19.68504 -14.76378
vt -14.76378 7.874015
vt -19.68504 7.874015
vt 19.68504 7.874015

usemtl wood

f 3/3/1 2/2/1 1/1/1
f 2/2/1 3/3/1 4/4/1
f 4/7/2 5/6/2 2/5/2
f 5/6/2 4/7/2 6/8/2
f 1/11/3 7/10/3 3/9/3
f 7/10/3 1/11/3 8/12/3
f 8/12/3 1/11/3 9/13/3
f 6/16/4 10/15/4 5/14/4
f 10/15/4 6/16/4 11/17/4
f 14/20/4 13/19/4 12/18/4
f 13/19/4 14/20/4 15/21/4
f 11/24/5 13/23/5 15/22/5
f 13/23/5 11/24/5 16/13/5
f 3/25/5 16/13/5 11/24/5
f 16/13/5 3/25/5 7/26/5
f 3/25/5 11/24/5 6/27/5
f 3/25/5 6/27/5 4/28/5
f 18/29/1 7/20/1 17/21/1
f 7/20/1 18/29/1 16/30/1
f 12/32/2 16/7/2 18/31/2
f 16/7/2 12/32/2 13/33/2
f 21/24/5 20/35/5 19/34/5
f 20/35/5 21/24/5 22/36/5
f 22/36/5 21/24/5 23/37/5
f 23/37/5 21/24/5 24/38/5
f 24/38/5 21/24/5 25/39/5
f 25/39/5 21/24/5 26/25/5
f 26/25/5 21/24/5 27/27/5
f 26/25/5 27/27/5 28/28/5
f 29/40/5 22/36/5 23/37/5
f 22/36/5 29/40/5 30/41/5
f 28/42/2 32/32/2 31/31/2
f 32/32/2 28/42/2 27/43/2
f 27/46/4 33/45/4 32/44/4
f 33/45/4 27/46/4 21/47/4
f 14/50/6 19/49/6 34/48/6
f 19/49/6 14/50/6 21/11/6
f 21/11/6 14/50/6 33/51/6
f 26/54/1 31/53/1 35/52/1
f 31/53/1 26/54/1 28/55/1
f 35/57/3 25/35/3 26/56/3
f 25/35/3 35/57/3 36/58/3
f 36/58/3 35/57/3 17/59/3
f 35/24/7 18/35/7 17/60/7
f 18/35/7 35/24/7 12/38/7
f 33/25/7 12/38/7 35/24/7
f 12/38/7 33/25/7 14/61/7
f 33/25/7 35/24/7 31/27/7
f 33/25/7 31/27/7 32/28/7
f 1/24/7 37/35/7 9/34/7
f 37/35/7 1/24/7 38/36/7
f 38/36/7 1/24/7 39/37/7
f 39/37/7 1/24/7 40/38/7
f 40/38/7 1/24/7 41/39/7
f 41/39/7 1/24/7 10/25/7
f 10/25/7 1/24/7 2/27/7
f 10/25/7 2/27/7 5/28/7
f 42/40/7 38/36/7 39/37/7
f 38/36/7 42/40/7 43/41/7
f 44/63/6 11/57/6 15/62/6
f 11/57/6 44/63/6 10/64/6
f 10/64/6 44/63/6 41/65/6

usemtl water

f 43/68/2 46/67/2 45/66/2
f 46/67/2 43/68/2 42/69/2
f 49/41/5 48/71/5 47/70/5
f 48/71/5 49/41/5 50/40/5
f 45/41/7 52/71/7 51/70/7
f 52/71/7 45/41/7 46/40/7
f 49/74/2 29/73/2 50/72/2
f 29/73/2 49/74/2 30/75/2

usemtl dirt

f 55/78/8 54/77/8 53/76/8
f 54/77/8 55/78/8 56/79/8
f 39/69/2 58/80/2 57/67/2
f 58/80/2 39/69/2 40/6/2
f 57/39/3 42/82/3 39/81/3
f 42/82/3 57/39/3 46/61/3
f 60/85/3 54/84/3 59/83/3
f 54/84/3 60/85/3 53/86/3
f 55/84/6 61/85/6 56/86/6
f 61/85/6 55/84/6 62/83/6
f 37/5/2 64/66/2 63/87/2
f 64/66/2 37/5/2 38/68/2
f 22/35/3 49/60/3 65/34/3
f 49/60/3 22/35/3 30/58/3
f 63/35/7 51/70/7 66/88/7
f 51/70/7 63/35/7 45/41/7
f 45/41/7 63/35/7 64/36/7
f 62/85/7 66/88/7 51/70/7
f 62/85/7 60/83/7 66/88/7
f 55/86/7 60/83/7 62/85/7
f 60/83/7 55/86/7 53/84/7
f 62/85/7 51/70/7 52/71/7
f 62/85/7 52/71/7 67/89/7
f 46/40/7 67/89/7 52/71/7
f 67/89/7 46/40/7 58/38/7
f 58/38/7 46/40/7 57/37/7
f 69/35/5 47/70/5 68/88/5
f 47/70/5 69/35/5 49/41/5
f 49/41/5 69/35/5 65/36/5
f 59/85/5 68/88/5 47/70/5
f 59/85/5 61/83/5 68/88/5
f 54/86/5 61/83/5 59/85/5
f 61/83/5 54/86/5 56/84/5
f 59/85/5 47/70/5 48/71/5
f 59/85/5 48/71/5 70/89/5
f 50/40/5 70/89/5 48/71/5
f 70/89/5 50/40/5 71/38/5
f 71/38/5 50/40/5 72/37/5
f 45/60/6 38/35/6 43/58/6
f 38/35/6 45/60/6 64/34/6
f 69/90/2 22/75/2 65/74/2
f 22/75/2 69/90/2 20/43/2
f 72/72/2 24/42/2 71/91/2
f 24/42/2 72/72/2 23/73/2
f 29/92/6 72/39/6 50/61/6
f 72/39/6 29/92/6 23/38/6

usemtl foliage

f 9/93/2 63/87/2 73/78/2
f 63/87/2 9/93/2 37/5/2
f 61/85/6 34/48/6 74/94/6
f 34/48/6 61/85/6 62/83/6
f 34/48/6 62/83/6 14/50/6
f 14/50/6 62/83/6 15/62/6
f 15/62/6 62/83/6 44/63/6
f 44/63/6 62/83/6 41/65/6
f 41/65/6 62/83/6 75/95/6
f 19/49/6 74/94/6 34/48/6
f 73/34/7 66/88/7 60/83/7
f 66/88/7 73/34/7 63/35/7
f 74/34/5 68/88/5 61/83/5
f 68/88/5 74/34/5 69/35/5
f 71/38/5 59/85/5 70/89/5
f 59/85/5 71/38/5 76/39/5
f 58/38/7 62/85/7 67/89/7
f 62/85/7 58/38/7 75/39/7
f 40/6/2 75/76/2 58/80/2
f 75/76/2 40/6/2 41/96/2
f 74/77/2 20/43/2 69/90/2
f 20/43/2 74/77/2 19/97/2
f 71/91/2 25/98/2 76/79/2
f 25/98/2 71/91/2 24/42/2
f 73/100/3 8/12/3 9/99/3
f 60/85/3 8/12/3 73/100/3
f 60/85/3 7/10/3 8/12/3
f 60/85/3 17/59/3 7/10/3
f 60/85/3 36/58/3 17/59/3
f 59/83/3 36/58/3 60/85/3
f 59/83/3 25/35/3 36/58/3
f 25/35/3 59/83/3 76/101/3

