# Created by Kenney (www.kenney.nl)

mtllib tile_spawnRound.mtl

g tile_spawnRound

v 0.5 0 0.5
v 0.5 0 -0.5
v -0.5 0 0.5
v -0.5 0 -0.5
v 0.5 0.1 0.5
v -0.5 0.1 0.5
v -0.5 0.1 -0.5
v 0.5 0.1 -0.5
v 0.28125 0.15 -1.218225E-14
v 0.28125 0.15 0.5
v 0.2708852 0.15 0.07872818
v 0.2428691 0.15 0.1463652
v 0.1983017 0.15 0.2044464
v 0.1402205 0.15 0.2490138
v -0.28125 0.15 0.5
v 0.07258348 0.15 0.2770299
v 4.114895E-14 0.15 0.2865857
v -0.07258348 0.15 0.2770299
v -0.1402205 0.15 0.2490138
v -0.1983017 0.15 0.2044464
v -0.2428691 0.15 0.1463652
v -0.2708852 0.15 0.07872818
v -0.28125 0.15 1.66942E-14
v 0.2708852 0.15 -0.07872818
v 0.28125 0.15 -0.5
v 0.2428691 0.15 -0.1463652
v 0.1983017 0.15 -0.2044464
v 0.1402205 0.15 -0.2490138
v -0.28125 0.15 -0.5
v 0.07258348 0.15 -0.2770299
v 1.010676E-14 0.15 -0.2865857
v -0.07258348 0.15 -0.2770299
v -0.1402205 0.15 -0.2490138
v -0.1983017 0.15 -0.2044464
v -0.2428691 0.15 -0.1463652
v -0.2708852 0.15 -0.07872818
v 0.375 0.15 0.5
v 0.5 0.2 0.5
v 0.375 0.2 0.5
v -0.375 0.15 0.5
v -0.5 0.2 0.5
v -0.375 0.2 0.5
v -0.375 0.15 -0.5
v -0.5 0.2 -0.5
v -0.375 0.2 -0.5
v 0.375 0.15 -0.5
v 0.5 0.2 -0.5
v 0.375 0.2 -0.5
v -0.156168 0.15 -0.09630831
v -0.1249344 0.1 -0.07704665
v -0.1741827 0.15 -0.05281682
v -0.1393462 0.1 -0.04225345
v 0.1275106 0.15 -0.1336553
v 0.156168 0.15 -0.09630831
v 0.1020085 0.1 -0.1069242
v 0.1249344 0.1 -0.07704665
v -0.1811362 0.15 1.055795E-14
v -0.1449089 0.1 8.39222E-15
v -0.1393462 0.1 0.04225345
v -0.1249344 0.1 0.07704665
v -0.1741827 0.15 0.05281682
v -0.156168 0.15 0.09630831
v -0.1020085 0.1 0.1069242
v -0.1275106 0.15 0.1336553
v 3.465175E-14 0.1 0.1491775
v 0.03733769 0.1 0.1442619
v 3.609557E-14 0.15 0.1864719
v 0.04667212 0.15 0.1803274
v 0.03733769 0.1 -0.1442619
v 1.732587E-14 0.1 -0.1491775
v 0.04667212 0.15 -0.1803274
v 1.516014E-14 0.15 -0.1864719
v 0.07213089 0.1 -0.1298501
v 0.09016361 0.15 -0.1623126
v 0.1741827 0.15 -0.05281682
v 0.1393462 0.1 -0.04225345
v -0.1275106 0.15 -0.1336553
v -0.1020085 0.1 -0.1069242
v 0.07213089 0.1 0.1298501
v 0.1020085 0.1 0.1069242
v 0.09016361 0.15 0.1623126
v 0.1275106 0.15 0.1336553
v -0.07213089 0.1 0.1298501
v -0.03733769 0.1 0.1442619
v -0.09016361 0.15 0.1623126
v -0.04667212 0.15 0.1803274
v -0.03733769 0.1 -0.1442619
v -0.07213089 0.1 -0.1298501
v -0.04667212 0.15 -0.1803274
v -0.09016361 0.15 -0.1623126
v 0.1449089 0.1 -6.406964E-15
v 0.1393462 0.1 0.04225345
v 0.1249344 0.1 0.07704665
v 0.156168 0.15 0.09630831
v 0.1811362 0.15 -7.941025E-15
v 0.1741827 0.15 0.05281682

vn 0 -1 0
vn 0 0 1
vn -1 0 0
vn 0 0 -1
vn 1 0 0
vn 0 1 0
vn 0.6977328 0.5915171 0.4040748
vn 0.698909 0.591485 0.4020841
vn 0.7807062 0.5884002 0.2104356
vn 0.7814054 0.5883598 0.2079383
vn -0.568137 0.5941708 0.5693693
vn -0.6977328 0.5915171 0.4040748
vn -0.5694765 0.5941496 0.5680518
vn -0.698909 0.591485 0.4020841
vn 0.8097856 0.5867259 0
vn 0.7814054 0.5883598 -0.2079383
vn 0.698909 0.591485 -0.4020841
vn 0.7807062 0.5884002 -0.2104356
vn 0.6977328 0.5915171 -0.4040748
vn 0.5694765 0.5941496 -0.5680518
vn 0.568137 0.5941708 -0.5693693
vn 0 0.5978882 -0.8015795
vn -0.2079018 0.5974551 -0.7744832
vn -0.2072409 0.5974579 -0.7746581
vn -0.2079018 0.5974551 0.7744832
vn 0 0.5978882 0.8015795
vn -0.2072409 0.5974579 0.7746581
vn -0.4020392 0.5961825 0.6949323
vn -0.400889 0.596193 0.6955875
vn -0.7807062 0.5884002 0.2104356
vn -0.7814054 0.5883598 0.2079383
vn 0.568137 0.5941708 0.5693693
vn 0.5694765 0.5941496 0.5680518
vn -0.4020392 0.5961825 -0.6949323
vn -0.5694765 0.5941496 -0.5680518
vn -0.400889 0.596193 -0.6955875
vn -0.568137 0.5941708 -0.5693693
vn 0.4020392 0.5961825 -0.6949323
vn 0.2079018 0.5974551 -0.7744832
vn 0.400889 0.596193 -0.6955875
vn 0.2072409 0.5974579 -0.7746581
vn 0.2079018 0.5974551 0.7744832
vn 0.4020392 0.5961825 0.6949323
vn 0.2072409 0.5974579 0.7746581
vn 0.400889 0.596193 0.6955875
vn -0.698909 0.591485 -0.4020841
vn -0.6977328 0.5915171 -0.4040748
vn -0.8097856 0.5867259 0
vn -0.7807062 0.5884002 -0.2104356
vn -0.7814054 0.5883598 -0.2079383

vt 19.68504 19.68504
vt 19.68504 -19.68504
vt -19.68504 19.68504
vt -19.68504 -19.68504
vt 19.68504 0
vt -19.68504 0
vt 19.68504 3.937008
vt -19.68504 3.937008
vt -11.07283 -4.796163E-13
vt -11.07283 19.68504
vt -10.66477 3.099535
vt -9.561774 5.76241
vt -7.807156 8.049073
vt -5.520493 9.803691
vt 11.07283 19.68504
vt -2.857617 10.90669
vt -1.620117E-12 11.2829
vt 2.857617 10.90669
vt 5.520493 9.803691
vt 7.807156 8.049073
vt 9.561774 5.76241
vt 10.66477 3.099535
vt 11.07283 6.57252E-13
vt -10.66477 -3.099535
vt -11.07283 -19.68504
vt -9.561774 -5.76241
vt -7.807156 -8.049073
vt -5.520493 -9.803691
vt 11.07283 -19.68504
vt -2.857617 -10.90669
vt -3.979833E-13 -11.2829
vt 2.857617 -10.90669
vt 5.520493 -9.803691
vt 7.807156 -8.049073
vt 9.561774 -5.76241
vt 10.66477 -3.099535
vt 14.76378 5.905512
vt 19.68504 7.874016
vt 14.76378 7.874016
vt -14.76378 5.905512
vt -19.68504 7.874016
vt 11.07283 5.905512
vt -11.07283 5.905512
vt -14.76378 7.874016
vt 14.76378 19.68504
vt 14.76378 -19.68504
vt -14.76378 19.68504
vt -14.76378 -19.68504
vt 19.68504 5.905512
vt -19.68504 5.905512
vt 1.150173 8.966337
vt 0.9201382 6.535443
vt -0.7031679 8.966337
vt -0.5625343 6.535443
vt -1.118596 9.006923
vt 0.7347444 9.006923
vt -0.894877 6.569595
vt 0.5877955 6.569595
vt 1.166518 8.921258
vt 0.9332144 6.497502
vt -0.9308274 8.921258
vt -0.7446619 6.497502
vt 0.5625343 6.535443
vt -0.9201382 6.535443
vt 0.7031679 8.966337
vt -1.150173 8.966337
vt 0.7665974 6.627688
vt -0.716075 6.627688
vt 0.9582468 9.07598
vt -0.8950937 9.07598
vt 0.716075 6.627688
vt -0.7665974 6.627688
vt 0.8950937 9.07598
vt -0.9582468 9.07598
vt 0.667274 6.617406
vt -0.8153984 6.617406
vt 0.8340926 9.063755
vt -1.019248 9.063755
vt 1.118596 9.006923
vt 0.894877 6.569595
vt -0.7347444 9.006923
vt -0.5877955 6.569595
vt 0.8591521 6.597573
vt -0.6235203 6.597573
vt 1.07394 9.040178
vt -0.7794003 9.040178
vt 0.8153984 6.617406
vt -0.667274 6.617406
vt 1.019248 9.063755
vt -0.8340926 9.063755
vt 0.7446619 6.497502
vt -0.9332144 6.497502
vt 0.9308274 8.921258
vt -1.166518 8.921258
vt -5.705077 -2.514912E-13
vt -5.48607 1.663522
vt -5.48607 -1.663522
vt -4.918675 3.033333
vt -4.918675 -3.033333
vt -4.016082 4.209616
vt -4.016082 -4.209616
vt -2.839799 5.112209
vt -2.839799 -5.112209
vt -1.469988 5.679604
vt -1.469988 -5.679604
vt -1.364294E-12 5.873131
vt -6.821725E-13 -5.873131
vt 1.469988 5.679604
vt 1.469988 -5.679604
vt 2.839799 5.112209
vt 2.839799 -5.112209
vt 4.016082 4.209616
vt 4.016082 -4.209616
vt 4.918675 3.033333
vt 4.918675 -3.033333
vt 5.48607 1.663522
vt 5.48607 -1.663522
vt 5.705077 3.311538E-13
vt 0.6235203 6.597573
vt -0.8591521 6.597573
vt 0.7794003 9.040178
vt -1.07394 9.040178
vt -7.131346 -3.120514E-13
vt -6.857587 -2.079402
vt -6.148345 -3.791666
vt -5.020103 -5.26202
vt -3.549748 -6.390262
vt -1.837485 -7.099504
vt -5.969352E-13 -7.341414
vt 1.837485 -7.099504
vt 3.549748 -6.390262
vt 5.020103 -5.26202
vt 6.148345 -3.791666
vt 6.857587 -2.079402
vt 7.131346 4.162549E-13
vt 6.857587 2.079402
vt 6.148345 3.791666
vt 5.020103 5.26202
vt 3.549748 6.390262
vt 1.837485 7.099504
vt -1.421165E-12 7.341414
vt -1.837485 7.099504
vt -3.549748 6.390262
vt -5.020103 5.26202
vt -6.148345 3.791666
vt -6.857587 2.079402

usemtl dirt

f 3/3/1 2/2/1 1/1/1
f 2/2/1 3/3/1 4/4/1
f 5/7/2 3/6/2 1/5/2
f 3/6/2 5/7/2 6/8/2
f 3/5/3 7/8/3 4/6/3
f 7/8/3 3/5/3 6/7/3
f 7/7/4 2/6/4 4/5/4
f 2/6/4 7/7/4 8/8/4
f 5/8/5 2/5/5 8/7/5
f 2/5/5 5/8/5 1/6/5
f 11/11/6 10/10/6 9/9/6
f 10/10/6 11/11/6 12/12/6
f 10/10/6 12/12/6 13/13/6
f 10/10/6 13/13/6 14/14/6
f 10/10/6 14/14/6 15/15/6
f 15/15/6 14/14/6 16/16/6
f 15/15/6 16/16/6 17/17/6
f 15/15/6 17/17/6 18/18/6
f 15/15/6 18/18/6 19/19/6
f 15/15/6 19/19/6 20/20/6
f 15/15/6 20/20/6 21/21/6
f 15/15/6 21/21/6 22/22/6
f 15/15/6 22/22/6 23/23/6
f 25/25/6 24/24/6 9/9/6
f 24/24/6 25/25/6 26/26/6
f 26/26/6 25/25/6 27/27/6
f 27/27/6 25/25/6 28/28/6
f 28/28/6 25/25/6 29/29/6
f 28/28/6 29/29/6 30/30/6
f 30/30/6 29/29/6 31/31/6
f 31/31/6 29/29/6 32/32/6
f 32/32/6 29/29/6 33/33/6
f 33/33/6 29/29/6 34/34/6
f 34/34/6 29/29/6 35/35/6
f 35/35/6 29/29/6 36/36/6
f 36/36/6 29/29/6 23/23/6

usemtl foliage

f 5/7/2 37/37/2 6/8/2
f 37/37/2 5/7/2 38/38/2
f 37/37/2 38/38/2 39/39/2
f 40/40/2 6/8/2 37/37/2
f 6/8/2 40/40/2 41/41/2
f 40/40/2 37/37/2 10/42/2
f 40/40/2 10/42/2 15/43/2
f 41/41/2 40/40/2 42/44/2
f 7/7/4 43/37/4 8/8/4
f 43/37/4 7/7/4 44/38/4
f 43/37/4 44/38/4 45/39/4
f 46/40/4 8/8/4 43/37/4
f 8/8/4 46/40/4 47/41/4
f 46/40/4 43/37/4 29/42/4
f 46/40/4 29/42/4 25/43/4
f 47/41/4 46/40/4 48/44/4
f 38/41/5 8/7/5 47/38/5
f 8/7/5 38/41/5 5/8/5
f 6/7/3 44/41/3 7/8/3
f 44/41/3 6/7/3 41/38/3
f 45/46/6 41/1/6 42/45/6
f 41/1/6 45/46/6 44/2/6
f 47/4/6 39/47/6 38/3/6
f 39/47/6 47/4/6 48/48/6

usemtl dirtDark

f 42/41/5 43/49/5 45/38/5
f 43/49/5 42/41/5 40/50/5
f 37/49/3 48/41/3 46/50/3
f 48/41/3 37/49/3 39/38/3
f 23/23/6 40/45/6 15/15/6
f 40/45/6 23/23/6 29/29/6
f 40/45/6 29/29/6 43/46/6
f 46/48/6 10/10/6 37/47/6
f 10/10/6 46/48/6 25/25/6
f 10/10/6 25/25/6 9/9/6

usemtl stoneDark

f 51/53/9 50/52/8 49/51/7
f 50/52/8 51/53/9 52/54/10
f 55/57/13 54/56/12 53/55/11
f 54/56/12 55/57/13 56/58/14
f 57/61/15 52/60/10 51/59/9
f 52/60/10 57/61/15 58/62/15
f 61/65/18 60/64/17 59/63/16
f 60/64/17 61/65/18 62/66/19
f 62/56/19 63/57/20 60/58/17
f 63/57/20 62/56/19 64/55/21
f 67/69/22 66/68/23 65/67/22
f 66/68/23 67/69/22 68/70/24
f 71/73/27 70/72/26 69/71/25
f 70/72/26 71/73/27 72/74/26
f 74/77/29 69/76/25 73/75/28
f 69/76/25 74/77/29 71/78/27
f 56/64/14 75/65/30 54/66/12
f 75/65/30 56/64/14 76/63/31
f 49/81/7 78/80/33 77/79/32
f 78/80/33 49/81/7 50/82/8
f 81/85/36 80/84/35 79/83/34
f 80/84/35 81/85/36 82/86/37
f 85/77/40 84/76/39 83/75/38
f 84/76/39 85/77/40 86/78/41
f 89/89/44 88/88/43 87/87/42
f 88/88/43 89/89/44 90/90/45
f 57/93/15 59/92/16 58/91/15
f 59/92/16 57/93/15 61/94/18
f 76/97/6 92/96/6 91/95/6
f 92/96/6 76/97/6 93/98/6
f 93/98/6 76/97/6 56/99/6
f 93/98/6 56/99/6 80/100/6
f 80/100/6 56/99/6 55/101/6
f 80/100/6 55/101/6 79/102/6
f 79/102/6 55/101/6 73/103/6
f 79/102/6 73/103/6 66/104/6
f 66/104/6 73/103/6 69/105/6
f 66/104/6 69/105/6 65/106/6
f 65/106/6 69/105/6 70/107/6
f 65/106/6 70/107/6 84/108/6
f 84/108/6 70/107/6 87/109/6
f 84/108/6 87/109/6 83/110/6
f 83/110/6 87/109/6 88/111/6
f 83/110/6 88/111/6 63/112/6
f 63/112/6 88/111/6 78/113/6
f 63/112/6 78/113/6 60/114/6
f 60/114/6 78/113/6 50/115/6
f 60/114/6 50/115/6 59/116/6
f 59/116/6 50/115/6 52/117/6
f 59/116/6 52/117/6 58/118/6
f 64/121/21 83/120/38 63/119/20
f 83/120/38 64/121/21 85/122/40
f 80/80/35 94/81/47 93/82/46
f 94/81/47 80/80/35 82/79/37
f 90/85/45 78/84/33 88/83/43
f 78/84/33 90/85/45 77/86/32
f 53/121/11 73/120/28 55/119/13
f 73/120/28 53/121/11 74/122/29
f 91/62/48 96/59/49 95/61/48
f 96/59/49 91/62/48 92/60/50
f 93/52/46 96/53/49 92/54/50
f 96/53/49 93/52/46 94/51/47
f 68/89/24 79/88/34 66/87/23
f 79/88/34 68/89/24 81/90/36
f 70/67/26 89/70/44 87/68/42
f 89/70/44 70/67/26 72/69/26
f 76/92/31 95/93/48 75/94/30
f 95/93/48 76/92/31 91/91/48
f 86/73/41 65/72/22 84/71/39
f 65/72/22 86/73/41 67/74/22

usemtl stone

f 27/27/6 75/124/6 95/123/6
f 75/124/6 27/27/6 28/28/6
f 75/124/6 28/28/6 54/125/6
f 54/125/6 28/28/6 53/126/6
f 53/126/6 28/28/6 30/30/6
f 53/126/6 30/30/6 74/127/6
f 74/127/6 30/30/6 71/128/6
f 71/128/6 30/30/6 31/31/6
f 71/128/6 31/31/6 72/129/6
f 72/129/6 31/31/6 89/130/6
f 89/130/6 31/31/6 32/32/6
f 89/130/6 32/32/6 90/131/6
f 90/131/6 32/32/6 33/33/6
f 90/131/6 33/33/6 77/132/6
f 77/132/6 33/33/6 49/133/6
f 49/133/6 33/33/6 34/34/6
f 49/133/6 34/34/6 51/134/6
f 51/134/6 34/34/6 57/135/6
f 57/135/6 34/34/6 20/20/6
f 20/20/6 34/34/6 21/21/6
f 21/21/6 34/34/6 35/35/6
f 21/21/6 35/35/6 22/22/6
f 22/22/6 35/35/6 36/36/6
f 22/22/6 36/36/6 23/23/6
f 20/20/6 61/136/6 57/135/6
f 20/20/6 62/137/6 61/136/6
f 19/19/6 62/137/6 20/20/6
f 19/19/6 64/138/6 62/137/6
f 19/19/6 85/139/6 64/138/6
f 18/18/6 85/139/6 19/19/6
f 18/18/6 86/140/6 85/139/6
f 18/18/6 67/141/6 86/140/6
f 17/17/6 67/141/6 18/18/6
f 17/17/6 68/142/6 67/141/6
f 16/16/6 68/142/6 17/17/6
f 16/16/6 81/143/6 68/142/6
f 16/16/6 82/144/6 81/143/6
f 14/14/6 82/144/6 16/16/6
f 14/14/6 94/145/6 82/144/6
f 14/14/6 96/146/6 94/145/6
f 13/13/6 96/146/6 14/14/6
f 13/13/6 95/123/6 96/146/6
f 13/13/6 27/27/6 95/123/6
f 13/13/6 26/26/6 27/27/6
f 12/12/6 26/26/6 13/13/6
f 12/12/6 24/24/6 26/26/6
f 11/11/6 24/24/6 12/12/6
f 24/24/6 11/11/6 9/9/6

