# Created by Kenney (www.kenney.nl)

mtllib tile_riverStraight.mtl

g tile_riverStraight

v 0.5 0 0.5
v 0.5 0 -0.5
v -0.5 0 0.5
v -0.5 0 -0.5
v 0.5 0.1 -0.5
v 0.5 0.1 0.5
v -0.5 0.1 -0.5
v -0.5 0.1 0.5
v -0.25 0.2 -0.5
v -0.25 0.2 0.5
v -0.375 0.2 -0.5
v -0.375 0.2 0.5
v 0.375 0.1 0.5
v 0.25 0.1 0.5
v 0.375 0.2 0.5
v 0.25 0.15 0.5
v 0.25 0.2 0.5
v -0.25 0.1 0.5
v -0.375 0.1 0.5
v -0.25 0.15 0.5
v 0.375 0.2 -0.5
v 0.25 0.2 -0.5
v -0.375 0.1 -0.5
v -0.25 0.1 -0.5
v -0.25 0.15 -0.5
v 0.25 0.1 -0.5
v 0.375 0.1 -0.5
v 0.25 0.15 -0.5
v 0.5 0.2 -0.5
v 0.5 0.2 0.5
v -0.5 0.2 -0.5
v -0.5 0.2 0.5

vn 0 -1 0
vn 1 0 0
vn -1 0 0
vn 0 1 0
vn 0 0 1
vn 0 0 -1

vt 19.68504 19.68504
vt 19.68504 -19.68504
vt -19.68504 19.68504
vt -19.68504 -19.68504
vt 19.68504 3.937008
vt 19.68504 0
vt -19.68504 3.937008
vt -19.68504 0
vt 9.84252 -19.68504
vt 9.84252 19.68504
vt 14.76378 -19.68504
vt 14.76378 19.68504
vt 14.76378 3.937008
vt 9.84252 3.937008
vt 14.76378 7.874016
vt 9.84252 5.905512
vt 9.84252 7.874016
vt -9.84252 3.937008
vt -14.76378 3.937008
vt -9.84252 5.905512
vt -14.76378 7.874016
vt -9.84252 7.874016
vt -14.76378 -19.68504
vt -14.76378 19.68504
vt -9.84252 -19.68504
vt -9.84252 19.68504
vt 19.68504 7.874016
vt 19.68504 5.905512
vt -19.68504 7.874016
vt -19.68504 5.905512

usemtl dirt

f 3/3/1 2/2/1 1/1/1
f 2/2/1 3/3/1 4/4/1
f 6/7/2 2/6/2 5/5/2
f 2/6/2 6/7/2 1/8/2
f 3/6/3 7/7/3 4/8/3
f 7/7/3 3/6/3 8/5/3
f 11/11/4 10/10/4 9/9/4
f 10/10/4 11/11/4 12/12/4
f 15/15/5 14/14/5 13/13/5
f 14/14/5 15/15/5 16/16/5
f 16/16/5 15/15/5 17/17/5
f 8/7/5 13/13/5 14/14/5
f 8/7/5 6/5/5 13/13/5
f 3/8/5 6/5/5 8/7/5
f 6/5/5 3/8/5 1/6/5
f 8/7/5 14/14/5 18/18/5
f 8/7/5 18/18/5 19/19/5
f 20/20/5 19/19/5 18/18/5
f 19/19/5 20/20/5 12/21/5
f 12/21/5 20/20/5 10/22/5
f 22/25/4 15/24/4 21/23/4
f 15/24/4 22/25/4 17/26/4
f 11/15/6 24/14/6 23/13/6
f 24/14/6 11/15/6 25/16/6
f 25/16/6 11/15/6 9/17/6
f 5/7/6 23/13/6 24/14/6
f 5/7/6 7/5/6 23/13/6
f 2/8/6 7/5/6 5/7/6
f 7/5/6 2/8/6 4/6/6
f 5/7/6 24/14/6 26/18/6
f 5/7/6 26/18/6 27/19/6
f 28/20/6 27/19/6 26/18/6
f 27/19/6 28/20/6 21/21/6
f 21/21/6 28/20/6 22/22/6
f 10/29/2 25/28/2 9/27/2
f 25/28/2 10/29/2 20/30/2
f 16/28/3 22/29/3 28/30/3
f 22/29/3 16/28/3 17/27/3

usemtl foliage

f 30/29/2 5/5/2 29/27/2
f 5/5/2 30/29/2 6/7/2
f 8/5/3 31/29/3 7/7/3
f 31/29/3 8/5/3 32/27/3
f 21/23/4 30/3/4 29/4/4
f 30/3/4 21/23/4 15/24/4
f 30/27/5 13/13/5 6/5/5
f 13/13/5 30/27/5 15/15/5
f 31/27/6 23/13/6 7/5/6
f 23/13/6 31/27/6 11/15/6
f 31/2/4 12/12/4 11/11/4
f 12/12/4 31/2/4 32/1/4
f 21/21/6 5/7/6 27/19/6
f 5/7/6 21/21/6 29/29/6
f 12/21/5 8/7/5 19/19/5
f 8/7/5 12/21/5 32/29/5

usemtl water

f 25/9/4 16/26/4 28/25/4
f 16/26/4 25/9/4 20/10/4
f 25/16/6 26/18/6 24/14/6
f 26/18/6 25/16/6 28/20/6
f 16/16/5 18/18/5 14/14/5
f 18/18/5 16/16/5 20/20/5

