# Created by Kenney (www.kenney.nl)

mtllib tile_cornerLarge.mtl

g tile_cornerLarge

v 0.5694811 0.15 -0.03936447
v 0.7088286 0.15 -0.08666655
v 0.5694811 0.2 -0.03936447
v 0.7088286 0.2 -0.08666655
v 0.4375 0.15 0.02572142
v 0.4375 0.2 0.02572142
v 0.2824686 0.15 -0.7322741
v 0.2824686 0.2 -0.7322741
v 0.5147142 0.15 -0.8111109
v 0.5147142 0.2 -0.8111109
v 0.3151434 0.15 0.1074775
v 0.3151434 0.2 0.1074775
v -0.8589591 0.2 0.7552634
v -0.8589591 0.15 0.7552634
v -0.875 0.2 1
v -0.875 0.15 1
v -0.3258252 0.15 -0.3258252
v -0.3258252 0.2 -0.3258252
v -0.1414277 0.15 -0.4875375
v -0.1414277 0.2 -0.4875375
v 0.2045049 0.15 0.2045049
v 0.2045049 0.2 0.2045049
v 1 0.15 -0.875
v 0.7552634 0.15 -0.8589591
v 1 0.2 -0.875
v 0.7552634 0.2 -0.8589591
v 0.0625 0.15 -0.6237976
v 0.0625 0.2 -0.6237976
v 0.853158 0.15 -0.1153755
v 1 0.15 -0.125
v 0.853158 0.2 -0.1153755
v 1 0.2 -0.125
v -0.4875375 0.2 -0.1414277
v -0.4875375 0.15 -0.1414277
v -0.6237976 0.2 0.0625
v -0.6237976 0.15 0.0625
v -0.7322741 0.2 0.2824686
v -0.7322741 0.15 0.2824686
v -0.8111109 0.2 0.5147142
v -0.8111109 0.15 0.5147142
v 1 0.15 -0.78125
v 0.7675002 0.15 -0.7660111
v 0.5389786 0.15 -0.7205554
v 0.3183451 0.15 -0.6456604
v 0.109375 0.15 -0.5426078
v -0.08435629 0.15 -0.4131606
v -0.259534 0.15 -0.259534
v -0.4131606 0.15 -0.08435629
v -0.5426078 0.15 0.109375
v -0.6456604 0.15 0.3183451
v -0.7205554 0.15 0.5389786
v -0.7660111 0.15 0.7675002
v -0.78125 0.15 1
v 1 0.15 -0.21875
v 0.8409212 0.15 -0.2083234
v 0.6845643 0.15 -0.1772221
v 0.5336046 0.15 -0.1259782
v 0.390625 0.15 -0.05546846
v 0.258072 0.15 0.03310062
v 0.1382136 0.15 0.1382136
v 0.1074775 0.15 0.3151434
v 0.03310062 0.15 0.258072
v 0.02572142 0.15 0.4375
v -0.05546846 0.15 0.390625
v -0.03936447 0.15 0.5694811
v -0.08666655 0.15 0.7088286
v -0.1259782 0.15 0.5336046
v -0.1153755 0.15 0.853158
v -0.125 0.15 1
v -0.21875 0.15 1
v -0.1772221 0.15 0.6845643
v -0.2083234 0.15 0.8409212
v 0.1074775 0.2 0.3151434
v 0.02572142 0.2 0.4375
v -0.03936447 0.2 0.5694811
v -0.08666655 0.2 0.7088286
v -0.1153755 0.2 0.853158
v -0.125 0.2 1
v -1 0 -1
v 1 0 -1
v -1 0.1 -1
v 1 0.1 -1
v 1 0 1
v -1 0 1
v 1 0.1 1
v -1 0.1 1
v 1 0.2 1
v -1 0.2 1
v -1 0.2 -1
v 1 0.2 -1

vn -0.3826834 0 -0.9238795
vn -0.258819 0 -0.9659258
vn -0.5 0 -0.8660254
vn 0.3826834 0 0.9238795
vn 0.258819 0 0.9659258
vn -0.6087614 0 -0.7933533
vn 0.9914449 0 0.1305262
vn 0.9978589 0 0.06540313
vn 0.7071068 0 0.7071068
vn 0.6087614 0 0.7933533
vn -0.7071068 0 -0.7071068
vn 0.06540313 0 0.9978589
vn 0.1305262 0 0.9914449
vn 0.5 0 0.8660254
vn -0.1305262 0 -0.9914449
vn -0.06540313 0 -0.9978589
vn 0.7933533 0 0.6087614
vn 0.8660254 0 0.5
vn 0.9238795 0 0.3826834
vn 0.9659258 0 0.258819
vn 0 1 0
vn -0.7933533 0 -0.6087614
vn -0.8660254 0 -0.5
vn -0.9238795 0 -0.3826834
vn -0.9659258 0 -0.258819
vn -0.9914449 0 -0.1305262
vn -0.9978589 0 -0.06540313
vn 0 0 -1
vn 0 0 1
vn -1 0 0
vn 1 0 0
vn 0 -1 0

vt -21.72882 5.905512
vt -27.52241 5.905512
vt -21.72882 7.874016
vt -27.52241 7.874016
vt -15.00022 5.905512
vt -20.7938 5.905512
vt -15.00022 7.874016
vt -20.7938 7.874016
vt 19.79763 5.905512
vt 19.79763 7.874016
vt 29.4536 5.905512
vt 29.4536 7.874016
vt -7.965388 5.905512
vt -13.75897 5.905512
vt -7.965388 7.874016
vt -13.75897 7.874016
vt -31.88287 7.874016
vt -31.88287 5.905512
vt -41.53885 7.874016
vt -41.53885 5.905512
vt -1.186491 5.905512
vt -1.186491 7.874016
vt 8.469482 5.905512
vt 8.469482 7.874016
vt -6.538288 5.905512
vt -6.538288 7.874016
vt -0.7447037 5.905512
vt -0.7447037 7.874016
vt 41.53885 5.905512
vt 31.88287 5.905512
vt 41.53885 7.874016
vt 31.88287 7.874016
vt 6.034194 5.905512
vt 6.034194 7.874016
vt 15.69017 5.905512
vt 15.69017 7.874016
vt -33.81406 5.905512
vt -39.60765 5.905512
vt -33.81406 7.874016
vt -39.60765 7.874016
vt -6.034194 7.874016
vt -6.034194 5.905512
vt -15.69017 7.874016
vt -15.69017 5.905512
vt -19.79763 7.874016
vt -19.79763 5.905512
vt -29.4536 7.874016
vt -29.4536 5.905512
vt -26.10489 7.874016
vt -26.10489 5.905512
vt -35.76086 7.874016
vt -35.76086 5.905512
vt 1.186491 7.874016
vt 1.186491 5.905512
vt -8.469482 7.874016
vt -8.469482 5.905512
vt 22.725 5.905512
vt 13.06902 5.905512
vt 22.725 7.874016
vt 13.06902 7.874016
vt 35.76086 5.905512
vt 26.10489 5.905512
vt 35.76086 7.874016
vt 26.10489 7.874016
vt -13.06902 7.874016
vt -13.06902 5.905512
vt -22.725 7.874016
vt -22.725 5.905512
vt -39.37008 -30.75787
vt -30.21654 -30.15792
vt -39.37008 -34.44882
vt -29.73478 -33.81729
vt -21.21963 -28.36832
vt -20.26434 -31.9335
vt -12.53327 -25.4197
vt -11.12081 -28.82969
vt -4.306102 -21.36251
vt -2.46063 -24.55896
vt 3.321114 -16.26617
vt 5.568019 -19.19439
vt 10.21787 -10.21787
vt 12.82776 -12.82776
vt 16.26617 -3.321114
vt 19.19439 -5.568019
vt 21.36251 4.306102
vt 24.55896 2.46063
vt 25.4197 12.53327
vt 28.82969 11.12081
vt 28.36832 21.21963
vt 30.15792 30.21654
vt 31.9335 20.26434
vt 30.75787 39.37008
vt 34.44882 39.37008
vt 33.81729 29.73478
vt -39.37008 -4.92126
vt -33.5889 -4.542341
vt -39.37008 -8.612205
vt -33.10714 -8.20171
vt -27.90664 -3.412069
vt -26.95135 -6.977248
vt -22.42052 -1.549782
vt -21.00805 -4.959771
vt -17.22441 1.012654
vt -15.37894 -2.183798
vt -12.40722 4.231397
vt -10.16032 1.303174
vt -8.051373 8.051373
vt -5.441481 5.441481
vt -4.231397 12.40722
vt -1.303174 10.16032
vt -1.012654 17.22441
vt 2.183798 15.37894
vt 1.549782 22.42052
vt 3.412069 27.90664
vt 4.959771 21.00805
vt 4.542341 33.5889
vt 4.92126 39.37008
vt 8.612205 39.37008
vt 6.977248 26.95135
vt 8.20171 33.10714
vt -28.03608 5.905512
vt -33.82967 5.905512
vt -28.03608 7.874016
vt -33.82967 7.874016
vt 7.965388 5.905512
vt 7.965388 7.874016
vt 13.75897 5.905512
vt 13.75897 7.874016
vt 15.00022 5.905512
vt 15.00022 7.874016
vt 20.7938 5.905512
vt 20.7938 7.874016
vt 21.72882 5.905512
vt 21.72882 7.874016
vt 27.52241 5.905512
vt 27.52241 7.874016
vt 28.03608 5.905512
vt 28.03608 7.874016
vt 33.82967 5.905512
vt 33.82967 7.874016
vt 0.7447037 5.905512
vt 0.7447037 7.874016
vt 6.538288 5.905512
vt 6.538288 7.874016
vt 33.81406 5.905512
vt 33.81406 7.874016
vt 39.60765 5.905512
vt 39.60765 7.874016
vt 39.37008 0
vt -39.37008 0
vt 39.37008 3.937008
vt -39.37008 3.937008
vt 39.37008 -39.37008
vt -39.37008 -39.37008
vt 39.37008 39.37008
vt -39.37008 39.37008
vt 39.37008 7.874016
vt -4.92126 5.905512
vt -8.612205 5.905512
vt -4.92126 7.874016
vt -34.44882 5.905512
vt -30.75787 5.905512
vt -39.37008 7.874016
vt -34.44882 7.874016
vt 4.92126 7.874016
vt 4.92126 5.905512
vt 8.612205 5.905512
vt 30.75787 5.905512
vt 34.44882 5.905512
vt 34.44882 7.874016

usemtl dirtDark

f 3/3/1 2/2/2 1/1/1
f 2/2/2 3/3/1 4/4/2
f 6/7/3 1/6/1 5/5/3
f 1/6/1 6/7/3 3/8/1
f 9/11/5 8/10/4 7/9/4
f 8/10/4 9/11/5 10/12/5
f 12/15/6 5/14/3 11/13/6
f 5/14/3 12/15/6 6/16/3
f 15/19/8 14/18/7 13/17/7
f 14/18/7 15/19/8 16/20/8
f 19/23/10 18/22/9 17/21/9
f 18/22/9 19/23/10 20/24/10
f 21/27/11 12/26/6 11/25/6
f 12/26/6 21/27/11 22/28/11
f 25/31/12 24/30/13 23/29/12
f 24/30/13 25/31/12 26/32/13
f 27/35/14 20/34/10 19/33/10
f 20/34/10 27/35/14 28/36/14
f 31/39/15 30/38/16 29/37/15
f 30/38/16 31/39/15 32/40/16
f 35/43/18 34/42/17 33/41/17
f 34/42/17 35/43/18 36/44/18
f 39/47/20 38/46/19 37/45/19
f 38/46/19 39/47/20 40/48/20
f 13/51/7 40/50/20 39/49/20
f 40/50/20 13/51/7 14/52/7
f 33/55/17 17/54/9 18/53/9
f 17/54/9 33/55/17 34/56/17
f 8/59/4 27/58/14 7/57/4
f 27/58/14 8/59/4 28/60/14
f 26/63/13 9/62/5 24/61/13
f 9/62/5 26/63/13 10/64/5
f 37/67/19 36/66/18 35/65/18
f 36/66/18 37/67/19 38/68/19
f 23/71/21 42/70/21 41/69/21
f 42/70/21 23/71/21 24/72/21
f 42/70/21 24/72/21 43/73/21
f 43/73/21 24/72/21 9/74/21
f 43/73/21 9/74/21 44/75/21
f 44/75/21 9/74/21 7/76/21
f 44/75/21 7/76/21 45/77/21
f 45/77/21 7/76/21 27/78/21
f 45/77/21 27/78/21 46/79/21
f 46/79/21 27/78/21 19/80/21
f 46/79/21 19/80/21 47/81/21
f 47/81/21 19/80/21 17/82/21
f 47/81/21 17/82/21 48/83/21
f 48/83/21 17/82/21 34/84/21
f 48/83/21 34/84/21 49/85/21
f 49/85/21 34/84/21 36/86/21
f 49/85/21 36/86/21 50/87/21
f 50/87/21 36/86/21 38/88/21
f 50/87/21 38/88/21 51/89/21
f 51/89/21 38/88/21 52/90/21
f 52/90/21 38/88/21 40/91/21
f 52/90/21 40/91/21 53/92/21
f 53/92/21 40/91/21 16/93/21
f 16/93/21 40/91/21 14/94/21
f 54/97/21 29/96/21 30/95/21
f 29/96/21 54/97/21 55/98/21
f 29/96/21 55/98/21 2/99/21
f 2/99/21 55/98/21 56/100/21
f 2/99/21 56/100/21 1/101/21
f 1/101/21 56/100/21 57/102/21
f 1/101/21 57/102/21 5/103/21
f 5/103/21 57/102/21 58/104/21
f 5/103/21 58/104/21 11/105/21
f 11/105/21 58/104/21 59/106/21
f 11/105/21 59/106/21 21/107/21
f 21/107/21 59/106/21 60/108/21
f 21/107/21 60/108/21 61/109/21
f 61/109/21 60/108/21 62/110/21
f 61/109/21 62/110/21 63/111/21
f 63/111/21 62/110/21 64/112/21
f 63/111/21 64/112/21 65/113/21
f 65/113/21 64/112/21 66/114/21
f 66/114/21 64/112/21 67/115/21
f 66/114/21 67/115/21 68/116/21
f 68/116/21 67/115/21 69/117/21
f 69/117/21 67/115/21 70/118/21
f 70/118/21 67/115/21 71/119/21
f 70/118/21 71/119/21 72/120/21
f 4/123/2 29/122/15 2/121/2
f 29/122/15 4/123/2 31/124/15
f 63/127/23 73/126/22 61/125/22
f 73/126/22 63/127/23 74/128/23
f 65/131/24 74/130/23 63/129/23
f 74/130/23 65/131/24 75/132/24
f 66/135/25 75/134/24 65/133/24
f 75/134/24 66/135/25 76/136/25
f 68/139/26 76/138/25 66/137/25
f 76/138/25 68/139/26 77/140/26
f 61/143/22 22/142/11 21/141/11
f 22/142/11 61/143/22 73/144/22
f 69/147/27 77/146/26 68/145/26
f 77/146/26 69/147/27 78/148/27

usemtl dirt

f 81/151/28 80/150/28 79/149/28
f 80/150/28 81/151/28 82/152/28
f 85/151/29 84/150/29 83/149/29
f 84/150/29 85/151/29 86/152/29
f 84/149/30 81/152/30 79/150/30
f 81/152/30 84/149/30 86/151/30
f 85/152/31 80/149/31 82/151/31
f 80/149/31 85/152/31 83/150/31
f 41/69/21 55/98/21 54/97/21
f 55/98/21 41/69/21 42/70/21
f 55/98/21 42/70/21 56/100/21
f 56/100/21 42/70/21 43/73/21
f 56/100/21 43/73/21 57/102/21
f 57/102/21 43/73/21 44/75/21
f 57/102/21 44/75/21 58/104/21
f 58/104/21 44/75/21 59/106/21
f 59/106/21 44/75/21 45/77/21
f 59/106/21 45/77/21 60/108/21
f 60/108/21 45/77/21 62/110/21
f 62/110/21 45/77/21 46/79/21
f 62/110/21 46/79/21 64/112/21
f 64/112/21 46/79/21 67/115/21
f 67/115/21 46/79/21 47/81/21
f 67/115/21 47/81/21 71/119/21
f 71/119/21 47/81/21 72/120/21
f 72/120/21 47/81/21 70/118/21
f 70/118/21 47/81/21 53/92/21
f 53/92/21 47/81/21 48/83/21
f 53/92/21 48/83/21 49/85/21
f 53/92/21 49/85/21 50/87/21
f 53/92/21 50/87/21 51/89/21
f 53/92/21 51/89/21 52/90/21
f 83/155/32 79/154/32 80/153/32
f 79/154/32 83/155/32 84/156/32

usemtl _defaultMat

f 85/26/32 81/27/32 82/28/32
f 81/26/32 85/27/32 86/28/32

usemtl foliage

f 87/157/29 86/152/29 85/151/29
f 86/152/29 87/157/29 69/158/29
f 86/152/29 69/158/29 70/159/29
f 69/158/29 87/157/29 78/160/29
f 16/161/29 86/152/29 70/159/29
f 53/162/29 16/161/29 70/159/29
f 86/152/29 16/161/29 88/163/29
f 88/163/29 16/161/29 15/164/29
f 86/151/30 89/163/30 81/152/30
f 89/163/30 86/151/30 88/157/30
f 90/154/21 26/72/21 25/71/21
f 26/72/21 90/154/21 89/153/21
f 26/72/21 89/153/21 10/74/21
f 10/74/21 89/153/21 8/76/21
f 8/76/21 89/153/21 28/78/21
f 28/78/21 89/153/21 20/80/21
f 20/80/21 89/153/21 18/82/21
f 18/82/21 89/153/21 33/84/21
f 33/84/21 89/153/21 35/86/21
f 35/86/21 89/153/21 37/88/21
f 37/88/21 89/153/21 39/91/21
f 39/91/21 89/153/21 13/94/21
f 13/94/21 89/153/21 15/93/21
f 15/93/21 89/153/21 88/155/21
f 89/157/28 82/152/28 81/151/28
f 82/152/28 89/157/28 90/163/28
f 31/96/21 87/156/21 32/95/21
f 87/156/21 31/96/21 78/117/21
f 78/117/21 31/96/21 4/99/21
f 78/117/21 4/99/21 3/101/21
f 78/117/21 3/101/21 6/103/21
f 78/117/21 6/103/21 12/105/21
f 78/117/21 12/105/21 22/107/21
f 78/117/21 22/107/21 73/109/21
f 78/117/21 73/109/21 74/111/21
f 78/117/21 74/111/21 75/113/21
f 78/117/21 75/113/21 76/114/21
f 78/117/21 76/114/21 77/116/21
f 87/163/31 30/166/31 32/165/31
f 85/152/31 30/166/31 87/163/31
f 85/152/31 54/167/31 30/166/31
f 85/152/31 41/168/31 54/167/31
f 85/152/31 23/169/31 41/168/31
f 82/151/31 23/169/31 85/152/31
f 82/151/31 25/170/31 23/169/31
f 25/170/31 82/151/31 90/157/31

