# Created by Kenney (www.kenney.nl)

mtllib towerRound_bottomC.mtl

g towerRound_bottomC

v -0.3075914 0.32 0.3075914
v -0.3075914 0.41 0.3075914
v -0.2175 0.32 0.3767211
v -0.2175 0.41 0.3767211
v -1.624301E-14 0.32 0.435
v -3.356888E-14 0.41 0.435
v 0.1125863 0.32 0.4201777
v 0.1125863 0.41 0.4201777
v 0.2175 0.32 0.3767211
v 0.2175 0.41 0.3767211
v 0.3075914 0.41 -0.3075914
v 0.3075914 0.32 -0.3075914
v 0.3767211 0.41 -0.2175
v 0.3767211 0.32 -0.2175
v 0.4201777 0.41 0.1125863
v 0.4201777 0.32 0.1125863
v 0.3767211 0.41 0.2175
v 0.3767211 0.32 0.2175
v -0.4201777 0.32 -0.1125863
v -0.4201777 0.41 -0.1125863
v -0.435 0.32 0
v -0.435 0.41 0
v -0.2175 0.32 -0.3767211
v -0.1125863 0.32 -0.4201777
v -0.2175 0.41 -0.3767211
v -0.1125863 0.41 -0.4201777
v 0.2175 0.32 -0.3767211
v 0.2175 0.41 -0.3767211
v -0.3767211 0.32 0.2175
v -0.3767211 0.41 0.2175
v 0.435 0.41 0
v 0.435 0.32 0
v -0.4330127 0.2 -0.25
v -0.3767211 0.32 -0.2175
v -0.4829629 0.2 -0.1294095
v -0.3767211 0.41 -0.2175
v 0.25 0.2 0.4330127
v 0.3535534 0.2 0.3535534
v 0.3075914 0.32 0.3075914
v -1.624301E-14 0.32 -0.435
v -3.356888E-14 0.41 -0.435
v -0.4829629 9.023893E-16 -0.1294095
v -0.5 0 0
v -0.5 0.2 0
v 6.858159E-15 2.20183E-14 0.5
v -1.046772E-14 0.2 0.5
v 0.1294095 2.752287E-14 0.4829629
v 0.1294095 0.2 0.4829629
v 0.4829629 0.2 -0.1294095
v 0.4829629 4.313421E-14 -0.1294095
v 0.5 0.2 0
v 0.5 4.385612E-14 0
v 0.25 3.293721E-14 0.4330127
v 0.4330127 0.2 0.25
v 0.4330127 4.096847E-14 0.25
v 0.3535534 3.744915E-14 0.3535534
v -0.3535534 6.406964E-15 0.3535534
v -0.3535534 0.2 0.3535534
v -0.25 1.109939E-14 0.4330127
v -0.25 0.2 0.4330127
v -0.1294095 1.633324E-14 -0.4829629
v 6.858159E-15 2.20183E-14 -0.5
v -0.1294095 0.2 -0.4829629
v -1.046772E-14 0.2 -0.5
v 0.4829629 0.2 0.1294095
v -0.1294095 0.2 0.4829629
v -0.1125863 0.32 0.4201777
v 0.3535534 0.2 -0.3535534
v 0.3535534 3.744915E-14 -0.3535534
v 0.4330127 0.2 -0.25
v 0.4330127 4.096847E-14 -0.25
v 0.4829629 4.313421E-14 0.1294095
v 0.25 3.293721E-14 -0.4330127
v 0.1294095 2.752287E-14 -0.4829629
v -0.1294095 1.633324E-14 0.4829629
v -0.25 1.109939E-14 -0.4330127
v -0.3535534 6.406964E-15 -0.3535534
v -0.4330127 3.068124E-15 0.25
v -0.4330127 3.068124E-15 -0.25
v -0.4829629 9.023893E-16 0.1294095
v -0.4330127 0.2 0.25
v -0.25 0.2 -0.4330127
v 0.25 0.2 -0.4330127
v 0.1294095 0.2 -0.4829629
v 0.1125863 0.32 -0.4201777
v -0.3535534 0.2 -0.3535534
v -0.3075914 0.32 -0.3075914
v 0.4201777 0.32 -0.1125863
v -0.4829629 0.2 0.1294095
v -0.4201777 0.32 0.1125863
v 0.4201777 0.5 0.1125863
v 0.3767211 0.5 0.2175
v 0.2175 0.5 -0.3767211
v 0.3075914 0.5 -0.3075914
v 0.3075914 0.5 0.3075914
v 0.2175 0.5 0.3767211
v 0.435 0.5 0
v 0.4201777 0.5 -0.1125863
v 0.3767211 0.5 -0.2175
v 0.1125863 0.5 -0.4201777
v 0.1125863 0.5 0.4201777
v -5.233858E-14 0.5 -0.435
v -5.233858E-14 0.5 0.435
v -0.1125863 0.5 -0.4201777
v -0.1125863 0.5 0.4201777
v -0.2175 0.5 -0.3767211
v -0.2175 0.5 0.3767211
v -0.3075914 0.5 -0.3075914
v -0.3075914 0.5 0.3075914
v -0.3767211 0.5 -0.2175
v -0.3767211 0.5 0.2175
v -0.4201777 0.5 -0.1125863
v -0.4201777 0.5 0.1125863
v -0.435 0.5 0

vn -0.7071068 0 0.7071068
vn -0.6087614 0 0.7933533
vn 0.1305262 0 0.9914449
vn 0.258819 0 0.9659258
vn 0.3826834 0 0.9238795
vn 0.7071068 0 -0.7071068
vn 0.7933533 0 -0.6087614
vn 0.9659258 0 0.258819
vn 0.9238795 0 0.3826834
vn -0.9659258 0 -0.258819
vn -0.9914449 0 -0.1305262
vn -0.3826834 0 -0.9238795
vn -0.258819 0 -0.9659258
vn 0.6087614 0 -0.7933533
vn -0.7933533 0 0.6087614
vn 0.9914449 0 0.1305262
vn -0.7614892 0.4762832 -0.4396459
vn -0.8493308 0.4762832 -0.2275775
vn -0.9238795 0 -0.3826834
vn 0.4396459 0.4762832 0.7614892
vn 0.6217533 0.4762832 0.6217533
vn -0.1305262 0 -0.9914449
vn -1 0 0
vn 0 0 1
vn 0.9659258 0 -0.258819
vn 1 0 0
vn 0.5 0 0.8660254
vn 0.8660254 0 0.5
vn 0.7071068 0 0.7071068
vn -0.5 0 0.8660254
vn 0 0 -1
vn 0.879292 0.4762832 0
vn 0.8493308 0.4762832 0.2275775
vn -0.2275775 0.4762832 0.8493308
vn 0 0.4762832 0.879292
vn 0.8660254 0 -0.5
vn 0 -1 0
vn -0.258819 0 0.9659258
vn -0.7614892 0.4762832 0.4396459
vn -0.6217533 0.4762832 0.6217533
vn -0.4396459 0.4762832 -0.7614892
vn -0.2275775 0.4762832 -0.8493308
vn 0.5 0 -0.8660254
vn 0.258819 0 -0.9659258
vn -0.8660254 0 0.5
vn 0 0.4762832 -0.879292
vn 0.2275775 0.4762832 -0.8493308
vn -0.6217533 0.4762832 -0.6217533
vn 0.2275775 0.4762832 0.8493308
vn 0.7614892 0.4762832 -0.4396459
vn 0.8493308 0.4762832 -0.2275775
vn 0.6217533 0.4762832 -0.6217533
vn -0.7071068 0 -0.7071068
vn -0.5 0 -0.8660254
vn -0.879292 0.4762832 0
vn -0.8493308 0.4762832 0.2275775
vn -0.4396459 0.4762832 0.7614892
vn -0.9659258 0 0.258819
vn 0.4396459 0.4762832 -0.7614892
vn -0.8660254 0 -0.5
vn 0.7614892 0.4762832 0.4396459
vn 0.8432718 0 0.5374875
vn 0.461551 0 -0.8871137
vn 0.6087614 0 0.7933533
vn 0.5374875 0 0.8432718
vn 0 1 0
vn -0.8871137 0 0.461551
vn 0.1305262 0 -0.9914449
vn 0.04384197 0 -0.9990385
vn -0.3826834 0 0.9238795
vn -0.461551 0 0.8871137
vn 0.7933533 0 0.6087614
vn -0.04384197 0 0.9990385
vn -0.6087614 0 -0.7933533
vn -0.5374875 0 -0.8432718
vn 0.8871137 0 -0.461551
vn -0.8432718 0 -0.5374875
vn 0.9914449 0 -0.1305262
vn 0.9990385 0 -0.04384197
vn -0.9238795 0 0.3826834
vn 0.9238795 0 -0.3826834
vn -0.9914449 0 0.1305262
vn -0.9990385 0 0.04384197
vn -0.7933533 0 -0.6087614
vn 0.3826834 0 -0.9238795
vn -0.1305262 0 0.9914449

vt -2.235389 12.59842
vt -2.235389 16.14173
vt 2.235389 12.59842
vt 2.235389 16.14173
vt -2.569413 -2.296803
vt -2.235389 3.065775
vt 2.569413 -2.296803
vt 2.235389 3.065775
vt -2.569413 8.816668E-13
vt -2.569413 7.874016
vt 2.569413 8.461397E-13
vt 2.569413 7.874016
vt -2.569413 7.554657E-13
vt 2.569413 9.721813E-13
vt 2.569413 8.520575E-13
vt -2.569413 8.804792E-13
vt -2.569413 7.569799E-13
vt 2.569413 9.701428E-13
vt 2.569413 9.358518E-13
vt -2.569413 7.972959E-13
vt -2.569413 7.717847E-13
vt 2.569413 9.565258E-13
vt 2.569413 7.544376E-13
vt -2.569413 9.782585E-13
vt 2.569413 7.972959E-13
vt -2.569413 9.358518E-13
vt 19.68504 0
vt 19.01429 -5.094863
vt 19.01429 5.094863
vt 17.04774 9.84252
vt 17.04774 -9.84252
vt 13.91943 13.91943
vt 13.91943 -13.91943
vt 9.84252 17.04774
vt 9.84252 -17.04774
vt 5.094863 19.01429
vt 5.094863 -19.01429
vt 2.700062E-13 -19.68504
vt 2.700062E-13 19.68504
vt -5.094863 19.01429
vt -5.094863 -19.01429
vt -9.84252 17.04774
vt -9.84252 -17.04774
vt -13.91943 13.91943
vt -13.91943 -13.91943
vt -17.04774 9.84252
vt -17.04774 -9.84252
vt -19.01429 5.094863
vt -19.01429 -5.094863
vt -19.68504 0
vt -2.569413 7.544376E-13
vt 2.569413 9.782585E-13
vt 2.569413 7.771985E-13
vt -2.569413 9.548342E-13
vt 2.569413 7.569799E-13
vt -2.569413 9.701428E-13
vt -2.569413 7.978725E-13
vt 2.569413 9.293229E-13
vt 2.569413 7.717847E-13
vt -2.569413 9.565258E-13
vt -2.569413 7.635815E-13
vt 2.569413 9.696389E-13
vt 2.569413 7.554657E-13
vt -2.569413 9.721813E-13
vt 2.569413 8.244554E-13
vt -2.569413 9.097204E-13
vt -2.569413 8.461397E-13
vt 2.569413 8.816668E-13
vt 2.569413 8.804792E-13
vt -2.569413 8.520575E-13
vt 2.569413 7.635815E-13
vt -2.569413 9.696389E-13
vt -2.569413 9.293229E-13
vt 2.569413 7.978725E-13
vt -2.569413 9.092689E-13
vt 2.569413 8.240038E-13
vt -2.569413 8.240038E-13
vt 2.569413 9.092689E-13
vt -2.569413 7.771985E-13
vt 2.569413 9.548342E-13
vt 2.569413 9.097204E-13
vt -2.569413 8.244554E-13
vt 2.235389 19.68504
vt -2.235389 19.68504
vt -17.12598 -2.475689E-29
vt -16.54243 4.432531
vt -16.54243 -4.432531
vt -14.83154 -8.562992
vt -14.83154 8.562992
vt -12.1099 -12.1099
vt -12.1099 12.1099
vt -8.562992 -14.83154
vt -8.562992 14.83154
vt -4.432531 -16.54243
vt -4.432531 16.54243
vt 1.201262E-12 -17.12598
vt 1.201262E-12 17.12598
vt 4.432531 -16.54243
vt 4.432531 16.54243
vt 8.562992 -14.83154
vt 8.562992 14.83154
vt 12.1099 -12.1099
vt 12.1099 12.1099
vt 14.83154 -8.562992
vt 14.83154 8.562992
vt 16.54243 -4.432531
vt 16.54243 4.432531
vt 17.12598 -2.475689E-29

usemtl red

f 3/3/2 2/2/1 1/1/1
f 2/2/1 3/3/2 4/4/2
f 7/3/4 6/2/3 5/1/3
f 6/2/3 7/3/4 8/4/4
f 9/3/5 8/2/4 7/1/4
f 8/2/4 9/3/5 10/4/5
f 13/2/7 12/3/6 11/4/6
f 12/3/6 13/2/7 14/1/7
f 17/2/9 16/3/8 15/4/8
f 16/3/8 17/2/9 18/1/9
f 21/3/11 20/2/10 19/1/10
f 20/2/10 21/3/11 22/4/11
f 25/4/12 24/1/13 23/3/12
f 24/1/13 25/4/12 26/2/13
f 28/4/14 12/1/6 27/3/14
f 12/1/6 28/4/14 11/2/6
f 1/3/1 30/2/15 29/1/15
f 30/2/15 1/3/1 2/4/1
f 15/2/8 32/3/16 31/4/16
f 32/3/16 15/2/8 16/1/8
f 35/7/18 34/6/17 33/5/17
f 34/6/17 35/7/18 19/8/18
f 19/3/10 36/2/19 34/1/19
f 36/2/19 19/3/10 20/4/10
f 38/7/21 9/6/20 37/5/20
f 9/6/20 38/7/21 39/8/21
f 26/4/13 40/1/22 24/3/13
f 40/1/22 26/4/13 41/2/22
f 43/11/23 35/10/10 42/9/10
f 35/10/10 43/11/23 44/12/23
f 47/14/4 46/10/24 45/13/24
f 46/10/24 47/14/4 48/12/4
f 51/10/26 50/15/25 49/12/25
f 50/15/25 51/10/26 52/16/26
f 53/18/27 48/10/4 47/17/4
f 48/10/4 53/18/27 37/12/27
f 38/10/29 55/19/28 54/12/28
f 55/19/28 38/10/29 56/20/29
f 59/22/30 58/10/1 57/21/1
f 58/10/1 59/22/30 60/12/30
f 63/12/13 62/24/31 61/23/13
f 62/24/31 63/12/13 64/10/31
f 16/6/33 51/7/32 32/8/32
f 51/7/32 16/6/33 65/5/33
f 46/7/35 67/6/34 66/5/34
f 67/6/34 46/7/35 5/8/35
f 70/10/36 69/25/6 68/12/6
f 69/25/6 70/10/36 71/26/36
f 72/29/37 50/28/37 52/27/37
f 50/28/37 72/29/37 55/30/37
f 50/28/37 55/30/37 71/31/37
f 71/31/37 55/30/37 56/32/37
f 71/31/37 56/32/37 69/33/37
f 69/33/37 56/32/37 53/34/37
f 69/33/37 53/34/37 73/35/37
f 73/35/37 53/34/37 47/36/37
f 73/35/37 47/36/37 74/37/37
f 74/37/37 47/36/37 62/38/37
f 62/38/37 47/36/37 45/39/37
f 62/38/37 45/39/37 75/40/37
f 62/38/37 75/40/37 61/41/37
f 61/41/37 75/40/37 59/42/37
f 61/41/37 59/42/37 76/43/37
f 76/43/37 59/42/37 57/44/37
f 76/43/37 57/44/37 77/45/37
f 77/45/37 57/44/37 78/46/37
f 77/45/37 78/46/37 79/47/37
f 79/47/37 78/46/37 80/48/37
f 79/47/37 80/48/37 42/49/37
f 42/49/37 80/48/37 43/50/37
f 45/52/24 66/10/38 75/51/38
f 66/10/38 45/52/24 46/12/24
f 81/5/39 1/8/40 29/6/39
f 1/8/40 81/5/39 58/7/40
f 23/8/41 63/5/42 82/7/41
f 63/5/42 23/8/41 24/6/42
f 83/12/43 69/54/6 73/53/43
f 69/54/6 83/12/43 68/10/6
f 84/12/44 73/56/43 74/55/44
f 73/56/43 84/12/44 83/10/43
f 57/58/1 81/10/45 78/57/45
f 81/10/45 57/58/1 58/12/1
f 40/8/46 84/5/47 64/7/46
f 84/5/47 40/8/46 85/6/47
f 33/7/17 87/6/48 86/5/48
f 87/6/48 33/7/17 34/8/17
f 48/7/49 5/6/35 46/5/35
f 5/6/35 48/7/49 7/8/49
f 14/8/50 49/5/51 70/7/50
f 49/5/51 14/8/50 88/6/51
f 12/8/52 70/5/50 68/7/52
f 70/5/50 12/8/52 14/6/50
f 86/12/53 76/60/54 77/59/53
f 76/60/54 86/12/53 82/10/54
f 75/62/38 60/10/30 59/61/30
f 60/10/30 75/62/38 66/12/38
f 89/7/56 21/6/55 44/5/55
f 21/6/55 89/7/56 90/8/56
f 64/12/31 74/64/44 62/63/31
f 74/64/44 64/12/31 84/10/44
f 49/10/25 71/65/36 70/12/36
f 71/65/36 49/10/25 50/66/25
f 44/7/55 19/6/18 35/5/18
f 19/6/18 44/7/55 21/8/55
f 60/7/57 1/6/40 58/5/40
f 1/6/40 60/7/57 3/8/57
f 80/68/58 44/10/23 43/67/23
f 44/10/23 80/68/58 89/12/58
f 24/8/42 64/5/46 63/7/42
f 64/5/46 24/8/42 40/6/46
f 88/8/51 51/5/32 49/7/51
f 51/5/32 88/8/51 32/6/32
f 65/10/8 52/69/26 51/12/26
f 52/69/26 65/10/8 72/70/8
f 82/12/54 61/72/13 76/71/54
f 61/72/13 82/12/54 63/10/13
f 85/8/47 83/5/59 84/7/47
f 83/5/59 85/8/47 27/6/59
f 79/74/60 86/10/53 77/73/53
f 86/10/53 79/74/60 33/12/60
f 42/76/10 33/10/60 79/75/60
f 33/10/60 42/76/10 35/12/10
f 89/5/56 29/8/39 90/6/56
f 29/8/39 89/5/56 81/7/39
f 66/7/34 3/6/57 60/5/57
f 3/6/57 66/7/34 67/8/34
f 39/6/21 54/7/61 18/8/61
f 54/7/61 39/6/21 38/5/21
f 78/78/45 89/10/58 80/77/58
f 89/10/58 78/78/45 81/12/45
f 56/80/29 37/10/27 53/79/27
f 37/10/27 56/80/29 38/12/29
f 87/8/48 82/5/41 86/7/48
f 82/5/41 87/8/48 23/6/41
f 37/7/20 7/6/49 48/5/49
f 7/6/49 37/7/20 9/8/20
f 27/8/59 68/5/52 83/7/59
f 68/5/52 27/8/59 12/6/52
f 18/6/61 65/7/33 16/8/33
f 65/7/33 18/6/61 54/5/61
f 54/10/28 72/81/8 65/12/8
f 72/81/8 54/10/28 55/82/28

usemtl stone

f 92/84/28 15/4/8 91/83/8
f 15/4/8 92/84/28 17/2/62
f 93/83/43 11/2/6 28/4/63
f 11/2/6 93/83/43 94/84/6
f 39/3/29 10/2/65 9/1/64
f 10/2/65 39/3/29 95/83/29
f 10/2/65 95/83/29 96/84/27
f 98/87/66 91/86/66 97/85/66
f 91/86/66 98/87/66 99/88/66
f 91/86/66 99/88/66 92/89/66
f 92/89/66 99/88/66 94/90/66
f 92/89/66 94/90/66 95/91/66
f 95/91/66 94/90/66 93/92/66
f 95/91/66 93/92/66 96/93/66
f 96/93/66 93/92/66 100/94/66
f 96/93/66 100/94/66 101/95/66
f 101/95/66 100/94/66 102/96/66
f 101/95/66 102/96/66 103/97/66
f 103/97/66 102/96/66 104/98/66
f 103/97/66 104/98/66 105/99/66
f 105/99/66 104/98/66 106/100/66
f 105/99/66 106/100/66 107/101/66
f 107/101/66 106/100/66 108/102/66
f 107/101/66 108/102/66 109/103/66
f 109/103/66 108/102/66 110/104/66
f 109/103/66 110/104/66 111/105/66
f 111/105/66 110/104/66 112/106/66
f 111/105/66 112/106/66 113/107/66
f 113/107/66 112/106/66 114/108/66
f 2/4/1 111/84/45 30/2/67
f 111/84/45 2/4/1 109/83/1
f 41/4/69 85/1/44 40/3/68
f 85/1/44 41/4/69 100/84/44
f 100/84/44 41/4/69 102/83/31
f 67/3/38 4/2/71 3/1/70
f 4/2/71 67/3/38 105/83/38
f 4/2/71 105/83/38 107/84/30
f 95/84/29 17/4/62 92/83/28
f 17/4/62 95/84/29 18/3/72
f 18/3/72 95/84/29 39/1/29
f 8/4/4 103/84/24 6/2/73
f 103/84/24 8/4/4 101/83/4
f 108/83/53 23/1/74 87/3/53
f 23/1/74 108/83/53 25/2/75
f 25/2/75 108/83/53 106/84/54
f 99/84/36 11/4/6 94/83/6
f 11/4/6 99/84/36 13/2/76
f 104/83/13 41/2/69 26/4/13
f 41/2/69 104/83/13 102/84/31
f 20/4/10 110/84/60 36/2/77
f 110/84/60 20/4/10 112/83/10
f 97/84/26 88/3/25 98/83/25
f 88/3/25 97/84/26 32/1/78
f 32/1/78 97/84/26 31/2/79
f 29/3/80 113/84/58 90/1/58
f 113/84/58 29/3/80 111/83/45
f 111/83/45 29/3/80 30/4/67
f 10/4/65 101/84/4 8/2/4
f 101/84/4 10/4/65 96/83/27
f 98/84/25 13/4/76 99/83/36
f 13/4/76 98/84/25 14/3/81
f 14/3/81 98/84/25 88/1/25
f 106/83/54 26/2/13 25/4/75
f 26/2/13 106/83/54 104/84/13
f 91/84/8 31/4/79 97/83/26
f 31/4/79 91/84/8 15/2/8
f 4/4/71 109/84/1 2/2/1
f 109/84/1 4/4/71 107/83/30
f 90/3/58 22/2/83 21/1/82
f 22/2/83 90/3/58 114/84/23
f 114/84/23 90/3/58 113/83/58
f 22/4/83 112/84/10 20/2/10
f 112/84/10 22/4/83 114/83/23
f 34/3/84 108/84/53 87/1/53
f 108/84/53 34/3/84 110/83/60
f 110/83/60 34/3/84 36/4/77
f 100/83/44 27/1/85 85/3/44
f 27/1/85 100/83/44 28/2/63
f 28/2/63 100/83/44 93/84/43
f 5/3/86 105/84/38 67/1/38
f 105/84/38 5/3/86 6/4/73
f 105/84/38 6/4/73 103/83/24

