# Created by Kenney (www.kenney.nl)

mtllib towerSquare_topC.mtl

g towerSquare_topC

v 0.5 0.3 -0.5
v -0.1501102 0.4 -0.5
v -0.5 0.3 -0.5
v -0.5 0.5 -0.5
v -0.1501102 0.5 -0.5
v 0.1501102 0.4 -0.5
v 0.5 0.5 -0.5
v 0.1501102 0.5 -0.5
v 0.435 0 0.435
v -0.435 0 0.435
v 0.435 0.18 0.435
v -0.435 0.18 0.435
v 0.435 0.18 -0.435
v 0.435 0 -0.435
v -0.5 0.3 0.5
v 0.1501102 0.4 0.5
v 0.5 0.3 0.5
v 0.5 0.5 0.5
v 0.1501102 0.5 0.5
v -0.1501102 0.4 0.5
v -0.5 0.5 0.5
v -0.1501102 0.5 0.5
v -0.435 0 -0.435
v -0.435 0.18 -0.435
v -0.5 0.4 -0.1501102
v -0.5 0.4 0.1501102
v -0.5 0.5 0.1501102
v -0.5 0.5 -0.1501102
v 0.5 0.5 0.1501102
v 0.5 0.4 0.1501102
v 0.5 0.4 -0.1501102
v 0.5 0.5 -0.1501102
v 0.3002204 0.33 0.3002204
v -0.1501102 0.4 0.3002204
v -0.3002204 0.33 0.3002204
v -0.3002204 0.5 0.3002204
v -0.1501102 0.5 0.3002204
v 0.1501102 0.4 0.3002204
v 0.3002204 0.5 0.3002204
v 0.1501102 0.5 0.3002204
v 0.3002204 0.5 -0.3002204
v 0.3002204 0.4 -0.1501102
v 0.3002204 0.33 -0.3002204
v 0.3002204 0.4 0.1501102
v 0.3002204 0.5 0.1501102
v 0.3002204 0.5 -0.1501102
v -0.3002204 0.33 -0.3002204
v 0.1501102 0.4 -0.3002204
v 0.1501102 0.5 -0.3002204
v -0.1501102 0.4 -0.3002204
v -0.3002204 0.5 -0.3002204
v -0.1501102 0.5 -0.3002204
v -0.3002204 0.5 0.1501102
v -0.3002204 0.4 0.1501102
v -0.3002204 0.4 -0.1501102
v -0.3002204 0.5 -0.1501102
v 0.1993826 0.33 -0.1993826
v 0.1993826 0.33 0.1993826
v -0.1993826 0.33 -0.1993826
v -0.1993826 0.33 0.1993826

vn 0 0 -1
vn 0 0 1
vn 1 0 0
vn 0.879292 -0.4762832 0
vn -0.879292 -0.4762832 0
vn -1 0 0
vn 0 -1 0
vn 0 -0.4762832 0.879292
vn 0 -0.4762832 -0.879292
vn 0 1 0

vt -19.68504 11.81102
vt 5.90985 15.74803
vt 19.68504 11.81102
vt 19.68504 19.68504
vt 5.90985 19.68504
vt -5.90985 15.74803
vt -19.68504 19.68504
vt -5.90985 19.68504
vt 17.12598 0
vt -17.12598 0
vt 17.12598 7.086614
vt -17.12598 7.086614
vt 19.68504 19.76099
vt 17.12598 14.38802
vt -19.68504 19.76099
vt -17.12598 14.38802
vt 17.12598 17.12598
vt 17.12598 -17.12598
vt -17.12598 17.12598
vt -17.12598 -17.12598
vt -11.8197 12.99213
vt 11.8197 12.99213
vt 11.8197 19.68504
vt -11.8197 19.68504
vt -11.8197 -11.8197
vt -19.68504 -5.90985
vt -11.8197 -5.90985
vt -5.90985 -19.68504
vt -19.68504 -19.68504
vt -5.90985 -11.8197
vt 5.90985 -19.68504
vt 5.90985 -11.8197
vt 19.68504 -19.68504
vt 11.8197 -11.8197
vt 11.8197 -5.90985
vt 19.68504 -5.90985
vt -19.68504 5.90985
vt -11.8197 5.90985
vt -11.8197 11.8197
vt -5.90985 11.8197
vt 11.8197 5.90985
vt 11.8197 11.8197
vt 19.68504 5.90985
vt 5.90985 11.8197
vt -11.8197 15.74803
vt -19.68504 15.74803
vt 19.68504 15.74803
vt 11.8197 15.74803
vt -7.84971 -7.84971
vt -7.84971 7.84971
vt 7.84971 -7.84971
vt 7.84971 7.84971

usemtl stone

f 3/3/1 2/2/1 1/1/1
f 2/2/1 3/3/1 4/4/1
f 2/2/1 4/4/1 5/5/1
f 6/6/1 1/1/1 2/2/1
f 1/1/1 6/6/1 7/7/1
f 7/7/1 6/6/1 8/8/1
f 11/11/2 10/10/2 9/9/2
f 10/10/2 11/11/2 12/12/2
f 11/12/3 14/9/3 13/11/3
f 14/9/3 11/12/3 9/10/3
f 17/3/2 16/2/2 15/1/2
f 16/2/2 17/3/2 18/4/2
f 16/2/2 18/4/2 19/5/2
f 20/6/2 15/1/2 16/2/2
f 15/1/2 20/6/2 21/7/2
f 21/7/2 20/6/2 22/8/2
f 17/15/4 13/14/4 1/13/4
f 13/14/4 17/15/4 11/16/4
f 24/11/1 14/10/1 23/9/1
f 14/10/1 24/11/1 13/12/1
f 24/16/5 15/13/5 3/15/5
f 15/13/5 24/16/5 12/14/5
f 3/1/6 25/6/6 4/7/6
f 25/6/6 3/1/6 15/3/6
f 25/6/6 15/3/6 26/2/6
f 26/2/6 15/3/6 27/5/6
f 27/5/6 15/3/6 21/4/6
f 28/8/6 4/7/6 25/6/6
f 10/19/7 14/18/7 9/17/7
f 14/18/7 10/19/7 23/20/7
f 18/7/3 30/6/3 29/8/3
f 17/1/3 30/6/3 18/7/3
f 17/1/3 31/2/3 30/6/3
f 1/3/3 31/2/3 17/1/3
f 1/3/3 32/5/3 31/2/3
f 32/5/3 1/3/3 7/4/3
f 17/13/8 12/16/8 11/14/8
f 12/16/8 17/13/8 15/15/8
f 3/13/9 13/16/9 24/14/9
f 13/16/9 3/13/9 1/15/9
f 10/9/6 24/12/6 23/10/6
f 24/12/6 10/9/6 12/11/6
f 35/22/1 34/2/1 33/21/1
f 34/2/1 35/22/1 36/23/1
f 34/2/1 36/23/1 37/5/1
f 38/6/1 33/21/1 34/2/1
f 33/21/1 38/6/1 39/24/1
f 39/24/1 38/6/1 40/8/1
f 43/21/6 42/6/6 41/24/6
f 42/6/6 43/21/6 33/22/6
f 42/6/6 33/22/6 44/2/6
f 44/2/6 33/22/6 45/5/6
f 45/5/6 33/22/6 39/23/6
f 46/8/6 41/24/6 42/6/6
f 43/22/2 48/2/2 47/21/2
f 48/2/2 43/22/2 41/23/2
f 48/2/2 41/23/2 49/5/2
f 50/6/2 47/21/2 48/2/2
f 47/21/2 50/6/2 51/24/2
f 51/24/2 50/6/2 52/8/2
f 36/24/3 54/6/3 53/8/3
f 35/21/3 54/6/3 36/24/3
f 35/21/3 55/2/3 54/6/3
f 47/22/3 55/2/3 35/21/3
f 47/22/3 56/5/3 55/2/3
f 56/5/3 47/22/3 51/23/3
f 46/27/10 32/26/10 41/25/10
f 32/26/10 8/28/10 41/25/10
f 8/28/10 32/26/10 7/29/10
f 41/25/10 8/28/10 49/30/10
f 4/33/10 52/32/10 5/31/10
f 52/32/10 4/33/10 51/34/10
f 51/34/10 4/33/10 56/35/10
f 56/35/10 4/33/10 28/36/10
f 45/38/10 18/7/10 29/37/10
f 18/7/10 45/38/10 39/39/10
f 18/7/10 39/39/10 19/8/10
f 19/8/10 39/39/10 40/40/10
f 27/43/10 36/42/10 53/41/10
f 21/4/10 36/42/10 27/43/10
f 22/5/10 36/42/10 21/4/10
f 36/42/10 22/5/10 37/44/10
f 25/36/10 54/41/10 55/35/10
f 54/41/10 25/36/10 26/43/10
f 56/24/2 25/46/2 55/45/2
f 25/46/2 56/24/2 28/7/2
f 27/4/1 54/48/1 26/47/1
f 54/48/1 27/4/1 53/23/1
f 2/31/10 48/30/10 6/28/10
f 48/30/10 2/31/10 50/32/10
f 52/23/3 2/47/3 5/4/3
f 2/47/3 52/23/3 50/48/3
f 48/45/6 8/7/6 6/46/6
f 8/7/6 48/45/6 49/24/6
f 42/27/10 30/37/10 31/26/10
f 30/37/10 42/27/10 44/38/10
f 45/24/1 30/46/1 44/45/1
f 30/46/1 45/24/1 29/7/1
f 32/4/2 42/48/2 31/47/2
f 42/48/2 32/4/2 46/23/2
f 34/44/10 16/8/10 38/40/10
f 16/8/10 34/44/10 20/5/10
f 22/7/3 34/45/3 37/24/3
f 34/45/3 22/7/3 20/46/3
f 16/47/6 40/23/6 38/48/6
f 40/23/6 16/47/6 19/4/6
f 59/51/10 58/50/10 57/49/10
f 58/50/10 59/51/10 60/52/10

usemtl stoneDark

f 43/25/10 57/49/10 33/39/10
f 57/49/10 43/25/10 47/34/10
f 57/49/10 47/34/10 59/51/10
f 59/51/10 47/34/10 60/52/10
f 58/50/10 33/39/10 57/49/10
f 33/39/10 58/50/10 35/42/10
f 35/42/10 58/50/10 60/52/10
f 35/42/10 60/52/10 47/34/10

