# Created by Kenney (www.kenney.nl)

mtllib towerRound_topC.mtl

g towerRound_topC

v 0.07679936 0.3 -0.2866191
v 1.443823E-15 0.3 -0.29673
v 0.07679936 0.4 -0.2866191
v 3.970513E-15 0.4 -0.29673
v -0.2098197 0.4 -0.2098197
v -0.2098197 0.3 -0.2098197
v -0.2569757 0.4 -0.148365
v -0.2569757 0.3 -0.148365
v -0.2866191 0.4 -0.07679936
v -0.2866191 0.3 -0.07679936
v -0.29673 0.4 0
v -0.29673 0.3 0
v -0.148365 0.3 0.2569757
v -0.148365 0.4 0.2569757
v -0.2098197 0.3 0.2098197
v -0.2098197 0.4 0.2098197
v 1.443823E-15 0.3 0.29673
v 3.970513E-15 0.4 0.29673
v -0.07679936 0.3 0.2866191
v -0.07679936 0.4 0.2866191
v 0.148365 0.3 -0.2569757
v 0.148365 0.4 -0.2569757
v 0.1978059 0.3 0
v 0.1910658 0.3 0.05119592
v 0.1910658 0.3 -0.05119592
v 0.1713049 0.3 -0.09890293
v 0.1713049 0.3 0.09890293
v 0.1398699 0.3 -0.1398699
v 0.1398699 0.3 0.1398699
v 0.09890293 0.3 -0.1713049
v 0.09890293 0.3 0.1713049
v 0.05119592 0.3 -0.1910658
v 0.05119592 0.3 0.1910658
v 1.082867E-15 0.3 0.1978059
v 1.082867E-15 0.3 -0.1978059
v -0.05119592 0.3 -0.1910658
v -0.05119592 0.3 0.1910658
v -0.09890293 0.3 -0.1713049
v -0.09890293 0.3 0.1713049
v -0.1398699 0.3 -0.1398699
v -0.1398699 0.3 0.1398699
v -0.1713049 0.3 0.09890293
v -0.1713049 0.3 -0.09890293
v -0.1910658 0.3 -0.05119592
v -0.1910658 0.3 0.05119592
v -0.1978059 0.3 0
v 0.2866191 0.3 0.07679936
v 0.2866191 0.4 0.07679936
v 0.2569757 0.3 0.148365
v 0.2569757 0.4 0.148365
v 0.2098197 0.3 0.2098197
v 0.2098197 0.4 0.2098197
v 0.29673 0.3 0
v 0.29673 0.4 0
v 0.2098197 0.3 -0.2098197
v 0.2098197 0.4 -0.2098197
v 0.3075914 5.414335E-15 -0.3075914
v 0.3075914 0.09 -0.3075914
v 0.2175 9.384848E-15 -0.3767211
v 0.2175 0.09 -0.3767211
v -0.2098197 0.5 0.2098197
v -0.3535534 0.5 0.3535534
v -0.3535534 0.4 0.3535534
v 6.858159E-15 0.5 -0.5
v 3.970513E-15 0.4 -0.5
v 8.301981E-15 0.5 -0.29673
v 0.5 0.5 0
v 0.29673 0.5 0
v 0.4829629 0.5 -0.1294095
v 0.4330127 0.5 -0.25
v 0.3535534 0.5 -0.3535534
v 0.2866191 0.5 -0.07679936
v 0.2569757 0.5 -0.148365
v 0.2098197 0.5 -0.2098197
v -0.29673 0.5 0
v -0.5 0.4 0
v -0.5 0.5 0
v 0.2098197 0.5 0.2098197
v 0.3535534 0.5 0.3535534
v 0.3535534 0.4 0.3535534
v -0.07679936 0.3 -0.2866191
v -0.148365 0.3 -0.2569757
v -0.07679936 0.5 -0.2866191
v -0.148365 0.5 -0.2569757
v -0.2098197 0.5 -0.2098197
v -0.3767211 3.537366E-14 -0.2175
v -0.3767211 0.09 -0.2175
v -0.4201777 3.717844E-14 -0.1125863
v -0.4201777 0.09 -0.1125863
v -0.1294095 0.5 -0.4829629
v -0.25 0.5 -0.4330127
v -0.3535534 0.5 -0.3535534
v 0.25 0.5 0.4330127
v 0.1294095 0.5 0.4829629
v 0.148365 0.5 0.2569757
v 0.07679936 0.5 0.2866191
v 6.858159E-15 0.5 0.5
v 6.858159E-15 0.5 0.29673
v 3.970513E-15 0.4 0.5
v -0.3535534 0.4 -0.3535534
v -0.4330127 0.4 -0.25
v -0.4829629 0.4 -0.1294095
v -0.4201777 3.717844E-14 0.1125863
v -0.4201777 0.18 0.1125863
v -0.3767211 3.537366E-14 0.2175
v -0.3767211 0.18 0.2175
v -0.3767211 0.09 0.2175
v -0.2569757 0.5 0.148365
v -0.2866191 0.5 0.07679936
v -0.4330127 0.5 0.25
v -0.4829629 0.5 0.1294095
v 0.3535534 0.4 -0.3535534
v 0.25 0.4 -0.4330127
v 0.1294095 0.4 -0.4829629
v 0.3075914 5.414335E-15 0.3075914
v 0.2175 9.384848E-15 0.3767211
v 0.3075914 0.18 0.3075914
v 0.2175 0.09 0.3767211
v 0.2175 0.18 0.3767211
v -0.1294095 0.4 0.4829629
v -0.25 0.4 0.4330127
v 0.5 0.4 0
v -0.2866191 0.3 0.07679936
v 0.4829629 0.4 0.1294095
v 0.4330127 0.4 0.25
v 0.2569757 0.3 -0.148365
v 0.2866191 0.3 -0.07679936
v -0.2569757 0.3 0.148365
v 0.07679936 0.3 0.2866191
v 0.148365 0.3 0.2569757
v 0.3535534 0.3 0.3535534
v 0.25 0.3 0.4330127
v -0.4330127 0.3 0.25
v -0.3535534 0.3 0.3535534
v -0.2175 2.85155E-14 0.3767211
v -0.3075914 3.212506E-14 0.3075914
v -0.2175 0.09 0.3767211
v -0.3075914 0.09 0.3075914
v 0.435 0 0
v 0.4201777 3.609557E-16 -0.1125863
v 0.4201777 3.609557E-16 0.1125863
v 0.3767211 2.52669E-15 0.2175
v 0.3767211 2.52669E-15 -0.2175
v 0.1125863 1.407727E-14 0.4201777
v 0.1125863 1.407727E-14 -0.4201777
v -5.233858E-14 1.87697E-14 0.435
v -5.233858E-14 1.87697E-14 -0.435
v -0.1125863 2.382308E-14 0.4201777
v -0.1125863 2.382308E-14 -0.4201777
v -0.2175 2.85155E-14 -0.3767211
v -0.3075914 3.212506E-14 -0.3075914
v -0.435 3.790035E-14 0
v -0.1125863 0.09 -0.4201777
v -0.2175 0.09 -0.3767211
v -3.356888E-14 0.09 -0.435
v 0.3535534 0.3 -0.3535534
v 0.25 0.3 -0.4330127
v 0.3767211 0.09 -0.2175
v 0.1294095 0.3 0.4829629
v -1.046772E-14 0.3 -0.5
v -0.1294095 0.3 -0.4829629
v -3.356888E-14 0.09 0.435
v -0.1125863 0.18 0.4201777
v -1.624301E-14 0.18 0.435
v -0.2175 0.18 0.3767211
v 0.1125863 0.18 -0.4201777
v -1.624301E-14 0.18 -0.435
v 0.4829629 0.3 0.1294095
v 0.4330127 0.3 0.25
v 0.1294095 0.3 -0.4829629
v 0.4201777 0.09 0.1125863
v 0.3767211 0.09 0.2175
v 0.3767211 0.18 -0.2175
v 0.4201777 0.18 -0.1125863
v -1.046772E-14 0.3 0.5
v -0.25 0.3 -0.4330127
v -0.3535534 0.3 -0.3535534
v 0.1125863 0.09 0.4201777
v -0.3075914 0.18 -0.3075914
v -0.2175 0.18 -0.3767211
v 0.2175 0.18 -0.3767211
v -0.5 0.3 0
v -0.4829629 0.3 0.1294095
v -0.4330127 0.3 -0.25
v -0.4829629 0.3 -0.1294095
v -0.1294095 0.3 0.4829629
v 0.5 0.3 0
v 0.4330127 0.3 -0.25
v 0.4829629 0.3 -0.1294095
v 0.435 0.09 0
v 0.3767211 0.18 0.2175
v 0.435 0.18 0
v -0.435 0.09 0
v -0.435 0.18 0
v -0.25 0.3 0.4330127
v -0.3767211 0.18 -0.2175
v -0.1125863 0.18 -0.4201777
v 0.1125863 0.18 0.4201777
v -0.3075914 0.18 0.3075914
v -0.4201777 0.18 -0.1125863
v 0.3075914 0.18 -0.3075914
v 0.4201777 0.18 0.1125863

vn -0.258819 0 0.9659258
vn 0 0 1
vn 0.04384197 0 0.9990385
vn 0.6754259 0 0.7374278
vn 0.7071068 0 0.7071068
vn 0.8660254 0 0.5
vn 0.9659258 0 0.258819
vn 0.9990385 0 -0.04384197
vn 1 0 0
vn 0.5 0 -0.8660254
vn 0.7071068 0 -0.7071068
vn 0.7374278 0 -0.6754259
vn 0 0 -1
vn -0.04384197 0 -0.9990385
vn 0.258819 0 -0.9659258
vn -0.5 0 0.8660254
vn 0 1 0
vn -0.9659258 0 -0.258819
vn -0.8660254 0 -0.5
vn -0.7071068 0 -0.7071068
vn -0.6754259 0 -0.7374278
vn -1 0 0
vn -0.9990385 0 0.04384197
vn -0.7071068 0 0.7071068
vn -0.7374278 0 0.6754259
vn 0.461551 0 -0.8871137
vn 0.258819 0 0.9659258
vn 0.5 0 0.8660254
vn 0.6087614 0 0.7933533
vn -0.8432718 0 -0.5374875
vn -0.9659258 0 0.258819
vn -0.8660254 0 0.5
vn -0.9238795 0 0.3826834
vn -0.8871137 0 0.461551
vn 0.5374875 0 0.8432718
vn 0.1305262 0 0.9914449
vn 0.9914449 0 -0.1305262
vn 0.9659258 0 -0.258819
vn 0.8660254 0 -0.5
vn 0.7933533 0 -0.6087614
vn -0.258819 0 -0.9659258
vn -0.1305262 0 -0.9914449
vn -0.7933533 0 0.6087614
vn -0.5 0 -0.8660254
vn -0.6087614 0 -0.7933533
vn -0.9914449 0 0.1305262
vn -0.461551 0 0.8871137
vn 0 -1 0
vn -0.5374875 0 -0.8432718
vn 0.04384197 0 -0.9990385
vn 0.8871137 0 -0.461551
vn -0.04384197 0 0.9990385
vn -0.1305262 0 0.9914449
vn -0.3826834 0 0.9238795
vn 0.1305262 0 -0.9914449
vn 0.8432718 0 0.5374875
vn 0.9238795 0 -0.3826834
vn 0.3826834 0 -0.9238795
vn 0.7933533 0 0.6087614
vn -0.7933533 0 -0.6087614
vn -0.3826834 0 -0.9238795
vn -0.6087614 0 0.7933533
vn -0.9914449 0 -0.1305262
vn 0.3826834 0 0.9238795
vn 0.6087614 0 -0.7933533
vn 0.9238795 0 0.3826834
vn -0.9238795 0 -0.3826834
vn 0.9914449 0 0.1305262
vn 0.8493308 -0.4762832 -0.2275775
vn 0.879292 -0.4762832 0
vn 0.6217533 -0.4762832 -0.6217533
vn 0.4396459 -0.4762832 -0.7614892
vn -0.8493308 -0.4762832 -0.2275775
vn -0.879292 -0.4762832 0
vn -0.4396459 -0.4762832 0.7614892
vn -0.6217533 -0.4762832 0.6217533
vn 0.7614892 -0.4762832 -0.4396459
vn 0 -0.4762832 0.879292
vn -0.2275775 -0.4762832 0.8493308
vn -0.4396459 -0.4762832 -0.7614892
vn -0.6217533 -0.4762832 -0.6217533
vn 0.6217533 -0.4762832 0.6217533
vn 0.4396459 -0.4762832 0.7614892
vn 0.8493308 -0.4762832 0.2275775
vn 0.7614892 -0.4762832 0.4396459
vn 0.2275775 -0.4762832 0.8493308
vn -0.8493308 -0.4762832 0.2275775
vn -0.7614892 -0.4762832 0.4396459
vn -0.7614892 -0.4762832 -0.4396459
vn 0 -0.4762832 -0.879292
vn -0.2275775 -0.4762832 -0.8493308
vn 0.2275775 -0.4762832 -0.8493308

vt 1.524844 11.81102
vt -1.524844 11.81102
vt 1.524844 15.74803
vt -1.524844 15.74803
vt -7.787632 9.200493E-16
vt -7.522275 2.015588
vt -7.522275 -2.015588
vt -6.744287 -3.893816
vt -6.744287 3.893816
vt -5.506688 -5.506688
vt -5.506688 5.506688
vt -3.893816 -6.744287
vt -3.893816 6.744287
vt -2.015588 -7.522275
vt -2.015588 7.522275
vt 4.744767E-13 7.787632
vt 4.744767E-13 -7.787632
vt 2.015588 -7.522275
vt 2.015588 7.522275
vt 3.893816 -6.744287
vt 3.893816 6.744287
vt 5.506688 -5.506688
vt 5.506688 5.506688
vt 6.744287 3.893816
vt 6.744287 -3.893816
vt 7.522275 -2.015588
vt 7.522275 2.015588
vt 7.787632 9.200493E-16
vt -2.235389 2.286013E-12
vt -2.235389 3.543307
vt 2.235389 2.442332E-12
vt 2.235389 3.543307
vt -11.68228 19.68504
vt -11.68228 15.74803
vt -19.68504 19.68504
vt -19.68504 15.74803
vt 19.68504 19.68504
vt 19.68504 15.74803
vt 11.68228 19.68504
vt 11.68228 15.74803
vt -19.68504 1.330158E-15
vt -11.68228 1.330158E-15
vt -19.01429 -5.094863
vt -17.04774 -9.84252
vt -13.91943 -13.91943
vt -11.28422 -3.023597
vt -10.11715 -5.841141
vt -8.26062 -8.26062
vt 1.524844 19.68504
vt -1.524844 19.68504
vt -2.235389 -1.87902E-12
vt 2.235389 -1.807966E-12
vt 5.395153E-13 -11.68228
vt 3.023597 -11.28422
vt 5.963587E-13 -19.68504
vt 5.094863 -19.01429
vt 5.841141 -10.11715
vt 9.84252 -17.04774
vt 8.26062 -8.26062
vt 13.91943 -13.91943
vt -13.91943 13.91943
vt -9.84252 17.04774
vt -8.26062 8.26062
vt -5.094863 19.01429
vt -5.841141 10.11715
vt -3.023597 11.28422
vt 5.932149E-13 19.68504
vt 5.932149E-13 11.68228
vt 10.11715 -5.841141
vt 11.28422 -3.023597
vt 11.68228 -1.530717E-16
vt 19.68504 -1.530717E-16
vt 17.04774 -9.84252
vt 19.01429 -5.094863
vt -2.235389 -2.059754E-12
vt -2.235389 7.086614
vt 2.235389 -2.130809E-12
vt 2.235389 7.086614
vt 8.26062 8.26062
vt 13.91943 13.91943
vt 10.11715 5.841141
vt 11.28422 3.023597
vt 11.68228 -3.585555E-16
vt 19.68504 -3.585555E-16
vt 17.04774 9.84252
vt 19.01429 5.094863
vt -9.84252 -17.04774
vt -5.094863 -19.01429
vt -5.841141 -10.11715
vt -3.023597 -11.28422
vt 5.319998E-13 -19.68504
vt 5.319998E-13 -11.68228
vt 2.235389 2.36876E-12
vt -2.235389 2.525079E-12
vt 5.364161E-13 11.68228
vt 5.364161E-13 19.68504
vt 3.023597 11.28422
vt 5.094863 19.01429
vt 5.841141 10.11715
vt 9.84252 17.04774
vt -19.68504 -9.101993E-16
vt -19.01429 5.094863
vt -11.68228 -9.101993E-16
vt -17.04774 9.84252
vt -11.28422 3.023597
vt -10.11715 5.841141
vt 2.569413 11.81102
vt -2.569413 11.81102
vt 2.569413 15.74803
vt -2.569413 19.68504
vt 2.569413 19.68504
vt 2.235389 -9.500532E-13
vt -2.235389 -8.079447E-13
vt 17.12598 9.402713E-43
vt 16.54243 -4.432531
vt 16.54243 4.432531
vt 14.83154 8.562992
vt 14.83154 -8.562992
vt 12.1099 12.1099
vt 12.1099 -12.1099
vt 8.562992 14.83154
vt 8.562992 -14.83154
vt 4.432531 16.54243
vt 4.432531 -16.54243
vt -2.060574E-12 17.12598
vt -2.060574E-12 -17.12598
vt -4.432531 16.54243
vt -4.432531 -16.54243
vt -8.562992 14.83154
vt -8.562992 -14.83154
vt -12.1099 12.1099
vt -12.1099 -12.1099
vt -14.83154 8.562992
vt -14.83154 -8.562992
vt -16.54243 4.432531
vt -16.54243 -4.432531
vt -17.12598 9.360674E-43
vt -2.235389 -3.652304E-13
vt 2.235389 -1.804893E-13
vt -2.235389 2.946052E-13
vt 2.235389 4.935572E-13
vt -2.569413 15.74803
vt 2.235389 2.914669E-12
vt -2.235389 2.800982E-12
vt 2.235389 2.944367E-13
vt -2.235389 4.933886E-13
vt 2.235389 -3.65104E-13
vt -2.235389 -1.803629E-13
vt -2.235389 1.007513E-12
vt 2.235389 1.192254E-12
vt 2.235389 3.160036E-12
vt -2.235389 3.245302E-12
vt 2.235389 3.371163E-12
vt -2.235389 3.285898E-12
vt 2.235389 9.9862E-13
vt -2.235389 1.183361E-12
vt -2.235389 -9.498045E-13
vt 2.235389 -8.076959E-13
vt 2.235389 1.672859E-12
vt -2.235389 1.8576E-12
vt -2.235389 1.724552E-12
vt 2.235389 1.909293E-12
vt -2.235389 -1.362911E-12
vt 2.235389 -1.490809E-12
vt 2.235389 3.375722E-12
vt -2.235389 3.389933E-12
vt 2.235389 2.909196E-12
vt -2.235389 3.022883E-12
vt 2.235389 3.525062E-12
vt -2.235389 3.510851E-12
vt -2.235389 -2.288655E-12
vt 2.235389 -2.317077E-12
vt -2.235389 -2.047138E-12
vt 2.235389 -2.018717E-12
vt -2.235389 -1.598789E-12
vt 2.235389 -1.470891E-12
vt 2.569413 19.63924
vt 2.235389 14.27667
vt -2.569413 19.63924
vt -2.235389 14.27667
vt -11.68228 1.406208E-15
vt 4.602053E-13 -11.68228
vt 4.602053E-13 11.68228
vt 11.68228 1.406208E-15

usemtl stone

f 3/3/1 2/2/2 1/1/1
f 2/2/2 3/3/1 4/4/3
f 7/4/6 6/1/5 5/3/4
f 6/1/5 7/4/6 8/2/6
f 9/4/7 8/1/6 7/3/6
f 8/1/6 9/4/7 10/2/7
f 11/4/8 10/1/7 9/3/7
f 10/1/7 11/4/8 12/2/9
f 15/1/11 14/4/10 13/2/10
f 14/4/10 15/1/11 16/3/12
f 19/1/15 18/4/14 17/2/13
f 18/4/14 19/1/15 20/3/15
f 13/1/10 20/4/15 19/2/15
f 20/4/15 13/1/10 14/3/10
f 22/3/16 1/2/1 21/1/16
f 1/2/1 22/3/16 3/4/1
f 25/7/17 24/6/17 23/5/17
f 24/6/17 25/7/17 26/8/17
f 24/6/17 26/8/17 27/9/17
f 27/9/17 26/8/17 28/10/17
f 27/9/17 28/10/17 29/11/17
f 29/11/17 28/10/17 30/12/17
f 29/11/17 30/12/17 31/13/17
f 31/13/17 30/12/17 32/14/17
f 31/13/17 32/14/17 33/15/17
f 33/15/17 32/14/17 34/16/17
f 34/16/17 32/14/17 35/17/17
f 34/16/17 35/17/17 36/18/17
f 34/16/17 36/18/17 37/19/17
f 37/19/17 36/18/17 38/20/17
f 37/19/17 38/20/17 39/21/17
f 39/21/17 38/20/17 40/22/17
f 39/21/17 40/22/17 41/23/17
f 41/23/17 40/22/17 42/24/17
f 42/24/17 40/22/17 43/25/17
f 42/24/17 43/25/17 44/26/17
f 42/24/17 44/26/17 45/27/17
f 45/27/17 44/26/17 46/28/17
f 49/1/19 48/4/18 47/2/18
f 48/4/18 49/1/19 50/3/19
f 51/1/20 50/4/19 49/2/19
f 50/4/19 51/1/20 52/3/21
f 47/1/18 54/4/23 53/2/22
f 54/4/23 47/1/18 48/3/18
f 56/3/25 21/2/16 55/1/24
f 21/2/16 56/3/25 22/4/16
f 59/31/10 58/30/11 57/29/11
f 58/30/11 59/31/10 60/32/26
f 62/35/5 16/34/5 61/33/5
f 16/34/5 62/35/5 63/36/5
f 66/39/9 65/38/9 64/37/9
f 65/38/9 66/39/9 4/40/9
f 69/43/17 68/42/17 67/41/17
f 68/42/17 69/43/17 70/44/17
f 68/42/17 70/44/17 71/45/17
f 68/42/17 71/45/17 72/46/17
f 72/46/17 71/45/17 73/47/17
f 73/47/17 71/45/17 74/48/17
f 76/38/13 75/39/13 11/40/13
f 75/39/13 76/38/13 77/37/13
f 79/35/11 52/34/11 78/33/11
f 52/34/11 79/35/11 80/36/11
f 83/49/27 82/2/28 81/1/27
f 82/2/28 83/49/27 84/50/28
f 84/49/28 6/2/5 82/1/28
f 6/2/5 84/49/28 5/4/4
f 5/4/4 84/49/28 85/50/29
f 88/52/18 87/30/30 86/51/19
f 87/30/30 88/52/18 89/32/18
f 64/55/17 83/54/17 66/53/17
f 83/54/17 64/55/17 90/56/17
f 83/54/17 90/56/17 84/57/17
f 84/57/17 90/56/17 91/58/17
f 84/57/17 91/58/17 85/59/17
f 85/59/17 91/58/17 92/60/17
f 78/63/17 93/62/17 79/61/17
f 93/62/17 78/63/17 94/64/17
f 94/64/17 78/63/17 95/65/17
f 94/64/17 95/65/17 96/66/17
f 94/64/17 96/66/17 97/67/17
f 97/67/17 96/66/17 98/68/17
f 99/38/22 98/39/22 18/40/22
f 98/39/22 99/38/22 97/37/22
f 100/60/17 7/69/17 5/59/17
f 7/69/17 100/60/17 9/70/17
f 9/70/17 100/60/17 11/71/17
f 11/71/17 100/60/17 76/72/17
f 76/72/17 100/60/17 101/73/17
f 76/72/17 101/73/17 102/74/17
f 105/77/32 104/76/31 103/75/31
f 104/76/31 105/77/32 106/78/33
f 106/78/33 105/77/32 107/32/34
f 108/81/17 62/80/17 61/79/17
f 62/80/17 108/81/17 109/82/17
f 62/80/17 109/82/17 75/83/17
f 62/80/17 75/83/17 77/84/17
f 62/80/17 77/84/17 110/85/17
f 110/85/17 77/84/17 111/86/17
f 113/87/17 56/48/17 112/45/17
f 56/48/17 113/87/17 114/88/17
f 56/48/17 114/88/17 22/89/17
f 22/89/17 114/88/17 3/90/17
f 3/90/17 114/88/17 65/91/17
f 3/90/17 65/91/17 4/92/17
f 117/78/5 116/94/28 115/93/5
f 116/94/28 117/78/5 118/30/35
f 118/30/35 117/78/5 119/76/29
f 5/34/24 92/35/24 100/36/24
f 92/35/24 5/34/24 85/33/24
f 56/34/20 71/35/20 112/36/20
f 71/35/20 56/34/20 74/33/20
f 20/97/17 99/96/17 18/95/17
f 99/96/17 20/97/17 120/98/17
f 120/98/17 20/97/17 14/99/17
f 120/98/17 14/99/17 121/100/17
f 121/100/17 14/99/17 16/79/17
f 121/100/17 16/79/17 63/80/17
f 67/37/2 54/40/2 122/38/2
f 54/40/2 67/37/2 68/39/2
f 4/3/3 81/2/27 2/1/2
f 81/2/27 4/3/3 83/50/27
f 83/50/27 4/3/3 66/49/36
f 109/50/38 11/3/8 75/49/37
f 11/3/8 109/50/38 12/1/9
f 12/1/9 109/50/38 123/2/38
f 54/103/17 124/102/17 122/101/17
f 124/102/17 54/103/17 125/104/17
f 125/104/17 54/103/17 80/61/17
f 80/61/17 54/103/17 48/105/17
f 80/61/17 48/105/17 50/106/17
f 80/61/17 50/106/17 52/63/17
f 127/1/31 73/50/32 126/2/32
f 73/50/32 127/1/31 72/49/31
f 61/50/40 128/1/39 108/49/39
f 128/1/39 61/50/40 15/2/11
f 15/2/11 61/50/40 16/4/12
f 17/1/13 96/50/41 129/2/41
f 96/50/41 17/1/13 18/3/14
f 96/50/41 18/3/14 98/49/42
f 126/1/32 56/4/25 55/2/24
f 56/4/25 126/1/32 74/50/43
f 74/50/43 126/1/32 73/49/32
f 130/1/44 52/4/21 51/2/20
f 52/4/21 130/1/44 95/49/44
f 52/4/21 95/49/44 78/50/45
f 108/50/39 123/1/38 109/49/38
f 123/1/38 108/50/39 128/2/39
f 129/1/41 95/50/44 130/2/44
f 95/50/44 129/1/41 96/49/41
f 53/1/22 72/50/31 127/2/31
f 72/50/31 53/1/22 68/49/46
f 68/49/46 53/1/22 54/3/23
f 80/109/4 132/108/28 131/107/5
f 132/108/28 80/109/4 93/110/28
f 93/110/28 80/109/4 79/111/29
f 134/107/24 110/110/32 133/108/32
f 110/110/32 134/107/24 62/111/43
f 62/111/43 134/107/24 63/109/25
f 137/32/47 136/113/24 135/112/16
f 136/113/24 137/32/47 138/30/24
f 141/116/48 140/115/48 139/114/48
f 140/115/48 141/116/48 142/117/48
f 140/115/48 142/117/48 143/118/48
f 143/118/48 142/117/48 115/119/48
f 143/118/48 115/119/48 57/120/48
f 57/120/48 115/119/48 116/121/48
f 57/120/48 116/121/48 59/122/48
f 59/122/48 116/121/48 144/123/48
f 59/122/48 144/123/48 145/124/48
f 145/124/48 144/123/48 146/125/48
f 145/124/48 146/125/48 147/126/48
f 147/126/48 146/125/48 148/127/48
f 147/126/48 148/127/48 149/128/48
f 149/128/48 148/127/48 135/129/48
f 149/128/48 135/129/48 150/130/48
f 150/130/48 135/129/48 136/131/48
f 150/130/48 136/131/48 151/132/48
f 151/132/48 136/131/48 105/133/48
f 151/132/48 105/133/48 86/134/48
f 86/134/48 105/133/48 103/135/48
f 86/134/48 103/135/48 88/136/48
f 88/136/48 103/135/48 152/137/48
f 150/139/44 153/30/41 149/138/41
f 153/30/41 150/139/44 154/32/49
f 149/141/41 155/30/50 147/140/13
f 155/30/50 149/141/41 153/32/41
f 157/107/10 112/142/12 156/108/11
f 112/142/12 157/107/10 113/109/10
f 158/30/51 57/143/11 58/32/11
f 57/143/11 158/30/51 143/144/39
f 93/111/28 159/108/27 132/107/28
f 159/108/27 93/111/28 94/110/27
f 161/107/41 65/142/14 160/108/13
f 65/142/14 161/107/41 90/111/41
f 65/142/14 90/111/41 64/110/42
f 162/32/52 148/146/1 146/145/2
f 148/146/1 162/32/52 163/76/1
f 163/76/1 162/32/52 164/78/53
f 163/78/1 135/148/16 148/147/1
f 135/148/16 163/78/1 137/30/47
f 137/30/47 163/78/1 165/76/54
f 147/150/13 166/76/15 145/149/15
f 166/76/15 147/150/13 155/32/50
f 166/76/15 155/32/50 167/78/55
f 125/142/6 168/107/7 124/109/7
f 168/107/7 125/142/6 169/108/6
f 170/107/15 113/142/10 157/108/10
f 113/142/10 170/107/15 114/109/15
f 172/30/56 141/151/7 171/32/7
f 141/151/7 172/30/56 142/152/6
f 174/76/38 158/32/51 173/78/57
f 158/32/51 174/76/38 143/153/39
f 143/153/39 174/76/38 140/154/38
f 94/111/27 175/108/2 159/107/27
f 175/108/2 94/111/27 99/142/3
f 99/142/3 94/111/27 97/110/36
f 160/107/13 114/142/15 170/108/15
f 114/142/15 160/107/13 65/109/14
f 177/107/20 91/110/44 176/108/44
f 91/110/44 177/107/20 100/109/21
f 91/110/44 100/109/21 92/111/45
f 178/32/27 146/156/2 144/155/27
f 146/156/2 178/32/27 162/30/52
f 151/158/20 154/30/49 150/157/44
f 154/30/49 151/158/20 179/78/20
f 154/30/49 179/78/20 180/76/45
f 118/32/35 144/160/27 116/159/28
f 144/160/27 118/32/35 178/30/27
f 145/162/15 60/30/26 59/161/10
f 60/30/26 145/162/15 166/78/15
f 60/30/26 166/78/15 181/76/58
f 183/107/31 76/142/23 182/108/22
f 76/142/23 183/107/31 77/110/46
f 77/110/46 183/107/31 111/111/31
f 184/107/19 100/142/21 177/108/20
f 100/142/21 184/107/19 101/109/19
f 136/164/24 107/30/34 105/163/32
f 107/30/34 136/164/24 138/32/24
f 182/107/22 102/142/18 185/108/18
f 102/142/18 182/107/22 76/109/23
f 133/107/32 111/110/31 183/108/31
f 111/110/31 133/107/32 110/111/32
f 99/109/3 186/108/1 175/107/2
f 186/108/1 99/109/3 120/142/1
f 124/142/7 187/107/9 122/109/8
f 187/107/9 124/142/7 168/108/7
f 69/110/38 188/107/39 70/111/39
f 188/107/39 69/110/38 189/108/38
f 80/142/4 169/107/6 125/109/6
f 169/107/6 80/142/4 131/108/5
f 185/107/18 101/142/19 184/108/19
f 101/142/19 185/107/18 102/109/18
f 171/30/7 139/165/9 190/32/8
f 139/165/9 171/30/7 141/166/7
f 117/76/5 172/32/56 191/78/59
f 172/32/56 117/76/5 142/167/6
f 142/167/6 117/76/5 115/168/5
f 70/110/39 112/109/12 71/111/40
f 112/109/12 70/110/39 156/107/11
f 156/107/11 70/110/39 188/108/39
f 192/76/37 140/169/38 174/78/38
f 140/169/38 192/76/37 139/170/9
f 139/170/9 192/76/37 190/30/8
f 103/172/31 193/30/23 152/171/22
f 193/30/23 103/172/31 194/76/46
f 194/76/46 103/172/31 104/78/31
f 120/109/1 195/108/16 186/107/1
f 195/108/16 120/109/1 121/142/16
f 152/174/22 89/30/18 88/173/18
f 89/30/18 152/174/22 193/32/23
f 67/110/37 189/107/38 69/111/38
f 189/107/38 67/110/37 187/108/9
f 187/108/9 67/110/37 122/142/8
f 176/107/44 90/110/41 161/108/41
f 90/110/41 176/107/44 91/111/44
f 86/176/19 179/76/20 151/175/20
f 179/76/20 86/176/19 196/78/60
f 196/78/60 86/176/19 87/32/30
f 121/109/16 134/108/24 195/107/16
f 134/108/24 121/109/16 63/142/25

usemtl red

f 154/32/61 197/76/41 153/30/41
f 197/76/41 154/32/61 180/78/61
f 198/78/27 162/30/36 178/32/27
f 162/30/36 198/78/27 164/76/36
f 165/78/62 138/30/24 137/32/62
f 138/30/24 165/78/62 199/76/24
f 193/32/63 200/76/18 89/30/18
f 200/76/18 193/32/63 194/78/63
f 153/32/41 167/76/42 155/30/42
f 167/76/42 153/32/41 197/78/41
f 138/32/24 106/76/43 107/30/43
f 106/76/43 138/32/24 199/78/24
f 119/78/64 178/30/27 118/32/64
f 178/30/27 119/78/64 198/76/27
f 60/32/65 201/76/11 58/30/11
f 201/76/11 60/32/65 181/78/65
f 191/76/66 171/32/7 202/78/7
f 171/32/7 191/76/66 172/30/66
f 89/32/18 196/76/67 87/30/67
f 196/76/67 89/32/18 200/78/18
f 202/76/7 190/32/68 192/78/68
f 190/32/68 202/76/7 171/30/7
f 173/76/40 58/32/11 201/78/11
f 58/32/11 173/76/40 158/30/40
f 187/179/70 174/178/69 189/177/69
f 174/178/69 187/179/70 192/180/70
f 181/178/72 156/179/71 201/180/71
f 156/179/71 181/178/72 157/177/72
f 200/180/73 182/177/74 185/179/73
f 182/177/74 200/180/73 194/178/74
f 195/177/75 199/180/76 165/178/75
f 199/180/76 195/177/75 134/179/76
f 188/179/77 201/178/71 156/177/71
f 201/178/71 188/179/77 173/180/77
f 175/177/78 163/180/79 164/178/78
f 163/180/79 175/177/78 186/179/79
f 179/178/81 176/179/80 180/180/80
f 176/179/80 179/178/81 177/177/81
f 131/177/82 119/180/83 117/178/82
f 119/180/83 131/177/82 132/179/83
f 168/177/84 191/180/85 202/178/84
f 191/180/85 168/177/84 169/179/85
f 159/177/86 164/180/78 198/178/86
f 164/180/78 159/177/86 175/179/78
f 189/179/69 173/178/77 188/177/77
f 173/178/77 189/179/69 174/180/69
f 104/178/87 182/179/74 194/180/74
f 182/179/74 104/178/87 183/177/87
f 106/178/88 183/179/87 104/180/87
f 183/179/87 106/178/88 133/177/88
f 169/177/85 117/180/82 191/178/85
f 117/180/82 169/177/85 131/179/82
f 196/180/89 185/177/73 184/179/89
f 185/177/73 196/180/89 200/178/73
f 197/178/91 160/179/90 167/180/90
f 160/179/90 197/178/91 161/177/91
f 199/178/76 133/179/88 106/180/88
f 133/179/88 199/178/76 134/177/76
f 179/180/81 184/177/89 177/179/81
f 184/177/89 179/180/81 196/178/89
f 166/178/92 157/179/72 181/180/72
f 157/179/72 166/178/92 170/177/92
f 167/178/90 170/179/92 166/180/92
f 170/179/92 167/178/90 160/177/90
f 180/178/80 161/179/91 197/180/91
f 161/179/91 180/178/80 176/177/80
f 132/177/83 198/180/86 119/178/83
f 198/180/86 132/177/83 159/179/86
f 186/177/79 165/180/75 163/178/79
f 165/180/75 186/177/79 195/179/75
f 168/179/84 192/178/70 187/177/70
f 192/178/70 168/179/84 202/180/84

usemtl stoneDark

f 127/46/17 47/105/17 53/181/17
f 47/105/17 127/46/17 126/47/17
f 47/105/17 126/47/17 49/106/17
f 49/106/17 126/47/17 55/48/17
f 49/106/17 55/48/17 51/63/17
f 51/63/17 55/48/17 23/5/17
f 23/5/17 55/48/17 25/7/17
f 25/7/17 55/48/17 21/89/17
f 25/7/17 21/89/17 26/8/17
f 26/8/17 21/89/17 28/10/17
f 28/10/17 21/89/17 1/90/17
f 28/10/17 1/90/17 30/12/17
f 30/12/17 1/90/17 32/14/17
f 32/14/17 1/90/17 2/182/17
f 32/14/17 2/182/17 35/17/17
f 35/17/17 2/182/17 81/54/17
f 35/17/17 81/54/17 36/18/17
f 36/18/17 81/54/17 38/20/17
f 38/20/17 81/54/17 82/57/17
f 38/20/17 82/57/17 40/22/17
f 40/22/17 82/57/17 43/25/17
f 43/25/17 82/57/17 6/59/17
f 43/25/17 6/59/17 44/26/17
f 44/26/17 6/59/17 46/28/17
f 15/79/17 46/28/17 6/59/17
f 15/79/17 45/27/17 46/28/17
f 15/79/17 42/24/17 45/27/17
f 13/99/17 42/24/17 15/79/17
f 13/99/17 41/23/17 42/24/17
f 13/99/17 39/21/17 41/23/17
f 19/97/17 39/21/17 13/99/17
f 19/97/17 37/19/17 39/21/17
f 19/97/17 34/16/17 37/19/17
f 17/183/17 34/16/17 19/97/17
f 17/183/17 33/15/17 34/16/17
f 129/66/17 33/15/17 17/183/17
f 129/66/17 31/13/17 33/15/17
f 129/66/17 29/11/17 31/13/17
f 130/65/17 29/11/17 129/66/17
f 130/65/17 27/9/17 29/11/17
f 130/65/17 24/6/17 27/9/17
f 51/63/17 24/6/17 130/65/17
f 24/6/17 51/63/17 23/5/17
f 15/79/17 6/59/17 8/69/17
f 15/79/17 8/69/17 128/81/17
f 128/81/17 8/69/17 10/70/17
f 128/81/17 10/70/17 123/82/17
f 123/82/17 10/70/17 12/184/17

