# Created by Kenney (www.kenney.nl)

mtllib towerSquare_middleA.mtl

g towerSquare_middleA

v 0.435 -1.894529E-14 0.435
v 0.435 -1.894529E-14 -0.435
v -0.435 -1.894529E-14 0.435
v -0.435 -1.894529E-14 -0.435
v 0.435 0.5 -0.435
v 0.435 0.5 0.435
v -0.435 0.5 -0.435
v -0.435 0.5 0.435
v 0.435 0.25 0.435
v -0.435 0.25 0.435
v -0.435 0.25 -0.435
v 0.435 0.25 -0.435

vn 0 -1 0
vn 0 1 0
vn 0 0 1
vn 0 0 -1
vn 1 0 0
vn -1 0 0

vt 17.12598 17.12598
vt 17.12598 -17.12598
vt -17.12598 17.12598
vt -17.12598 -17.12598
vt 17.12598 9.84252
vt -17.12598 9.84252
vt 17.12598 19.68504
vt -17.12598 19.68504
vt -17.12598 -7.458776E-13
vt 17.12598 -7.458776E-13

usemtl stone

f 3/3/1 2/2/1 1/1/1
f 2/2/1 3/3/1 4/4/1
f 7/2/2 6/3/2 5/4/2
f 6/3/2 7/2/2 8/1/2
f 6/7/3 10/6/3 9/5/3
f 10/6/3 6/7/3 8/8/3
f 7/7/4 12/6/4 11/5/4
f 12/6/4 7/7/4 5/8/4
f 6/8/5 12/5/5 5/7/5
f 12/5/5 6/8/5 9/6/5
f 10/5/6 7/8/6 11/6/6
f 7/8/6 10/5/6 8/7/6

usemtl purple

f 3/10/6 11/6/6 4/9/6
f 11/6/6 3/10/6 10/5/6
f 9/5/3 3/9/3 1/10/3
f 3/9/3 9/5/3 10/6/3
f 9/6/5 2/10/5 12/5/5
f 2/10/5 9/6/5 1/9/5
f 11/5/4 2/9/4 4/10/4
f 2/9/4 11/5/4 12/6/4

