# Created by Kenney (www.kenney.nl)

mtllib towerSquare_sampleB.mtl

g towerSquare_sampleB

v 0.435 0.32 0.245
v 0.5 0.2 0.245
v 0.435 0.32 0.435
v 0.5 0.2 0.5
v 0.5 0.2 -0.5
v 0.5 0 -0.5
v 0.5 0.2 -0.19
v 0.5 0 -0.19
v -0.2175 0.2 0.5
v -0.5 0.2 0.5
v -0.2175 0.32 0.435
v -0.435 0.32 0.435
v -0.5 0 0.245
v -0.5 0.2 0.245
v -0.5 0 0.5
v -0.5 0.2 -0.5
v -0.435 0.32 -0.435
v -0.5 0.2 -0.19
v -0.435 0.32 -0.19
v -0.5 0 -0.5
v -0.5 0 -0.19
v 0.5 0 0.5
v 0.2175 2.255973E-17 0.5
v 0.2175 0.2 0.5
v -0.2175 0.2 -0.5
v -0.2175 0.32 -0.435
v 0.5 0 0.245
v -0.2175 0.5 0.435
v -0.435 0.5 0.435
v -0.2175 2.255973E-17 0.5
v 0.435 0.5 0.245
v 0.435 0.5 0.435
v -0.435 0.5 -0.435
v -0.435 0.5 -0.19
v -0.2175 2.255973E-17 -0.5
v -0.435 0.32 0.245
v 0.2175 0.32 -0.435
v 0.435 0.32 -0.435
v 0.2175 0.5 -0.435
v 0.435 0.5 -0.435
v 0.2175 2.255973E-17 -0.5
v 0.2175 0.2 -0.5
v 0.2175 0.32 0.435
v -0.2175 0 -0.435
v -0.2175 0.16 -0.435
v 0.2175 2.255973E-17 0.435
v 0.2175 0.16 0.435
v 0.435 0.5 -0.19
v 0.435 0.32 -0.19
v -0.435 0 0.245
v -0.435 0.16 0.245
v 0.2175 0 -0.435
v 0.2175 0.16 -0.435
v 0.435 0 -0.19
v 0.435 0.16 -0.19
v 0.435 0 0.245
v -0.2175 2.255973E-17 0.435
v -0.435 0 -0.19
v 0.435 0.16 0.245
v 0.2175 0.5 0.435
v -0.435 0.5 0.245
v -0.435 0.16 -0.19
v -0.2175 0.16 0.435
v -0.2175 0.5 -0.435
v -0.5 0.9 0.25
v -0.3995556 0.9 0.25
v -0.5 1 0.25
v -0.3995556 1 0.25
v -0.3995556 0.9 -0.25
v -0.5 0.9 -0.25
v -0.3995556 1 -0.25
v -0.5 1 -0.25
v -0.25 1 -0.5
v -0.25 0.9 -0.5
v -0.25 1 -0.3995556
v -0.25 0.9 -0.3995556
v 0.3995556 0.83 0.25
v 0.3995556 0.9 0.25
v 0.3995556 0.83 0.3995556
v 0.3995556 1 0.25
v 0.3995556 1 0.3995556
v 0.435 0.59 0.435
v -0.435 0.59 0.435
v 0.435 0.68 0.435
v -0.435 0.68 0.435
v 0.25 0.9 -0.5
v 0.25 1 -0.5
v 0.25 0.9 -0.3995556
v 0.25 1 -0.3995556
v -0.3995556 1 -0.3995556
v -0.3995556 0.83 -0.3995556
v -0.3995556 0.83 -0.25
v -0.435 0.59 -0.435
v -0.435 0.68 -0.435
v 0.3995556 0.83 -0.3995556
v 0.25 0.83 -0.3995556
v 0.3995556 1 -0.3995556
v -0.3995556 0.83 0.3995556
v -0.25 0.83 0.3995556
v -0.3995556 1 0.3995556
v -0.25 0.9 0.3995556
v -0.25 1 0.3995556
v -0.5 1 0.5
v -0.25 1 0.5
v 0.5 1 -0.5
v 0.5 0.8 -0.5
v 0.5 1 -0.25
v 0.5 0.8 -0.25
v 0.5 0.9 -0.25
v 0.5 0.8 0.5
v -0.5 0.8 0.5
v 0.25 0.8 0.5
v -0.25 0.8 0.5
v 0.5 1 0.5
v 0.25 0.9 0.5
v 0.25 1 0.5
v 0.435 0.68 -0.435
v 0.5 0.8 0.25
v -0.5 0.8 -0.5
v -0.5 0.8 -0.25
v -0.5 0.8 0.25
v 0.435 0.59 -0.435
v 0.3995556 1 -0.25
v 0.3995556 0.9 -0.25
v 0.5 0.9 0.25
v 0.5 1 0.25
v -0.25 0.8 -0.5
v 0.25 0.8 -0.5
v -0.5 1 -0.5
v 0.25 1 0.3995556
v -0.25 0.9 0.5
v 0.25 0.9 0.3995556
v -0.2992119 1 -0.2992119
v 0.2992119 1 -0.2992119
v -0.3291331 1.05 -0.3291331
v 0.3291331 1.05 -0.3291331
v -0.3995556 0.83 0.25
v 0.3995556 0.83 -0.25
v 0.3291331 1.05 0.3291331
v 0.2992119 1 0.2992119
v 0.25 0.83 0.3995556
v -0.2992119 1 0.2992119
v -0.3291331 1.05 0.3291331
v -0.25 0.83 -0.3995556
v 0.3291331 1.1 0.3291331
v -0.3291331 1.1 0.3291331
v 0.3291331 1.1 -0.3291331
v -0.3291331 1.1 -0.3291331
v 0.03949597 1.66 -0.03949597
v 0.03949597 1.66 0.03949597
v -0.03949597 1.66 -0.03949597
v -0.03949597 1.66 0.03949597
v 0.2992119 0.83 -0.2992119
v -0.2992119 0.83 -0.2992119
v -0.2992119 0.83 0.2992119
v 0.2992119 0.83 0.2992119

vn 0.879292 0.4762832 0
vn 1 0 0
vn 0 0.4762832 0.879292
vn -1 0 0
vn -0.879292 0.4762832 0
vn 0 0 1
vn 0 0.4762832 -0.879292
vn 0 0 -1
vn 0 -1 0
vn 0 1 0
vn 0 -0.4762832 0.879292
vn 0.879292 -0.4762832 0
vn -0.879292 -0.4762832 0
vn 0 -0.4762832 -0.879292
vn 0 -0.5135009 -0.858089
vn 0.858089 -0.5135009 0
vn 0 -0.5135009 0.858089
vn -0.858089 -0.5135009 0
vn 0 0.4594004 0.8882293
vn 0 0.4594004 -0.8882293
vn -0.8882293 0.4594004 0
vn 0.8882293 0.4594004 0

vt -9.645669 2.920876
vt -9.645669 -2.452094
vt -17.12598 2.920876
vt -19.68504 -2.452094
vt 19.68504 7.874016
vt 19.68504 0
vt 7.480315 7.874016
vt 7.480315 0
vt -8.562992 -2.452094
vt -8.562992 2.920876
vt 9.645669 -2.220446E-15
vt 9.645669 7.874016
vt 19.68504 -2.220446E-15
vt -7.480315 -2.452094
vt -7.480315 2.920876
vt -19.68504 -6.661338E-15
vt -19.68504 7.874016
vt -7.480315 -6.661338E-15
vt -7.480315 7.874016
vt 8.562992 8.881784E-16
vt 8.562992 7.874016
vt 19.68504 -2.452094
vt 8.562992 -2.452094
vt 17.12598 2.920876
vt 8.562992 2.920876
vt -9.645669 7.874016
vt -9.645669 0
vt -19.68504 0
vt -8.562992 12.59842
vt -17.12598 12.59842
vt -8.562992 19.68504
vt -17.12598 19.68504
vt -8.562992 8.881784E-16
vt -8.562992 7.874016
vt -9.645669 19.68504
vt -9.645669 12.59842
vt -7.480315 12.59842
vt -7.480315 19.68504
vt 9.645669 -2.452094
vt 9.645669 2.920876
vt 19.68504 8.881784E-16
vt 17.12598 12.59842
vt 17.12598 0
vt 17.12598 6.299212
vt 17.12598 8.881784E-16
vt 17.12598 19.68504
vt 7.480315 19.68504
vt 7.480315 12.59842
vt -19.68504 8.881784E-16
vt -17.12598 0
vt -17.12598 6.299212
vt 19.68504 19.68504
vt 19.68504 9.645669
vt 8.562992 19.68504
vt 17.12598 9.645669
vt 17.12598 -7.480315
vt 8.562992 -19.68504
vt 19.68504 -19.68504
vt 19.68504 -7.480315
vt 8.562992 17.12598
vt 8.562992 -17.12598
vt -8.562992 17.12598
vt -8.562992 -17.12598
vt -19.68504 19.68504
vt -8.562992 -19.68504
vt -17.12598 9.645669
vt -19.68504 9.645669
vt -17.12598 -7.480315
vt -19.68504 -19.68504
vt -19.68504 -7.480315
vt 8.562992 12.59842
vt 9.645669 12.59842
vt 9.645669 19.68504
vt -17.12598 8.881784E-16
vt 7.480315 -2.452094
vt 7.480315 2.920876
vt 19.68504 35.43307
vt 15.73054 35.43307
vt 19.68504 39.37008
vt 15.73054 39.37008
vt -15.73054 35.43307
vt -19.68504 35.43307
vt -15.73054 39.37008
vt -19.68504 39.37008
vt 9.84252 32.67717
vt 9.84252 35.43307
vt 15.73054 32.67717
vt 9.84252 39.37008
vt 17.12598 23.22835
vt -17.12598 23.22835
vt 17.12598 26.77165
vt -17.12598 26.77165
vt 15.73054 9.84252
vt 15.73054 15.73054
vt 19.68504 9.84252
vt 9.84252 19.68504
vt 9.84252 15.73054
vt 19.68504 31.49606
vt 9.84252 31.49606
vt 17.12598 31.69692
vt -17.12598 31.69692
vt 19.68504 37.06989
vt -19.68504 37.06989
vt 9.84252 37.06989
vt -9.84252 37.06989
vt -19.68504 -9.84252
vt -15.73054 -15.73054
vt -9.84252 -19.68504
vt -9.84252 -15.73054
vt -15.73054 -9.84252
vt 9.84252 -19.68504
vt 9.84252 -15.73054
vt 15.73054 -15.73054
vt 15.73054 -9.84252
vt 19.68504 -9.84252
vt -19.68504 9.84252
vt -15.73054 9.84252
vt -15.73054 15.73054
vt -9.84252 19.68504
vt -9.84252 15.73054
vt -19.68504 31.49606
vt -9.84252 31.49606
vt -9.84252 39.37008
vt -9.84252 35.43307
vt 11.78 39.83207
vt -11.78 39.83207
vt 12.958 42.12613
vt -12.958 42.12613
vt -9.84252 32.67717
vt -15.73054 32.67717
vt 12.958 41.33858
vt -12.958 41.33858
vt 12.958 43.30709
vt -12.958 43.30709
vt -1.554959 -1.554959
vt -1.554959 1.554959
vt 1.554959 -1.554959
vt 1.554959 1.554959
vt 12.958 32.51372
vt -12.958 32.51372
vt 1.554959 57.33529
vt -1.554959 57.33529
vt 8.562992 6.299212
vt -8.562992 6.299212
vt -7.480315 0
vt -7.480315 6.299212
vt 9.645669 0
vt 9.645669 6.299212
vt 7.480315 6.299212
vt -9.645669 6.299212
vt 8.562992 0
vt -8.562992 0
vt -11.78 -11.78
vt 11.78 -11.78
vt 11.78 11.78
vt -11.78 11.78
vt 11.78 39.37008
vt 11.78 32.67717
vt -11.78 39.37008
vt -11.78 32.67717

usemtl purple

f 3/3/1 2/2/1 1/1/1
f 2/2/1 3/3/1 4/4/1
f 7/7/2 6/6/2 5/5/2
f 6/6/2 7/7/2 8/8/2
f 11/10/3 10/4/3 9/9/3
f 10/4/3 11/10/3 12/3/3
f 15/13/4 14/12/4 13/11/4
f 14/12/4 15/13/4 10/5/4
f 18/14/5 17/3/5 16/4/5
f 17/3/5 18/14/5 19/15/5
f 21/18/4 16/17/4 20/16/4
f 16/17/4 21/18/4 18/19/4
f 4/5/6 23/20/6 22/6/6
f 23/20/6 4/5/6 24/21/6
f 17/24/7 25/23/7 16/22/7
f 25/23/7 17/24/7 26/25/7
f 4/17/2 27/27/2 2/26/2
f 27/27/2 4/17/2 22/28/2
f 28/31/6 12/30/6 11/29/6
f 12/30/6 28/31/6 29/32/6
f 30/33/6 10/17/6 15/28/6
f 10/17/6 30/33/6 9/34/6
f 32/32/2 1/36/2 31/35/2
f 1/36/2 32/32/2 3/30/2
f 19/37/4 33/32/4 17/30/4
f 33/32/4 19/37/4 34/38/4
f 16/5/8 35/20/8 20/6/8
f 35/20/8 16/5/8 25/21/8
f 10/22/5 36/40/5 14/39/5
f 36/40/5 10/22/5 12/24/5
f 39/31/8 38/30/8 37/29/8
f 38/30/8 39/31/8 40/32/8
f 41/33/8 5/17/8 6/28/8
f 5/17/8 41/33/8 42/34/8
f 3/24/3 24/23/3 4/22/3
f 24/23/3 3/24/3 43/25/3
f 26/42/2 35/41/2 25/5/2
f 35/41/2 26/42/2 44/43/2
f 44/43/2 26/42/2 45/44/2
f 23/41/4 47/44/4 46/45/4
f 47/44/4 23/41/4 43/42/4
f 43/42/4 23/41/4 24/5/4
f 48/47/2 38/42/2 40/46/2
f 38/42/2 48/47/2 49/48/2
f 14/5/8 50/43/8 13/6/8
f 50/43/8 14/5/8 51/44/8
f 51/44/8 14/5/8 36/42/8
f 52/50/4 42/17/4 41/49/4
f 42/17/4 52/50/4 37/30/4
f 37/30/4 52/50/4 53/51/4
f 7/5/6 54/43/6 8/6/6
f 54/43/6 7/5/6 55/44/6
f 55/44/6 7/5/6 49/42/6
f 23/54/9 27/53/9 22/52/9
f 27/53/9 23/54/9 56/55/9
f 56/55/9 23/54/9 54/56/9
f 41/57/9 54/56/9 23/54/9
f 6/58/9 54/56/9 41/57/9
f 54/56/9 6/58/9 8/59/9
f 41/57/9 23/54/9 46/60/9
f 41/57/9 46/60/9 52/61/9
f 57/62/9 52/61/9 46/60/9
f 52/61/9 57/62/9 44/63/9
f 57/62/9 15/64/9 44/63/9
f 15/64/9 57/62/9 30/31/9
f 44/63/9 15/64/9 35/65/9
f 35/65/9 15/64/9 50/66/9
f 50/66/9 15/64/9 13/67/9
f 58/68/9 35/65/9 50/66/9
f 35/65/9 58/68/9 20/69/9
f 20/69/9 58/68/9 21/70/9
f 37/10/7 5/4/7 42/9/7
f 5/4/7 37/10/7 38/3/7
f 59/51/8 27/28/8 56/50/8
f 27/28/8 59/51/8 2/17/8
f 2/17/8 59/51/8 1/30/8
f 32/46/6 43/71/6 3/42/6
f 43/71/6 32/46/6 60/54/6
f 12/42/4 61/73/4 36/72/4
f 61/73/4 12/42/4 29/46/4
f 62/51/6 21/28/6 58/50/6
f 21/28/6 62/51/6 18/17/6
f 18/17/6 62/51/6 19/30/6
f 9/17/2 63/51/2 11/30/2
f 63/51/2 9/17/2 57/74/2
f 57/74/2 9/17/2 30/49/2
f 38/24/1 7/75/1 5/22/1
f 7/75/1 38/24/1 49/76/1
f 33/46/8 26/71/8 17/42/8
f 26/71/8 33/46/8 64/54/8
f 67/79/8 66/78/8 65/77/8
f 66/78/8 67/79/8 68/80/8
f 71/83/6 70/82/6 69/81/6
f 70/82/6 71/83/6 72/84/6
f 75/80/2 74/77/2 73/79/2
f 74/77/2 75/80/2 76/78/2
f 79/87/4 78/86/4 77/85/4
f 78/86/4 79/87/4 80/88/4
f 80/88/4 79/87/4 81/80/4
f 84/91/6 83/90/6 82/89/6
f 83/90/6 84/91/6 85/92/6
f 88/81/4 87/84/4 86/82/4
f 87/84/4 88/81/4 89/83/4
f 71/88/2 91/87/2 90/80/2
f 91/87/2 71/88/2 92/85/2
f 92/85/2 71/88/2 69/86/2
f 83/89/4 94/92/4 93/90/4
f 94/92/4 83/89/4 85/91/4
f 97/80/6 96/85/6 95/87/6
f 96/85/6 97/80/6 88/86/6
f 88/86/6 97/80/6 89/88/6
f 100/80/8 99/85/8 98/87/8
f 99/85/8 100/80/8 101/86/8
f 101/86/8 100/80/8 102/88/8
f 67/95/10 100/94/10 68/93/10
f 103/52/10 100/94/10 67/95/10
f 104/96/10 100/94/10 103/52/10
f 100/94/10 104/96/10 102/97/10
f 107/88/2 106/98/2 105/79/2
f 106/98/2 107/88/2 108/99/2
f 108/99/2 107/88/2 109/86/2
f 110/102/11 85/101/11 84/100/11
f 85/101/11 110/102/11 111/103/11
f 111/103/11 110/102/11 112/104/11
f 111/103/11 112/104/11 113/105/11
f 114/79/6 112/99/6 110/98/6
f 112/99/6 114/79/6 115/86/6
f 115/86/6 114/79/6 116/88/6
f 108/104/12 117/100/12 106/102/12
f 117/100/12 108/104/12 84/101/12
f 84/101/12 108/104/12 118/105/12
f 84/101/12 118/105/12 110/103/12
f 94/101/13 120/105/13 119/103/13
f 120/105/13 94/101/13 85/100/13
f 120/105/13 85/100/13 121/104/13
f 121/104/13 85/100/13 111/102/13
f 94/91/8 122/90/8 93/89/8
f 122/90/8 94/91/8 117/92/8
f 105/69/10 97/107/10 107/106/10
f 97/107/10 105/69/10 87/108/10
f 97/107/10 87/108/10 89/109/10
f 123/110/10 107/106/10 97/107/10
f 107/79/6 124/78/6 109/77/6
f 124/78/6 107/79/6 123/80/6
f 80/83/8 125/82/8 78/81/8
f 125/82/8 80/83/8 126/84/8
f 119/102/14 117/101/14 94/100/14
f 117/101/14 119/102/14 106/103/14
f 106/103/14 119/102/14 127/104/14
f 106/103/14 127/104/14 128/105/14
f 84/92/2 122/89/2 117/91/2
f 122/89/2 84/92/2 82/90/2
f 111/98/4 65/86/4 121/99/4
f 65/86/4 111/98/4 67/88/4
f 67/88/4 111/98/4 103/79/4
f 129/79/8 127/99/8 119/98/8
f 127/99/8 129/79/8 74/86/8
f 74/86/8 129/79/8 73/88/8
f 129/58/10 75/112/10 73/111/10
f 75/112/10 129/58/10 90/113/10
f 90/113/10 129/58/10 71/114/10
f 71/114/10 129/58/10 72/115/10
f 80/117/10 114/64/10 126/116/10
f 114/64/10 80/117/10 81/118/10
f 114/64/10 81/118/10 116/119/10
f 116/119/10 81/118/10 130/120/10
f 104/84/2 101/81/2 102/83/2
f 101/81/2 104/84/2 131/82/2
f 115/77/4 130/80/4 132/78/4
f 130/80/4 115/77/4 116/79/4
f 120/122/4 129/84/4 119/121/4
f 129/84/4 120/122/4 72/123/4
f 72/123/4 120/122/4 70/124/4
f 135/127/15 134/126/15 133/125/15
f 134/126/15 135/127/15 136/128/15
f 131/124/6 111/121/6 113/122/6
f 111/121/6 131/124/6 103/84/6
f 103/84/6 131/124/6 104/123/6
f 100/83/2 66/124/2 68/123/2
f 66/124/2 100/83/2 137/129/2
f 137/129/2 100/83/2 98/130/2
f 138/129/4 97/83/4 95/130/4
f 97/83/4 138/129/4 123/123/4
f 123/123/4 138/129/4 124/124/4
f 139/128/16 134/125/16 136/127/16
f 134/125/16 139/128/16 140/126/16
f 86/124/8 106/121/8 128/122/8
f 106/121/8 86/124/8 105/84/8
f 105/84/8 86/124/8 87/123/8
f 132/124/8 79/130/8 141/129/8
f 79/130/8 132/124/8 81/83/8
f 81/83/8 132/124/8 130/123/8
f 139/127/17 142/126/17 140/125/17
f 142/126/17 139/127/17 143/128/17
f 76/124/6 91/130/6 144/129/6
f 91/130/6 76/124/6 90/83/6
f 90/83/6 76/124/6 75/123/6
f 133/126/18 143/127/18 135/128/18
f 143/127/18 133/126/18 142/125/18
f 145/133/6 143/132/6 139/131/6
f 143/132/6 145/133/6 146/134/6
f 145/134/2 136/131/2 147/133/2
f 136/131/2 145/134/2 139/132/2
f 148/133/8 136/132/8 135/131/8
f 136/132/8 148/133/8 147/134/8
f 143/131/4 148/134/4 135/132/4
f 148/134/4 143/131/4 146/133/4
f 151/137/10 150/136/10 149/135/10
f 150/136/10 151/137/10 152/138/10
f 114/84/2 125/124/2 126/123/2
f 125/124/2 114/84/2 118/122/2
f 118/122/2 114/84/2 110/121/2
f 150/141/19 146/140/19 145/139/19
f 146/140/19 150/141/19 152/142/19
f 151/141/20 147/140/20 148/139/20
f 147/140/20 151/141/20 149/142/20
f 146/139/21 151/142/21 148/140/21
f 151/142/21 146/139/21 152/141/21
f 149/141/22 145/140/22 147/139/22
f 145/140/22 149/141/22 150/142/22

usemtl stoneDark

f 47/143/6 57/33/6 46/20/6
f 57/33/6 47/143/6 63/144/6
f 50/147/4 62/146/4 58/145/4
f 62/146/4 50/147/4 51/148/4
f 59/150/2 54/8/2 55/149/2
f 54/8/2 59/150/2 56/27/2
f 45/143/8 52/152/8 44/151/8
f 52/152/8 45/143/8 53/144/8
f 96/109/10 138/110/10 95/107/10
f 138/110/10 96/109/10 153/153/10
f 138/110/10 153/153/10 77/117/10
f 77/117/10 153/153/10 79/118/10
f 153/153/10 96/109/10 154/154/10
f 154/154/10 96/109/10 144/112/10
f 154/154/10 144/112/10 91/113/10
f 154/154/10 91/113/10 155/155/10
f 155/155/10 91/113/10 92/114/10
f 156/156/10 79/118/10 153/153/10
f 79/118/10 156/156/10 141/120/10
f 141/120/10 156/156/10 155/155/10
f 141/120/10 155/155/10 99/97/10
f 99/97/10 155/155/10 98/94/10
f 98/94/10 155/155/10 137/93/10
f 137/93/10 155/155/10 92/114/10

usemtl stone

f 82/89/6 60/54/6 32/46/6
f 60/54/6 82/89/6 28/31/6
f 28/31/6 82/89/6 29/32/6
f 29/32/6 82/89/6 83/90/6
f 11/29/6 60/54/6 28/31/6
f 11/29/6 43/71/6 60/54/6
f 63/144/6 43/71/6 11/29/6
f 43/71/6 63/144/6 47/143/6
f 51/148/4 19/37/4 62/146/4
f 19/37/4 51/148/4 34/38/4
f 61/73/4 34/38/4 51/148/4
f 83/89/4 34/38/4 61/73/4
f 93/90/4 34/38/4 83/89/4
f 34/38/4 93/90/4 33/32/4
f 61/73/4 51/148/4 36/72/4
f 83/89/4 61/73/4 29/46/4
f 82/90/2 40/46/2 122/89/2
f 40/46/2 82/90/2 48/47/2
f 48/47/2 82/90/2 49/48/2
f 49/48/2 82/90/2 31/35/2
f 49/48/2 31/35/2 55/149/2
f 31/35/2 82/90/2 32/32/2
f 31/35/2 59/150/2 55/149/2
f 59/150/2 31/35/2 1/36/2
f 140/159/2 153/158/2 134/157/2
f 153/158/2 140/159/2 156/160/2
f 70/115/10 66/93/10 69/114/10
f 66/93/10 70/115/10 65/95/10
f 101/86/8 141/129/8 99/85/8
f 141/129/8 101/86/8 132/124/8
f 140/157/6 155/160/6 156/158/6
f 155/160/6 140/157/6 142/159/6
f 101/97/10 115/119/10 132/120/10
f 115/119/10 101/97/10 131/96/10
f 125/124/2 108/99/2 109/86/2
f 108/99/2 125/124/2 118/122/2
f 66/124/2 92/85/2 69/86/2
f 92/85/2 66/124/2 137/129/2
f 115/86/6 113/122/6 112/99/6
f 113/122/6 115/86/6 131/124/6
f 93/89/8 64/54/8 33/46/8
f 64/54/8 93/89/8 39/31/8
f 39/31/8 93/89/8 40/32/8
f 40/32/8 93/89/8 122/90/8
f 37/29/8 64/54/8 39/31/8
f 37/29/8 26/71/8 64/54/8
f 53/144/8 26/71/8 37/29/8
f 26/71/8 53/144/8 45/143/8
f 121/99/4 70/124/4 120/122/4
f 70/124/4 121/99/4 65/86/4
f 155/158/4 133/159/4 154/160/4
f 133/159/4 155/158/4 142/157/4
f 124/110/10 125/116/10 109/106/10
f 125/116/10 124/110/10 78/117/10
f 74/111/10 88/109/10 86/108/10
f 88/109/10 74/111/10 76/112/10
f 77/85/4 124/124/4 138/129/4
f 124/124/4 77/85/4 78/86/4
f 133/157/8 153/160/8 154/158/8
f 153/160/8 133/157/8 134/159/8
f 88/86/6 144/129/6 96/85/6
f 144/129/6 88/86/6 76/124/6
f 74/86/8 128/122/8 127/99/8
f 128/122/8 74/86/8 86/124/8

