# Created by Kenney (www.kenney.nl)

mtllib towerRound_bottomB.mtl

g towerRound_bottomB

v 7.219114E-15 2.20183E-14 -0.5
v 0.1294095 2.752287E-14 -0.4829629
v -1.010676E-14 0.2 -0.5
v 0.1294095 0.2 -0.4829629
v 0.4829629 0.2 0.1294095
v 0.4829629 4.313421E-14 0.1294095
v 0.4330127 0.2 0.25
v 0.4330127 4.096847E-14 0.25
v -0.1294095 0.2 -0.4829629
v -0.1125863 0.32 -0.4201777
v -1.588205E-14 0.32 -0.435
v -0.5 0 0
v -0.5 0.2 0
v -0.4829629 9.023893E-16 0.1294095
v -0.4829629 0.2 0.1294095
v -0.4330127 3.068124E-15 -0.25
v -0.4330127 0.2 -0.25
v -0.4829629 9.023893E-16 -0.1294095
v -0.4829629 0.2 -0.1294095
v -0.4330127 3.068124E-15 0.25
v -0.4330127 1.109939E-14 -0.4330127
v -0.4330127 3.068124E-15 0.4330127
v -0.25 1.109939E-14 -0.4330127
v -0.25 1.109939E-14 0.4330127
v -0.1294095 1.633324E-14 -0.4829629
v -0.1294095 1.633324E-14 0.4829629
v 7.219114E-15 2.20183E-14 0.5
v 0.1294095 2.752287E-14 0.4829629
v 0.25 3.293721E-14 -0.4330127
v 0.25 3.293721E-14 0.4330127
v 0.4330127 4.096847E-14 -0.4330127
v 0.4330127 4.096847E-14 -0.25
v 0.4330127 3.293721E-14 0.4330127
v 0.4829629 4.313421E-14 -0.1294095
v 0.5 4.385612E-14 0
v 0.25 0.2 -0.4330127
v 0.3535534 0.2 -0.3535534
v 0.4330127 0.2 -0.25
v 0.3075914 0.32 -0.3075914
v 0.3767211 0.32 -0.2175
v -1.010676E-14 0.2 0.5
v 0.1294095 0.2 0.4829629
v -0.4201777 0.32 -0.1125863
v -0.435 0.32 0
v -0.25 0.2 -0.4330127
v -0.2175 0.32 -0.3767211
v 0.4829629 0.2 -0.1294095
v 0.435 0.32 0
v 0.5 0.2 0
v 0.4201777 0.32 0.1125863
v -0.3535534 0.2 -0.3535534
v -0.3075914 0.32 -0.3075914
v 0.1125863 0.32 -0.4201777
v 0.2175 0.32 -0.3767211
v -0.1294095 0.2 0.4829629
v 0.3767211 0.32 0.2175
v 0.4201777 0.32 -0.1125863
v -0.4330127 0.2 0.25
v 0.1125863 0.32 0.4201777
v 0.25 0.2 0.4330127
v 0.2175 0.32 0.3767211
v -0.25 0.2 0.4330127
v -0.2175 0.32 0.3767211
v -0.1125863 0.32 0.4201777
v -0.3767211 0.32 -0.2175
v -1.588205E-14 0.32 0.435
v -0.3535534 0.2 0.3535534
v -0.3075914 0.32 0.3075914
v -0.4201777 0.32 0.1125863
v 0.3075914 0.32 0.3075914
v 0.3535534 0.2 0.3535534
v -0.3767211 0.32 0.2175
v -0.4330127 0.2 0.4330127
v -0.4330127 0.2 -0.4330127
v 0.4330127 0.2 -0.4330127
v 0.4330127 0.2 0.4330127
v 0.3767211 0.5 -0.2175
v 0.4201777 0.5 -0.1125863
v -0.1125863 0.5 0.4201777
v -5.197762E-14 0.5 0.435
v -0.3075914 0.5 0.3075914
v -0.2175 0.5 0.3767211
v -0.4201777 0.5 -0.1125863
v -0.435 0.5 0
v -0.2175 0.5 -0.3767211
v -0.1125863 0.5 -0.4201777
v -5.197762E-14 0.5 -0.435
v 0.1125863 0.5 -0.4201777
v -0.4201777 0.5 0.1125863
v -0.3767211 0.5 0.2175
v 0.2175 0.5 -0.3767211
v 0.435 0.5 0
v 0.4201777 0.5 0.1125863
v 0.1125863 0.5 0.4201777
v 0.2175 0.5 0.3767211
v 0.3075914 0.5 0.3075914
v -0.3767211 0.5 -0.2175
v 0.3767211 0.5 0.2175
v 0.3075914 0.5 -0.3075914
v -0.3075914 0.5 -0.3075914

vn 0 0 -1
vn 0.258819 0 -0.9659258
vn 0.9659258 0 0.258819
vn 0.9238795 0 0.3826834
vn -0.2275775 0.4762832 -0.8493308
vn 0 0.4762832 -0.879292
vn -1 0 0
vn -0.9659258 0 0.258819
vn -0.9238795 0 -0.3826834
vn -0.9659258 0 -0.258819
vn 0 -1 0
vn 0.3826834 0 -0.9238795
vn 0.6217533 0.4762832 -0.6217533
vn 0.7614892 0.4762832 -0.4396459
vn 0 0 1
vn 0.258819 0 0.9659258
vn -0.8493308 0.4762832 -0.2275775
vn -0.879292 0.4762832 0
vn -0.4396459 0.4762832 -0.7614892
vn 0.9238795 0 -0.3826834
vn 0.9659258 0 -0.258819
vn 0.879292 0.4762832 0
vn 0.8493308 0.4762832 0.2275775
vn -0.6217533 0.4762832 -0.6217533
vn 0.2275775 0.4762832 -0.8493308
vn 0.4396459 0.4762832 -0.7614892
vn -0.258819 0 0.9659258
vn 1 0 0
vn 0.7614892 0.4762832 0.4396459
vn 0.8493308 0.4762832 -0.2275775
vn -0.3826834 0 -0.9238795
vn -0.258819 0 -0.9659258
vn -0.9238795 0 0.3826834
vn 0.2275775 0.4762832 0.8493308
vn 0.4396459 0.4762832 0.7614892
vn -0.4396459 0.4762832 0.7614892
vn -0.2275775 0.4762832 0.8493308
vn 0.3826834 0 0.9238795
vn -0.7614892 0.4762832 -0.4396459
vn 0 0.4762832 0.879292
vn -0.6217533 0.4762832 0.6217533
vn -0.8493308 0.4762832 0.2275775
vn 0.6217533 0.4762832 0.6217533
vn -0.3826834 0 0.9238795
vn -0.7614892 0.4762832 0.4396459
vn 0 1 0
vn 0.8660254 0 -0.5
vn -0.7071068 0 0.7071068
vn -0.5 0 0.8660254
vn -0.5 0 -0.8660254
vn -0.8660254 0 0.5
vn 0.5 0 -0.8660254
vn 0.5 0 0.8660254
vn 0.7071068 0 0.7071068
vn -0.8660254 0 -0.5
vn 0.7071068 0 -0.7071068
vn -0.7071068 0 -0.7071068
vn 0.8660254 0 0.5

vt 2.569413 7.554657E-13
vt -2.569413 9.721813E-13
vt 2.569413 7.874016
vt -2.569413 7.874016
vt 2.569413 9.097204E-13
vt -2.569413 8.244554E-13
vt 2.569413 -2.296803
vt -2.569413 -2.296803
vt 2.235389 3.065775
vt -2.235389 3.065775
vt -2.569413 8.461397E-13
vt 2.569413 8.816668E-13
vt -2.569413 9.092689E-13
vt 2.569413 8.240038E-13
vt -17.04774 9.84252
vt -17.04774 -9.84252
vt -19.01429 5.094863
vt -19.01429 -5.094863
vt -19.68504 -1.752847E-27
vt -17.04774 -17.04774
vt -17.04774 17.04774
vt -9.84252 -17.04774
vt -9.84252 17.04774
vt -5.094863 -19.01429
vt -5.094863 19.01429
vt 2.842171E-13 -19.68504
vt 2.842171E-13 19.68504
vt 5.094863 19.01429
vt 5.094863 -19.01429
vt 9.84252 -17.04774
vt 9.84252 17.04774
vt 17.04774 -17.04774
vt 17.04774 -9.84252
vt 17.04774 9.84252
vt 17.04774 17.04774
vt 19.01429 -5.094863
vt 19.01429 5.094863
vt 19.68504 -1.942265E-27
vt 2.569413 7.569799E-13
vt -2.569413 9.701428E-13
vt -2.569413 7.554657E-13
vt 2.569413 9.721813E-13
vt -2.569413 8.816668E-13
vt 2.569413 8.461397E-13
vt 2.569413 8.244554E-13
vt -2.569413 9.097204E-13
vt -2.569413 7.544376E-13
vt 2.569413 9.782585E-13
vt 2.569413 8.804792E-13
vt -2.569413 8.520575E-13
vt 2.569413 7.635815E-13
vt -2.569413 9.696389E-13
vt -2.569413 8.240038E-13
vt 2.569413 9.092689E-13
vt 2.569413 7.544376E-13
vt -2.569413 9.782585E-13
vt -2.569413 7.569799E-13
vt 2.569413 9.701428E-13
vt 2.569413 8.520575E-13
vt -2.569413 8.804792E-13
vt -2.569413 7.635815E-13
vt 2.569413 9.696389E-13
vt 9.84252 1.597628E-12
vt 9.84252 7.874016
vt 17.04774 1.597628E-12
vt 17.04774 7.874016
vt 13.91943 -13.91943
vt 17.04774 8.437469E-13
vt 9.84252 8.437469E-13
vt -17.04774 1.913819E-12
vt -17.04774 7.874016
vt -9.84252 1.597628E-12
vt -9.84252 7.874016
vt -9.84252 1.29674E-12
vt -17.04774 1.612932E-12
vt 13.91943 13.91943
vt -13.91943 -13.91943
vt 17.04774 1.29674E-12
vt 9.84252 1.29674E-12
vt -17.04774 1.207923E-13
vt -9.84252 4.369838E-13
vt -13.91943 13.91943
vt 17.04774 4.369838E-13
vt 9.84252 4.369838E-13
vt -9.84252 7.456186E-14
vt -17.04774 -2.416297E-13
vt 2.235389 19.68504
vt 2.235389 12.59842
vt -2.235389 19.68504
vt -2.235389 12.59842
vt -17.12598 0
vt -16.54243 4.432531
vt -16.54243 -4.432531
vt -14.83154 -8.562992
vt -14.83154 8.562992
vt -12.1099 -12.1099
vt -12.1099 12.1099
vt -8.562992 -14.83154
vt -8.562992 14.83154
vt -4.432531 -16.54243
vt -4.432531 16.54243
vt 1.187697E-12 -17.12598
vt 1.187697E-12 17.12598
vt 4.432531 -16.54243
vt 4.432531 16.54243
vt 8.562992 -14.83154
vt 8.562992 14.83154
vt 12.1099 -12.1099
vt 12.1099 12.1099
vt 14.83154 -8.562992
vt 14.83154 8.562992
vt 16.54243 -4.432531
vt 16.54243 4.432531
vt 17.12598 0

usemtl red

f 3/3/1 2/2/2 1/1/1
f 2/2/2 3/3/1 4/4/2
f 7/4/4 6/5/3 5/3/3
f 6/5/3 7/4/4 8/6/4
f 10/9/5 3/8/6 9/7/5
f 3/8/6 10/9/5 11/10/6
f 14/12/8 13/4/7 12/11/7
f 13/4/7 14/12/8 15/3/8
f 18/14/10 17/4/9 16/13/9
f 17/4/9 18/14/10 19/3/10
f 14/17/11 16/16/11 20/15/11
f 16/16/11 14/17/11 18/18/11
f 18/18/11 14/17/11 12/19/11
f 21/20/11 20/15/11 16/16/11
f 21/20/11 22/21/11 20/15/11
f 23/22/11 22/21/11 21/20/11
f 23/22/11 24/23/11 22/21/11
f 25/24/11 24/23/11 23/22/11
f 25/24/11 26/25/11 24/23/11
f 1/26/11 26/25/11 25/24/11
f 1/26/11 27/27/11 26/25/11
f 1/26/11 28/28/11 27/27/11
f 2/29/11 28/28/11 1/26/11
f 29/30/11 28/28/11 2/29/11
f 29/30/11 30/31/11 28/28/11
f 31/32/11 30/31/11 29/30/11
f 32/33/11 30/31/11 31/32/11
f 8/34/11 30/31/11 32/33/11
f 30/31/11 8/34/11 33/35/11
f 34/36/11 8/34/11 32/33/11
f 34/36/11 6/37/11 8/34/11
f 6/37/11 34/36/11 35/38/11
f 4/3/2 29/40/12 2/39/2
f 29/40/12 4/3/2 36/4/12
f 39/9/13 38/8/14 37/7/13
f 38/8/14 39/9/13 40/10/14
f 28/42/16 41/4/15 27/41/15
f 41/4/15 28/42/16 42/3/16
f 13/7/18 43/10/17 19/8/17
f 43/10/17 13/7/18 44/9/18
f 46/9/19 9/8/5 45/7/19
f 9/8/5 46/9/19 10/10/5
f 12/44/7 19/4/10 18/43/10
f 19/4/10 12/44/7 13/3/7
f 47/4/21 32/45/20 38/3/20
f 32/45/20 47/4/21 34/46/21
f 50/10/23 49/7/22 48/9/22
f 49/7/22 50/10/23 5/8/23
f 52/9/24 45/8/19 51/7/24
f 45/8/19 52/9/24 46/10/19
f 53/9/25 36/8/26 4/7/25
f 36/8/26 53/9/25 54/10/26
f 27/48/15 55/4/27 26/47/27
f 55/4/27 27/48/15 41/3/15
f 5/4/3 35/49/28 49/3/28
f 35/49/28 5/4/3 6/50/3
f 56/10/29 5/7/23 50/9/23
f 5/7/23 56/10/29 7/8/29
f 40/9/14 47/8/30 38/7/14
f 47/8/30 40/9/14 57/10/30
f 45/3/31 25/52/32 23/51/31
f 25/52/32 45/3/31 9/4/32
f 20/54/33 15/4/8 14/53/8
f 15/4/8 20/54/33 58/3/33
f 9/3/32 1/56/1 25/55/32
f 1/56/1 9/3/32 3/4/1
f 60/7/35 59/10/34 42/8/34
f 59/10/34 60/7/35 61/9/35
f 55/7/37 63/10/36 62/8/36
f 63/10/36 55/7/37 64/9/37
f 30/58/38 42/4/16 28/57/16
f 42/4/16 30/58/38 60/3/38
f 17/7/39 52/10/24 51/8/24
f 52/10/24 17/7/39 65/9/39
f 42/7/34 66/10/40 41/8/40
f 66/10/40 42/7/34 59/9/34
f 62/7/36 68/10/41 67/8/41
f 68/10/41 62/7/36 63/9/36
f 49/4/28 34/59/21 47/3/21
f 34/59/21 49/4/28 35/60/28
f 15/7/42 44/10/18 13/8/18
f 44/10/18 15/7/42 69/9/42
f 70/10/43 7/7/29 56/9/29
f 7/7/29 70/10/43 71/8/43
f 57/9/30 49/8/22 47/7/30
f 49/8/22 57/9/30 48/10/22
f 41/7/40 64/10/37 55/8/37
f 64/10/37 41/7/40 66/9/40
f 26/62/27 62/4/44 24/61/44
f 62/4/44 26/62/27 55/3/27
f 15/8/42 72/9/45 69/10/42
f 72/9/45 15/8/42 58/7/45
f 71/7/43 61/10/35 60/8/35
f 61/10/35 71/7/43 70/9/43
f 11/9/6 4/8/25 3/7/6
f 4/8/25 11/9/6 53/10/25
f 19/7/17 65/10/39 17/8/39
f 65/10/39 19/7/17 43/9/17
f 58/8/45 68/9/41 72/10/45
f 68/9/41 58/8/45 67/7/41
f 22/65/7 58/64/7 20/63/7
f 58/64/7 22/65/7 73/66/7
f 74/32/46 51/67/46 45/30/46
f 51/67/46 74/32/46 17/33/46
f 38/64/28 31/68/28 75/66/28
f 31/68/28 38/64/28 32/69/28
f 16/72/7 74/71/7 21/70/7
f 74/71/7 16/72/7 17/73/7
f 36/73/1 31/75/1 29/74/1
f 31/75/1 36/73/1 75/71/1
f 67/76/46 73/35/46 62/31/46
f 73/35/46 67/76/46 58/34/46
f 75/20/46 37/77/46 38/16/46
f 37/77/46 75/20/46 36/22/46
f 76/66/15 30/79/15 33/78/15
f 30/79/15 76/66/15 60/64/15
f 54/9/26 37/8/13 36/7/26
f 37/8/13 54/9/26 39/10/13
f 24/81/15 73/71/15 22/80/15
f 73/71/15 24/81/15 62/73/15
f 71/82/46 76/21/46 7/15/46
f 76/21/46 71/82/46 60/23/46
f 74/66/1 23/84/1 21/83/1
f 23/84/1 74/66/1 45/64/1
f 76/71/28 8/85/28 7/73/28
f 8/85/28 76/71/28 33/86/28

usemtl stone

f 78/89/21 40/88/47 77/87/47
f 40/88/47 78/89/21 57/90/21
f 66/88/15 79/89/27 64/90/27
f 79/89/27 66/88/15 80/87/15
f 63/88/49 81/89/48 68/90/48
f 81/89/48 63/88/49 82/87/49
f 44/88/7 83/89/10 43/90/10
f 83/89/10 44/88/7 84/87/7
f 85/87/50 10/90/32 46/88/50
f 10/90/32 85/87/50 86/89/32
f 87/87/1 53/90/2 11/88/1
f 53/90/2 87/87/1 88/89/2
f 72/88/51 89/89/8 69/90/8
f 89/89/8 72/88/51 90/87/51
f 88/87/2 54/90/52 53/88/2
f 54/90/52 88/87/2 91/89/52
f 93/89/3 48/88/28 92/87/28
f 48/88/28 93/89/3 50/90/3
f 61/88/53 94/89/16 59/90/16
f 94/89/16 61/88/53 95/87/53
f 70/88/54 95/89/53 61/90/53
f 95/89/53 70/88/54 96/87/54
f 43/88/10 97/89/55 65/90/55
f 97/89/55 43/88/10 83/87/10
f 78/93/46 93/92/46 92/91/46
f 93/92/46 78/93/46 77/94/46
f 93/92/46 77/94/46 98/95/46
f 98/95/46 77/94/46 99/96/46
f 98/95/46 99/96/46 96/97/46
f 96/97/46 99/96/46 91/98/46
f 96/97/46 91/98/46 95/99/46
f 95/99/46 91/98/46 88/100/46
f 95/99/46 88/100/46 94/101/46
f 94/101/46 88/100/46 87/102/46
f 94/101/46 87/102/46 80/103/46
f 80/103/46 87/102/46 86/104/46
f 80/103/46 86/104/46 79/105/46
f 79/105/46 86/104/46 85/106/46
f 79/105/46 85/106/46 82/107/46
f 82/107/46 85/106/46 100/108/46
f 82/107/46 100/108/46 81/109/46
f 81/109/46 100/108/46 97/110/46
f 81/109/46 97/110/46 90/111/46
f 90/111/46 97/110/46 83/112/46
f 90/111/46 83/112/46 89/113/46
f 89/113/46 83/112/46 84/114/46
f 64/88/27 82/89/49 63/90/49
f 82/89/49 64/88/27 79/87/27
f 91/87/52 39/90/56 54/88/52
f 39/90/56 91/87/52 99/89/56
f 100/87/57 46/90/50 52/88/57
f 46/90/50 100/87/57 85/89/50
f 65/88/55 100/89/57 52/90/57
f 100/89/57 65/88/55 97/87/55
f 96/89/54 56/88/58 98/87/58
f 56/88/58 96/89/54 70/90/54
f 69/88/8 84/89/7 44/90/7
f 84/89/7 69/88/8 89/87/8
f 98/89/58 50/88/3 93/87/3
f 50/88/3 98/89/58 56/90/58
f 59/88/16 80/89/15 66/90/15
f 80/89/15 59/88/16 94/87/16
f 77/89/47 39/88/56 99/87/56
f 39/88/56 77/89/47 40/90/47
f 92/89/28 57/88/21 78/87/21
f 57/88/21 92/89/28 48/90/28
f 68/88/48 90/89/51 72/90/51
f 90/89/51 68/88/48 81/87/48
f 86/87/32 11/90/1 10/88/32
f 11/90/1 86/87/32 87/89/1

