# Created by Kenney (www.kenney.nl)

mtllib woodStructure_high.mtl

g woodStructure_high

v 0.47625 0.405 -0.405
v 0.47625 0.405 0.405
v 0.42875 0.405 -0.405
v 0.42875 0.405 0.405
v 0.47625 0.31 -0.405
v 0.42875 0.31 -0.405
v 0.47625 0.31 0.405
v 0.42875 0.31 0.405
v 0.405 0.31 -0.42875
v 0.405 0.31 -0.47625
v -0.405 0.31 -0.42875
v -0.405 0.31 -0.47625
v 0.405 0.405 -0.47625
v 0.405 0.405 -0.42875
v -0.405 0.405 -0.47625
v -0.405 0.405 -0.42875
v 0.405 0.31 0.42875
v 0.405 0.405 0.42875
v -0.405 0.31 0.42875
v -0.405 0.405 0.42875
v 0.405 0.31 0.47625
v -0.405 0.31 0.47625
v 0.405 0.405 0.47625
v -0.405 0.405 0.47625
v -0.47625 0.31 -0.405
v -0.47625 0.405 -0.405
v -0.47625 0.31 0.405
v -0.47625 0.405 0.405
v -0.42875 0.31 -0.405
v -0.42875 0.31 0.405
v -0.42875 0.405 -0.405
v -0.42875 0.405 0.405
v -0.405 0 -0.5
v -0.405 0.905 -0.47625
v -0.405 1 -0.5
v -0.405 1 -0.405
v -0.405 0.905 -0.42875
v -0.405 0.8099999 -0.42875
v -0.405 0 -0.405
v -0.405 0.8099999 -0.47625
v -0.5 0 -0.5
v -0.5 1 -0.5
v -0.5 0 -0.405
v -0.5 1 -0.405
v -0.42875 0.8099999 -0.405
v -0.42875 0.905 -0.405
v -0.47625 0.905 -0.405
v -0.47625 0.8099999 -0.405
v -0.405 0 0.405
v -0.405 0.905 0.42875
v -0.405 1 0.405
v -0.405 1 0.5
v -0.405 0.905 0.47625
v -0.405 0.8099999 0.47625
v -0.405 0 0.5
v -0.405 0.8099999 0.42875
v 0.5 0 0.5
v 0.405 0 0.5
v 0.5 1 0.5
v 0.405 1 0.5
v 0.405 1 0.405
v 0.405 0 0.405
v 0.405 0.8099999 0.47625
v 0.405 0.905 0.47625
v 0.405 0.905 0.42875
v 0.405 0.8099999 0.42875
v 0.5 0 0.405
v 0.42875 0.8099999 0.405
v 0.42875 0.905 0.405
v 0.47625 0.905 0.405
v 0.5 1 0.405
v 0.47625 0.8099999 0.405
v 0.405 0 -0.405
v 0.5 0 -0.405
v 0.5 1 -0.405
v 0.47625 0.8099999 -0.405
v 0.47625 0.905 -0.405
v 0.42875 0.905 -0.405
v 0.405 1 -0.405
v 0.42875 0.8099999 -0.405
v 0.405 0 -0.5
v 0.5 0 -0.5
v 0.405 1 -0.5
v 0.5 1 -0.5
v 0.405 0.8099999 -0.42875
v 0.405 0.905 -0.42875
v 0.405 0.905 -0.47625
v 0.405 0.8099999 -0.47625
v -0.42875 0.8099999 0.405
v -0.47625 0.8099999 0.405
v -0.5 1 0.405
v -0.5 1 0.5
v -0.42875 0.905 0.405
v -0.47625 0.905 0.405
v -0.5 0 0.5
v -0.5 0 0.405

vn 0 1 0
vn 0 -1 0
vn -1 0 0
vn 1 0 0
vn 0 0 -1
vn 0 0 1

vt -18.75 -15.94488
vt -18.75 15.94488
vt -16.87992 -15.94488
vt -16.87992 15.94488
vt 18.75 -15.94488
vt 16.87992 -15.94488
vt 18.75 15.94488
vt 16.87992 15.94488
vt -15.94488 12.20472
vt -15.94488 15.94488
vt 15.94488 12.20472
vt 15.94488 15.94488
vt 15.94488 -16.87992
vt 15.94488 -18.75
vt -15.94488 -16.87992
vt -15.94488 -18.75
vt 15.94488 18.75
vt 15.94488 16.87992
vt -15.94488 18.75
vt -15.94488 16.87992
vt 19.68504 2.716547E-12
vt 18.75 35.62992
vt 19.68504 39.37008
vt 15.94488 39.37008
vt 16.87992 35.62992
vt 16.87992 31.88976
vt 16.87992 12.20472
vt 18.75 12.20472
vt 15.94488 2.716547E-12
vt 18.75 31.88976
vt 19.68504 0
vt 15.94488 0
vt -19.68504 3.353762E-12
vt -19.68504 39.37008
vt -15.94488 3.353762E-12
vt -15.94488 39.37008
vt -19.68504 0
vt -16.87992 12.20472
vt -15.94488 0
vt -16.87992 31.88976
vt -16.87992 35.62992
vt -18.75 35.62992
vt -18.75 12.20472
vt -18.75 31.88976
vt -15.94488 2.716547E-12
vt -19.68504 2.716547E-12
vt 19.68504 3.041123E-12
vt 15.94488 3.041123E-12
vt 15.94488 -2.716547E-12
vt 19.68504 -2.716547E-12
vt -15.94488 -5.854872E-12
vt -19.68504 -5.854872E-12
vt -15.94488 -3.367973E-12
vt -19.68504 -3.367973E-12
vt 19.68504 -3.353762E-12
vt 15.94488 -3.353762E-12
vt -19.68504 -2.716547E-12
vt -15.94488 -2.716547E-12
vt 15.94488 -19.68504
vt 15.94488 -15.94488
vt 19.68504 -19.68504
vt 19.68504 -15.94488
vt -19.68504 -19.68504
vt -19.68504 -15.94488
vt -15.94488 -19.68504
vt -15.94488 -15.94488
vt 15.94488 31.88976
vt -15.94488 31.88976
vt 15.94488 35.62992
vt -15.94488 35.62992
vt 15.94488 19.68504
vt 19.68504 15.94488
vt 19.68504 19.68504
vt -19.68504 15.94488
vt -19.68504 19.68504
vt -15.94488 19.68504
vt 15.94488 6.707523E-12
vt 19.68504 6.707523E-12

usemtl wood

f 3/3/1 2/2/1 1/1/1
f 2/2/1 3/3/1 4/4/1
f 7/7/2 6/6/2 5/5/2
f 6/6/2 7/7/2 8/8/2
f 8/11/3 3/10/3 6/9/3
f 3/10/3 8/11/3 4/12/3
f 1/12/4 7/9/4 5/11/4
f 7/9/4 1/12/4 2/10/4
f 11/15/2 10/14/2 9/13/2
f 10/14/2 11/15/2 12/16/2
f 15/14/1 14/15/1 13/16/1
f 14/15/1 15/14/1 16/13/1
f 12/11/5 13/10/5 10/9/5
f 13/10/5 12/11/5 15/12/5
f 14/12/6 11/9/6 9/11/6
f 11/9/6 14/12/6 16/10/6
f 19/11/5 18/10/5 17/9/5
f 18/10/5 19/11/5 20/12/5
f 23/12/6 22/9/6 21/11/6
f 22/9/6 23/12/6 24/10/6
f 22/19/2 17/18/2 21/17/2
f 17/18/2 22/19/2 19/20/2
f 20/18/1 23/19/1 18/20/1
f 23/19/1 20/18/1 24/17/1
f 27/11/3 26/10/3 25/9/3
f 26/10/3 27/11/3 28/12/3
f 31/12/4 30/9/4 29/11/4
f 30/9/4 31/12/4 32/10/4
f 26/5/1 32/8/1 31/6/1
f 32/8/1 26/5/1 28/7/1
f 30/4/2 25/1/2 29/3/2
f 25/1/2 30/4/2 27/2/2
f 35/23/4 34/22/4 33/21/4
f 34/22/4 35/23/4 36/24/4
f 34/22/4 36/24/4 37/25/4
f 37/25/4 36/24/4 38/26/4
f 38/26/4 36/24/4 16/8/4
f 16/8/4 36/24/4 11/27/4
f 12/28/4 33/21/4 34/22/4
f 33/21/4 12/28/4 39/29/4
f 39/29/4 12/28/4 11/27/4
f 39/29/4 11/27/4 36/24/4
f 12/28/4 34/22/4 40/30/4
f 12/28/4 40/30/4 15/7/4
f 38/26/4 15/7/4 40/30/4
f 15/7/4 38/26/4 16/8/4
f 42/23/5 33/32/5 41/31/5
f 33/32/5 42/23/5 35/24/5
f 43/35/3 42/34/3 41/33/3
f 42/34/3 43/35/3 44/36/3
f 39/39/6 29/38/6 43/37/6
f 29/38/6 39/39/6 36/36/6
f 29/38/6 36/36/6 31/4/6
f 31/4/6 36/36/6 26/2/6
f 26/2/6 36/36/6 45/40/6
f 45/40/6 36/36/6 46/41/6
f 46/41/6 36/36/6 47/42/6
f 25/43/6 43/37/6 29/38/6
f 43/37/6 25/43/6 44/34/6
f 44/34/6 25/43/6 26/2/6
f 44/34/6 47/42/6 36/36/6
f 44/34/6 26/2/6 48/44/6
f 48/44/6 26/2/6 45/40/6
f 44/34/6 48/44/6 47/42/6
f 51/36/4 50/41/4 49/45/4
f 50/41/4 51/36/4 52/34/4
f 50/41/4 52/34/4 53/42/4
f 53/42/4 52/34/4 54/44/4
f 54/44/4 52/34/4 24/2/4
f 24/2/4 52/34/4 22/43/4
f 19/38/4 49/45/4 50/41/4
f 49/45/4 19/38/4 55/46/4
f 55/46/4 19/38/4 22/43/4
f 55/46/4 22/43/4 52/34/4
f 19/38/4 50/41/4 56/40/4
f 19/38/4 56/40/4 20/4/4
f 54/44/4 20/4/4 56/40/4
f 20/4/4 54/44/4 24/2/4
f 59/23/6 58/48/6 57/47/6
f 58/48/6 59/23/6 60/24/6
f 62/49/3 17/27/3 61/24/3
f 17/27/3 62/49/3 58/50/3
f 17/27/3 58/50/3 21/28/3
f 21/28/3 58/50/3 23/7/3
f 23/7/3 58/50/3 63/30/3
f 63/30/3 58/50/3 64/22/3
f 65/25/3 61/24/3 17/27/3
f 61/24/3 65/25/3 60/23/3
f 60/23/3 65/25/3 64/22/3
f 60/23/3 64/22/3 58/50/3
f 65/25/3 17/27/3 18/8/3
f 65/25/3 18/8/3 66/26/3
f 23/7/3 66/26/3 18/8/3
f 66/26/3 23/7/3 63/30/3
f 62/39/5 8/38/5 67/37/5
f 8/38/5 62/39/5 61/36/5
f 8/38/5 61/36/5 4/4/5
f 4/4/5 61/36/5 2/2/5
f 2/2/5 61/36/5 68/40/5
f 68/40/5 61/36/5 69/41/5
f 69/41/5 61/36/5 70/42/5
f 7/43/5 67/37/5 8/38/5
f 67/37/5 7/43/5 71/34/5
f 71/34/5 7/43/5 2/2/5
f 71/34/5 70/42/5 61/36/5
f 71/34/5 2/2/5 72/44/5
f 72/44/5 2/2/5 68/40/5
f 71/34/5 72/44/5 70/42/5
f 59/34/4 67/51/4 71/36/4
f 67/51/4 59/34/4 57/52/4
f 74/31/6 5/28/6 73/32/6
f 5/28/6 74/31/6 75/23/6
f 5/28/6 75/23/6 1/7/6
f 1/7/6 75/23/6 3/8/6
f 3/8/6 75/23/6 76/30/6
f 76/30/6 75/23/6 77/22/6
f 77/22/6 75/23/6 78/25/6
f 6/27/6 73/32/6 5/28/6
f 73/32/6 6/27/6 79/24/6
f 79/24/6 6/27/6 3/8/6
f 79/24/6 78/25/6 75/23/6
f 79/24/6 3/8/6 80/26/6
f 80/26/6 3/8/6 76/30/6
f 79/24/6 80/26/6 78/25/6
f 83/36/5 82/54/5 81/53/5
f 82/54/5 83/36/5 84/34/5
f 84/23/4 74/56/4 82/55/4
f 74/56/4 84/23/4 75/24/4
f 81/57/3 10/43/3 83/34/3
f 10/43/3 81/57/3 73/58/3
f 10/43/3 73/58/3 9/38/3
f 9/38/3 73/58/3 14/4/3
f 14/4/3 73/58/3 85/40/3
f 85/40/3 73/58/3 86/41/3
f 87/42/3 83/34/3 10/43/3
f 83/34/3 87/42/3 79/36/3
f 79/36/3 87/42/3 86/41/3
f 79/36/3 86/41/3 73/58/3
f 87/42/3 10/43/3 13/2/3
f 87/42/3 13/2/3 88/44/3
f 14/4/3 88/44/3 13/2/3
f 88/44/3 14/4/3 85/40/3
f 38/15/2 88/14/2 85/13/2
f 88/14/2 38/15/2 40/16/2
f 34/14/1 86/15/1 87/16/1
f 86/15/1 34/14/1 37/13/1
f 78/3/1 70/2/1 77/1/1
f 70/2/1 78/3/1 69/4/1
f 50/18/1 64/19/1 65/20/1
f 64/19/1 50/18/1 53/17/1
f 42/61/1 36/60/1 35/59/1
f 36/60/1 42/61/1 44/62/1
f 83/65/1 75/64/1 84/63/1
f 75/64/1 83/65/1 79/66/1
f 54/19/2 66/18/2 63/17/2
f 66/18/2 54/19/2 56/20/2
f 72/7/2 80/6/2 76/5/2
f 80/6/2 72/7/2 68/8/2
f 89/4/2 48/1/2 45/3/2
f 48/1/2 89/4/2 90/2/2
f 77/69/4 72/68/4 76/67/4
f 72/68/4 77/69/4 70/70/4
f 91/72/1 52/71/1 51/12/1
f 52/71/1 91/72/1 92/73/1
f 46/69/4 89/68/4 45/67/4
f 89/68/4 46/69/4 93/70/4
f 68/67/3 78/70/3 80/68/3
f 78/70/3 68/67/3 69/69/3
f 61/10/1 59/75/1 71/74/1
f 59/75/1 61/10/1 60/76/1
f 56/67/5 65/70/5 66/68/5
f 65/70/5 56/67/5 50/69/5
f 40/67/5 87/70/5 88/68/5
f 87/70/5 40/67/5 34/69/5
f 47/5/1 93/8/1 46/6/1
f 93/8/1 47/5/1 94/7/1
f 64/69/6 54/68/6 63/67/6
f 54/68/6 64/69/6 53/70/6
f 86/69/6 38/68/6 85/67/6
f 38/68/6 86/69/6 37/70/6
f 90/67/3 47/70/3 48/68/3
f 47/70/3 90/67/3 94/69/3
f 52/36/6 95/37/6 55/39/6
f 95/37/6 52/36/6 92/34/6
f 95/78/3 91/24/3 96/77/3
f 91/24/3 95/78/3 92/23/3
f 96/31/5 27/28/5 49/32/5
f 27/28/5 96/31/5 91/23/5
f 27/28/5 91/23/5 28/7/5
f 28/7/5 91/23/5 32/8/5
f 32/8/5 91/23/5 90/30/5
f 90/30/5 91/23/5 94/22/5
f 94/22/5 91/23/5 93/25/5
f 30/27/5 49/32/5 27/28/5
f 49/32/5 30/27/5 51/24/5
f 51/24/5 30/27/5 32/8/5
f 51/24/5 93/25/5 91/23/5
f 51/24/5 32/8/5 89/26/5
f 89/26/5 32/8/5 90/30/5
f 51/24/5 89/26/5 93/25/5

usemtl _defaultMat

f 43/1/2 33/4/2 39/2/2
f 33/1/2 43/4/2 41/2/2
f 95/4/2 49/44/2 55/2/2
f 49/4/2 95/44/2 96/2/2
f 58/26/2 67/7/2 57/30/2
f 67/26/2 58/7/2 62/30/2
f 73/24/2 82/25/2 74/23/2
f 82/24/2 73/25/2 81/23/2

